<svg xmlns="http://www.w3.org/2000/svg" width="225" height="39" fill="none" viewBox="0 0 225 39">
    <path fill="#000" fill-rule="evenodd" d="M146.814 38.102l-.015-.028c-.472-.983-.707-2.157-.707-3.525 0-1.8.404-3.267 1.212-4.4.806-1.133 1.866-2.016 3.178-2.649 1.311-.633 2.783-1.084 4.415-1.35 1.631-.266 3.287-.434 4.97-.5l3.381-.15v-1.3c0-1.6-.446-2.7-1.337-3.3-.892-.6-1.943-.9-3.154-.9-2.793 0-4.391 1.05-4.794 3.15l-6.458-.6c.47-2.733 1.681-4.707 3.633-5.924 1.95-1.216 4.574-1.825 7.872-1.825 2.017 0 3.733.242 5.146.725 1.413.484 2.548 1.175 3.405 2.075.858.9 1.48 1.992 1.867 3.275.386 1.282.581 2.724.581 4.323v12.903h-23.195zm16.383-8.053l-3.128.15c-1.48.067-2.675.218-3.583.45-.909.233-1.606.525-2.094.875-.488.35-.816.758-.984 1.226-.168.467-.252.983-.252 1.549 0 .867.303 1.55.907 2.05.606.5 1.447.75 2.524.75 1.816 0 3.296-.417 4.44-1.25.639-.466 1.162-1.057 1.565-1.774.403-.716.605-1.608.605-2.677V30.05zm-25.724-4.85c0-.932-.083-1.69-.251-2.274-.169-.583-.396-1.041-.682-1.374-.285-.334-.63-.567-1.034-.7-.404-.134-.825-.2-1.261-.2-.706 0-1.354.117-1.943.349-.589.234-1.168.634-1.74 1.2-.471.467-.85 1-1.135 1.601-.287.6-.429 1.233-.429 1.898v12.403h-7.064V25.199c0-.932-.084-1.69-.253-2.274-.168-.583-.395-1.041-.68-1.374-.288-.334-.632-.567-1.035-.7-.404-.134-.825-.2-1.263-.2-.705 0-1.354.117-1.941.349-.589.234-1.17.634-1.741 1.2-.472.467-.851 1.025-1.135 1.674-.286.651-.43 1.36-.43 2.125v12.103h-7.063V15.6h6.861v3.5c.976-1.466 2.12-2.551 3.432-3.25 1.312-.7 2.69-1.05 4.137-1.05 1.918 0 3.482.384 4.693 1.15 1.212.768 2.069 1.884 2.574 3.349 1.211-1.6 2.488-2.75 3.834-3.448 1.345-.701 2.826-1.051 4.44-1.051 2.724 0 4.769.742 6.131 2.225 1.363 1.484 2.043 3.89 2.043 7.224v13.852h-7.065V25.199zm-36.357 12.903H80.277c-1.86-2.342-2.796-5.504-2.796-9.503 0-2.132.311-4.057.933-5.773.622-1.717 1.513-3.166 2.674-4.35 1.16-1.182 2.566-2.091 4.214-2.724 1.648-.633 3.482-.951 5.499-.951 2.052 0 3.903.318 5.551.95 1.647.634 3.052 1.543 4.213 2.725 1.16 1.184 2.043 2.633 2.649 4.35.605 1.716.908 3.641.908 5.773 0 2.168-.311 4.109-.933 5.825-.509 1.402-1.206 2.62-2.073 3.678zM95.317 22.5c-.992-1.4-2.497-2.1-4.516-2.1-2.017 0-3.524.7-4.516 2.1-.991 1.401-1.487 3.434-1.487 6.1 0 2.7.487 4.759 1.463 6.175.975 1.416 2.489 2.125 4.54 2.125 2.019 0 3.524-.718 4.516-2.151.992-1.433 1.49-3.483 1.49-6.15 0-2.665-.498-4.698-1.49-6.099zm-21.529-1.049c-.775 0-1.514.092-2.22.274-.707.184-1.346.525-1.917 1.025-.606.534-1.053 1.133-1.337 1.8-.286.667-.43 1.35-.43 2.05v11.502H60.82V15.6h6.862v3.65c.875-1.368 1.934-2.392 3.179-3.074 1.245-.683 2.556-1.026 3.936-1.026.672 0 1.228.025 1.665.075.436.05.824.108 1.16.175l-.857 6.35c-.808-.2-1.801-.3-2.977-.3zm-23.19 3.948c0-1.832-.353-3.081-1.06-3.749-.706-.666-1.648-1-2.825-1-.909 0-1.69.134-2.348.4-.655.268-1.269.65-1.84 1.15-.472.467-.867 1.025-1.186 1.674-.32.651-.48 1.36-.48 2.125v12.103h-7.064v-32.1h7.064v12.899c1.043-1.4 2.253-2.433 3.633-3.1 1.379-.666 2.826-1 4.34-1 2.993 0 5.214.775 6.66 2.325 1.446 1.549 2.17 3.992 2.17 7.324v13.652h-7.064V25.399zM16.7 36.2c2.321 0 4.028-.591 5.121-1.775 1.093-1.183 1.774-2.875 2.043-5.075h8.075c-.17 1.9-.615 3.659-1.338 5.275-.583 1.303-1.348 2.457-2.28 3.478H4.838c-.21-.216-.429-.422-.626-.653-1.397-1.632-2.447-3.607-3.154-5.924C.353 29.207 0 26.65 0 23.85c0-2.9.386-5.5 1.16-7.798.774-2.3 1.883-4.268 3.33-5.9 1.446-1.633 3.196-2.883 5.248-3.75s4.372-1.3 6.963-1.3c2.287 0 4.28.284 5.98.85 1.697.567 3.127 1.383 4.287 2.45 1.162 1.066 2.096 2.348 2.802 3.85.707 1.5 1.227 3.183 1.564 5.049l-7.469.95c-.37-2.1-1.084-3.75-2.144-4.95-1.059-1.2-2.733-1.8-5.02-1.8-2.894 0-5.088 1.075-6.585 3.225-1.497 2.15-2.246 5.192-2.246 9.124 0 3.967.8 7.016 2.398 9.15 1.597 2.133 3.74 3.199 6.433 3.199z" clip-rule="evenodd"/>
    <rect width="50.991" height="18.603" x="174.009" fill="#2F80ED" rx="9.301"/>
    <path fill="#fff" d="M183.814 13h4.344c1.525 0 2.329-.96 2.329-2.16 0-1.007-.684-1.836-1.536-1.968.756-.156 1.38-.828 1.38-1.836 0-1.068-.78-2.04-2.305-2.04h-4.212v8.005zm1.704-4.788V6.448h2.136c.576 0 .937.384.937.876 0 .516-.361.888-.937.888h-2.136zm0 3.337V9.665h2.196c.672 0 1.033.432 1.033.936 0 .576-.385.948-1.033.948h-2.196zM191.772 13h5.088v-1.5h-3.384V4.996h-1.704v8.005zm5.569-3.997c0 2.413 1.764 4.14 4.176 4.14 2.424 0 4.189-1.727 4.189-4.14 0-2.412-1.765-4.14-4.189-4.14-2.412 0-4.176 1.728-4.176 4.14zm6.612 0c0 1.489-.96 2.629-2.436 2.629s-2.424-1.14-2.424-2.629c0-1.5.948-2.628 2.424-2.628s2.436 1.128 2.436 2.628zm2.564 0c0 2.52 1.921 4.153 4.261 4.153 1.452 0 2.592-.6 3.408-1.512v-3.06h-3.816v1.463h2.136v.973c-.348.312-.996.612-1.728.612-1.452 0-2.509-1.116-2.509-2.629 0-1.512 1.057-2.628 2.509-2.628.84 0 1.524.444 1.896 1.008l1.416-.768c-.612-.948-1.656-1.752-3.312-1.752-2.34 0-4.261 1.608-4.261 4.14z"/>
</svg>
