<svg xmlns="http://www.w3.org/2000/svg" width="41" height="41" fill="none" viewBox="0 0 41 41">
    <circle cx="20.5" cy="20.5" r="20.5" fill="#115EC6"/>
    <path fill="#fff" fill-rule="evenodd" d="M22.402 23.768c-.973.686-2.164 1.09-3.451 1.09-3.289 0-5.954-2.637-5.954-5.89 0-3.252 2.665-5.888 5.954-5.888 3.288 0 5.954 2.636 5.954 5.889 0 1.272-.408 2.45-1.101 3.413l3.912 3.87c.385.38.382.99 0 1.369l-.017.016c-.381.377-1.002.378-1.384 0l-3.913-3.87zm-3.451-.296c2.515 0 4.553-2.016 4.553-4.503 0-2.488-2.038-4.504-4.553-4.504s-4.553 2.017-4.553 4.504c0 2.487 2.038 4.503 4.553 4.503z" clip-rule="evenodd"/>
</svg>
