<svg xmlns="http://www.w3.org/2000/svg" width="30" height="30" fill="none" viewBox="0 0 30 30">
    <circle cx="15" cy="15" r="15" fill="#2F80ED"/>
    <path fill="#fff" fill-rule="evenodd" d="M16.923 18.304c-.984.693-2.188 1.101-3.489 1.101-3.324 0-6.02-2.665-6.02-5.953 0-3.288 2.696-5.953 6.02-5.953 3.325 0 6.02 2.665 6.02 5.953 0 1.287-.413 2.478-1.114 3.45l3.954 3.912c.39.386.387 1.002 0 1.385l-.016.016c-.386.381-1.013.382-1.4 0l-3.955-3.911zm-3.489-.3c2.542 0 4.603-2.038 4.603-4.552S15.977 8.9 13.434 8.9c-2.542 0-4.603 2.038-4.603 4.552s2.061 4.553 4.603 4.553z" clip-rule="evenodd"/>
</svg>
