<?xml version="1.0" encoding="UTF-8" standalone="no"?>
<!-- Generator: Adobe Illustrator 21.0.2, SVG Export Plug-In . SVG Version: 6.00 Build 0)  -->

<svg
   xmlns:dc="http://purl.org/dc/elements/1.1/"
   xmlns:cc="http://creativecommons.org/ns#"
   xmlns:rdf="http://www.w3.org/1999/02/22-rdf-syntax-ns#"
   xmlns:svg="http://www.w3.org/2000/svg"
   xmlns="http://www.w3.org/2000/svg"
   xmlns:sodipodi="http://sodipodi.sourceforge.net/DTD/sodipodi-0.dtd"
   xmlns:inkscape="http://www.inkscape.org/namespaces/inkscape"
   version="1.1"
   id="Layer_1"
   x="0px"
   y="0px"
   viewBox="0 0 270.00001 99.999995"
   xml:space="preserve"
   sodipodi:docname="eulogo.svg"
   width="270"
   height="100"
   inkscape:version="0.92.1 r15371"><metadata
     id="metadata3877"><rdf:RDF><cc:Work
         rdf:about=""><dc:format>image/svg+xml</dc:format><dc:type
           rdf:resource="http://purl.org/dc/dcmitype/StillImage" /><dc:title></dc:title></cc:Work></rdf:RDF></metadata><defs
     id="defs3875" /><sodipodi:namedview
     pagecolor="#ffffff"
     bordercolor="#666666"
     borderopacity="1"
     objecttolerance="10"
     gridtolerance="10"
     guidetolerance="10"
     inkscape:pageopacity="0"
     inkscape:pageshadow="2"
     inkscape:window-width="1920"
     inkscape:window-height="1147"
     id="namedview3873"
     showgrid="false"
     inkscape:zoom="1.6428327"
     inkscape:cx="312.4325"
     inkscape:cy="161.57434"
     inkscape:window-x="-8"
     inkscape:window-y="22"
     inkscape:window-maximized="1"
     inkscape:current-layer="Layer_1" /><style
     type="text/css"
     id="style3680">
	.st0{fill:none;}
	.st1{fill-rule:evenodd;clip-rule:evenodd;fill:url(#SVGID_1_);}
	.st2{fill-rule:evenodd;clip-rule:evenodd;fill:url(#SVGID_2_);}
	.st3{fill-rule:evenodd;clip-rule:evenodd;fill:url(#SVGID_3_);}
	.st4{fill-rule:evenodd;clip-rule:evenodd;fill:url(#SVGID_4_);}
	.st5{fill-rule:evenodd;clip-rule:evenodd;fill:url(#SVGID_5_);}
	.st6{fill-rule:evenodd;clip-rule:evenodd;fill:url(#SVGID_6_);}
	.st7{fill-rule:evenodd;clip-rule:evenodd;fill:url(#SVGID_7_);}
	.st8{fill-rule:evenodd;clip-rule:evenodd;fill:url(#SVGID_8_);}
	.st9{fill-rule:evenodd;clip-rule:evenodd;fill:url(#SVGID_9_);}
	.st10{fill:url(#SVGID_10_);}
	.st11{fill:#8B0E13;}
</style><g
     id="g3870"
     transform="translate(-162.64999,-370.95)"><rect
       x="123.2"
       y="335.89999"
       class="st0"
       width="348.89999"
       height="170.10001"
       id="rect3682"
       style="fill:none" /><g
       id="g3868"><g
         id="g3738"><g
           id="g3736"><path
             d="m 246.4,455.5 -3.6,-5.6 c -0.4,-0.6 -0.7,-1.1 -0.9,-1.6 0,1 0.1,3.4 0.1,4.9 v 2.4 h -0.8 v -8 h 1 l 3.5,5.5 c 0.3,0.5 0.7,1.1 1,1.7 0,-1.1 -0.1,-3.5 -0.1,-5.1 v -2.1 h 0.8 v 8 h -1 z"
             id="path3684"
             inkscape:connector-curvature="0" /><path
             d="m 255.4,455.5 -0.7,-2 H 251 l -0.8,2 h -0.8 l 3,-8 h 0.8 l 3,8 z m -2.2,-6.1 c -0.1,-0.4 -0.3,-0.8 -0.4,-1.2 v 0 c -0.1,0.4 -0.2,0.8 -0.4,1.1 l -1.3,3.4 h 3.3 z"
             id="path3686"
             inkscape:connector-curvature="0" /><path
             d="m 262.1,455.5 -3.1,-3.8 v 0 3.8 h -0.8 v -8 c 0.5,0 1,0 1.8,0 1.5,0 2.6,0.5 2.6,2 0,1.5 -1.2,2.3 -2.7,2.3 0.2,0.3 0.5,0.6 0.7,0.8 l 2.5,3 h -1 z m -2.3,-7.5 c -0.3,0 -0.6,0 -0.8,0 v 3 c 0.1,0 0.4,0 0.8,0 1.3,0 2.1,-0.7 2.1,-1.6 -0.1,-1 -0.8,-1.4 -2.1,-1.4 z"
             id="path3688"
             inkscape:connector-curvature="0" /><path
             d="m 268.1,455.6 c -2.4,0 -3.5,-1.6 -3.5,-4 0,-2.7 1.7,-4.2 3.7,-4.2 2.2,0 3.5,1.5 3.5,4 0.1,2.7 -1.6,4.2 -3.7,4.2 z m 0.1,-7.6 c -1.5,0 -2.8,1.2 -2.8,3.4 0,2.1 0.9,3.5 2.8,3.5 1.5,0 2.8,-1.2 2.8,-3.4 0,-2.2 -1,-3.5 -2.8,-3.5 z"
             id="path3690"
             inkscape:connector-curvature="0" /><path
             d="m 276.1,455.5 c -0.8,0 -1.4,0 -1.9,0 v -8 c 0.6,0 1.5,0 2.3,0 2.6,0 4.2,1.3 4.2,4 -0.1,2.6 -2,4 -4.6,4 z m 0.2,-7.5 c -0.5,0 -1,0 -1.4,0 v 6.7 c 0.4,0 0.9,0.1 1.2,0.1 2.1,0 3.6,-1.1 3.6,-3.4 0.1,-2.3 -1.1,-3.4 -3.4,-3.4 z"
             id="path3692"
             inkscape:connector-curvature="0" /><path
             d="m 285.9,455.6 c -2.4,0 -3.5,-1.6 -3.5,-4 0,-2.7 1.7,-4.2 3.7,-4.2 2.2,0 3.5,1.5 3.5,4 0,2.7 -1.6,4.2 -3.7,4.2 z M 286,448 c -1.5,0 -2.8,1.2 -2.8,3.4 0,2.1 0.9,3.5 2.8,3.5 1.5,0 2.8,-1.2 2.8,-3.4 0,-2.2 -1,-3.5 -2.8,-3.5 z"
             id="path3694"
             inkscape:connector-curvature="0" /><path
             d="m 299.3,455.5 h -1 l -1.8,-6.1 c -0.1,-0.4 -0.2,-0.8 -0.3,-1.2 v 0 c -0.1,0.4 -0.2,0.8 -0.3,1.2 l -1.7,6.1 h -1 l -2.2,-8 h 0.8 l 1.5,5.8 c 0.1,0.5 0.3,1 0.3,1.5 v 0 c 0.1,-0.5 0.2,-1 0.3,-1.4 l 1.7,-5.9 h 1 l 1.8,6 c 0.1,0.4 0.2,0.9 0.3,1.3 v 0 c 0.1,-0.4 0.2,-0.8 0.3,-1.1 l 1.6,-6.2 h 0.8 z"
             id="path3696"
             inkscape:connector-curvature="0" /><path
             d="m 308.2,455.5 -0.7,-2 h -3.7 l -0.8,2 h -0.8 l 3,-8 h 0.8 l 3,8 z m -2.2,-6.1 c -0.1,-0.4 -0.3,-0.8 -0.4,-1.2 v 0 c -0.1,0.4 -0.2,0.8 -0.4,1.1 l -1.3,3.4 h 3.3 z"
             id="path3698"
             inkscape:connector-curvature="0" /><path
             d="m 315,455.6 c -0.6,0 -1.2,-0.1 -1.6,-0.2 v -0.8 c 0.5,0.2 1.1,0.3 1.6,0.3 1.1,0 2,-0.4 2,-1.6 0,-2 -3.8,-1.3 -3.8,-3.8 0,-1.3 1,-2.2 2.7,-2.2 0.5,0 1,0.1 1.4,0.1 v 0.7 c -0.5,-0.1 -1,-0.2 -1.5,-0.2 -1.2,0 -1.9,0.6 -1.9,1.5 0,1.9 3.8,1.2 3.8,3.8 0.2,1.4 -0.9,2.4 -2.7,2.4 z"
             id="path3700"
             inkscape:connector-curvature="0" /><path
             d="m 321.8,448 v 7.4 H 321 V 448 h -2.5 v -0.6 h 5.7 v 0.6 z"
             id="path3702"
             inkscape:connector-curvature="0" /><path
             d="m 329.5,455.5 -3.1,-3.8 v 0 3.8 h -0.8 v -8 c 0.5,0 1,0 1.8,0 1.5,0 2.6,0.5 2.6,2 0,1.5 -1.2,2.3 -2.7,2.3 0.2,0.3 0.5,0.6 0.7,0.8 l 2.5,3 h -1 z m -2.3,-7.5 c -0.3,0 -0.6,0 -0.8,0 v 3 c 0.1,0 0.4,0 0.8,0 1.3,0 2.1,-0.7 2.1,-1.6 -0.1,-1 -0.8,-1.4 -2.1,-1.4 z"
             id="path3704"
             inkscape:connector-curvature="0" /><path
             d="m 337.1,455.5 -0.7,-2 h -3.7 l -0.8,2 h -0.8 l 3,-8 h 0.8 l 3,8 z m -2.2,-6.1 c -0.1,-0.4 -0.3,-0.8 -0.4,-1.2 v 0 c -0.1,0.4 -0.2,0.8 -0.4,1.1 l -1.3,3.4 h 3.3 z"
             id="path3706"
             inkscape:connector-curvature="0" /><path
             d="m 340.8,448 v 7.4 H 340 V 448 h -2.5 v -0.6 h 5.7 v 0.6 z"
             id="path3708"
             inkscape:connector-curvature="0" /><path
             d="m 344.7,455.5 v -8 h 4 v 0.6 h -3.2 v 3 h 3.1 v 0.6 h -3.1 v 3.2 h 3.2 v 0.6 z"
             id="path3710"
             inkscape:connector-curvature="0" /><path
             d="m 356.6,448.4 c -0.7,-0.3 -1.4,-0.4 -2.1,-0.4 -1.7,0 -3.3,1.1 -3.3,3.5 0,2.2 1.3,3.5 3.3,3.5 0.6,0 1.2,-0.1 1.7,-0.3 v -3.2 h 0.8 v 3.7 c -0.8,0.3 -1.8,0.4 -2.6,0.4 -2.4,0 -4,-1.5 -4,-4 0,-2.4 1.6,-4.3 4.2,-4.3 0.7,0 1.4,0.1 2.2,0.3 z"
             id="path3712"
             inkscape:connector-curvature="0" /><path
             d="m 359.2,455.5 v -8 h 0.8 v 8 z"
             id="path3714"
             inkscape:connector-curvature="0" /><path
             d="m 367.4,455.5 -0.7,-2 H 363 l -0.8,2 h -0.8 l 3,-8 h 0.8 l 3,8 z m -2.2,-6.1 c -0.1,-0.4 -0.3,-0.8 -0.4,-1.2 v 0 c -0.1,0.4 -0.2,0.8 -0.4,1.1 l -1.3,3.4 h 3.3 z"
             id="path3716"
             inkscape:connector-curvature="0" /><path
             d="m 374.9,455.6 c -0.6,0 -1.2,-0.1 -1.6,-0.2 v -0.8 c 0.5,0.2 1.1,0.3 1.6,0.3 1.1,0 2,-0.4 2,-1.6 0,-2 -3.8,-1.3 -3.8,-3.8 0,-1.3 1,-2.2 2.7,-2.2 0.5,0 1,0.1 1.4,0.1 v 0.7 c -0.5,-0.1 -1,-0.2 -1.5,-0.2 -1.2,0 -1.9,0.6 -1.9,1.5 0,1.9 3.8,1.2 3.8,3.8 0.2,1.4 -0.9,2.4 -2.7,2.4 z"
             id="path3718"
             inkscape:connector-curvature="0" /><path
             d="m 381.3,452.2 c -0.3,0 -0.5,0 -0.7,0 v 3.3 h -0.8 v -8 c 0.5,0 1.2,0 1.8,0 1.8,0 2.7,0.9 2.7,2.3 0,1.4 -1.3,2.4 -3,2.4 z m 0.1,-4.2 c -0.4,0 -0.7,0 -0.9,0 v 3.5 c 0.2,0 0.5,0.1 0.8,0.1 1.4,0 2.2,-0.8 2.2,-1.8 0,-1.2 -0.7,-1.8 -2.1,-1.8 z"
             id="path3720"
             inkscape:connector-curvature="0" /><path
             d="m 388.9,455.6 c -2.4,0 -3.5,-1.6 -3.5,-4 0,-2.7 1.7,-4.2 3.7,-4.2 2.2,0 3.5,1.5 3.5,4 0,2.7 -1.6,4.2 -3.7,4.2 z M 389,448 c -1.5,0 -2.8,1.2 -2.8,3.4 0,2.1 0.9,3.5 2.8,3.5 1.5,0 2.8,-1.2 2.8,-3.4 0,-2.2 -1,-3.5 -2.8,-3.5 z m -0.5,-1.3 -0.4,-0.4 1.4,-1.3 0.5,0.5 z"
             id="path3722"
             inkscape:connector-curvature="0" /><path
             d="m 394,455.5 c -0.3,0 -0.6,0 -0.8,-0.1 v -0.7 c 0.2,0.1 0.6,0.2 0.9,0.2 0.7,0 1.1,-0.3 1.1,-1.5 v -6 h 0.8 v 6.1 c -0.1,1.3 -0.7,2 -2,2 z"
             id="path3724"
             inkscape:connector-curvature="0" /><path
             d="m 403.7,455.5 -3.6,-5.6 c -0.4,-0.6 -0.7,-1.1 -0.9,-1.6 0,1 0.1,3.4 0.1,4.9 v 2.4 h -0.8 v -8 h 1 l 3.5,5.5 c 0.3,0.5 0.7,1.1 1,1.7 0,-1.1 -0.1,-3.5 -0.1,-5.1 v -2.1 h 0.8 v 8 h -1 z"
             id="path3726"
             inkscape:connector-curvature="0" /><path
             d="m 410.1,455.6 c -2.4,0 -3.5,-1.6 -3.5,-4 0,-2.7 1.7,-4.2 3.7,-4.2 2.2,0 3.5,1.5 3.5,4 0,2.7 -1.7,4.2 -3.7,4.2 z m 0.1,-7.6 c -1.5,0 -2.8,1.2 -2.8,3.4 0,2.1 0.9,3.5 2.8,3.5 1.5,0 2.8,-1.2 2.8,-3.4 0,-2.2 -1,-3.5 -2.8,-3.5 z"
             id="path3728"
             inkscape:connector-curvature="0" /><path
             d="m 416.7,455.6 c -0.6,0 -1.2,-0.1 -1.6,-0.2 v -0.8 c 0.5,0.2 1.1,0.3 1.6,0.3 1.1,0 2,-0.4 2,-1.6 0,-2 -3.8,-1.3 -3.8,-3.8 0,-1.3 1,-2.2 2.7,-2.2 0.5,0 1,0.1 1.4,0.1 v 0.7 c -0.5,-0.1 -1,-0.2 -1.5,-0.2 -1.2,0 -1.9,0.6 -1.9,1.5 0,1.9 3.8,1.2 3.8,3.8 0.2,1.4 -0.9,2.4 -2.7,2.4 z m 0.1,-8.9 -0.4,-0.4 1.4,-1.3 0.5,0.5 z"
             id="path3730"
             inkscape:connector-curvature="0" /><path
             d="m 424.5,455.6 c -2.4,0 -3.6,-1.5 -3.6,-3.9 0,-2.4 1.1,-4.3 3.9,-4.3 0.6,0 1.3,0.1 1.9,0.3 l -0.1,0.7 c -0.7,-0.2 -1.3,-0.3 -2,-0.3 -2.1,0 -2.9,1.6 -2.9,3.5 0,2.2 1,3.4 3,3.4 0.7,0 1.5,-0.2 2,-0.5 l 0.1,0.7 c -0.7,0.2 -1.4,0.4 -2.3,0.4 z"
             id="path3732"
             inkscape:connector-curvature="0" /><path
             d="m 428.8,455.5 v -8 h 0.8 v 8 z"
             id="path3734"
             inkscape:connector-curvature="0" /></g></g><g
         id="g3784"><g
           id="g3782"><path
             d="m 242,418.2 v -16.1 h 2.6 v 16.1 z"
             id="path3740"
             inkscape:connector-curvature="0" /><path
             d="m 258.8,418.2 -5.5,-9.2 c -0.7,-1.2 -1.3,-2.3 -1.8,-3.4 0.1,1.6 0.1,4.8 0.1,7.1 v 5.4 h -2.5 V 402 h 3.4 l 5.3,8.8 c 0.7,1.2 1.4,2.5 2,3.6 -0.1,-1.8 -0.2,-5.3 -0.2,-7.7 v -4.8 h 2.5 V 418 h -3.3 z"
             id="path3742"
             inkscape:connector-curvature="0" /><path
             d="m 276.4,418.2 -5.5,-9.2 c -0.7,-1.2 -1.3,-2.3 -1.8,-3.4 0.1,1.6 0.1,4.8 0.1,7.1 v 5.4 h -2.5 V 402 h 3.4 l 5.3,8.8 c 0.7,1.2 1.4,2.5 2,3.6 -0.1,-1.8 -0.2,-5.3 -0.2,-7.7 v -4.8 h 2.5 V 418 h -3.3 z"
             id="path3744"
             inkscape:connector-curvature="0" /><path
             d="m 290.1,418.4 c -4.9,0 -7.2,-3.2 -7.2,-8.1 0,-5.3 3.5,-8.5 7.7,-8.5 4.3,0 7.2,2.7 7.2,8.1 0.1,5.4 -3.4,8.5 -7.7,8.5 z m 0.3,-14.3 c -2.5,0 -4.7,2 -4.7,5.9 0,3.6 1.5,6.1 4.7,6.1 2.4,0 4.8,-1.9 4.8,-5.9 -0.1,-3.9 -1.8,-6.1 -4.8,-6.1 z"
             id="path3746"
             inkscape:connector-curvature="0" /><path
             d="m 316.5,418.2 h -3.2 l -2.7,-9.9 c -0.3,-1 -0.5,-2 -0.6,-3 v 0 c -0.1,1 -0.3,2 -0.6,3 l -2.7,10 h -3.1 l -4.2,-16.1 h 2.8 l 2.5,9.8 c 0.3,1.1 0.5,2.1 0.6,3.2 v 0 c 0.2,-1 0.4,-2.1 0.6,-3.1 l 2.7,-9.9 h 2.8 l 2.8,9.9 c 0.2,0.9 0.5,1.9 0.6,3 v 0 c 0.2,-1 0.4,-1.9 0.6,-2.8 l 2.5,-10.1 h 2.6 z"
             id="path3748"
             inkscape:connector-curvature="0" /><path
             d="m 332.4,418.2 -1.2,-3.6 h -6.5 l -1.2,3.6 h -2.6 l 5.8,-16.1 h 2.9 l 5.8,16.1 z m -3.8,-10.7 c -0.3,-0.8 -0.5,-1.6 -0.7,-2.5 v 0 c -0.2,0.8 -0.4,1.7 -0.7,2.6 l -1.8,5 h 5.2 z"
             id="path3750"
             inkscape:connector-curvature="0" /><path
             d="m 343.8,418.4 c -5.4,0 -7.4,-3.5 -7.4,-7.8 0,-5 2.5,-8.7 7.9,-8.7 1.2,0 2.4,0.2 3.6,0.5 l -0.3,2.4 c -1.2,-0.4 -2.3,-0.5 -3.5,-0.5 -3.4,0 -4.9,2.6 -4.9,5.9 0,3.7 1.6,5.9 5.1,5.9 1.1,0 2.5,-0.3 3.4,-0.7 l 0.3,2.3 c -1.1,0.4 -2.6,0.7 -4.2,0.7 z"
             id="path3752"
             inkscape:connector-curvature="0" /><path
             d="m 356.9,412.4 v 5.7 h -2.6 v -5.7 l -5,-10.3 h 2.8 l 2.4,5.1 c 0.5,1 0.8,1.9 1.1,2.7 v 0 c 0.4,-1 0.9,-2 1.3,-3 l 2.3,-4.8 h 2.7 z"
             id="path3754"
             inkscape:connector-curvature="0" /><path
             d="m 363,418.4 c -0.8,0 -1.4,-0.1 -1.9,-0.2 v -2.3 c 0.4,0.1 1,0.3 1.5,0.3 1.2,0 1.9,-0.5 1.9,-2.5 v -11.6 h 2.6 v 11.8 c 0.1,2.6 -1,4.5 -4.1,4.5 z"
             id="path3756"
             inkscape:connector-curvature="0" /><path
             d="m 381.4,418.2 -5.5,-9.2 c -0.7,-1.2 -1.3,-2.3 -1.8,-3.4 0.1,1.6 0.1,4.8 0.1,7.1 v 5.4 h -2.5 V 402 h 3.4 l 5.3,8.8 c 0.7,1.2 1.4,2.5 2,3.6 -0.1,-1.8 -0.2,-5.3 -0.2,-7.7 v -4.8 h 2.5 V 418 h -3.3 z"
             id="path3758"
             inkscape:connector-curvature="0" /><path
             d="m 398.7,418.2 -1.2,-3.6 H 391 l -1.2,3.6 h -2.6 l 5.8,-16.1 h 2.9 l 5.8,16.1 z m -3.8,-10.7 c -0.3,-0.8 -0.5,-1.6 -0.7,-2.5 v 0 c -0.2,0.8 -0.4,1.7 -0.7,2.6 l -1.8,5 h 5.2 z"
             id="path3760"
             inkscape:connector-curvature="0" /><path
             d="m 254,427 c -1.3,-0.5 -2.8,-0.8 -4.3,-0.8 -3.2,0 -5.8,2.1 -5.8,6.1 0,3.7 2.1,5.9 5.6,5.9 0.9,0 1.7,-0.1 2.5,-0.4 V 432 h 2.6 v 7.6 c -1.6,0.6 -3.6,1 -5.4,1 -5,0 -8.1,-3 -8.1,-7.9 0,-5 3.3,-8.6 8.8,-8.6 1.6,0 3.1,0.2 4.5,0.7 z"
             id="path3762"
             inkscape:connector-curvature="0" /><path
             d="m 264.8,440.4 c -4.9,0 -7.2,-3.2 -7.2,-8.1 0,-5.3 3.5,-8.5 7.7,-8.5 4.3,0 7.2,2.7 7.2,8.1 0,5.4 -3.4,8.5 -7.7,8.5 z m 0.2,-14.3 c -2.5,0 -4.7,2 -4.7,5.9 0,3.6 1.5,6.1 4.7,6.1 2.4,0 4.8,-1.9 4.8,-5.9 0,-3.9 -1.8,-6.1 -4.8,-6.1 z"
             id="path3764"
             inkscape:connector-curvature="0" /><path
             d="m 278.5,440.4 c -1.2,0 -2.3,-0.1 -3.2,-0.4 l 0.1,-2.5 c 0.9,0.3 2.2,0.6 3.3,0.6 1.8,0 3.2,-0.7 3.2,-2.5 0,-3.4 -7,-2 -7,-7.2 0,-2.8 2.2,-4.7 5.9,-4.7 1,0 1.9,0.1 2.9,0.3 l -0.1,2.3 c -0.9,-0.3 -2,-0.5 -2.9,-0.5 -2,0 -3,0.9 -3,2.3 0,3.2 7,2 7,7.1 0,3.1 -2.4,5.2 -6.2,5.2 z"
             id="path3766"
             inkscape:connector-curvature="0" /><path
             d="m 291.8,434.3 c -0.4,0 -0.8,0 -1.2,0 v 5.9 H 288 v -16.1 c 1.2,0 2.6,-0.1 4.1,-0.1 3.8,0 5.9,1.9 5.9,4.8 0,3.1 -2.5,5.5 -6.2,5.5 z m 0.1,-8.2 c -0.5,0 -0.9,0 -1.3,0 v 5.9 c 0.4,0 0.8,0.1 1.1,0.1 2.2,0 3.6,-1.2 3.6,-3.1 0,-1.8 -1,-2.9 -3.4,-2.9 z"
             id="path3768"
             inkscape:connector-curvature="0" /><path
             d="m 307.1,440.4 c -4.9,0 -7.2,-3.2 -7.2,-8.1 0,-5.3 3.5,-8.5 7.7,-8.5 4.3,0 7.2,2.7 7.2,8.1 0,5.4 -3.5,8.5 -7.7,8.5 z m 0.2,-14.3 c -2.5,0 -4.7,2 -4.7,5.9 0,3.6 1.5,6.1 4.7,6.1 2.4,0 4.8,-1.9 4.8,-5.9 -0.1,-3.9 -1.8,-6.1 -4.8,-6.1 z"
             id="path3770"
             inkscape:connector-curvature="0" /><path
             d="m 322.2,440.3 c -1.6,0 -3,-0.1 -4.3,-0.1 v -16.1 c 1.3,0 3.1,-0.1 5,-0.1 5.1,0 8.2,2.3 8.2,7.9 0,5.5 -3.7,8.4 -8.9,8.4 z m 0.5,-14.1 c -0.8,0 -1.6,0 -2.2,0.1 V 438 c 0.5,0.1 1.3,0.1 1.9,0.1 3.5,0 5.9,-1.8 5.9,-6 0,-3.8 -1.7,-5.9 -5.6,-5.9 z"
             id="path3772"
             inkscape:connector-curvature="0" /><path
             d="m 343.4,440.2 -1.2,-3.6 h -6.5 l -1.2,3.6 h -2.6 l 5.8,-16.1 h 2.9 l 5.8,16.1 z m -3.7,-10.7 c -0.3,-0.8 -0.5,-1.6 -0.7,-2.5 v 0 c -0.2,0.8 -0.4,1.7 -0.7,2.6 l -1.8,5 h 5.2 z"
             id="path3774"
             inkscape:connector-curvature="0" /><path
             d="m 356.4,440.2 -5,-7 h -0.1 v 7 h -2.6 v -16.1 c 1.2,-0.1 2.5,-0.1 4.3,-0.1 3.3,0 5.6,1.2 5.6,4.4 0,2.6 -1.9,4.2 -4.6,4.5 0.5,0.6 1,1.2 1.4,1.7 l 4.2,5.6 z m -3.8,-14.1 c -0.5,0 -1,0 -1.4,0 v 5.1 c 0.2,0 0.7,0 1.3,0 2.1,0 3.4,-1.1 3.4,-2.7 0,-1.6 -1.1,-2.4 -3.3,-2.4 z"
             id="path3776"
             inkscape:connector-curvature="0" /><path
             d="m 371,440.2 -5.8,-7.9 v 7.9 h -2.6 v -16.1 h 2.6 v 7.5 l 5.9,-7.5 h 3.2 l -6.4,7.8 6.6,8.3 z"
             id="path3778"
             inkscape:connector-curvature="0" /><path
             d="m 386.8,440.2 -1.2,-3.6 h -6.5 l -1.2,3.6 h -2.6 l 5.8,-16.1 h 2.9 l 5.8,16.1 z M 383,429.5 c -0.3,-0.8 -0.5,-1.6 -0.7,-2.5 v 0 c -0.2,0.8 -0.4,1.7 -0.7,2.6 l -1.8,5 h 5.2 z"
             id="path3780"
             inkscape:connector-curvature="0" /></g></g><g
         id="g3866"><linearGradient
           id="SVGID_1_"
           gradientUnits="userSpaceOnUse"
           x1="193.6498"
           y1="436.11179"
           x2="214.6228"
           y2="391.13501"><stop
             offset="0"
             style="stop-color:#0076BD"
             id="stop3786" /><stop
             offset="1"
             style="stop-color:#003D85"
             id="stop3788" /></linearGradient><polygon
           class="st1"
           points="218,463.5 177,456.3 177,392.1 218,378.4 "
           id="polygon3791"
           style="clip-rule:evenodd;fill:url(#SVGID_1_);fill-rule:evenodd" /><linearGradient
           id="SVGID_2_"
           gradientUnits="userSpaceOnUse"
           x1="207.2003"
           y1="427.61401"
           x2="211.0186"
           y2="417.2287"><stop
             offset="0"
             style="stop-color:#AF0917"
             id="stop3793" /><stop
             offset="0.25"
             style="stop-color:#E2001A"
             id="stop3795" /><stop
             offset="1"
             style="stop-color:#E2001A"
             id="stop3797" /></linearGradient><path
           class="st2"
           d="m 218,411 c -1.4,0.9 -2.8,1.6 -3.9,1.9 -3.3,0.7 -6.8,-3.3 -6.8,-3.3 0,0 0.8,5.7 -1.2,9.3 -2.2,3.7 -9.2,8.4 -9.2,8.4 0,0 7.7,-1.6 9.3,0.9 1.6,2.7 1.8,12 1.8,12 0,0 3.9,-11.2 7.5,-12.7 0.7,-0.3 1.6,-0.6 2.5,-0.9 z"
           id="path3800"
           inkscape:connector-curvature="0"
           style="clip-rule:evenodd;fill:url(#SVGID_2_);fill-rule:evenodd" /><linearGradient
           id="SVGID_3_"
           gradientUnits="userSpaceOnUse"
           x1="207.1539"
           y1="428.0524"
           x2="210.0114"
           y2="417.38779"><stop
             offset="0"
             style="stop-color:#AF0917"
             id="stop3802" /><stop
             offset="0.65"
             style="stop-color:#E2001A"
             id="stop3804" /><stop
             offset="1"
             style="stop-color:#E2001A"
             id="stop3806" /></linearGradient><path
           class="st3"
           d="m 218,411 c -1.4,0.9 -2.8,1.6 -3.9,1.9 -3.3,0.7 -6.8,-3.3 -6.8,-3.3 0,0 0.8,5.7 -1.2,9.3 -2.2,3.7 -9.2,8.4 -9.2,8.4 0,0 7.7,-1.6 9.3,0.9 1.6,2.7 1.8,12 1.8,12 0,0 3.9,-11.2 7.5,-12.7 0.7,-0.3 1.6,-0.6 2.5,-0.9 z"
           id="path3809"
           inkscape:connector-curvature="0"
           style="clip-rule:evenodd;fill:url(#SVGID_3_);fill-rule:evenodd" /><linearGradient
           id="SVGID_4_"
           gradientUnits="userSpaceOnUse"
           x1="188.8824"
           y1="426.63861"
           x2="162.267"
           y2="445.2749"><stop
             offset="0"
             style="stop-color:#FFE500"
             id="stop3811" /><stop
             offset="1"
             style="stop-color:#EE7F00"
             id="stop3813" /></linearGradient><path
           class="st4"
           d="m 166.3,444.5 c 0,0 7.2,-7.9 9,-12.1 1.7,-4 -2.9,-10.7 -2.9,-10.7 0,0 7.2,3.9 10.5,1.8 3.3,-2.1 8.3,-8.3 8.3,-8.3 0,0 -2.6,6.8 -1.6,9.3 1.1,2.6 7.3,2.8 7.3,2.8 0,0 -7.1,4.5 -10.4,7.4 -3.4,3 -5.7,14.1 -5.7,14.1 0,0 -1.7,-7.4 -3.9,-8.7 -2.1,-1.3 -10.6,4.4 -10.6,4.4 z"
           id="path3816"
           inkscape:connector-curvature="0"
           style="clip-rule:evenodd;fill:url(#SVGID_4_);fill-rule:evenodd" /><linearGradient
           id="SVGID_5_"
           gradientUnits="userSpaceOnUse"
           x1="176.52161"
           y1="435.30179"
           x2="212.52049"
           y2="405.09509"><stop
             offset="0"
             style="stop-color:#FFE500"
             id="stop3818" /><stop
             offset="1"
             style="stop-color:#EE7F00"
             id="stop3820" /></linearGradient><path
           class="st5"
           d="m 182.9,423.5 c -3.4,2.1 -10.5,-1.8 -10.5,-1.8 0,0 4.6,6.7 2.9,10.7 -1.8,4.3 -9,12.1 -9,12.1 0,0 1.6,-1.1 3.6,-2.2 2.3,-2.7 5.3,-6.6 6.4,-9.2 1.7,-4 -2.9,-10.7 -2.9,-10.7 0,0 7.2,3.9 10.5,1.8 2,-1.2 4.5,-3.9 6.3,-5.9 0.5,-1.8 1.1,-3.2 1.1,-3.2 0,0 -5.1,6.4 -8.4,8.4 z m 8.1,2.4 c 1,1.2 3.2,1.7 4.9,1.9 0.1,-0.1 0.2,-0.1 0.2,-0.2 0.5,-0.3 0.8,-0.5 0.8,-0.5 0,0 -3.7,0 -5.9,-1.2 z m -13.1,15 c -0.1,0 -0.1,0 -0.2,-0.1 0.2,0.2 0.4,0.5 0.5,0.8 0,0 0,0 0,0 0.1,0.1 0.1,0.2 0.2,0.3 0,0 0,0 0,0 0,0.1 0.1,0.2 0.1,0.3 0,0 0,0 0,0.1 0,0.1 0.1,0.2 0.1,0.3 0,0 0,0 0,0.1 0.1,0.1 0.1,0.2 0.1,0.3 0,0 0,0 0,0 0,0.1 0.1,0.2 0.1,0.3 0,0.1 0.1,0.1 0.1,0.2 0,0.1 0,0.1 0.1,0.2 0,0.1 0.1,0.2 0.1,0.2 0,0 0,0.1 0,0.1 0,0.1 0.1,0.2 0.1,0.3 0,0 0,0.1 0,0.1 0,0.1 0.1,0.2 0.1,0.3 0,0 0,0 0,0 0.6,1.8 1,3.4 1.2,3.9 0,0 0,0 0,0 0,0 0,0 0,0.1 0,0 0,0 0,0 0,0 0,0 0,0 0,0 0,0 0,0 0,0 0,-0.1 0.1,-0.3 0,0 0,0 0,0 0,0 0,-0.1 0,-0.1 0.1,-0.3 0.1,-0.6 0.2,-1.1 -0.3,-2.2 -1.5,-5.5 -2.9,-6.3 z"
           id="path3823"
           inkscape:connector-curvature="0"
           style="clip-rule:evenodd;fill:url(#SVGID_5_);fill-rule:evenodd" /><linearGradient
           id="SVGID_6_"
           gradientUnits="userSpaceOnUse"
           x1="219.8181"
           y1="450.37601"
           x2="184.80299"
           y2="450.37601"><stop
             offset="0"
             style="stop-color:#0076BD"
             id="stop3825" /><stop
             offset="1"
             style="stop-color:#004494"
             id="stop3827" /></linearGradient><path
           class="st6"
           d="m 213.8,452.5 c 0.3,-0.6 3.3,-1 3.3,-1 0,0 -3.9,-0.1 -5.7,-0.5 -1.9,-0.4 -3.1,-1.5 -3.1,-1.5 0,0 -0.5,1 -2.1,1.2 -1.8,0.2 -6.2,-0.1 -6.2,-0.1 0,0 4.4,0.9 4.8,1.5 0.4,0.6 -0.9,2.1 -0.9,2.1 0,0 3.9,-1.1 6,-0.8 2.2,0.3 6.5,1.3 6.5,1.3 0,0 -2.9,-1.5 -2.6,-2.2 z m -17.4,-3.4 c -0.1,-0.5 2.3,-1.2 2.3,-1.2 0,0 -3.7,0.2 -5.8,0 -2.1,-0.2 -4.2,-1.1 -4.2,-1.1 0,0 0.3,0.9 -1.2,1.3 -1.6,0.4 -6.7,0.5 -6.7,0.5 0,0 5.5,0.4 6.4,0.9 0.9,0.5 0.7,1.9 0.7,1.9 0,0 3,-1.4 5.3,-1.3 2.2,0 6.7,0.4 6.7,0.4 0,0 -3.4,-0.8 -3.5,-1.4 z m 11.8,0.4 c 0,0 -0.6,-1.1 0.7,-1.2 1.3,-0.1 4.3,-0.1 4.3,-0.1 0,0 -3.3,-0.5 -4.4,-0.8 -1,-0.4 -0.7,-1 -0.7,-1 0,0 -1.7,0.4 -3.3,0.4 -1.6,0 -4.7,-0.6 -4.7,-0.6 0,0 2.1,0.7 1.9,1.1 -0.2,0.4 -3.3,0.8 -3.3,0.8 0,0 4.3,0 5.8,0.3 1.5,0.1 3.7,1.1 3.7,1.1 z"
           id="path3830"
           inkscape:connector-curvature="0"
           style="clip-rule:evenodd;fill:url(#SVGID_6_);fill-rule:evenodd" /><linearGradient
           id="SVGID_7_"
           gradientUnits="userSpaceOnUse"
           x1="195.69299"
           y1="387.77359"
           x2="183.06059"
           y2="400.32391"
           gradientTransform="matrix(0.9959,-0.0904,0.0904,0.9959,-25.7575,31.8223)"><stop
             offset="0"
             style="stop-color:#FFFFFF"
             id="stop3832" /><stop
             offset="1"
             style="stop-color:#C6C7C8"
             id="stop3834" /></linearGradient><path
           class="st7"
           d="m 191.2,415.2 c 0,0 4,-6.4 3.7,-8.7 -0.2,-2.2 -4.3,-3 -4.3,-3 0,0 5.4,-1.4 7.7,-3.5 2.3,-2.1 4.3,-6.5 4.3,-6.5 0,0 0.5,3.6 2.5,4.1 2.1,0.6 7.6,-1.8 7.6,-1.8 0,0 -4.4,4.3 -6.1,6.6 -1.8,2.4 0.7,7.1 0.7,7.1 0,0 -4.7,-1.7 -7.2,-1.2 -2.6,0.6 -8.9,6.9 -8.9,6.9 z"
           id="path3837"
           inkscape:connector-curvature="0"
           style="clip-rule:evenodd;fill:url(#SVGID_7_);fill-rule:evenodd" /><linearGradient
           id="SVGID_8_"
           gradientUnits="userSpaceOnUse"
           x1="194.85789"
           y1="405.7547"
           x2="216.61681"
           y2="390.51901"><stop
             offset="0"
             style="stop-color:#FFFFFF"
             id="stop3839" /><stop
             offset="1"
             style="stop-color:#C6C7C8"
             id="stop3841" /></linearGradient><path
           class="st8"
           d="m 205.1,397.6 c -0.1,0 -0.2,-0.1 -0.3,-0.1 0.3,0.4 0.7,0.8 1.3,0.9 1.1,0.3 3.1,-0.2 4.8,-0.8 1,-1.1 1.8,-1.8 1.8,-1.8 0,0 -5.5,2.3 -7.6,1.8 z m -10.6,7.8 c 0.2,0.3 0.4,0.7 0.5,1 0.2,2.3 -3.7,8.7 -3.7,8.7 0,0 1.3,-1.3 3,-2.8 0.9,-1.9 1.9,-4 1.7,-5.2 -0.2,-0.6 -0.8,-1.2 -1.5,-1.7 z m 3.8,-5.5 c -2.3,2.2 -7.7,3.5 -7.7,3.5 0,0 0.9,0.2 1.8,0.6 1.6,-0.5 5.1,-1.7 6.8,-3.3 1.6,-1.5 3,-4.1 3.8,-5.5 -0.4,-1 -0.5,-1.8 -0.5,-1.8 0,0 -1.9,4.4 -4.2,6.5 z"
           id="path3844"
           inkscape:connector-curvature="0"
           style="clip-rule:evenodd;fill:url(#SVGID_8_);fill-rule:evenodd" /><linearGradient
           id="SVGID_9_"
           gradientUnits="userSpaceOnUse"
           x1="211.5675"
           y1="420.20151"
           x2="202.8434"
           y2="430.59839"><stop
             offset="0"
             style="stop-color:#AF0917"
             id="stop3846" /><stop
             offset="0.35"
             style="stop-color:#E2001A"
             id="stop3848" /><stop
             offset="1"
             style="stop-color:#E2001A"
             id="stop3850" /></linearGradient><path
           class="st9"
           d="m 208.3,410.5 c -0.6,-0.5 -1,-0.9 -1,-0.9 0,0 0.8,5.7 -1.2,9.3 -2.2,3.7 -9.2,8.4 -9.2,8.4 0,0 1.2,-0.2 2.7,-0.4 2.2,-1.6 6,-4.6 7.5,-7.2 1.9,-3.4 1.3,-8.5 1.2,-9.2 z m 5.9,2.3 c -1.9,0.4 -3.8,-0.7 -5.2,-1.8 1.2,1.1 3.7,3.1 6.1,2.6 0.8,-0.2 1.8,-0.7 2.9,-1.4 V 411 c -1.4,0.9 -2.8,1.6 -3.8,1.8 z m -8,15.3 c 0,0.1 0,0.1 0,0 1.6,2.7 1.8,12 1.8,12 0,0 0.3,-0.9 0.8,-2.2 -0.2,-3 -0.7,-7.3 -1.7,-9 -0.2,-0.3 -0.5,-0.5 -0.9,-0.8 z"
           id="path3853"
           inkscape:connector-curvature="0"
           style="clip-rule:evenodd;fill:url(#SVGID_9_);fill-rule:evenodd" /><linearGradient
           id="SVGID_10_"
           gradientUnits="userSpaceOnUse"
           x1="216.21181"
           y1="416.83459"
           x2="209.8571"
           y2="399.37521"><stop
             offset="0"
             style="stop-color:#9D0D16"
             id="stop3855" /><stop
             offset="0.35"
             style="stop-color:#E2001A"
             id="stop3857" /><stop
             offset="1"
             style="stop-color:#E2001A"
             id="stop3859" /></linearGradient><path
           class="st10"
           d="m 211.2,412.7 c 2.1,2.7 4.6,10 5.8,14.2 0.3,-0.1 0.7,-0.2 1,-0.3 v -14.3 c -1.1,0.7 -2.1,1.2 -2.9,1.4 -1.3,0.2 -2.7,-0.3 -3.9,-1 z"
           id="path3862"
           inkscape:connector-curvature="0"
           style="fill:url(#SVGID_10_)" /><path
           class="st11"
           d="m 215,412.6 c -0.2,0.1 -0.5,0.2 -0.8,0.2 0,0 0,0 -0.1,0 -0.6,0.1 -1.2,0.1 -1.7,0 0,0 -0.1,0 -0.1,0 0,0 -0.1,0 -0.1,0 -0.4,-0.1 -0.9,-0.3 -1.4,-0.5 0,0 -0.1,0 -0.1,0 0,0 0,0 0,0 0.2,0.1 0.3,0.3 0.5,0.5 1.2,0.7 2.6,1.2 3.9,0.9 0.8,-0.2 1.8,-0.7 2.9,-1.4 V 411 c -1,0.6 -2.1,1.2 -3,1.6 z"
           id="path3864"
           inkscape:connector-curvature="0"
           style="fill:#8b0e13" /></g></g></g></svg>