<?xml version="1.0" encoding="utf-8"?>
<!-- Generator: Adobe Illustrator 15.0.0, SVG Export Plug-In . SVG Version: 6.00 Build 0)  -->
<!DOCTYPE svg PUBLIC "-//W3C//DTD SVG 1.1//EN" "http://www.w3.org/Graphics/SVG/1.1/DTD/svg11.dtd">
<svg version="1.1" id="Warstwa_1" xmlns="http://www.w3.org/2000/svg" xmlns:xlink="http://www.w3.org/1999/xlink" x="0px" y="0px"
	 width="70px" height="70px" viewBox="0 0 70 70" enable-background="new 0 0 70 70" xml:space="preserve">
<g>
	<defs>
		<path id="SVGID_1_" d="M2.598,69.69c0.109,0.037,0.218,0.074,0.327,0.113l25.589-46.544c-0.108-0.039-0.217-0.077-0.326-0.113
			L2.598,69.69z"/>
	</defs>
	<use xlink:href="#SVGID_1_"  overflow="visible" fill="#DFDEDE"/>
	<clipPath id="SVGID_2_">
		<use xlink:href="#SVGID_1_"  overflow="visible"/>
	</clipPath>
	<rect x="2.598" y="23.146" clip-path="url(#SVGID_2_)" fill="#DFDEDE" width="25.916" height="46.658"/>
</g>
<g>
	<defs>
		<path id="SVGID_3_" d="M2.598,69.69c0.109,0.037,0.218,0.074,0.327,0.113l25.589-46.544c-0.108-0.039-0.217-0.077-0.326-0.113
			L2.598,69.69z"/>
	</defs>
	<use xlink:href="#SVGID_3_"  overflow="visible" fill="#DFDEDE"/>
	<clipPath id="SVGID_4_">
		<use xlink:href="#SVGID_3_"  overflow="visible"/>
	</clipPath>
	<polygon clip-path="url(#SVGID_4_)" fill="#DFDEDE" points="18.513,87.134 45.049,41.15 12.599,5.816 -13.938,51.8 	"/>
</g>
<g>
	<defs>
		<path id="SVGID_5_" d="M6.292,57.908c0.05,0.02,0.102,0.04,0.2,0.08c0.05,0.02,0.099,0.04,0.203,0.082
			c0.047,0.019,0.096,0.039,0.204,0.084c0.046,0.021,0.092,0.039,0.201,0.086c0.046,0.02,0.092,0.04,0.202,0.088
			c0.045,0.02,0.089,0.038,0.203,0.089c0.044,0.021,0.089,0.04,0.2,0.091h0.002l25.59-46.544c-0.001-0.001-0.002-0.001-0.002-0.001
			c-0.111-0.05-0.155-0.069-0.2-0.09c-0.112-0.05-0.158-0.069-0.204-0.089c-0.11-0.049-0.155-0.068-0.201-0.087
			c-0.109-0.048-0.155-0.066-0.202-0.085c-0.108-0.045-0.155-0.065-0.204-0.084c-0.104-0.042-0.154-0.063-0.203-0.083
			c-0.098-0.039-0.149-0.06-0.2-0.08L6.292,57.908z"/>
	</defs>
	<use xlink:href="#SVGID_5_"  overflow="visible" fill="#DFDEDE"/>
	<clipPath id="SVGID_6_">
		<use xlink:href="#SVGID_5_"  overflow="visible"/>
	</clipPath>
	<rect x="6.292" y="11.363" clip-path="url(#SVGID_6_)" fill="#DFDEDE" width="27.005" height="47.145"/>
</g>
<g>
	<defs>
		<path id="SVGID_7_" d="M6.292,57.908c0.05,0.02,0.102,0.04,0.2,0.08c0.05,0.02,0.099,0.04,0.203,0.082
			c0.047,0.019,0.096,0.039,0.204,0.084c0.046,0.021,0.092,0.039,0.201,0.086c0.046,0.02,0.092,0.04,0.202,0.088
			c0.045,0.02,0.089,0.038,0.203,0.089c0.044,0.021,0.089,0.04,0.2,0.091h0.002l25.59-46.544c-0.001-0.001-0.002-0.001-0.002-0.001
			c-0.111-0.05-0.155-0.069-0.2-0.09c-0.112-0.05-0.158-0.069-0.204-0.089c-0.11-0.049-0.155-0.068-0.201-0.087
			c-0.109-0.048-0.155-0.066-0.202-0.085c-0.108-0.045-0.155-0.065-0.204-0.084c-0.104-0.042-0.154-0.063-0.203-0.083
			c-0.098-0.039-0.149-0.06-0.2-0.08L6.292,57.908z"/>
	</defs>
	<use xlink:href="#SVGID_7_"  overflow="visible" fill="#DFDEDE"/>
	<clipPath id="SVGID_8_">
		<use xlink:href="#SVGID_7_"  overflow="visible"/>
	</clipPath>
	<polygon clip-path="url(#SVGID_8_)" fill="#DFDEDE" points="22.876,76.566 50.005,29.556 16.713,-6.694 -10.417,40.315 	"/>
</g>
<g>
	<defs>
		<path id="SVGID_9_" d="M7.928,48.729c0.231,0.005,0.465,0.014,0.699,0.027L35.425,0.027c-0.236-0.014-0.47-0.023-0.7-0.027
			L7.928,48.729z"/>
	</defs>
	<use xlink:href="#SVGID_9_"  overflow="visible" fill="#DFDEDE"/>
	<clipPath id="SVGID_10_">
		<use xlink:href="#SVGID_9_"  overflow="visible"/>
	</clipPath>
	<rect x="7.928" clip-path="url(#SVGID_10_)" fill="#DFDEDE" width="27.497" height="48.756"/>
</g>
<g>
	<defs>
		<path id="SVGID_11_" d="M8.508,47.674l0.447,0.486L35.318,0.218L35.13,0.012C34.993,0.007,34.858,0.003,34.725,0L8.508,47.674z"/>
	</defs>
	<use xlink:href="#SVGID_11_"  overflow="visible" fill="#DFDEDE"/>
	<clipPath id="SVGID_12_">
		<use xlink:href="#SVGID_11_"  overflow="visible"/>
	</clipPath>
	<polygon clip-path="url(#SVGID_12_)" fill="#DFDEDE" points="24.973,66.086 52.388,18.584 18.854,-17.927 -8.56,29.576 	"/>
</g>
<g>
	<defs>
		<path id="SVGID_13_" d="M25.711,9.078L0.121,55.623C0.36,55.609,0.6,55.6,0.843,55.597l25.59-46.545
			C26.189,9.056,25.948,9.065,25.711,9.078"/>
	</defs>
	<use xlink:href="#SVGID_13_"  overflow="visible" fill="#DFDEDE"/>
	<clipPath id="SVGID_14_">
		<use xlink:href="#SVGID_13_"  overflow="visible"/>
	</clipPath>
	<rect x="0.121" y="9.052" clip-path="url(#SVGID_14_)" fill="#DFDEDE" width="26.312" height="46.571"/>
</g>
<g>
	<defs>
		<path id="SVGID_15_" d="M25.711,9.078L0.121,55.623C0.36,55.609,0.6,55.6,0.843,55.597l25.59-46.545
			C26.189,9.056,25.948,9.065,25.711,9.078"/>
	</defs>
	<use xlink:href="#SVGID_15_"  overflow="visible" fill="#DFDEDE"/>
	<clipPath id="SVGID_16_">
		<use xlink:href="#SVGID_15_"  overflow="visible"/>
	</clipPath>
	<polygon clip-path="url(#SVGID_16_)" fill="#DFDEDE" points="16.279,73.217 42.938,27.023 10.274,-8.542 -16.384,37.651 	"/>
</g>
<g>
	<defs>
		<path id="SVGID_17_" d="M0.121,55.623C0.36,55.609,0.6,55.6,0.843,55.597l8.581-15.584v-1.283L0.121,55.623z"/>
	</defs>
	<use xlink:href="#SVGID_17_"  overflow="visible" fill="#DFDEDE"/>
	<clipPath id="SVGID_18_">
		<use xlink:href="#SVGID_17_"  overflow="visible"/>
	</clipPath>
	<rect x="0.121" y="38.729" clip-path="url(#SVGID_18_)" fill="#DFDEDE" width="9.303" height="16.894"/>
</g>
<g>
	<defs>
		<path id="SVGID_19_" d="M0.121,55.623C0.36,55.609,0.6,55.6,0.843,55.597l8.581-15.584v-1.283L0.121,55.623z"/>
	</defs>
	<use xlink:href="#SVGID_19_"  overflow="visible" fill="#DFDEDE"/>
	<clipPath id="SVGID_20_">
		<use xlink:href="#SVGID_19_"  overflow="visible"/>
	</clipPath>
	<polygon clip-path="url(#SVGID_20_)" fill="#DFDEDE" points="5.834,61.844 15.411,45.249 3.711,32.51 -5.866,49.104 	"/>
</g>
<g>
	<defs>
		<path id="SVGID_21_" d="M16.888,48.992c0.023,0.006,0.045,0.013,0.069,0.02c0.062,0.017,0.125,0.033,0.186,0.052l25.59-46.545
			c-0.063-0.017-0.124-0.035-0.187-0.051c-0.022-0.007-0.046-0.013-0.069-0.02L16.888,48.992z"/>
	</defs>
	<use xlink:href="#SVGID_21_"  overflow="visible" fill="#DFDEDE"/>
	<clipPath id="SVGID_22_">
		<use xlink:href="#SVGID_21_"  overflow="visible"/>
	</clipPath>
	<rect x="16.888" y="2.448" clip-path="url(#SVGID_22_)" fill="#DFDEDE" width="25.845" height="46.616"/>
</g>
<g>
	<defs>
		<path id="SVGID_23_" d="M16.888,48.992c0.023,0.006,0.045,0.013,0.069,0.02c0.062,0.017,0.125,0.033,0.186,0.052l25.59-46.545
			c-0.063-0.017-0.124-0.035-0.187-0.051c-0.022-0.007-0.046-0.013-0.069-0.02L16.888,48.992z"/>
	</defs>
	<use xlink:href="#SVGID_23_"  overflow="visible" fill="#DFDEDE"/>
	<clipPath id="SVGID_24_">
		<use xlink:href="#SVGID_23_"  overflow="visible"/>
	</clipPath>
	<polygon clip-path="url(#SVGID_24_)" fill="#DFDEDE" points="32.759,66.344 59.252,20.436 26.861,-14.833 0.367,31.075 	"/>
</g>
</svg>
