<?xml version="1.0" encoding="utf-8"?>
<!-- Generator: Adobe Illustrator 15.0.0, SVG Export Plug-In . SVG Version: 6.00 Build 0)  -->
<!DOCTYPE svg PUBLIC "-//W3C//DTD SVG 1.1//EN" "http://www.w3.org/Graphics/SVG/1.1/DTD/svg11.dtd">
<svg version="1.1" id="Warstwa_1" xmlns="http://www.w3.org/2000/svg" xmlns:xlink="http://www.w3.org/1999/xlink" x="0px" y="0px"
	 width="130px" height="100px" viewBox="0 0 130 100" enable-background="new 0 0 130 100" xml:space="preserve">
<line fill="none" stroke="#FFFFFF" stroke-width="0.5" stroke-miterlimit="10" x1="65.945" y1="17.53" x2="65.945" y2="64.6"/>
<g>
	<g>
		<defs>
			<path id="SVGID_1_" d="M10.016,98.568c0.153,0.052,0.304,0.104,0.455,0.156l35.574-64.704c-0.152-0.054-0.303-0.107-0.454-0.158
				L10.016,98.568z"/>
		</defs>
		<clipPath id="SVGID_2_">
			<use xlink:href="#SVGID_1_"  overflow="visible"/>
		</clipPath>
		
			<linearGradient id="SVGID_3_" gradientUnits="userSpaceOnUse" x1="-217.6494" y1="-280.3452" x2="-217.4305" y2="-280.3452" gradientTransform="matrix(163.5348 0 0 163.5348 35603.3477 45912.4961)">
			<stop  offset="0" style="stop-color:#A7519E"/>
			<stop  offset="0.0758" style="stop-color:#9660A0"/>
			<stop  offset="0.2593" style="stop-color:#7281A3"/>
			<stop  offset="0.4444" style="stop-color:#569AA6"/>
			<stop  offset="0.6296" style="stop-color:#42ADA8"/>
			<stop  offset="0.8147" style="stop-color:#36B7AA"/>
			<stop  offset="1" style="stop-color:#32BBAA"/>
		</linearGradient>
		<rect x="10.016" y="33.864" clip-path="url(#SVGID_2_)" fill="url(#SVGID_3_)" width="36.029" height="64.863"/>
	</g>
</g>
<g>
	<g>
		<defs>
			<path id="SVGID_4_" d="M10.016,98.568c0.153,0.052,0.304,0.104,0.455,0.156l35.574-64.704c-0.152-0.054-0.303-0.107-0.454-0.158
				L10.016,98.568z"/>
		</defs>
		<clipPath id="SVGID_5_">
			<use xlink:href="#SVGID_4_"  overflow="visible"/>
		</clipPath>
		
			<linearGradient id="SVGID_6_" gradientUnits="userSpaceOnUse" x1="-219.582" y1="-283.3618" x2="-219.3618" y2="-283.3618" gradientTransform="matrix(167.446 -290.1509 -168.6518 -183.634 -11011.7646 -115648.6016)">
			<stop  offset="0" style="stop-color:#A7519E"/>
			<stop  offset="0.0758" style="stop-color:#9660A0"/>
			<stop  offset="0.2593" style="stop-color:#7281A3"/>
			<stop  offset="0.4444" style="stop-color:#569AA6"/>
			<stop  offset="0.6296" style="stop-color:#42ADA8"/>
			<stop  offset="0.8147" style="stop-color:#36B7AA"/>
			<stop  offset="1" style="stop-color:#32BBAA"/>
		</linearGradient>
		<polygon clip-path="url(#SVGID_5_)" fill="url(#SVGID_6_)" points="32.142,122.816 69.033,58.893 23.919,9.773 -12.971,73.695 		
			"/>
	</g>
</g>
<g>
	<g>
		<defs>
			<path id="SVGID_7_" d="M15.152,82.189c0.069,0.025,0.142,0.055,0.277,0.108c0.07,0.029,0.138,0.056,0.282,0.114
				c0.066,0.027,0.134,0.057,0.284,0.117c0.065,0.027,0.129,0.055,0.28,0.119c0.064,0.027,0.128,0.056,0.281,0.121
				c0.063,0.028,0.124,0.056,0.282,0.125c0.062,0.028,0.124,0.056,0.278,0.125l0.003,0.002l35.575-64.705
				c-0.002-0.001-0.003-0.002-0.003-0.002c-0.155-0.07-0.216-0.097-0.279-0.125c-0.157-0.069-0.22-0.097-0.282-0.125
				c-0.153-0.067-0.216-0.095-0.281-0.121c-0.152-0.066-0.216-0.093-0.28-0.119c-0.15-0.063-0.217-0.09-0.283-0.118
				c-0.146-0.059-0.214-0.087-0.283-0.115c-0.136-0.054-0.208-0.083-0.278-0.11L15.152,82.189z"/>
		</defs>
		<clipPath id="SVGID_8_">
			<use xlink:href="#SVGID_7_"  overflow="visible"/>
		</clipPath>
		
			<linearGradient id="SVGID_9_" gradientUnits="userSpaceOnUse" x1="-217.8418" y1="-280.0391" x2="-217.6222" y2="-280.0391" gradientTransform="matrix(168.2424 0 0 168.2424 36665.7461 47164.7617)">
			<stop  offset="0" style="stop-color:#A7519E"/>
			<stop  offset="0.0758" style="stop-color:#9660A0"/>
			<stop  offset="0.2593" style="stop-color:#7281A3"/>
			<stop  offset="0.4444" style="stop-color:#569AA6"/>
			<stop  offset="0.6296" style="stop-color:#42ADA8"/>
			<stop  offset="0.8147" style="stop-color:#36B7AA"/>
			<stop  offset="1" style="stop-color:#32BBAA"/>
		</linearGradient>
		<rect x="15.152" y="17.484" clip-path="url(#SVGID_8_)" fill="url(#SVGID_9_)" width="37.542" height="65.538"/>
	</g>
</g>
<g>
	<g>
		<defs>
			<path id="SVGID_10_" d="M15.152,82.189c0.069,0.025,0.142,0.055,0.277,0.108c0.07,0.029,0.138,0.056,0.282,0.114
				c0.066,0.027,0.134,0.057,0.284,0.117c0.065,0.027,0.129,0.055,0.28,0.119c0.064,0.027,0.128,0.056,0.281,0.121
				c0.063,0.028,0.124,0.056,0.282,0.125c0.062,0.028,0.124,0.056,0.278,0.125l0.003,0.002l35.575-64.705
				c-0.002-0.001-0.003-0.002-0.003-0.002c-0.155-0.07-0.216-0.097-0.279-0.125c-0.157-0.069-0.22-0.097-0.282-0.125
				c-0.153-0.067-0.216-0.095-0.281-0.121c-0.152-0.066-0.216-0.093-0.28-0.119c-0.15-0.063-0.217-0.09-0.283-0.118
				c-0.146-0.059-0.214-0.087-0.283-0.115c-0.136-0.054-0.208-0.083-0.278-0.11L15.152,82.189z"/>
		</defs>
		<clipPath id="SVGID_11_">
			<use xlink:href="#SVGID_10_"  overflow="visible"/>
		</clipPath>
		
			<linearGradient id="SVGID_12_" gradientUnits="userSpaceOnUse" x1="-219.7544" y1="-283.3877" x2="-219.5347" y2="-283.3877" gradientTransform="matrix(169.0135 -292.8669 -170.2305 -185.3529 -11084.4766 -116803.1484)">
			<stop  offset="0" style="stop-color:#A7519E"/>
			<stop  offset="0.0758" style="stop-color:#9660A0"/>
			<stop  offset="0.2593" style="stop-color:#7281A3"/>
			<stop  offset="0.4444" style="stop-color:#569AA6"/>
			<stop  offset="0.6296" style="stop-color:#42ADA8"/>
			<stop  offset="0.8147" style="stop-color:#36B7AA"/>
			<stop  offset="1" style="stop-color:#32BBAA"/>
		</linearGradient>
		<polygon clip-path="url(#SVGID_11_)" fill="url(#SVGID_12_)" points="38.207,108.126 75.921,42.775 29.639,-7.619 -8.075,57.732 
					"/>
	</g>
</g>
<g>
	<path fill="#31BBAB" d="M28.075,73.594h-2.107c-2.521,0-4.504-2.025-4.504-4.505V55.701c0-2.479,1.983-4.504,4.504-4.504h2.107
		c2.479,0,4.504,2.023,4.504,4.504v13.388C32.579,71.568,30.554,73.594,28.075,73.594z M25.968,54.503
		c-0.661,0-1.198,0.537-1.198,1.198v13.388c0,0.661,0.537,1.198,1.198,1.198h2.107c0.661,0,1.198-0.537,1.198-1.198V55.701
		c0-0.661-0.537-1.198-1.198-1.198H25.968z"/>
</g>
<g>
	<g>
		<defs>
			<path id="SVGID_13_" d="M17.427,69.43c0.322,0.006,0.646,0.018,0.972,0.036L55.65,1.725c-0.328-0.019-0.651-0.031-0.973-0.038
				L17.427,69.43z"/>
		</defs>
		<clipPath id="SVGID_14_">
			<use xlink:href="#SVGID_13_"  overflow="visible"/>
		</clipPath>
		
			<linearGradient id="SVGID_15_" gradientUnits="userSpaceOnUse" x1="-217.9717" y1="-279.7881" x2="-217.7514" y2="-279.7881" gradientTransform="matrix(174.0251 0 0 174.0251 37949.9805 48725.7344)">
			<stop  offset="0" style="stop-color:#A7519E"/>
			<stop  offset="0.0758" style="stop-color:#9660A0"/>
			<stop  offset="0.2593" style="stop-color:#7281A3"/>
			<stop  offset="0.4444" style="stop-color:#569AA6"/>
			<stop  offset="0.6296" style="stop-color:#42ADA8"/>
			<stop  offset="0.8147" style="stop-color:#36B7AA"/>
			<stop  offset="1" style="stop-color:#32BBAA"/>
		</linearGradient>
		<rect x="17.427" y="1.687" clip-path="url(#SVGID_14_)" fill="url(#SVGID_15_)" width="38.224" height="67.779"/>
	</g>
</g>
<g>
	<g>
		<defs>
			<path id="SVGID_16_" d="M18.234,67.96l0.621,0.677L55.504,1.991l-0.263-0.286c-0.188-0.008-0.376-0.014-0.564-0.018L18.234,67.96
				z"/>
		</defs>
		<clipPath id="SVGID_17_">
			<use xlink:href="#SVGID_16_"  overflow="visible"/>
		</clipPath>
		
			<linearGradient id="SVGID_18_" gradientUnits="userSpaceOnUse" x1="-219.896" y1="-283.4316" x2="-219.6763" y2="-283.4316" gradientTransform="matrix(171.9237 -297.9097 -173.1617 -188.5444 -11256.1602 -118880.6797)">
			<stop  offset="0" style="stop-color:#A7519E"/>
			<stop  offset="0.0758" style="stop-color:#9660A0"/>
			<stop  offset="0.2593" style="stop-color:#7281A3"/>
			<stop  offset="0.4444" style="stop-color:#569AA6"/>
			<stop  offset="0.6296" style="stop-color:#42ADA8"/>
			<stop  offset="0.8147" style="stop-color:#36B7AA"/>
			<stop  offset="1" style="stop-color:#32BBAA"/>
		</linearGradient>
		<polygon clip-path="url(#SVGID_17_)" fill="url(#SVGID_18_)" points="41.122,93.559 79.23,27.522 32.616,-23.234 -5.494,42.802 		
			"/>
	</g>
</g>
<g>
	<rect x="1.552" y="73.816" fill="#31BBAB" width="10.512" height="3.283"/>
	<path fill="#31BBAB" d="M19.506,50.538v36.067c0,2.976-2.438,5.373-5.371,5.373c-2.975,0-5.371-2.397-5.371-5.373V73.799h3.305
		v12.807c0,1.117,0.909,2.025,2.066,2.025c1.115,0,2.024-0.908,2.024-2.025V72.889h-2.768c-1.983,0-3.47-1.072-4.173-3.098
		c-0.496-1.322-0.537-2.811-0.537-3.803v-15.45h3.346L11.986,65.99c0,0.412,0,1.734,0.331,2.686c0.33,0.909,0.744,0.909,1.074,0.909
		h2.768V50.538H19.506z"/>
</g>
<g>
	<g>
		<defs>
			<path id="SVGID_19_" d="M42.148,14.307L6.574,79.012c0.332-0.018,0.666-0.031,1.003-0.035L43.15,14.27
				C42.813,14.276,42.478,14.289,42.148,14.307"/>
		</defs>
		<clipPath id="SVGID_20_">
			<use xlink:href="#SVGID_19_"  overflow="visible"/>
		</clipPath>
		
			<linearGradient id="SVGID_21_" gradientUnits="userSpaceOnUse" x1="-217.626" y1="-279.9473" x2="-217.4068" y2="-279.9473" gradientTransform="matrix(166.5258 0 0 166.5258 36246.9375 46665.0703)">
			<stop  offset="0" style="stop-color:#A7519E"/>
			<stop  offset="0.0758" style="stop-color:#9660A0"/>
			<stop  offset="0.2593" style="stop-color:#7281A3"/>
			<stop  offset="0.4444" style="stop-color:#569AA6"/>
			<stop  offset="0.6296" style="stop-color:#42ADA8"/>
			<stop  offset="0.8147" style="stop-color:#36B7AA"/>
			<stop  offset="1" style="stop-color:#32BBAA"/>
		</linearGradient>
		<rect x="6.574" y="14.27" clip-path="url(#SVGID_20_)" fill="url(#SVGID_21_)" width="36.577" height="64.742"/>
	</g>
</g>
<g>
	<g>
		<defs>
			<path id="SVGID_22_" d="M42.148,14.307L6.574,79.012c0.332-0.018,0.666-0.031,1.003-0.035L43.15,14.27
				C42.813,14.276,42.478,14.289,42.148,14.307"/>
		</defs>
		<clipPath id="SVGID_23_">
			<use xlink:href="#SVGID_22_"  overflow="visible"/>
		</clipPath>
		
			<linearGradient id="SVGID_24_" gradientUnits="userSpaceOnUse" x1="-219.7065" y1="-283.5342" x2="-219.4868" y2="-283.5342" gradientTransform="matrix(168.7249 -292.3669 -169.9399 -185.0365 -11107.4209 -116620.3672)">
			<stop  offset="0" style="stop-color:#A7519E"/>
			<stop  offset="0.0758" style="stop-color:#9660A0"/>
			<stop  offset="0.2593" style="stop-color:#7281A3"/>
			<stop  offset="0.4444" style="stop-color:#569AA6"/>
			<stop  offset="0.6296" style="stop-color:#42ADA8"/>
			<stop  offset="0.8147" style="stop-color:#36B7AA"/>
			<stop  offset="1" style="stop-color:#32BBAA"/>
		</linearGradient>
		<polygon clip-path="url(#SVGID_23_)" fill="url(#SVGID_24_)" points="29.036,103.471 66.096,39.253 20.688,-10.188 
			-16.371,54.027 		"/>
	</g>
</g>
<g>
	<g>
		<defs>
			<path id="SVGID_25_" d="M6.574,79.012c0.332-0.018,0.666-0.031,1.003-0.035l11.929-21.666v-1.783L6.574,79.012z"/>
		</defs>
		<clipPath id="SVGID_26_">
			<use xlink:href="#SVGID_25_"  overflow="visible"/>
		</clipPath>
		
			<linearGradient id="SVGID_27_" gradientUnits="userSpaceOnUse" x1="-212.3716" y1="-278.3535" x2="-212.1519" y2="-278.3535" gradientTransform="matrix(58.8787 0 0 58.8787 12510.6953 16456.3438)">
			<stop  offset="0" style="stop-color:#A7519E"/>
			<stop  offset="0.0758" style="stop-color:#9660A0"/>
			<stop  offset="0.2593" style="stop-color:#7281A3"/>
			<stop  offset="0.4444" style="stop-color:#569AA6"/>
			<stop  offset="0.6296" style="stop-color:#42ADA8"/>
			<stop  offset="0.8147" style="stop-color:#36B7AA"/>
			<stop  offset="1" style="stop-color:#32BBAA"/>
		</linearGradient>
		<rect x="6.574" y="55.527" clip-path="url(#SVGID_26_)" fill="url(#SVGID_27_)" width="12.933" height="23.484"/>
	</g>
</g>
<g>
	<g>
		<defs>
			<path id="SVGID_28_" d="M6.574,79.012c0.332-0.018,0.666-0.031,1.003-0.035l11.929-21.666v-1.783L6.574,79.012z"/>
		</defs>
		<clipPath id="SVGID_29_">
			<use xlink:href="#SVGID_28_"  overflow="visible"/>
		</clipPath>
		
			<linearGradient id="SVGID_30_" gradientUnits="userSpaceOnUse" x1="-219.7065" y1="-283.5347" x2="-219.4861" y2="-283.5347" gradientTransform="matrix(168.7249 -292.3669 -169.9399 -185.0365 -11107.4209 -116620.3672)">
			<stop  offset="0" style="stop-color:#A7519E"/>
			<stop  offset="0.0758" style="stop-color:#9660A0"/>
			<stop  offset="0.2593" style="stop-color:#7281A3"/>
			<stop  offset="0.4444" style="stop-color:#569AA6"/>
			<stop  offset="0.6296" style="stop-color:#42ADA8"/>
			<stop  offset="0.8147" style="stop-color:#36B7AA"/>
			<stop  offset="1" style="stop-color:#32BBAA"/>
		</linearGradient>
		<polygon clip-path="url(#SVGID_29_)" fill="url(#SVGID_30_)" points="14.516,87.66 27.829,64.59 11.564,46.88 -1.749,69.95 		"/>
	</g>
</g>
<g>
	<path fill="#FFFFFF" d="M19.524,36.831v12.29h-3.341v-12.29c0-0.845-0.691-1.536-1.536-1.536h-2.688v13.826H8.655V18.742h5.531
		c2.496,0,5.3,2.036,5.3,4.57v7.335c0,1.191-0.461,2.305-1.267,3.188C19.024,34.565,19.524,35.641,19.524,36.831z M11.958,32.606
		h2.228c0.538,0,1.037-0.192,1.382-0.576c0.384-0.346,0.576-0.845,0.576-1.383v-7.335c0-1.114-0.883-1.997-1.958-1.997h-2.228
		V32.606z"/>
	<path fill="#FFFFFF" d="M27.012,49.121h-1.613c-2.343,0-4.225-1.882-4.225-4.225V22.928c0-2.343,1.882-4.225,4.225-4.225h1.613
		c2.343,0,4.225,1.882,4.225,4.225v21.969C31.237,47.239,29.355,49.121,27.012,49.121z M25.898,21.276
		c-0.921,0-1.651,0.73-1.651,1.651v21.969c0,0.922,0.73,1.651,1.651,1.651h0.5c0.922,0,1.651-0.729,1.651-1.651V22.928
		c0-0.921-0.729-1.651-1.651-1.651L25.898,21.276L25.898,21.276z"/>
	<path fill="#FFFFFF" d="M38.995,49.121h-1.613c-2.343,0-4.225-1.882-4.225-4.225V22.928c0-2.343,1.882-4.225,4.225-4.225h1.613
		c2.343,0,4.225,1.882,4.225,4.225v9.026h-3.111v-9.026c0-0.921-0.729-1.651-1.651-1.651h-0.576c-0.921,0-1.651,0.73-1.651,1.651
		v21.969c0,0.922,0.73,1.651,1.651,1.651h0.576c0.922,0,1.651-0.729,1.651-1.651v-9.563h3.111v9.563
		C43.22,47.239,41.338,49.121,38.995,49.121z"/>
	<path fill="#FFFFFF" d="M52.936,30.571c1.613,2.151,2.497,4.993,2.497,7.989v10.562h-2.958V38.56c0-2.458-0.691-4.763-1.958-6.453
		c-0.884-1.19-1.383-1.958-2.535-2.304v19.318h-3.111V18.742h3.111v8.219c1.306-0.576,1.92-1.344,2.65-2.189
		c0.96-1.268,1.843-3.188,1.843-6.03h2.573c0,2.842-0.845,5.53-2.343,7.528c-0.653,0.921-1.421,1.651-2.266,2.189
		C51.208,28.996,52.321,29.726,52.936,30.571z"/>
</g>
<g>
	<path fill="#FFFFFF" d="M26.358,86.109h-1.573V77.54h1.573c0.705,0,1.269,0.542,1.269,1.204v2.396c0,0.271-0.108,0.521-0.282,0.705
		c0.184,0.195,0.282,0.444,0.282,0.717v2.332C27.627,85.568,27.063,86.109,26.358,86.109z M25.653,78.268v3.221l0.727-0.01
		c0.217-0.012,0.38-0.162,0.38-0.336v-2.397c0-0.261-0.239-0.478-0.542-0.478H25.653z M25.653,85.384h0.564
		c0.304,0,0.542-0.218,0.542-0.487v-2.334c0-0.107-0.054-0.185-0.098-0.228c-0.065-0.076-0.174-0.108-0.293-0.108h-0.716
		L25.653,85.384L25.653,85.384z"/>
	<path fill="#FFFFFF" d="M32.052,86.109h-0.456c-0.662,0-1.193-0.53-1.193-1.192v-7.366h0.9v7.366c0,0.261,0.206,0.467,0.466,0.467
		h0.163c0.261,0,0.467-0.206,0.467-0.467v-7.366h0.846v7.366C33.246,85.579,32.714,86.109,32.052,86.109z"/>
	<path fill="#FFFFFF" d="M37.583,86.109h-0.651c-0.607,0-1.096-0.467-1.096-1.041v-2.256h0.879v2.256
		c0,0.174,0.163,0.314,0.369,0.314h0.369c0.206,0,0.369-0.142,0.369-0.314v-2.723c0-0.119-0.119-0.229-0.26-0.229h-0.727
		c-0.553,0-0.998-0.424-0.998-0.944v-2.612c0-0.576,0.488-1.043,1.096-1.043h0.651c0.608,0,1.096,0.467,1.096,1.043v2.147h-0.857
		v-2.147c0-0.174-0.163-0.314-0.369-0.314h-0.369c-0.206,0-0.369,0.141-0.369,0.314v2.613c0,0.119,0.119,0.229,0.271,0.229h0.706
		c0.542,0,0.987,0.424,0.987,0.943v2.723C38.679,85.645,38.191,86.109,37.583,86.109z"/>
	<path fill="#FFFFFF" d="M42.258,86.109H41.39v-8.592h0.868V86.109z"/>
	<path fill="#FFFFFF" d="M46.954,86.109c-0.379-1.551-0.813-3.774-1.269-5.608V86.1h-0.857v-8.57c0,0,0.445,0,0.716,0l0.087,0.281
		c0.065,0.229,0.141,0.564,0.25,0.967c0.195,0.813,0.456,1.877,0.727,2.951l0.347,1.432l0.022-5.619h0.846l-0.033,8.57h-0.836
		V86.109z"/>
	<path fill="#FFFFFF" d="M51.314,78.277v3.156h1.616v0.728h-1.616v3.223h1.616v0.728h-2.484v-8.561h2.484v0.727H51.314
		L51.314,78.277z"/>
	<path fill="#FFFFFF" d="M57.344,86.109h-0.651c-0.607,0-1.096-0.467-1.096-1.041v-2.256h0.879v2.256
		c0,0.174,0.163,0.314,0.369,0.314h0.369c0.206,0,0.369-0.142,0.369-0.314v-2.723c0-0.119-0.119-0.229-0.26-0.229h-0.727
		c-0.553,0-0.998-0.424-0.998-0.944v-2.612c0-0.576,0.488-1.043,1.096-1.043h0.651c0.608,0,1.096,0.467,1.096,1.043v2.147h-0.857
		v-2.147c0-0.174-0.163-0.314-0.369-0.314h-0.369c-0.206,0-0.369,0.141-0.369,0.314v2.613c0,0.119,0.119,0.229,0.271,0.229h0.706
		c0.542,0,0.987,0.424,0.987,0.943v2.723C58.44,85.645,57.952,86.109,57.344,86.109z"/>
	<path fill="#FFFFFF" d="M62.886,86.109h-0.651c-0.607,0-1.096-0.467-1.096-1.041v-2.256h0.879v2.256
		c0,0.174,0.163,0.314,0.369,0.314h0.369c0.206,0,0.369-0.142,0.369-0.314v-2.723c0-0.119-0.119-0.229-0.26-0.229h-0.727
		c-0.553,0-0.998-0.424-0.998-0.944v-2.612c0-0.576,0.488-1.043,1.096-1.043h0.651c0.608,0,1.096,0.467,1.096,1.043v2.147h-0.857
		v-2.147c0-0.174-0.163-0.314-0.369-0.314h-0.369c-0.206,0-0.369,0.141-0.369,0.314v2.613c0,0.119,0.119,0.229,0.271,0.229h0.706
		c0.542,0,0.987,0.424,0.987,0.943v2.723C63.982,85.645,63.494,86.109,62.886,86.109z"/>
</g>
<g>
	<path fill="#31BBAB" d="M59,57.484v6.9h-3.306v-6.9c0-0.578-0.248-1.115-0.702-1.486c-0.413-0.372-0.992-0.579-1.529-0.579
		c-1.24,0-2.149,0.909-2.149,2.065h-0.041v16.693h-3.306V52.072h3.306v0.453c0.661-0.289,1.405-0.412,2.19-0.412
		c1.363,0,2.645,0.455,3.677,1.363C58.339,54.469,59,55.956,59,57.484z"/>
</g>
<g>
	<path fill="#31BBAB" d="M41.317,72.898H39.21c-2.479,0-4.504-1.983-4.504-4.504V50.502h3.306v17.893
		c0,0.66,0.537,1.197,1.198,1.197h2.107c0.661,0,1.198-0.537,1.198-1.197V50.502h3.306v17.893
		C45.821,70.915,43.796,72.898,41.317,72.898z"/>
</g>
<g>
	<g>
		<defs>
			<path id="SVGID_31_" d="M29.882,69.794c0.032,0.009,0.064,0.019,0.097,0.026c0.085,0.023,0.172,0.048,0.258,0.07L65.811,5.188
				c-0.086-0.024-0.172-0.048-0.258-0.072C65.521,5.108,65.486,5.1,65.455,5.09L29.882,69.794z"/>
		</defs>
		<clipPath id="SVGID_32_">
			<use xlink:href="#SVGID_31_"  overflow="visible"/>
		</clipPath>
		
			<linearGradient id="SVGID_33_" gradientUnits="userSpaceOnUse" x1="-218.0762" y1="-279.7168" x2="-217.8564" y2="-279.7168" gradientTransform="matrix(163.2659 0 0 163.2659 35634.207 45705.6992)">
			<stop  offset="0" style="stop-color:#A7519E"/>
			<stop  offset="0.0758" style="stop-color:#9660A0"/>
			<stop  offset="0.2593" style="stop-color:#7281A3"/>
			<stop  offset="0.4444" style="stop-color:#569AA6"/>
			<stop  offset="0.6296" style="stop-color:#42ADA8"/>
			<stop  offset="0.8147" style="stop-color:#36B7AA"/>
			<stop  offset="1" style="stop-color:#32BBAA"/>
		</linearGradient>
		<rect x="29.882" y="5.09" clip-path="url(#SVGID_32_)" fill="url(#SVGID_33_)" width="35.929" height="64.803"/>
	</g>
</g>
<g>
	<g>
		<defs>
			<path id="SVGID_34_" d="M29.882,69.794c0.032,0.009,0.064,0.019,0.097,0.026c0.085,0.023,0.172,0.048,0.258,0.07L65.811,5.188
				c-0.086-0.024-0.172-0.048-0.258-0.072C65.521,5.108,65.486,5.1,65.455,5.09L29.882,69.794z"/>
		</defs>
		<clipPath id="SVGID_35_">
			<use xlink:href="#SVGID_34_"  overflow="visible"/>
		</clipPath>
		
			<linearGradient id="SVGID_36_" gradientUnits="userSpaceOnUse" x1="-219.9604" y1="-283.3203" x2="-219.7411" y2="-283.3203" gradientTransform="matrix(167.3658 -290.0117 -168.5709 -183.5459 -10916.4277 -115723.9141)">
			<stop  offset="0" style="stop-color:#A7519E"/>
			<stop  offset="0.0758" style="stop-color:#9660A0"/>
			<stop  offset="0.2593" style="stop-color:#7281A3"/>
			<stop  offset="0.4444" style="stop-color:#569AA6"/>
			<stop  offset="0.6296" style="stop-color:#42ADA8"/>
			<stop  offset="0.8147" style="stop-color:#36B7AA"/>
			<stop  offset="1" style="stop-color:#32BBAA"/>
		</linearGradient>
		<polygon clip-path="url(#SVGID_35_)" fill="url(#SVGID_36_)" points="51.946,93.916 88.775,30.096 43.746,-18.934 6.916,44.886 		
			"/>
	</g>
</g>
<g>
	<g>
		<defs>
			<path id="SVGID_37_" d="M14.926,82.777l1.521,1.656l11.496-21.093c-0.001-0.001-0.002-0.002-0.004-0.002
				c-0.154-0.069-0.216-0.098-0.278-0.125c-0.158-0.069-0.221-0.097-0.283-0.124c-0.152-0.066-0.216-0.095-0.28-0.121
				c-0.152-0.066-0.216-0.093-0.281-0.119c-0.15-0.063-0.216-0.092-0.283-0.117c-0.145-0.061-0.213-0.088-0.283-0.114
				c-0.136-0.056-0.207-0.083-0.277-0.111L14.926,82.777z"/>
		</defs>
		<clipPath id="SVGID_38_">
			<use xlink:href="#SVGID_37_"  overflow="visible"/>
		</clipPath>
		
			<linearGradient id="SVGID_39_" gradientUnits="userSpaceOnUse" x1="-218.9692" y1="-281.9971" x2="-218.7471" y2="-281.9971" gradientTransform="matrix(366.4102 0 80.997 -542.1848 103063.4688 -152820.6563)">
			<stop  offset="0" style="stop-color:#A7519E"/>
			<stop  offset="0.1164" style="stop-color:#8B69A1"/>
			<stop  offset="0.2842" style="stop-color:#6986A4"/>
			<stop  offset="0.4558" style="stop-color:#4E9DA7"/>
			<stop  offset="0.6302" style="stop-color:#3BADA9"/>
			<stop  offset="0.8093" style="stop-color:#30B7AA"/>
			<stop  offset="1" style="stop-color:#2CBAAA"/>
		</linearGradient>
		<polygon clip-path="url(#SVGID_38_)" fill="url(#SVGID_39_)" points="11.651,84.434 27.942,84.434 31.217,62.507 14.926,62.507 		
			"/>
	</g>
</g>
<g>
	<path fill="#FFFFFC" d="M71.426,55.082v0.784h-0.281v-2.095h0.619c0.131,0,0.245,0.016,0.344,0.045
		c0.1,0.031,0.18,0.074,0.244,0.131c0.063,0.058,0.111,0.125,0.145,0.205c0.031,0.08,0.048,0.17,0.048,0.269
		c0,0.097-0.019,0.187-0.052,0.269c-0.033,0.08-0.084,0.149-0.149,0.209c-0.065,0.058-0.147,0.104-0.245,0.137
		c-0.098,0.031-0.209,0.048-0.334,0.048L71.426,55.082L71.426,55.082z M71.426,54.855h0.338c0.079,0,0.151-0.01,0.213-0.03
		c0.063-0.021,0.113-0.052,0.155-0.091c0.042-0.037,0.074-0.084,0.097-0.137c0.021-0.055,0.031-0.113,0.031-0.178
		c0-0.134-0.041-0.236-0.124-0.313s-0.206-0.112-0.372-0.112h-0.338V54.855z"/>
	<path fill="#FFFFFC" d="M73.415,54.361c0.106,0,0.206,0.019,0.293,0.055c0.088,0.036,0.161,0.087,0.222,0.152
		c0.062,0.066,0.108,0.146,0.143,0.242c0.031,0.094,0.048,0.197,0.048,0.313c0,0.117-0.017,0.222-0.048,0.315
		c-0.033,0.094-0.081,0.174-0.143,0.24c-0.061,0.064-0.134,0.116-0.222,0.151c-0.087,0.035-0.187,0.053-0.293,0.053
		c-0.108,0-0.205-0.018-0.293-0.053c-0.087-0.035-0.161-0.087-0.224-0.151c-0.062-0.066-0.108-0.146-0.142-0.24
		c-0.034-0.094-0.05-0.198-0.05-0.315c0-0.116,0.016-0.222,0.05-0.313c0.032-0.096,0.08-0.176,0.142-0.242
		c0.063-0.065,0.137-0.116,0.224-0.152C73.21,54.38,73.307,54.361,73.415,54.361 M73.415,55.684c0.146,0,0.256-0.05,0.327-0.146
		c0.072-0.098,0.109-0.234,0.109-0.409c0-0.177-0.037-0.313-0.109-0.413c-0.071-0.099-0.182-0.146-0.327-0.146
		c-0.074,0-0.14,0.014-0.192,0.037c-0.056,0.025-0.101,0.063-0.137,0.109c-0.037,0.049-0.064,0.107-0.082,0.178
		c-0.02,0.069-0.027,0.147-0.027,0.235c0,0.087,0.01,0.166,0.027,0.233c0.018,0.07,0.045,0.129,0.082,0.176
		c0.036,0.048,0.081,0.084,0.137,0.107C73.275,55.67,73.341,55.684,73.415,55.684"/>
	<path fill="#FFFFFC" d="M74.439,55.866v-1.481h0.156c0.036,0,0.061,0.02,0.069,0.055l0.021,0.152
		c0.054-0.066,0.113-0.123,0.183-0.166c0.067-0.042,0.146-0.063,0.235-0.063c0.102,0,0.183,0.027,0.244,0.082
		c0.061,0.057,0.105,0.132,0.133,0.227c0.021-0.054,0.049-0.1,0.082-0.14c0.033-0.039,0.071-0.071,0.112-0.097
		c0.042-0.024,0.086-0.045,0.134-0.056c0.047-0.013,0.096-0.019,0.146-0.019c0.077,0,0.146,0.013,0.207,0.037
		c0.062,0.025,0.112,0.062,0.155,0.109c0.041,0.047,0.074,0.105,0.097,0.176c0.022,0.069,0.034,0.149,0.034,0.238v0.943h-0.26
		v-0.943c0-0.115-0.025-0.203-0.076-0.264s-0.125-0.09-0.221-0.09c-0.043,0-0.084,0.008-0.123,0.022s-0.07,0.037-0.103,0.065
		c-0.028,0.029-0.052,0.066-0.067,0.111c-0.018,0.043-0.027,0.096-0.027,0.152v0.943h-0.26V54.92c0-0.119-0.022-0.207-0.07-0.268
		c-0.047-0.057-0.118-0.086-0.209-0.086c-0.063,0-0.124,0.018-0.18,0.052s-0.105,0.082-0.149,0.141v1.104h-0.263V55.866z"/>
	<path fill="#FFFFFC" d="M77.439,54.361c0.107,0,0.207,0.019,0.293,0.055c0.088,0.036,0.162,0.087,0.223,0.152
		c0.061,0.066,0.107,0.146,0.141,0.242c0.032,0.094,0.049,0.197,0.049,0.313c0,0.117-0.017,0.222-0.049,0.315
		c-0.033,0.094-0.08,0.174-0.141,0.24c-0.061,0.064-0.135,0.116-0.223,0.151c-0.086,0.035-0.186,0.053-0.293,0.053
		s-0.205-0.018-0.293-0.053s-0.162-0.087-0.224-0.151c-0.062-0.066-0.108-0.146-0.142-0.24s-0.049-0.198-0.049-0.315
		c0-0.116,0.016-0.222,0.049-0.313c0.033-0.096,0.08-0.176,0.142-0.242c0.062-0.065,0.136-0.116,0.224-0.152
		S77.332,54.361,77.439,54.361 M77.439,55.684c0.146,0,0.256-0.05,0.328-0.146c0.07-0.098,0.107-0.234,0.107-0.409
		c0-0.177-0.037-0.313-0.107-0.413c-0.072-0.099-0.183-0.146-0.328-0.146c-0.074,0-0.14,0.014-0.191,0.037
		c-0.057,0.025-0.102,0.063-0.139,0.109c-0.035,0.049-0.063,0.107-0.082,0.178c-0.019,0.069-0.026,0.147-0.026,0.235
		c0,0.087,0.009,0.166,0.026,0.233c0.02,0.07,0.047,0.129,0.082,0.176c0.037,0.048,0.082,0.084,0.139,0.107
		C77.301,55.67,77.365,55.684,77.439,55.684"/>
	<path fill="#FFFFFC" d="M78.466,55.866v-1.481h0.148c0.028,0,0.048,0.006,0.059,0.018c0.011,0.011,0.019,0.029,0.021,0.056
		l0.02,0.231c0.051-0.104,0.113-0.186,0.188-0.242c0.076-0.059,0.162-0.088,0.264-0.088c0.041,0,0.077,0.004,0.109,0.015
		c0.035,0.009,0.064,0.021,0.094,0.039l-0.033,0.194c-0.008,0.022-0.021,0.035-0.046,0.035c-0.015,0-0.035-0.004-0.063-0.015
		c-0.026-0.009-0.066-0.013-0.117-0.013c-0.09,0-0.166,0.025-0.228,0.078s-0.112,0.129-0.153,0.229v0.943H78.466z"/>
	<path fill="#FFFFFC" d="M80.491,54.63c-0.013,0.021-0.029,0.032-0.056,0.032c-0.014,0-0.029-0.006-0.049-0.016
		c-0.019-0.012-0.041-0.023-0.068-0.037c-0.025-0.014-0.059-0.025-0.096-0.037c-0.037-0.01-0.08-0.016-0.132-0.016
		c-0.043,0-0.083,0.006-0.118,0.016c-0.035,0.012-0.063,0.027-0.089,0.047c-0.024,0.02-0.045,0.043-0.058,0.068
		c-0.014,0.024-0.02,0.053-0.02,0.084c0,0.037,0.01,0.068,0.031,0.095s0.051,0.048,0.088,0.065c0.035,0.019,0.076,0.034,0.122,0.049
		c0.046,0.014,0.093,0.029,0.142,0.045c0.049,0.018,0.096,0.035,0.142,0.054c0.046,0.021,0.087,0.044,0.122,0.073
		c0.036,0.029,0.064,0.064,0.088,0.107c0.021,0.041,0.032,0.094,0.032,0.151c0,0.067-0.013,0.133-0.036,0.188
		c-0.023,0.06-0.061,0.108-0.107,0.15c-0.049,0.043-0.105,0.077-0.176,0.102c-0.07,0.023-0.148,0.037-0.24,0.037
		c-0.104,0-0.195-0.019-0.279-0.052c-0.084-0.032-0.155-0.075-0.215-0.13l0.063-0.1c0.007-0.012,0.017-0.021,0.026-0.029
		c0.011-0.006,0.024-0.01,0.043-0.01c0.018,0,0.035,0.008,0.056,0.021c0.021,0.015,0.043,0.029,0.071,0.045
		c0.025,0.019,0.061,0.032,0.1,0.048c0.041,0.012,0.09,0.02,0.148,0.02c0.052,0,0.096-0.008,0.134-0.02
		c0.038-0.014,0.069-0.031,0.095-0.055c0.025-0.021,0.044-0.049,0.057-0.077s0.019-0.062,0.019-0.094
		c0-0.041-0.011-0.074-0.033-0.101c-0.021-0.027-0.05-0.051-0.086-0.07c-0.037-0.02-0.078-0.034-0.124-0.049
		c-0.046-0.016-0.094-0.029-0.143-0.045c-0.047-0.016-0.094-0.033-0.141-0.055c-0.047-0.02-0.088-0.043-0.125-0.074
		c-0.035-0.03-0.063-0.066-0.086-0.111c-0.021-0.045-0.033-0.098-0.033-0.161c0-0.058,0.013-0.11,0.035-0.164
		c0.022-0.052,0.057-0.097,0.104-0.138c0.044-0.039,0.099-0.069,0.165-0.094c0.063-0.022,0.14-0.035,0.224-0.035
		c0.098,0,0.186,0.017,0.264,0.047c0.075,0.029,0.145,0.072,0.198,0.126L80.491,54.63z"/>
	<path fill="#FFFFFC" d="M81.184,53.714v1.267h0.066c0.02,0,0.035-0.002,0.048-0.008s0.026-0.017,0.043-0.033l0.468-0.502
		c0.016-0.015,0.028-0.026,0.043-0.037c0.016-0.01,0.034-0.016,0.06-0.016h0.235l-0.545,0.581c-0.014,0.017-0.025,0.03-0.039,0.043
		c-0.014,0.015-0.028,0.025-0.045,0.034c0.019,0.012,0.033,0.023,0.047,0.041c0.015,0.014,0.028,0.032,0.041,0.053l0.578,0.729
		H81.95c-0.021,0-0.04-0.005-0.056-0.013c-0.016-0.01-0.028-0.021-0.043-0.039l-0.486-0.605c-0.016-0.021-0.029-0.034-0.045-0.041
		c-0.014-0.007-0.035-0.009-0.064-0.009h-0.072v0.707h-0.263v-2.152H81.184z"/>
	<path fill="#FFFFFC" d="M82.791,53.921c0,0.024-0.005,0.05-0.016,0.071c-0.01,0.021-0.023,0.041-0.041,0.057
		c-0.018,0.02-0.036,0.031-0.06,0.042c-0.021,0.011-0.046,0.015-0.071,0.015c-0.024,0-0.049-0.004-0.069-0.015
		c-0.022-0.011-0.042-0.022-0.06-0.042c-0.018-0.016-0.031-0.035-0.041-0.057s-0.015-0.047-0.015-0.071s0.005-0.05,0.015-0.071
		c0.01-0.022,0.023-0.043,0.041-0.062c0.018-0.017,0.037-0.03,0.06-0.04c0.021-0.01,0.045-0.016,0.069-0.016
		c0.025,0,0.051,0.006,0.071,0.016c0.022,0.01,0.042,0.023,0.06,0.04c0.018,0.019,0.031,0.038,0.041,0.062
		C82.786,53.872,82.791,53.896,82.791,53.921 M82.732,55.866h-0.26v-1.481h0.26V55.866z"/>
	<path fill="#FFFFFC" d="M71.426,58.979v0.783h-0.281v-2.094h0.619c0.131,0,0.245,0.016,0.344,0.047
		c0.1,0.03,0.18,0.073,0.244,0.131c0.063,0.057,0.111,0.125,0.145,0.204c0.031,0.079,0.048,0.169,0.048,0.267
		c0,0.1-0.019,0.188-0.052,0.27c-0.033,0.08-0.084,0.148-0.149,0.209c-0.065,0.059-0.147,0.104-0.245,0.137
		C72,58.963,71.889,58.98,71.764,58.98h-0.338V58.979z M71.426,58.755h0.338c0.079,0,0.151-0.011,0.213-0.032
		c0.063-0.021,0.113-0.052,0.155-0.091c0.042-0.036,0.074-0.084,0.097-0.138c0.021-0.055,0.031-0.112,0.031-0.178
		c0-0.133-0.041-0.236-0.124-0.313s-0.206-0.111-0.372-0.111h-0.338V58.755z"/>
	<path fill="#FFFFFC" d="M73.874,59.764h-0.115c-0.024,0-0.047-0.005-0.062-0.013c-0.016-0.008-0.026-0.022-0.031-0.049
		l-0.029-0.138c-0.039,0.035-0.076,0.065-0.113,0.094c-0.037,0.027-0.075,0.051-0.116,0.07c-0.041,0.019-0.084,0.033-0.13,0.043
		c-0.047,0.01-0.1,0.015-0.156,0.015s-0.109-0.009-0.16-0.024c-0.05-0.016-0.094-0.039-0.131-0.072
		c-0.037-0.031-0.066-0.072-0.089-0.121c-0.021-0.049-0.032-0.108-0.032-0.176c0-0.059,0.016-0.115,0.048-0.17
		s0.084-0.103,0.155-0.145c0.072-0.042,0.166-0.076,0.281-0.104s0.258-0.041,0.426-0.041v-0.117c0-0.114-0.023-0.201-0.074-0.262
		c-0.049-0.06-0.121-0.089-0.218-0.089c-0.063,0-0.117,0.009-0.16,0.024c-0.044,0.016-0.081,0.033-0.112,0.053
		c-0.031,0.021-0.06,0.04-0.082,0.055c-0.021,0.018-0.046,0.024-0.067,0.024c-0.019,0-0.033-0.005-0.046-0.015
		c-0.014-0.01-0.023-0.021-0.031-0.033l-0.047-0.084c0.082-0.079,0.17-0.137,0.265-0.178c0.095-0.039,0.199-0.058,0.313-0.058
		c0.082,0,0.156,0.013,0.222,0.04c0.063,0.027,0.118,0.064,0.161,0.114c0.045,0.049,0.076,0.108,0.101,0.177
		c0.021,0.068,0.033,0.146,0.033,0.229v0.949H73.874z M73.199,59.604c0.045,0,0.088-0.004,0.125-0.014
		c0.037-0.009,0.072-0.021,0.107-0.04c0.033-0.017,0.064-0.036,0.096-0.063c0.031-0.021,0.062-0.051,0.091-0.082V59.1
		c-0.12,0-0.224,0.008-0.306,0.022c-0.084,0.017-0.151,0.034-0.205,0.062c-0.053,0.022-0.092,0.053-0.113,0.084
		c-0.023,0.035-0.036,0.072-0.036,0.113c0,0.039,0.005,0.073,0.019,0.102c0.012,0.027,0.029,0.052,0.051,0.07
		c0.022,0.018,0.048,0.029,0.076,0.039C73.133,59.6,73.164,59.604,73.199,59.604"/>
	<path fill="#FFFFFC" d="M74.27,59.764v-1.48h0.148c0.027,0,0.048,0.006,0.059,0.017c0.01,0.011,0.019,0.029,0.021,0.056
		l0.018,0.231c0.051-0.104,0.113-0.185,0.188-0.241c0.073-0.06,0.162-0.088,0.263-0.088c0.04,0,0.077,0.004,0.111,0.014
		c0.031,0.01,0.063,0.021,0.092,0.039l-0.033,0.193c-0.007,0.023-0.022,0.037-0.046,0.037c-0.014,0-0.034-0.005-0.063-0.016
		c-0.027-0.008-0.066-0.012-0.116-0.012c-0.093,0-0.167,0.024-0.229,0.077c-0.06,0.054-0.111,0.13-0.151,0.229v0.941H74.27V59.764z"
		/>
	<path fill="#FFFFFC" d="M75.717,57.609v1.269h0.067c0.021,0,0.036-0.003,0.049-0.009s0.026-0.016,0.042-0.032l0.467-0.502
		c0.016-0.017,0.03-0.028,0.045-0.038c0.014-0.01,0.033-0.015,0.059-0.015h0.236l-0.545,0.579c-0.015,0.018-0.027,0.031-0.041,0.046
		c-0.013,0.013-0.027,0.022-0.044,0.032c0.017,0.013,0.033,0.024,0.048,0.041c0.015,0.015,0.027,0.031,0.039,0.052l0.579,0.729
		h-0.233c-0.021,0-0.039-0.004-0.055-0.013c-0.016-0.008-0.029-0.021-0.043-0.038L75.9,59.105c-0.016-0.021-0.029-0.035-0.045-0.041
		c-0.014-0.006-0.035-0.01-0.064-0.01h-0.073v0.707h-0.261v-2.152H75.717z"/>
	<path fill="#FFFFFC" d="M77.785,57.678c0.013,0.008,0.025,0.02,0.041,0.039l1.213,1.578c-0.001-0.025-0.004-0.049-0.005-0.072
		c-0.001-0.025-0.002-0.048-0.002-0.07V57.67h0.247v2.094h-0.143c-0.021,0-0.041-0.004-0.057-0.012s-0.029-0.021-0.043-0.039
		l-1.213-1.576c0.002,0.023,0.003,0.049,0.005,0.071c0.001,0.022,0.002,0.044,0.002,0.063v1.492h-0.249v-2.095h0.146
		C77.755,57.669,77.771,57.673,77.785,57.678"/>
	<path fill="#FFFFFC" d="M80.839,59.764h-0.114c-0.025,0-0.047-0.005-0.062-0.013c-0.017-0.008-0.026-0.022-0.031-0.049
		l-0.028-0.138c-0.039,0.035-0.076,0.065-0.114,0.094c-0.037,0.027-0.076,0.051-0.117,0.07c-0.041,0.019-0.085,0.033-0.131,0.043
		c-0.048,0.01-0.099,0.015-0.153,0.015c-0.058,0-0.111-0.009-0.162-0.024c-0.05-0.016-0.094-0.039-0.131-0.072
		c-0.036-0.031-0.066-0.072-0.088-0.121s-0.033-0.108-0.033-0.176c0-0.059,0.018-0.115,0.049-0.17s0.084-0.103,0.155-0.145
		c0.072-0.042,0.165-0.076,0.281-0.104s0.257-0.041,0.425-0.041v-0.117c0-0.114-0.023-0.201-0.072-0.262
		c-0.051-0.06-0.123-0.089-0.22-0.089c-0.063,0-0.117,0.009-0.16,0.024s-0.08,0.033-0.112,0.053
		c-0.031,0.021-0.059,0.04-0.082,0.055c-0.022,0.018-0.045,0.024-0.067,0.024c-0.019,0-0.032-0.005-0.046-0.015
		s-0.023-0.021-0.03-0.033l-0.048-0.084c0.081-0.079,0.171-0.137,0.266-0.178c0.094-0.039,0.198-0.058,0.313-0.058
		c0.083,0,0.155,0.013,0.221,0.04s0.119,0.064,0.162,0.114c0.043,0.049,0.077,0.108,0.101,0.177
		c0.021,0.068,0.032,0.146,0.032,0.229v0.949H80.839z M80.163,59.604c0.047,0,0.089-0.004,0.127-0.014
		c0.038-0.009,0.073-0.021,0.106-0.04c0.035-0.017,0.065-0.036,0.098-0.063c0.029-0.021,0.061-0.051,0.089-0.082V59.1
		c-0.119,0-0.222,0.008-0.306,0.022c-0.084,0.017-0.151,0.034-0.203,0.062c-0.055,0.022-0.092,0.053-0.115,0.084
		c-0.023,0.035-0.037,0.072-0.037,0.113c0,0.039,0.008,0.073,0.02,0.102c0.014,0.027,0.031,0.052,0.053,0.07
		c0.021,0.018,0.047,0.029,0.074,0.039C80.098,59.6,80.129,59.604,80.163,59.604"/>
	<path fill="#FFFFFC" d="M81.459,58.282v0.944c0,0.111,0.023,0.197,0.076,0.26c0.052,0.063,0.131,0.093,0.234,0.093
		c0.076,0,0.147-0.019,0.215-0.054c0.066-0.037,0.129-0.088,0.186-0.151v-1.093h0.262v1.48h-0.156c-0.037,0-0.061-0.018-0.069-0.054
		l-0.021-0.159c-0.064,0.071-0.138,0.129-0.217,0.172c-0.078,0.043-0.172,0.064-0.273,0.064c-0.082,0-0.152-0.014-0.215-0.039
		c-0.063-0.027-0.114-0.064-0.155-0.114c-0.043-0.049-0.073-0.106-0.095-0.178c-0.021-0.067-0.031-0.146-0.031-0.229v-0.943
		L81.459,58.282L81.459,58.282z"/>
	<path fill="#FFFFFC" d="M83.129,57.609v1.269h0.068c0.019,0,0.033-0.003,0.048-0.009c0.013-0.006,0.026-0.016,0.041-0.032
		l0.469-0.502c0.015-0.017,0.029-0.028,0.044-0.038c0.016-0.01,0.034-0.015,0.059-0.015h0.236l-0.545,0.579
		c-0.015,0.018-0.025,0.031-0.041,0.046c-0.013,0.013-0.025,0.022-0.044,0.032c0.019,0.013,0.033,0.024,0.048,0.041
		c0.014,0.015,0.026,0.031,0.039,0.052l0.579,0.729h-0.233c-0.021,0-0.039-0.004-0.055-0.013c-0.016-0.008-0.029-0.021-0.043-0.038
		l-0.486-0.605c-0.016-0.021-0.028-0.035-0.043-0.041c-0.017-0.006-0.039-0.01-0.066-0.01H83.13v0.707h-0.262v-2.152H83.129z"/>
	<path fill="#FFFFFC" d="M84.9,58.259c0.109,0,0.207,0.019,0.293,0.056c0.089,0.035,0.162,0.086,0.224,0.152s0.108,0.146,0.14,0.24
		c0.032,0.096,0.051,0.199,0.051,0.314c0,0.117-0.019,0.224-0.051,0.315c-0.031,0.093-0.078,0.173-0.14,0.239
		s-0.135,0.117-0.224,0.152c-0.086,0.035-0.184,0.053-0.293,0.053c-0.107,0-0.205-0.018-0.293-0.053
		c-0.086-0.035-0.16-0.086-0.223-0.152c-0.062-0.066-0.107-0.146-0.142-0.239c-0.033-0.093-0.05-0.198-0.05-0.315
		c0-0.115,0.017-0.221,0.05-0.314c0.034-0.094,0.08-0.174,0.142-0.24c0.063-0.066,0.137-0.117,0.223-0.152
		C84.695,58.277,84.793,58.259,84.9,58.259 M84.9,59.581c0.146,0,0.257-0.05,0.328-0.146c0.072-0.1,0.107-0.236,0.107-0.412
		s-0.035-0.313-0.107-0.412c-0.071-0.098-0.182-0.146-0.328-0.146c-0.072,0-0.137,0.014-0.192,0.038
		c-0.054,0.024-0.101,0.063-0.136,0.108c-0.037,0.049-0.063,0.107-0.082,0.177c-0.018,0.069-0.026,0.147-0.026,0.235
		s0.009,0.166,0.026,0.235c0.019,0.07,0.045,0.128,0.082,0.177c0.035,0.045,0.082,0.082,0.136,0.106
		C84.764,59.568,84.828,59.581,84.9,59.581"/>
	<path fill="#FFFFFC" d="M85.734,58.282h0.205c0.021,0,0.039,0.006,0.053,0.017c0.014,0.012,0.021,0.023,0.027,0.038l0.283,0.952
		c0.008,0.036,0.016,0.07,0.021,0.104c0.006,0.032,0.013,0.064,0.018,0.098c0.008-0.032,0.018-0.065,0.026-0.098
		c0.009-0.033,0.021-0.066,0.03-0.104l0.313-0.958c0.005-0.017,0.013-0.026,0.024-0.037c0.013-0.01,0.027-0.015,0.047-0.015h0.113
		c0.02,0,0.035,0.005,0.047,0.015c0.014,0.011,0.021,0.021,0.025,0.037l0.307,0.958c0.011,0.033,0.021,0.068,0.029,0.102
		c0.008,0.033,0.016,0.064,0.022,0.098c0.006-0.032,0.011-0.064,0.021-0.1c0.008-0.037,0.016-0.068,0.023-0.1l0.289-0.952
		c0.005-0.017,0.014-0.028,0.027-0.039c0.015-0.011,0.029-0.016,0.049-0.016h0.197l-0.481,1.479h-0.205
		c-0.024,0-0.043-0.016-0.054-0.05l-0.327-1.004c-0.007-0.021-0.013-0.045-0.019-0.067c-0.005-0.022-0.011-0.045-0.016-0.068
		c-0.004,0.023-0.01,0.046-0.016,0.07c-0.004,0.022-0.01,0.045-0.019,0.067l-0.332,1.002c-0.011,0.034-0.03,0.05-0.06,0.05h-0.195
		L85.734,58.282z"/>
	<path fill="#FFFFFC" d="M88.766,58.259c0.108,0,0.207,0.019,0.293,0.056c0.088,0.035,0.162,0.086,0.223,0.152
		c0.062,0.066,0.107,0.146,0.142,0.24c0.032,0.096,0.048,0.199,0.048,0.314c0,0.117-0.016,0.224-0.048,0.315
		c-0.032,0.093-0.08,0.173-0.142,0.239c-0.061,0.066-0.135,0.117-0.223,0.152c-0.086,0.035-0.185,0.053-0.293,0.053
		c-0.106,0-0.205-0.018-0.293-0.053c-0.087-0.035-0.16-0.086-0.224-0.152c-0.062-0.066-0.106-0.146-0.142-0.239
		c-0.033-0.093-0.049-0.198-0.049-0.315c0-0.115,0.017-0.221,0.049-0.314c0.033-0.094,0.08-0.174,0.142-0.24
		c0.063-0.066,0.137-0.117,0.224-0.152C88.561,58.277,88.658,58.259,88.766,58.259 M88.766,59.581c0.146,0,0.256-0.05,0.327-0.146
		c0.073-0.1,0.109-0.236,0.109-0.412s-0.036-0.313-0.109-0.412c-0.071-0.098-0.181-0.146-0.327-0.146
		c-0.074,0-0.139,0.014-0.191,0.038c-0.055,0.024-0.102,0.063-0.137,0.108c-0.037,0.049-0.063,0.107-0.082,0.177
		c-0.02,0.069-0.027,0.147-0.027,0.235s0.009,0.166,0.027,0.235c0.019,0.07,0.045,0.128,0.082,0.177
		c0.035,0.045,0.082,0.082,0.137,0.106C88.627,59.568,88.691,59.581,88.766,59.581"/>
	<rect x="89.725" y="58.775" fill="#FFFFFC" width="0.724" height="0.222"/>
	<polygon fill="#FFFFFC" points="92.011,57.669 92.011,57.906 91.333,57.906 91.333,59.764 91.05,59.764 91.05,57.906 90.37,57.906 
		90.37,57.669 	"/>
	<path fill="#FFFFFC" d="M92.546,58.259c0.09,0,0.171,0.017,0.246,0.044c0.075,0.031,0.142,0.073,0.192,0.129
		c0.057,0.059,0.1,0.125,0.13,0.209c0.03,0.082,0.047,0.176,0.047,0.28c0,0.042-0.007,0.067-0.015,0.083
		c-0.01,0.014-0.025,0.02-0.049,0.02h-0.986c0.002,0.095,0.015,0.176,0.039,0.244c0.022,0.069,0.056,0.127,0.097,0.174
		c0.04,0.045,0.089,0.08,0.146,0.104c0.059,0.022,0.121,0.034,0.19,0.034c0.065,0,0.121-0.008,0.169-0.023
		c0.047-0.015,0.087-0.029,0.121-0.048c0.035-0.019,0.063-0.034,0.086-0.05s0.043-0.021,0.059-0.021
		c0.021,0,0.039,0.008,0.051,0.024l0.074,0.095c-0.033,0.039-0.072,0.073-0.115,0.103c-0.047,0.028-0.094,0.052-0.146,0.069
		c-0.052,0.021-0.104,0.033-0.157,0.043c-0.056,0.01-0.109,0.014-0.164,0.014c-0.102,0-0.194-0.018-0.281-0.053
		c-0.086-0.035-0.161-0.084-0.225-0.15c-0.063-0.066-0.111-0.148-0.146-0.248c-0.034-0.098-0.053-0.212-0.053-0.339
		c0-0.104,0.017-0.2,0.049-0.29c0.031-0.089,0.076-0.168,0.136-0.232s0.132-0.117,0.218-0.154
		C92.343,58.277,92.439,58.259,92.546,58.259 M92.552,58.45c-0.125,0-0.224,0.036-0.297,0.108c-0.071,0.072-0.116,0.174-0.134,0.301
		h0.806c0-0.06-0.009-0.113-0.024-0.164c-0.018-0.051-0.041-0.094-0.073-0.131c-0.031-0.037-0.071-0.063-0.117-0.084
		C92.664,58.46,92.611,58.45,92.552,58.45"/>
	<path fill="#FFFFFC" d="M94.503,58.546c-0.009,0.011-0.017,0.019-0.024,0.024c-0.006,0.005-0.019,0.009-0.033,0.009
		c-0.014,0-0.029-0.007-0.047-0.019c-0.019-0.013-0.039-0.025-0.064-0.039c-0.027-0.017-0.059-0.029-0.098-0.041
		c-0.036-0.013-0.082-0.02-0.137-0.02c-0.072,0-0.137,0.014-0.191,0.04c-0.055,0.024-0.104,0.063-0.141,0.11
		c-0.037,0.049-0.064,0.107-0.084,0.177s-0.029,0.147-0.029,0.233c0,0.088,0.012,0.168,0.031,0.237
		c0.021,0.069,0.049,0.13,0.086,0.175c0.037,0.049,0.084,0.084,0.136,0.109c0.054,0.025,0.112,0.037,0.18,0.037
		c0.063,0,0.115-0.008,0.156-0.021c0.041-0.017,0.073-0.033,0.103-0.052c0.026-0.021,0.049-0.034,0.066-0.051
		c0.02-0.015,0.035-0.022,0.053-0.022c0.021,0,0.039,0.01,0.051,0.025l0.072,0.096c-0.064,0.077-0.146,0.137-0.24,0.172
		c-0.098,0.037-0.199,0.056-0.307,0.056c-0.093,0-0.18-0.017-0.258-0.052c-0.08-0.033-0.147-0.084-0.207-0.147
		c-0.059-0.065-0.104-0.146-0.139-0.239c-0.033-0.094-0.051-0.201-0.051-0.322c0-0.109,0.016-0.211,0.047-0.306
		c0.03-0.094,0.075-0.174,0.135-0.241c0.059-0.067,0.131-0.121,0.219-0.16c0.086-0.037,0.186-0.057,0.299-0.057
		c0.104,0,0.193,0.018,0.273,0.051c0.08,0.035,0.15,0.082,0.211,0.143L94.503,58.546z"/>
	<path fill="#FFFFFC" d="M94.857,59.764v-2.154h0.26v0.871c0.063-0.066,0.134-0.121,0.211-0.162
		c0.076-0.039,0.165-0.061,0.266-0.061c0.081,0,0.152,0.014,0.215,0.041c0.062,0.026,0.112,0.064,0.153,0.114
		c0.041,0.048,0.073,0.106,0.095,0.177c0.022,0.07,0.032,0.146,0.032,0.229v0.943h-0.261V58.82c0-0.111-0.023-0.199-0.076-0.262
		c-0.051-0.062-0.129-0.093-0.234-0.093c-0.076,0-0.147,0.019-0.216,0.056c-0.065,0.037-0.128,0.088-0.185,0.15v1.09h-0.26V59.764z"
		/>
	<path fill="#FFFFFC" d="M96.482,59.764v-1.48h0.154c0.036,0,0.061,0.02,0.069,0.055l0.021,0.161
		c0.064-0.071,0.138-0.129,0.217-0.174c0.078-0.043,0.171-0.065,0.274-0.065c0.081,0,0.152,0.014,0.214,0.041
		c0.063,0.026,0.114,0.064,0.155,0.114c0.041,0.048,0.073,0.106,0.095,0.177c0.021,0.069,0.031,0.146,0.031,0.229v0.943h-0.26V58.82
		c0-0.111-0.025-0.199-0.077-0.262c-0.051-0.062-0.128-0.093-0.233-0.093c-0.076,0-0.148,0.019-0.217,0.056
		c-0.064,0.037-0.128,0.088-0.184,0.15v1.09h-0.26V59.764z"/>
	<path fill="#FFFFFC" d="M98.706,58.259c0.108,0,0.206,0.019,0.293,0.056c0.088,0.035,0.161,0.086,0.224,0.152
		c0.061,0.066,0.107,0.146,0.141,0.24c0.031,0.096,0.048,0.199,0.048,0.314c0,0.117-0.017,0.224-0.048,0.315
		c-0.032,0.093-0.08,0.173-0.141,0.239c-0.063,0.066-0.136,0.117-0.224,0.152c-0.087,0.035-0.185,0.053-0.293,0.053
		c-0.106,0-0.205-0.018-0.293-0.053c-0.086-0.035-0.16-0.086-0.224-0.152c-0.061-0.066-0.107-0.146-0.142-0.239
		s-0.05-0.198-0.05-0.315c0-0.115,0.018-0.221,0.05-0.314c0.033-0.094,0.081-0.174,0.142-0.24c0.063-0.066,0.138-0.117,0.224-0.152
		C98.501,58.277,98.6,58.259,98.706,58.259 M98.706,59.581c0.146,0,0.256-0.05,0.327-0.146c0.072-0.1,0.109-0.236,0.109-0.412
		s-0.037-0.313-0.109-0.412c-0.071-0.098-0.182-0.146-0.327-0.146c-0.073,0-0.138,0.014-0.192,0.038s-0.101,0.063-0.136,0.108
		c-0.038,0.049-0.063,0.107-0.082,0.177s-0.026,0.147-0.026,0.235s0.008,0.166,0.026,0.235c0.019,0.07,0.044,0.128,0.082,0.177
		c0.035,0.045,0.081,0.082,0.136,0.106C98.568,59.568,98.633,59.581,98.706,59.581"/>
	<rect x="99.762" y="57.609" fill="#FFFFFC" width="0.26" height="2.152"/>
	<path fill="#FFFFFC" d="M101.08,58.259c0.107,0,0.206,0.019,0.293,0.056c0.087,0.035,0.162,0.086,0.223,0.152
		c0.062,0.066,0.107,0.146,0.139,0.24c0.033,0.096,0.052,0.199,0.052,0.314c0,0.117-0.019,0.224-0.052,0.315
		c-0.03,0.093-0.077,0.173-0.139,0.239c-0.061,0.066-0.136,0.117-0.223,0.152s-0.186,0.053-0.293,0.053s-0.206-0.018-0.293-0.053
		s-0.162-0.086-0.223-0.152c-0.063-0.066-0.108-0.146-0.144-0.239c-0.032-0.093-0.05-0.198-0.05-0.315
		c0-0.115,0.018-0.221,0.05-0.314c0.034-0.094,0.08-0.174,0.144-0.24c0.061-0.066,0.136-0.117,0.223-0.152
		C100.874,58.277,100.973,58.259,101.08,58.259 M101.08,59.581c0.146,0,0.255-0.05,0.327-0.146c0.071-0.1,0.106-0.236,0.106-0.412
		s-0.035-0.313-0.106-0.412c-0.072-0.098-0.183-0.146-0.327-0.146c-0.074,0-0.139,0.014-0.193,0.038
		c-0.054,0.024-0.1,0.063-0.137,0.108c-0.036,0.049-0.063,0.107-0.082,0.177c-0.018,0.069-0.025,0.147-0.025,0.235
		s0.008,0.166,0.025,0.235c0.02,0.07,0.046,0.128,0.082,0.177c0.037,0.045,0.083,0.082,0.137,0.106
		C100.941,59.568,101.006,59.581,101.08,59.581"/>
	<path fill="#FFFFFC" d="M102.604,58.258c0.064,0,0.125,0.008,0.182,0.021c0.056,0.013,0.105,0.033,0.152,0.062h0.4v0.097
		c0,0.033-0.02,0.054-0.061,0.063l-0.168,0.023c0.031,0.063,0.049,0.133,0.049,0.211c0,0.072-0.014,0.138-0.042,0.197
		c-0.026,0.059-0.065,0.108-0.115,0.15c-0.049,0.041-0.106,0.072-0.176,0.098c-0.066,0.021-0.142,0.033-0.222,0.033
		c-0.069,0-0.137-0.009-0.196-0.025c-0.031,0.021-0.056,0.041-0.07,0.064c-0.017,0.023-0.024,0.046-0.024,0.066
		c0,0.037,0.016,0.064,0.043,0.084s0.064,0.031,0.111,0.041c0.049,0.007,0.102,0.012,0.16,0.012h0.184
		c0.061,0,0.121,0.005,0.181,0.016c0.061,0.012,0.112,0.029,0.159,0.055c0.048,0.023,0.084,0.058,0.113,0.102
		c0.027,0.044,0.041,0.1,0.041,0.169c0,0.063-0.016,0.126-0.047,0.187c-0.031,0.062-0.078,0.113-0.138,0.16
		s-0.132,0.084-0.218,0.112c-0.086,0.029-0.184,0.043-0.291,0.043s-0.202-0.011-0.283-0.032c-0.082-0.021-0.148-0.051-0.203-0.086
		c-0.055-0.037-0.093-0.078-0.119-0.125c-0.027-0.048-0.042-0.098-0.042-0.148c0-0.073,0.022-0.135,0.07-0.188
		c0.046-0.052,0.108-0.093,0.19-0.121c-0.043-0.021-0.074-0.047-0.101-0.078c-0.024-0.033-0.037-0.076-0.037-0.131
		c0-0.021,0.003-0.045,0.013-0.066c0.008-0.022,0.02-0.045,0.034-0.067c0.017-0.022,0.036-0.044,0.06-0.063
		c0.024-0.021,0.052-0.039,0.082-0.055c-0.072-0.041-0.131-0.096-0.172-0.162c-0.041-0.068-0.063-0.146-0.063-0.238
		c0-0.071,0.014-0.137,0.042-0.196c0.026-0.06,0.065-0.108,0.116-0.149c0.05-0.041,0.109-0.074,0.177-0.097
		C102.447,58.27,102.521,58.258,102.604,58.258 M103.064,59.838c0-0.037-0.01-0.068-0.029-0.091
		c-0.021-0.022-0.049-0.04-0.084-0.052c-0.033-0.014-0.075-0.022-0.12-0.029c-0.046-0.005-0.095-0.009-0.146-0.009h-0.154
		c-0.055,0-0.104-0.007-0.15-0.021c-0.057,0.027-0.102,0.059-0.135,0.098c-0.035,0.037-0.053,0.084-0.053,0.136
		c0,0.034,0.009,0.063,0.024,0.094c0.019,0.028,0.044,0.054,0.079,0.074c0.034,0.021,0.078,0.037,0.133,0.05
		c0.053,0.014,0.114,0.018,0.188,0.018c0.07,0,0.133-0.004,0.188-0.019s0.104-0.03,0.143-0.055c0.037-0.024,0.066-0.054,0.088-0.085
		C103.055,59.915,103.064,59.877,103.064,59.838 M102.604,59.039c0.053,0,0.1-0.007,0.141-0.021
		c0.039-0.014,0.072-0.035,0.102-0.062c0.027-0.024,0.047-0.058,0.063-0.095c0.013-0.036,0.021-0.076,0.021-0.12
		c0-0.091-0.029-0.163-0.084-0.218c-0.056-0.053-0.136-0.08-0.24-0.08s-0.184,0.027-0.238,0.08
		c-0.055,0.055-0.082,0.127-0.082,0.218c0,0.044,0.006,0.084,0.021,0.12c0.014,0.037,0.034,0.068,0.062,0.095
		c0.028,0.026,0.062,0.048,0.103,0.062C102.507,59.032,102.553,59.039,102.604,59.039"/>
	<path fill="#FFFFFC" d="M103.945,57.816c0,0.025-0.004,0.051-0.014,0.072c-0.011,0.021-0.024,0.041-0.041,0.059
		c-0.019,0.017-0.037,0.031-0.06,0.039c-0.022,0.012-0.046,0.016-0.071,0.016s-0.05-0.004-0.07-0.016
		c-0.021-0.008-0.041-0.022-0.06-0.039c-0.017-0.018-0.03-0.037-0.04-0.059c-0.011-0.021-0.015-0.047-0.015-0.072
		c0-0.024,0.004-0.049,0.015-0.07c0.01-0.023,0.023-0.043,0.04-0.063c0.019-0.016,0.037-0.029,0.06-0.039
		c0.021-0.011,0.045-0.015,0.07-0.015s0.049,0.004,0.071,0.015c0.021,0.01,0.041,0.023,0.06,0.039
		c0.017,0.02,0.03,0.039,0.041,0.063C103.941,57.77,103.945,57.792,103.945,57.816 M103.891,59.764h-0.262v-1.48h0.262V59.764z"/>
	<path fill="#FFFFFC" d="M105.357,58.546c-0.01,0.011-0.017,0.019-0.022,0.024c-0.009,0.006-0.021,0.009-0.034,0.009
		s-0.029-0.007-0.048-0.019c-0.017-0.013-0.039-0.025-0.063-0.039c-0.027-0.017-0.061-0.029-0.098-0.041
		c-0.037-0.013-0.083-0.02-0.138-0.02c-0.071,0-0.136,0.014-0.19,0.04c-0.056,0.024-0.103,0.063-0.14,0.11
		c-0.038,0.049-0.065,0.107-0.085,0.177s-0.029,0.147-0.029,0.233c0,0.088,0.012,0.168,0.031,0.237s0.049,0.13,0.086,0.175
		c0.037,0.049,0.083,0.084,0.135,0.109c0.053,0.025,0.113,0.037,0.18,0.037c0.063,0,0.115-0.008,0.156-0.021
		c0.041-0.017,0.074-0.033,0.104-0.052c0.027-0.021,0.049-0.034,0.066-0.051c0.019-0.015,0.035-0.022,0.053-0.022
		c0.021,0,0.039,0.01,0.05,0.025l0.073,0.096c-0.064,0.077-0.146,0.137-0.241,0.172c-0.097,0.037-0.198,0.056-0.306,0.056
		c-0.092,0-0.18-0.017-0.258-0.052c-0.08-0.033-0.148-0.084-0.207-0.147c-0.059-0.065-0.104-0.146-0.139-0.239
		s-0.05-0.201-0.05-0.322c0-0.109,0.015-0.211,0.046-0.306c0.029-0.094,0.074-0.174,0.135-0.241c0.059-0.067,0.131-0.121,0.219-0.16
		c0.086-0.037,0.186-0.057,0.299-0.057c0.104,0,0.193,0.018,0.272,0.051c0.081,0.035,0.151,0.082,0.212,0.143L105.357,58.546z"/>
	<path fill="#FFFFFC" d="M106.746,58.395c0,0.019-0.004,0.035-0.012,0.053c-0.006,0.018-0.016,0.033-0.024,0.046l-0.802,1.067h0.809
		v0.203h-1.115v-0.109c0-0.012,0.004-0.026,0.01-0.043c0.007-0.019,0.016-0.033,0.027-0.051l0.805-1.072h-0.795v-0.205h1.099
		L106.746,58.395L106.746,58.395z"/>
	<path fill="#FFFFFC" d="M107.063,59.764v-1.48h0.154c0.038,0,0.061,0.02,0.069,0.055l0.021,0.161
		c0.064-0.071,0.137-0.129,0.217-0.174c0.078-0.043,0.17-0.065,0.275-0.065c0.08,0,0.151,0.014,0.213,0.041
		c0.063,0.026,0.113,0.064,0.154,0.114c0.041,0.048,0.073,0.106,0.096,0.177c0.021,0.07,0.031,0.146,0.031,0.229v0.943h-0.261V58.82
		c0-0.111-0.024-0.199-0.076-0.262c-0.052-0.062-0.129-0.093-0.233-0.093c-0.078,0-0.148,0.019-0.217,0.056
		c-0.066,0.037-0.128,0.088-0.186,0.15v1.09h-0.258V59.764z"/>
	<path fill="#FFFFFC" d="M109.076,60.2c-0.01,0.021-0.021,0.034-0.034,0.047c-0.013,0.012-0.033,0.019-0.062,0.019h-0.191
		l0.271-0.588l-0.61-1.396h0.225c0.021,0,0.039,0.006,0.052,0.018c0.014,0.011,0.022,0.022,0.028,0.037l0.396,0.933
		c0.009,0.021,0.017,0.043,0.022,0.063c0.007,0.021,0.013,0.044,0.019,0.065c0.004-0.021,0.013-0.045,0.02-0.065
		s0.016-0.044,0.023-0.065l0.384-0.931c0.007-0.017,0.017-0.028,0.03-0.039c0.015-0.011,0.028-0.016,0.047-0.016h0.207L109.076,60.2
		z"/>
	<path fill="#FFFFFC" d="M72.044,63.371c0.089,0,0.165-0.008,0.231-0.023c0.065-0.017,0.129-0.039,0.188-0.066v-0.385h-0.265
		c-0.024,0-0.044-0.006-0.06-0.021s-0.021-0.032-0.021-0.052V62.6h0.703v0.856c-0.055,0.039-0.109,0.073-0.168,0.103
		c-0.057,0.027-0.119,0.051-0.187,0.069c-0.065,0.019-0.136,0.032-0.211,0.042s-0.155,0.014-0.243,0.014
		c-0.152,0-0.295-0.025-0.425-0.08c-0.129-0.054-0.241-0.127-0.336-0.225c-0.095-0.095-0.168-0.209-0.222-0.341
		c-0.053-0.134-0.079-0.276-0.079-0.435c0-0.16,0.024-0.306,0.077-0.438c0.052-0.135,0.125-0.247,0.22-0.344
		c0.095-0.094,0.211-0.168,0.346-0.221c0.136-0.054,0.288-0.08,0.457-0.08c0.173,0,0.321,0.026,0.447,0.076
		c0.126,0.053,0.233,0.119,0.319,0.2l-0.113,0.179c-0.021,0.035-0.053,0.055-0.089,0.055c-0.023,0-0.048-0.008-0.072-0.023
		c-0.03-0.018-0.063-0.037-0.094-0.056c-0.033-0.019-0.07-0.034-0.109-0.048s-0.084-0.025-0.132-0.034
		c-0.051-0.009-0.105-0.013-0.171-0.013c-0.104,0-0.199,0.018-0.283,0.052c-0.084,0.036-0.155,0.086-0.216,0.151
		c-0.061,0.064-0.105,0.144-0.137,0.233c-0.032,0.093-0.049,0.194-0.049,0.308c0,0.121,0.018,0.23,0.051,0.326
		c0.033,0.094,0.082,0.174,0.144,0.239c0.063,0.065,0.136,0.115,0.22,0.149C71.852,63.354,71.943,63.371,72.044,63.371"/>
	<path fill="#FFFFFC" d="M75.646,62.604c0,0.155-0.024,0.299-0.076,0.428c-0.053,0.13-0.125,0.24-0.219,0.334
		s-0.205,0.166-0.336,0.219c-0.133,0.053-0.279,0.077-0.438,0.077H73.77v-2.113h0.808c0.159,0,0.306,0.024,0.438,0.077
		c0.131,0.053,0.242,0.126,0.336,0.219c0.094,0.094,0.166,0.204,0.219,0.334C75.622,62.309,75.646,62.447,75.646,62.604
		 M75.246,62.604c0-0.115-0.016-0.22-0.047-0.313c-0.031-0.091-0.076-0.17-0.133-0.232c-0.059-0.063-0.127-0.113-0.209-0.147
		c-0.084-0.034-0.178-0.05-0.279-0.05h-0.411v1.486h0.411c0.104,0,0.195-0.017,0.279-0.051c0.082-0.033,0.15-0.084,0.209-0.146
		c0.057-0.063,0.102-0.143,0.133-0.233C75.23,62.822,75.246,62.721,75.246,62.604"/>
	<path fill="#FFFFFC" d="M77.363,62.84v0.82h-0.393v-0.82L76.2,61.547h0.347c0.034,0,0.063,0.008,0.081,0.025
		c0.021,0.017,0.037,0.037,0.05,0.063l0.389,0.706c0.022,0.041,0.041,0.081,0.059,0.119c0.018,0.037,0.031,0.074,0.045,0.108
		c0.014-0.035,0.027-0.072,0.044-0.109c0.017-0.038,0.035-0.078,0.058-0.118l0.386-0.706c0.011-0.021,0.026-0.041,0.048-0.061
		c0.021-0.018,0.048-0.027,0.081-0.027h0.348L77.363,62.84z"/>
	<path fill="#FFFFFC" d="M79.172,61.55c0.012,0.001,0.021,0.003,0.031,0.009c0.009,0.004,0.02,0.012,0.025,0.019
		c0.01,0.009,0.021,0.021,0.03,0.034l1.109,1.412c-0.004-0.035-0.009-0.067-0.009-0.1c-0.002-0.033-0.002-0.063-0.002-0.093v-1.284
		h0.347v2.113H80.5c-0.029,0-0.059-0.004-0.077-0.016c-0.021-0.01-0.041-0.026-0.06-0.051l-1.104-1.408
		c0.002,0.03,0.005,0.063,0.007,0.092c0.002,0.031,0.002,0.06,0.002,0.084v1.299h-0.347v-2.113h0.205
		C79.145,61.547,79.159,61.548,79.172,61.55"/>
	<rect x="81.764" y="61.547" fill="#FFFFFC" width="0.396" height="2.113"/>
	<path fill="#FFFFFC" d="M85.076,63.66h-0.305c-0.035,0-0.063-0.01-0.084-0.025c-0.021-0.018-0.039-0.037-0.047-0.063l-0.158-0.432
		h-0.875l-0.158,0.432c-0.008,0.021-0.023,0.043-0.047,0.062c-0.022,0.019-0.051,0.027-0.084,0.027h-0.305l0.829-2.113h0.402
		L85.076,63.66z M83.708,62.861h0.674l-0.258-0.703c-0.013-0.03-0.024-0.067-0.038-0.109c-0.016-0.042-0.027-0.089-0.042-0.139
		c-0.015,0.05-0.026,0.097-0.04,0.14s-0.025,0.08-0.039,0.112L83.708,62.861z"/>
</g>
<g>
	<path fill="#FFFFFF" d="M73.784,36.746h-1.08v3.134h-0.892v-3.134h-1.08v-0.707h3.052V36.746z"/>
	<path fill="#FFFFFF" d="M78.639,36.039v3.84h-0.896v-1.624h-1.561v1.624h-0.896v-3.84h0.896v1.605h1.561v-1.605H78.639z"/>
	<path fill="#FFFFFF" d="M81.33,36.725v0.896h1.207v0.659H81.33v0.915h1.576v0.685h-2.473v-3.84h2.473v0.686L81.33,36.725
		L81.33,36.725z"/>
</g>
<g>
	<path fill="#FFFFFF" d="M72.438,41.311c0.267,0,0.492,0.025,0.679,0.074c0.187,0.049,0.338,0.119,0.456,0.208
		c0.117,0.089,0.203,0.198,0.257,0.327s0.08,0.271,0.08,0.43c0,0.086-0.013,0.169-0.037,0.249s-0.063,0.155-0.115,0.224
		c-0.052,0.069-0.12,0.133-0.202,0.191c-0.084,0.058-0.183,0.108-0.299,0.15c0.253,0.062,0.439,0.161,0.563,0.298
		C73.939,43.599,74,43.776,74,43.994c0,0.164-0.031,0.315-0.096,0.456c-0.063,0.141-0.155,0.263-0.277,0.368
		s-0.271,0.187-0.452,0.245c-0.179,0.059-0.384,0.088-0.614,0.088h-1.533v-3.84H72.438z M71.916,41.978v0.949h0.464
		c0.099,0,0.187-0.007,0.267-0.021c0.078-0.014,0.146-0.039,0.201-0.074c0.057-0.035,0.098-0.083,0.127-0.145
		c0.028-0.062,0.043-0.139,0.043-0.232c0-0.091-0.012-0.167-0.033-0.228c-0.023-0.061-0.059-0.109-0.105-0.146
		c-0.048-0.037-0.107-0.063-0.181-0.079s-0.159-0.023-0.261-0.023L71.916,41.978L71.916,41.978z M72.543,44.479
		c0.118,0,0.214-0.015,0.289-0.045c0.074-0.03,0.133-0.069,0.175-0.116s0.071-0.101,0.087-0.161c0.016-0.06,0.024-0.12,0.024-0.182
		c0-0.07-0.011-0.134-0.028-0.19c-0.018-0.056-0.05-0.104-0.095-0.143s-0.104-0.068-0.179-0.089
		c-0.073-0.021-0.166-0.032-0.278-0.032h-0.622v0.957L72.543,44.479L72.543,44.479z"/>
	<path fill="#FFFFFF" d="M77.729,42.091c-0.025,0.042-0.054,0.074-0.082,0.095s-0.066,0.032-0.111,0.032
		c-0.041,0-0.084-0.013-0.131-0.038c-0.047-0.025-0.1-0.054-0.158-0.086c-0.059-0.031-0.126-0.06-0.201-0.085
		c-0.076-0.025-0.162-0.038-0.259-0.038c-0.167,0-0.291,0.036-0.373,0.106c-0.082,0.071-0.122,0.167-0.122,0.289
		c0,0.078,0.023,0.142,0.073,0.192c0.05,0.051,0.114,0.095,0.194,0.132c0.078,0.037,0.17,0.071,0.272,0.102s0.208,0.065,0.315,0.103
		c0.105,0.038,0.211,0.082,0.313,0.133c0.104,0.051,0.194,0.116,0.274,0.195s0.145,0.175,0.192,0.289
		c0.05,0.113,0.074,0.25,0.074,0.41c0,0.178-0.03,0.344-0.093,0.498c-0.063,0.155-0.15,0.29-0.268,0.405
		c-0.117,0.115-0.262,0.206-0.433,0.271c-0.172,0.066-0.366,0.099-0.584,0.099c-0.119,0-0.241-0.012-0.365-0.037
		c-0.124-0.025-0.243-0.06-0.358-0.104c-0.116-0.045-0.226-0.098-0.327-0.16c-0.103-0.062-0.19-0.13-0.267-0.206l0.264-0.417
		c0.021-0.03,0.049-0.055,0.082-0.075c0.035-0.02,0.072-0.03,0.113-0.03c0.053,0,0.105,0.017,0.158,0.05
		c0.055,0.033,0.114,0.07,0.184,0.11c0.066,0.041,0.146,0.078,0.232,0.111c0.088,0.034,0.191,0.05,0.311,0.05
		c0.162,0,0.287-0.036,0.377-0.107c0.091-0.071,0.136-0.184,0.136-0.339c0-0.089-0.024-0.162-0.074-0.219
		c-0.049-0.056-0.112-0.103-0.192-0.14s-0.172-0.069-0.273-0.097s-0.206-0.06-0.313-0.094c-0.107-0.034-0.213-0.077-0.313-0.126
		c-0.103-0.05-0.192-0.116-0.272-0.198s-0.145-0.184-0.193-0.306s-0.073-0.273-0.073-0.452c0-0.144,0.028-0.285,0.087-0.422
		c0.059-0.137,0.143-0.259,0.256-0.366c0.112-0.107,0.25-0.193,0.413-0.257c0.164-0.064,0.351-0.096,0.562-0.096
		c0.119,0,0.232,0.009,0.345,0.027c0.112,0.019,0.218,0.046,0.317,0.082c0.101,0.036,0.193,0.079,0.28,0.129
		c0.087,0.05,0.165,0.107,0.233,0.17L77.729,42.091z"/>
	<path fill="#FFFFFF" d="M81.704,42.091c-0.026,0.042-0.054,0.074-0.083,0.095c-0.028,0.021-0.066,0.032-0.111,0.032
		c-0.041,0-0.084-0.013-0.131-0.038c-0.047-0.025-0.1-0.054-0.158-0.086c-0.059-0.031-0.125-0.06-0.201-0.085
		c-0.076-0.025-0.162-0.038-0.258-0.038c-0.168,0-0.291,0.036-0.373,0.106c-0.082,0.071-0.123,0.167-0.123,0.289
		c0,0.078,0.024,0.142,0.073,0.192c0.05,0.051,0.114,0.095,0.194,0.132c0.078,0.037,0.171,0.071,0.273,0.102
		c0.102,0.031,0.207,0.065,0.314,0.103c0.105,0.038,0.212,0.082,0.314,0.133c0.104,0.051,0.193,0.116,0.273,0.195
		s0.145,0.175,0.193,0.289c0.05,0.113,0.074,0.25,0.074,0.41c0,0.178-0.031,0.344-0.094,0.498c-0.063,0.155-0.15,0.29-0.267,0.405
		c-0.117,0.115-0.263,0.206-0.433,0.271c-0.172,0.066-0.367,0.099-0.584,0.099c-0.119,0-0.242-0.012-0.365-0.037
		c-0.125-0.025-0.243-0.06-0.359-0.104c-0.116-0.045-0.225-0.098-0.327-0.16s-0.19-0.13-0.266-0.206l0.263-0.417
		c0.021-0.03,0.049-0.055,0.083-0.075c0.035-0.02,0.072-0.03,0.112-0.03c0.053,0,0.105,0.017,0.158,0.05
		c0.055,0.033,0.115,0.07,0.184,0.11c0.066,0.041,0.146,0.078,0.232,0.111c0.088,0.034,0.191,0.05,0.312,0.05
		c0.162,0,0.287-0.036,0.377-0.107c0.09-0.071,0.136-0.184,0.136-0.339c0-0.089-0.025-0.162-0.074-0.219
		c-0.049-0.056-0.113-0.103-0.193-0.14s-0.171-0.069-0.273-0.097c-0.102-0.028-0.205-0.06-0.313-0.094
		c-0.107-0.034-0.212-0.077-0.313-0.126c-0.103-0.05-0.193-0.116-0.272-0.198c-0.08-0.082-0.146-0.184-0.194-0.306
		s-0.072-0.273-0.072-0.452c0-0.144,0.027-0.285,0.086-0.422c0.059-0.137,0.144-0.259,0.256-0.366
		c0.113-0.107,0.25-0.193,0.414-0.257c0.164-0.064,0.351-0.096,0.562-0.096c0.118,0,0.231,0.009,0.345,0.027
		c0.111,0.019,0.217,0.046,0.317,0.082s0.192,0.079,0.28,0.129c0.086,0.05,0.164,0.107,0.232,0.17L81.704,42.091z"/>
	<path fill="#FFFFFF" d="M86.727,41.996v0.972h1.313v0.688h-1.313v1.495H85.83v-3.84h2.472v0.686L86.727,41.996L86.727,41.996z"/>
	<path fill="#FFFFFF" d="M93.639,43.229c0,0.278-0.048,0.536-0.144,0.775c-0.097,0.239-0.229,0.447-0.404,0.624
		c-0.174,0.176-0.384,0.315-0.629,0.415s-0.517,0.15-0.815,0.15c-0.297,0-0.57-0.05-0.816-0.15s-0.456-0.239-0.631-0.415
		c-0.176-0.177-0.311-0.385-0.406-0.624c-0.095-0.239-0.145-0.497-0.145-0.775s0.049-0.536,0.145-0.775
		c0.096-0.239,0.23-0.446,0.406-0.622c0.175-0.176,0.385-0.313,0.631-0.414c0.246-0.1,0.52-0.15,0.816-0.15
		c0.299,0,0.57,0.05,0.815,0.151s0.455,0.24,0.629,0.415c0.175,0.176,0.31,0.383,0.404,0.622
		C93.591,42.696,93.639,42.954,93.639,43.229z M92.727,43.229c0-0.19-0.023-0.361-0.072-0.513c-0.051-0.152-0.12-0.281-0.213-0.386
		c-0.092-0.105-0.205-0.186-0.338-0.242c-0.135-0.057-0.287-0.084-0.457-0.084c-0.172,0-0.326,0.028-0.459,0.084
		c-0.136,0.056-0.248,0.137-0.34,0.242c-0.094,0.105-0.164,0.234-0.214,0.386c-0.049,0.152-0.073,0.323-0.073,0.513
		c0,0.191,0.024,0.363,0.073,0.515c0.05,0.152,0.12,0.281,0.214,0.386c0.092,0.105,0.204,0.186,0.34,0.241
		c0.133,0.055,0.287,0.083,0.459,0.083c0.17,0,0.322-0.028,0.457-0.083c0.133-0.055,0.246-0.136,0.338-0.241
		c0.093-0.105,0.162-0.234,0.213-0.386C92.702,43.593,92.727,43.421,92.727,43.229z"/>
	<path fill="#FFFFFF" d="M98.359,45.151h-0.807c-0.148,0-0.257-0.056-0.32-0.168l-0.64-1.115c-0.028-0.047-0.063-0.082-0.1-0.104
		c-0.037-0.022-0.091-0.033-0.158-0.033h-0.228v1.421h-0.891v-3.84h1.249c0.277,0,0.515,0.029,0.71,0.086
		c0.196,0.057,0.356,0.136,0.479,0.238c0.125,0.102,0.216,0.222,0.271,0.361c0.057,0.139,0.084,0.29,0.084,0.453
		c0,0.125-0.017,0.243-0.05,0.353c-0.033,0.111-0.082,0.213-0.147,0.307c-0.064,0.094-0.146,0.178-0.24,0.252
		c-0.096,0.074-0.206,0.134-0.331,0.182c0.059,0.03,0.112,0.067,0.163,0.112c0.052,0.044,0.098,0.098,0.138,0.159L98.359,45.151z
		 M96.468,43.116c0.121,0,0.226-0.016,0.31-0.046c0.086-0.03,0.156-0.073,0.211-0.127c0.054-0.055,0.094-0.118,0.117-0.191
		c0.024-0.073,0.037-0.151,0.037-0.236c0-0.168-0.055-0.3-0.164-0.396c-0.109-0.095-0.279-0.142-0.511-0.142h-0.358v1.139
		L96.468,43.116L96.468,43.116z"/>
	<path fill="#FFFFFF" d="M101.184,44.447c0.118,0,0.226-0.02,0.318-0.06c0.096-0.04,0.174-0.096,0.239-0.17
		c0.063-0.074,0.114-0.164,0.147-0.27c0.034-0.106,0.053-0.227,0.053-0.362V41.31h0.891v2.275c0,0.235-0.038,0.452-0.114,0.648
		c-0.077,0.197-0.187,0.366-0.327,0.508c-0.144,0.143-0.315,0.253-0.521,0.332c-0.204,0.079-0.435,0.119-0.688,0.119
		c-0.257,0-0.486-0.04-0.69-0.119c-0.203-0.079-0.378-0.189-0.519-0.332c-0.144-0.142-0.252-0.312-0.328-0.508
		c-0.074-0.196-0.112-0.413-0.112-0.648V41.31h0.891v2.272c0,0.135,0.019,0.256,0.052,0.362c0.034,0.106,0.084,0.197,0.148,0.271
		c0.064,0.075,0.145,0.132,0.238,0.171C100.956,44.427,101.063,44.447,101.184,44.447z"/>
	<path fill="#FFFFFF" d="M108.895,41.311v3.84h-0.785v-2.208c0-0.051,0.002-0.106,0.004-0.167c0.004-0.06,0.009-0.12,0.016-0.182
		l-1.02,1.974c-0.032,0.062-0.074,0.108-0.129,0.14c-0.054,0.032-0.114,0.047-0.184,0.047h-0.121c-0.068,0-0.13-0.016-0.184-0.047
		c-0.055-0.031-0.096-0.078-0.129-0.14l-1.02-1.979c0.006,0.063,0.01,0.125,0.014,0.186s0.006,0.116,0.006,0.167v2.208h-0.785v-3.84
		h0.68c0.038,0,0.072,0.001,0.102,0.003c0.029,0.001,0.056,0.007,0.078,0.016c0.022,0.009,0.043,0.022,0.063,0.041
		c0.02,0.018,0.036,0.044,0.055,0.078l0.987,1.948c0.035,0.067,0.069,0.136,0.103,0.208c0.031,0.072,0.063,0.146,0.094,0.222
		c0.029-0.077,0.062-0.153,0.094-0.227c0.031-0.074,0.066-0.144,0.104-0.211l0.986-1.94c0.018-0.033,0.035-0.06,0.055-0.078
		c0.019-0.019,0.039-0.032,0.063-0.041c0.021-0.009,0.049-0.014,0.077-0.016s0.063-0.003,0.102-0.003L108.895,41.311L108.895,41.311
		z"/>
</g>
<g>
	<path fill="#31BBAB" d="M73.301,50.049c0.092,0,0.162,0.025,0.215,0.075s0.078,0.115,0.078,0.197v0.488h-2.777v-0.271
		c0-0.052,0.012-0.108,0.033-0.168c0.021-0.06,0.06-0.114,0.113-0.163l1.139-1.147c0.099-0.098,0.184-0.191,0.256-0.279
		c0.072-0.089,0.133-0.176,0.18-0.262c0.047-0.085,0.082-0.171,0.105-0.257c0.022-0.086,0.034-0.177,0.034-0.273
		c0-0.157-0.036-0.278-0.112-0.362c-0.074-0.084-0.188-0.126-0.342-0.126c-0.125,0-0.23,0.033-0.316,0.099s-0.146,0.148-0.178,0.246
		c-0.039,0.1-0.088,0.166-0.149,0.198c-0.062,0.033-0.149,0.04-0.263,0.022l-0.445-0.079c0.029-0.197,0.085-0.369,0.167-0.516
		s0.185-0.269,0.308-0.366c0.121-0.097,0.262-0.17,0.418-0.218c0.157-0.048,0.326-0.072,0.508-0.072
		c0.195,0,0.371,0.028,0.527,0.085c0.156,0.057,0.29,0.136,0.399,0.237c0.11,0.101,0.194,0.222,0.254,0.362
		c0.059,0.14,0.088,0.294,0.088,0.462c0,0.145-0.021,0.278-0.062,0.401s-0.097,0.24-0.166,0.351
		c-0.07,0.111-0.152,0.219-0.246,0.323s-0.191,0.209-0.297,0.316l-0.772,0.792c0.101-0.031,0.198-0.054,0.296-0.071
		c0.098-0.016,0.188-0.024,0.271-0.024H73.301z"/>
	<path fill="#31BBAB" d="M76.089,48.248c0.074-0.015,0.146-0.024,0.216-0.03c0.067-0.006,0.135-0.008,0.199-0.008
		c0.208,0,0.393,0.032,0.551,0.095c0.159,0.063,0.293,0.15,0.401,0.259s0.19,0.238,0.246,0.385c0.055,0.147,0.082,0.305,0.082,0.473
		c0,0.212-0.037,0.405-0.112,0.579c-0.074,0.175-0.18,0.325-0.313,0.452c-0.135,0.127-0.293,0.225-0.479,0.294
		s-0.389,0.104-0.608,0.104c-0.129,0-0.252-0.015-0.367-0.041c-0.116-0.027-0.227-0.064-0.328-0.11
		c-0.104-0.046-0.196-0.101-0.283-0.16c-0.087-0.06-0.166-0.125-0.236-0.194L75.316,50c0.025-0.036,0.059-0.063,0.095-0.083
		s0.075-0.028,0.116-0.028c0.055,0,0.104,0.015,0.152,0.044c0.049,0.029,0.102,0.063,0.157,0.098c0.058,0.036,0.124,0.067,0.2,0.097
		c0.074,0.029,0.17,0.043,0.281,0.043s0.207-0.018,0.287-0.055c0.08-0.037,0.145-0.088,0.193-0.152
		c0.051-0.064,0.086-0.139,0.109-0.225c0.021-0.085,0.033-0.177,0.033-0.275c0-0.192-0.055-0.338-0.162-0.438
		c-0.108-0.1-0.264-0.15-0.463-0.15c-0.176,0-0.351,0.034-0.521,0.101l-0.521-0.141l0.336-1.978h2.022v0.347
		c0,0.058-0.009,0.11-0.026,0.157c-0.019,0.047-0.047,0.088-0.086,0.124c-0.039,0.036-0.09,0.063-0.152,0.082
		s-0.139,0.028-0.229,0.028H76.2L76.089,48.248z"/>
	<path fill="#31BBAB" d="M79.287,50.383c0-0.065,0.012-0.126,0.036-0.182c0.024-0.056,0.059-0.105,0.101-0.146
		c0.043-0.042,0.094-0.075,0.15-0.099c0.059-0.024,0.121-0.037,0.189-0.037c0.066,0,0.129,0.012,0.188,0.037
		c0.058,0.024,0.108,0.057,0.151,0.099s0.076,0.09,0.102,0.146c0.023,0.056,0.037,0.116,0.037,0.182
		c0,0.065-0.014,0.126-0.037,0.184c-0.023,0.057-0.059,0.105-0.102,0.147s-0.095,0.074-0.151,0.099
		c-0.06,0.022-0.121,0.035-0.188,0.035c-0.068,0-0.132-0.013-0.189-0.035c-0.059-0.024-0.107-0.057-0.15-0.099
		c-0.042-0.042-0.076-0.091-0.101-0.147C79.299,50.509,79.287,50.448,79.287,50.383z"/>
	<path fill="#31BBAB" d="M84.531,48.831c0,0.346-0.037,0.645-0.111,0.898s-0.177,0.463-0.309,0.629
		c-0.131,0.166-0.286,0.291-0.467,0.373c-0.18,0.082-0.375,0.121-0.584,0.121s-0.403-0.041-0.582-0.121
		c-0.179-0.082-0.332-0.205-0.463-0.373c-0.13-0.167-0.23-0.376-0.305-0.629s-0.109-0.552-0.109-0.898
		c0-0.345,0.037-0.645,0.109-0.898c0.073-0.253,0.175-0.463,0.305-0.629c0.131-0.166,0.284-0.29,0.463-0.37
		c0.179-0.081,0.373-0.121,0.582-0.121s0.404,0.04,0.584,0.121c0.181,0.081,0.336,0.204,0.467,0.37
		c0.132,0.167,0.234,0.376,0.309,0.629C84.494,48.187,84.531,48.486,84.531,48.831z M83.663,48.831c0-0.273-0.017-0.497-0.052-0.671
		c-0.034-0.174-0.08-0.312-0.137-0.411c-0.058-0.099-0.121-0.167-0.193-0.205c-0.073-0.037-0.146-0.056-0.221-0.056
		s-0.146,0.019-0.219,0.056s-0.135,0.105-0.189,0.205s-0.1,0.237-0.133,0.411c-0.033,0.175-0.051,0.398-0.051,0.671
		c0,0.275,0.018,0.499,0.051,0.673c0.033,0.173,0.078,0.311,0.133,0.411c0.056,0.101,0.119,0.169,0.189,0.207
		c0.071,0.038,0.145,0.056,0.219,0.056c0.073,0,0.146-0.019,0.221-0.056c0.072-0.037,0.137-0.106,0.193-0.207
		c0.057-0.1,0.103-0.237,0.137-0.411C83.646,49.33,83.663,49.106,83.663,48.831z"/>
	<path fill="#31BBAB" d="M88.575,50.201v0.607h-2.251v-0.607h0.76v-1.994c0-0.05,0.001-0.102,0.002-0.153
		c0.002-0.051,0.005-0.103,0.01-0.156l-0.451,0.375c-0.039,0.031-0.078,0.049-0.117,0.056c-0.039,0.007-0.076,0.006-0.11,0
		c-0.034-0.006-0.063-0.018-0.092-0.036c-0.027-0.017-0.048-0.035-0.06-0.053l-0.267-0.353l1.231-1.034h0.693v3.348H88.575z"/>
	<path fill="#31BBAB" d="M90.127,50.383c0-0.065,0.012-0.126,0.036-0.182c0.024-0.056,0.06-0.105,0.101-0.146
		c0.043-0.042,0.094-0.075,0.15-0.099c0.059-0.024,0.121-0.037,0.189-0.037c0.066,0,0.129,0.012,0.188,0.037
		c0.058,0.024,0.108,0.057,0.151,0.099s0.076,0.09,0.102,0.146c0.023,0.056,0.037,0.116,0.037,0.182
		c0,0.065-0.014,0.126-0.037,0.184c-0.023,0.057-0.059,0.105-0.102,0.147s-0.094,0.074-0.151,0.099
		c-0.06,0.022-0.121,0.035-0.188,0.035c-0.068,0-0.131-0.013-0.189-0.035c-0.059-0.024-0.107-0.057-0.15-0.099
		c-0.041-0.042-0.076-0.091-0.101-0.147C90.139,50.509,90.127,50.448,90.127,50.383z"/>
	<path fill="#31BBAB" d="M94.984,50.049c0.092,0,0.162,0.025,0.215,0.075s0.078,0.115,0.078,0.197v0.488h-2.776v-0.271
		c0-0.052,0.011-0.108,0.032-0.168s0.06-0.114,0.113-0.163l1.14-1.147c0.098-0.098,0.183-0.191,0.255-0.279
		c0.072-0.089,0.133-0.176,0.18-0.262c0.047-0.085,0.082-0.171,0.105-0.257c0.023-0.086,0.035-0.177,0.035-0.273
		c0-0.157-0.037-0.278-0.112-0.362s-0.188-0.126-0.343-0.126c-0.125,0-0.23,0.033-0.316,0.099s-0.146,0.148-0.178,0.246
		c-0.038,0.1-0.088,0.166-0.148,0.198c-0.063,0.033-0.15,0.04-0.264,0.022l-0.445-0.079c0.029-0.197,0.086-0.369,0.168-0.516
		s0.185-0.269,0.307-0.366c0.121-0.097,0.262-0.17,0.419-0.218c0.157-0.048,0.325-0.072,0.508-0.072
		c0.194,0,0.371,0.028,0.526,0.085c0.156,0.057,0.291,0.136,0.399,0.237c0.11,0.101,0.195,0.222,0.254,0.362
		c0.06,0.14,0.089,0.294,0.089,0.462c0,0.145-0.021,0.278-0.062,0.401s-0.097,0.24-0.167,0.351c-0.07,0.111-0.152,0.219-0.245,0.323
		c-0.094,0.104-0.192,0.209-0.297,0.316l-0.772,0.792c0.1-0.031,0.197-0.054,0.295-0.071c0.099-0.016,0.188-0.024,0.271-0.024
		H94.984z"/>
	<path fill="#31BBAB" d="M99.607,48.831c0,0.346-0.037,0.645-0.111,0.898s-0.178,0.463-0.309,0.629
		c-0.131,0.166-0.287,0.291-0.467,0.373s-0.375,0.121-0.584,0.121c-0.21,0-0.404-0.041-0.582-0.121
		c-0.179-0.082-0.332-0.205-0.463-0.373c-0.13-0.167-0.23-0.376-0.305-0.629s-0.11-0.552-0.11-0.898c0-0.345,0.037-0.645,0.11-0.898
		c0.072-0.253,0.175-0.463,0.305-0.629c0.131-0.166,0.284-0.29,0.463-0.37c0.178-0.081,0.372-0.121,0.582-0.121
		c0.209,0,0.404,0.04,0.584,0.121s0.336,0.204,0.467,0.37c0.131,0.167,0.233,0.376,0.309,0.629
		C99.57,48.187,99.607,48.486,99.607,48.831z M98.739,48.831c0-0.273-0.017-0.497-0.052-0.671c-0.035-0.174-0.08-0.312-0.138-0.411
		c-0.057-0.099-0.12-0.167-0.192-0.205c-0.073-0.037-0.146-0.056-0.221-0.056s-0.146,0.019-0.219,0.056s-0.135,0.105-0.189,0.205
		c-0.056,0.1-0.1,0.237-0.134,0.411c-0.032,0.175-0.05,0.398-0.05,0.671c0,0.275,0.018,0.499,0.05,0.673
		c0.034,0.173,0.078,0.311,0.134,0.411c0.056,0.101,0.119,0.169,0.189,0.207s0.145,0.056,0.219,0.056
		c0.073,0,0.146-0.019,0.221-0.056c0.072-0.037,0.137-0.106,0.192-0.207c0.058-0.1,0.103-0.237,0.138-0.411
		C98.723,49.33,98.739,49.106,98.739,48.831z"/>
	<path fill="#31BBAB" d="M103.65,50.201v0.607h-2.25v-0.607h0.76v-1.994c0-0.05,0.001-0.102,0.002-0.153
		c0.002-0.051,0.005-0.103,0.009-0.156l-0.45,0.375c-0.039,0.031-0.078,0.049-0.117,0.056c-0.039,0.007-0.076,0.006-0.11,0
		c-0.034-0.006-0.063-0.018-0.093-0.036c-0.026-0.017-0.047-0.035-0.06-0.053l-0.266-0.353l1.231-1.034H103v3.348H103.65z"/>
	<path fill="#31BBAB" d="M107.352,48.747c0.117,0.042,0.219,0.093,0.303,0.155c0.084,0.061,0.152,0.132,0.207,0.211
		c0.053,0.08,0.093,0.167,0.117,0.262s0.037,0.196,0.037,0.302c0,0.177-0.033,0.338-0.102,0.483
		c-0.066,0.145-0.163,0.268-0.287,0.371c-0.124,0.102-0.271,0.181-0.445,0.236c-0.175,0.057-0.365,0.084-0.576,0.084
		c-0.209,0-0.4-0.027-0.574-0.084c-0.174-0.056-0.322-0.135-0.446-0.236c-0.124-0.103-0.22-0.226-0.287-0.371
		s-0.103-0.306-0.103-0.483c0-0.106,0.014-0.208,0.039-0.302c0.023-0.095,0.063-0.182,0.117-0.262
		c0.053-0.08,0.121-0.15,0.205-0.211c0.086-0.062,0.187-0.113,0.303-0.155c-0.178-0.082-0.313-0.194-0.4-0.338
		c-0.089-0.144-0.133-0.317-0.133-0.52c0-0.153,0.031-0.296,0.095-0.427s0.152-0.244,0.267-0.34
		c0.113-0.096,0.248-0.171,0.405-0.227c0.156-0.055,0.327-0.083,0.515-0.083c0.187,0,0.356,0.027,0.514,0.083
		c0.156,0.055,0.292,0.131,0.406,0.227c0.113,0.096,0.201,0.209,0.266,0.34c0.063,0.131,0.096,0.274,0.096,0.427
		c0,0.203-0.045,0.376-0.134,0.52C107.664,48.553,107.529,48.666,107.352,48.747z M106.605,50.217c0.094,0,0.176-0.015,0.244-0.043
		c0.067-0.028,0.125-0.068,0.17-0.118c0.043-0.049,0.076-0.108,0.098-0.176s0.031-0.141,0.031-0.218c0-0.085-0.01-0.163-0.027-0.233
		c-0.02-0.07-0.048-0.13-0.09-0.18c-0.041-0.05-0.098-0.089-0.167-0.117c-0.069-0.028-0.155-0.042-0.259-0.042
		s-0.189,0.014-0.26,0.042c-0.07,0.028-0.125,0.067-0.166,0.117c-0.043,0.05-0.072,0.11-0.091,0.18
		c-0.019,0.071-0.026,0.148-0.026,0.233c0,0.078,0.011,0.15,0.03,0.218c0.021,0.068,0.054,0.127,0.099,0.176
		c0.045,0.05,0.101,0.089,0.168,0.118C106.428,50.203,106.51,50.217,106.605,50.217z M106.605,47.426
		c-0.086,0-0.156,0.014-0.215,0.041c-0.059,0.027-0.104,0.063-0.143,0.107c-0.038,0.044-0.063,0.096-0.08,0.153
		c-0.018,0.058-0.023,0.118-0.023,0.179c0,0.069,0.006,0.135,0.019,0.201c0.013,0.065,0.036,0.123,0.071,0.173
		c0.033,0.051,0.08,0.091,0.141,0.122c0.061,0.031,0.137,0.046,0.23,0.046c0.093,0,0.17-0.016,0.229-0.046
		c0.06-0.03,0.106-0.071,0.142-0.122c0.035-0.05,0.059-0.108,0.07-0.173c0.014-0.065,0.02-0.132,0.02-0.201
		c0-0.062-0.008-0.121-0.024-0.179s-0.043-0.109-0.08-0.153c-0.037-0.044-0.085-0.08-0.144-0.107
		C106.76,47.439,106.688,47.426,106.605,47.426z"/>
</g>
<g>
	<path fill="#FFFFFF" d="M79.87,32.015c0.112,0,0.2,0.034,0.265,0.101c0.063,0.067,0.096,0.154,0.096,0.259v0.593h-9.662v-0.36
		c0-0.078,0.02-0.157,0.059-0.238c0.038-0.081,0.09-0.149,0.152-0.206l5.111-5.175c0.424-0.43,0.815-0.847,1.176-1.249
		c0.359-0.402,0.672-0.808,0.937-1.217s0.472-0.829,0.619-1.259c0.147-0.43,0.224-0.889,0.224-1.376c0-0.55-0.093-1.028-0.275-1.434
		c-0.184-0.406-0.428-0.739-0.73-1c-0.303-0.261-0.656-0.455-1.058-0.582c-0.402-0.127-0.819-0.19-1.249-0.19
		c-0.473,0-0.908,0.072-1.309,0.217c-0.397,0.145-0.75,0.346-1.058,0.604c-0.308,0.258-0.562,0.564-0.763,0.921
		c-0.2,0.356-0.34,0.746-0.418,1.169c-0.049,0.155-0.114,0.258-0.195,0.307c-0.081,0.049-0.191,0.067-0.333,0.053l-0.519-0.084
		c0.09-0.642,0.268-1.213,0.527-1.714c0.262-0.501,0.594-0.924,0.995-1.27c0.402-0.346,0.868-0.608,1.397-0.789
		c0.527-0.18,1.101-0.27,1.714-0.27c0.571,0,1.116,0.083,1.635,0.249s0.978,0.417,1.376,0.751s0.715,0.755,0.947,1.259
		s0.35,1.095,0.35,1.772c0,0.565-0.087,1.088-0.26,1.572c-0.173,0.484-0.407,0.947-0.703,1.392
		c-0.297,0.444-0.641,0.877-1.032,1.296c-0.392,0.42-0.803,0.849-1.231,1.286l-4.688,4.784c0.226-0.056,0.46-0.099,0.703-0.127
		c0.244-0.028,0.489-0.042,0.735-0.042h6.466V32.015z"/>
</g>
</svg>
