<?xml version="1.0" encoding="utf-8"?>
<!-- Generator: Adobe Illustrator 15.0.0, SVG Export Plug-In . SVG Version: 6.00 Build 0)  -->
<!DOCTYPE svg PUBLIC "-//W3C//DTD SVG 1.1//EN" "http://www.w3.org/Graphics/SVG/1.1/DTD/svg11.dtd">
<svg version="1.1" id="Warstwa_1" xmlns="http://www.w3.org/2000/svg" xmlns:xlink="http://www.w3.org/1999/xlink" x="0px" y="0px"
	 width="200px" height="70px" viewBox="0 0 200 70" enable-background="new 0 0 200 70" xml:space="preserve">
<g>
	<g>
		<g>
			<defs>
				<path id="SVGID_1_" d="M6.872,63.985c0.099,0.034,0.197,0.067,0.295,0.102l23.026-41.883c-0.098-0.035-0.196-0.069-0.294-0.103
					L6.872,63.985z"/>
			</defs>
			<clipPath id="SVGID_2_">
				<use xlink:href="#SVGID_1_"  overflow="visible"/>
			</clipPath>
			
				<linearGradient id="SVGID_3_" gradientUnits="userSpaceOnUse" x1="-140.4668" y1="339.1328" x2="-140.3251" y2="339.1328" gradientTransform="matrix(163.5348 0 0 -163.5348 22978.1094 55503.1289)">
				<stop  offset="0" style="stop-color:#A6539B"/>
				<stop  offset="0.0758" style="stop-color:#9761A1"/>
				<stop  offset="0.2593" style="stop-color:#7282A3"/>
				<stop  offset="0.4444" style="stop-color:#579AA6"/>
				<stop  offset="0.6296" style="stop-color:#42AEA9"/>
				<stop  offset="0.8147" style="stop-color:#39B6AA"/>
				<stop  offset="1" style="stop-color:#3DB6A7"/>
			</linearGradient>
			<rect x="6.872" y="22.103" clip-path="url(#SVGID_2_)" fill="url(#SVGID_3_)" width="23.321" height="41.985"/>
		</g>
	</g>
</g>
<g>
	<g>
		<g>
			<defs>
				<path id="SVGID_4_" d="M6.872,63.985c0.099,0.034,0.197,0.067,0.295,0.102l23.026-41.883c-0.098-0.035-0.196-0.069-0.294-0.103
					L6.872,63.985z"/>
			</defs>
			<clipPath id="SVGID_5_">
				<use xlink:href="#SVGID_4_"  overflow="visible"/>
			</clipPath>
			
				<linearGradient id="SVGID_6_" gradientUnits="userSpaceOnUse" x1="-143.8779" y1="345.8037" x2="-143.7349" y2="345.8037" gradientTransform="matrix(167.446 -290.1509 168.6518 183.634 -34222.1367 -105183.7734)">
				<stop  offset="0" style="stop-color:#A6539B"/>
				<stop  offset="0.0758" style="stop-color:#9761A1"/>
				<stop  offset="0.2593" style="stop-color:#7282A3"/>
				<stop  offset="0.4444" style="stop-color:#579AA6"/>
				<stop  offset="0.6296" style="stop-color:#42AEA9"/>
				<stop  offset="0.8147" style="stop-color:#39B6AA"/>
				<stop  offset="1" style="stop-color:#3DB6A7"/>
			</linearGradient>
			<polygon clip-path="url(#SVGID_5_)" fill="url(#SVGID_6_)" points="21.194,79.682 45.073,38.304 15.871,6.509 -8.008,47.886 			
				"/>
		</g>
	</g>
</g>
<g>
	<g>
		<g>
			<defs>
				<path id="SVGID_7_" d="M10.196,53.384c0.045,0.016,0.092,0.035,0.18,0.069c0.045,0.02,0.089,0.037,0.183,0.074
					c0.042,0.017,0.087,0.036,0.184,0.075c0.042,0.018,0.083,0.036,0.181,0.077c0.042,0.018,0.083,0.036,0.182,0.078
					c0.041,0.019,0.081,0.037,0.183,0.081c0.04,0.019,0.08,0.037,0.18,0.081l0.001,0.001l23.027-41.883
					c-0.001,0-0.001-0.001-0.001-0.001c-0.101-0.045-0.14-0.063-0.181-0.081c-0.102-0.045-0.143-0.063-0.183-0.081
					c-0.099-0.043-0.14-0.062-0.182-0.079c-0.099-0.042-0.14-0.06-0.182-0.077c-0.097-0.041-0.14-0.059-0.183-0.076
					c-0.094-0.039-0.139-0.057-0.183-0.075c-0.088-0.035-0.135-0.054-0.18-0.071L10.196,53.384z"/>
			</defs>
			<clipPath id="SVGID_8_">
				<use xlink:href="#SVGID_7_"  overflow="visible"/>
			</clipPath>
			
				<linearGradient id="SVGID_9_" gradientUnits="userSpaceOnUse" x1="-140.7036" y1="338.8564" x2="-140.5614" y2="338.8564" gradientTransform="matrix(168.2424 0 0 -168.2424 23682.7676 57042.6016)">
				<stop  offset="0" style="stop-color:#A6539B"/>
				<stop  offset="0.0758" style="stop-color:#9761A1"/>
				<stop  offset="0.2593" style="stop-color:#7282A3"/>
				<stop  offset="0.4444" style="stop-color:#579AA6"/>
				<stop  offset="0.6296" style="stop-color:#42AEA9"/>
				<stop  offset="0.8147" style="stop-color:#39B6AA"/>
				<stop  offset="1" style="stop-color:#3DB6A7"/>
			</linearGradient>
			<rect x="10.196" y="11.5" clip-path="url(#SVGID_8_)" fill="url(#SVGID_9_)" width="24.301" height="42.422"/>
		</g>
	</g>
</g>
<g>
	<g>
		<g>
			<defs>
				<path id="SVGID_10_" d="M10.196,53.384c0.045,0.016,0.092,0.035,0.18,0.069c0.045,0.02,0.089,0.037,0.183,0.074
					c0.042,0.017,0.087,0.036,0.184,0.075c0.042,0.018,0.083,0.036,0.181,0.077c0.042,0.018,0.083,0.036,0.182,0.078
					c0.041,0.019,0.081,0.037,0.183,0.081c0.04,0.019,0.08,0.037,0.18,0.081l0.001,0.001l23.027-41.883
					c-0.001,0-0.001-0.001-0.001-0.001c-0.101-0.045-0.14-0.063-0.181-0.081c-0.102-0.045-0.143-0.063-0.183-0.081
					c-0.099-0.043-0.14-0.062-0.182-0.079c-0.099-0.042-0.14-0.06-0.182-0.077c-0.097-0.041-0.14-0.059-0.183-0.076
					c-0.094-0.039-0.139-0.057-0.183-0.075c-0.088-0.035-0.135-0.054-0.18-0.071L10.196,53.384z"/>
			</defs>
			<clipPath id="SVGID_11_">
				<use xlink:href="#SVGID_10_"  overflow="visible"/>
			</clipPath>
			
				<linearGradient id="SVGID_12_" gradientUnits="userSpaceOnUse" x1="-144.0635" y1="345.8213" x2="-143.9217" y2="345.8213" gradientTransform="matrix(169.0135 -292.8669 170.2305 185.3529 -34510.2852 -106236.7734)">
				<stop  offset="0" style="stop-color:#A6539B"/>
				<stop  offset="0.0758" style="stop-color:#9761A1"/>
				<stop  offset="0.2593" style="stop-color:#7282A3"/>
				<stop  offset="0.4444" style="stop-color:#579AA6"/>
				<stop  offset="0.6296" style="stop-color:#42AEA9"/>
				<stop  offset="0.8147" style="stop-color:#39B6AA"/>
				<stop  offset="1" style="stop-color:#3DB6A7"/>
			</linearGradient>
			<polygon clip-path="url(#SVGID_11_)" fill="url(#SVGID_12_)" points="25.12,70.173 49.532,27.871 19.574,-4.749 -4.839,37.553 
							"/>
		</g>
	</g>
</g>
<g>
	<path fill="#3CB6A9" d="M18.561,47.819h-1.364c-1.632,0-2.916-1.311-2.916-2.915v-8.666c0-1.604,1.284-2.916,2.916-2.916h1.364
		c1.605,0,2.916,1.311,2.916,2.916v8.666C21.477,46.509,20.166,47.819,18.561,47.819z M17.197,35.463
		c-0.428,0-0.775,0.348-0.775,0.775v8.666c0,0.428,0.348,0.775,0.775,0.775h1.364c0.428,0,0.775-0.348,0.775-0.775v-8.666
		c0-0.428-0.348-0.775-0.775-0.775H17.197z"/>
</g>
<g>
	<g>
		<g>
			<defs>
				<path id="SVGID_13_" d="M11.669,45.124c0.208,0.004,0.418,0.013,0.629,0.023L36.41,1.299c-0.212-0.012-0.421-0.02-0.629-0.024
					L11.669,45.124z"/>
			</defs>
			<clipPath id="SVGID_14_">
				<use xlink:href="#SVGID_13_"  overflow="visible"/>
			</clipPath>
			
				<linearGradient id="SVGID_15_" gradientUnits="userSpaceOnUse" x1="-140.875" y1="338.6475" x2="-140.7325" y2="338.6475" gradientTransform="matrix(174.0251 0 0 -174.0251 24527.4648 58956.2773)">
				<stop  offset="0" style="stop-color:#A6539B"/>
				<stop  offset="0.0758" style="stop-color:#9761A1"/>
				<stop  offset="0.2593" style="stop-color:#7282A3"/>
				<stop  offset="0.4444" style="stop-color:#579AA6"/>
				<stop  offset="0.6296" style="stop-color:#42AEA9"/>
				<stop  offset="0.8147" style="stop-color:#39B6AA"/>
				<stop  offset="1" style="stop-color:#3DB6A7"/>
			</linearGradient>
			<rect x="11.669" y="1.275" clip-path="url(#SVGID_14_)" fill="url(#SVGID_15_)" width="24.742" height="43.873"/>
		</g>
	</g>
</g>
<g>
	<g>
		<g>
			<defs>
				<path id="SVGID_16_" d="M12.191,44.173l0.402,0.438l23.723-43.14l-0.17-0.185c-0.122-0.005-0.243-0.009-0.365-0.012
					L12.191,44.173z"/>
			</defs>
			<clipPath id="SVGID_17_">
				<use xlink:href="#SVGID_16_"  overflow="visible"/>
			</clipPath>
			
				<linearGradient id="SVGID_18_" gradientUnits="userSpaceOnUse" x1="-144.2129" y1="345.8457" x2="-144.0706" y2="345.8457" gradientTransform="matrix(171.9237 -297.9097 173.1617 188.5444 -35081.7422 -108125.7188)">
				<stop  offset="0" style="stop-color:#A6539B"/>
				<stop  offset="0.0758" style="stop-color:#9761A1"/>
				<stop  offset="0.2593" style="stop-color:#7282A3"/>
				<stop  offset="0.4444" style="stop-color:#579AA6"/>
				<stop  offset="0.6296" style="stop-color:#42AEA9"/>
				<stop  offset="0.8147" style="stop-color:#39B6AA"/>
				<stop  offset="1" style="stop-color:#3DB6A7"/>
			</linearGradient>
			<polygon clip-path="url(#SVGID_17_)" fill="url(#SVGID_18_)" points="27.006,60.743 51.674,17.998 21.5,-14.856 -3.168,27.888 
							"/>
		</g>
	</g>
</g>
<g>
	<rect x="1.393" y="47.964" fill="#3CB6A9" width="6.804" height="2.125"/>
	<path fill="#3CB6A9" d="M13.014,32.896v23.346c0,1.926-1.578,3.478-3.476,3.478c-1.926,0-3.477-1.552-3.477-3.478v-8.29H8.2v8.29
		c0,0.724,0.589,1.312,1.338,1.312c0.722,0,1.31-0.588,1.31-1.312v-8.879H9.056c-1.283,0-2.246-0.694-2.701-2.005
		c-0.321-0.856-0.347-1.819-0.347-2.462v-10h2.166L8.146,42.898c0,0.267,0,1.122,0.214,1.738c0.214,0.588,0.482,0.588,0.695,0.588
		h1.792V32.896H13.014z"/>
</g>
<g>
	<g>
		<g>
			<defs>
				<path id="SVGID_19_" d="M27.67,9.444L4.644,51.327c0.215-0.012,0.431-0.021,0.649-0.023L28.319,9.42
					C28.101,9.424,27.884,9.432,27.67,9.444"/>
			</defs>
			<clipPath id="SVGID_20_">
				<use xlink:href="#SVGID_19_"  overflow="visible"/>
			</clipPath>
			
				<linearGradient id="SVGID_21_" gradientUnits="userSpaceOnUse" x1="-140.457" y1="338.7324" x2="-140.3148" y2="338.7324" gradientTransform="matrix(166.5258 0 0 -166.5258 23394.3945 56438.1797)">
				<stop  offset="0" style="stop-color:#A6539B"/>
				<stop  offset="0.0758" style="stop-color:#9761A1"/>
				<stop  offset="0.2593" style="stop-color:#7282A3"/>
				<stop  offset="0.4444" style="stop-color:#579AA6"/>
				<stop  offset="0.6296" style="stop-color:#42AEA9"/>
				<stop  offset="0.8147" style="stop-color:#39B6AA"/>
				<stop  offset="1" style="stop-color:#3DB6A7"/>
			</linearGradient>
			<rect x="4.644" y="9.42" clip-path="url(#SVGID_20_)" fill="url(#SVGID_21_)" width="23.676" height="41.907"/>
		</g>
	</g>
</g>
<g>
	<g>
		<g>
			<defs>
				<path id="SVGID_22_" d="M27.67,9.444L4.644,51.327c0.215-0.012,0.431-0.021,0.649-0.023L28.319,9.42
					C28.101,9.424,27.884,9.432,27.67,9.444"/>
			</defs>
			<clipPath id="SVGID_23_">
				<use xlink:href="#SVGID_22_"  overflow="visible"/>
			</clipPath>
			
				<linearGradient id="SVGID_24_" gradientUnits="userSpaceOnUse" x1="-144.0122" y1="345.9824" x2="-143.8698" y2="345.9824" gradientTransform="matrix(168.7249 -292.3669 169.9399 185.0365 -34493.5508 -106072.6953)">
				<stop  offset="0" style="stop-color:#A6539B"/>
				<stop  offset="0.0758" style="stop-color:#9761A1"/>
				<stop  offset="0.2593" style="stop-color:#7282A3"/>
				<stop  offset="0.4444" style="stop-color:#579AA6"/>
				<stop  offset="0.6296" style="stop-color:#42AEA9"/>
				<stop  offset="0.8147" style="stop-color:#39B6AA"/>
				<stop  offset="1" style="stop-color:#3DB6A7"/>
			</linearGradient>
			<polygon clip-path="url(#SVGID_23_)" fill="url(#SVGID_24_)" points="19.183,67.159 43.172,25.591 13.78,-6.412 -10.208,35.154 
							"/>
		</g>
	</g>
</g>
<g>
	<g>
		<g>
			<defs>
				<path id="SVGID_25_" d="M4.644,51.327c0.215-0.012,0.431-0.021,0.649-0.023l7.721-14.024v-1.153L4.644,51.327z"/>
			</defs>
			<clipPath id="SVGID_26_">
				<use xlink:href="#SVGID_25_"  overflow="visible"/>
			</clipPath>
			
				<linearGradient id="SVGID_27_" gradientUnits="userSpaceOnUse" x1="-133.0654" y1="333.2139" x2="-132.923" y2="333.2139" gradientTransform="matrix(58.8787 0 0 -58.8787 7839.314 19662.9453)">
				<stop  offset="0" style="stop-color:#A6539B"/>
				<stop  offset="0.0758" style="stop-color:#9761A1"/>
				<stop  offset="0.2593" style="stop-color:#7282A3"/>
				<stop  offset="0.4444" style="stop-color:#579AA6"/>
				<stop  offset="0.6296" style="stop-color:#42AEA9"/>
				<stop  offset="0.8147" style="stop-color:#39B6AA"/>
				<stop  offset="1" style="stop-color:#3DB6A7"/>
			</linearGradient>
			<rect x="4.644" y="36.126" clip-path="url(#SVGID_26_)" fill="url(#SVGID_27_)" width="8.372" height="15.2"/>
		</g>
	</g>
</g>
<g>
	<g>
		<g>
			<defs>
				<path id="SVGID_28_" d="M4.644,51.327c0.215-0.012,0.431-0.021,0.649-0.023l7.721-14.024v-1.153L4.644,51.327z"/>
			</defs>
			<clipPath id="SVGID_29_">
				<use xlink:href="#SVGID_28_"  overflow="visible"/>
			</clipPath>
			
				<linearGradient id="SVGID_30_" gradientUnits="userSpaceOnUse" x1="-144.0122" y1="345.9824" x2="-143.8685" y2="345.9824" gradientTransform="matrix(168.7249 -292.3669 169.9399 185.0365 -34493.5508 -106072.6953)">
				<stop  offset="0" style="stop-color:#A6539B"/>
				<stop  offset="0.0758" style="stop-color:#9761A1"/>
				<stop  offset="0.2593" style="stop-color:#7282A3"/>
				<stop  offset="0.4444" style="stop-color:#579AA6"/>
				<stop  offset="0.6296" style="stop-color:#42AEA9"/>
				<stop  offset="0.8147" style="stop-color:#39B6AA"/>
				<stop  offset="1" style="stop-color:#3DB6A7"/>
			</linearGradient>
			<polygon clip-path="url(#SVGID_29_)" fill="url(#SVGID_30_)" points="9.785,56.925 18.402,41.991 7.874,30.528 -0.744,45.461 			
				"/>
		</g>
	</g>
</g>
<g>
	<path fill="#FFFFFF" d="M13.026,24.023v7.956h-2.162v-7.956c0-0.547-0.447-0.994-0.995-0.994h-1.74v8.95H5.991V12.314h3.58
		c1.616,0,3.431,1.318,3.431,2.958v4.748c0,0.771-0.298,1.492-0.82,2.063C12.703,22.557,13.026,23.253,13.026,24.023z M8.129,21.289
		h1.442c0.348,0,0.671-0.124,0.895-0.373c0.249-0.224,0.373-0.547,0.373-0.895v-4.748c0-0.721-0.572-1.292-1.268-1.292H8.129V21.289
		z"/>
	<path fill="#FFFFFF" d="M17.873,31.979h-1.044c-1.517,0-2.735-1.218-2.735-2.735v-14.22c0-1.517,1.218-2.735,2.735-2.735h1.044
		c1.517,0,2.735,1.218,2.735,2.735v14.22C20.608,30.761,19.39,31.979,17.873,31.979z M17.152,13.955
		c-0.596,0-1.068,0.473-1.068,1.069v14.221c0,0.597,0.472,1.068,1.068,1.068h0.324c0.597,0,1.068-0.472,1.068-1.068v-14.22
		c0-0.597-0.472-1.069-1.068-1.069L17.152,13.955L17.152,13.955z"/>
	<path fill="#FFFFFF" d="M25.63,31.979h-1.044c-1.517,0-2.734-1.218-2.734-2.735v-14.22c0-1.517,1.218-2.735,2.734-2.735h1.044
		c1.516,0,2.735,1.218,2.735,2.735v5.842h-2.014v-5.842c0-0.597-0.472-1.069-1.068-1.069h-0.373c-0.596,0-1.069,0.473-1.069,1.069
		v14.22c0,0.597,0.473,1.069,1.069,1.069h0.373c0.597,0,1.068-0.472,1.068-1.069v-6.19h2.014v6.19
		C28.365,30.761,27.146,31.979,25.63,31.979z"/>
	<path fill="#FFFFFF" d="M34.654,19.971c1.044,1.393,1.616,3.232,1.616,5.172v6.836h-1.915v-6.836c0-1.592-0.447-3.083-1.267-4.177
		c-0.572-0.771-0.896-1.268-1.641-1.491v12.504h-2.014V12.314h2.014v5.32c0.846-0.373,1.243-0.87,1.715-1.417
		c0.621-0.821,1.193-2.063,1.193-3.903h1.666c0,1.84-0.547,3.58-1.517,4.873c-0.422,0.596-0.919,1.068-1.467,1.417
		C33.535,18.952,34.255,19.424,34.654,19.971z"/>
</g>
<g>
	<path fill="#FFFFFF" d="M17.45,55.921h-1.018v-5.547h1.018c0.457,0,0.821,0.351,0.821,0.779v1.552c0,0.175-0.07,0.337-0.182,0.456
		c0.119,0.126,0.182,0.287,0.182,0.464v1.51C18.271,55.571,17.906,55.921,17.45,55.921z M16.993,50.845v2.086l0.471-0.007
		c0.141-0.008,0.246-0.105,0.246-0.218v-1.551c0-0.17-0.155-0.311-0.351-0.311H16.993z M16.993,55.451h0.365
		c0.197,0,0.351-0.141,0.351-0.315v-1.511c0-0.068-0.035-0.119-0.063-0.147c-0.042-0.049-0.113-0.069-0.189-0.069h-0.464
		L16.993,55.451L16.993,55.451z"/>
	<path fill="#FFFFFF" d="M21.136,55.921H20.84c-0.429,0-0.772-0.343-0.772-0.771v-4.769h0.583v4.769
		c0,0.169,0.133,0.302,0.301,0.302h0.105c0.169,0,0.302-0.133,0.302-0.302v-4.769h0.548v4.769
		C21.908,55.578,21.564,55.921,21.136,55.921z"/>
	<path fill="#FFFFFF" d="M24.716,55.921h-0.421c-0.393,0-0.709-0.302-0.709-0.674v-1.46h0.569v1.46c0,0.112,0.105,0.203,0.239,0.203
		h0.239c0.134,0,0.239-0.092,0.239-0.203v-1.762c0-0.077-0.077-0.149-0.168-0.149h-0.471c-0.358,0-0.646-0.274-0.646-0.61v-1.69
		c0-0.373,0.316-0.676,0.709-0.676h0.421c0.394,0,0.709,0.303,0.709,0.676v1.389h-0.555v-1.389c0-0.113-0.105-0.204-0.238-0.204
		h-0.239c-0.133,0-0.239,0.091-0.239,0.204v1.69c0,0.077,0.077,0.148,0.175,0.148h0.457c0.351,0,0.639,0.274,0.639,0.611v1.762
		C25.425,55.62,25.109,55.921,24.716,55.921z"/>
	<path fill="#FFFFFF" d="M27.742,55.921H27.18v-5.562h0.562V55.921z"/>
	<path fill="#FFFFFF" d="M30.781,55.921c-0.245-1.004-0.526-2.443-0.821-3.63v3.624h-0.555v-5.548c0,0,0.288,0,0.463,0l0.056,0.183
		c0.042,0.148,0.091,0.365,0.162,0.625c0.126,0.527,0.295,1.215,0.471,1.91l0.225,0.928l0.014-3.637h0.547l-0.021,5.547h-0.542
		V55.921L30.781,55.921z"/>
	<path fill="#FFFFFF" d="M33.604,50.852v2.043h1.046v0.471h-1.046v2.086h1.046v0.472h-1.608v-5.542h1.608v0.471H33.604
		L33.604,50.852z"/>
	<path fill="#FFFFFF" d="M37.507,55.921h-0.421c-0.393,0-0.709-0.302-0.709-0.674v-1.46h0.569v1.46c0,0.112,0.106,0.203,0.239,0.203
		h0.238c0.134,0,0.239-0.092,0.239-0.203v-1.762c0-0.077-0.077-0.149-0.168-0.149h-0.47c-0.358,0-0.646-0.274-0.646-0.61v-1.69
		c0-0.373,0.315-0.676,0.709-0.676h0.422c0.393,0,0.709,0.303,0.709,0.676v1.389h-0.555v-1.389c0-0.113-0.105-0.204-0.239-0.204
		h-0.239c-0.133,0-0.239,0.091-0.239,0.204v1.69c0,0.077,0.077,0.148,0.175,0.148h0.457c0.351,0,0.639,0.274,0.639,0.611v1.762
		C38.216,55.62,37.9,55.921,37.507,55.921z"/>
	<path fill="#FFFFFF" d="M41.094,55.921h-0.421c-0.393,0-0.709-0.302-0.709-0.674v-1.46h0.569v1.46c0,0.112,0.105,0.203,0.239,0.203
		h0.238c0.133,0,0.239-0.092,0.239-0.203v-1.762c0-0.077-0.077-0.149-0.168-0.149H40.61c-0.358,0-0.646-0.274-0.646-0.61v-1.69
		c0-0.373,0.316-0.676,0.709-0.676h0.421c0.394,0,0.709,0.303,0.709,0.676v1.389H41.25v-1.389c0-0.113-0.105-0.204-0.239-0.204
		h-0.239c-0.133,0-0.239,0.091-0.239,0.204v1.69c0,0.077,0.077,0.148,0.175,0.148h0.457c0.351,0,0.639,0.274,0.639,0.611v1.762
		C41.804,55.62,41.488,55.921,41.094,55.921z"/>
</g>
<g>
	<path fill="#3CB6A9" d="M38.579,37.393v4.466h-2.14v-4.466c0-0.374-0.16-0.723-0.454-0.962c-0.267-0.241-0.642-0.375-0.99-0.375
		c-0.803,0-1.391,0.588-1.391,1.337h-0.026v10.805h-2.14V33.889h2.14v0.293c0.428-0.187,0.91-0.266,1.417-0.266
		c0.882,0,1.712,0.294,2.38,0.882C38.151,35.44,38.579,36.403,38.579,37.393z"/>
</g>
<g>
	<path fill="#3CB6A9" d="M27.132,47.37h-1.364c-1.604,0-2.915-1.284-2.915-2.916V32.873h2.14v11.582
		c0,0.428,0.347,0.775,0.775,0.775h1.364c0.428,0,0.776-0.348,0.776-0.775V32.873h2.14v11.582
		C30.048,46.086,28.737,47.37,27.132,47.37z"/>
</g>
<g>
	<g>
		<g>
			<defs>
				<path id="SVGID_31_" d="M19.73,45.36c0.021,0.006,0.042,0.012,0.063,0.017c0.055,0.015,0.111,0.031,0.167,0.046L42.987,3.541
					c-0.056-0.016-0.111-0.031-0.167-0.046c-0.02-0.005-0.043-0.01-0.063-0.017L19.73,45.36z"/>
			</defs>
			<clipPath id="SVGID_32_">
				<use xlink:href="#SVGID_31_"  overflow="visible"/>
			</clipPath>
			
				<linearGradient id="SVGID_33_" gradientUnits="userSpaceOnUse" x1="-140.9336" y1="338.4395" x2="-140.7918" y2="338.4395" gradientTransform="matrix(163.2659 0 0 -163.2659 23029.3945 55279.9492)">
				<stop  offset="0" style="stop-color:#A6539B"/>
				<stop  offset="0.0758" style="stop-color:#9761A1"/>
				<stop  offset="0.2593" style="stop-color:#7282A3"/>
				<stop  offset="0.4444" style="stop-color:#579AA6"/>
				<stop  offset="0.6296" style="stop-color:#42AEA9"/>
				<stop  offset="0.8147" style="stop-color:#39B6AA"/>
				<stop  offset="1" style="stop-color:#3DB6A7"/>
			</linearGradient>
			<rect x="19.73" y="3.478" clip-path="url(#SVGID_32_)" fill="url(#SVGID_33_)" width="23.257" height="41.946"/>
		</g>
	</g>
</g>
<g>
	<g>
		<g>
			<defs>
				<path id="SVGID_34_" d="M19.73,45.36c0.021,0.006,0.042,0.012,0.063,0.017c0.055,0.015,0.111,0.031,0.167,0.046L42.987,3.541
					c-0.056-0.016-0.111-0.031-0.167-0.046c-0.02-0.005-0.043-0.01-0.063-0.017L19.73,45.36z"/>
			</defs>
			<clipPath id="SVGID_35_">
				<use xlink:href="#SVGID_34_"  overflow="visible"/>
			</clipPath>
			
				<linearGradient id="SVGID_36_" gradientUnits="userSpaceOnUse" x1="-144.2935" y1="345.7598" x2="-144.1515" y2="345.7598" gradientTransform="matrix(167.3658 -290.0117 168.5709 183.5459 -34115.75 -105264.3438)">
				<stop  offset="0" style="stop-color:#A6539B"/>
				<stop  offset="0.0758" style="stop-color:#9761A1"/>
				<stop  offset="0.2593" style="stop-color:#7282A3"/>
				<stop  offset="0.4444" style="stop-color:#579AA6"/>
				<stop  offset="0.6296" style="stop-color:#42AEA9"/>
				<stop  offset="0.8147" style="stop-color:#39B6AA"/>
				<stop  offset="1" style="stop-color:#3DB6A7"/>
			</linearGradient>
			<polygon clip-path="url(#SVGID_35_)" fill="url(#SVGID_36_)" points="34.013,60.975 57.852,19.664 28.705,-12.073 4.865,29.237 
							"/>
		</g>
	</g>
</g>
<g>
	<g>
		<g>
			<defs>
				<path id="SVGID_37_" d="M10.05,53.765l0.984,1.071l7.441-13.653c0-0.001-0.001-0.001-0.002-0.001
					c-0.1-0.045-0.14-0.063-0.18-0.081c-0.103-0.045-0.144-0.063-0.184-0.08c-0.098-0.043-0.14-0.062-0.181-0.079
					c-0.099-0.042-0.14-0.06-0.182-0.076c-0.097-0.041-0.14-0.061-0.183-0.076c-0.094-0.04-0.138-0.057-0.184-0.073
					c-0.088-0.036-0.134-0.054-0.179-0.072L10.05,53.765z"/>
			</defs>
			<clipPath id="SVGID_38_">
				<use xlink:href="#SVGID_37_"  overflow="visible"/>
			</clipPath>
			
				<linearGradient id="SVGID_39_" gradientUnits="userSpaceOnUse" x1="-142.2759" y1="343.6592" x2="-142.1319" y2="343.6592" gradientTransform="matrix(366.4102 0 -80.997 542.1848 79960.5234 -186279.1563)">
				<stop  offset="0" style="stop-color:#A6539B"/>
				<stop  offset="0.1164" style="stop-color:#8C6AA2"/>
				<stop  offset="0.2842" style="stop-color:#6986A4"/>
				<stop  offset="0.4558" style="stop-color:#4F9DA7"/>
				<stop  offset="0.6302" style="stop-color:#3CADA9"/>
				<stop  offset="0.8093" style="stop-color:#34B5A9"/>
				<stop  offset="1" style="stop-color:#37B5A8"/>
			</linearGradient>
			<polygon clip-path="url(#SVGID_38_)" fill="url(#SVGID_39_)" points="7.93,54.836 18.475,54.836 20.595,40.644 10.05,40.644 			
				"/>
		</g>
	</g>
</g>
<line fill="none" stroke="#FFFFFF" stroke-miterlimit="10" x1="46.798" y1="16.754" x2="46.798" y2="46.275"/>
<g>
	<g>
		<path fill="#FFFFFE" d="M59.209,38.563v1.902h-0.686v-5.021h1.48c0.318,0,0.583,0.053,0.842,0.104
			c0.214,0.053,0.426,0.156,0.582,0.32c0.161,0.157,0.264,0.322,0.37,0.478c0.057,0.209,0.108,0.419,0.108,0.626
			c0,0.218-0.051,0.426-0.108,0.643c-0.052,0.208-0.208,0.366-0.37,0.521c-0.156,0.157-0.368,0.27-0.582,0.321
			c-0.208,0.052-0.524,0.104-0.79,0.104H59.209z M59.209,37.981h0.795c0.209,0,0.369,0,0.526-0.052
			c0.161-0.053,0.265-0.106,0.373-0.21c0.105-0.104,0.158-0.207,0.209-0.321c0.052-0.104,0.052-0.261,0.052-0.426
			c0-0.312-0.103-0.573-0.317-0.729c-0.208-0.165-0.473-0.27-0.893-0.27h-0.795v2.007H59.209z"/>
		<path fill="#FFFFFE" d="M64.017,36.817c0.264,0,0.478,0.051,0.686,0.104c0.213,0.104,0.369,0.217,0.53,0.373
			c0.155,0.165,0.266,0.374,0.316,0.583c0.052,0.208,0.104,0.469,0.104,0.737s-0.052,0.531-0.104,0.739
			c-0.051,0.207-0.213,0.425-0.316,0.582c-0.104,0.163-0.317,0.27-0.53,0.373c-0.208,0.104-0.422,0.104-0.686,0.104
			c-0.265,0-0.473-0.053-0.686-0.104c-0.214-0.104-0.369-0.21-0.531-0.373c-0.156-0.157-0.259-0.375-0.315-0.582
			c-0.105-0.208-0.105-0.471-0.105-0.739s0.051-0.529,0.105-0.737c0.107-0.209,0.212-0.418,0.315-0.583
			c0.162-0.156,0.317-0.269,0.531-0.373C63.492,36.868,63.752,36.817,64.017,36.817z M64.017,39.987
			c0.369,0,0.633-0.104,0.794-0.374c0.157-0.208,0.26-0.572,0.26-0.999c0-0.425-0.104-0.737-0.26-0.999
			c-0.161-0.217-0.425-0.373-0.794-0.373c-0.157,0-0.317,0.052-0.473,0.104c-0.109,0.053-0.264,0.167-0.318,0.27
			c-0.109,0.104-0.161,0.262-0.212,0.417c-0.052,0.157-0.052,0.374-0.052,0.582c0,0.218,0,0.427,0.052,0.582
			c0.051,0.157,0.103,0.313,0.212,0.417c0.105,0.113,0.209,0.218,0.318,0.27C63.647,39.936,63.809,39.987,64.017,39.987z"/>
		<path fill="#FFFFFE" d="M66.449,40.413v-3.545h0.37c0.103,0,0.155,0.053,0.155,0.104l0.053,0.373
			c0.108-0.155,0.264-0.32,0.426-0.425c0.155-0.104,0.369-0.155,0.581-0.155c0.261,0,0.422,0.052,0.579,0.207
			c0.16,0.165,0.263,0.321,0.316,0.54c0.057-0.114,0.109-0.271,0.212-0.322c0.104-0.114,0.158-0.165,0.267-0.218
			c0.103-0.052,0.207-0.104,0.316-0.155c0.104-0.052,0.208-0.052,0.369-0.052c0.212,0,0.37,0.052,0.473,0.103
			c0.161,0.053,0.266,0.157,0.374,0.27c0.104,0.104,0.155,0.261,0.208,0.426c0.053,0.156,0.11,0.366,0.11,0.573v2.276h-0.635v-2.276
			c0-0.26-0.057-0.469-0.16-0.624c-0.105-0.167-0.318-0.219-0.531-0.219c-0.104,0-0.208,0-0.318,0.052
			c-0.104,0.053-0.156,0.113-0.259,0.167c-0.056,0.051-0.11,0.155-0.162,0.259c-0.052,0.105-0.052,0.21-0.052,0.365v2.276h-0.633
			v-2.276c0-0.26-0.052-0.469-0.157-0.624c-0.107-0.167-0.265-0.219-0.529-0.219c-0.161,0-0.317,0.052-0.421,0.104
			c-0.162,0.114-0.265,0.217-0.374,0.321v2.641h-0.578V40.413z"/>
		<path fill="#FFFFFE" d="M73.679,36.817c0.27,0,0.478,0.051,0.695,0.104c0.209,0.104,0.364,0.217,0.521,0.373
			c0.157,0.165,0.27,0.374,0.321,0.583c0.052,0.208,0.104,0.469,0.104,0.737s-0.053,0.531-0.104,0.739
			c-0.051,0.207-0.216,0.425-0.321,0.582c-0.104,0.163-0.312,0.27-0.521,0.373c-0.218,0.104-0.425,0.104-0.695,0.104
			c-0.261,0-0.468-0.053-0.677-0.104c-0.217-0.104-0.374-0.21-0.538-0.373c-0.156-0.157-0.261-0.375-0.313-0.582
			c-0.104-0.208-0.104-0.471-0.104-0.739s0.052-0.529,0.104-0.737c0.104-0.209,0.208-0.418,0.313-0.583
			c0.165-0.156,0.321-0.269,0.538-0.373C73.21,36.868,73.418,36.817,73.679,36.817z M73.679,39.987c0.374,0,0.644-0.104,0.799-0.374
			c0.158-0.208,0.261-0.572,0.261-0.999c0-0.425-0.103-0.737-0.261-0.999c-0.155-0.217-0.425-0.373-0.799-0.373
			c-0.155,0-0.313,0.052-0.468,0.104c-0.104,0.053-0.261,0.167-0.313,0.27c-0.113,0.104-0.165,0.262-0.216,0.417
			c-0.054,0.157-0.054,0.374-0.054,0.582c0,0.218,0,0.427,0.054,0.582c0.051,0.157,0.103,0.313,0.216,0.417
			c0.104,0.113,0.209,0.218,0.313,0.27C73.366,39.936,73.523,39.987,73.679,39.987z"/>
		<path fill="#FFFFFE" d="M76.163,40.413v-3.545h0.374c0.052,0,0.104,0,0.156,0.053c0.052,0.052,0.052,0.052,0.052,0.155l0.06,0.592
			c0.105-0.27,0.261-0.426,0.47-0.592c0.156-0.155,0.364-0.208,0.634-0.208c0.105,0,0.218,0,0.27,0.053
			c0.104,0,0.155,0.052,0.208,0.104l-0.104,0.487c0,0.051-0.052,0.103-0.104,0.103s-0.104,0-0.164-0.052
			c-0.053,0-0.158-0.051-0.263-0.051c-0.218,0-0.425,0.051-0.528,0.207c-0.157,0.104-0.261,0.313-0.364,0.521v2.276h-0.696V40.413z"
			/>
		<path fill="#FFFFFE" d="M81.028,37.459c-0.054,0.054-0.054,0.054-0.105,0.054s-0.052,0-0.104-0.054
			c-0.053,0-0.104-0.061-0.155-0.113c-0.063-0.052-0.165-0.052-0.218-0.104c-0.104-0.052-0.217-0.052-0.322-0.052
			c-0.104,0-0.207,0-0.259,0.052c-0.105,0.052-0.157,0.052-0.209,0.104c-0.052,0.053-0.104,0.113-0.156,0.167
			c-0.053,0.051-0.053,0.103-0.053,0.207c0,0.104,0,0.157,0.053,0.21c0.052,0.052,0.104,0.103,0.208,0.155
			c0.104,0.052,0.157,0.104,0.313,0.104c0.104,0.052,0.209,0.052,0.321,0.104c0.104,0.052,0.208,0.112,0.322,0.112
			c0.103,0.052,0.208,0.104,0.312,0.156c0.105,0.052,0.156,0.156,0.209,0.27c0.052,0.103,0.052,0.209,0.052,0.364
			c0,0.157-0.052,0.313-0.104,0.469c-0.051,0.166-0.156,0.271-0.26,0.382c-0.105,0.105-0.271,0.158-0.426,0.262
			c-0.164,0.052-0.374,0.104-0.581,0.104c-0.261,0-0.471-0.053-0.688-0.104c-0.218-0.053-0.373-0.156-0.53-0.321l0.157-0.261
			c0-0.062,0.053-0.062,0.053-0.062s0.052,0,0.103,0c0.053,0,0.114,0,0.167,0.062c0.051,0.052,0.104,0.052,0.155,0.104
			c0.053,0.052,0.165,0.052,0.27,0.104c0.104,0.052,0.208,0.052,0.365,0.052c0.104,0,0.207,0,0.313-0.052
			c0.112-0.053,0.165-0.053,0.217-0.104c0.053-0.053,0.104-0.104,0.155-0.218c0.063-0.104,0.063-0.155,0.063-0.208
			c0-0.104,0-0.156-0.063-0.26c-0.052-0.104-0.103-0.104-0.207-0.158c-0.112-0.053-0.218-0.104-0.322-0.104
			c-0.104-0.051-0.207-0.051-0.313-0.104c-0.104-0.061-0.208-0.112-0.313-0.112c-0.112,0-0.217-0.104-0.32-0.157
			c-0.114-0.052-0.167-0.164-0.218-0.269c-0.052-0.104-0.104-0.209-0.104-0.364c0-0.157,0.053-0.262,0.104-0.364
			c0.051-0.114,0.165-0.219,0.269-0.322c0.104-0.114,0.27-0.165,0.427-0.218c0.155-0.052,0.313-0.104,0.52-0.104
			c0.218,0,0.426,0.053,0.643,0.104c0.209,0.053,0.365,0.165,0.47,0.321L81.028,37.459z"/>
		<path fill="#FFFFFE" d="M82.66,35.236v3.058h0.155c0.052,0,0.114,0,0.114,0c0.052,0,0.052-0.053,0.104-0.104l1.104-1.217
			c0.052-0.052,0.052-0.052,0.112-0.104c0.052,0,0.104-0.051,0.157-0.051h0.581l-1.319,1.372c-0.054,0.052-0.054,0.052-0.105,0.104
			c-0.051,0.052-0.051,0.052-0.104,0.112c0.053,0.052,0.104,0.052,0.104,0.104c0.052,0.053,0.052,0.053,0.105,0.104l1.371,1.746
			h-0.581c-0.052,0-0.104,0-0.104-0.052c-0.053,0-0.053-0.053-0.104-0.104l-1.164-1.486c-0.052-0.052-0.052-0.104-0.104-0.104
			s-0.114,0-0.166,0H82.66v1.694h-0.626v-5.177h0.626V35.236z"/>
		<path fill="#FFFFFE" d="M86.567,35.757c0,0.061,0,0.112-0.051,0.165c-0.053,0.053-0.053,0.104-0.104,0.157
			c-0.051,0.052-0.104,0.052-0.156,0.112c-0.053,0-0.104,0.053-0.157,0.053c-0.052,0-0.103,0-0.155-0.053
			c-0.052,0-0.105-0.061-0.165-0.112c-0.053-0.053-0.053-0.104-0.104-0.157c0-0.053-0.052-0.104-0.052-0.165
			c0-0.052,0-0.104,0.052-0.155c0-0.053,0.052-0.104,0.104-0.157c0.06-0.052,0.113-0.052,0.165-0.104
			c0.053,0,0.104-0.051,0.155-0.051c0.053,0,0.104,0,0.157,0.051c0.053,0,0.105,0.053,0.156,0.104
			c0.052,0.053,0.052,0.104,0.104,0.157C86.567,35.653,86.567,35.653,86.567,35.757z M86.412,36.868v3.545h-0.634v-3.545H86.412z"/>
	</g>
	<g>
		<path fill="#FFFFFE" d="M90.478,38.51v1.903H89.8v-5.021h1.477c0.312,0,0.572,0.052,0.843,0.104
			c0.218,0.052,0.424,0.156,0.582,0.32c0.155,0.157,0.26,0.313,0.362,0.479c0.054,0.208,0.105,0.416,0.105,0.625
			c0,0.217-0.052,0.425-0.105,0.643c-0.051,0.208-0.207,0.366-0.362,0.521c-0.158,0.156-0.364,0.261-0.582,0.321
			c-0.217,0.052-0.531,0.104-0.791,0.104H90.478z M90.478,37.981h0.799c0.207,0,0.365,0,0.521-0.052
			c0.156-0.053,0.268-0.106,0.372-0.21c0.104-0.104,0.167-0.207,0.218-0.321c0.051-0.104,0.051-0.261,0.051-0.426
			c0-0.312-0.102-0.573-0.319-0.729c-0.217-0.165-0.478-0.27-0.896-0.27h-0.799v2.007H90.478z"/>
		<path fill="#FFFFFE" d="M96.348,40.413h-0.27c-0.051,0-0.104,0-0.156-0.053c-0.059,0-0.059-0.052-0.059-0.104l-0.054-0.32
			c-0.104,0.111-0.209,0.163-0.26,0.217c-0.104,0.053-0.156,0.104-0.262,0.156c-0.104,0.052-0.208,0.104-0.313,0.104
			c-0.112,0-0.217,0.052-0.373,0.052c-0.165,0-0.27,0-0.372-0.052c-0.105-0.053-0.21-0.104-0.314-0.157
			c-0.104-0.051-0.156-0.157-0.209-0.32c-0.051-0.157-0.051-0.271-0.051-0.426c0-0.156,0.051-0.261,0.104-0.417
			c0.052-0.158,0.209-0.261,0.365-0.374c0.156-0.104,0.416-0.156,0.686-0.261c0.27-0.052,0.635-0.112,0.999-0.112v-0.261
			c0-0.262-0.051-0.47-0.157-0.626c-0.103-0.165-0.313-0.217-0.52-0.217c-0.157,0-0.27,0-0.374,0.052
			c-0.104,0.052-0.218,0.104-0.271,0.104c-0.051,0.061-0.155,0.114-0.207,0.114c-0.051,0.051-0.104,0.051-0.156,0.051
			c-0.054,0-0.054,0-0.104-0.051c-0.052,0-0.052-0.054-0.052-0.114l-0.104-0.208c0.207-0.218,0.417-0.322,0.624-0.425
			c0.218-0.104,0.487-0.157,0.747-0.157c0.21,0,0.365,0.053,0.523,0.104c0.163,0.054,0.269,0.156,0.373,0.261
			c0.112,0.104,0.216,0.27,0.268,0.426c0.053,0.165,0.104,0.373,0.104,0.531v2.483H96.348z M94.759,40.047
			c0.104,0,0.217,0,0.321-0.06c0.104,0,0.155-0.052,0.26-0.104c0.105-0.052,0.157-0.104,0.21-0.156
			c0.051-0.062,0.155-0.113,0.209-0.217v-0.73c-0.262,0-0.523,0-0.73,0.053c-0.218,0.051-0.373,0.103-0.487,0.155
			c-0.104,0.054-0.208,0.105-0.26,0.209c-0.051,0.104-0.104,0.157-0.104,0.262c0,0.103,0,0.155,0.054,0.269
			c0.051,0.052,0.051,0.104,0.103,0.156c0.053,0.053,0.104,0.053,0.155,0.104C94.603,39.987,94.655,40.047,94.759,40.047z"/>
		<path fill="#FFFFFE" d="M97.296,40.413v-3.545h0.372c0.053,0,0.104,0,0.156,0.053c0.052,0.052,0.052,0.052,0.052,0.155
			l0.053,0.592c0.105-0.27,0.261-0.426,0.47-0.592c0.164-0.155,0.373-0.208,0.642-0.208c0.104,0,0.209,0,0.262,0.053
			c0.104,0,0.155,0.052,0.207,0.104l-0.103,0.487c0,0.051-0.053,0.103-0.104,0.103c-0.053,0-0.104,0-0.157-0.052
			c-0.052,0-0.157-0.051-0.26-0.051c-0.218,0-0.436,0.051-0.54,0.207c-0.155,0.104-0.26,0.313-0.362,0.521v2.276h-0.687V40.413z"/>
		<path fill="#FFFFFE" d="M100.777,35.236v3.058h0.155c0.053,0,0.106,0,0.106,0c0.06,0,0.06-0.053,0.111-0.104l1.104-1.217
			c0.051-0.052,0.051-0.052,0.104-0.104c0.061,0,0.111-0.051,0.165-0.051h0.582l-1.319,1.372c-0.054,0.052-0.054,0.052-0.105,0.104
			c-0.053,0.052-0.053,0.052-0.104,0.112c0.052,0.052,0.104,0.052,0.104,0.104c0.052,0.053,0.052,0.053,0.105,0.104l1.37,1.746
			h-0.58c-0.053,0-0.106,0-0.106-0.052c-0.051,0-0.051-0.053-0.111-0.104l-1.155-1.486c-0.053-0.052-0.053-0.104-0.104-0.104
			c-0.06,0-0.113,0-0.166,0h-0.155v1.694h-0.626v-5.177h0.626V35.236z"/>
		<path fill="#FFFFFE" d="M105.746,35.393c0.051,0,0.051,0.052,0.103,0.104l2.902,3.804c0-0.052,0-0.104,0-0.155
			c0-0.053,0-0.104,0-0.158v-3.595h0.592v5.021h-0.375c-0.052,0-0.104,0-0.165-0.053c-0.052,0-0.052-0.052-0.104-0.104l-2.901-3.805
			c0,0.053,0,0.104,0,0.157s0,0.104,0,0.157v3.595h-0.581V35.34h0.373C105.693,35.393,105.746,35.393,105.746,35.393z"/>
		<path fill="#FFFFFE" d="M113.095,40.413h-0.271c-0.052,0-0.112,0-0.165-0.053c-0.052,0-0.052-0.052-0.052-0.104l-0.053-0.32
			c-0.103,0.111-0.208,0.163-0.262,0.217c-0.104,0.053-0.155,0.104-0.26,0.156c-0.104,0.052-0.209,0.104-0.32,0.104
			c-0.104,0-0.209,0.052-0.374,0.052c-0.157,0-0.261,0-0.365-0.052c-0.104-0.053-0.209-0.104-0.312-0.157
			c-0.104-0.051-0.157-0.157-0.218-0.32c-0.053-0.157-0.053-0.271-0.053-0.426c0-0.156,0.053-0.261,0.113-0.417
			c0.053-0.158,0.209-0.261,0.364-0.374c0.157-0.104,0.419-0.156,0.687-0.261c0.269-0.052,0.633-0.112,0.999-0.112v-0.261
			c0-0.262-0.052-0.47-0.155-0.626c-0.106-0.165-0.313-0.217-0.522-0.217c-0.164,0-0.269,0-0.373,0.052
			c-0.113,0.052-0.216,0.104-0.269,0.104c-0.054,0.061-0.157,0.114-0.209,0.114c-0.053,0.051-0.104,0.051-0.157,0.051
			c-0.052,0-0.052,0-0.104-0.051c-0.051,0-0.051-0.054-0.051-0.114l-0.104-0.208c0.208-0.218,0.417-0.322,0.626-0.425
			c0.216-0.104,0.478-0.157,0.747-0.157c0.206,0,0.364,0.053,0.521,0.104c0.156,0.054,0.27,0.156,0.374,0.261
			c0.104,0.104,0.218,0.27,0.27,0.426c0.051,0.165,0.104,0.373,0.104,0.531v2.483H113.095z M111.504,40.047
			c0.104,0,0.209,0,0.32-0.06c0.104,0,0.158-0.052,0.262-0.104c0.103-0.052,0.155-0.104,0.207-0.156
			c0.054-0.062,0.159-0.113,0.21-0.217v-0.73c-0.262,0-0.521,0-0.729,0.053c-0.218,0.051-0.383,0.103-0.485,0.155
			c-0.106,0.054-0.21,0.105-0.262,0.209c-0.053,0.104-0.104,0.157-0.104,0.262c0,0.103,0,0.155,0.052,0.269
			c0.053,0.052,0.053,0.104,0.104,0.156c0.052,0.053,0.104,0.053,0.157,0.104C111.339,39.987,111.391,40.047,111.504,40.047z"/>
		<path fill="#FFFFFE" d="M114.623,36.868v2.277c0,0.26,0.051,0.468,0.207,0.633c0.157,0.157,0.313,0.209,0.582,0.209
			c0.156,0,0.373-0.052,0.53-0.104c0.155-0.104,0.313-0.218,0.417-0.373v-2.642h0.643v3.545h-0.434
			c-0.106,0-0.158-0.053-0.158-0.104l-0.051-0.373c-0.157,0.163-0.313,0.32-0.521,0.425c-0.218,0.104-0.426,0.157-0.695,0.157
			c-0.207,0-0.364-0.053-0.52-0.104c-0.157-0.053-0.262-0.157-0.374-0.261c-0.105-0.105-0.157-0.27-0.208-0.426
			c-0.063-0.166-0.063-0.373-0.063-0.53v-2.328H114.623z"/>
		<path fill="#FFFFFE" d="M118.635,35.236v3.058h0.157c0.052,0,0.103,0,0.103,0c0.053,0,0.053-0.053,0.104-0.104l1.112-1.217
			c0.052-0.052,0.052-0.052,0.104-0.104c0.052,0,0.104-0.051,0.155-0.051h0.592l-1.321,1.372c-0.051,0.052-0.051,0.052-0.112,0.104
			c-0.053,0.052-0.053,0.052-0.104,0.112c0.052,0.052,0.104,0.052,0.104,0.104c0.062,0.053,0.062,0.053,0.112,0.104l1.373,1.746
			h-0.592c-0.052,0-0.103,0-0.103-0.052c-0.053,0-0.053-0.053-0.104-0.104l-1.164-1.486c-0.053-0.052-0.053-0.104-0.104-0.104
			c-0.053,0-0.104,0-0.155,0h-0.157v1.694h-0.633v-5.177h0.633V35.236z"/>
		<path fill="#FFFFFE" d="M122.855,36.766c0.269,0,0.478,0.052,0.694,0.103c0.21,0.104,0.365,0.208,0.522,0.374
			c0.155,0.156,0.26,0.373,0.313,0.581c0.061,0.209,0.112,0.471,0.112,0.739c0,0.27-0.052,0.53-0.112,0.738
			c-0.053,0.209-0.208,0.426-0.313,0.582c-0.104,0.164-0.313,0.27-0.522,0.373c-0.217,0.104-0.426,0.104-0.694,0.104
			c-0.26,0-0.469-0.052-0.677-0.104c-0.219-0.104-0.383-0.209-0.539-0.373c-0.155-0.156-0.262-0.373-0.313-0.582
			c-0.104-0.208-0.104-0.469-0.104-0.738c0-0.269,0.053-0.53,0.104-0.739c0.104-0.208,0.208-0.425,0.313-0.581
			c0.156-0.166,0.32-0.27,0.539-0.374C122.387,36.817,122.648,36.766,122.855,36.766z M122.855,39.987
			c0.373,0,0.644-0.104,0.799-0.374c0.158-0.208,0.261-0.572,0.261-0.999c0-0.425-0.103-0.737-0.261-0.999
			c-0.155-0.217-0.426-0.373-0.799-0.373c-0.156,0-0.312,0.052-0.469,0.104c-0.104,0.053-0.27,0.167-0.322,0.27
			c-0.104,0.104-0.155,0.262-0.207,0.417c-0.062,0.157-0.062,0.374-0.062,0.582c0,0.218,0,0.427,0.062,0.582
			c0.052,0.157,0.103,0.313,0.207,0.417c0.114,0.113,0.218,0.218,0.322,0.27C122.544,39.936,122.699,39.987,122.855,39.987z"/>
		<path fill="#FFFFFE" d="M124.872,36.868h0.467c0.053,0,0.104,0,0.104,0.053c0.053,0,0.053,0.052,0.053,0.104l0.695,2.275
			c0,0.104,0.052,0.157,0.052,0.26c0,0.104,0.051,0.166,0.051,0.218c0-0.113,0.054-0.165,0.054-0.218
			c0-0.051,0.051-0.155,0.051-0.26l0.739-2.328c0-0.052,0.052-0.052,0.052-0.104c0.053,0,0.053-0.051,0.104-0.051h0.269
			c0.053,0,0.104,0,0.104,0.051c0.051,0,0.051,0.053,0.051,0.104l0.74,2.328c0,0.104,0.051,0.157,0.051,0.26
			c0,0.104,0.053,0.166,0.053,0.218c0-0.052,0.063-0.165,0.063-0.269c0-0.104,0.052-0.156,0.052-0.209l0.677-2.275
			c0-0.053,0.053-0.053,0.053-0.104c0.052,0,0.052-0.053,0.103-0.053h0.487l-1.164,3.545h-0.478c-0.052,0-0.112-0.053-0.112-0.104
			l-0.781-2.432c0-0.054-0.054-0.105-0.054-0.157s0-0.104-0.053-0.156c0,0.052,0,0.104-0.06,0.156c0,0.052-0.052,0.104-0.052,0.157
			l-0.791,2.432c0,0.104-0.053,0.104-0.157,0.104h-0.478L124.872,36.868z"/>
		<path fill="#FFFFFE" d="M132.149,36.766c0.27,0,0.486,0.052,0.695,0.103c0.208,0.104,0.364,0.208,0.52,0.374
			c0.167,0.156,0.271,0.373,0.322,0.581c0.053,0.209,0.104,0.471,0.104,0.739c0,0.27-0.052,0.53-0.104,0.738
			c-0.052,0.209-0.218,0.426-0.322,0.582c-0.103,0.164-0.312,0.27-0.52,0.373c-0.209,0.104-0.426,0.104-0.695,0.104
			c-0.261,0-0.469-0.052-0.678-0.104c-0.208-0.104-0.374-0.209-0.53-0.373c-0.165-0.156-0.27-0.373-0.321-0.582
			c-0.104-0.208-0.104-0.469-0.104-0.738c0-0.269,0.051-0.53,0.104-0.739c0.104-0.208,0.209-0.425,0.321-0.581
			c0.156-0.166,0.322-0.27,0.53-0.374C131.681,36.817,131.889,36.766,132.149,36.766z M132.149,39.987
			c0.382,0,0.643-0.104,0.798-0.374c0.157-0.208,0.262-0.572,0.262-0.999c0-0.425-0.104-0.737-0.262-0.999
			c-0.155-0.217-0.416-0.373-0.798-0.373c-0.156,0-0.313,0.052-0.469,0.104c-0.106,0.053-0.262,0.167-0.313,0.27
			c-0.104,0.104-0.165,0.262-0.218,0.417c-0.052,0.157-0.052,0.374-0.052,0.582c0,0.218,0,0.427,0.052,0.582
			c0.053,0.157,0.114,0.313,0.218,0.417c0.104,0.113,0.207,0.218,0.313,0.27C131.836,39.936,131.993,39.987,132.149,39.987z"/>
		<path fill="#FFFFFE" d="M134.477,38.032h1.746v0.53h-1.746V38.032z"/>
		<path fill="#FFFFFE" d="M139.975,35.393v0.582h-1.642v4.49h-0.686v-4.49h-1.643v-0.582H139.975z"/>
		<path fill="#FFFFFE" d="M141.295,36.766c0.208,0,0.426,0.052,0.582,0.103c0.155,0.053,0.313,0.157,0.469,0.322
			c0.104,0.155,0.218,0.322,0.321,0.478c0.104,0.155,0.104,0.417,0.104,0.678c0,0.112,0,0.164-0.053,0.217
			c-0.052,0.052-0.052,0.052-0.103,0.052h-2.382c0,0.218,0.062,0.427,0.114,0.582c0.052,0.157,0.155,0.313,0.208,0.417
			c0.104,0.113,0.209,0.218,0.364,0.27c0.156,0.053,0.261,0.104,0.478,0.104c0.156,0,0.322,0,0.427-0.052
			c0.103-0.053,0.207-0.053,0.312-0.104c0.104-0.053,0.157-0.104,0.209-0.104c0.053-0.062,0.104-0.062,0.155-0.062
			c0.063,0,0.115,0,0.115,0.062l0.155,0.209c-0.053,0.111-0.155,0.163-0.271,0.27c-0.103,0.104-0.207,0.104-0.364,0.155
			c-0.104,0.053-0.26,0.053-0.364,0.104c-0.104,0-0.27,0.053-0.374,0.053c-0.269,0-0.478-0.053-0.686-0.104
			c-0.209-0.104-0.364-0.208-0.529-0.366c-0.157-0.164-0.271-0.382-0.375-0.589c-0.103-0.209-0.103-0.523-0.103-0.791
			c0-0.261,0.051-0.478,0.103-0.686c0.053-0.21,0.218-0.418,0.322-0.583c0.165-0.156,0.321-0.261,0.53-0.373
			C140.868,36.921,141.025,36.766,141.295,36.766z M141.295,37.242c-0.322,0-0.529,0.104-0.738,0.271
			c-0.156,0.155-0.261,0.417-0.322,0.729h1.956c0-0.156,0-0.26-0.054-0.418c-0.052-0.104-0.104-0.208-0.156-0.311
			c-0.053-0.114-0.155-0.167-0.26-0.219C141.555,37.294,141.398,37.242,141.295,37.242z"/>
		<path fill="#FFFFFE" d="M145.993,37.513l-0.052,0.051c0,0-0.053,0-0.104,0c-0.053,0-0.053,0-0.104-0.051
			c-0.052-0.054-0.104-0.054-0.156-0.114c-0.053-0.053-0.166-0.053-0.218-0.104c-0.053-0.052-0.218-0.052-0.322-0.052
			c-0.155,0-0.313,0.052-0.468,0.104c-0.156,0.053-0.261,0.167-0.313,0.27c-0.051,0.104-0.164,0.262-0.218,0.417
			c-0.051,0.157-0.051,0.374-0.051,0.582c0,0.218,0,0.427,0.051,0.582c0.054,0.157,0.106,0.313,0.218,0.417
			c0.104,0.113,0.209,0.218,0.313,0.27c0.104,0.053,0.26,0.104,0.417,0.104c0.155,0,0.269,0,0.373-0.052
			c0.104-0.053,0.165-0.053,0.27-0.104c0.053-0.053,0.104-0.104,0.155-0.104c0.053-0.062,0.104-0.062,0.104-0.062
			c0.053,0,0.104,0,0.104,0.062l0.155,0.209c-0.155,0.217-0.364,0.32-0.571,0.425c-0.218,0.104-0.487,0.104-0.748,0.104
			c-0.207,0-0.416-0.052-0.624-0.104c-0.218-0.052-0.383-0.208-0.487-0.373c-0.155-0.156-0.26-0.374-0.313-0.582
			c-0.104-0.209-0.104-0.471-0.104-0.791c0-0.269,0.053-0.529,0.104-0.737c0.053-0.209,0.157-0.418,0.313-0.583
			c0.165-0.156,0.32-0.269,0.538-0.373c0.209-0.104,0.417-0.155,0.73-0.155c0.269,0,0.478,0.052,0.695,0.103
			c0.207,0.104,0.364,0.208,0.52,0.322L145.993,37.513z"/>
		<path fill="#FFFFFE" d="M146.844,40.413v-5.177h0.627v2.109c0.156-0.155,0.319-0.32,0.53-0.373
			c0.164-0.104,0.424-0.155,0.633-0.155s0.364,0.051,0.529,0.104c0.157,0.052,0.271,0.155,0.375,0.27
			c0.103,0.104,0.155,0.269,0.207,0.425c0.053,0.156,0.053,0.366,0.053,0.521v2.276h-0.635v-2.276c0-0.26-0.052-0.469-0.165-0.624
			c-0.104-0.167-0.313-0.219-0.573-0.219c-0.155,0-0.373,0.052-0.528,0.165c-0.165,0.104-0.322,0.209-0.426,0.364v2.642h-0.627
			V40.413z"/>
		<path fill="#FFFFFE" d="M150.753,40.413v-3.545h0.364c0.104,0,0.157,0.053,0.157,0.104l0.052,0.373
			c0.155-0.155,0.322-0.32,0.53-0.425c0.217-0.104,0.425-0.155,0.687-0.155c0.209,0,0.364,0.052,0.528,0.103
			c0.158,0.053,0.27,0.157,0.374,0.27c0.104,0.104,0.156,0.261,0.209,0.426c0.052,0.156,0.052,0.366,0.052,0.521v2.275h-0.635
			v-2.275c0-0.262-0.052-0.47-0.164-0.626c-0.104-0.165-0.313-0.217-0.574-0.217c-0.156,0-0.364,0.052-0.529,0.156
			c-0.155,0.114-0.322,0.217-0.425,0.373v2.642H150.753L150.753,40.413z"/>
		<path fill="#FFFFFE" d="M156.085,36.766c0.261,0,0.471,0.052,0.679,0.103c0.218,0.104,0.381,0.208,0.538,0.374
			c0.155,0.156,0.26,0.373,0.313,0.581c0.054,0.209,0.105,0.471,0.105,0.739c0,0.27-0.052,0.53-0.105,0.738
			c-0.053,0.209-0.208,0.426-0.313,0.582c-0.104,0.164-0.32,0.27-0.538,0.373c-0.208,0.104-0.418,0.104-0.679,0.104
			c-0.268,0-0.477-0.052-0.693-0.104c-0.209-0.104-0.365-0.209-0.521-0.373c-0.156-0.156-0.261-0.373-0.313-0.582
			c-0.112-0.208-0.112-0.469-0.112-0.738c0-0.269,0.052-0.53,0.112-0.739c0.104-0.208,0.209-0.425,0.313-0.581
			c0.156-0.166,0.313-0.27,0.521-0.374C155.608,36.817,155.817,36.766,156.085,36.766z M156.085,39.987
			c0.365,0,0.626-0.104,0.79-0.374c0.157-0.208,0.27-0.572,0.27-0.999c0-0.425-0.112-0.737-0.27-0.999
			c-0.164-0.217-0.425-0.373-0.79-0.373c-0.155,0-0.32,0.052-0.477,0.104c-0.113,0.053-0.271,0.167-0.322,0.27
			c-0.104,0.104-0.155,0.262-0.208,0.417c-0.052,0.157-0.052,0.374-0.052,0.582c0,0.218,0,0.427,0.052,0.582
			c0.053,0.157,0.104,0.313,0.208,0.417c0.105,0.113,0.209,0.218,0.322,0.27C155.765,39.936,155.93,39.987,156.085,39.987z"/>
		<path fill="#FFFFFE" d="M159.247,35.236v5.177h-0.626v-5.177H159.247z"/>
		<path fill="#FFFFFE" d="M161.782,36.766c0.271,0,0.479,0.052,0.695,0.103c0.209,0.104,0.364,0.208,0.522,0.374
			c0.155,0.156,0.26,0.373,0.321,0.581c0.052,0.209,0.104,0.471,0.104,0.739c0,0.27-0.053,0.53-0.104,0.738
			c-0.062,0.209-0.218,0.426-0.321,0.582c-0.105,0.164-0.313,0.27-0.522,0.373c-0.216,0.104-0.425,0.104-0.695,0.104
			c-0.26,0-0.469-0.052-0.677-0.104c-0.217-0.104-0.372-0.209-0.539-0.373c-0.155-0.156-0.26-0.373-0.313-0.582
			c-0.103-0.208-0.103-0.469-0.103-0.738c0-0.269,0.052-0.53,0.103-0.739c0.104-0.208,0.209-0.425,0.313-0.581
			c0.167-0.166,0.322-0.27,0.539-0.374C161.313,36.817,161.522,36.766,161.782,36.766z M161.782,39.987
			c0.373,0,0.644-0.104,0.802-0.374c0.155-0.208,0.258-0.572,0.258-0.999c0-0.425-0.103-0.737-0.258-0.999
			c-0.158-0.217-0.429-0.373-0.802-0.373c-0.155,0-0.312,0.052-0.469,0.104c-0.103,0.053-0.26,0.167-0.32,0.27
			c-0.104,0.104-0.157,0.262-0.209,0.417c-0.051,0.157-0.051,0.374-0.051,0.582c0,0.218,0,0.427,0.051,0.582
			c0.052,0.157,0.104,0.313,0.209,0.417c0.112,0.113,0.218,0.218,0.32,0.27C161.471,39.936,161.627,39.987,161.782,39.987z"/>
		<path fill="#FFFFFE" d="M165.432,36.766c0.156,0,0.313,0,0.417,0.052c0.165,0.051,0.268,0.104,0.381,0.155h0.939v0.218
			c0,0.052-0.052,0.104-0.158,0.155l-0.417,0.053c0.104,0.165,0.104,0.321,0.104,0.531c0,0.155-0.052,0.312-0.104,0.477
			c-0.051,0.156-0.155,0.261-0.26,0.373c-0.104,0.104-0.269,0.155-0.425,0.208c-0.165,0.054-0.321,0.105-0.53,0.105
			c-0.156,0-0.312,0-0.478-0.052c-0.052,0.052-0.104,0.104-0.156,0.155c-0.053,0.053-0.053,0.104-0.053,0.157
			c0,0.104,0.053,0.156,0.104,0.207c0.053,0.053,0.166,0.053,0.271,0.104c0.103,0,0.26,0.062,0.364,0.062c0.103,0,0.26,0,0.417,0
			c0.165,0,0.32,0,0.434,0.052c0.156,0,0.261,0.053,0.364,0.104c0.105,0.053,0.209,0.164,0.261,0.27
			c0.053,0.104,0.104,0.261,0.104,0.417c0,0.155-0.051,0.313-0.104,0.426c-0.052,0.155-0.209,0.26-0.313,0.372
			c-0.155,0.104-0.312,0.21-0.528,0.261c-0.217,0.054-0.427,0.104-0.687,0.104s-0.478,0-0.687-0.051
			c-0.216-0.054-0.373-0.104-0.478-0.21c-0.103-0.104-0.209-0.217-0.26-0.321c-0.052-0.104-0.104-0.217-0.104-0.373
			c0-0.157,0.053-0.313,0.155-0.417c0.106-0.104,0.262-0.208,0.471-0.313c-0.104-0.06-0.157-0.111-0.262-0.216
			c-0.103-0.104-0.103-0.166-0.103-0.321c0-0.052,0-0.104,0.051-0.156c0-0.053,0.052-0.104,0.104-0.157
			c0.052-0.051,0.104-0.104,0.156-0.155c0.053-0.054,0.104-0.106,0.217-0.106c-0.164-0.103-0.321-0.216-0.426-0.372
			c-0.103-0.156-0.156-0.373-0.156-0.581c0-0.158,0.054-0.313,0.104-0.469c0.052-0.167,0.156-0.271,0.261-0.375
			c0.104-0.112,0.269-0.165,0.426-0.217C165.067,36.817,165.274,36.766,165.432,36.766z M166.543,40.569
			c0-0.104,0-0.156-0.052-0.209c-0.053-0.052-0.104-0.104-0.209-0.104c-0.113-0.051-0.166-0.051-0.321-0.051
			c-0.112,0-0.217,0-0.373,0c-0.104,0-0.261,0-0.365,0c-0.104,0-0.26,0-0.373-0.053c-0.157,0.053-0.27,0.156-0.322,0.208
			c-0.104,0.104-0.104,0.209-0.104,0.313c0,0.104,0,0.156,0.053,0.209c0.051,0.052,0.104,0.113,0.216,0.165
			c0.104,0.053,0.209,0.104,0.322,0.104c0.104,0.052,0.26,0.052,0.469,0.052c0.155,0,0.313,0,0.478-0.052
			c0.155-0.051,0.269-0.051,0.321-0.155c0.104-0.062,0.156-0.113,0.209-0.218C166.543,40.777,166.543,40.673,166.543,40.569z
			 M165.432,38.667c0.103,0,0.26,0,0.313-0.053c0.104-0.052,0.165-0.104,0.27-0.156c0.103-0.052,0.103-0.164,0.155-0.217
			c0.061-0.104,0.061-0.156,0.061-0.26c0-0.21-0.061-0.366-0.216-0.522c-0.165-0.165-0.322-0.217-0.582-0.217
			c-0.262,0-0.417,0.052-0.582,0.217c-0.157,0.156-0.209,0.313-0.209,0.522c0,0.104,0,0.208,0.052,0.26
			c0.053,0.104,0.104,0.165,0.157,0.217c0.052,0.052,0.165,0.104,0.27,0.156C165.223,38.667,165.327,38.667,165.432,38.667z"/>
		<path fill="#FFFFFE" d="M168.706,35.705c0,0.052,0,0.112-0.053,0.164c-0.052,0.053-0.052,0.105-0.104,0.157
			c-0.052,0.053-0.112,0.053-0.165,0.104c-0.051,0-0.103,0.061-0.156,0.061c-0.053,0-0.104,0-0.156-0.061
			c-0.052,0-0.104-0.052-0.155-0.104c-0.052-0.052-0.052-0.104-0.105-0.157c0-0.052-0.053-0.112-0.053-0.164s0-0.104,0.053-0.156
			c0-0.052,0.054-0.104,0.105-0.156c0.051-0.053,0.104-0.053,0.155-0.104c0.053,0,0.104-0.053,0.156-0.053
			c0.054,0,0.105,0,0.156,0.053c0.053,0,0.113,0.051,0.165,0.104c0.053,0.052,0.053,0.104,0.104,0.156
			C168.706,35.602,168.706,35.653,168.706,35.705z M168.549,36.868v3.545h-0.633v-3.545H168.549z"/>
		<path fill="#FFFFFE" d="M172.085,37.513l-0.052,0.051c0,0-0.054,0-0.106,0c-0.052,0-0.052,0-0.104-0.051
			c-0.052-0.054-0.104-0.054-0.156-0.114c-0.053-0.053-0.155-0.053-0.208-0.104c-0.052-0.052-0.218-0.052-0.322-0.052
			c-0.163,0-0.321,0.052-0.477,0.104c-0.157,0.053-0.261,0.167-0.313,0.27c-0.053,0.104-0.157,0.262-0.208,0.417
			c-0.062,0.157-0.062,0.374-0.062,0.582c0,0.218,0,0.427,0.062,0.582c0.051,0.157,0.104,0.313,0.208,0.417
			c0.103,0.113,0.207,0.218,0.313,0.27c0.104,0.053,0.261,0.104,0.425,0.104c0.156,0,0.262,0,0.374-0.052
			c0.104-0.053,0.155-0.053,0.26-0.104c0.053-0.053,0.104-0.104,0.156-0.104c0.052-0.062,0.104-0.062,0.104-0.062
			c0.054,0,0.105,0,0.105,0.062l0.155,0.209c-0.155,0.217-0.365,0.32-0.573,0.425s-0.478,0.104-0.746,0.104
			c-0.209,0-0.418-0.052-0.626-0.104c-0.217-0.052-0.373-0.208-0.478-0.373c-0.165-0.156-0.27-0.374-0.321-0.582
			c-0.104-0.209-0.104-0.471-0.104-0.791c0-0.269,0.051-0.529,0.104-0.737c0.052-0.209,0.156-0.418,0.321-0.583
			c0.155-0.156,0.322-0.269,0.53-0.373c0.207-0.104,0.417-0.155,0.737-0.155c0.262,0,0.478,0.052,0.687,0.103
			c0.208,0.104,0.366,0.208,0.521,0.322L172.085,37.513z"/>
		<path fill="#FFFFFE" d="M175.42,37.138c0,0.053,0,0.104,0,0.104c0,0.052-0.054,0.052-0.054,0.104l-1.909,2.59h1.963v0.478h-2.693
			v-0.261c0-0.054,0-0.054,0-0.105c0-0.06,0.054-0.111,0.054-0.111l1.945-2.59h-1.895v-0.478h2.64v0.27H175.42z"/>
		<path fill="#FFFFFE" d="M176.147,40.413v-3.545h0.375c0.112,0,0.165,0.053,0.165,0.104l0.052,0.373
			c0.156-0.155,0.313-0.32,0.521-0.425c0.21-0.104,0.428-0.155,0.694-0.155c0.21,0,0.366,0.052,0.523,0.103
			c0.155,0.053,0.26,0.157,0.364,0.27c0.113,0.104,0.165,0.261,0.218,0.426c0.051,0.156,0.051,0.366,0.051,0.521v2.275h-0.633
			v-2.275c0-0.262-0.053-0.47-0.157-0.626c-0.104-0.165-0.313-0.217-0.582-0.217c-0.156,0-0.373,0.052-0.531,0.156
			c-0.155,0.114-0.312,0.217-0.415,0.373v2.642H176.147L176.147,40.413z"/>
		<path fill="#FFFFFE" d="M181.013,41.472c0,0.053-0.052,0.105-0.052,0.105c-0.053,0.051-0.104,0.051-0.157,0.051h-0.478
			l0.635-1.423l-1.477-3.337h0.521c0.051,0,0.103,0,0.103,0.053c0.063,0.052,0.063,0.052,0.063,0.104l0.946,2.224
			c0,0.052,0.053,0.104,0.053,0.156c0,0.053,0.051,0.104,0.051,0.155c0-0.051,0.052-0.103,0.052-0.155
			c0-0.052,0.053-0.104,0.053-0.156l0.956-2.224c0-0.053,0.053-0.053,0.053-0.104c0.051,0,0.051-0.053,0.103-0.053h0.478
			L181.013,41.472z"/>
	</g>
</g>
<g>
	<path fill="#FFFFFE" d="M150.267,26.888c0.321,0,0.591-0.051,0.851-0.104c0.262-0.052,0.469-0.165,0.687-0.27v-1.372h-0.946
		c-0.104,0-0.157,0-0.218-0.051c-0.052-0.053-0.104-0.105-0.104-0.209v-0.799h2.536v3.126c-0.217,0.158-0.426,0.261-0.581,0.366
		c-0.209,0.104-0.417,0.208-0.687,0.26c-0.27,0.053-0.478,0.104-0.739,0.156c-0.26,0.061-0.58,0.061-0.902,0.061
		c-0.572,0-1.051-0.113-1.528-0.321c-0.469-0.209-0.902-0.47-1.217-0.79c-0.312-0.374-0.624-0.738-0.791-1.216
		c-0.214-0.478-0.267-0.999-0.267-1.58c0-0.582,0.111-1.113,0.267-1.589c0.218-0.469,0.479-0.894,0.791-1.216
		c0.373-0.365,0.748-0.626,1.269-0.791c0.478-0.208,1.06-0.261,1.632-0.261c0.645,0,1.164,0.104,1.651,0.261
		c0.469,0.216,0.835,0.425,1.156,0.738l-0.427,0.642c-0.104,0.105-0.208,0.209-0.312,0.209c-0.105,0-0.158-0.052-0.263-0.104
		c-0.103-0.053-0.217-0.166-0.373-0.217c-0.165-0.052-0.27-0.104-0.372-0.155c-0.157-0.053-0.314-0.105-0.47-0.105
		c-0.156-0.062-0.374-0.062-0.643-0.062c-0.364,0-0.729,0.062-0.999,0.218c-0.321,0.104-0.582,0.322-0.791,0.53
		c-0.207,0.208-0.364,0.521-0.476,0.841c-0.104,0.322-0.157,0.687-0.157,1.112c0,0.426,0.053,0.843,0.208,1.156
		c0.167,0.321,0.322,0.643,0.529,0.852c0.21,0.207,0.479,0.416,0.8,0.528C149.59,26.837,149.902,26.888,150.267,26.888z"/>
	<path fill="#FFFFFE" d="M163.321,24.146c0,0.581-0.113,1.05-0.269,1.528c-0.211,0.477-0.469,0.895-0.791,1.215
		c-0.321,0.322-0.739,0.583-1.208,0.792c-0.487,0.208-1.007,0.259-1.589,0.259h-2.909v-7.652h2.909c0.582,0,1.102,0.104,1.589,0.261
		c0.469,0.216,0.887,0.478,1.208,0.791c0.322,0.322,0.58,0.747,0.791,1.216C163.26,23.033,163.321,23.563,163.321,24.146z
		 M161.889,24.146c0-0.427-0.053-0.791-0.158-1.113c-0.104-0.321-0.26-0.633-0.468-0.842c-0.209-0.208-0.479-0.425-0.747-0.528
		c-0.313-0.105-0.626-0.218-0.999-0.218h-1.484v5.393h1.484c0.373,0,0.687-0.052,0.999-0.217c0.32-0.105,0.538-0.313,0.747-0.522
		c0.208-0.208,0.364-0.528,0.468-0.85C161.836,24.935,161.889,24.57,161.889,24.146z"/>
	<path fill="#FFFFFE" d="M169.548,24.987v2.953h-1.424v-2.953l-2.797-4.699h1.267c0.104,0,0.209,0.053,0.313,0.104
		c0.053,0.052,0.156,0.157,0.156,0.218l1.434,2.527c0.104,0.165,0.156,0.321,0.209,0.426c0.052,0.155,0.111,0.26,0.164,0.417
		c0.052-0.158,0.104-0.262,0.158-0.417c0.051-0.157,0.103-0.262,0.207-0.426l1.372-2.527c0.053-0.061,0.104-0.166,0.157-0.218
		c0.051-0.051,0.156-0.104,0.312-0.104h1.268L169.548,24.987z"/>
	<path fill="#FFFFFE" d="M176.097,20.288c0.051,0,0.104,0,0.104,0.053c0.053,0,0.053,0.051,0.112,0.051
		c0.052,0.052,0.052,0.052,0.104,0.105l4.013,5.123c0-0.104,0-0.269-0.052-0.373c0-0.104,0-0.208,0-0.313v-4.647h1.267v7.652h-0.737
		c-0.104,0-0.207,0-0.26-0.051c-0.052-0.053-0.157-0.104-0.218-0.208l-4.013-5.125c0,0.103,0,0.208,0,0.321c0,0.104,0,0.208,0,0.322
		v4.69h-1.215v-7.661h0.737C175.992,20.288,176.045,20.288,176.097,20.288z"/>
	<path fill="#FFFFFE" d="M186.928,27.94h-1.426v-7.652h1.426V27.94z"/>
	<path fill="#FFFFFE" d="M197.497,27.94h-1.111c-0.104,0-0.208-0.051-0.313-0.104c-0.113-0.052-0.165-0.155-0.165-0.209l-0.582-1.58
		h-3.162l-0.59,1.58c-0.053,0.105-0.104,0.157-0.157,0.209c-0.104,0.053-0.208,0.104-0.313,0.104h-1.111l3.006-7.652h1.485
		L197.497,27.94z M192.53,25.04h2.431l-0.954-2.537c-0.053-0.104-0.106-0.26-0.157-0.416c-0.053-0.157-0.104-0.321-0.155-0.478
		c-0.053,0.157-0.104,0.373-0.157,0.53c-0.054,0.155-0.112,0.313-0.165,0.417L192.53,25.04z"/>
</g>
<g enable-background="new    ">
	<path fill="#3FB6A8" d="M64.078,26.968c0.187,0,0.335,0.052,0.447,0.156c0.109,0.104,0.165,0.244,0.165,0.408v1.025h-5.81v-0.574
		c0-0.104,0.027-0.225,0.069-0.347c0.043-0.122,0.127-0.234,0.24-0.338l2.379-2.397c0.205-0.208,0.382-0.4,0.535-0.59
		c0.152-0.183,0.278-0.365,0.374-0.547c0.1-0.174,0.173-0.356,0.221-0.539c0.052-0.174,0.073-0.364,0.073-0.565
		c0-0.33-0.078-0.581-0.233-0.755c-0.157-0.182-0.396-0.269-0.717-0.269c-0.261,0-0.482,0.069-0.66,0.208
		c-0.183,0.139-0.305,0.313-0.375,0.512c-0.078,0.209-0.182,0.347-0.313,0.418c-0.125,0.069-0.312,0.077-0.546,0.043l-0.935-0.166
		c0.062-0.408,0.179-0.773,0.353-1.077c0.169-0.303,0.386-0.564,0.639-0.764c0.255-0.208,0.546-0.357,0.876-0.461
		c0.33-0.095,0.682-0.146,1.06-0.146c0.408,0,0.777,0.061,1.103,0.181c0.33,0.115,0.608,0.279,0.838,0.497
		c0.231,0.208,0.408,0.46,0.531,0.755c0.121,0.294,0.181,0.616,0.181,0.964c0,0.305-0.038,0.582-0.125,0.842
		c-0.083,0.252-0.201,0.504-0.348,0.73c-0.148,0.235-0.322,0.459-0.513,0.677c-0.195,0.218-0.405,0.435-0.62,0.661l-1.62,1.658
		c0.208-0.069,0.417-0.112,0.621-0.147c0.205-0.035,0.391-0.052,0.565-0.052H64.078z"/>
	<path fill="#3FB6A8" d="M69.75,23.199c0.155-0.027,0.305-0.052,0.447-0.062c0.143-0.009,0.282-0.018,0.421-0.018
		c0.435,0,0.816,0.071,1.151,0.201c0.33,0.13,0.607,0.313,0.833,0.538c0.227,0.234,0.4,0.505,0.522,0.809
		c0.112,0.312,0.173,0.642,0.173,0.989c0,0.443-0.086,0.844-0.242,1.208c-0.157,0.373-0.373,0.687-0.651,0.947
		c-0.279,0.27-0.614,0.47-1,0.618c-0.391,0.147-0.813,0.217-1.276,0.217c-0.27,0-0.522-0.025-0.769-0.087
		c-0.243-0.052-0.469-0.13-0.686-0.226c-0.213-0.095-0.408-0.208-0.592-0.339c-0.181-0.122-0.348-0.26-0.495-0.4l0.547-0.729
		c0.058-0.078,0.123-0.13,0.197-0.172c0.078-0.036,0.155-0.062,0.247-0.062c0.113,0,0.216,0.035,0.318,0.095
		c0.098,0.061,0.212,0.131,0.328,0.209c0.119,0.069,0.257,0.138,0.417,0.199c0.162,0.062,0.356,0.087,0.591,0.087
		s0.434-0.035,0.6-0.113c0.168-0.077,0.302-0.182,0.408-0.322c0.104-0.13,0.177-0.286,0.225-0.469
		c0.048-0.183,0.07-0.373,0.07-0.574c0-0.399-0.112-0.703-0.337-0.92c-0.227-0.208-0.549-0.313-0.965-0.313
		c-0.374,0-0.734,0.069-1.091,0.209l-1.09-0.295l0.704-4.135h4.229v0.729c0,0.122-0.018,0.236-0.051,0.332
		c-0.036,0.095-0.104,0.181-0.182,0.26c-0.079,0.069-0.183,0.131-0.322,0.165c-0.13,0.044-0.295,0.061-0.469,0.061h-1.98
		L69.75,23.199z"/>
	<path fill="#3FB6A8" d="M76.268,27.662c0-0.13,0.035-0.26,0.087-0.382c0.052-0.113,0.122-0.216,0.208-0.304
		s0.191-0.157,0.313-0.208c0.122-0.044,0.251-0.07,0.4-0.07c0.139,0,0.259,0.026,0.382,0.07c0.122,0.051,0.225,0.12,0.321,0.208
		c0.096,0.088,0.165,0.191,0.217,0.304c0.052,0.123,0.069,0.252,0.069,0.382c0,0.139-0.018,0.27-0.069,0.383
		c-0.052,0.122-0.121,0.226-0.217,0.312c-0.097,0.088-0.199,0.157-0.321,0.2c-0.123,0.052-0.243,0.078-0.382,0.078
		c-0.148,0-0.278-0.025-0.4-0.078c-0.121-0.043-0.226-0.112-0.313-0.2c-0.086-0.086-0.156-0.19-0.208-0.312
		C76.302,27.932,76.268,27.801,76.268,27.662z"/>
	<path fill="#3FB6A8" d="M87.091,24.423c0,0.721-0.08,1.346-0.235,1.877c-0.156,0.528-0.374,0.962-0.644,1.31
		c-0.269,0.348-0.599,0.608-0.98,0.782c-0.365,0.166-0.782,0.252-1.216,0.252c-0.436,0-0.852-0.087-1.217-0.252
		c-0.374-0.174-0.695-0.434-0.973-0.782c-0.269-0.348-0.486-0.782-0.634-1.31c-0.147-0.531-0.235-1.156-0.235-1.877
		c0-0.72,0.088-1.347,0.235-1.876c0.147-0.53,0.365-0.973,0.634-1.321c0.277-0.346,0.599-0.606,0.973-0.773
		c0.365-0.165,0.781-0.25,1.217-0.25c0.434,0,0.851,0.086,1.216,0.25c0.382,0.167,0.712,0.427,0.98,0.773
		c0.27,0.348,0.487,0.791,0.644,1.321C87.011,23.076,87.091,23.703,87.091,24.423z M85.274,24.423c0-0.574-0.043-1.042-0.113-1.408
		c-0.069-0.364-0.165-0.651-0.277-0.859c-0.121-0.209-0.261-0.348-0.409-0.425c-0.148-0.078-0.304-0.114-0.459-0.114
		c-0.156,0-0.313,0.036-0.453,0.114c-0.155,0.077-0.285,0.216-0.398,0.425c-0.121,0.208-0.208,0.495-0.278,0.859
		c-0.07,0.365-0.104,0.833-0.104,1.408c0,0.573,0.033,1.042,0.104,1.408c0.07,0.355,0.157,0.642,0.278,0.86
		c0.113,0.207,0.243,0.347,0.398,0.425c0.14,0.079,0.297,0.12,0.453,0.12c0.155,0,0.311-0.042,0.459-0.12
		c0.148-0.078,0.288-0.218,0.409-0.425c0.112-0.218,0.208-0.504,0.277-0.86C85.231,25.465,85.274,24.996,85.274,24.423z"/>
	<path fill="#3FB6A8" d="M95.394,27.28v1.277h-4.709V27.28h1.582v-4.161c0-0.112,0-0.215,0.008-0.32c0-0.113,0.009-0.218,0.009-0.33
		l-0.938,0.782c-0.079,0.069-0.155,0.104-0.243,0.12c-0.088,0.009-0.155,0.009-0.227,0c-0.079-0.017-0.138-0.042-0.191-0.078
		c-0.06-0.035-0.104-0.069-0.13-0.112l-0.556-0.729l2.579-2.164h1.442v6.992H95.394z"/>
	<path fill="#3FB6A8" d="M98.468,27.662c0-0.13,0.025-0.26,0.078-0.382c0.051-0.113,0.121-0.216,0.209-0.304
		c0.095-0.088,0.199-0.157,0.319-0.208c0.123-0.044,0.244-0.07,0.391-0.07c0.141,0,0.271,0.026,0.392,0.07
		c0.122,0.051,0.227,0.12,0.313,0.208c0.098,0.088,0.175,0.191,0.218,0.304c0.052,0.123,0.079,0.252,0.079,0.382
		c0,0.139-0.027,0.27-0.079,0.383c-0.043,0.122-0.12,0.226-0.218,0.312c-0.086,0.088-0.19,0.157-0.313,0.2
		c-0.121,0.052-0.251,0.078-0.392,0.078c-0.146,0-0.268-0.025-0.391-0.078c-0.12-0.043-0.225-0.112-0.319-0.2
		c-0.088-0.086-0.158-0.19-0.209-0.312C98.493,27.932,98.468,27.801,98.468,27.662z"/>
	<path fill="#3FB6A8" d="M108.473,26.968c0.191,0,0.33,0.052,0.451,0.156c0.105,0.104,0.157,0.244,0.157,0.408v1.025h-5.802v-0.574
		c0-0.104,0.019-0.225,0.069-0.347c0.034-0.122,0.121-0.234,0.233-0.338l2.382-2.397c0.197-0.208,0.383-0.4,0.529-0.59
		c0.155-0.183,0.278-0.365,0.382-0.547c0.096-0.174,0.173-0.356,0.217-0.539c0.053-0.174,0.078-0.364,0.078-0.565
		c0-0.33-0.086-0.581-0.243-0.755c-0.155-0.182-0.392-0.269-0.713-0.269c-0.259,0-0.485,0.069-0.659,0.208
		c-0.184,0.139-0.304,0.313-0.372,0.512c-0.081,0.209-0.184,0.347-0.314,0.418c-0.131,0.069-0.312,0.077-0.548,0.043l-0.938-0.166
		c0.07-0.408,0.182-0.773,0.357-1.077c0.163-0.303,0.39-0.564,0.633-0.764c0.261-0.208,0.557-0.357,0.887-0.461
		c0.329-0.095,0.677-0.146,1.06-0.146c0.399,0,0.772,0.061,1.094,0.181c0.33,0.115,0.607,0.279,0.843,0.497
		c0.234,0.208,0.408,0.46,0.53,0.755c0.121,0.294,0.182,0.616,0.182,0.964c0,0.305-0.044,0.582-0.131,0.842
		c-0.078,0.252-0.189,0.504-0.347,0.73c-0.14,0.235-0.312,0.459-0.504,0.677c-0.2,0.218-0.408,0.435-0.626,0.661l-1.614,1.658
		c0.209-0.069,0.415-0.112,0.615-0.147c0.199-0.035,0.392-0.052,0.565-0.052H108.473z"/>
	<path fill="#3FB6A8" d="M117.974,24.423c0,0.721-0.077,1.346-0.233,1.877c-0.156,0.528-0.374,0.962-0.643,1.31
		c-0.27,0.348-0.599,0.608-0.981,0.782c-0.364,0.166-0.783,0.252-1.217,0.252s-0.852-0.087-1.216-0.252
		c-0.373-0.174-0.695-0.434-0.972-0.782c-0.271-0.348-0.487-0.782-0.635-1.31c-0.148-0.531-0.234-1.156-0.234-1.877
		c0-0.72,0.086-1.347,0.234-1.876c0.147-0.53,0.364-0.973,0.635-1.321c0.276-0.346,0.599-0.606,0.972-0.773
		c0.364-0.165,0.782-0.25,1.216-0.25s0.853,0.086,1.217,0.25c0.383,0.167,0.712,0.427,0.981,0.773
		c0.269,0.348,0.486,0.791,0.643,1.321C117.896,23.076,117.974,23.703,117.974,24.423z M116.16,24.423
		c0-0.574-0.044-1.042-0.114-1.408c-0.068-0.364-0.164-0.651-0.277-0.859c-0.121-0.209-0.26-0.348-0.408-0.425
		c-0.148-0.078-0.304-0.114-0.461-0.114c-0.156,0-0.312,0.036-0.452,0.114c-0.155,0.077-0.286,0.216-0.399,0.425
		c-0.12,0.208-0.208,0.495-0.276,0.859c-0.071,0.365-0.104,0.833-0.104,1.408c0,0.573,0.033,1.042,0.104,1.408
		c0.068,0.355,0.156,0.642,0.276,0.86c0.113,0.207,0.244,0.347,0.399,0.425c0.141,0.079,0.296,0.12,0.452,0.12
		c0.157,0,0.313-0.042,0.461-0.12c0.148-0.078,0.287-0.218,0.408-0.425c0.113-0.218,0.209-0.504,0.277-0.86
		C116.116,25.465,116.16,24.996,116.16,24.423z"/>
	<path fill="#3FB6A8" d="M126.277,27.28v1.277h-4.707V27.28h1.581v-4.161c0-0.112,0-0.215,0.008-0.32
		c0-0.113,0.009-0.218,0.009-0.33l-0.938,0.782c-0.078,0.069-0.157,0.104-0.243,0.12c-0.087,0.009-0.155,0.009-0.227,0
		c-0.077-0.017-0.138-0.042-0.19-0.078c-0.061-0.035-0.104-0.069-0.13-0.112l-0.557-0.729l2.581-2.164h1.44v6.992H126.277z"/>
	<path fill="#3FB6A8" d="M133.851,24.249c0.243,0.087,0.453,0.191,0.626,0.322c0.182,0.131,0.321,0.278,0.434,0.442
		c0.114,0.166,0.191,0.348,0.244,0.548c0.053,0.199,0.086,0.407,0.086,0.625c0,0.374-0.077,0.711-0.216,1.016
		c-0.14,0.305-0.339,0.557-0.599,0.772c-0.262,0.209-0.575,0.374-0.938,0.496c-0.366,0.114-0.766,0.174-1.201,0.174
		c-0.441,0-0.842-0.06-1.197-0.174c-0.364-0.122-0.677-0.287-0.937-0.496c-0.262-0.215-0.462-0.467-0.609-0.772
		c-0.138-0.305-0.207-0.642-0.207-1.016c0-0.218,0.025-0.426,0.086-0.625c0.052-0.201,0.13-0.382,0.243-0.548
		c0.104-0.165,0.253-0.312,0.435-0.442c0.173-0.13,0.383-0.234,0.625-0.322c-0.375-0.173-0.651-0.408-0.834-0.71
		c-0.19-0.296-0.278-0.661-0.278-1.086c0-0.322,0.061-0.617,0.192-0.895c0.139-0.269,0.32-0.512,0.555-0.712
		c0.243-0.199,0.521-0.357,0.853-0.469c0.329-0.112,0.685-0.173,1.074-0.173c0.384,0,0.748,0.061,1.078,0.173
		c0.322,0.112,0.609,0.27,0.844,0.469c0.243,0.2,0.425,0.443,0.555,0.712c0.14,0.278,0.199,0.573,0.199,0.895
		c0,0.425-0.095,0.791-0.276,1.086C134.503,23.841,134.224,24.075,133.851,24.249z M132.286,27.315c0.192,0,0.366-0.026,0.506-0.088
		c0.147-0.061,0.261-0.138,0.365-0.242c0.086-0.105,0.156-0.235,0.199-0.373c0.042-0.14,0.061-0.296,0.061-0.452
		c0-0.183-0.019-0.348-0.053-0.496c-0.034-0.147-0.103-0.27-0.19-0.374c-0.088-0.103-0.2-0.182-0.348-0.242
		c-0.14-0.062-0.329-0.088-0.54-0.088c-0.214,0-0.397,0.026-0.536,0.088c-0.155,0.06-0.27,0.139-0.356,0.242
		c-0.087,0.104-0.146,0.226-0.182,0.374c-0.036,0.148-0.063,0.313-0.063,0.496c0,0.155,0.026,0.312,0.063,0.452
		c0.052,0.138,0.121,0.268,0.207,0.373c0.095,0.104,0.209,0.182,0.348,0.242C131.914,27.289,132.079,27.315,132.286,27.315z
		 M132.286,21.487c-0.172,0-0.329,0.027-0.45,0.078c-0.121,0.062-0.216,0.132-0.295,0.227c-0.078,0.096-0.139,0.2-0.174,0.322
		c-0.034,0.121-0.053,0.242-0.053,0.373c0,0.147,0.019,0.287,0.053,0.417c0.019,0.138,0.069,0.26,0.14,0.364
		c0.067,0.104,0.174,0.19,0.295,0.261c0.122,0.061,0.287,0.095,0.484,0.095c0.192,0,0.357-0.035,0.48-0.095
		c0.129-0.071,0.225-0.158,0.294-0.261c0.079-0.104,0.123-0.226,0.148-0.364c0.025-0.13,0.034-0.27,0.034-0.417
		c0-0.131-0.009-0.252-0.043-0.373c-0.035-0.122-0.096-0.227-0.166-0.322c-0.087-0.095-0.183-0.165-0.303-0.227
		C132.608,21.514,132.462,21.487,132.286,21.487z"/>
</g>
</svg>
