<?xml version="1.0" encoding="utf-8"?>
<!-- Generator: Adobe Illustrator 15.0.0, SVG Export Plug-In . SVG Version: 6.00 Build 0)  -->
<!DOCTYPE svg PUBLIC "-//W3C//DTD SVG 1.1//EN" "http://www.w3.org/Graphics/SVG/1.1/DTD/svg11.dtd">
<svg version="1.1" id="Warstwa_1" xmlns="http://www.w3.org/2000/svg" xmlns:xlink="http://www.w3.org/1999/xlink" x="0px" y="0px"
	 width="70px" height="130px" viewBox="0 0 70 130" enable-background="new 0 0 70 130" xml:space="preserve">
<g>
	<defs>
		<path id="SVGID_1_" d="M5.127,112.212c0.174,0.059,0.347,0.118,0.519,0.181l40.641-73.92c-0.174-0.062-0.346-0.122-0.519-0.18
			L5.127,112.212z"/>
	</defs>
	<clipPath id="SVGID_2_">
		<use xlink:href="#SVGID_1_"  overflow="visible"/>
	</clipPath>
	
		<linearGradient id="SVGID_3_" gradientUnits="userSpaceOnUse" x1="-202.4639" y1="397.3926" x2="-202.2126" y2="397.3926" gradientTransform="matrix(163.5348 0 0 -163.5348 33115 65062.9219)">
		<stop  offset="0" style="stop-color:#AE4995"/>
		<stop  offset="0.0287" style="stop-color:#AA5499"/>
		<stop  offset="0.1656" style="stop-color:#9A7AA7"/>
		<stop  offset="0.3049" style="stop-color:#8792AE"/>
		<stop  offset="0.444" style="stop-color:#73A2AF"/>
		<stop  offset="0.5831" style="stop-color:#5FACAD"/>
		<stop  offset="0.722" style="stop-color:#4DB1AB"/>
		<stop  offset="0.8609" style="stop-color:#3EB5A9"/>
		<stop  offset="1" style="stop-color:#39B5A8"/>
	</linearGradient>
	<rect x="5.127" y="38.292" clip-path="url(#SVGID_2_)" fill="url(#SVGID_3_)" width="41.16" height="74.101"/>
</g>
<g>
	<defs>
		<path id="SVGID_4_" d="M5.127,112.212c0.174,0.059,0.347,0.118,0.519,0.181l40.641-73.92c-0.174-0.062-0.346-0.122-0.519-0.18
			L5.127,112.212z"/>
	</defs>
	<clipPath id="SVGID_5_">
		<use xlink:href="#SVGID_4_"  overflow="visible"/>
	</clipPath>
	
		<linearGradient id="SVGID_6_" gradientUnits="userSpaceOnUse" x1="-202.4282" y1="396.9609" x2="-202.1775" y2="396.9609" gradientTransform="matrix(167.446 -290.1509 168.6518 183.634 -33047.7031 -131518.5938)">
		<stop  offset="0" style="stop-color:#AE4995"/>
		<stop  offset="0.0287" style="stop-color:#AA5499"/>
		<stop  offset="0.1656" style="stop-color:#9A7AA7"/>
		<stop  offset="0.3049" style="stop-color:#8792AE"/>
		<stop  offset="0.444" style="stop-color:#73A2AF"/>
		<stop  offset="0.5831" style="stop-color:#5FACAD"/>
		<stop  offset="0.722" style="stop-color:#4DB1AB"/>
		<stop  offset="0.8609" style="stop-color:#3EB5A9"/>
		<stop  offset="1" style="stop-color:#39B5A8"/>
	</linearGradient>
	<polygon clip-path="url(#SVGID_5_)" fill="url(#SVGID_6_)" points="30.404,139.914 72.549,66.887 21.01,10.77 -21.134,83.797 	"/>
</g>
<g>
	<defs>
		<path id="SVGID_7_" d="M10.994,93.5c0.079,0.031,0.163,0.064,0.317,0.127c0.08,0.031,0.158,0.063,0.322,0.13
			c0.076,0.031,0.153,0.063,0.324,0.134c0.074,0.032,0.147,0.062,0.319,0.137c0.074,0.031,0.146,0.063,0.321,0.139
			c0.072,0.03,0.142,0.061,0.322,0.142c0.071,0.033,0.141,0.063,0.318,0.145l0.003,0.001l40.641-73.92
			c-0.001-0.001-0.004-0.002-0.004-0.002c-0.177-0.08-0.247-0.112-0.316-0.143c-0.181-0.08-0.253-0.111-0.325-0.143
			c-0.173-0.077-0.246-0.108-0.319-0.139c-0.174-0.075-0.247-0.106-0.32-0.136c-0.172-0.072-0.247-0.104-0.324-0.134
			c-0.165-0.067-0.243-0.1-0.322-0.131c-0.155-0.062-0.237-0.095-0.318-0.126L10.994,93.5z"/>
	</defs>
	<clipPath id="SVGID_8_">
		<use xlink:href="#SVGID_7_"  overflow="visible"/>
	</clipPath>
	
		<linearGradient id="SVGID_9_" gradientUnits="userSpaceOnUse" x1="-202.5869" y1="397.0566" x2="-202.3361" y2="397.0566" gradientTransform="matrix(168.2424 0 0 -168.2424 34095.0234 66858.8672)">
		<stop  offset="0" style="stop-color:#AE4995"/>
		<stop  offset="0.0287" style="stop-color:#AA5499"/>
		<stop  offset="0.1656" style="stop-color:#9A7AA7"/>
		<stop  offset="0.3049" style="stop-color:#8792AE"/>
		<stop  offset="0.444" style="stop-color:#73A2AF"/>
		<stop  offset="0.5831" style="stop-color:#5FACAD"/>
		<stop  offset="0.722" style="stop-color:#4DB1AB"/>
		<stop  offset="0.8609" style="stop-color:#3EB5A9"/>
		<stop  offset="1" style="stop-color:#39B5A8"/>
	</linearGradient>
	<rect x="10.994" y="19.58" clip-path="url(#SVGID_8_)" fill="url(#SVGID_9_)" width="42.889" height="74.874"/>
</g>
<g>
	<defs>
		<path id="SVGID_10_" d="M10.994,93.5c0.079,0.031,0.163,0.064,0.317,0.127c0.08,0.031,0.158,0.063,0.322,0.13
			c0.076,0.031,0.153,0.063,0.324,0.134c0.074,0.032,0.147,0.062,0.319,0.137c0.074,0.031,0.146,0.063,0.321,0.139
			c0.072,0.03,0.142,0.061,0.322,0.142c0.071,0.033,0.141,0.063,0.318,0.145l0.003,0.001l40.641-73.92
			c-0.001-0.001-0.004-0.002-0.004-0.002c-0.177-0.08-0.247-0.112-0.316-0.143c-0.181-0.08-0.253-0.111-0.325-0.143
			c-0.173-0.077-0.246-0.108-0.319-0.139c-0.174-0.075-0.247-0.106-0.32-0.136c-0.172-0.072-0.247-0.104-0.324-0.134
			c-0.165-0.067-0.243-0.1-0.322-0.131c-0.155-0.062-0.237-0.095-0.318-0.126L10.994,93.5z"/>
	</defs>
	<clipPath id="SVGID_11_">
		<use xlink:href="#SVGID_10_"  overflow="visible"/>
	</clipPath>
	
		<linearGradient id="SVGID_12_" gradientUnits="userSpaceOnUse" x1="-202.5908" y1="397.0029" x2="-202.34" y2="397.0029" gradientTransform="matrix(169.0135 -292.8669 170.2305 185.3529 -33330.1992 -132824.0156)">
		<stop  offset="0" style="stop-color:#AE4995"/>
		<stop  offset="0.0287" style="stop-color:#AA5499"/>
		<stop  offset="0.1656" style="stop-color:#9A7AA7"/>
		<stop  offset="0.3049" style="stop-color:#8792AE"/>
		<stop  offset="0.444" style="stop-color:#73A2AF"/>
		<stop  offset="0.5831" style="stop-color:#5FACAD"/>
		<stop  offset="0.722" style="stop-color:#4DB1AB"/>
		<stop  offset="0.8609" style="stop-color:#3EB5A9"/>
		<stop  offset="1" style="stop-color:#39B5A8"/>
	</linearGradient>
	<polygon clip-path="url(#SVGID_11_)" fill="url(#SVGID_12_)" points="37.332,123.131 80.419,48.472 27.544,-9.098 -15.542,65.561 	
		"/>
</g>
<g>
	<defs>
		<path id="SVGID_13_" d="M13.593,78.922c0.368,0.007,0.738,0.021,1.111,0.043L57.26,1.576c-0.374-0.022-0.743-0.036-1.109-0.043
			L13.593,78.922z"/>
	</defs>
	<clipPath id="SVGID_14_">
		<use xlink:href="#SVGID_13_"  overflow="visible"/>
	</clipPath>
	
		<linearGradient id="SVGID_15_" gradientUnits="userSpaceOnUse" x1="-202.6392" y1="396.7676" x2="-202.3882" y2="396.7676" gradientTransform="matrix(174.0251 0 0 -174.0251 35277.9688 69087.7813)">
		<stop  offset="0" style="stop-color:#AE4995"/>
		<stop  offset="0.0287" style="stop-color:#AA5499"/>
		<stop  offset="0.1656" style="stop-color:#9A7AA7"/>
		<stop  offset="0.3049" style="stop-color:#8792AE"/>
		<stop  offset="0.444" style="stop-color:#73A2AF"/>
		<stop  offset="0.5831" style="stop-color:#5FACAD"/>
		<stop  offset="0.722" style="stop-color:#4DB1AB"/>
		<stop  offset="0.8609" style="stop-color:#3EB5A9"/>
		<stop  offset="1" style="stop-color:#39B5A8"/>
	</linearGradient>
	<rect x="13.593" y="1.533" clip-path="url(#SVGID_14_)" fill="url(#SVGID_15_)" width="43.667" height="77.432"/>
</g>
<g>
	<defs>
		<path id="SVGID_16_" d="M14.515,77.245l0.71,0.772L57.094,1.879l-0.301-0.327c-0.216-0.009-0.431-0.016-0.643-0.02L14.515,77.245z
			"/>
	</defs>
	<clipPath id="SVGID_17_">
		<use xlink:href="#SVGID_16_"  overflow="visible"/>
	</clipPath>
	
		<linearGradient id="SVGID_18_" gradientUnits="userSpaceOnUse" x1="-202.7212" y1="397.0762" x2="-202.4706" y2="397.0762" gradientTransform="matrix(171.9237 -297.9097 173.1617 188.5444 -33891.4219 -135182.0625)">
		<stop  offset="0" style="stop-color:#AE4995"/>
		<stop  offset="0.0287" style="stop-color:#AA5499"/>
		<stop  offset="0.1656" style="stop-color:#9A7AA7"/>
		<stop  offset="0.3049" style="stop-color:#8792AE"/>
		<stop  offset="0.444" style="stop-color:#73A2AF"/>
		<stop  offset="0.5831" style="stop-color:#5FACAD"/>
		<stop  offset="0.722" style="stop-color:#4DB1AB"/>
		<stop  offset="0.8609" style="stop-color:#3EB5A9"/>
		<stop  offset="1" style="stop-color:#39B5A8"/>
	</linearGradient>
	<polygon clip-path="url(#SVGID_17_)" fill="url(#SVGID_18_)" points="40.662,106.488 84.199,31.047 30.946,-26.938 -12.592,48.503 
			"/>
</g>
<g>
	<defs>
		<path id="SVGID_19_" d="M41.836,15.95L1.194,89.871c0.379-0.021,0.761-0.036,1.146-0.043l40.64-73.921
			C42.595,15.915,42.212,15.929,41.836,15.95"/>
	</defs>
	<clipPath id="SVGID_20_">
		<use xlink:href="#SVGID_19_"  overflow="visible"/>
	</clipPath>
	
		<linearGradient id="SVGID_21_" gradientUnits="userSpaceOnUse" x1="-202.4014" y1="396.9844" x2="-202.1504" y2="396.9844" gradientTransform="matrix(166.5258 0 0 -166.5258 33706.1992 66160.9531)">
		<stop  offset="0" style="stop-color:#AE4995"/>
		<stop  offset="0.0287" style="stop-color:#AA5499"/>
		<stop  offset="0.1656" style="stop-color:#9A7AA7"/>
		<stop  offset="0.3049" style="stop-color:#8792AE"/>
		<stop  offset="0.444" style="stop-color:#73A2AF"/>
		<stop  offset="0.5831" style="stop-color:#5FACAD"/>
		<stop  offset="0.722" style="stop-color:#4DB1AB"/>
		<stop  offset="0.8609" style="stop-color:#3EB5A9"/>
		<stop  offset="1" style="stop-color:#39B5A8"/>
	</linearGradient>
	<rect x="1.194" y="15.907" clip-path="url(#SVGID_20_)" fill="url(#SVGID_21_)" width="41.786" height="73.964"/>
</g>
<g>
	<defs>
		<path id="SVGID_22_" d="M41.836,15.95L1.194,89.871c0.379-0.021,0.761-0.036,1.146-0.043l40.64-73.921
			C42.595,15.915,42.212,15.929,41.836,15.95"/>
	</defs>
	<clipPath id="SVGID_23_">
		<use xlink:href="#SVGID_22_"  overflow="visible"/>
	</clipPath>
	
		<linearGradient id="SVGID_24_" gradientUnits="userSpaceOnUse" x1="-202.5454" y1="397.1406" x2="-202.2944" y2="397.1406" gradientTransform="matrix(168.7249 -292.3669 169.9399 185.0365 -33314.6289 -132613.5781)">
		<stop  offset="0" style="stop-color:#AE4995"/>
		<stop  offset="0.0287" style="stop-color:#AA5499"/>
		<stop  offset="0.1656" style="stop-color:#9A7AA7"/>
		<stop  offset="0.3049" style="stop-color:#8792AE"/>
		<stop  offset="0.444" style="stop-color:#73A2AF"/>
		<stop  offset="0.5831" style="stop-color:#5FACAD"/>
		<stop  offset="0.722" style="stop-color:#4DB1AB"/>
		<stop  offset="0.8609" style="stop-color:#3EB5A9"/>
		<stop  offset="1" style="stop-color:#39B5A8"/>
	</linearGradient>
	<polygon clip-path="url(#SVGID_23_)" fill="url(#SVGID_24_)" points="26.855,117.812 69.193,44.449 17.319,-12.033 -25.019,61.33 	
		"/>
</g>
<g>
	<defs>
		<path id="SVGID_25_" d="M1.194,89.871c0.379-0.021,0.761-0.036,1.146-0.043l13.627-24.75v-2.036L1.194,89.871z"/>
	</defs>
	<clipPath id="SVGID_26_">
		<use xlink:href="#SVGID_25_"  overflow="visible"/>
	</clipPath>
	
		<linearGradient id="SVGID_27_" gradientUnits="userSpaceOnUse" x1="-201.3066" y1="398.1484" x2="-201.0557" y2="398.1484" gradientTransform="matrix(58.8787 0 0 -58.8787 11853.8369 23518.9277)">
		<stop  offset="0" style="stop-color:#AE4995"/>
		<stop  offset="0.0287" style="stop-color:#AA5499"/>
		<stop  offset="0.1656" style="stop-color:#9A7AA7"/>
		<stop  offset="0.3049" style="stop-color:#8792AE"/>
		<stop  offset="0.444" style="stop-color:#73A2AF"/>
		<stop  offset="0.5831" style="stop-color:#5FACAD"/>
		<stop  offset="0.722" style="stop-color:#4DB1AB"/>
		<stop  offset="0.8609" style="stop-color:#3EB5A9"/>
		<stop  offset="1" style="stop-color:#39B5A8"/>
	</linearGradient>
	<rect x="1.194" y="63.042" clip-path="url(#SVGID_26_)" fill="url(#SVGID_27_)" width="14.774" height="26.83"/>
</g>
<g>
	<defs>
		<path id="SVGID_28_" d="M1.194,89.871c0.379-0.021,0.761-0.036,1.146-0.043l13.627-24.75v-2.036L1.194,89.871z"/>
	</defs>
	<clipPath id="SVGID_29_">
		<use xlink:href="#SVGID_28_"  overflow="visible"/>
	</clipPath>
	
		<linearGradient id="SVGID_30_" gradientUnits="userSpaceOnUse" x1="-202.5454" y1="397.1416" x2="-202.2954" y2="397.1416" gradientTransform="matrix(168.7249 -292.3669 169.9399 185.0365 -33314.6289 -132613.5781)">
		<stop  offset="0" style="stop-color:#AE4995"/>
		<stop  offset="0.0287" style="stop-color:#AA5499"/>
		<stop  offset="0.1656" style="stop-color:#9A7AA7"/>
		<stop  offset="0.3049" style="stop-color:#8792AE"/>
		<stop  offset="0.444" style="stop-color:#73A2AF"/>
		<stop  offset="0.5831" style="stop-color:#5FACAD"/>
		<stop  offset="0.722" style="stop-color:#4DB1AB"/>
		<stop  offset="0.8609" style="stop-color:#3EB5A9"/>
		<stop  offset="1" style="stop-color:#39B5A8"/>
	</linearGradient>
	<polygon clip-path="url(#SVGID_29_)" fill="url(#SVGID_30_)" points="10.268,99.75 25.478,73.395 6.896,53.163 -8.314,79.518 	"/>
</g>
<g>
	<defs>
		<path id="SVGID_31_" d="M27.822,79.34c0.037,0.011,0.073,0.02,0.11,0.03c0.099,0.027,0.196,0.055,0.294,0.082l40.64-73.92
			c-0.099-0.028-0.197-0.055-0.293-0.082c-0.038-0.011-0.077-0.02-0.112-0.03L27.822,79.34z"/>
	</defs>
	<clipPath id="SVGID_32_">
		<use xlink:href="#SVGID_31_"  overflow="visible"/>
	</clipPath>
	
		<linearGradient id="SVGID_33_" gradientUnits="userSpaceOnUse" x1="-202.8765" y1="396.792" x2="-202.6254" y2="396.792" gradientTransform="matrix(163.2659 0 0 -163.2659 33150.5508 64825.0508)">
		<stop  offset="0" style="stop-color:#AE4995"/>
		<stop  offset="0.0287" style="stop-color:#AA5499"/>
		<stop  offset="0.1656" style="stop-color:#9A7AA7"/>
		<stop  offset="0.3049" style="stop-color:#8792AE"/>
		<stop  offset="0.444" style="stop-color:#73A2AF"/>
		<stop  offset="0.5831" style="stop-color:#5FACAD"/>
		<stop  offset="0.722" style="stop-color:#4DB1AB"/>
		<stop  offset="0.8609" style="stop-color:#3EB5A9"/>
		<stop  offset="1" style="stop-color:#39B5A8"/>
	</linearGradient>
	<rect x="27.822" y="5.421" clip-path="url(#SVGID_32_)" fill="url(#SVGID_33_)" width="41.045" height="74.031"/>
</g>
<g>
	<defs>
		<path id="SVGID_34_" d="M27.822,79.34c0.037,0.011,0.073,0.02,0.11,0.03c0.099,0.027,0.196,0.055,0.294,0.082l40.64-73.92
			c-0.099-0.028-0.197-0.055-0.293-0.082c-0.038-0.011-0.077-0.02-0.112-0.03L27.822,79.34z"/>
	</defs>
	<clipPath id="SVGID_35_">
		<use xlink:href="#SVGID_34_"  overflow="visible"/>
	</clipPath>
	
		<linearGradient id="SVGID_36_" gradientUnits="userSpaceOnUse" x1="-202.791" y1="396.9219" x2="-202.54" y2="396.9219" gradientTransform="matrix(167.3658 -290.0117 168.5709 183.5459 -32941.9727 -131586.2969)">
		<stop  offset="0" style="stop-color:#AE4995"/>
		<stop  offset="0.0287" style="stop-color:#AA5499"/>
		<stop  offset="0.1656" style="stop-color:#9A7AA7"/>
		<stop  offset="0.3049" style="stop-color:#8792AE"/>
		<stop  offset="0.444" style="stop-color:#73A2AF"/>
		<stop  offset="0.5831" style="stop-color:#5FACAD"/>
		<stop  offset="0.722" style="stop-color:#4DB1AB"/>
		<stop  offset="0.8609" style="stop-color:#3EB5A9"/>
		<stop  offset="1" style="stop-color:#39B5A8"/>
	</linearGradient>
	<polygon clip-path="url(#SVGID_35_)" fill="url(#SVGID_36_)" points="53.028,106.897 95.104,33.988 43.661,-22.025 1.585,50.884 	
		"/>
</g>
</svg>
