<?xml version="1.0" encoding="utf-8"?>
<!-- Generator: Adobe Illustrator 15.0.0, SVG Export Plug-In . SVG Version: 6.00 Build 0)  -->
<!DOCTYPE svg PUBLIC "-//W3C//DTD SVG 1.1//EN" "http://www.w3.org/Graphics/SVG/1.1/DTD/svg11.dtd">
<svg version="1.1" id="Warstwa_1" xmlns="http://www.w3.org/2000/svg" xmlns:xlink="http://www.w3.org/1999/xlink" x="0px" y="0px"
	 width="153.826px" height="78.644px" viewBox="0 0 153.826 78.644" enable-background="new 0 0 153.826 78.644"
	 xml:space="preserve">
<g>
	<defs>
		<polygon id="SVGID_1_" points="46.662,37.536 46.662,35.996 41.344,32.134 41.344,33.672 		"/>
	</defs>
	<clipPath id="SVGID_2_">
		<use xlink:href="#SVGID_1_"  overflow="visible"/>
	</clipPath>
	
		<linearGradient id="SVGID_3_" gradientUnits="userSpaceOnUse" x1="4.882813e-004" y1="78.6426" x2="1.0005" y2="78.6426" gradientTransform="matrix(5.3178 0 0 -5.3178 41.3434 453.0479)">
		<stop  offset="0" style="stop-color:#E71E6F"/>
		<stop  offset="1" style="stop-color:#F9D232"/>
	</linearGradient>
	<rect x="41.344" y="32.134" clip-path="url(#SVGID_2_)" fill="url(#SVGID_3_)" width="5.318" height="5.402"/>
</g>
<g>
	<defs>
		<polygon id="SVGID_4_" points="41.344,31.132 46.662,34.996 46.662,33.456 41.344,29.594 		"/>
	</defs>
	<clipPath id="SVGID_5_">
		<use xlink:href="#SVGID_4_"  overflow="visible"/>
	</clipPath>
	
		<linearGradient id="SVGID_6_" gradientUnits="userSpaceOnUse" x1="0" y1="78.6445" x2="1" y2="78.6445" gradientTransform="matrix(5.3178 0 0 -5.3178 41.3442 450.5085)">
		<stop  offset="0" style="stop-color:#E71E6F"/>
		<stop  offset="1" style="stop-color:#F9D232"/>
	</linearGradient>
	<rect x="41.344" y="29.594" clip-path="url(#SVGID_5_)" fill="url(#SVGID_6_)" width="5.318" height="5.402"/>
</g>
<g>
	<defs>
		<polygon id="SVGID_7_" points="46.662,40.075 46.662,38.536 41.344,34.672 41.344,36.212 		"/>
	</defs>
	<clipPath id="SVGID_8_">
		<use xlink:href="#SVGID_7_"  overflow="visible"/>
	</clipPath>
	
		<linearGradient id="SVGID_9_" gradientUnits="userSpaceOnUse" x1="4.882813e-004" y1="78.6436" x2="1.0005" y2="78.6436" gradientTransform="matrix(5.3178 0 0 -5.3178 41.3434 455.587)">
		<stop  offset="0" style="stop-color:#E71E6F"/>
		<stop  offset="1" style="stop-color:#F9D232"/>
	</linearGradient>
	<rect x="41.344" y="34.672" clip-path="url(#SVGID_8_)" fill="url(#SVGID_9_)" width="5.318" height="5.403"/>
</g>
<g>
	<defs>
		<polygon id="SVGID_10_" points="41.345,0 33.828,23.145 41.344,28.604 41.344,28.593 53.503,37.424 52.848,35.41 41.344,27.054 
			41.344,26.054 52.423,34.101 51.769,32.085 41.344,24.514 41.344,23.514 51.344,30.776 50.689,28.762 41.344,21.974 
			41.344,20.974 50.263,27.453 49.609,25.437 41.344,19.435 41.344,18.434 49.184,24.128 48.53,22.111 41.344,16.895 41.344,15.896 
			48.104,20.804 47.45,18.789 41.344,14.354 41.344,13.354 47.025,17.479 46.37,15.463 41.344,11.814 41.344,10.814 45.945,14.155 
			45.288,12.14 41.344,9.275 41.344,8.275 44.863,10.832 44.209,8.814 41.344,6.734 41.344,5.734 43.783,7.506 43.129,5.492 
			41.344,4.195 41.344,3.195 42.703,4.182 42.049,2.166 41.344,1.655 41.344,0.656 41.624,0.857 		"/>
	</defs>
	<clipPath id="SVGID_11_">
		<use xlink:href="#SVGID_10_"  overflow="visible"/>
	</clipPath>
	
		<linearGradient id="SVGID_12_" gradientUnits="userSpaceOnUse" x1="4.882813e-004" y1="78.6436" x2="1.0005" y2="78.6436" gradientTransform="matrix(19.6744 0 0 -19.6744 33.8209 1565.9832)">
		<stop  offset="0" style="stop-color:#E71E6F"/>
		<stop  offset="1" style="stop-color:#F9D232"/>
	</linearGradient>
	<rect x="33.828" y="0" clip-path="url(#SVGID_11_)" fill="url(#SVGID_12_)" width="19.675" height="37.425"/>
</g>
<g>
	<defs>
		<polygon id="SVGID_13_" points="48.635,46.695 50.1,46.219 52.13,39.969 50.665,40.443 		"/>
	</defs>
	<clipPath id="SVGID_14_">
		<use xlink:href="#SVGID_13_"  overflow="visible"/>
	</clipPath>
	
		<linearGradient id="SVGID_15_" gradientUnits="userSpaceOnUse" x1="4.882813e-004" y1="78.6436" x2="1.0005" y2="78.6436" gradientTransform="matrix(3.4943 0 0 -3.4943 48.6343 318.1349)">
		<stop  offset="0" style="stop-color:#E71E6F"/>
		<stop  offset="1" style="stop-color:#F9D232"/>
	</linearGradient>
	<rect x="48.635" y="39.969" clip-path="url(#SVGID_14_)" fill="url(#SVGID_15_)" width="3.495" height="6.727"/>
</g>
<g>
	<defs>
		<polygon id="SVGID_16_" points="53.081,39.659 51.052,45.91 52.516,45.435 54.545,39.184 		"/>
	</defs>
	<clipPath id="SVGID_17_">
		<use xlink:href="#SVGID_16_"  overflow="visible"/>
	</clipPath>
	
		<linearGradient id="SVGID_18_" gradientUnits="userSpaceOnUse" x1="-4.882813e-004" y1="78.6426" x2="0.9995" y2="78.6426" gradientTransform="matrix(3.4934 0 0 -3.4934 51.0522 317.275)">
		<stop  offset="0" style="stop-color:#E71E6F"/>
		<stop  offset="1" style="stop-color:#F9D232"/>
	</linearGradient>
	<rect x="51.052" y="39.184" clip-path="url(#SVGID_17_)" fill="url(#SVGID_18_)" width="3.493" height="6.727"/>
</g>
<g>
	<defs>
		<polygon id="SVGID_19_" points="46.22,47.479 47.684,47.004 49.715,40.753 48.251,41.229 		"/>
	</defs>
	<clipPath id="SVGID_20_">
		<use xlink:href="#SVGID_19_"  overflow="visible"/>
	</clipPath>
	
		<linearGradient id="SVGID_21_" gradientUnits="userSpaceOnUse" x1="0" y1="78.6436" x2="1" y2="78.6436" gradientTransform="matrix(3.4949 0 0 -3.4949 46.22 318.9711)">
		<stop  offset="0" style="stop-color:#E71E6F"/>
		<stop  offset="1" style="stop-color:#F9D232"/>
	</linearGradient>
	<rect x="46.22" y="40.753" clip-path="url(#SVGID_20_)" fill="url(#SVGID_21_)" width="3.495" height="6.727"/>
</g>
<g>
	<defs>
		<polygon id="SVGID_22_" points="55.497,38.874 50.855,53.167 52.569,51.922 56.961,38.398 57.912,38.089 53.683,51.113 
			55.396,49.867 59.377,37.615 60.327,37.305 56.51,49.059 58.225,47.813 61.792,36.829 62.743,36.52 59.338,47.004 61.053,45.759 
			64.207,36.043 65.159,35.734 62.166,44.95 63.88,43.704 66.623,35.259 67.574,34.951 64.994,42.896 66.708,41.649 69.039,34.474 
			69.99,34.165 67.821,40.841 69.536,39.596 71.453,33.689 72.406,33.379 70.65,38.788 72.364,37.541 73.869,32.905 74.822,32.596 
			73.477,36.732 75.192,35.486 76.285,32.121 77.236,31.812 76.305,34.678 78.02,33.433 78.701,31.334 79.651,31.026 79.132,32.624 
			80.848,31.377 81.117,30.549 82.068,30.241 81.96,30.569 82.691,30.039 58.355,30.042 55.486,38.876 		"/>
	</defs>
	<clipPath id="SVGID_23_">
		<use xlink:href="#SVGID_22_"  overflow="visible"/>
	</clipPath>
	
		<linearGradient id="SVGID_24_" gradientUnits="userSpaceOnUse" x1="-4.882813e-004" y1="78.6426" x2="0.9995" y2="78.6426" gradientTransform="matrix(31.8358 0 0 -31.8358 50.8514 2545.2761)">
		<stop  offset="0" style="stop-color:#E71E6F"/>
		<stop  offset="1" style="stop-color:#F9D232"/>
	</linearGradient>
	<rect x="50.855" y="30.039" clip-path="url(#SVGID_23_)" fill="url(#SVGID_24_)" width="31.836" height="23.128"/>
</g>
<g>
	<defs>
		<polygon id="SVGID_25_" points="40.534,51.402 41.439,52.647 48.011,52.647 47.107,51.4 		"/>
	</defs>
	<clipPath id="SVGID_26_">
		<use xlink:href="#SVGID_25_"  overflow="visible"/>
	</clipPath>
	
		<linearGradient id="SVGID_27_" gradientUnits="userSpaceOnUse" x1="0" y1="78.6436" x2="1" y2="78.6436" gradientTransform="matrix(7.4768 0 0 -7.4768 40.5359 640.0254)">
		<stop  offset="0" style="stop-color:#E71E6F"/>
		<stop  offset="1" style="stop-color:#F9D232"/>
	</linearGradient>
	<rect x="40.534" y="51.4" clip-path="url(#SVGID_26_)" fill="url(#SVGID_27_)" width="7.477" height="1.247"/>
</g>
<g>
	<defs>
		<polygon id="SVGID_28_" points="48.6,53.455 42.028,53.455 42.932,54.703 49.505,54.701 		"/>
	</defs>
	<clipPath id="SVGID_29_">
		<use xlink:href="#SVGID_28_"  overflow="visible"/>
	</clipPath>
	
		<linearGradient id="SVGID_30_" gradientUnits="userSpaceOnUse" x1="4.882813e-004" y1="78.6436" x2="1.0005" y2="78.6436" gradientTransform="matrix(7.4777 0 0 -7.4777 42.0255 642.1572)">
		<stop  offset="0" style="stop-color:#E71E6F"/>
		<stop  offset="1" style="stop-color:#F9D232"/>
	</linearGradient>
	<rect x="42.028" y="53.455" clip-path="url(#SVGID_29_)" fill="url(#SVGID_30_)" width="7.477" height="1.248"/>
</g>
<g>
	<defs>
		<polygon id="SVGID_31_" points="39.041,49.347 39.947,50.594 46.52,50.592 45.613,49.347 		"/>
	</defs>
	<clipPath id="SVGID_32_">
		<use xlink:href="#SVGID_31_"  overflow="visible"/>
	</clipPath>
	
		<linearGradient id="SVGID_33_" gradientUnits="userSpaceOnUse" x1="0" y1="78.6436" x2="1" y2="78.6436" gradientTransform="matrix(7.4777 0 0 -7.4777 39.0411 638.0478)">
		<stop  offset="0" style="stop-color:#E71E6F"/>
		<stop  offset="1" style="stop-color:#F9D232"/>
	</linearGradient>
	<rect x="39.041" y="49.347" clip-path="url(#SVGID_32_)" fill="url(#SVGID_33_)" width="7.479" height="1.247"/>
</g>
<g>
	<defs>
		<polygon id="SVGID_34_" points="50.085,55.502 50.093,55.511 35.065,55.512 36.779,56.757 50.998,56.756 51.585,57.565 
			37.891,57.567 39.605,58.813 52.49,58.811 53.078,59.62 40.719,59.622 42.435,60.866 53.983,60.864 54.572,61.675 43.547,61.676 
			45.261,62.922 55.475,62.921 56.064,63.729 46.375,63.73 48.089,64.977 56.97,64.975 57.557,65.784 49.202,65.785 50.917,67.029 
			58.462,67.029 59.049,67.84 52.03,67.84 53.744,69.086 59.955,69.084 60.542,69.894 54.858,69.896 56.572,71.141 61.447,71.14 
			62.035,71.948 57.686,71.949 59.4,73.194 62.941,73.194 63.528,74.004 60.513,74.005 62.227,75.249 64.433,75.249 65.021,76.058 
			63.341,76.058 65.055,77.305 65.926,77.305 66.514,78.113 66.169,78.113 66.899,78.644 59.374,55.501 		"/>
	</defs>
	<clipPath id="SVGID_35_">
		<use xlink:href="#SVGID_34_"  overflow="visible"/>
	</clipPath>
	
		<linearGradient id="SVGID_36_" gradientUnits="userSpaceOnUse" x1="-4.882813e-004" y1="78.6436" x2="0.9995" y2="78.6436" gradientTransform="matrix(31.8336 0 0 -31.8336 35.0688 2570.5935)">
		<stop  offset="0" style="stop-color:#E71E6F"/>
		<stop  offset="1" style="stop-color:#F9D232"/>
	</linearGradient>
	<rect x="35.065" y="55.501" clip-path="url(#SVGID_35_)" fill="url(#SVGID_36_)" width="31.834" height="23.143"/>
</g>
<g>
	<defs>
		<polygon id="SVGID_37_" points="33.553,45.151 32.649,46.398 34.681,52.647 35.585,51.402 		"/>
	</defs>
	<clipPath id="SVGID_38_">
		<use xlink:href="#SVGID_37_"  overflow="visible"/>
	</clipPath>
	
		<linearGradient id="SVGID_39_" gradientUnits="userSpaceOnUse" x1="-4.882813e-004" y1="78.6426" x2="0.9995" y2="78.6426" gradientTransform="matrix(2.9362 0 0 -2.9362 32.6492 279.8127)">
		<stop  offset="0" style="stop-color:#E71E6F"/>
		<stop  offset="1" style="stop-color:#F9D232"/>
	</linearGradient>
	<rect x="32.649" y="45.151" clip-path="url(#SVGID_38_)" fill="url(#SVGID_39_)" width="2.936" height="7.496"/>
</g>
<g>
	<defs>
		<polygon id="SVGID_40_" points="34.093,53.455 32.061,47.205 31.156,48.453 33.188,54.703 		"/>
	</defs>
	<clipPath id="SVGID_41_">
		<use xlink:href="#SVGID_40_"  overflow="visible"/>
	</clipPath>
	
		<linearGradient id="SVGID_42_" gradientUnits="userSpaceOnUse" x1="0" y1="78.6436" x2="1" y2="78.6436" gradientTransform="matrix(2.9372 0 0 -2.9372 31.1556 281.9449)">
		<stop  offset="0" style="stop-color:#E71E6F"/>
		<stop  offset="1" style="stop-color:#F9D232"/>
	</linearGradient>
	<rect x="31.156" y="47.205" clip-path="url(#SVGID_41_)" fill="url(#SVGID_42_)" width="2.937" height="7.498"/>
</g>
<g>
	<defs>
		<polygon id="SVGID_43_" points="35.047,43.097 34.141,44.344 36.173,50.593 37.077,49.348 		"/>
	</defs>
	<clipPath id="SVGID_44_">
		<use xlink:href="#SVGID_43_"  overflow="visible"/>
	</clipPath>
	
		<linearGradient id="SVGID_45_" gradientUnits="userSpaceOnUse" x1="-4.882813e-004" y1="78.6426" x2="0.9995" y2="78.6426" gradientTransform="matrix(2.9362 0 0 -2.9362 34.1407 277.7584)">
		<stop  offset="0" style="stop-color:#E71E6F"/>
		<stop  offset="1" style="stop-color:#F9D232"/>
	</linearGradient>
	<rect x="34.141" y="43.097" clip-path="url(#SVGID_44_)" fill="url(#SVGID_45_)" width="2.936" height="7.496"/>
</g>
<g>
	<defs>
		<polygon id="SVGID_46_" points="27.3,43.235 31.695,56.757 31.107,57.566 26.873,44.546 26.218,46.56 30.202,58.813 
			29.615,59.621 25.793,47.868 25.139,49.884 28.71,60.865 28.121,61.677 24.713,51.192 24.059,53.208 27.217,62.922 26.628,63.73 
			23.634,54.517 22.978,56.531 25.723,64.977 25.136,65.785 22.554,57.841 21.898,59.855 24.232,67.03 23.643,67.84 21.473,61.165 
			20.819,63.18 22.738,69.086 22.15,69.895 20.393,64.489 19.739,66.506 21.245,71.14 20.659,71.949 19.313,67.813 18.658,69.828 
			19.752,73.194 19.164,74.005 18.232,71.138 17.578,73.152 18.26,75.25 17.671,76.059 17.152,74.463 16.499,76.477 16.767,77.306 
			16.178,78.114 16.072,77.785 15.792,78.644 35.478,64.338 32.607,55.503 32.6,55.512 27.954,41.221 		"/>
	</defs>
	<clipPath id="SVGID_47_">
		<use xlink:href="#SVGID_46_"  overflow="visible"/>
	</clipPath>
	
		<linearGradient id="SVGID_48_" gradientUnits="userSpaceOnUse" x1="0" y1="78.6436" x2="1" y2="78.6436" gradientTransform="matrix(19.685 0 0 -19.685 15.7975 1608.0278)">
		<stop  offset="0" style="stop-color:#E71E6F"/>
		<stop  offset="1" style="stop-color:#F9D232"/>
	</linearGradient>
	<rect x="15.792" y="41.221" clip-path="url(#SVGID_47_)" fill="url(#SVGID_48_)" width="19.686" height="37.423"/>
</g>
<g>
	<defs>
		<polygon id="SVGID_49_" points="37.341,36.581 35.877,36.105 30.56,39.97 32.025,40.446 		"/>
	</defs>
	<clipPath id="SVGID_50_">
		<use xlink:href="#SVGID_49_"  overflow="visible"/>
	</clipPath>
	
		<linearGradient id="SVGID_51_" gradientUnits="userSpaceOnUse" x1="-4.882813e-004" y1="78.6436" x2="0.9995" y2="78.6436" gradientTransform="matrix(6.7819 0 0 -6.7819 30.5603 571.6329)">
		<stop  offset="0" style="stop-color:#E71E6F"/>
		<stop  offset="1" style="stop-color:#F9D232"/>
	</linearGradient>
	<rect x="30.56" y="36.105" clip-path="url(#SVGID_50_)" fill="url(#SVGID_51_)" width="6.781" height="4.341"/>
</g>
<g>
	<defs>
		<polygon id="SVGID_52_" points="29.611,39.661 34.926,35.796 33.461,35.322 28.145,39.185 		"/>
	</defs>
	<clipPath id="SVGID_53_">
		<use xlink:href="#SVGID_52_"  overflow="visible"/>
	</clipPath>
	
		<linearGradient id="SVGID_54_" gradientUnits="userSpaceOnUse" x1="9.765625e-004" y1="78.6455" x2="1.0005" y2="78.6455" gradientTransform="matrix(6.7816 0 0 -6.7816 28.1435 570.8232)">
		<stop  offset="0" style="stop-color:#E71E6F"/>
		<stop  offset="1" style="stop-color:#F9D232"/>
	</linearGradient>
	<rect x="28.145" y="35.322" clip-path="url(#SVGID_53_)" fill="url(#SVGID_54_)" width="6.781" height="4.339"/>
</g>
<g>
	<defs>
		<polygon id="SVGID_55_" points="39.756,37.367 38.292,36.891 32.976,40.754 34.44,41.23 		"/>
	</defs>
	<clipPath id="SVGID_56_">
		<use xlink:href="#SVGID_55_"  overflow="visible"/>
	</clipPath>
	
		<linearGradient id="SVGID_57_" gradientUnits="userSpaceOnUse" x1="4.882813e-004" y1="78.6436" x2="1" y2="78.6436" gradientTransform="matrix(6.78 0 0 -6.78 32.9765 572.2634)">
		<stop  offset="0" style="stop-color:#E71E6F"/>
		<stop  offset="1" style="stop-color:#F9D232"/>
	</linearGradient>
	<rect x="32.976" y="36.891" clip-path="url(#SVGID_56_)" fill="url(#SVGID_57_)" width="6.78" height="4.34"/>
</g>
<g>
	<defs>
		<polygon id="SVGID_58_" points="16.068,35.261 15.115,34.953 21.874,30.041 19.754,30.04 13.652,34.477 12.702,34.167 
			18.379,30.04 16.26,30.04 11.236,33.691 10.284,33.382 14.883,30.04 12.765,30.04 8.821,32.907 7.87,32.598 11.388,30.04 
			9.269,30.04 6.405,32.121 5.454,31.813 7.893,30.04 5.774,30.04 3.99,31.336 3.038,31.027 4.397,30.04 2.28,30.04 1.574,30.552 
			0.624,30.242 0.902,30.04 0,30.04 19.69,44.341 27.204,38.878 27.193,38.876 39.35,30.041 37.231,30.041 25.73,38.4 24.779,38.09 
			35.856,30.041 33.736,30.041 23.314,37.615 22.362,37.306 32.359,30.041 30.241,30.041 20.898,36.831 19.948,36.521 
			28.865,30.041 26.745,30.041 18.482,36.044 17.532,35.735 25.37,30.041 23.251,30.04 		"/>
	</defs>
	<clipPath id="SVGID_59_">
		<use xlink:href="#SVGID_58_"  overflow="visible"/>
	</clipPath>
	
		<linearGradient id="SVGID_60_" gradientUnits="userSpaceOnUse" x1="0" y1="78.6436" x2="1" y2="78.6436" gradientTransform="matrix(39.3498 0 0 -39.3498 0.0072 3131.7979)">
		<stop  offset="0" style="stop-color:#E71E6F"/>
		<stop  offset="1" style="stop-color:#F9D232"/>
	</linearGradient>
	<rect y="30.04" clip-path="url(#SVGID_59_)" fill="url(#SVGID_60_)" width="39.35" height="14.301"/>
</g>
<g>
	<path fill="#707E86" d="M77.272,55.64c-0.668-0.735-0.958-1.671-0.958-2.674c0-0.824,0.245-1.537,0.692-2.15
		c0.611-0.847,1.826-1.414,2.973-1.414c2.273,0,3.421,1.659,3.421,3.476c0,0.98-0.223,1.682-0.68,2.317
		c-0.691,0.958-1.816,1.459-2.929,1.459C78.721,56.653,77.852,56.264,77.272,55.64 M81.406,55.773
		c0.69-0.558,0.937-1.482,0.937-2.507c0-1.203-0.402-2.361-1.282-2.975c-0.401-0.278-0.88-0.445-1.459-0.445
		c-0.39,0-0.724,0.089-1.003,0.245c-0.813,0.479-1.192,1.481-1.192,2.618c0,1.169,0.436,2.439,1.415,3.074
		c0.391,0.245,0.824,0.379,1.394,0.379C80.682,56.163,81.116,56.019,81.406,55.773"/>
	<path fill="#707E86" d="M84.303,49.568c0.201,0,0.893,0.033,1.415,0.033c0.523,0,1.036-0.033,1.315-0.033
		c0.044,0.033,0.044,0.278,0,0.312c-0.235,0.045-0.391,0.056-0.524,0.101c-0.256,0.078-0.323,0.2-0.334,0.59
		c-0.021,1.092-0.012,2.596,0.011,3.187c0.022,0.468,0.091,0.891,0.213,1.136c0.222,0.624,0.868,1.126,1.926,1.126
		c0.925,0,1.828-0.278,1.928-2.039c0.045-0.847,0.067-2.094,0.023-3.23c-0.013-0.558-0.135-0.702-0.502-0.769
		c-0.156-0.045-0.324-0.056-0.568-0.101c-0.045-0.044-0.034-0.278,0.011-0.312c0.2,0,0.691,0.033,1.337,0.033
		c0.502,0,1.003-0.033,1.192-0.033c0.034,0.033,0.044,0.289,0,0.312c-0.167,0.045-0.345,0.067-0.468,0.111
		c-0.323,0.089-0.391,0.29-0.401,0.824c-0.067,2.284-0.033,3.098-0.222,3.877c-0.324,1.504-1.527,1.961-2.697,1.961
		c-1.759,0-2.54-0.803-2.684-2.017c-0.09-0.701-0.068-3.531-0.09-4.1c-0.012-0.29-0.077-0.468-0.313-0.546
		c-0.122-0.044-0.379-0.078-0.579-0.111C84.247,49.847,84.259,49.602,84.303,49.568"/>
	<path fill="#707E86" d="M97.204,56.486c-0.322,0-0.979-0.034-1.66-0.034c-0.823,0-1.393,0.034-1.682,0.034
		c-0.045-0.056-0.034-0.278,0-0.323c0.345-0.033,0.624-0.066,0.791-0.112c0.357-0.066,0.412-0.289,0.423-0.801
		c0.033-0.869,0.045-3.254,0.045-5.103c0-0.045-0.045-0.09-0.078-0.09c-0.189-0.011-1.014-0.011-1.438,0
		c-0.189,0.012-0.334,0.09-0.466,0.313c-0.136,0.212-0.28,0.612-0.437,1.036c-0.044,0.033-0.322-0.033-0.345-0.089
		c0.089-0.468,0.2-1.359,0.223-1.839c0-0.021,0.102-0.056,0.122-0.044c0.2,0.1,0.49,0.167,0.902,0.167h4.122
		c0.513,0,0.758-0.022,1.081-0.167c0.034,0,0.1,0.032,0.111,0.056c-0.111,0.39-0.2,1.281-0.256,1.883
		c-0.033,0.056-0.322,0.056-0.355,0.01c-0.035-0.389-0.09-0.778-0.18-0.99c-0.089-0.223-0.224-0.313-0.435-0.323
		c-0.522-0.012-1.303-0.012-1.559,0c-0.035,0.011-0.057,0.056-0.057,0.09c0,1.637,0,4.723,0.033,5.291
		c0.033,0.39,0.122,0.523,0.379,0.59c0.178,0.057,0.367,0.078,0.757,0.123C97.282,56.218,97.261,56.464,97.204,56.486"/>
	<path fill="#707E86" d="M100.592,55.94c0.278,0.212,0.668,0.301,1.093,0.301c0.567,0,1.191-0.334,1.191-1.17
		c0-0.735-0.457-1.08-1.46-1.671c-0.991-0.568-1.66-1.114-1.66-2.116c0-1.192,0.981-1.883,2.195-1.883
		c0.769,0,1.225,0.144,1.693,0.189c-0.077,0.367-0.146,0.991-0.189,1.537c-0.033,0.066-0.29,0.066-0.323,0.011
		c-0.065-0.657-0.167-0.97-0.435-1.147c-0.245-0.178-0.568-0.233-0.902-0.233c-0.768,0-1.159,0.59-1.17,1.136
		c0,0.624,0.29,0.947,0.758,1.271c0.445,0.289,1.003,0.557,1.382,0.779c0.578,0.367,1.069,0.836,1.069,1.649
		c0,1.092-0.902,2.061-2.473,2.061c-0.669,0-1.337-0.212-1.605-0.346c-0.1-0.145-0.277-1.292-0.311-1.671
		c0.021-0.066,0.29-0.134,0.344-0.1C99.99,55.228,100.213,55.672,100.592,55.94"/>
	<path fill="#707E86" d="M105.851,55.64c-0.669-0.735-0.958-1.671-0.958-2.674c0-0.824,0.245-1.537,0.691-2.15
		c0.611-0.847,1.826-1.414,2.973-1.414c2.274,0,3.421,1.659,3.421,3.476c0,0.98-0.223,1.682-0.68,2.317
		c-0.69,0.958-1.816,1.459-2.929,1.459C107.299,56.653,106.43,56.264,105.851,55.64 M109.983,55.773
		c0.69-0.558,0.938-1.482,0.938-2.507c0-1.203-0.403-2.361-1.283-2.975c-0.4-0.278-0.88-0.445-1.459-0.445
		c-0.39,0-0.723,0.089-1.003,0.245c-0.813,0.479-1.191,1.481-1.191,2.618c0,1.169,0.435,2.439,1.414,3.074
		c0.391,0.245,0.824,0.379,1.394,0.379C109.259,56.163,109.693,56.019,109.983,55.773"/>
	<path fill="#707E86" d="M112.88,49.568c0.201,0,0.893,0.033,1.415,0.033c0.523,0,1.036-0.033,1.315-0.033
		c0.044,0.033,0.044,0.278,0,0.312c-0.234,0.045-0.389,0.056-0.523,0.101c-0.257,0.078-0.322,0.2-0.335,0.59
		c-0.021,1.092-0.011,2.596,0.013,3.187c0.021,0.468,0.088,0.891,0.211,1.136c0.222,0.624,0.868,1.126,1.926,1.126
		c0.925,0,1.829-0.278,1.928-2.039c0.045-0.847,0.068-2.094,0.023-3.23c-0.012-0.558-0.134-0.702-0.501-0.769
		c-0.157-0.045-0.324-0.056-0.569-0.101c-0.044-0.044-0.033-0.278,0.011-0.312c0.201,0,0.691,0.033,1.337,0.033
		c0.502,0,1.003-0.033,1.192-0.033c0.034,0.033,0.044,0.289,0,0.312c-0.167,0.045-0.345,0.067-0.467,0.111
		c-0.324,0.089-0.392,0.29-0.402,0.824c-0.066,2.284-0.033,3.098-0.222,3.877c-0.324,1.504-1.527,1.961-2.697,1.961
		c-1.759,0-2.54-0.803-2.684-2.017c-0.09-0.701-0.067-3.531-0.09-4.1c-0.011-0.29-0.077-0.468-0.313-0.546
		c-0.122-0.044-0.379-0.078-0.579-0.111C112.825,49.847,112.836,49.602,112.88,49.568"/>
	<path fill="#707E86" d="M120.802,49.568c0.269,0,0.937,0.033,1.281,0.033c0.825,0,1.405-0.022,1.85-0.022
		c1.305,0,1.994,0.78,1.994,1.716s-0.601,1.493-1.27,1.793c-0.022,0.022-0.034,0.057-0.022,0.079
		c0.39,0.623,1.271,1.849,1.816,2.405c0.456,0.469,0.611,0.524,1.28,0.613c0.021,0.033,0,0.289-0.066,0.312
		c-0.479,0.022-1.371-0.011-1.783-0.213c-0.167-0.076-0.346-0.21-0.534-0.444c-0.424-0.501-1.104-1.615-1.525-2.217
		c-0.078-0.111-0.19-0.167-0.279-0.167c-0.156-0.022-0.635-0.011-0.792-0.011c-0.021,0-0.044,0.056-0.044,0.066
		c0,0.612,0,1.647,0.022,2.017c0.021,0.379,0.101,0.479,0.356,0.534c0.167,0.034,0.367,0.067,0.624,0.101
		c0.056,0.045,0.034,0.278-0.022,0.323c-0.212,0-0.747-0.033-1.481-0.033c-0.725,0-1.203,0.033-1.415,0.033
		c-0.055-0.045-0.055-0.278,0-0.323c0.245-0.033,0.423-0.056,0.568-0.089c0.267-0.056,0.356-0.189,0.379-0.612
		c0.011-0.257,0.022-1.771,0.022-2.386c0-1.135,0-2.25-0.012-2.595c-0.011-0.313-0.088-0.445-0.368-0.512
		c-0.167-0.034-0.378-0.067-0.6-0.09C120.736,49.836,120.758,49.591,120.802,49.568 M122.807,50.014
		c-0.033,0.022-0.077,0.111-0.077,0.167c-0.022,0.379-0.022,1.894-0.022,2.763c0,0.022,0.022,0.056,0.056,0.056
		c0.746,0.022,1.227,0,1.438-0.09c0.354-0.167,0.723-0.567,0.723-1.292c0-1.047-0.535-1.659-1.726-1.659
		C123.109,49.958,122.919,49.97,122.807,50.014"/>
	<path fill="#707E86" d="M132.823,50.047c-0.367-0.178-0.847-0.245-1.381-0.245c-1.616,0-2.541,1.192-2.541,3.075
		c0,1.782,0.992,3.286,2.977,3.286c0.478,0,0.945-0.122,1.224-0.379c0.28-0.223,0.546-0.602,0.836-1.092
		c0.056,0,0.245,0.101,0.268,0.179c-0.11,0.479-0.591,1.348-0.848,1.504c-0.322,0.111-1.023,0.278-1.704,0.278
		c-2.483,0-3.865-1.359-3.865-3.677c0-1.203,0.547-2.406,1.771-3.063c0.59-0.322,1.314-0.513,2.261-0.513
		c0.947,0,1.693,0.19,2.195,0.224c-0.067,0.39-0.168,1.214-0.178,1.715c-0.045,0.045-0.334,0.078-0.347,0.022
		C133.382,50.471,133.235,50.248,132.823,50.047"/>
	<path fill="#707E86" d="M134.896,49.568c0.234,0,0.87,0.033,1.448,0.033c0.58,0,1.104-0.033,1.382-0.033
		c0.033,0.044,0.045,0.256,0.011,0.312c-0.244,0.033-0.434,0.056-0.567,0.089c-0.256,0.067-0.301,0.212-0.323,0.558
		c-0.034,0.468-0.021,1.403-0.021,2.373c0,1.103,0,2.172,0.021,2.562c0.011,0.323,0.055,0.513,0.39,0.591
		c0.156,0.045,0.39,0.078,0.657,0.111c0.045,0.044,0.023,0.29-0.021,0.323c-0.269,0-0.892-0.033-1.438-0.033
		c-0.634,0-1.19,0.033-1.548,0.033c-0.055-0.033-0.055-0.29-0.01-0.323c0.244-0.022,0.412-0.045,0.566-0.089
		c0.324-0.067,0.368-0.224,0.392-0.479c0.043-0.312,0.043-1.459,0.043-2.918c0-0.914,0-1.639-0.033-2.162
		c-0.022-0.278-0.044-0.445-0.278-0.512c-0.167-0.056-0.379-0.078-0.68-0.123C134.84,49.836,134.863,49.602,134.896,49.568"/>
	<path fill="#707E86" d="M138.383,49.568c0.278,0,0.836,0.033,1.395,0.033c0.221,0,0.411,0,0.501-0.011
		c0.043,0.11,0.11,0.233,0.399,0.601c1.138,1.427,3.421,4.212,3.955,4.835c0.022,0.012,0.034,0,0.045-0.011
		c0-1.526,0.012-3.609-0.045-4.411c-0.021-0.323-0.089-0.502-0.423-0.591c-0.201-0.056-0.446-0.101-0.747-0.134
		c-0.044-0.044-0.033-0.278,0-0.312c0.29,0,0.803,0.033,1.482,0.033c0.378,0,1.036-0.033,1.181-0.033
		c0.045,0.033,0.045,0.268,0,0.312c-0.2,0.033-0.346,0.067-0.49,0.111c-0.29,0.101-0.356,0.301-0.379,0.602
		c-0.066,0.858-0.056,2.284-0.089,4.39c0,0.512,0.011,1.158,0.022,1.526c-0.122-0.012-0.636-0.012-0.769,0
		c-0.591-0.848-3.653-4.68-4.323-5.515c-0.011-0.011-0.044,0-0.044,0.011c-0.022,1.147-0.022,3.755,0.012,4.379
		c0.021,0.444,0.167,0.601,0.457,0.668c0.167,0.056,0.389,0.078,0.669,0.111c0.044,0.044,0.01,0.278-0.024,0.323
		c-0.267,0-0.768-0.033-1.391-0.033c-0.681,0-1.104,0.033-1.337,0.033c-0.035-0.033-0.035-0.29,0-0.323
		c0.245-0.022,0.422-0.056,0.589-0.101c0.257-0.078,0.401-0.224,0.424-0.657c0.044-0.579,0.077-2.395,0.1-4.734
		c0-0.167-0.056-0.412-0.301-0.546c-0.211-0.145-0.456-0.2-0.89-0.245C138.328,49.847,138.339,49.602,138.383,49.568"/>
	<path fill="#707E86" d="M153.39,56.229c-0.366,0.112-1.46,0.424-2.429,0.424c-2.605,0-3.976-1.314-3.976-3.665
		c0-1.471,0.746-2.618,1.96-3.164c0.624-0.289,1.303-0.423,2.173-0.423c0.901,0,1.538,0.178,2.206,0.245
		c-0.09,0.412-0.19,1.27-0.202,1.771c-0.033,0.056-0.312,0.078-0.367,0.034c-0.089-0.836-0.222-1.147-0.546-1.338
		c-0.345-0.2-0.791-0.312-1.514-0.312c-1.739,0-2.574,1.236-2.574,3.064c0,1.915,1.025,3.397,3.041,3.397
		c0.312,0,0.59-0.045,0.747-0.146c0.156-0.077,0.222-0.278,0.245-0.468c0.032-0.346,0.032-0.758,0.021-1.137
		c-0.021-0.367-0.09-0.501-0.412-0.59c-0.201-0.044-0.4-0.066-0.747-0.111c-0.056-0.033-0.032-0.29,0.013-0.323
		c0.344,0,0.88,0.033,1.559,0.033c0.657,0,0.991-0.022,1.214-0.033c0.034,0.033,0.034,0.301-0.011,0.334
		c-0.133,0.022-0.267,0.045-0.368,0.078c-0.211,0.066-0.266,0.212-0.276,0.535c-0.013,0.334-0.024,1.024,0,1.236
		c0.011,0.167,0.031,0.223,0.276,0.323C153.434,56.029,153.412,56.196,153.39,56.229"/>
	<path fill="#707E86" d="M75.746,75.212c0.569,0.432,1.367,0.614,2.232,0.614c1.162,0,2.437-0.684,2.437-2.392
		c0-1.502-0.935-2.208-2.981-3.415c-2.028-1.162-3.395-2.276-3.395-4.327c0-2.436,2.003-3.847,4.486-3.847
		c1.572,0,2.505,0.295,3.462,0.386c-0.16,0.751-0.297,2.027-0.387,3.144c-0.068,0.136-0.592,0.136-0.661,0.022
		c-0.136-1.345-0.342-1.981-0.888-2.346c-0.501-0.364-1.161-0.479-1.846-0.479c-1.569,0-2.368,1.207-2.39,2.323
		c0,1.275,0.592,1.937,1.547,2.596c0.912,0.592,2.051,1.139,2.825,1.594c1.183,0.752,2.186,1.708,2.186,3.37
		c0,2.231-1.845,4.213-5.055,4.213c-1.367,0-2.732-0.433-3.28-0.706c-0.204-0.296-0.568-2.642-0.637-3.416
		c0.045-0.136,0.592-0.273,0.705-0.204C74.517,73.754,74.971,74.665,75.746,75.212"/>
	<path fill="#707E86" d="M96.695,76.327c-0.66,0-2.004-0.068-3.393-0.068c-1.686,0-2.846,0.068-3.438,0.068
		c-0.092-0.114-0.067-0.568,0-0.661c0.706-0.068,1.275-0.136,1.616-0.227c0.729-0.137,0.843-0.592,0.865-1.64
		c0.07-1.776,0.091-6.649,0.091-10.43c0-0.091-0.091-0.182-0.158-0.182c-0.388-0.022-2.072-0.022-2.937,0
		c-0.387,0.023-0.685,0.182-0.958,0.637c-0.272,0.434-0.569,1.253-0.887,2.119c-0.092,0.067-0.661-0.068-0.705-0.183
		c0.18-0.956,0.408-2.778,0.455-3.758c0-0.045,0.203-0.115,0.25-0.091c0.408,0.205,1.001,0.342,1.845,0.342h8.424
		c1.048,0,1.549-0.046,2.208-0.342c0.07,0,0.206,0.068,0.229,0.114c-0.229,0.797-0.409,2.619-0.524,3.849
		c-0.067,0.113-0.659,0.113-0.729,0.021c-0.066-0.797-0.182-1.594-0.362-2.025c-0.184-0.455-0.456-0.638-0.89-0.66
		c-1.069-0.023-2.664-0.023-3.188,0c-0.068,0.022-0.113,0.113-0.113,0.181c0,3.349,0,9.656,0.069,10.816
		c0.067,0.797,0.251,1.07,0.773,1.207c0.364,0.114,0.751,0.16,1.548,0.25C96.854,75.78,96.81,76.282,96.695,76.327"/>
	<path fill="#707E86" d="M105.702,73.549c1.162-2.755,3.303-8.562,3.803-10.019c0.184-0.479,0.343-0.979,0.389-1.298
		c0.091,0,0.362,0.022,0.752,0.022c0.454,0,0.682-0.022,0.751-0.022c0.091,0.341,0.205,0.751,0.363,1.184
		c0.455,1.298,2.982,8.517,3.779,10.406c0.661,1.526,0.821,1.64,2.46,1.845c0.09,0.067,0.023,0.569-0.046,0.66
		c-0.591-0.023-1.753-0.068-2.777-0.068c-1.115,0-2.505,0.045-2.982,0.068c-0.069-0.091-0.115-0.569-0.023-0.66
		c0.501-0.068,0.91-0.137,1.252-0.25c0.296-0.138,0.318-0.364,0.25-0.569c-0.271-0.979-0.955-2.893-1.365-3.917
		c-0.023-0.068-0.159-0.16-0.203-0.16c-0.32-0.022-1.117,0-2.142,0c-1.458,0-1.618-0.022-1.89,0c-0.092,0-0.207,0.138-0.229,0.205
		c-0.456,1.229-1.185,3.144-1.229,3.69c-0.023,0.387,0.021,0.636,0.728,0.818c0.273,0.068,0.66,0.137,1.094,0.183
		c0.068,0.091,0.022,0.569-0.046,0.66c-0.479,0-1.64-0.068-2.915-0.068c-1.298,0-2.003,0.068-2.437,0.068
		c-0.09-0.091-0.09-0.569,0-0.66C104.678,75.462,104.951,75.302,105.702,73.549 M110.052,64.623
		c-0.387,1.139-1.32,3.712-1.708,4.919c0,0.09,0.023,0.137,0.092,0.159c0.228,0.022,0.957,0.022,1.82,0.022
		c0.547,0,1.298,0,1.527-0.022c0.045,0,0.114-0.092,0.069-0.183c-0.456-1.411-1.321-3.938-1.687-4.918
		C110.144,64.601,110.075,64.577,110.052,64.623"/>
	<path fill="#707E86" d="M122.409,62.186c0.546,0,1.911,0.069,2.618,0.069c1.686,0,2.87-0.046,3.779-0.046
		c2.665,0,4.076,1.595,4.076,3.508c0,1.912-1.229,3.051-2.596,3.665c-0.045,0.046-0.068,0.114-0.045,0.16
		c0.796,1.274,2.596,3.78,3.71,4.918c0.934,0.956,1.253,1.07,2.62,1.253c0.045,0.068,0,0.592-0.136,0.637
		c-0.98,0.046-2.802-0.023-3.645-0.433c-0.342-0.159-0.706-0.433-1.093-0.91c-0.865-1.025-2.254-3.302-3.12-4.531
		c-0.159-0.229-0.386-0.343-0.569-0.343c-0.317-0.045-1.297-0.021-1.615-0.021c-0.046,0-0.092,0.113-0.092,0.136
		c0,1.253,0,3.37,0.046,4.122c0.046,0.774,0.205,0.979,0.728,1.093c0.343,0.068,0.752,0.137,1.277,0.204
		c0.111,0.092,0.066,0.57-0.047,0.66c-0.434,0-1.526-0.066-3.028-0.066c-1.481,0-2.459,0.066-2.893,0.066
		c-0.113-0.09-0.113-0.568,0-0.66c0.501-0.067,0.865-0.113,1.161-0.182c0.547-0.114,0.729-0.387,0.773-1.252
		c0.024-0.523,0.047-3.621,0.047-4.873c0-2.322,0-4.6-0.022-5.306c-0.024-0.637-0.183-0.911-0.753-1.047
		c-0.341-0.068-0.772-0.137-1.229-0.183C122.272,62.733,122.318,62.232,122.409,62.186 M126.507,63.097
		c-0.067,0.046-0.158,0.229-0.158,0.342c-0.046,0.774-0.046,3.872-0.046,5.647c0,0.046,0.046,0.113,0.114,0.113
		c1.525,0.047,2.504,0,2.938-0.181c0.728-0.343,1.479-1.162,1.479-2.643c0-2.14-1.094-3.393-3.529-3.393
		C127.122,62.983,126.735,63.007,126.507,63.097"/>
	<path fill="#707E86" d="M143.936,75.212c0.569,0.432,1.367,0.614,2.231,0.614c1.163,0,2.438-0.684,2.438-2.392
		c0-1.502-0.934-2.208-2.983-3.415c-2.026-1.162-3.393-2.276-3.393-4.327c0-2.436,2.003-3.847,4.485-3.847
		c1.572,0,2.505,0.295,3.461,0.386c-0.159,0.751-0.296,2.027-0.386,3.144c-0.068,0.136-0.592,0.136-0.661,0.022
		c-0.136-1.345-0.34-1.981-0.888-2.346c-0.5-0.364-1.161-0.479-1.845-0.479c-1.57,0-2.368,1.207-2.391,2.323
		c0,1.275,0.592,1.937,1.548,2.596c0.911,0.592,2.05,1.139,2.824,1.594c1.183,0.752,2.186,1.708,2.186,3.37
		c0,2.231-1.845,4.213-5.055,4.213c-1.367,0-2.731-0.433-3.279-0.706c-0.205-0.296-0.568-2.642-0.638-3.416
		c0.045-0.136,0.593-0.273,0.706-0.204C142.707,73.754,143.162,74.665,143.936,75.212"/>
</g>
</svg>
