<?xml version="1.0" encoding="utf-8"?>
<!-- Generator: Adobe Illustrator 15.0.0, SVG Export Plug-In . SVG Version: 6.00 Build 0)  -->
<!DOCTYPE svg PUBLIC "-//W3C//DTD SVG 1.1//EN" "http://www.w3.org/Graphics/SVG/1.1/DTD/svg11.dtd">
<svg version="1.1" id="Warstwa_1" xmlns="http://www.w3.org/2000/svg" xmlns:xlink="http://www.w3.org/1999/xlink" x="0px" y="0px"
	 width="400px" height="500px" viewBox="0 0 400 500" enable-background="new 0 0 400 500" xml:space="preserve">
<g>
	<defs>
		<polygon id="SVGID_1_" points="135.254,365.604 135.254,362.776 125.49,355.688 125.49,358.514 		"/>
	</defs>
	<clipPath id="SVGID_2_">
		<use xlink:href="#SVGID_1_"  overflow="visible"/>
	</clipPath>
	
		<linearGradient id="SVGID_3_" gradientUnits="userSpaceOnUse" x1="91.3755" y1="373.5615" x2="93.2114" y2="373.5615" gradientTransform="matrix(5.3178 0 0 -5.3178 -360.4308 2347.1904)">
		<stop  offset="0" style="stop-color:#E71E6F"/>
		<stop  offset="1" style="stop-color:#F9D232"/>
	</linearGradient>
	<rect x="125.49" y="355.688" clip-path="url(#SVGID_2_)" fill="url(#SVGID_3_)" width="9.764" height="9.917"/>
</g>
<g>
	<defs>
		<polygon id="SVGID_4_" points="125.49,353.849 135.254,360.94 135.254,358.114 125.49,351.022 		"/>
	</defs>
	<clipPath id="SVGID_5_">
		<use xlink:href="#SVGID_4_"  overflow="visible"/>
	</clipPath>
	
		<linearGradient id="SVGID_6_" gradientUnits="userSpaceOnUse" x1="91.3755" y1="373.9609" x2="93.2114" y2="373.9609" gradientTransform="matrix(5.3178 0 0 -5.3178 -360.4288 2344.645)">
		<stop  offset="0" style="stop-color:#E71E6F"/>
		<stop  offset="1" style="stop-color:#F9D232"/>
	</linearGradient>
	<rect x="125.49" y="351.022" clip-path="url(#SVGID_5_)" fill="url(#SVGID_6_)" width="9.764" height="9.918"/>
</g>
<g>
	<defs>
		<polygon id="SVGID_7_" points="135.254,370.268 135.254,367.439 125.49,360.348 125.49,363.176 		"/>
	</defs>
	<clipPath id="SVGID_8_">
		<use xlink:href="#SVGID_7_"  overflow="visible"/>
	</clipPath>
	
		<linearGradient id="SVGID_9_" gradientUnits="userSpaceOnUse" x1="91.3755" y1="373.1621" x2="93.2114" y2="373.1621" gradientTransform="matrix(5.3178 0 0 -5.3178 -360.4308 2349.7295)">
		<stop  offset="0" style="stop-color:#E71E6F"/>
		<stop  offset="1" style="stop-color:#F9D232"/>
	</linearGradient>
	<rect x="125.49" y="360.348" clip-path="url(#SVGID_8_)" fill="url(#SVGID_9_)" width="9.764" height="9.92"/>
</g>
<g>
	<defs>
		<polygon id="SVGID_10_" points="125.49,296.687 111.69,339.183 125.49,349.206 125.49,349.186 147.815,365.401 146.611,361.7 
			125.49,346.359 125.49,344.523 145.832,359.299 144.629,355.6 125.49,341.695 125.49,339.86 143.852,353.193 142.646,349.496 
			125.49,337.032 125.49,335.195 141.864,347.091 140.663,343.391 125.49,332.369 125.49,330.533 139.883,340.989 138.682,337.287 
			125.49,327.707 125.49,325.872 137.899,334.884 136.7,331.183 125.49,323.042 125.49,321.207 135.918,328.78 134.716,325.08 
			125.49,318.379 125.49,316.545 133.935,322.676 132.731,318.977 125.49,313.717 125.49,311.882 131.95,316.573 130.75,312.871 
			125.49,309.05 125.49,307.214 129.968,310.47 128.767,306.769 125.49,304.389 125.49,302.555 127.985,304.364 126.784,300.664 
			125.49,299.727 125.49,297.892 126.004,298.262 		"/>
	</defs>
	<clipPath id="SVGID_11_">
		<use xlink:href="#SVGID_10_"  overflow="visible"/>
	</clipPath>
	
		<linearGradient id="SVGID_12_" gradientUnits="userSpaceOnUse" x1="95.8896" y1="381.1338" x2="97.7261" y2="381.1338" gradientTransform="matrix(19.6744 0 0 -19.6744 -1774.8899 7829.6431)">
		<stop  offset="0" style="stop-color:#E71E6F"/>
		<stop  offset="1" style="stop-color:#F9D232"/>
	</linearGradient>
	<rect x="111.69" y="296.687" clip-path="url(#SVGID_11_)" fill="url(#SVGID_12_)" width="36.125" height="68.715"/>
</g>
<g>
	<defs>
		<polygon id="SVGID_13_" points="138.876,382.423 141.564,381.548 145.293,370.072 142.604,370.942 		"/>
	</defs>
	<clipPath id="SVGID_14_">
		<use xlink:href="#SVGID_13_"  overflow="visible"/>
	</clipPath>
	
		<linearGradient id="SVGID_15_" gradientUnits="userSpaceOnUse" x1="89.6631" y1="366.6035" x2="91.4995" y2="366.6035" gradientTransform="matrix(3.4943 0 0 -3.4943 -174.4326 1657.2687)">
		<stop  offset="0" style="stop-color:#E71E6F"/>
		<stop  offset="1" style="stop-color:#F9D232"/>
	</linearGradient>
	<rect x="138.876" y="370.072" clip-path="url(#SVGID_14_)" fill="url(#SVGID_15_)" width="6.417" height="12.351"/>
</g>
<g>
	<defs>
		<polygon id="SVGID_16_" points="147.04,369.505 143.314,380.98 146,380.108 149.727,368.631 		"/>
	</defs>
	<clipPath id="SVGID_17_">
		<use xlink:href="#SVGID_16_"  overflow="visible"/>
	</clipPath>
	
		<linearGradient id="SVGID_18_" gradientUnits="userSpaceOnUse" x1="90.2383" y1="366.7852" x2="92.0742" y2="366.7852" gradientTransform="matrix(3.4934 0 0 -3.4934 -171.9213 1656.1182)">
		<stop  offset="0" style="stop-color:#E71E6F"/>
		<stop  offset="1" style="stop-color:#F9D232"/>
	</linearGradient>
	<rect x="143.314" y="368.631" clip-path="url(#SVGID_17_)" fill="url(#SVGID_18_)" width="6.413" height="12.35"/>
</g>
<g>
	<defs>
		<polygon id="SVGID_19_" points="134.441,383.861 137.129,382.99 140.859,371.512 138.171,372.386 		"/>
	</defs>
	<clipPath id="SVGID_20_">
		<use xlink:href="#SVGID_19_"  overflow="visible"/>
	</clipPath>
	
		<linearGradient id="SVGID_21_" gradientUnits="userSpaceOnUse" x1="89.0864" y1="366.418" x2="90.9229" y2="366.418" gradientTransform="matrix(3.4949 0 0 -3.4949 -176.9102 1658.3)">
		<stop  offset="0" style="stop-color:#E71E6F"/>
		<stop  offset="1" style="stop-color:#F9D232"/>
	</linearGradient>
	<rect x="134.441" y="371.512" clip-path="url(#SVGID_20_)" fill="url(#SVGID_21_)" width="6.418" height="12.35"/>
</g>
<g>
	<defs>
		<polygon id="SVGID_22_" points="151.476,368.063 142.951,394.305 146.098,392.02 154.163,367.189 155.91,366.623 148.144,390.535 
			151.289,388.246 158.599,365.749 160.344,365.181 153.335,386.762 156.482,384.477 163.034,364.307 164.781,363.74 
			158.528,382.99 161.675,380.703 167.468,362.866 169.214,362.295 163.72,379.22 166.867,376.932 171.904,361.425 173.648,360.857 
			168.913,375.445 172.06,373.158 176.34,359.982 178.084,359.416 174.102,371.674 177.253,369.387 180.772,358.544 182.52,357.975 
			179.295,367.902 182.443,365.615 185.208,357.102 186.956,356.535 184.486,364.13 187.636,361.841 189.645,355.662 
			191.388,355.095 189.679,360.358 192.828,358.071 194.078,354.22 195.822,353.652 194.871,356.587 198.021,354.299 
			198.514,352.779 200.261,352.21 200.064,352.813 201.404,351.841 156.721,351.847 151.454,368.067 		"/>
	</defs>
	<clipPath id="SVGID_23_">
		<use xlink:href="#SVGID_22_"  overflow="visible"/>
	</clipPath>
	
		<linearGradient id="SVGID_24_" gradientUnits="userSpaceOnUse" x1="97.1426" y1="381.2451" x2="98.979" y2="381.2451" gradientTransform="matrix(31.8358 0 0 -31.8358 -2949.675 12510.3418)">
		<stop  offset="0" style="stop-color:#E71E6F"/>
		<stop  offset="1" style="stop-color:#F9D232"/>
	</linearGradient>
	<rect x="142.951" y="351.841" clip-path="url(#SVGID_23_)" fill="url(#SVGID_24_)" width="58.454" height="42.464"/>
</g>
<g>
	<defs>
		<polygon id="SVGID_25_" points="124.003,391.064 125.662,393.352 137.728,393.352 136.069,391.063 		"/>
	</defs>
	<clipPath id="SVGID_26_">
		<use xlink:href="#SVGID_25_"  overflow="visible"/>
	</clipPath>
	
		<linearGradient id="SVGID_27_" gradientUnits="userSpaceOnUse" x1="93.1978" y1="374.3652" x2="95.0337" y2="374.3652" gradientTransform="matrix(7.4768 0 0 -7.4768 -572.8127 3191.2444)">
		<stop  offset="0" style="stop-color:#E71E6F"/>
		<stop  offset="1" style="stop-color:#F9D232"/>
	</linearGradient>
	<rect x="124.003" y="391.063" clip-path="url(#SVGID_26_)" fill="url(#SVGID_27_)" width="13.725" height="2.289"/>
</g>
<g>
	<defs>
		<polygon id="SVGID_28_" points="138.811,394.836 126.744,394.836 128.403,397.126 140.473,397.123 		"/>
	</defs>
	<clipPath id="SVGID_29_">
		<use xlink:href="#SVGID_28_"  overflow="visible"/>
	</clipPath>
	
		<linearGradient id="SVGID_30_" gradientUnits="userSpaceOnUse" x1="93.3657" y1="374.1357" x2="95.2017" y2="374.1357" gradientTransform="matrix(7.4777 0 0 -7.4777 -571.4157 3193.6648)">
		<stop  offset="0" style="stop-color:#E71E6F"/>
		<stop  offset="1" style="stop-color:#F9D232"/>
	</linearGradient>
	<rect x="126.744" y="394.836" clip-path="url(#SVGID_29_)" fill="url(#SVGID_30_)" width="13.729" height="2.29"/>
</g>
<g>
	<defs>
		<polygon id="SVGID_31_" points="121.262,387.29 122.922,389.58 134.991,389.577 133.326,387.29 		"/>
	</defs>
	<clipPath id="SVGID_32_">
		<use xlink:href="#SVGID_31_"  overflow="visible"/>
	</clipPath>
	
		<linearGradient id="SVGID_33_" gradientUnits="userSpaceOnUse" x1="93.0313" y1="374.5957" x2="94.8672" y2="374.5957" gradientTransform="matrix(7.4777 0 0 -7.4777 -574.4001 3189.5554)">
		<stop  offset="0" style="stop-color:#E71E6F"/>
		<stop  offset="1" style="stop-color:#F9D232"/>
	</linearGradient>
	<rect x="121.262" y="387.29" clip-path="url(#SVGID_32_)" fill="url(#SVGID_33_)" width="13.729" height="2.29"/>
</g>
<g>
	<defs>
		<polygon id="SVGID_34_" points="141.54,398.593 141.553,398.608 113.958,398.611 117.108,400.896 143.213,400.895 
			144.293,402.381 119.148,402.385 122.296,404.671 145.952,404.667 147.035,406.153 124.343,406.157 127.491,408.444 
			148.694,408.439 149.774,409.927 129.534,409.929 132.679,412.216 151.434,412.214 152.515,413.699 134.727,413.7 
			137.874,415.989 154.179,415.985 155.256,417.471 139.917,417.473 143.067,419.759 156.919,419.759 157.997,421.245 
			145.108,421.245 148.258,423.534 159.662,423.529 160.739,425.016 150.3,425.021 153.449,427.307 162.399,427.305 163.48,428.79 
			155.493,428.791 158.64,431.075 165.142,431.075 166.222,432.562 160.684,432.563 163.831,434.85 167.881,434.85 168.963,436.334 
			165.878,436.334 169.023,438.624 170.623,438.624 171.702,440.108 171.071,440.108 172.409,441.082 158.594,398.591 		"/>
	</defs>
	<clipPath id="SVGID_35_">
		<use xlink:href="#SVGID_34_"  overflow="visible"/>
	</clipPath>
	
		<linearGradient id="SVGID_36_" gradientUnits="userSpaceOnUse" x1="96.728" y1="380.5762" x2="98.564" y2="380.5762" gradientTransform="matrix(31.8336 0 0 -31.8336 -2965.2554 12534.9668)">
		<stop  offset="0" style="stop-color:#E71E6F"/>
		<stop  offset="1" style="stop-color:#F9D232"/>
	</linearGradient>
	<rect x="113.958" y="398.591" clip-path="url(#SVGID_35_)" fill="url(#SVGID_36_)" width="58.451" height="42.491"/>
</g>
<g>
	<defs>
		<polygon id="SVGID_37_" points="111.183,379.586 109.523,381.878 113.254,393.352 114.916,391.064 		"/>
	</defs>
	<clipPath id="SVGID_38_">
		<use xlink:href="#SVGID_37_"  overflow="visible"/>
	</clipPath>
	
		<linearGradient id="SVGID_39_" gradientUnits="userSpaceOnUse" x1="83.5249" y1="361.9004" x2="85.3618" y2="361.9004" gradientTransform="matrix(2.9362 0 0 -2.9362 -135.7241 1449.0831)">
		<stop  offset="0" style="stop-color:#E71E6F"/>
		<stop  offset="1" style="stop-color:#F9D232"/>
	</linearGradient>
	<rect x="109.523" y="379.586" clip-path="url(#SVGID_38_)" fill="url(#SVGID_39_)" width="5.393" height="13.766"/>
</g>
<g>
	<defs>
		<polygon id="SVGID_40_" points="112.176,394.836 108.444,383.361 106.782,385.649 110.513,397.126 		"/>
	</defs>
	<clipPath id="SVGID_41_">
		<use xlink:href="#SVGID_40_"  overflow="visible"/>
	</clipPath>
	
		<linearGradient id="SVGID_42_" gradientUnits="userSpaceOnUse" x1="83.1055" y1="361.3242" x2="84.9419" y2="361.3242" gradientTransform="matrix(2.9372 0 0 -2.9372 -137.3135 1451.5121)">
		<stop  offset="0" style="stop-color:#E71E6F"/>
		<stop  offset="1" style="stop-color:#F9D232"/>
	</linearGradient>
	<rect x="106.782" y="383.361" clip-path="url(#SVGID_41_)" fill="url(#SVGID_42_)" width="5.394" height="13.765"/>
</g>
<g>
	<defs>
		<polygon id="SVGID_43_" points="113.928,375.816 112.263,378.104 115.995,389.579 117.655,387.292 		"/>
	</defs>
	<clipPath id="SVGID_44_">
		<use xlink:href="#SVGID_43_"  overflow="visible"/>
	</clipPath>
	
		<linearGradient id="SVGID_45_" gradientUnits="userSpaceOnUse" x1="83.9502" y1="362.4844" x2="85.7866" y2="362.4844" gradientTransform="matrix(2.9362 0 0 -2.9362 -134.2338 1447.0328)">
		<stop  offset="0" style="stop-color:#E71E6F"/>
		<stop  offset="1" style="stop-color:#F9D232"/>
	</linearGradient>
	<rect x="112.263" y="375.816" clip-path="url(#SVGID_44_)" fill="url(#SVGID_45_)" width="5.392" height="13.763"/>
</g>
<g>
	<defs>
		<polygon id="SVGID_46_" points="99.704,376.068 107.773,400.896 106.692,402.383 98.92,378.475 97.717,382.174 105.032,404.671 
			103.952,406.156 96.937,384.577 95.734,388.276 102.292,408.441 101.211,409.931 94.954,390.68 93.751,394.381 99.551,412.216 
			98.47,413.7 92.973,396.783 91.767,400.482 96.807,415.989 95.729,417.473 90.988,402.888 89.784,406.587 94.069,419.761 
			92.987,421.245 89.003,408.991 87.803,412.689 91.326,423.534 90.246,425.019 87.021,415.094 85.819,418.795 88.585,427.305 
			87.509,428.791 85.038,421.197 83.835,424.898 85.845,431.079 84.764,432.565 83.053,427.301 81.853,430.998 83.105,434.852 
			82.024,436.335 81.072,433.403 79.871,437.104 80.363,438.625 79.281,440.11 79.088,439.508 78.574,441.082 114.718,414.814 
			109.446,398.594 109.434,398.611 100.904,372.37 		"/>
	</defs>
	<clipPath id="SVGID_47_">
		<use xlink:href="#SVGID_46_"  overflow="visible"/>
	</clipPath>
	
		<linearGradient id="SVGID_48_" gradientUnits="userSpaceOnUse" x1="95.1255" y1="379.3848" x2="96.9619" y2="379.3848" gradientTransform="matrix(19.685 0 0 -19.685 -1793.9711 7874.9097)">
		<stop  offset="0" style="stop-color:#E71E6F"/>
		<stop  offset="1" style="stop-color:#F9D232"/>
	</linearGradient>
	<rect x="78.574" y="372.37" clip-path="url(#SVGID_47_)" fill="url(#SVGID_48_)" width="36.144" height="68.712"/>
</g>
<g>
	<defs>
		<polygon id="SVGID_49_" points="118.14,363.853 115.452,362.979 105.688,370.074 108.377,370.949 		"/>
	</defs>
	<clipPath id="SVGID_50_">
		<use xlink:href="#SVGID_49_"  overflow="visible"/>
	</clipPath>
	
		<linearGradient id="SVGID_51_" gradientUnits="userSpaceOnUse" x1="91.4756" y1="375.1738" x2="93.3115" y2="375.1738" gradientTransform="matrix(6.7819 0 0 -6.7819 -514.6986 2911.3779)">
		<stop  offset="0" style="stop-color:#E71E6F"/>
		<stop  offset="1" style="stop-color:#F9D232"/>
	</linearGradient>
	<rect x="105.688" y="362.979" clip-path="url(#SVGID_50_)" fill="url(#SVGID_51_)" width="12.452" height="7.97"/>
</g>
<g>
	<defs>
		<polygon id="SVGID_52_" points="103.945,369.508 113.706,362.413 111.016,361.539 101.253,368.632 		"/>
	</defs>
	<clipPath id="SVGID_53_">
		<use xlink:href="#SVGID_52_"  overflow="visible"/>
	</clipPath>
	
		<linearGradient id="SVGID_54_" gradientUnits="userSpaceOnUse" x1="91.1782" y1="375.2715" x2="93.0142" y2="375.2715" gradientTransform="matrix(6.7816 0 0 -6.7816 -517.079 2910.4727)">
		<stop  offset="0" style="stop-color:#E71E6F"/>
		<stop  offset="1" style="stop-color:#F9D232"/>
	</linearGradient>
	<rect x="101.253" y="361.539" clip-path="url(#SVGID_53_)" fill="url(#SVGID_54_)" width="12.452" height="7.969"/>
</g>
<g>
	<defs>
		<polygon id="SVGID_55_" points="122.573,365.294 119.886,364.421 110.124,371.514 112.812,372.389 		"/>
	</defs>
	<clipPath id="SVGID_56_">
		<use xlink:href="#SVGID_55_"  overflow="visible"/>
	</clipPath>
	
		<linearGradient id="SVGID_57_" gradientUnits="userSpaceOnUse" x1="91.772" y1="375.0762" x2="93.6084" y2="375.0762" gradientTransform="matrix(6.78 0 0 -6.78 -512.092 2911.4248)">
		<stop  offset="0" style="stop-color:#E71E6F"/>
		<stop  offset="1" style="stop-color:#F9D232"/>
	</linearGradient>
	<rect x="110.124" y="364.421" clip-path="url(#SVGID_56_)" fill="url(#SVGID_57_)" width="12.449" height="7.968"/>
</g>
<g>
	<defs>
		<polygon id="SVGID_58_" points="56.902,354.225 55.157,353.653 57.652,351.842 53.763,351.842 52.469,352.782 50.723,352.212 
			51.233,351.842 49.579,351.842 85.729,378.099 99.527,368.071 99.507,368.065 121.827,351.845 117.936,351.845 96.819,367.192 
			95.073,366.625 115.411,351.845 111.521,351.845 92.383,365.749 90.637,365.183 108.992,351.845 105.103,351.845 87.947,364.31 
			86.203,363.741 102.575,351.845 98.686,351.845 83.514,362.867 81.767,362.3 96.161,351.845 92.27,351.842 79.079,361.428 
			77.332,360.862 89.741,351.845 85.849,351.842 74.644,359.988 72.899,359.421 83.324,351.842 79.433,351.842 70.208,358.547 
			68.462,357.98 76.905,351.842 73.015,351.842 65.773,357.105 64.028,356.538 70.487,351.842 66.596,351.842 61.339,355.664 
			59.593,355.097 64.07,351.842 60.18,351.842 		"/>
	</defs>
	<clipPath id="SVGID_59_">
		<use xlink:href="#SVGID_58_"  overflow="visible"/>
	</clipPath>
	
		<linearGradient id="SVGID_60_" gradientUnits="userSpaceOnUse" x1="96.2266" y1="381.6738" x2="98.0625" y2="381.6738" gradientTransform="matrix(39.3498 0 0 -39.3498 -3736.9082 15383.7744)">
		<stop  offset="0" style="stop-color:#E71E6F"/>
		<stop  offset="1" style="stop-color:#F9D232"/>
	</linearGradient>
	<rect x="49.579" y="351.842" clip-path="url(#SVGID_59_)" fill="url(#SVGID_60_)" width="72.249" height="26.257"/>
</g>
<g>
	<defs>
		<path id="SVGID_61_" d="M285.152,219.553l98.813,183.793c0.671-1.543,1.249-3.076,1.732-4.593l-98.815-183.795
			C286.399,216.476,285.823,218.009,285.152,219.553"/>
	</defs>
	<clipPath id="SVGID_62_">
		<use xlink:href="#SVGID_61_"  overflow="visible"/>
	</clipPath>
	
		<linearGradient id="SVGID_63_" gradientUnits="userSpaceOnUse" x1="98.127" y1="382.5713" x2="99.9629" y2="382.5713" gradientTransform="matrix(56.4322 99.3116 -69.0008 63.8967 21143.7793 -33972.2383)">
		<stop  offset="0" style="stop-color:#E71E6F"/>
		<stop  offset="1" style="stop-color:#F9D232"/>
	</linearGradient>
	<polygon clip-path="url(#SVGID_62_)" fill="url(#SVGID_63_)" points="215.013,279.911 319.817,464.353 455.837,338.395 
		351.03,153.955 	"/>
</g>
<g>
	<defs>
		<path id="SVGID_64_" d="M237.239,158.42l98.813,183.794c0.643-1.231,1.232-2.459,1.758-3.681l-98.812-183.795
			C238.467,155.96,237.883,157.188,237.239,158.42"/>
	</defs>
	<clipPath id="SVGID_65_">
		<use xlink:href="#SVGID_64_"  overflow="visible"/>
	</clipPath>
	
		<linearGradient id="SVGID_66_" gradientUnits="userSpaceOnUse" x1="97.811" y1="382.6289" x2="99.6474" y2="382.6289" gradientTransform="matrix(56.2411 98.9753 -68.7671 63.6803 21047.0078 -33889.2773)">
		<stop  offset="0" style="stop-color:#E71E6F"/>
		<stop  offset="1" style="stop-color:#F9D232"/>
	</linearGradient>
	<polygon clip-path="url(#SVGID_65_)" fill="url(#SVGID_66_)" points="167.437,219.376 271.912,403.238 407.61,277.577 
		303.135,93.718 	"/>
</g>
<g>
	<defs>
		<path id="SVGID_67_" d="M209.034,112.53l98.814,183.795c0.643-1.074,1.243-2.147,1.804-3.215l-98.814-183.795
			C210.28,110.384,209.68,111.456,209.034,112.53"/>
	</defs>
	<clipPath id="SVGID_68_">
		<use xlink:href="#SVGID_67_"  overflow="visible"/>
	</clipPath>
	
		<linearGradient id="SVGID_69_" gradientUnits="userSpaceOnUse" x1="97.5962" y1="382.6367" x2="99.4331" y2="382.6367" gradientTransform="matrix(56.1386 98.795 -68.6418 63.5643 20993.7832 -33851.9336)">
		<stop  offset="0" style="stop-color:#E71E6F"/>
		<stop  offset="1" style="stop-color:#F9D232"/>
	</linearGradient>
	<polygon clip-path="url(#SVGID_68_)" fill="url(#SVGID_69_)" points="139.408,173.792 243.727,357.375 379.278,231.847 
		274.961,48.266 	"/>
</g>
<g>
	<defs>
		<path id="SVGID_70_" d="M270.456,217.878l98.816,183.797c0.621-0.935,1.211-1.867,1.768-2.798l-98.816-183.795
			C271.668,216.014,271.08,216.947,270.456,217.878"/>
	</defs>
	<clipPath id="SVGID_71_">
		<use xlink:href="#SVGID_70_"  overflow="visible"/>
	</clipPath>
	
		<linearGradient id="SVGID_72_" gradientUnits="userSpaceOnUse" x1="98.0879" y1="382.6299" x2="99.9243" y2="382.6299" gradientTransform="matrix(56.0605 98.6574 -68.5462 63.4758 20998.3184 -33746.9375)">
		<stop  offset="0" style="stop-color:#E71E6F"/>
		<stop  offset="1" style="stop-color:#F9D232"/>
	</linearGradient>
	<polygon clip-path="url(#SVGID_71_)" fill="url(#SVGID_72_)" points="200.985,279.416 305.136,462.705 440.513,337.342 
		336.361,154.052 	"/>
</g>
<g>
	<defs>
		<path id="SVGID_73_" d="M162.935,65.167l98.812,183.794c0.643-0.879,1.255-1.76,1.84-2.642L164.775,62.526
			C164.187,63.406,163.575,64.286,162.935,65.167"/>
	</defs>
	<clipPath id="SVGID_74_">
		<use xlink:href="#SVGID_73_"  overflow="visible"/>
	</clipPath>
	
		<linearGradient id="SVGID_75_" gradientUnits="userSpaceOnUse" x1="97.3242" y1="382.7207" x2="99.1607" y2="382.7207" gradientTransform="matrix(56.0153 98.5779 -68.491 63.4246 20923.0742 -33802.6914)">
		<stop  offset="0" style="stop-color:#E71E6F"/>
		<stop  offset="1" style="stop-color:#F9D232"/>
	</linearGradient>
	<polygon clip-path="url(#SVGID_74_)" fill="url(#SVGID_75_)" points="93.521,126.805 197.637,310.033 333,184.684 228.883,1.455 	
		"/>
</g>
<g>
	<defs>
		<path id="SVGID_76_" d="M229.928,169.581l98.816,183.795c0.656-0.834,1.291-1.669,1.899-2.505l-98.816-183.795
			C231.221,167.912,230.588,168.747,229.928,169.581"/>
	</defs>
	<clipPath id="SVGID_77_">
		<use xlink:href="#SVGID_76_"  overflow="visible"/>
	</clipPath>
	
		<linearGradient id="SVGID_78_" gradientUnits="userSpaceOnUse" x1="97.8291" y1="382.6855" x2="99.6656" y2="382.6855" gradientTransform="matrix(55.9765 98.5096 -68.4436 63.3807 20945.2207 -33722.2422)">
		<stop  offset="0" style="stop-color:#E71E6F"/>
		<stop  offset="1" style="stop-color:#F9D232"/>
	</linearGradient>
	<polygon clip-path="url(#SVGID_77_)" fill="url(#SVGID_78_)" points="160.566,231.308 264.652,414.484 400.005,289.144 
		295.921,105.967 	"/>
</g>
<g>
	<defs>
		<path id="SVGID_79_" d="M204.901,128.888l98.813,183.796c0.653-0.777,1.287-1.552,1.9-2.332L206.802,126.56
			C206.188,127.338,205.556,128.113,204.901,128.888"/>
	</defs>
	<clipPath id="SVGID_80_">
		<use xlink:href="#SVGID_79_"  overflow="visible"/>
	</clipPath>
	
		<linearGradient id="SVGID_81_" gradientUnits="userSpaceOnUse" x1="97.6353" y1="382.6953" x2="99.4713" y2="382.6953" gradientTransform="matrix(55.9402 98.4457 -68.3992 63.3396 20918.1641 -33722.3633)">
		<stop  offset="0" style="stop-color:#E71E6F"/>
		<stop  offset="1" style="stop-color:#F9D232"/>
	</linearGradient>
	<polygon clip-path="url(#SVGID_80_)" fill="url(#SVGID_81_)" points="135.604,190.73 239.625,373.79 374.912,248.512 
		270.89,65.452 	"/>
</g>
<g>
	<defs>
		<path id="SVGID_82_" d="M226.033,174.195l98.813,183.793c0.687-0.76,1.353-1.521,1.996-2.285l-98.813-183.794
			C227.387,172.672,226.717,173.435,226.033,174.195"/>
	</defs>
	<clipPath id="SVGID_83_">
		<use xlink:href="#SVGID_82_"  overflow="visible"/>
	</clipPath>
	
		<linearGradient id="SVGID_84_" gradientUnits="userSpaceOnUse" x1="97.8335" y1="382.7148" x2="99.6692" y2="382.7148" gradientTransform="matrix(55.9136 98.399 -68.3667 63.3095 20919.875 -33681.5)">
		<stop  offset="0" style="stop-color:#E71E6F"/>
		<stop  offset="1" style="stop-color:#F9D232"/>
	</linearGradient>
	<polygon clip-path="url(#SVGID_83_)" fill="url(#SVGID_84_)" points="156.752,236.065 260.79,419.157 396.123,293.832 
		292.086,110.742 	"/>
</g>
<g>
	<defs>
		<path id="SVGID_85_" d="M178.975,112.04l98.811,183.796c0.685-0.718,1.354-1.435,2.004-2.156l-98.815-183.793
			C180.328,110.606,179.658,111.324,178.975,112.04"/>
	</defs>
	<clipPath id="SVGID_86_">
		<use xlink:href="#SVGID_85_"  overflow="visible"/>
	</clipPath>
	
		<linearGradient id="SVGID_87_" gradientUnits="userSpaceOnUse" x1="97.5112" y1="382.7666" x2="99.3479" y2="382.7666" gradientTransform="matrix(55.8857 98.3499 -68.3326 63.2779 20883.9375 -33698.4414)">
		<stop  offset="0" style="stop-color:#E71E6F"/>
		<stop  offset="1" style="stop-color:#F9D232"/>
	</linearGradient>
	<polygon clip-path="url(#SVGID_86_)" fill="url(#SVGID_87_)" points="109.743,173.997 213.733,357.005 349.021,231.724 
		245.031,48.717 	"/>
</g>
<g>
	<defs>
		<path id="SVGID_88_" d="M194.757,131.404l98.814,183.793c0.715-0.704,1.415-1.414,2.096-2.124l-98.814-183.796
			C196.172,129.988,195.474,130.698,194.757,131.404"/>
	</defs>
	<clipPath id="SVGID_89_">
		<use xlink:href="#SVGID_88_"  overflow="visible"/>
	</clipPath>
	
		<linearGradient id="SVGID_90_" gradientUnits="userSpaceOnUse" x1="97.6157" y1="382.7441" x2="99.452" y2="382.7441" gradientTransform="matrix(55.8626 98.3092 -68.3043 63.2518 20884.0039 -33673.7813)">
		<stop  offset="0" style="stop-color:#E71E6F"/>
		<stop  offset="1" style="stop-color:#F9D232"/>
	</linearGradient>
	<polygon clip-path="url(#SVGID_89_)" fill="url(#SVGID_90_)" points="125.536,193.378 229.549,376.425 364.889,251.097 
		260.875,68.05 	"/>
</g>
<g>
	<defs>
		<path id="SVGID_91_" d="M185.234,79.422l98.811,183.796c0.722-0.675,1.428-1.351,2.117-2.03L187.349,77.394
			C186.661,78.072,185.955,78.748,185.234,79.422"/>
	</defs>
	<clipPath id="SVGID_92_">
		<use xlink:href="#SVGID_91_"  overflow="visible"/>
	</clipPath>
	
		<linearGradient id="SVGID_93_" gradientUnits="userSpaceOnUse" x1="97.4316" y1="382.6572" x2="99.2679" y2="382.6572" gradientTransform="matrix(55.8395 98.2686 -68.2761 63.2256 20870.2852 -33688.0117)">
		<stop  offset="0" style="stop-color:#E71E6F"/>
		<stop  offset="1" style="stop-color:#F9D232"/>
	</linearGradient>
	<polygon clip-path="url(#SVGID_92_)" fill="url(#SVGID_93_)" points="116.047,141.461 220.03,324.458 355.348,199.149 
		251.364,16.154 	"/>
</g>
<g>
	<defs>
		<path id="SVGID_94_" d="M288.589,267.914l98.817,183.794c0.744-0.662,1.474-1.325,2.184-1.993l-98.811-183.793
			C290.063,266.588,289.337,267.253,288.589,267.914"/>
	</defs>
	<clipPath id="SVGID_95_">
		<use xlink:href="#SVGID_94_"  overflow="visible"/>
	</clipPath>
	
		<linearGradient id="SVGID_96_" gradientUnits="userSpaceOnUse" x1="98.2949" y1="382.6738" x2="100.1303" y2="382.6738" gradientTransform="matrix(55.8322 98.2557 -68.2671 63.2173 20923.8945 -33580.9453)">
		<stop  offset="0" style="stop-color:#E71E6F"/>
		<stop  offset="1" style="stop-color:#F9D232"/>
	</linearGradient>
	<polygon clip-path="url(#SVGID_95_)" fill="url(#SVGID_96_)" points="219.418,329.977 323.412,512.99 458.761,387.653 
		354.768,204.639 	"/>
</g>
<g>
	<defs>
		<path id="SVGID_97_" d="M181.748,131.882l98.813,183.796c0.729-0.617,1.446-1.238,2.146-1.859l-98.812-183.795
			C183.193,130.647,182.479,131.268,181.748,131.882"/>
	</defs>
	<clipPath id="SVGID_98_">
		<use xlink:href="#SVGID_97_"  overflow="visible"/>
	</clipPath>
	
		<linearGradient id="SVGID_99_" gradientUnits="userSpaceOnUse" x1="97.5811" y1="382.8027" x2="99.4168" y2="382.8027" gradientTransform="matrix(55.8511 98.289 -68.2903 63.2387 20872.6875 -33666.4844)">
		<stop  offset="0" style="stop-color:#E71E6F"/>
		<stop  offset="1" style="stop-color:#F9D232"/>
	</linearGradient>
	<polygon clip-path="url(#SVGID_98_)" fill="url(#SVGID_99_)" points="112.626,194.034 216.559,376.937 351.833,251.669 
		247.9,68.767 	"/>
</g>
<g>
	<defs>
		<path id="SVGID_100_" d="M213.261,186.194l98.813,183.793c0.752-0.608,1.496-1.221,2.222-1.835l-98.813-183.794
			C214.755,184.973,214.014,185.586,213.261,186.194"/>
	</defs>
	<clipPath id="SVGID_101_">
		<use xlink:href="#SVGID_100_"  overflow="visible"/>
	</clipPath>
	
		<linearGradient id="SVGID_102_" gradientUnits="userSpaceOnUse" x1="97.834" y1="382.7998" x2="99.6701" y2="382.7998" gradientTransform="matrix(55.8702 98.3226 -68.3136 63.2604 20896.9258 -33648.4414)">
		<stop  offset="0" style="stop-color:#E71E6F"/>
		<stop  offset="1" style="stop-color:#F9D232"/>
	</linearGradient>
	<polygon clip-path="url(#SVGID_101_)" fill="url(#SVGID_102_)" points="144.146,248.358 248.097,431.292 383.41,305.988 
		279.462,123.052 	"/>
</g>
<g>
	<defs>
		<path id="SVGID_103_" d="M185.96,146.176l98.812,183.794c0.67-0.518,1.324-1.035,1.971-1.555L187.93,144.623
			C187.283,145.143,186.626,145.66,185.96,146.176"/>
	</defs>
	<clipPath id="SVGID_104_">
		<use xlink:href="#SVGID_103_"  overflow="visible"/>
	</clipPath>
	
		<linearGradient id="SVGID_105_" gradientUnits="userSpaceOnUse" x1="97.6367" y1="382.8213" x2="99.4725" y2="382.8213" gradientTransform="matrix(55.8791 98.3382 -68.3245 63.2704 20885.2813 -33675.5859)">
		<stop  offset="0" style="stop-color:#E71E6F"/>
		<stop  offset="1" style="stop-color:#F9D232"/>
	</linearGradient>
	<polygon clip-path="url(#SVGID_104_)" fill="url(#SVGID_105_)" points="116.953,208.527 220.709,391.121 355.752,266.067 
		251.995,83.473 	"/>
</g>
<g>
	<defs>
		<path id="SVGID_106_" d="M194.761,154.051l98.811,183.795c0.686-0.51,1.362-1.022,2.028-1.536l-98.813-183.796
			C196.12,153.029,195.446,153.542,194.761,154.051"/>
	</defs>
	<clipPath id="SVGID_107_">
		<use xlink:href="#SVGID_106_"  overflow="visible"/>
	</clipPath>
	
		<linearGradient id="SVGID_108_" gradientUnits="userSpaceOnUse" x1="97.6855" y1="382.8018" x2="99.5214" y2="382.8018" gradientTransform="matrix(55.8934 98.3635 -68.342 63.2867 20895.3867 -33680.0703)">
		<stop  offset="0" style="stop-color:#E71E6F"/>
		<stop  offset="1" style="stop-color:#F9D232"/>
	</linearGradient>
	<polygon clip-path="url(#SVGID_107_)" fill="url(#SVGID_108_)" points="125.759,216.411 229.528,399.029 364.604,273.948 
		260.833,91.328 	"/>
</g>
<g>
	<defs>
		<path id="SVGID_109_" d="M288.342,310.054l98.813,183.794c0.614-0.443,1.222-0.887,1.821-1.332L290.166,308.72
			C289.565,309.166,288.958,309.61,288.342,310.054"/>
	</defs>
	<clipPath id="SVGID_110_">
		<use xlink:href="#SVGID_109_"  overflow="visible"/>
	</clipPath>
	
		<linearGradient id="SVGID_111_" gradientUnits="userSpaceOnUse" x1="98.4209" y1="382.7813" x2="100.2574" y2="382.7813" gradientTransform="matrix(55.8969 98.3695 -68.3462 63.2905 20947.5703 -33597.043)">
		<stop  offset="0" style="stop-color:#E71E6F"/>
		<stop  offset="1" style="stop-color:#F9D232"/>
	</linearGradient>
	<polygon clip-path="url(#SVGID_110_)" fill="url(#SVGID_111_)" points="219.416,372.548 323.039,554.908 457.904,430.019 
		354.281,247.66 	"/>
</g>
<g>
	<defs>
		<path id="SVGID_112_" d="M186.143,158.522l98.811,183.793c0.542-0.376,1.077-0.755,1.607-1.136l-98.813-183.794
			C187.218,157.767,186.684,158.144,186.143,158.522"/>
	</defs>
	<clipPath id="SVGID_113_">
		<use xlink:href="#SVGID_112_"  overflow="visible"/>
	</clipPath>
	
		<linearGradient id="SVGID_114_" gradientUnits="userSpaceOnUse" x1="97.6748" y1="382.8516" x2="99.5106" y2="382.8516" gradientTransform="matrix(55.8959 98.3678 -68.345 63.2894 20891.4805 -33678.9102)">
		<stop  offset="0" style="stop-color:#E71E6F"/>
		<stop  offset="1" style="stop-color:#F9D232"/>
	</linearGradient>
	<polygon clip-path="url(#SVGID_113_)" fill="url(#SVGID_114_)" points="117.289,221.147 220.765,403.246 355.415,278.556 
		251.938,96.457 	"/>
</g>
<g>
	<defs>
		<path id="SVGID_115_" d="M231.227,256.932l97.5,184.748c0.615-0.42,1.227-0.843,1.831-1.265l-97.499-184.747
			C232.453,256.089,231.843,256.512,231.227,256.932"/>
	</defs>
	<clipPath id="SVGID_116_">
		<use xlink:href="#SVGID_115_"  overflow="visible"/>
	</clipPath>
	
		<linearGradient id="SVGID_117_" gradientUnits="userSpaceOnUse" x1="98.0996" y1="382.9033" x2="99.9356" y2="382.9033" gradientTransform="matrix(55.8584 98.3019 -68.2992 63.247 20901.8906 -33602.3594)">
		<stop  offset="0" style="stop-color:#E71E6F"/>
		<stop  offset="1" style="stop-color:#F9D232"/>
	</linearGradient>
	<polygon clip-path="url(#SVGID_116_)" fill="url(#SVGID_117_)" points="161.971,319.8 265.475,501.949 399.814,377.545 
		296.311,195.397 	"/>
</g>
<g>
	<defs>
		<path id="SVGID_118_" d="M150.095,85.779c-0.089,0.059-0.176,0.117-0.264,0.174l98.813,183.796
			c0.089-0.059,0.177-0.117,0.263-0.178c0.468-0.307,0.931-0.615,1.39-0.925L151.481,84.854
			C151.024,85.163,150.561,85.472,150.095,85.779"/>
	</defs>
	<clipPath id="SVGID_119_">
		<use xlink:href="#SVGID_118_"  overflow="visible"/>
	</clipPath>
	
		<linearGradient id="SVGID_120_" gradientUnits="userSpaceOnUse" x1="97.3525" y1="382.8301" x2="99.1888" y2="382.8301" gradientTransform="matrix(55.9117 98.3956 -68.3643 63.3073 20877.5586 -33728.043)">
		<stop  offset="0" style="stop-color:#E71E6F"/>
		<stop  offset="1" style="stop-color:#F9D232"/>
	</linearGradient>
	<polygon clip-path="url(#SVGID_119_)" fill="url(#SVGID_120_)" points="80.99,148.602 184.468,330.705 319.136,206.001 
		215.657,23.896 	"/>
</g>
<g>
	<defs>
		<path id="SVGID_121_" d="M201.952,194.376c-0.403,0.261-0.615,0.399-0.814,0.525l98.814,183.795
			c0.197-0.127,0.411-0.269,0.811-0.526c0.202-0.131,0.402-0.261,0.603-0.392l-98.813-183.795
			C202.352,194.117,202.15,194.247,201.952,194.376"/>
	</defs>
	<clipPath id="SVGID_122_">
		<use xlink:href="#SVGID_121_"  overflow="visible"/>
	</clipPath>
	
		<linearGradient id="SVGID_123_" gradientUnits="userSpaceOnUse" x1="97.8262" y1="382.8779" x2="99.6631" y2="382.8779" gradientTransform="matrix(55.9043 98.3826 -68.3553 63.2989 20902.707 -33664.2422)">
		<stop  offset="0" style="stop-color:#E71E6F"/>
		<stop  offset="1" style="stop-color:#F9D232"/>
	</linearGradient>
	<polygon clip-path="url(#SVGID_122_)" fill="url(#SVGID_123_)" points="132.366,257.668 235.695,439.509 370.138,315.012 
		266.81,133.171 	"/>
</g>
<g>
	<defs>
		<path id="SVGID_124_" d="M201.089,194.934c-0.499,0.317-0.68,0.434-0.862,0.549c-0.023,0.015-0.046,0.029-0.067,0.042
			l98.812,183.796c0.022-0.012,0.044-0.03,0.069-0.046c0.183-0.114,0.367-0.23,0.863-0.547c0.015-0.011,0.031-0.021,0.049-0.03
			l-98.814-183.795C201.123,194.912,201.107,194.922,201.089,194.934"/>
	</defs>
	<clipPath id="SVGID_125_">
		<use xlink:href="#SVGID_124_"  overflow="visible"/>
	</clipPath>
	
		<linearGradient id="SVGID_126_" gradientUnits="userSpaceOnUse" x1="97.8267" y1="382.8848" x2="99.6628" y2="382.8848" gradientTransform="matrix(55.8829 98.3449 -68.3291 63.2747 20894.1367 -33650.7695)">
		<stop  offset="0" style="stop-color:#E71E6F"/>
		<stop  offset="1" style="stop-color:#F9D232"/>
	</linearGradient>
	<polygon clip-path="url(#SVGID_125_)" fill="url(#SVGID_126_)" points="131.497,258.484 234.565,439.868 368.613,315.736 
		265.545,134.352 	"/>
</g>
<g>
	<defs>
		<path id="SVGID_127_" d="M199.364,196.021c-0.431,0.267-0.625,0.386-0.764,0.473l98.813,183.794
			c0.14-0.09,0.332-0.205,0.764-0.473c0.157-0.097,0.315-0.197,0.794-0.495l-98.812-183.796
			C199.68,195.824,199.521,195.922,199.364,196.021"/>
	</defs>
	<clipPath id="SVGID_128_">
		<use xlink:href="#SVGID_127_"  overflow="visible"/>
	</clipPath>
	
		<linearGradient id="SVGID_129_" gradientUnits="userSpaceOnUse" x1="97.8247" y1="382.8926" x2="99.6613" y2="382.8926" gradientTransform="matrix(55.9212 98.4124 -68.376 63.3181 20907.6367 -33673.625)">
		<stop  offset="0" style="stop-color:#E71E6F"/>
		<stop  offset="1" style="stop-color:#F9D232"/>
	</linearGradient>
	<polygon clip-path="url(#SVGID_128_)" fill="url(#SVGID_129_)" points="129.81,259.227 233.206,441.187 367.762,316.584 
		264.365,134.624 	"/>
</g>
<g>
	<defs>
		<path id="SVGID_130_" d="M247.239,255.13c-0.533,0.324-0.698,0.423-0.849,0.516l98.811,183.794
			c0.152-0.091,0.316-0.191,0.85-0.514c0.035-0.022,0.071-0.048,0.111-0.069L247.35,255.062
			C247.312,255.087,247.272,255.107,247.239,255.13"/>
	</defs>
	<clipPath id="SVGID_131_">
		<use xlink:href="#SVGID_130_"  overflow="visible"/>
	</clipPath>
	
		<linearGradient id="SVGID_132_" gradientUnits="userSpaceOnUse" x1="98.1353" y1="382.833" x2="99.9718" y2="382.833" gradientTransform="matrix(55.8869 98.352 -68.334 63.2793 20920.8047 -33620.543)">
		<stop  offset="0" style="stop-color:#E71E6F"/>
		<stop  offset="1" style="stop-color:#F9D232"/>
	</linearGradient>
	<polygon clip-path="url(#SVGID_131_)" fill="url(#SVGID_132_)" points="177.743,318.63 280.788,499.977 414.81,375.869 
		311.763,194.523 	"/>
</g>
<g>
	<defs>
		<path id="SVGID_133_" d="M197.618,197.089c-0.557,0.334-0.718,0.429-0.873,0.521l98.813,183.794
			c0.153-0.09,0.315-0.186,0.875-0.523l0.021-0.01l-98.815-183.794C197.634,197.082,197.627,197.085,197.618,197.089"/>
	</defs>
	<clipPath id="SVGID_134_">
		<use xlink:href="#SVGID_133_"  overflow="visible"/>
	</clipPath>
	
		<linearGradient id="SVGID_135_" gradientUnits="userSpaceOnUse" x1="97.8223" y1="382.9063" x2="99.6584" y2="382.9063" gradientTransform="matrix(55.8845 98.3477 -68.331 63.2765 20892.8438 -33650.5664)">
		<stop  offset="0" style="stop-color:#E71E6F"/>
		<stop  offset="1" style="stop-color:#F9D232"/>
	</linearGradient>
	<polygon clip-path="url(#SVGID_134_)" fill="url(#SVGID_135_)" points="128.117,260.629 231.123,441.904 365.082,317.852 
		262.076,136.577 	"/>
</g>
<g>
	<defs>
		<path id="SVGID_136_" d="M196.74,197.616c-0.569,0.334-0.726,0.426-0.875,0.514l98.812,183.795
			c0.154-0.091,0.306-0.18,0.875-0.517c0.002-0.002,0.003-0.004,0.006-0.004L196.745,197.61
			C196.742,197.613,196.74,197.615,196.74,197.616"/>
	</defs>
	<clipPath id="SVGID_137_">
		<use xlink:href="#SVGID_136_"  overflow="visible"/>
	</clipPath>
	
		<linearGradient id="SVGID_138_" gradientUnits="userSpaceOnUse" x1="97.8218" y1="382.9102" x2="99.6574" y2="382.9102" gradientTransform="matrix(55.8854 98.3494 -68.3322 63.2776 20892.7188 -33650.9336)">
		<stop  offset="0" style="stop-color:#E71E6F"/>
		<stop  offset="1" style="stop-color:#F9D232"/>
	</linearGradient>
	<polygon clip-path="url(#SVGID_137_)" fill="url(#SVGID_138_)" points="127.241,261.157 230.236,442.414 364.183,318.377 
		261.187,137.12 	"/>
</g>
<g>
	<defs>
		<path id="SVGID_139_" d="M143.433,102.799l98.813,183.792c0.631-0.34,2.315-1.259,7.157-3.91l-97.631-181.597L143.433,102.799z"/>
	</defs>
	<clipPath id="SVGID_140_">
		<use xlink:href="#SVGID_139_"  overflow="visible"/>
	</clipPath>
	
		<linearGradient id="SVGID_141_" gradientUnits="userSpaceOnUse" x1="97.3911" y1="382.8916" x2="99.227" y2="382.8916" gradientTransform="matrix(56.3758 99.2124 -68.9318 63.8329 21047.209 -34001.3398)">
		<stop  offset="0" style="stop-color:#E71E6F"/>
		<stop  offset="1" style="stop-color:#F9D232"/>
	</linearGradient>
	<polygon clip-path="url(#SVGID_140_)" fill="url(#SVGID_141_)" points="74.363,165.044 179.968,350.891 318.472,222.633 
		212.866,36.786 	"/>
</g>
<g>
	<defs>
		<path id="SVGID_142_" d="M155.642,135.166l98.814,183.794c0.059-0.032,0.146-0.079,0.287-0.156l-98.816-183.794
			C155.792,135.086,155.7,135.132,155.642,135.166"/>
	</defs>
	<clipPath id="SVGID_143_">
		<use xlink:href="#SVGID_142_"  overflow="visible"/>
	</clipPath>
	
		<linearGradient id="SVGID_144_" gradientUnits="userSpaceOnUse" x1="97.5161" y1="382.9316" x2="99.354" y2="382.9316" gradientTransform="matrix(55.8476 98.2828 -68.286 63.2348 20856.6563 -33662.0859)">
		<stop  offset="0" style="stop-color:#E71E6F"/>
		<stop  offset="1" style="stop-color:#F9D232"/>
	</linearGradient>
	<polygon clip-path="url(#SVGID_143_)" fill="url(#SVGID_144_)" points="87.153,198.432 189.809,379.091 323.231,255.538 
		220.574,74.88 	"/>
</g>
<g>
	<defs>
		<path id="SVGID_145_" d="M155.576,135.2l98.814,183.792c0.017-0.008,0.036-0.018,0.066-0.032l-98.814-183.794
			C155.612,135.18,155.591,135.189,155.576,135.2"/>
	</defs>
	<clipPath id="SVGID_146_">
		<use xlink:href="#SVGID_145_"  overflow="visible"/>
	</clipPath>
	
		<linearGradient id="SVGID_147_" gradientUnits="userSpaceOnUse" x1="97.5171" y1="382.9326" x2="99.3535" y2="382.9326" gradientTransform="matrix(55.8303 98.2524 -68.2649 63.2152 20850.1816 -33651.5742)">
		<stop  offset="0" style="stop-color:#E71E6F"/>
		<stop  offset="1" style="stop-color:#F9D232"/>
	</linearGradient>
	<polygon clip-path="url(#SVGID_146_)" fill="url(#SVGID_147_)" points="87.133,198.545 189.668,378.989 322.897,255.613 
		220.363,75.169 	"/>
</g>
<g>
	<defs>
		<path id="SVGID_148_" d="M155.541,135.218l98.814,183.793c0.01-0.004,0.02-0.01,0.035-0.02L155.576,135.2
			C155.562,135.208,155.551,135.212,155.541,135.218"/>
	</defs>
	<clipPath id="SVGID_149_">
		<use xlink:href="#SVGID_148_"  overflow="visible"/>
	</clipPath>
	
		<linearGradient id="SVGID_150_" gradientUnits="userSpaceOnUse" x1="97.5166" y1="382.9326" x2="99.353" y2="382.9326" gradientTransform="matrix(55.8279 98.2481 -68.2618 63.2124 20849.248 -33650.0391)">
		<stop  offset="0" style="stop-color:#E71E6F"/>
		<stop  offset="1" style="stop-color:#F9D232"/>
	</linearGradient>
	<polygon clip-path="url(#SVGID_149_)" fill="url(#SVGID_150_)" points="87.105,198.575 189.622,378.987 322.826,255.637 
		220.309,75.223 	"/>
</g>
<g>
	<defs>
		<path id="SVGID_151_" d="M155.513,135.232l98.813,183.794c0.008-0.001,0.018-0.009,0.028-0.015l-98.814-183.793
			C155.528,135.223,155.522,135.228,155.513,135.232"/>
	</defs>
	<clipPath id="SVGID_152_">
		<use xlink:href="#SVGID_151_"  overflow="visible"/>
	</clipPath>
	
		<linearGradient id="SVGID_153_" gradientUnits="userSpaceOnUse" x1="97.5176" y1="382.9336" x2="99.354" y2="382.9336" gradientTransform="matrix(55.8273 98.2472 -68.2612 63.2118 20849.0273 -33649.7227)">
		<stop  offset="0" style="stop-color:#E71E6F"/>
		<stop  offset="1" style="stop-color:#F9D232"/>
	</linearGradient>
	<polygon clip-path="url(#SVGID_152_)" fill="url(#SVGID_153_)" points="87.078,198.591 189.591,378.998 322.789,255.652 
		220.275,75.247 	"/>
</g>
<g>
	<defs>
		<path id="SVGID_154_" d="M155.511,135.233c-0.566,0.286-0.736,0.374-0.899,0.454l98.813,183.794
			c0.162-0.08,0.332-0.167,0.896-0.451c0,0,0.004-0.002,0.006-0.004l-98.813-183.794
			C155.511,135.233,155.511,135.233,155.511,135.233"/>
	</defs>
	<clipPath id="SVGID_155_">
		<use xlink:href="#SVGID_154_"  overflow="visible"/>
	</clipPath>
	
		<linearGradient id="SVGID_156_" gradientUnits="userSpaceOnUse" x1="97.5166" y1="382.9355" x2="99.3526" y2="382.9355" gradientTransform="matrix(55.9019 98.3784 -68.3524 63.2963 20876.3555 -33694.9297)">
		<stop  offset="0" style="stop-color:#E71E6F"/>
		<stop  offset="1" style="stop-color:#F9D232"/>
	</linearGradient>
	<polygon clip-path="url(#SVGID_155_)" fill="url(#SVGID_156_)" points="86.012,198.756 188.992,379.984 322.926,255.957 
		219.946,74.729 	"/>
</g>
<g>
	<defs>
		<path id="SVGID_157_" d="M154.603,135.69c-0.551,0.275-0.728,0.363-0.903,0.452c-0.018,0.007-0.037,0.016-0.055,0.023
			l98.817,183.797c0.015-0.01,0.033-0.019,0.052-0.027c0.178-0.084,0.35-0.174,0.904-0.448c0.002-0.003,0.006-0.004,0.008-0.006
			l-98.813-183.794C154.61,135.689,154.606,135.69,154.603,135.69"/>
	</defs>
	<clipPath id="SVGID_158_">
		<use xlink:href="#SVGID_157_"  overflow="visible"/>
	</clipPath>
	
		<linearGradient id="SVGID_159_" gradientUnits="userSpaceOnUse" x1="97.5132" y1="382.9414" x2="99.3492" y2="382.9414" gradientTransform="matrix(55.9091 98.3911 -68.3612 63.3044 20878.5176 -33699.0586)">
		<stop  offset="0" style="stop-color:#E71E6F"/>
		<stop  offset="1" style="stop-color:#F9D232"/>
	</linearGradient>
	<polygon clip-path="url(#SVGID_158_)" fill="url(#SVGID_159_)" points="85.035,199.221 188.046,380.505 322.034,256.428 
		219.021,75.145 	"/>
</g>
<g>
	<defs>
		<path id="SVGID_160_" d="M79.267,7.448c-0.051,0.026-0.107,0.054-0.158,0.077L177.92,191.32c0.052-0.026,0.107-0.052,0.16-0.077
			c0.176-0.085,0.352-0.17,0.845-0.416L80.111,7.037C79.617,7.278,79.443,7.363,79.267,7.448"/>
	</defs>
	<clipPath id="SVGID_161_">
		<use xlink:href="#SVGID_160_"  overflow="visible"/>
	</clipPath>
	
		<linearGradient id="SVGID_162_" gradientUnits="userSpaceOnUse" x1="96.916" y1="382.9473" x2="98.7525" y2="382.9473" gradientTransform="matrix(55.9144 98.4005 -68.3677 63.3104 20839.8906 -33772.2578)">
		<stop  offset="0" style="stop-color:#E71E6F"/>
		<stop  offset="1" style="stop-color:#F9D232"/>
	</linearGradient>
	<polygon clip-path="url(#SVGID_161_)" fill="url(#SVGID_162_)" points="10.497,70.574 113.523,251.884 247.535,127.783 
		144.511,-53.527 	"/>
</g>
<g>
	<defs>
		<path id="SVGID_163_" d="M197.786,207.163l98.812,183.794c0.397-0.188,0.82-0.387,1.278-0.607l-98.814-183.794
			C198.604,206.774,198.183,206.976,197.786,207.163"/>
	</defs>
	<clipPath id="SVGID_164_">
		<use xlink:href="#SVGID_163_"  overflow="visible"/>
	</clipPath>
	
		<linearGradient id="SVGID_165_" gradientUnits="userSpaceOnUse" x1="97.8555" y1="382.9238" x2="99.6912" y2="382.9238" gradientTransform="matrix(55.9413 98.4477 -68.4005 63.3408 20914.5332 -33679.8516)">
		<stop  offset="0" style="stop-color:#E71E6F"/>
		<stop  offset="1" style="stop-color:#F9D232"/>
	</linearGradient>
	<polygon clip-path="url(#SVGID_164_)" fill="url(#SVGID_165_)" points="129.128,270.134 232.293,451.688 366.531,327.38 
		263.367,145.826 	"/>
</g>
<g>
	<defs>
		<path id="SVGID_166_" d="M150.288,137.769l98.811,183.793c0.348-0.159,0.701-0.324,1.079-0.505l-98.814-183.792
			C150.987,137.442,150.633,137.607,150.288,137.769"/>
	</defs>
	<clipPath id="SVGID_167_">
		<use xlink:href="#SVGID_166_"  overflow="visible"/>
	</clipPath>
	
		<linearGradient id="SVGID_168_" gradientUnits="userSpaceOnUse" x1="97.5107" y1="382.959" x2="99.3472" y2="382.959" gradientTransform="matrix(55.9254 98.4197 -68.3811 63.3228 20882.7227 -33707.957)">
		<stop  offset="0" style="stop-color:#E71E6F"/>
		<stop  offset="1" style="stop-color:#F9D232"/>
	</linearGradient>
	<polygon clip-path="url(#SVGID_167_)" fill="url(#SVGID_168_)" points="81.67,200.808 184.727,382.172 318.795,258.022 
		215.738,76.658 	"/>
</g>
<g>
	<defs>
		<path id="SVGID_169_" d="M149.386,138.18c-0.089,0.042-0.17,0.079-0.245,0.112l98.812,183.795c0.077-0.035,0.157-0.07,0.246-0.111
			c0.298-0.135,0.595-0.271,0.9-0.413l-98.811-183.793C149.98,137.911,149.684,138.046,149.386,138.18"/>
	</defs>
	<clipPath id="SVGID_170_">
		<use xlink:href="#SVGID_169_"  overflow="visible"/>
	</clipPath>
	
		<linearGradient id="SVGID_171_" gradientUnits="userSpaceOnUse" x1="97.5093" y1="382.9648" x2="99.3454" y2="382.9648" gradientTransform="matrix(55.9339 98.4346 -68.3914 63.3324 20885.2559 -33712.9023)">
		<stop  offset="0" style="stop-color:#E71E6F"/>
		<stop  offset="1" style="stop-color:#F9D232"/>
	</linearGradient>
	<polygon clip-path="url(#SVGID_170_)" fill="url(#SVGID_171_)" points="80.516,201.318 183.605,382.738 317.725,258.538 
		214.636,77.118 	"/>
</g>
<g>
	<defs>
		<path id="SVGID_172_" d="M148.56,138.553c-0.322,0.142-0.523,0.233-0.688,0.305l98.811,183.795
			c0.167-0.074,0.369-0.163,0.69-0.308c0.168-0.074,0.337-0.149,0.579-0.259l-98.812-183.795
			C148.897,138.403,148.729,138.478,148.56,138.553"/>
	</defs>
	<clipPath id="SVGID_173_">
		<use xlink:href="#SVGID_172_"  overflow="visible"/>
	</clipPath>
	
		<linearGradient id="SVGID_174_" gradientUnits="userSpaceOnUse" x1="97.5078" y1="382.9727" x2="99.3435" y2="382.9727" gradientTransform="matrix(55.9486 98.4605 -68.4094 63.3491 20890.0391 -33721.5352)">
		<stop  offset="0" style="stop-color:#E71E6F"/>
		<stop  offset="1" style="stop-color:#F9D232"/>
	</linearGradient>
	<polygon clip-path="url(#SVGID_173_)" fill="url(#SVGID_174_)" points="79.23,201.856 182.377,383.379 316.593,259.09 
		213.447,77.568 	"/>
</g>
<g>
	<defs>
		<path id="SVGID_175_" d="M184.881,202.859c-0.47,0.208-0.684,0.298-0.896,0.391c-0.235,0.102-0.406,0.173-0.542,0.231
			l98.811,183.795c0.137-0.06,0.307-0.132,0.546-0.234c0.211-0.091,0.425-0.183,0.892-0.389c0.066-0.028,0.134-0.06,0.209-0.092
			L185.087,202.77C185.012,202.8,184.947,202.83,184.881,202.859"/>
	</defs>
	<clipPath id="SVGID_176_">
		<use xlink:href="#SVGID_175_"  overflow="visible"/>
	</clipPath>
	
		<linearGradient id="SVGID_177_" gradientUnits="userSpaceOnUse" x1="97.8032" y1="382.9766" x2="99.6391" y2="382.9766" gradientTransform="matrix(55.989 98.5317 -68.4589 63.3949 20924.4727 -33710.9023)">
		<stop  offset="0" style="stop-color:#E71E6F"/>
		<stop  offset="1" style="stop-color:#F9D232"/>
	</linearGradient>
	<polygon clip-path="url(#SVGID_176_)" fill="url(#SVGID_177_)" points="114.748,266.383 218.078,448.229 352.596,323.663 
		249.265,141.816 	"/>
</g>
<g>
	<defs>
		<path id="SVGID_178_" d="M145.878,139.72c-0.49,0.208-0.691,0.291-0.891,0.375c-0.506,0.209-0.706,0.292-0.905,0.373
			l98.813,183.793c0.196-0.082,0.397-0.163,0.909-0.375c0.196-0.082,0.396-0.165,0.888-0.368c0.104-0.047,0.209-0.094,0.349-0.149
			l-98.813-183.797C146.088,139.633,145.98,139.677,145.878,139.72"/>
	</defs>
	<clipPath id="SVGID_179_">
		<use xlink:href="#SVGID_178_"  overflow="visible"/>
	</clipPath>
	
		<linearGradient id="SVGID_180_" gradientUnits="userSpaceOnUse" x1="97.5024" y1="382.9912" x2="99.3384" y2="382.9912" gradientTransform="matrix(56.0461 98.6321 -68.5286 63.4595 20924.2715 -33779.9492)">
		<stop  offset="0" style="stop-color:#E71E6F"/>
		<stop  offset="1" style="stop-color:#F9D232"/>
	</linearGradient>
	<polygon clip-path="url(#SVGID_179_)" fill="url(#SVGID_180_)" points="75.318,203.249 178.89,385.52 313.804,260.586 
		210.231,78.315 	"/>
</g>
<g>
	<defs>
		<path id="SVGID_181_" d="M151.1,189.03c-0.507,0.206-0.707,0.286-0.909,0.366c-0.512,0.207-0.714,0.285-0.918,0.367
			c-0.5,0.194-0.708,0.274-0.915,0.354c-0.495,0.191-0.703,0.271-0.913,0.349c-0.487,0.184-0.703,0.264-0.921,0.345
			c-0.468,0.173-0.694,0.255-0.917,0.336c-0.44,0.16-0.673,0.243-0.903,0.324l98.815,183.795c0.229-0.082,0.459-0.165,0.901-0.324
			c0.225-0.082,0.449-0.164,0.917-0.338c0.217-0.079,0.433-0.159,0.92-0.345c0.211-0.077,0.42-0.159,0.914-0.349
			c0.208-0.08,0.415-0.161,0.914-0.355c0.201-0.079,0.405-0.159,0.921-0.365c0.198-0.079,0.398-0.159,0.906-0.366
			c0.003-0.003,0.006-0.005,0.01-0.005l-98.815-183.794L151.1,189.03z"/>
	</defs>
	<clipPath id="SVGID_182_">
		<use xlink:href="#SVGID_181_"  overflow="visible"/>
	</clipPath>
	
		<linearGradient id="SVGID_183_" gradientUnits="userSpaceOnUse" x1="97.6611" y1="383.1016" x2="99.4975" y2="383.1016" gradientTransform="matrix(56.5312 99.4859 -69.1219 64.0088 21105.1816 -34047.0742)">
		<stop  offset="0" style="stop-color:#E71E6F"/>
		<stop  offset="1" style="stop-color:#F9D232"/>
	</linearGradient>
	<polygon clip-path="url(#SVGID_182_)" fill="url(#SVGID_183_)" points="75.363,253.237 180.981,439.108 319.263,311.055 
		213.646,125.185 	"/>
</g>
<g>
	<defs>
		<path id="SVGID_184_" d="M102.682,61.281c-0.431,0.151-0.677,0.238-0.923,0.324c-0.385,0.132-0.648,0.224-0.911,0.312
			c-0.216,0.075-0.437,0.15-0.655,0.222l98.811,183.796c0.221-0.075,0.44-0.148,0.659-0.224c0.261-0.088,0.523-0.178,0.913-0.314
			c0.244-0.083,0.487-0.171,0.922-0.323c0.003-0.002,0.007-0.004,0.013-0.004L102.695,61.274
			C102.691,61.275,102.686,61.278,102.682,61.281"/>
	</defs>
	<clipPath id="SVGID_185_">
		<use xlink:href="#SVGID_184_"  overflow="visible"/>
	</clipPath>
	
		<linearGradient id="SVGID_186_" gradientUnits="userSpaceOnUse" x1="97.1436" y1="382.9863" x2="98.9796" y2="382.9863" gradientTransform="matrix(56.1196 98.7615 -68.6185 63.5427 20927.6406 -33867.1797)">
		<stop  offset="0" style="stop-color:#E71E6F"/>
		<stop  offset="1" style="stop-color:#F9D232"/>
	</linearGradient>
	<polygon clip-path="url(#SVGID_185_)" fill="url(#SVGID_186_)" points="31.44,124.941 135.125,307.41 270.261,182.269 
		166.577,-0.2 	"/>
</g>
<g>
	<defs>
		<path id="SVGID_187_" d="M142.372,151.2l98.812,183.793c0.588-0.188,1.18-0.382,1.773-0.581l-98.815-183.795
			C143.55,150.815,142.958,151.008,142.372,151.2"/>
	</defs>
	<clipPath id="SVGID_188_">
		<use xlink:href="#SVGID_187_"  overflow="visible"/>
	</clipPath>
	
		<linearGradient id="SVGID_189_" gradientUnits="userSpaceOnUse" x1="97.5313" y1="383.0254" x2="99.3669" y2="383.0254" gradientTransform="matrix(56.0399 98.6212 -68.521 63.4525 20920.9414 -33770.1758)">
		<stop  offset="0" style="stop-color:#E71E6F"/>
		<stop  offset="1" style="stop-color:#F9D232"/>
	</linearGradient>
	<polygon clip-path="url(#SVGID_188_)" fill="url(#SVGID_189_)" points="73.724,214.186 177.05,396.023 311.604,271.426 
		208.276,89.587 	"/>
</g>
<g>
	<defs>
		<path id="SVGID_190_" d="M131.935,144.824l98.813,183.795c0.489-0.152,0.979-0.309,1.471-0.465L133.404,144.36
			C132.914,144.519,132.425,144.675,131.935,144.824"/>
	</defs>
	<clipPath id="SVGID_191_">
		<use xlink:href="#SVGID_190_"  overflow="visible"/>
	</clipPath>
	
		<linearGradient id="SVGID_192_" gradientUnits="userSpaceOnUse" x1="97.4819" y1="383.0566" x2="99.3179" y2="383.0566" gradientTransform="matrix(56.0071 98.5635 -68.481 63.4154 20903.0566 -33753.7422)">
		<stop  offset="0" style="stop-color:#E71E6F"/>
		<stop  offset="1" style="stop-color:#F9D232"/>
	</linearGradient>
	<polygon clip-path="url(#SVGID_191_)" fill="url(#SVGID_192_)" points="63.331,207.89 166.51,389.467 300.822,265.092 
		197.643,83.512 	"/>
</g>
<g>
	<defs>
		<path id="SVGID_193_" d="M86.073,52.338l98.813,183.797c0.433-0.132,0.862-0.262,1.293-0.396L87.367,51.945
			C86.935,52.079,86.504,52.211,86.073,52.338"/>
	</defs>
	<clipPath id="SVGID_194_">
		<use xlink:href="#SVGID_193_"  overflow="visible"/>
	</clipPath>
	
		<linearGradient id="SVGID_195_" gradientUnits="userSpaceOnUse" x1="97.0728" y1="383.0273" x2="98.9087" y2="383.0273" gradientTransform="matrix(55.9882 98.5302 -68.4579 63.3939 20871.0371 -33792.6445)">
		<stop  offset="0" style="stop-color:#E71E6F"/>
		<stop  offset="1" style="stop-color:#F9D232"/>
	</linearGradient>
	<polygon clip-path="url(#SVGID_194_)" fill="url(#SVGID_195_)" points="17.495,115.45 120.587,296.875 254.756,172.63 
		151.665,-8.794 	"/>
</g>
<g>
	<defs>
		<path id="SVGID_196_" d="M129.406,145.581l98.814,183.795c0.412-0.12,0.821-0.24,1.233-0.366l-98.812-183.792
			C130.229,145.34,129.817,145.461,129.406,145.581"/>
	</defs>
	<clipPath id="SVGID_197_">
		<use xlink:href="#SVGID_196_"  overflow="visible"/>
	</clipPath>
	
		<linearGradient id="SVGID_198_" gradientUnits="userSpaceOnUse" x1="97.4766" y1="383.0693" x2="99.3134" y2="383.0693" gradientTransform="matrix(55.9831 98.5214 -68.4517 63.3882 20892.7539 -33738.7383)">
		<stop  offset="0" style="stop-color:#E71E6F"/>
		<stop  offset="1" style="stop-color:#F9D232"/>
	</linearGradient>
	<polygon clip-path="url(#SVGID_197_)" fill="url(#SVGID_198_)" points="60.84,208.711 163.901,390.081 298.021,265.882 
		194.961,84.513 	"/>
</g>
<g>
	<defs>
		<path id="SVGID_199_" d="M128.206,145.921l98.812,183.795c0.402-0.11,0.803-0.226,1.203-0.34l-98.814-183.795
			C129.005,145.697,128.605,145.811,128.206,145.921"/>
	</defs>
	<clipPath id="SVGID_200_">
		<use xlink:href="#SVGID_199_"  overflow="visible"/>
	</clipPath>
	
		<linearGradient id="SVGID_201_" gradientUnits="userSpaceOnUse" x1="97.4746" y1="383.0752" x2="99.3105" y2="383.0752" gradientTransform="matrix(55.9814 98.5182 -68.4495 63.3862 20891.4336 -33737.4805)">
		<stop  offset="0" style="stop-color:#E71E6F"/>
		<stop  offset="1" style="stop-color:#F9D232"/>
	</linearGradient>
	<polygon clip-path="url(#SVGID_200_)" fill="url(#SVGID_201_)" points="59.648,209.067 162.688,390.399 296.775,266.23 
		193.737,84.897 	"/>
</g>
<g>
	<defs>
		<path id="SVGID_202_" d="M140.661,160.291l98.812,183.793c0.38-0.103,0.76-0.206,1.141-0.313l-98.814-183.793
			C141.419,160.083,141.039,160.187,140.661,160.291"/>
	</defs>
	<clipPath id="SVGID_203_">
		<use xlink:href="#SVGID_202_"  overflow="visible"/>
	</clipPath>
	
		<linearGradient id="SVGID_204_" gradientUnits="userSpaceOnUse" x1="97.5508" y1="383.0566" x2="99.3866" y2="383.0566" gradientTransform="matrix(55.9756 98.5081 -68.4425 63.3797 20896.0625 -33726.1992)">
		<stop  offset="0" style="stop-color:#E71E6F"/>
		<stop  offset="1" style="stop-color:#F9D232"/>
	</linearGradient>
	<polygon clip-path="url(#SVGID_203_)" fill="url(#SVGID_204_)" points="72.114,223.453 175.123,404.732 309.161,280.609 
		206.152,99.33 	"/>
</g>
<g>
	<defs>
		<path id="SVGID_205_" d="M151.94,184.792l98.813,183.796c0.371-0.1,0.746-0.197,1.117-0.298l-98.812-183.795
			C152.683,184.598,152.313,184.694,151.94,184.792"/>
	</defs>
	<clipPath id="SVGID_206_">
		<use xlink:href="#SVGID_205_"  overflow="visible"/>
	</clipPath>
	
		<linearGradient id="SVGID_207_" gradientUnits="userSpaceOnUse" x1="97.6563" y1="383.0684" x2="99.493" y2="383.0684" gradientTransform="matrix(55.9748 98.5067 -68.4415 63.3788 20901.9219 -33712.3086)">
		<stop  offset="0" style="stop-color:#E71E6F"/>
		<stop  offset="1" style="stop-color:#F9D232"/>
	</linearGradient>
	<polygon clip-path="url(#SVGID_206_)" fill="url(#SVGID_207_)" points="83.399,247.966 186.394,429.22 320.41,305.115 
		217.417,123.861 	"/>
</g>
<g>
	<defs>
		<path id="SVGID_208_" d="M188.986,226.352c-0.106,0.026-0.21,0.053-0.312,0.079l98.813,183.792
			c0.104-0.025,0.206-0.052,0.312-0.079c0.276-0.069,0.554-0.141,0.83-0.213l-98.812-183.795
			C189.54,226.208,189.263,226.28,188.986,226.352"/>
	</defs>
	<clipPath id="SVGID_209_">
		<use xlink:href="#SVGID_208_"  overflow="visible"/>
	</clipPath>
	
		<linearGradient id="SVGID_210_" gradientUnits="userSpaceOnUse" x1="97.8882" y1="383.0117" x2="99.724" y2="383.0117" gradientTransform="matrix(55.9802 98.5161 -68.4481 63.3849 20923.918 -33692.8828)">
		<stop  offset="0" style="stop-color:#E71E6F"/>
		<stop  offset="1" style="stop-color:#F9D232"/>
	</linearGradient>
	<polygon clip-path="url(#SVGID_209_)" fill="url(#SVGID_210_)" points="120.136,289.605 223.136,470.871 357.168,346.754 
		254.166,165.49 	"/>
</g>
<g>
	<defs>
		<path id="SVGID_211_" d="M124.24,146.966c-0.204,0.05-0.392,0.095-0.582,0.141l98.812,183.794c0.188-0.045,0.38-0.091,0.584-0.144
			c0.187-0.044,0.373-0.091,0.565-0.14l-98.812-183.794C124.615,146.872,124.429,146.92,124.24,146.966"/>
	</defs>
	<clipPath id="SVGID_212_">
		<use xlink:href="#SVGID_211_"  overflow="visible"/>
	</clipPath>
	
		<linearGradient id="SVGID_213_" gradientUnits="userSpaceOnUse" x1="97.4639" y1="383.0996" x2="99.3001" y2="383.0996" gradientTransform="matrix(55.9829 98.521 -68.4514 63.388 20889.5215 -33737.8477)">
		<stop  offset="0" style="stop-color:#E71E6F"/>
		<stop  offset="1" style="stop-color:#F9D232"/>
	</linearGradient>
	<polygon clip-path="url(#SVGID_212_)" fill="url(#SVGID_213_)" points="55.121,210.291 158.121,391.553 292.154,267.436 
		189.154,86.172 	"/>
</g>
<g>
	<defs>
		<path id="SVGID_214_" d="M123.351,147.182c-0.292,0.07-0.565,0.136-0.839,0.198l98.813,183.793
			c0.272-0.063,0.547-0.127,0.839-0.197c0.101-0.024,0.207-0.052,0.306-0.075l-98.812-183.794
			C123.552,147.133,123.452,147.159,123.351,147.182"/>
	</defs>
	<clipPath id="SVGID_215_">
		<use xlink:href="#SVGID_214_"  overflow="visible"/>
	</clipPath>
	
		<linearGradient id="SVGID_216_" gradientUnits="userSpaceOnUse" x1="97.4609" y1="383.1035" x2="99.2967" y2="383.1035" gradientTransform="matrix(55.9851 98.5248 -68.4541 63.3905 20889.7051 -33738.9922)">
		<stop  offset="0" style="stop-color:#E71E6F"/>
		<stop  offset="1" style="stop-color:#F9D232"/>
	</linearGradient>
	<polygon clip-path="url(#SVGID_215_)" fill="url(#SVGID_216_)" points="53.98,210.569 156.975,391.824 291.001,267.712 
		188.007,86.458 	"/>
</g>
<g>
	<defs>
		<path id="SVGID_217_" d="M122.463,147.392c-0.303,0.069-0.586,0.135-0.873,0.2c-0.092,0.022-0.184,0.041-0.272,0.058
			l98.811,183.797c0.094-0.021,0.181-0.04,0.275-0.064c0.284-0.062,0.572-0.126,0.873-0.196c0.018-0.005,0.032-0.009,0.048-0.013
			L122.512,147.38L122.463,147.392z"/>
	</defs>
	<clipPath id="SVGID_218_">
		<use xlink:href="#SVGID_217_"  overflow="visible"/>
	</clipPath>
	
		<linearGradient id="SVGID_219_" gradientUnits="userSpaceOnUse" x1="97.4585" y1="383.1094" x2="99.2948" y2="383.1094" gradientTransform="matrix(55.9939 98.5404 -68.4649 63.4005 20892.3262 -33744.125)">
		<stop  offset="0" style="stop-color:#E71E6F"/>
		<stop  offset="1" style="stop-color:#F9D232"/>
	</linearGradient>
	<polygon clip-path="url(#SVGID_218_)" fill="url(#SVGID_219_)" points="52.787,210.843 155.798,392.128 289.856,267.985 
		186.845,86.701 	"/>
</g>
<g>
	<defs>
		<path id="SVGID_220_" d="M139.317,196.47c-0.198,0.042-0.396,0.087-0.597,0.127l98.814,183.795
			c0.199-0.044,0.398-0.084,0.598-0.127c0.202-0.046,0.407-0.091,0.62-0.136l-98.813-183.797
			C139.725,196.38,139.521,196.424,139.317,196.47"/>
	</defs>
	<clipPath id="SVGID_221_">
		<use xlink:href="#SVGID_220_"  overflow="visible"/>
	</clipPath>
	
		<linearGradient id="SVGID_222_" gradientUnits="userSpaceOnUse" x1="97.6558" y1="383.1563" x2="99.4915" y2="383.1563" gradientTransform="matrix(56 98.551 -68.4723 63.4073 20904.0645 -33721.25)">
		<stop  offset="0" style="stop-color:#E71E6F"/>
		<stop  offset="1" style="stop-color:#F9D232"/>
	</linearGradient>
	<polygon clip-path="url(#SVGID_221_)" fill="url(#SVGID_222_)" points="70.192,259.792 173.209,441.086 307.28,316.932 
		204.264,135.638 	"/>
</g>
<g>
	<defs>
		<path id="SVGID_223_" d="M128.083,193.568l98.815,183.792c0.428-0.085,0.856-0.175,1.288-0.266l-98.815-183.792
			C128.942,193.391,128.514,193.481,128.083,193.568"/>
	</defs>
	<clipPath id="SVGID_224_">
		<use xlink:href="#SVGID_223_"  overflow="visible"/>
	</clipPath>
	
		<linearGradient id="SVGID_225_" gradientUnits="userSpaceOnUse" x1="97.6191" y1="383.1953" x2="99.4554" y2="383.1953" gradientTransform="matrix(56.0127 98.5733 -68.4878 63.4217 20902.9746 -33730.5859)">
		<stop  offset="0" style="stop-color:#E71E6F"/>
		<stop  offset="1" style="stop-color:#F9D232"/>
	</linearGradient>
	<polygon clip-path="url(#SVGID_224_)" fill="url(#SVGID_225_)" points="59.556,256.761 162.598,438.099 296.716,313.9 
		193.673,132.563 	"/>
</g>
<g>
	<defs>
		<path id="SVGID_226_" d="M117.435,148.457l98.812,183.794c0.46-0.088,0.919-0.178,1.379-0.271l-98.815-183.795
			C118.353,148.278,117.892,148.368,117.435,148.457"/>
	</defs>
	<clipPath id="SVGID_227_">
		<use xlink:href="#SVGID_226_"  overflow="visible"/>
	</clipPath>
	
		<linearGradient id="SVGID_228_" gradientUnits="userSpaceOnUse" x1="97.4526" y1="383.1289" x2="99.2889" y2="383.1289" gradientTransform="matrix(56.0289 98.6019 -68.5076 63.44 20903.1953 -33764.9297)">
		<stop  offset="0" style="stop-color:#E71E6F"/>
		<stop  offset="1" style="stop-color:#F9D232"/>
	</linearGradient>
	<polygon clip-path="url(#SVGID_227_)" fill="url(#SVGID_228_)" points="48.904,211.646 151.979,393.042 286.157,268.787 
		183.082,87.393 	"/>
</g>
<g>
	<defs>
		<path id="SVGID_229_" d="M96.312,107.571l98.812,183.793c0.488-0.085,0.975-0.175,1.465-0.266L97.774,107.302
			C97.286,107.393,96.797,107.484,96.312,107.571"/>
	</defs>
	<clipPath id="SVGID_230_">
		<use xlink:href="#SVGID_229_"  overflow="visible"/>
	</clipPath>
	
		<linearGradient id="SVGID_231_" gradientUnits="userSpaceOnUse" x1="97.2676" y1="383.1191" x2="99.1038" y2="383.1191" gradientTransform="matrix(56.0452 98.6305 -68.5275 63.4585 20897.7305 -33797.1602)">
		<stop  offset="0" style="stop-color:#E71E6F"/>
		<stop  offset="1" style="stop-color:#F9D232"/>
	</linearGradient>
	<polygon clip-path="url(#SVGID_230_)" fill="url(#SVGID_231_)" points="27.78,170.762 130.885,352.208 265.119,227.904 
		162.015,46.458 	"/>
</g>
<g>
	<defs>
		<path id="SVGID_232_" d="M114.383,148.998l98.814,183.794c0.528-0.085,1.059-0.18,1.588-0.271L115.97,148.726
			C115.439,148.82,114.911,148.91,114.383,148.998"/>
	</defs>
	<clipPath id="SVGID_233_">
		<use xlink:href="#SVGID_232_"  overflow="visible"/>
	</clipPath>
	
		<linearGradient id="SVGID_234_" gradientUnits="userSpaceOnUse" x1="97.4438" y1="383.1426" x2="99.2796" y2="383.1426" gradientTransform="matrix(56.0676 98.67 -68.555 63.4839 20915.9102 -33788.1602)">
		<stop  offset="0" style="stop-color:#E71E6F"/>
		<stop  offset="1" style="stop-color:#F9D232"/>
	</linearGradient>
	<polygon clip-path="url(#SVGID_233_)" fill="url(#SVGID_234_)" points="45.852,212.187 149,393.709 283.315,269.329 
		180.168,87.806 	"/>
</g>
<g>
	<defs>
		<path id="SVGID_235_" d="M91.241,79.783l98.816,183.797c0.579-0.088,1.16-0.178,1.743-0.276L92.986,79.512
			C92.404,79.608,91.823,79.7,91.241,79.783"/>
	</defs>
	<clipPath id="SVGID_236_">
		<use xlink:href="#SVGID_235_"  overflow="visible"/>
	</clipPath>
	
		<linearGradient id="SVGID_237_" gradientUnits="userSpaceOnUse" x1="97.1704" y1="383.0723" x2="99.0067" y2="383.0723" gradientTransform="matrix(56.0971 98.7218 -68.591 63.5172 20914.2422 -33843.6953)">
		<stop  offset="0" style="stop-color:#E71E6F"/>
		<stop  offset="1" style="stop-color:#F9D232"/>
	</linearGradient>
	<polygon clip-path="url(#SVGID_236_)" fill="url(#SVGID_237_)" points="22.709,142.975 125.912,324.594 260.331,200.117 
		157.13,18.498 	"/>
</g>
<g>
	<defs>
		<path id="SVGID_238_" d="M83.923,96.498l98.812,183.795c0.645-0.085,1.29-0.176,1.938-0.273L85.859,96.226
			C85.209,96.323,84.566,96.413,83.923,96.498"/>
	</defs>
	<clipPath id="SVGID_239_">
		<use xlink:href="#SVGID_238_"  overflow="visible"/>
	</clipPath>
	
		<linearGradient id="SVGID_240_" gradientUnits="userSpaceOnUse" x1="97.2012" y1="383.1445" x2="99.0374" y2="383.1445" gradientTransform="matrix(56.1333 98.7857 -68.6353 63.5583 20923.7148 -33856.668)">
		<stop  offset="0" style="stop-color:#E71E6F"/>
		<stop  offset="1" style="stop-color:#F9D232"/>
	</linearGradient>
	<polygon clip-path="url(#SVGID_239_)" fill="url(#SVGID_240_)" points="15.391,159.688 118.659,341.422 253.204,216.83 
		149.936,35.096 	"/>
</g>
<g>
	<defs>
		<path id="SVGID_241_" d="M108.503,149.812l98.817,183.792c0.728-0.078,1.461-0.171,2.198-0.265l-98.813-183.795
			C109.969,149.641,109.235,149.729,108.503,149.812"/>
	</defs>
	<clipPath id="SVGID_242_">
		<use xlink:href="#SVGID_241_"  overflow="visible"/>
	</clipPath>
	
		<linearGradient id="SVGID_243_" gradientUnits="userSpaceOnUse" x1="97.4307" y1="383.168" x2="99.2669" y2="383.168" gradientTransform="matrix(56.1835 98.874 -68.6967 63.6151 20955.7344 -33858.0664)">
		<stop  offset="0" style="stop-color:#E71E6F"/>
		<stop  offset="1" style="stop-color:#F9D232"/>
	</linearGradient>
	<polygon clip-path="url(#SVGID_242_)" fill="url(#SVGID_243_)" points="39.975,213.004 143.333,394.895 278.047,270.145 
		174.691,88.253 	"/>
</g>
<g>
	<defs>
		<path id="SVGID_244_" d="M106.026,150.061l98.811,183.795c0.824-0.072,1.651-0.154,2.483-0.252l-98.817-183.792
			C107.675,149.905,106.846,149.989,106.026,150.061"/>
	</defs>
	<clipPath id="SVGID_245_">
		<use xlink:href="#SVGID_244_"  overflow="visible"/>
	</clipPath>
	
		<linearGradient id="SVGID_246_" gradientUnits="userSpaceOnUse" x1="97.4258" y1="383.1787" x2="99.2616" y2="383.1787" gradientTransform="matrix(56.2404 98.9741 -68.7663 63.6795 20975.498 -33892.4805)">
		<stop  offset="0" style="stop-color:#E71E6F"/>
		<stop  offset="1" style="stop-color:#F9D232"/>
	</linearGradient>
	<polygon clip-path="url(#SVGID_245_)" fill="url(#SVGID_246_)" points="37.503,213.265 140.949,395.314 275.844,270.4 
		172.396,88.351 	"/>
</g>
<g>
	<defs>
		<path id="SVGID_247_" d="M35.129,17.798l98.814,183.795c0.94-0.057,1.885-0.126,2.84-0.211L37.972,17.586
			C37.017,17.671,36.071,17.741,35.129,17.798"/>
	</defs>
	<clipPath id="SVGID_248_">
		<use xlink:href="#SVGID_247_"  overflow="visible"/>
	</clipPath>
	
		<linearGradient id="SVGID_249_" gradientUnits="userSpaceOnUse" x1="96.8306" y1="383.1602" x2="98.6667" y2="383.1602" gradientTransform="matrix(56.3154 99.106 -68.8579 63.7644 20964.6953 -34009.9805)">
		<stop  offset="0" style="stop-color:#E71E6F"/>
		<stop  offset="1" style="stop-color:#F9D232"/>
	</linearGradient>
	<polygon clip-path="url(#SVGID_248_)" fill="url(#SVGID_249_)" points="-33.379,81.028 70.178,263.272 205.292,138.151 
		101.735,-44.092 	"/>
</g>
<g>
	<defs>
		<path id="SVGID_250_" d="M153.856,236.496l98.815,183.796c1.02-0.031,2.046-0.077,3.084-0.138l-98.813-183.795
			C155.907,236.42,154.877,236.468,153.856,236.496"/>
	</defs>
	<clipPath id="SVGID_251_">
		<use xlink:href="#SVGID_250_"  overflow="visible"/>
	</clipPath>
	
		<linearGradient id="SVGID_252_" gradientUnits="userSpaceOnUse" x1="97.8208" y1="383.1826" x2="99.656" y2="383.1826" gradientTransform="matrix(56.3759 99.2125 -68.9319 63.8329 21051.8164 -33927.6055)">
		<stop  offset="0" style="stop-color:#E71E6F"/>
		<stop  offset="1" style="stop-color:#F9D232"/>
	</linearGradient>
	<polygon clip-path="url(#SVGID_251_)" fill="url(#SVGID_252_)" points="85.375,299.775 188.99,482.117 324.236,356.876 
		220.623,174.531 	"/>
</g>
<g>
	<defs>
		<path id="SVGID_253_" d="M104.424,162.277l98.815,183.796c1.055,0.003,2.127-0.007,3.203-0.039L107.63,162.24
			C106.55,162.273,105.482,162.285,104.424,162.277"/>
	</defs>
	<clipPath id="SVGID_254_">
		<use xlink:href="#SVGID_253_"  overflow="visible"/>
	</clipPath>
	
		<linearGradient id="SVGID_255_" gradientUnits="userSpaceOnUse" x1="97.4614" y1="383.2148" x2="99.2979" y2="383.2148" gradientTransform="matrix(56.4196 99.2894 -68.9853 63.8824 21041.0742 -33994.5156)">
		<stop  offset="0" style="stop-color:#E71E6F"/>
		<stop  offset="1" style="stop-color:#F9D232"/>
	</linearGradient>
	<polygon clip-path="url(#SVGID_254_)" fill="url(#SVGID_255_)" points="35.979,225.624 139.598,407.978 274.891,282.693 
		171.271,100.339 	"/>
</g>
<g>
	<defs>
		<path id="SVGID_256_" d="M215.713,384.615c1.04,0.047,2.095,0.072,3.164,0.077L120.064,200.9c-1.069-0.01-2.123-0.033-3.166-0.078
			L215.713,384.615z"/>
	</defs>
	<clipPath id="SVGID_257_">
		<use xlink:href="#SVGID_256_"  overflow="visible"/>
	</clipPath>
	
		<linearGradient id="SVGID_258_" gradientUnits="userSpaceOnUse" x1="97.6113" y1="383.2549" x2="99.4473" y2="383.2549" gradientTransform="matrix(56.4351 99.3167 -69.0043 63.9 21053.6016 -33982.8711)">
		<stop  offset="0" style="stop-color:#E71E6F"/>
		<stop  offset="1" style="stop-color:#F9D232"/>
	</linearGradient>
	<polygon clip-path="url(#SVGID_257_)" fill="url(#SVGID_258_)" points="48.44,264.216 152.058,446.569 287.335,321.298 
		183.716,138.946 	"/>
</g>
<g>
	<defs>
		<path id="SVGID_259_" d="M143.601,250.893c0.994,0.083,1.997,0.145,3.019,0.189L47.806,67.288
			c-1.02-0.045-2.023-0.107-3.019-0.189L143.601,250.893z"/>
	</defs>
	<clipPath id="SVGID_260_">
		<use xlink:href="#SVGID_259_"  overflow="visible"/>
	</clipPath>
	
		<linearGradient id="SVGID_261_" gradientUnits="userSpaceOnUse" x1="97.0093" y1="383.2383" x2="98.8452" y2="383.2383" gradientTransform="matrix(56.43 99.3078 -68.9981 63.8942 21012.416 -34052.6719)">
		<stop  offset="0" style="stop-color:#E71E6F"/>
		<stop  offset="1" style="stop-color:#F9D232"/>
	</linearGradient>
	<polygon clip-path="url(#SVGID_260_)" fill="url(#SVGID_261_)" points="-23.714,130.532 79.897,312.869 215.119,187.648 
		111.51,5.312 	"/>
</g>
<g>
	<defs>
		<path id="SVGID_262_" d="M186.691,333.684c0.932,0.117,1.877,0.213,2.833,0.291L90.712,150.181
			c-0.957-0.079-1.901-0.175-2.836-0.289L186.691,333.684z"/>
	</defs>
	<clipPath id="SVGID_263_">
		<use xlink:href="#SVGID_262_"  overflow="visible"/>
	</clipPath>
	
		<linearGradient id="SVGID_264_" gradientUnits="userSpaceOnUse" x1="97.3774" y1="383.2578" x2="99.2139" y2="383.2578" gradientTransform="matrix(56.4161 99.2833 -68.9811 63.8785 21030.6953 -33999.0781)">
		<stop  offset="0" style="stop-color:#E71E6F"/>
		<stop  offset="1" style="stop-color:#F9D232"/>
	</linearGradient>
	<polygon clip-path="url(#SVGID_263_)" fill="url(#SVGID_264_)" points="19.338,213.36 122.922,395.651 258.061,270.509 
		154.479,88.216 	"/>
</g>
<g>
	<defs>
		<path id="SVGID_265_" d="M163.563,293.544c0.172,0.026,0.346,0.054,0.525,0.082c0.71,0.11,1.431,0.211,2.159,0.299L67.436,110.131
			c-0.729-0.091-1.449-0.189-2.163-0.298c-0.179-0.028-0.352-0.057-0.525-0.084L163.563,293.544z"/>
	</defs>
	<clipPath id="SVGID_266_">
		<use xlink:href="#SVGID_265_"  overflow="visible"/>
	</clipPath>
	
		<linearGradient id="SVGID_267_" gradientUnits="userSpaceOnUse" x1="97.1924" y1="383.2588" x2="99.0288" y2="383.2588" gradientTransform="matrix(56.4067 99.2667 -68.9696 63.8678 21014.5605 -34015.2031)">
		<stop  offset="0" style="stop-color:#E71E6F"/>
		<stop  offset="1" style="stop-color:#F9D232"/>
	</linearGradient>
	<polygon clip-path="url(#SVGID_266_)" fill="url(#SVGID_267_)" points="-3.825,173.248 99.742,355.51 234.818,230.424 
		131.252,48.164 	"/>
</g>
<g>
	<defs>
		<path id="SVGID_268_" d="M252.851,470.787c0.532,0.109,1.07,0.212,1.612,0.311c0.234,0.038,0.471,0.08,0.712,0.119l0.194,0.035
			l-98.813-183.795c-0.067-0.012-0.131-0.021-0.194-0.034c-0.241-0.041-0.476-0.078-0.711-0.12
			c-0.544-0.098-1.081-0.201-1.611-0.311L252.851,470.787z"/>
	</defs>
	<clipPath id="SVGID_269_">
		<use xlink:href="#SVGID_268_"  overflow="visible"/>
	</clipPath>
	
		<linearGradient id="SVGID_270_" gradientUnits="userSpaceOnUse" x1="97.9736" y1="383.3086" x2="99.8096" y2="383.3086" gradientTransform="matrix(56.392 99.2409 -68.9516 63.8512 21057.7168 -33909.6797)">
		<stop  offset="0" style="stop-color:#E71E6F"/>
		<stop  offset="1" style="stop-color:#F9D232"/>
	</linearGradient>
	<polygon clip-path="url(#SVGID_269_)" fill="url(#SVGID_270_)" points="85.436,350.521 188.974,532.734 323.971,407.723 
		220.433,225.511 	"/>
</g>
<g>
	<defs>
		<path id="SVGID_271_" d="M198.154,374.06c0.784,0.198,1.585,0.381,2.4,0.547l-98.814-183.795
			c-0.813-0.166-1.614-0.347-2.398-0.545L198.154,374.06z"/>
	</defs>
	<clipPath id="SVGID_272_">
		<use xlink:href="#SVGID_271_"  overflow="visible"/>
	</clipPath>
	
		<linearGradient id="SVGID_273_" gradientUnits="userSpaceOnUse" x1="97.5308" y1="383.3086" x2="99.3672" y2="383.3086" gradientTransform="matrix(56.3863 99.2308 -68.9446 63.8447 21025.7754 -33958.8711)">
		<stop  offset="0" style="stop-color:#E71E6F"/>
		<stop  offset="1" style="stop-color:#F9D232"/>
	</linearGradient>
	<polygon clip-path="url(#SVGID_272_)" fill="url(#SVGID_273_)" points="30.707,253.822 134.236,436.019 269.188,311.051 
		165.658,128.854 	"/>
</g>
<g>
	<defs>
		<path id="SVGID_274_" d="M207.273,390.776c0.749,0.223,1.512,0.429,2.284,0.625l-98.812-183.795
			c-0.777-0.193-1.537-0.403-2.285-0.624L207.273,390.776z"/>
	</defs>
	<clipPath id="SVGID_275_">
		<use xlink:href="#SVGID_274_"  overflow="visible"/>
	</clipPath>
	
		<linearGradient id="SVGID_276_" gradientUnits="userSpaceOnUse" x1="97.6069" y1="383.3096" x2="99.4429" y2="383.3096" gradientTransform="matrix(56.3803 99.2202 -68.9372 63.8379 21028.4883 -33946.1328)">
		<stop  offset="0" style="stop-color:#E71E6F"/>
		<stop  offset="1" style="stop-color:#F9D232"/>
	</linearGradient>
	<polygon clip-path="url(#SVGID_275_)" fill="url(#SVGID_276_)" points="39.799,270.566 143.317,452.741 278.221,327.817 
		174.702,145.641 	"/>
</g>
<g>
	<defs>
		<path id="SVGID_277_" d="M174.632,330.968c0.712,0.25,1.436,0.482,2.173,0.704L77.993,147.876
			c-0.738-0.22-1.463-0.456-2.172-0.703L174.632,330.968z"/>
	</defs>
	<clipPath id="SVGID_278_">
		<use xlink:href="#SVGID_277_"  overflow="visible"/>
	</clipPath>
	
		<linearGradient id="SVGID_279_" gradientUnits="userSpaceOnUse" x1="97.3364" y1="383.3047" x2="99.1724" y2="383.3047" gradientTransform="matrix(56.3754 99.2116 -68.9313 63.8324 21008.8789 -33975.7109)">
		<stop  offset="0" style="stop-color:#E71E6F"/>
		<stop  offset="1" style="stop-color:#F9D232"/>
	</linearGradient>
	<polygon clip-path="url(#SVGID_278_)" fill="url(#SVGID_279_)" points="7.128,210.784 110.638,392.944 245.498,268.062 
		141.988,85.9 	"/>
</g>
<g>
	<defs>
		<path id="SVGID_280_" d="M194.579,373.682c0.043,0.017,0.088,0.036,0.141,0.057c0.149,0.061,0.296,0.119,0.597,0.236
			c0.158,0.06,0.316,0.119,0.606,0.225c0.169,0.065,0.338,0.126,0.59,0.216c0.054,0.018,0.107,0.036,0.161,0.058L97.86,190.678
			c-0.053-0.019-0.106-0.04-0.161-0.058c-0.252-0.091-0.421-0.15-0.588-0.214c-0.292-0.108-0.448-0.168-0.607-0.227
			c-0.301-0.116-0.449-0.176-0.597-0.237c-0.051-0.02-0.099-0.038-0.142-0.056L194.579,373.682z"/>
	</defs>
	<clipPath id="SVGID_281_">
		<use xlink:href="#SVGID_280_"  overflow="visible"/>
	</clipPath>
	
		<linearGradient id="SVGID_282_" gradientUnits="userSpaceOnUse" x1="97.5195" y1="383.3223" x2="99.3555" y2="383.3223" gradientTransform="matrix(56.379 99.218 -68.9357 63.8365 21021.0586 -33954.6445)">
		<stop  offset="0" style="stop-color:#E71E6F"/>
		<stop  offset="1" style="stop-color:#F9D232"/>
	</linearGradient>
	<polygon clip-path="url(#SVGID_281_)" fill="url(#SVGID_282_)" points="27.041,253.527 130.556,435.699 265.398,310.83 
		161.884,128.659 	"/>
</g>
<g>
	<defs>
		<path id="SVGID_283_" d="M170.448,329.263c0.097,0.044,0.226,0.105,0.439,0.204c0.13,0.06,0.262,0.118,0.593,0.266
			c0.134,0.058,0.269,0.114,0.603,0.257c0.115,0.049,0.232,0.095,0.453,0.19L73.724,146.382c-0.223-0.09-0.34-0.139-0.456-0.188
			c-0.332-0.141-0.468-0.199-0.6-0.256c-0.334-0.147-0.463-0.207-0.593-0.264c-0.215-0.102-0.343-0.16-0.44-0.206L170.448,329.263z"
			/>
	</defs>
	<clipPath id="SVGID_284_">
		<use xlink:href="#SVGID_283_"  overflow="visible"/>
	</clipPath>
	
		<linearGradient id="SVGID_285_" gradientUnits="userSpaceOnUse" x1="97.3188" y1="383.3184" x2="99.1553" y2="383.3184" gradientTransform="matrix(56.4027 99.2596 -68.9646 63.8632 21016.6582 -33993.0742)">
		<stop  offset="0" style="stop-color:#E71E6F"/>
		<stop  offset="1" style="stop-color:#F9D232"/>
	</linearGradient>
	<polygon clip-path="url(#SVGID_284_)" fill="url(#SVGID_285_)" points="2.862,209.151 106.423,391.401 241.307,266.494 
		137.746,84.246 	"/>
</g>
<g>
	<defs>
		<path id="SVGID_286_" d="M109.145,219.342l0.013,0.005c0.104,0.058,0.211,0.114,0.563,0.3c0.111,0.054,0.222,0.112,0.573,0.285
			c0.117,0.062,0.233,0.117,0.575,0.279c0.044,0.022,0.09,0.044,0.142,0.068L12.197,36.485c-0.054-0.025-0.096-0.046-0.142-0.065
			c-0.342-0.166-0.458-0.223-0.573-0.28c-0.351-0.177-0.462-0.233-0.574-0.29c-0.351-0.186-0.458-0.239-0.564-0.298
			c-0.003-0.001-0.007-0.003-0.011-0.005L109.145,219.342z"/>
	</defs>
	<clipPath id="SVGID_287_">
		<use xlink:href="#SVGID_286_"  overflow="visible"/>
	</clipPath>
	
		<linearGradient id="SVGID_288_" gradientUnits="userSpaceOnUse" x1="96.8174" y1="383.3135" x2="98.6533" y2="383.3135" gradientTransform="matrix(56.3654 99.194 -68.919 63.821 20969.4199 -34030.3164)">
		<stop  offset="0" style="stop-color:#E71E6F"/>
		<stop  offset="1" style="stop-color:#F9D232"/>
	</linearGradient>
	<polygon clip-path="url(#SVGID_287_)" fill="url(#SVGID_288_)" points="-58.446,99.239 45.044,281.367 179.789,156.588 
		76.299,-25.539 	"/>
</g>
<g>
	<defs>
		<path id="SVGID_289_" d="M165.855,342.722c0.076,0.042,0.147,0.088,0.221,0.13c0.093,0.06,0.188,0.117,0.542,0.321
			c0.098,0.061,0.197,0.116,0.551,0.317c0.102,0.057,0.203,0.111,0.548,0.302L68.904,159.995c-0.345-0.186-0.449-0.242-0.547-0.3
			c-0.354-0.199-0.455-0.256-0.553-0.313c-0.353-0.209-0.448-0.267-0.54-0.322c-0.076-0.044-0.144-0.091-0.22-0.136L165.855,342.722
			z"/>
	</defs>
	<clipPath id="SVGID_290_">
		<use xlink:href="#SVGID_289_"  overflow="visible"/>
	</clipPath>
	
		<linearGradient id="SVGID_291_" gradientUnits="userSpaceOnUse" x1="97.3467" y1="383.3721" x2="99.1826" y2="383.3721" gradientTransform="matrix(56.391 99.2391 -68.9503 63.85 21009.7715 -33978.6523)">
		<stop  offset="0" style="stop-color:#E71E6F"/>
		<stop  offset="1" style="stop-color:#F9D232"/>
	</linearGradient>
	<polygon clip-path="url(#SVGID_290_)" fill="url(#SVGID_291_)" points="-1.786,222.663 101.754,404.876 236.546,280.054 
		133.008,97.839 	"/>
</g>
<g>
	<defs>
		<path id="SVGID_292_" d="M166.715,327.249c0.003,0.002,0.005,0.004,0.012,0.004L67.914,143.461
			c-0.006-0.004-0.009-0.004-0.011-0.007L166.715,327.249z"/>
	</defs>
	<clipPath id="SVGID_293_">
		<use xlink:href="#SVGID_292_"  overflow="visible"/>
	</clipPath>
	
		<linearGradient id="SVGID_294_" gradientUnits="userSpaceOnUse" x1="97.2959" y1="383.3359" x2="99.1323" y2="383.3359" gradientTransform="matrix(55.8276 98.2477 -68.2615 63.2121 20801.4082 -33645.4609)">
		<stop  offset="0" style="stop-color:#E71E6F"/>
		<stop  offset="1" style="stop-color:#F9D232"/>
	</linearGradient>
	<polygon clip-path="url(#SVGID_293_)" fill="url(#SVGID_294_)" points="-0.529,206.823 101.975,387.215 235.158,263.883 
		132.655,83.493 	"/>
</g>
<g>
	<defs>
		<path id="SVGID_295_" d="M166.657,327.213c0.003,0,0.007,0.002,0.009,0.004c0.016,0.012,0.034,0.02,0.05,0.032L67.903,143.454
			c-0.019-0.009-0.037-0.021-0.051-0.031c-0.005-0.002-0.005-0.004-0.007-0.004L166.657,327.213z"/>
	</defs>
	<clipPath id="SVGID_296_">
		<use xlink:href="#SVGID_295_"  overflow="visible"/>
	</clipPath>
	
		<linearGradient id="SVGID_297_" gradientUnits="userSpaceOnUse" x1="97.2959" y1="383.3359" x2="99.1318" y2="383.3359" gradientTransform="matrix(55.8437 98.2759 -68.2812 63.2303 20807.3281 -33655.2344)">
		<stop  offset="0" style="stop-color:#E71E6F"/>
		<stop  offset="1" style="stop-color:#F9D232"/>
	</linearGradient>
	<polygon clip-path="url(#SVGID_296_)" fill="url(#SVGID_297_)" points="-0.6,206.799 101.934,387.24 235.158,263.869 
		132.626,83.428 	"/>
</g>
<g>
	<defs>
		<path id="SVGID_298_" d="M164.819,325.992l0.016,0.011c0.225,0.161,0.449,0.315,0.852,0.588c0.199,0.13,0.4,0.261,0.971,0.622
			L67.845,143.418c-0.576-0.364-0.773-0.492-0.972-0.625c-0.402-0.271-0.628-0.426-0.852-0.586c-0.004-0.003-0.009-0.007-0.016-0.01
			L164.819,325.992z"/>
	</defs>
	<clipPath id="SVGID_299_">
		<use xlink:href="#SVGID_298_"  overflow="visible"/>
	</clipPath>
	
		<linearGradient id="SVGID_300_" gradientUnits="userSpaceOnUse" x1="97.2944" y1="383.335" x2="99.1304" y2="383.335" gradientTransform="matrix(56.4174 99.2856 -68.9827 63.8799 21018.9785 -34003.8281)">
		<stop  offset="0" style="stop-color:#E71E6F"/>
		<stop  offset="1" style="stop-color:#F9D232"/>
	</linearGradient>
	<polygon clip-path="url(#SVGID_299_)" fill="url(#SVGID_300_)" points="-2.878,205.987 100.708,388.282 235.542,263.425 
		131.954,81.128 	"/>
</g>
<g>
	<defs>
		<path id="SVGID_301_" d="M163.344,324.876c0.214,0.172,0.431,0.338,0.821,0.636c0.192,0.145,0.387,0.289,0.654,0.48
			L66.006,142.198c-0.268-0.191-0.462-0.335-0.655-0.482c-0.389-0.296-0.605-0.462-0.818-0.634L163.344,324.876z"/>
	</defs>
	<clipPath id="SVGID_302_">
		<use xlink:href="#SVGID_301_"  overflow="visible"/>
	</clipPath>
	
		<linearGradient id="SVGID_303_" gradientUnits="userSpaceOnUse" x1="97.2856" y1="383.3398" x2="99.1216" y2="383.3398" gradientTransform="matrix(56.3281 99.1285 -68.8735 63.7789 20985.0625 -33950.1953)">
		<stop  offset="0" style="stop-color:#E71E6F"/>
		<stop  offset="1" style="stop-color:#F9D232"/>
	</linearGradient>
	<polygon clip-path="url(#SVGID_302_)" fill="url(#SVGID_303_)" points="-4.313,204.835 99.108,386.841 233.663,262.239 
		130.242,80.232 	"/>
</g>
<g>
	<path fill="#FFFFFF" d="M171.84,247.917c13.383-9.974,28.76-14.959,46.13-14.959c10.409,0,20.147,1.929,29.213,5.792
		c9.065,3.862,16.482,9.493,22.248,16.891c5.657,7.434,8.557,16.427,8.704,26.981v0.87c0,11.749-3.408,21.777-10.229,30.083
		c-7.144,8.63-16.28,14.94-27.413,18.93c-11.134,4.171-22.649,6.257-34.543,6.257c-15.307,0-27.493-2.449-36.557-7.343
		c-13.346-6.819-20.019-15.289-20.019-25.406c0.146-5.331,2.213-9.718,6.203-13.163c4.024-3.409,8.775-5.115,14.251-5.115
		c4.75,0,8.396,1.197,10.935,3.592c2.394,2.503,4.17,6.126,5.332,10.88c1.051,4.932,2.029,9.175,2.936,12.729
		c0.728,3.554,1.975,6.674,3.756,9.355c3.263,3.7,8.541,5.786,15.827,6.256c0.762-0.325,1.725-0.489,2.885-0.489
		c8.778-0.869,15.758-5.163,20.943-12.882c4.897-7.429,7.345-17.233,7.345-29.412v-0.87c-0.29-12.032-3.247-21.69-8.867-28.975
		c-5.802-7.25-13.834-11.182-24.099-11.797c-1.016-0.145-2.049-0.219-3.102-0.219c-12.62,0-24.805,5.877-36.556,17.627l-8.213-3.158
		l8.213-86.273h99.169l-6.909,29.214h-82.685L171.84,247.917z"/>
	<path fill="#707E86" d="M191.456,398.846c-1.226-1.351-1.759-3.068-1.759-4.91c0-1.514,0.45-2.821,1.271-3.948
		c1.124-1.554,3.352-2.597,5.458-2.597c4.174,0,6.282,3.048,6.282,6.383c0,1.799-0.41,3.087-1.249,4.254
		c-1.268,1.759-3.334,2.679-5.377,2.679C194.115,400.706,192.52,399.99,191.456,398.846 M199.046,399.092
		c1.267-1.024,1.719-2.723,1.719-4.604c0-2.208-0.737-4.334-2.354-5.461c-0.736-0.51-1.616-0.816-2.679-0.816
		c-0.717,0-1.33,0.162-1.841,0.448c-1.493,0.879-2.189,2.721-2.189,4.809c0,2.147,0.799,4.478,2.599,5.644
		c0.715,0.45,1.513,0.696,2.557,0.696C197.716,399.807,198.514,399.541,199.046,399.092"/>
	<path fill="#707E86" d="M204.364,387.697c0.37,0,1.638,0.062,2.599,0.062c0.959,0,1.903-0.062,2.413-0.062
		c0.082,0.062,0.082,0.513,0,0.572c-0.43,0.082-0.715,0.103-0.96,0.185c-0.47,0.145-0.594,0.368-0.613,1.083
		c-0.041,2.006-0.023,4.767,0.02,5.85c0.04,0.86,0.165,1.638,0.39,2.086c0.406,1.146,1.595,2.068,3.535,2.068
		c1.697,0,3.356-0.512,3.541-3.744c0.083-1.554,0.122-3.844,0.042-5.932c-0.021-1.023-0.246-1.289-0.922-1.411
		c-0.287-0.082-0.596-0.103-1.044-0.185c-0.082-0.08-0.061-0.511,0.021-0.572c0.366,0,1.267,0.062,2.454,0.062
		c0.923,0,1.842-0.062,2.188-0.062c0.063,0.062,0.082,0.53,0,0.572c-0.306,0.082-0.632,0.124-0.858,0.205
		c-0.593,0.163-0.715,0.531-0.734,1.513c-0.124,4.194-0.062,5.688-0.409,7.119c-0.596,2.76-2.803,3.6-4.952,3.6
		c-3.229,0-4.664-1.474-4.927-3.702c-0.164-1.287-0.126-6.483-0.164-7.526c-0.021-0.533-0.143-0.86-0.575-1.003
		c-0.225-0.081-0.696-0.145-1.063-0.205C204.262,388.21,204.284,387.759,204.364,387.697"/>
	<path fill="#707E86" d="M228.053,400.399c-0.594,0-1.8-0.062-3.048-0.062c-1.514,0-2.557,0.062-3.088,0.062
		c-0.082-0.103-0.062-0.511,0-0.593c0.633-0.062,1.146-0.123,1.452-0.206c0.654-0.123,0.755-0.53,0.776-1.47
		c0.062-1.598,0.082-5.975,0.082-9.37c0-0.082-0.082-0.164-0.142-0.164c-0.351-0.021-1.862-0.021-2.643,0
		c-0.345,0.021-0.613,0.164-0.855,0.574c-0.247,0.389-0.513,1.123-0.799,1.901c-0.08,0.061-0.594-0.06-0.634-0.162
		c0.164-0.858,0.366-2.496,0.41-3.377c0-0.04,0.185-0.102,0.224-0.08c0.367,0.183,0.899,0.306,1.654,0.306h7.568
		c0.943,0,1.394-0.041,1.986-0.306c0.062,0,0.185,0.059,0.206,0.103c-0.206,0.714-0.37,2.352-0.471,3.457
		c-0.063,0.102-0.593,0.102-0.654,0.017c-0.063-0.713-0.164-1.429-0.328-1.818c-0.163-0.408-0.41-0.573-0.798-0.594
		c-0.961-0.021-2.394-0.021-2.863,0c-0.064,0.021-0.103,0.103-0.103,0.165c0,3.005,0,8.673,0.062,9.716
		c0.059,0.714,0.224,0.961,0.695,1.082c0.326,0.104,0.673,0.145,1.389,0.227C228.197,399.907,228.155,400.358,228.053,400.399"/>
	<path fill="#707E86" d="M234.273,399.397c0.508,0.389,1.227,0.553,2.005,0.553c1.043,0,2.188-0.614,2.188-2.148
		c0-1.351-0.839-1.982-2.681-3.067c-1.819-1.043-3.047-2.047-3.047-3.887c0-2.189,1.8-3.457,4.028-3.457
		c1.412,0,2.249,0.265,3.108,0.349c-0.141,0.675-0.265,1.82-0.347,2.822c-0.06,0.122-0.531,0.122-0.593,0.021
		c-0.122-1.207-0.307-1.782-0.8-2.107c-0.45-0.327-1.042-0.43-1.654-0.43c-1.412,0-2.129,1.084-2.148,2.087
		c0,1.146,0.533,1.739,1.392,2.331c0.815,0.531,1.841,1.023,2.536,1.433c1.062,0.674,1.965,1.535,1.965,3.028
		c0,2.004-1.658,3.782-4.543,3.782c-1.227,0-2.453-0.389-2.944-0.635c-0.187-0.265-0.513-2.372-0.572-3.067
		c0.04-0.121,0.532-0.246,0.632-0.183C233.166,398.089,233.578,398.904,234.273,399.397"/>
	<path fill="#707E86" d="M243.927,398.846c-1.229-1.351-1.757-3.068-1.757-4.91c0-1.514,0.448-2.821,1.267-3.948
		c1.126-1.554,3.354-2.597,5.458-2.597c4.177,0,6.283,3.048,6.283,6.383c0,1.799-0.41,3.087-1.249,4.254
		c-1.266,1.759-3.333,2.679-5.378,2.679C246.586,400.706,244.99,399.99,243.927,398.846 M251.517,399.092
		c1.266-1.024,1.72-2.723,1.72-4.604c0-2.208-0.739-4.334-2.356-5.461c-0.732-0.51-1.615-0.816-2.678-0.816
		c-0.716,0-1.328,0.162-1.842,0.448c-1.491,0.879-2.187,2.721-2.187,4.809c0,2.147,0.796,4.478,2.597,5.644
		c0.716,0.45,1.512,0.696,2.557,0.696C250.184,399.807,250.984,399.541,251.517,399.092"/>
	<path fill="#707E86" d="M256.835,387.697c0.368,0,1.638,0.062,2.599,0.062c0.959,0,1.901-0.062,2.413-0.062
		c0.08,0.062,0.08,0.513,0,0.572c-0.429,0.082-0.714,0.103-0.96,0.185c-0.471,0.145-0.593,0.368-0.615,1.083
		c-0.041,2.006-0.021,4.767,0.022,5.85c0.037,0.86,0.16,1.638,0.387,2.086c0.407,1.146,1.597,2.068,3.536,2.068
		c1.698,0,3.357-0.512,3.539-3.744c0.085-1.554,0.125-3.844,0.043-5.932c-0.02-1.023-0.243-1.289-0.919-1.411
		c-0.289-0.082-0.596-0.103-1.045-0.185c-0.082-0.08-0.06-0.511,0.021-0.572c0.369,0,1.268,0.062,2.455,0.062
		c0.922,0,1.842-0.062,2.188-0.062c0.062,0.062,0.08,0.53,0,0.572c-0.307,0.082-0.633,0.124-0.857,0.205
		c-0.596,0.163-0.718,0.531-0.738,1.513c-0.12,4.194-0.06,5.688-0.407,7.119c-0.596,2.76-2.805,3.6-4.953,3.6
		c-3.229,0-4.662-1.474-4.927-3.702c-0.163-1.287-0.124-6.483-0.163-7.526c-0.02-0.533-0.144-0.86-0.576-1.003
		c-0.224-0.081-0.696-0.145-1.063-0.205C256.732,388.21,256.755,387.759,256.835,387.697"/>
	<path fill="#707E86" d="M271.38,387.697c0.491,0,1.718,0.062,2.351,0.062c1.516,0,2.581-0.041,3.397-0.041
		c2.394,0,3.661,1.433,3.661,3.15s-1.103,2.741-2.332,3.292c-0.04,0.041-0.063,0.104-0.04,0.145
		c0.716,1.144,2.332,3.395,3.333,4.417c0.838,0.86,1.125,0.962,2.354,1.127c0.036,0.06,0,0.53-0.124,0.571
		c-0.879,0.041-2.519-0.021-3.273-0.391c-0.307-0.141-0.637-0.387-0.98-0.817c-0.779-0.919-2.028-2.965-2.803-4.069
		c-0.143-0.204-0.347-0.307-0.512-0.307c-0.285-0.042-1.166-0.02-1.455-0.02c-0.038,0-0.08,0.102-0.08,0.122
		c0,1.124,0,3.024,0.042,3.702c0.038,0.695,0.183,0.878,0.653,0.981c0.307,0.062,0.675,0.123,1.146,0.185
		c0.104,0.082,0.063,0.511-0.039,0.593c-0.39,0-1.372-0.06-2.722-0.06c-1.329,0-2.21,0.06-2.599,0.06
		c-0.101-0.082-0.101-0.511,0-0.593c0.45-0.062,0.778-0.103,1.043-0.164c0.49-0.102,0.657-0.348,0.696-1.123
		c0.021-0.473,0.043-3.254,0.043-4.381c0-2.083,0-4.131-0.022-4.764c-0.021-0.575-0.162-0.82-0.675-0.94
		c-0.307-0.063-0.696-0.123-1.104-0.165C271.258,388.189,271.3,387.739,271.38,387.697 M275.062,388.517
		c-0.062,0.038-0.143,0.203-0.143,0.306c-0.042,0.695-0.042,3.477-0.042,5.073c0,0.04,0.042,0.103,0.104,0.103
		c1.37,0.04,2.25,0,2.64-0.166c0.652-0.307,1.327-1.042,1.327-2.372c0-1.923-0.981-3.046-3.169-3.046
		C275.614,388.414,275.267,388.435,275.062,388.517"/>
	<path fill="#707E86" d="M293.453,388.576c-0.675-0.326-1.557-0.449-2.536-0.449c-2.967,0-4.666,2.189-4.666,5.646
		c0,3.272,1.82,6.033,5.464,6.033c0.879,0,1.738-0.225,2.246-0.696c0.515-0.408,1.005-1.104,1.535-2.004
		c0.104,0,0.451,0.184,0.493,0.328c-0.205,0.879-1.085,2.474-1.556,2.761c-0.592,0.202-1.882,0.511-3.129,0.511
		c-4.563,0-7.097-2.495-7.097-6.75c0-2.209,1.001-4.419,3.25-5.626c1.085-0.591,2.416-0.94,4.153-0.94s3.106,0.35,4.028,0.41
		c-0.121,0.717-0.309,2.229-0.326,3.148c-0.083,0.082-0.613,0.145-0.635,0.041C294.476,389.355,294.21,388.946,293.453,388.576"/>
	<path fill="#707E86" d="M297.258,387.697c0.429,0,1.598,0.062,2.656,0.062c1.065,0,2.028-0.062,2.539-0.062
		c0.06,0.082,0.083,0.471,0.021,0.572c-0.451,0.061-0.798,0.103-1.043,0.164c-0.472,0.123-0.554,0.389-0.595,1.023
		c-0.061,0.859-0.039,2.576-0.039,4.357c0,2.023,0,3.987,0.039,4.703c0.022,0.593,0.103,0.941,0.718,1.084
		c0.286,0.082,0.714,0.144,1.206,0.205c0.083,0.08,0.041,0.533-0.041,0.593c-0.492,0-1.636-0.06-2.64-0.06
		c-1.165,0-2.188,0.06-2.844,0.06c-0.101-0.06-0.101-0.533-0.017-0.593c0.448-0.041,0.756-0.082,1.041-0.164
		c0.596-0.125,0.676-0.41,0.717-0.879c0.079-0.572,0.079-2.68,0.079-5.358c0-1.679,0-3.009-0.062-3.97
		c-0.039-0.512-0.08-0.818-0.509-0.939c-0.306-0.103-0.694-0.145-1.25-0.227C297.152,388.189,297.196,387.759,297.258,387.697"/>
	<path fill="#707E86" d="M303.659,387.697c0.51,0,1.536,0.062,2.56,0.062c0.408,0,0.755,0,0.92-0.02
		c0.078,0.202,0.204,0.429,0.735,1.103c2.087,2.619,6.28,7.733,7.262,8.878c0.039,0.021,0.063,0,0.082-0.021
		c0-2.803,0.021-6.627-0.082-8.099c-0.041-0.595-0.163-0.922-0.776-1.084c-0.37-0.103-0.819-0.187-1.373-0.247
		c-0.08-0.08-0.06-0.511,0-0.572c0.534,0,1.475,0.062,2.721,0.062c0.695,0,1.903-0.062,2.17-0.062c0.082,0.062,0.082,0.492,0,0.572
		c-0.366,0.061-0.637,0.124-0.9,0.205c-0.532,0.184-0.656,0.552-0.695,1.104c-0.123,1.575-0.104,4.194-0.163,8.06
		c0,0.939,0.02,2.127,0.04,2.803c-0.225-0.021-1.166-0.021-1.41,0c-1.084-1.557-6.71-8.592-7.938-10.125
		c-0.02-0.021-0.08,0-0.08,0.02c-0.044,2.106-0.044,6.895,0.019,8.039c0.042,0.816,0.308,1.103,0.84,1.227
		c0.306,0.103,0.714,0.144,1.228,0.205c0.082,0.08,0.019,0.511-0.042,0.593c-0.492,0-1.411-0.06-2.556-0.06
		c-1.248,0-2.026,0.06-2.455,0.06c-0.063-0.06-0.063-0.533,0-0.593c0.45-0.041,0.775-0.103,1.082-0.185
		c0.472-0.145,0.738-0.411,0.778-1.206c0.082-1.063,0.142-4.397,0.184-8.693c0-0.308-0.102-0.757-0.552-1.003
		c-0.387-0.266-0.837-0.368-1.635-0.45C303.559,388.21,303.579,387.759,303.659,387.697"/>
	<path fill="#707E86" d="M331.214,399.929c-0.674,0.206-2.681,0.777-4.461,0.777c-4.784,0-7.3-2.413-7.3-6.729
		c0-2.7,1.37-4.807,3.599-5.81c1.146-0.53,2.393-0.777,3.989-0.777c1.657,0,2.824,0.327,4.05,0.451
		c-0.164,0.757-0.347,2.33-0.37,3.251c-0.06,0.103-0.57,0.143-0.674,0.062c-0.163-1.533-0.407-2.106-1.004-2.455
		c-0.632-0.369-1.45-0.572-2.777-0.572c-3.193,0-4.727,2.27-4.727,5.626c0,3.516,1.883,6.237,5.583,6.237
		c0.574,0,1.083-0.082,1.372-0.266c0.286-0.143,0.408-0.513,0.449-0.859c0.062-0.636,0.062-1.393,0.041-2.087
		c-0.041-0.675-0.166-0.92-0.756-1.083c-0.37-0.081-0.736-0.123-1.372-0.205c-0.104-0.06-0.061-0.531,0.022-0.594
		c0.631,0,1.615,0.063,2.862,0.063c1.206,0,1.818-0.042,2.229-0.063c0.063,0.063,0.063,0.552-0.021,0.614
		c-0.243,0.04-0.489,0.082-0.674,0.143c-0.39,0.122-0.489,0.39-0.509,0.982c-0.021,0.614-0.045,1.88,0,2.27
		c0.02,0.307,0.06,0.409,0.509,0.595C331.294,399.561,331.254,399.866,331.214,399.929"/>
	<path fill="#707E86" d="M188.652,434.781c1.045,0.793,2.51,1.129,4.098,1.129c2.133,0,4.475-1.256,4.475-4.392
		c0-2.758-1.717-4.055-5.475-6.271c-3.725-2.133-6.233-4.178-6.233-7.943c0-4.473,3.679-7.063,8.235-7.063
		c2.886,0,4.6,0.542,6.358,0.708c-0.293,1.379-0.548,3.723-0.712,5.772c-0.124,0.249-1.086,0.249-1.213,0.041
		c-0.25-2.469-0.627-3.639-1.631-4.307c-0.92-0.67-2.131-0.879-3.386-0.879c-2.884,0-4.348,2.216-4.389,4.266
		c0,2.342,1.086,3.556,2.84,4.767c1.675,1.086,3.767,2.089,5.188,2.926c2.172,1.381,4.013,3.136,4.013,6.188
		c0,4.096-3.387,7.733-9.281,7.733c-2.511,0-5.017-0.796-6.022-1.296c-0.375-0.543-1.043-4.851-1.17-6.272
		c0.083-0.249,1.087-0.501,1.294-0.374C186.397,432.104,187.231,433.777,188.652,434.781"/>
	<path fill="#707E86" d="M227.118,436.829c-1.211,0-3.679-0.126-6.23-0.126c-3.093,0-5.226,0.126-6.311,0.126
		c-0.169-0.21-0.126-1.043,0-1.214c1.296-0.125,2.34-0.249,2.967-0.417c1.338-0.249,1.547-1.086,1.587-3.01
		c0.13-3.262,0.168-12.208,0.168-19.149c0-0.167-0.168-0.333-0.29-0.333c-0.713-0.042-3.807-0.042-5.394,0
		c-0.71,0.042-1.256,0.333-1.758,1.169c-0.499,0.796-1.044,2.3-1.629,3.89c-0.167,0.124-1.215-0.124-1.295-0.335
		c0.33-1.755,0.752-5.101,0.836-6.898c0-0.083,0.375-0.212,0.459-0.168c0.751,0.377,1.838,0.629,3.387,0.629h15.468
		c1.925,0,2.844-0.086,4.053-0.629c0.129,0,0.378,0.126,0.422,0.211c-0.422,1.463-0.753,4.809-0.965,7.066
		c-0.122,0.207-1.208,0.207-1.335,0.039c-0.124-1.461-0.334-2.927-0.668-3.72c-0.335-0.835-0.837-1.17-1.631-1.212
		c-1.965-0.042-4.892-0.042-5.856,0c-0.124,0.042-0.206,0.209-0.206,0.334c0,6.146,0,17.728,0.126,19.857
		c0.125,1.464,0.46,1.966,1.421,2.217c0.67,0.21,1.379,0.294,2.843,0.459C227.412,435.824,227.328,436.747,227.118,436.829"/>
	<path fill="#707E86" d="M243.654,431.729c2.134-5.059,6.065-15.721,6.983-18.395c0.337-0.879,0.63-1.799,0.713-2.384
		c0.166,0,0.667,0.042,1.38,0.042c0.835,0,1.252-0.042,1.379-0.042c0.167,0.626,0.377,1.379,0.669,2.173
		c0.835,2.383,5.475,15.638,6.938,19.106c1.214,2.803,1.508,3.011,4.517,3.388c0.166,0.123,0.043,1.045-0.084,1.212
		c-1.085-0.044-3.219-0.126-5.099-0.126c-2.048,0-4.599,0.082-5.477,0.126c-0.127-0.167-0.213-1.045-0.042-1.212
		c0.92-0.125,1.669-0.251,2.298-0.459c0.544-0.253,0.584-0.67,0.46-1.046c-0.5-1.799-1.753-5.311-2.507-7.191
		c-0.045-0.125-0.295-0.292-0.375-0.292c-0.587-0.044-2.051,0-3.93,0c-2.677,0-2.971-0.044-3.472,0c-0.169,0-0.38,0.25-0.417,0.374
		c-0.839,2.258-2.178,5.771-2.259,6.776c-0.043,0.709,0.041,1.167,1.337,1.503c0.5,0.125,1.211,0.251,2.007,0.335
		c0.127,0.167,0.041,1.045-0.083,1.212c-0.881,0-3.013-0.126-5.353-0.126c-2.383,0-3.678,0.126-4.475,0.126
		c-0.165-0.167-0.165-1.045,0-1.212C241.774,435.24,242.275,434.946,243.654,431.729 M251.642,415.34
		c-0.711,2.09-2.425,6.814-3.135,9.032c0,0.164,0.041,0.25,0.167,0.291c0.417,0.041,1.757,0.041,3.344,0.041
		c1.004,0,2.382,0,2.803-0.041c0.082,0,0.209-0.168,0.126-0.335c-0.837-2.592-2.426-7.23-3.097-9.03
		C251.81,415.298,251.684,415.256,251.642,415.34"/>
	<path fill="#707E86" d="M274.33,410.864c1.003,0,3.51,0.128,4.808,0.128c3.097,0,5.269-0.086,6.94-0.086
		c4.893,0,7.483,2.929,7.483,6.441c0,3.511-2.259,5.602-4.769,6.729c-0.082,0.084-0.124,0.209-0.082,0.295
		c1.462,2.339,4.769,6.94,6.813,9.028c1.716,1.756,2.302,1.966,4.81,2.301c0.084,0.126,0,1.087-0.249,1.17
		c-1.798,0.084-5.142-0.044-6.688-0.795c-0.63-0.292-1.298-0.794-2.009-1.671c-1.587-1.884-4.139-6.063-5.729-8.319
		c-0.291-0.421-0.709-0.63-1.044-0.63c-0.584-0.083-2.38-0.04-2.968-0.04c-0.082,0-0.166,0.208-0.166,0.249
		c0,2.301,0,6.188,0.084,7.568c0.082,1.423,0.376,1.799,1.334,2.007c0.632,0.126,1.381,0.252,2.346,0.375
		c0.206,0.169,0.123,1.047-0.085,1.212c-0.795,0-2.805-0.122-5.563-0.122c-2.717,0-4.515,0.122-5.309,0.122
		c-0.209-0.165-0.209-1.043,0-1.212c0.919-0.123,1.589-0.208,2.132-0.333c1.005-0.21,1.337-0.71,1.42-2.299
		c0.045-0.961,0.085-6.649,0.085-8.947c0-4.264,0-8.445-0.04-9.741c-0.045-1.17-0.337-1.675-1.382-1.922
		c-0.626-0.126-1.421-0.252-2.258-0.336C274.079,411.87,274.163,410.95,274.33,410.864 M281.855,412.537
		c-0.126,0.083-0.291,0.42-0.291,0.627c-0.084,1.422-0.084,7.109-0.084,10.37c0,0.084,0.084,0.207,0.21,0.207
		c2.799,0.087,4.597,0,5.392-0.33c1.338-0.631,2.718-2.136,2.718-4.854c0-3.928-2.009-6.229-6.479-6.229
		C282.984,412.329,282.272,412.373,281.855,412.537"/>
	<path fill="#707E86" d="M313.855,434.781c1.043,0.793,2.511,1.129,4.096,1.129c2.136,0,4.477-1.256,4.477-4.392
		c0-2.758-1.716-4.055-5.479-6.271c-3.719-2.133-6.228-4.178-6.228-7.943c0-4.473,3.678-7.063,8.234-7.063
		c2.886,0,4.601,0.542,6.354,0.708c-0.29,1.379-0.543,3.723-0.708,5.772c-0.123,0.249-1.087,0.249-1.215,0.041
		c-0.249-2.469-0.623-3.639-1.629-4.307c-0.919-0.67-2.133-0.879-3.385-0.879c-2.886,0-4.352,2.216-4.392,4.266
		c0,2.342,1.088,3.556,2.843,4.767c1.673,1.086,3.764,2.089,5.185,2.926c2.173,1.381,4.015,3.136,4.015,6.188
		c0,4.096-3.387,7.733-9.283,7.733c-2.509,0-5.016-0.796-6.02-1.296c-0.376-0.543-1.045-4.851-1.173-6.272
		c0.085-0.249,1.09-0.501,1.297-0.374C311.598,432.104,312.434,433.777,313.855,434.781"/>
</g>
</svg>
