<?xml version="1.0" encoding="utf-8"?>
<!-- Generator: Adobe Illustrator 15.0.0, SVG Export Plug-In . SVG Version: 6.00 Build 0)  -->
<!DOCTYPE svg PUBLIC "-//W3C//DTD SVG 1.1//EN" "http://www.w3.org/Graphics/SVG/1.1/DTD/svg11.dtd">
<svg version="1.1" id="Warstwa_1" xmlns="http://www.w3.org/2000/svg" xmlns:xlink="http://www.w3.org/1999/xlink" x="0px" y="0px"
	 width="478.717px" height="663.808px" viewBox="0 0 478.717 663.808" enable-background="new 0 0 478.717 663.808"
	 xml:space="preserve">
<path fill="#1F3242" d="M164.293,498.553h145.739H164.293z"/>
<g>
	<path fill="#1F3242" d="M262.438,523.647h-5.907v17.132h-4.87v-17.132h-5.907v-3.861h16.685V523.647z"/>
	<path fill="#1F3242" d="M288.965,519.786v20.993h-4.899v-8.876h-8.529v8.876h-4.899v-20.993h4.899v8.774h8.529v-8.774H288.965z"/>
	<path fill="#1F3242" d="M303.689,523.532v4.899h6.599v3.602h-6.599v5h8.616v3.746H298.79v-20.993h13.516v3.746H303.689z"/>
</g>
<g>
	<path fill="#1F3242" d="M255.076,548.603c1.45,0,2.685,0.135,3.703,0.403c1.018,0.27,1.849,0.648,2.492,1.139
		c0.644,0.489,1.112,1.085,1.405,1.786s0.439,1.484,0.439,2.349c0,0.471-0.067,0.925-0.202,1.362
		c-0.135,0.437-0.346,0.845-0.634,1.225c-0.288,0.379-0.658,0.728-1.109,1.044c-0.452,0.317-0.994,0.591-1.628,0.821
		c1.383,0.337,2.406,0.879,3.068,1.629c0.663,0.749,0.994,1.719,0.994,2.91c0,0.894-0.173,1.725-0.519,2.492
		c-0.346,0.769-0.853,1.438-1.52,2.011c-0.668,0.571-1.491,1.018-2.472,1.34c-0.979,0.321-2.099,0.482-3.356,0.482h-8.386v-20.993
		H255.076z M252.224,552.249v5.187h2.535c0.538,0,1.023-0.038,1.455-0.115c0.433-0.076,0.8-0.211,1.103-0.403
		c0.303-0.191,0.533-0.456,0.691-0.792c0.159-0.336,0.238-0.759,0.238-1.269c0-0.499-0.063-0.914-0.188-1.246
		c-0.125-0.331-0.317-0.598-0.576-0.8c-0.26-0.201-0.589-0.346-0.987-0.432c-0.398-0.087-0.871-0.13-1.419-0.13H252.224z
		 M255.652,565.922c0.644,0,1.169-0.082,1.578-0.245c0.408-0.163,0.728-0.375,0.958-0.634c0.23-0.26,0.389-0.553,0.476-0.879
		c0.086-0.327,0.129-0.658,0.129-0.994c0-0.385-0.05-0.73-0.15-1.038c-0.102-0.307-0.274-0.566-0.52-0.777
		c-0.244-0.212-0.568-0.375-0.973-0.49c-0.403-0.115-0.912-0.173-1.526-0.173h-3.4v5.23H255.652z"/>
	<path fill="#1F3242" d="M284.008,552.868c-0.145,0.23-0.296,0.403-0.454,0.519c-0.159,0.115-0.363,0.174-0.612,0.174
		c-0.222,0-0.459-0.07-0.714-0.209c-0.254-0.14-0.542-0.296-0.864-0.469s-0.689-0.329-1.103-0.468
		c-0.413-0.14-0.884-0.209-1.411-0.209c-0.913,0-1.593,0.194-2.039,0.583c-0.447,0.39-0.67,0.915-0.67,1.578
		c0,0.423,0.134,0.773,0.403,1.052c0.269,0.278,0.622,0.519,1.059,0.721c0.438,0.201,0.937,0.387,1.499,0.555
		c0.562,0.168,1.136,0.355,1.722,0.562c0.586,0.207,1.16,0.449,1.722,0.728s1.062,0.634,1.498,1.066
		c0.438,0.433,0.79,0.958,1.06,1.577c0.269,0.62,0.403,1.367,0.403,2.241c0,0.97-0.168,1.878-0.504,2.723
		c-0.337,0.846-0.824,1.583-1.463,2.212s-1.427,1.124-2.363,1.484s-2,0.54-3.191,0.54c-0.653,0-1.318-0.067-1.995-0.201
		c-0.678-0.135-1.333-0.324-1.967-0.569s-1.229-0.535-1.787-0.872c-0.557-0.336-1.042-0.711-1.455-1.124l1.441-2.276
		c0.115-0.163,0.266-0.3,0.453-0.41s0.392-0.166,0.612-0.166c0.288,0,0.579,0.092,0.872,0.273c0.293,0.183,0.624,0.385,0.994,0.605
		s0.795,0.423,1.275,0.605s1.047,0.273,1.7,0.273c0.884,0,1.57-0.194,2.061-0.584c0.489-0.389,0.734-1.006,0.734-1.852
		c0-0.489-0.135-0.888-0.403-1.195s-0.622-0.563-1.059-0.764c-0.438-0.202-0.935-0.38-1.492-0.533
		c-0.557-0.153-1.128-0.324-1.714-0.512s-1.158-0.418-1.715-0.691c-0.558-0.273-1.055-0.634-1.491-1.081
		c-0.438-0.446-0.79-1.003-1.06-1.671c-0.269-0.668-0.403-1.491-0.403-2.471c0-0.788,0.159-1.557,0.476-2.306
		c0.317-0.749,0.783-1.417,1.397-2.003c0.615-0.586,1.369-1.054,2.263-1.404s1.916-0.526,3.068-0.526
		c0.644,0,1.271,0.051,1.881,0.151c0.609,0.101,1.188,0.25,1.736,0.446c0.547,0.197,1.059,0.433,1.534,0.706
		c0.476,0.274,0.9,0.584,1.275,0.93L284.008,552.868z"/>
	<path fill="#1F3242" d="M305.735,552.868c-0.145,0.23-0.296,0.403-0.454,0.519c-0.159,0.115-0.363,0.174-0.612,0.174
		c-0.222,0-0.459-0.07-0.714-0.209c-0.254-0.14-0.542-0.296-0.864-0.469s-0.689-0.329-1.103-0.468
		c-0.413-0.14-0.884-0.209-1.411-0.209c-0.913,0-1.593,0.194-2.039,0.583c-0.447,0.39-0.67,0.915-0.67,1.578
		c0,0.423,0.134,0.773,0.403,1.052c0.269,0.278,0.622,0.519,1.059,0.721c0.438,0.201,0.937,0.387,1.499,0.555
		c0.562,0.168,1.136,0.355,1.722,0.562c0.586,0.207,1.16,0.449,1.722,0.728s1.062,0.634,1.498,1.066
		c0.438,0.433,0.79,0.958,1.06,1.577c0.269,0.62,0.403,1.367,0.403,2.241c0,0.97-0.168,1.878-0.504,2.723
		c-0.337,0.846-0.824,1.583-1.463,2.212s-1.427,1.124-2.363,1.484s-2,0.54-3.191,0.54c-0.653,0-1.318-0.067-1.995-0.201
		c-0.678-0.135-1.333-0.324-1.967-0.569s-1.229-0.535-1.787-0.872c-0.557-0.336-1.042-0.711-1.455-1.124l1.441-2.276
		c0.115-0.163,0.266-0.3,0.453-0.41s0.392-0.166,0.612-0.166c0.288,0,0.579,0.092,0.872,0.273c0.293,0.183,0.624,0.385,0.994,0.605
		s0.795,0.423,1.275,0.605s1.047,0.273,1.7,0.273c0.884,0,1.57-0.194,2.061-0.584c0.489-0.389,0.734-1.006,0.734-1.852
		c0-0.489-0.135-0.888-0.403-1.195s-0.622-0.563-1.059-0.764c-0.438-0.202-0.935-0.38-1.492-0.533
		c-0.557-0.153-1.128-0.324-1.714-0.512s-1.158-0.418-1.715-0.691c-0.558-0.273-1.055-0.634-1.491-1.081
		c-0.438-0.446-0.79-1.003-1.06-1.671c-0.269-0.668-0.403-1.491-0.403-2.471c0-0.788,0.159-1.557,0.476-2.306
		c0.317-0.749,0.783-1.417,1.397-2.003c0.615-0.586,1.369-1.054,2.263-1.404s1.916-0.526,3.068-0.526
		c0.644,0,1.271,0.051,1.881,0.151c0.609,0.101,1.188,0.25,1.736,0.446c0.547,0.197,1.059,0.433,1.534,0.706
		c0.476,0.274,0.9,0.584,1.275,0.93L305.735,552.868z"/>
	<path fill="#1F3242" d="M333.154,552.349v5.316h7.175v3.761h-7.175v8.17h-4.899v-20.993h13.516v3.746H333.154z"/>
	<path fill="#1F3242" d="M370.947,559.092c0,1.518-0.262,2.93-0.785,4.236s-1.261,2.442-2.212,3.407
		c-0.951,0.966-2.097,1.722-3.437,2.27s-2.826,0.821-4.459,0.821c-1.634,0-3.122-0.273-4.467-0.821s-2.495-1.304-3.451-2.27
		c-0.956-0.965-1.695-2.101-2.219-3.407s-0.785-2.719-0.785-4.236s0.262-2.93,0.785-4.236c0.523-1.306,1.263-2.439,2.219-3.4
		c0.956-0.96,2.106-1.714,3.451-2.262s2.833-0.821,4.467-0.821c1.633,0,3.119,0.276,4.459,0.828c1.34,0.553,2.485,1.31,3.437,2.27
		c0.951,0.961,1.688,2.095,2.212,3.4C370.686,556.177,370.947,557.584,370.947,559.092z M365.962,559.092
		c0-1.037-0.135-1.972-0.403-2.803c-0.27-0.83-0.655-1.534-1.16-2.11c-0.504-0.576-1.121-1.019-1.852-1.325
		c-0.729-0.308-1.561-0.462-2.492-0.462c-0.941,0-1.779,0.154-2.515,0.462c-0.734,0.307-1.354,0.749-1.858,1.325
		c-0.505,0.576-0.892,1.28-1.16,2.11c-0.269,0.831-0.403,1.766-0.403,2.803c0,1.047,0.135,1.986,0.403,2.817s0.655,1.534,1.16,2.11
		c0.504,0.576,1.124,1.016,1.858,1.318c0.735,0.303,1.573,0.454,2.515,0.454c0.932,0,1.763-0.151,2.492-0.454
		c0.73-0.303,1.348-0.742,1.852-1.318c0.505-0.576,0.891-1.279,1.16-2.11C365.827,561.079,365.962,560.139,365.962,559.092z"/>
	<path fill="#1F3242" d="M396.752,569.596h-4.408c-0.817,0-1.403-0.308-1.758-0.922l-3.487-6.095
		c-0.163-0.26-0.346-0.449-0.548-0.569c-0.201-0.12-0.489-0.181-0.864-0.181h-1.239v7.767h-4.87v-20.993h6.83
		c1.518,0,2.812,0.156,3.883,0.469c1.071,0.312,1.945,0.746,2.622,1.304c0.678,0.557,1.17,1.215,1.478,1.974
		c0.307,0.759,0.461,1.585,0.461,2.479c0,0.682-0.092,1.325-0.273,1.931c-0.183,0.605-0.452,1.165-0.808,1.679
		s-0.795,0.973-1.318,1.376s-1.126,0.734-1.808,0.994c0.316,0.163,0.614,0.367,0.893,0.612c0.279,0.245,0.528,0.535,0.75,0.872
		L396.752,569.596z M386.407,558.473c0.663,0,1.227-0.084,1.692-0.252s0.848-0.401,1.146-0.699s0.515-0.646,0.648-1.045
		c0.135-0.398,0.202-0.828,0.202-1.289c0-0.923-0.301-1.643-0.9-2.161c-0.601-0.52-1.53-0.778-2.788-0.778h-1.96v6.225H386.407z"/>
	<path fill="#1F3242" d="M412.184,565.75c0.653,0,1.236-0.108,1.751-0.324c0.514-0.217,0.948-0.526,1.304-0.93
		s0.627-0.896,0.813-1.477c0.188-0.581,0.281-1.241,0.281-1.981v-12.435h4.87v12.435c0,1.287-0.209,2.469-0.627,3.545
		c-0.418,1.075-1.016,2.002-1.794,2.78c-0.777,0.778-1.724,1.383-2.838,1.815s-2.368,0.648-3.761,0.648
		c-1.402,0-2.661-0.216-3.775-0.648s-2.061-1.037-2.838-1.815c-0.778-0.778-1.374-1.705-1.787-2.78
		c-0.413-1.076-0.619-2.258-0.619-3.545v-12.435h4.87v12.42c0,0.74,0.094,1.4,0.28,1.981c0.188,0.581,0.459,1.076,0.814,1.484
		s0.79,0.72,1.304,0.937C410.946,565.641,411.53,565.75,412.184,565.75z"/>
	<path fill="#1F3242" d="M454.343,548.603v20.993h-4.294v-12.074c0-0.278,0.007-0.581,0.021-0.908
		c0.015-0.326,0.041-0.657,0.079-0.994l-5.576,10.792c-0.173,0.337-0.405,0.591-0.698,0.764s-0.627,0.26-1.002,0.26h-0.662
		c-0.375,0-0.709-0.087-1.002-0.26s-0.525-0.427-0.698-0.764l-5.576-10.82c0.028,0.346,0.053,0.685,0.072,1.016
		c0.019,0.331,0.028,0.637,0.028,0.915v12.074h-4.294v-20.993h3.718c0.211,0,0.396,0.005,0.555,0.015s0.3,0.038,0.425,0.086
		c0.125,0.049,0.238,0.123,0.339,0.224s0.199,0.243,0.295,0.425L441.476,560c0.192,0.365,0.377,0.744,0.555,1.138
		c0.178,0.395,0.349,0.798,0.512,1.211c0.163-0.423,0.334-0.836,0.512-1.239s0.367-0.788,0.569-1.153l5.389-10.604
		c0.096-0.182,0.194-0.324,0.295-0.425s0.214-0.175,0.339-0.224c0.125-0.048,0.267-0.076,0.425-0.086s0.344-0.015,0.555-0.015
		H454.343z"/>
</g>
<g>
	<path fill="#1F3242" d="M212.781,595.733c0.616,0,1.099,0.184,1.446,0.55c0.347,0.367,0.521,0.839,0.521,1.417v3.24h-52.819v-1.967
		c0-0.424,0.105-0.858,0.318-1.302c0.211-0.443,0.492-0.819,0.839-1.128l27.943-28.29c2.314-2.353,4.455-4.629,6.422-6.827
		s3.674-4.416,5.12-6.653c1.446-2.236,2.574-4.531,3.384-6.884s1.215-4.86,1.215-7.521c0-3.008-0.501-5.62-1.504-7.839
		c-1.003-2.218-2.334-4.04-3.992-5.467c-1.659-1.427-3.587-2.488-5.785-3.183c-2.198-0.693-4.475-1.041-6.827-1.041
		c-2.584,0-4.966,0.396-7.145,1.187c-2.179,0.791-4.107,1.89-5.785,3.297c-1.678,1.408-3.066,3.086-4.166,5.033
		c-1.099,1.948-1.861,4.079-2.285,6.393c-0.27,0.85-0.627,1.409-1.07,1.678c-0.444,0.271-1.051,0.367-1.822,0.29l-2.835-0.463
		c0.501-3.51,1.465-6.634,2.893-9.372c1.426-2.738,3.24-5.053,5.438-6.942s4.744-3.327,7.637-4.311s6.017-1.475,9.372-1.475
		c3.124,0,6.104,0.453,8.938,1.359c2.835,0.906,5.342,2.276,7.521,4.107c2.179,1.832,3.905,4.127,5.178,6.885
		c1.273,2.758,1.909,5.987,1.909,9.69c0,3.086-0.473,5.949-1.417,8.591c-0.946,2.643-2.228,5.178-3.848,7.607
		c-1.62,2.43-3.5,4.793-5.641,7.087c-2.14,2.295-4.388,4.639-6.74,7.029l-25.629,26.149c1.234-0.309,2.517-0.539,3.847-0.694
		c1.331-0.153,2.67-0.231,4.021-0.231H212.781z"/>
</g>
<g>
	<path fill="#33BCAB" d="M259.793,596.372c0.494,0,0.885,0.137,1.172,0.408c0.286,0.271,0.43,0.63,0.43,1.075v2.669H246.21v-1.482
		c0-0.287,0.06-0.594,0.179-0.92c0.118-0.326,0.326-0.623,0.622-0.89l6.229-6.272c0.533-0.534,0.998-1.043,1.394-1.527
		s0.722-0.961,0.979-1.431s0.45-0.939,0.579-1.409c0.128-0.47,0.192-0.966,0.192-1.49c0-0.86-0.205-1.52-0.615-1.979
		s-1.036-0.689-1.876-0.689c-0.683,0-1.258,0.181-1.728,0.541c-0.47,0.361-0.793,0.809-0.972,1.342
		c-0.207,0.544-0.479,0.905-0.815,1.083s-0.815,0.218-1.438,0.118l-2.432-0.43c0.158-1.077,0.462-2.017,0.912-2.817
		c0.449-0.801,1.008-1.468,1.676-2.002c0.667-0.534,1.431-0.932,2.291-1.194c0.859-0.262,1.784-0.393,2.772-0.393
		c1.068,0,2.029,0.156,2.885,0.467c0.854,0.312,1.584,0.744,2.187,1.298c0.604,0.554,1.065,1.214,1.387,1.979
		c0.321,0.767,0.482,1.609,0.482,2.528c0,0.791-0.111,1.522-0.334,2.195c-0.223,0.672-0.526,1.312-0.912,1.92
		c-0.386,0.607-0.833,1.196-1.342,1.765c-0.51,0.568-1.051,1.145-1.624,1.728l-4.226,4.33c0.543-0.168,1.082-0.297,1.616-0.386
		c0.533-0.089,1.027-0.134,1.482-0.134H259.793z"/>
	<path fill="#33BCAB" d="M275.037,586.526c0.405-0.079,0.796-0.134,1.172-0.163c0.375-0.03,0.741-0.045,1.097-0.045
		c1.137,0,2.141,0.173,3.011,0.52c0.869,0.346,1.602,0.817,2.194,1.416c0.593,0.598,1.04,1.3,1.342,2.105s0.452,1.668,0.452,2.588
		c0,1.156-0.205,2.212-0.615,3.166s-0.981,1.776-1.713,2.469s-1.604,1.229-2.617,1.608c-1.014,0.381-2.123,0.571-3.329,0.571
		c-0.702,0-1.371-0.074-2.009-0.223s-1.236-0.349-1.795-0.601s-1.074-0.543-1.549-0.875c-0.475-0.331-0.905-0.685-1.29-1.06
		l1.423-1.898c0.148-0.197,0.321-0.349,0.52-0.452c0.197-0.104,0.41-0.156,0.638-0.156c0.296,0,0.575,0.082,0.838,0.245
		c0.262,0.163,0.549,0.341,0.859,0.534c0.312,0.192,0.675,0.368,1.09,0.526c0.416,0.158,0.93,0.237,1.543,0.237
		c0.612,0,1.137-0.102,1.571-0.305c0.436-0.202,0.788-0.479,1.061-0.83c0.271-0.351,0.47-0.761,0.593-1.23
		c0.124-0.47,0.186-0.972,0.186-1.506c0-1.047-0.297-1.846-0.89-2.395s-1.434-0.823-2.521-0.823c-0.97,0-1.918,0.184-2.848,0.549
		l-2.847-0.771l1.839-10.811h11.062v1.898c0,0.316-0.049,0.603-0.147,0.859c-0.1,0.258-0.255,0.482-0.468,0.675
		c-0.213,0.193-0.492,0.342-0.838,0.445s-0.761,0.155-1.245,0.155h-5.16L275.037,586.526z"/>
	<path fill="#33BCAB" d="M292.52,598.196c0-0.355,0.066-0.687,0.2-0.993c0.133-0.307,0.315-0.573,0.548-0.801
		s0.507-0.408,0.823-0.542c0.316-0.133,0.662-0.2,1.038-0.2c0.366,0,0.707,0.067,1.023,0.2c0.316,0.134,0.593,0.314,0.83,0.542
		s0.423,0.494,0.557,0.801c0.133,0.307,0.2,0.638,0.2,0.993s-0.067,0.689-0.2,1.001c-0.134,0.312-0.319,0.581-0.557,0.809
		s-0.514,0.405-0.83,0.533c-0.316,0.129-0.657,0.193-1.023,0.193c-0.376,0-0.722-0.064-1.038-0.193
		c-0.316-0.128-0.591-0.306-0.823-0.533s-0.415-0.497-0.548-0.809C292.586,598.885,292.52,598.551,292.52,598.196z"/>
	<path fill="#33BCAB" d="M321.213,589.713c0,1.889-0.203,3.524-0.608,4.909c-0.405,1.384-0.966,2.53-1.683,3.439
		c-0.717,0.91-1.567,1.587-2.551,2.032c-0.983,0.444-2.049,0.667-3.195,0.667c-1.147,0-2.207-0.223-3.181-0.667
		c-0.975-0.445-1.817-1.122-2.528-2.032c-0.712-0.909-1.269-2.056-1.669-3.439c-0.4-1.385-0.601-3.021-0.601-4.909
		c0-1.888,0.2-3.523,0.601-4.908c0.4-1.384,0.957-2.53,1.669-3.439c0.711-0.91,1.554-1.585,2.528-2.024
		c0.974-0.439,2.033-0.66,3.181-0.66c1.146,0,2.212,0.221,3.195,0.66s1.834,1.114,2.551,2.024c0.717,0.909,1.277,2.056,1.683,3.439
		C321.01,586.19,321.213,587.826,321.213,589.713z M316.468,589.713c0-1.492-0.095-2.716-0.282-3.67s-0.438-1.702-0.749-2.246
		s-0.665-0.917-1.06-1.12c-0.396-0.202-0.796-0.304-1.201-0.304c-0.406,0-0.804,0.102-1.194,0.304
		c-0.391,0.203-0.736,0.576-1.038,1.12s-0.543,1.292-0.727,2.246c-0.183,0.954-0.274,2.178-0.274,3.67
		c0,1.503,0.092,2.729,0.274,3.678c0.184,0.949,0.425,1.698,0.727,2.247s0.647,0.924,1.038,1.127
		c0.391,0.202,0.788,0.304,1.194,0.304c0.405,0,0.806-0.102,1.201-0.304c0.395-0.203,0.748-0.578,1.06-1.127
		s0.562-1.298,0.749-2.247S316.468,591.216,316.468,589.713z"/>
	<path fill="#33BCAB" d="M343.322,597.203v3.321h-12.308v-3.321h4.151v-10.899c0-0.276,0.005-0.556,0.016-0.838
		c0.01-0.281,0.024-0.565,0.044-0.853l-2.461,2.046c-0.218,0.169-0.433,0.27-0.646,0.305c-0.213,0.034-0.413,0.034-0.601,0
		c-0.188-0.035-0.355-0.099-0.504-0.193c-0.148-0.094-0.258-0.189-0.326-0.289l-1.453-1.928l6.731-5.649h3.797v18.299H343.322z"/>
	<path fill="#33BCAB" d="M351.804,598.196c0-0.355,0.066-0.687,0.2-0.993c0.133-0.307,0.315-0.573,0.548-0.801
		s0.507-0.408,0.823-0.542c0.316-0.133,0.662-0.2,1.038-0.2c0.366,0,0.707,0.067,1.023,0.2c0.316,0.134,0.593,0.314,0.83,0.542
		s0.423,0.494,0.557,0.801c0.133,0.307,0.2,0.638,0.2,0.993s-0.067,0.689-0.2,1.001c-0.134,0.312-0.319,0.581-0.557,0.809
		s-0.514,0.405-0.83,0.533c-0.316,0.129-0.657,0.193-1.023,0.193c-0.376,0-0.722-0.064-1.038-0.193
		c-0.316-0.128-0.591-0.306-0.823-0.533s-0.415-0.497-0.548-0.809C351.87,598.885,351.804,598.551,351.804,598.196z"/>
	<path fill="#33BCAB" d="M378.361,596.372c0.494,0,0.885,0.137,1.172,0.408c0.286,0.271,0.43,0.63,0.43,1.075v2.669h-15.185v-1.482
		c0-0.287,0.06-0.594,0.178-0.92c0.119-0.326,0.326-0.623,0.623-0.89l6.229-6.272c0.533-0.534,0.998-1.043,1.394-1.527
		s0.722-0.961,0.979-1.431s0.45-0.939,0.578-1.409c0.129-0.47,0.193-0.966,0.193-1.49c0-0.86-0.206-1.52-0.615-1.979
		c-0.411-0.46-1.036-0.689-1.876-0.689c-0.683,0-1.259,0.181-1.728,0.541c-0.47,0.361-0.794,0.809-0.972,1.342
		c-0.207,0.544-0.479,0.905-0.815,1.083s-0.815,0.218-1.438,0.118l-2.432-0.43c0.158-1.077,0.462-2.017,0.912-2.817
		c0.449-0.801,1.008-1.468,1.675-2.002c0.668-0.534,1.432-0.932,2.291-1.194c0.86-0.262,1.785-0.393,2.773-0.393
		c1.067,0,2.029,0.156,2.884,0.467c0.855,0.312,1.585,0.744,2.188,1.298s1.065,1.214,1.387,1.979
		c0.321,0.767,0.481,1.609,0.481,2.528c0,0.791-0.11,1.522-0.333,2.195c-0.223,0.672-0.526,1.312-0.912,1.92
		c-0.386,0.607-0.833,1.196-1.342,1.765c-0.51,0.568-1.051,1.145-1.624,1.728l-4.227,4.33c0.544-0.168,1.083-0.297,1.616-0.386
		c0.534-0.089,1.028-0.134,1.483-0.134H378.361z"/>
	<path fill="#33BCAB" d="M403.63,589.713c0,1.889-0.203,3.524-0.608,4.909c-0.405,1.384-0.966,2.53-1.683,3.439
		c-0.717,0.91-1.567,1.587-2.551,2.032c-0.983,0.444-2.049,0.667-3.195,0.667c-1.147,0-2.207-0.223-3.181-0.667
		c-0.975-0.445-1.817-1.122-2.528-2.032c-0.712-0.909-1.269-2.056-1.669-3.439c-0.4-1.385-0.601-3.021-0.601-4.909
		c0-1.888,0.2-3.523,0.601-4.908c0.4-1.384,0.957-2.53,1.669-3.439c0.711-0.91,1.554-1.585,2.528-2.024
		c0.974-0.439,2.033-0.66,3.181-0.66c1.146,0,2.212,0.221,3.195,0.66s1.834,1.114,2.551,2.024c0.717,0.909,1.277,2.056,1.683,3.439
		C403.427,586.19,403.63,587.826,403.63,589.713z M398.885,589.713c0-1.492-0.095-2.716-0.282-3.67s-0.438-1.702-0.749-2.246
		s-0.665-0.917-1.06-1.12c-0.396-0.202-0.796-0.304-1.201-0.304c-0.406,0-0.804,0.102-1.194,0.304
		c-0.391,0.203-0.736,0.576-1.038,1.12s-0.543,1.292-0.727,2.246c-0.183,0.954-0.274,2.178-0.274,3.67
		c0,1.503,0.092,2.729,0.274,3.678c0.184,0.949,0.425,1.698,0.727,2.247s0.647,0.924,1.038,1.127
		c0.391,0.202,0.788,0.304,1.194,0.304c0.405,0,0.806-0.102,1.201-0.304c0.395-0.203,0.748-0.578,1.06-1.127
		s0.562-1.298,0.749-2.247S398.885,591.216,398.885,589.713z"/>
	<path fill="#33BCAB" d="M425.738,597.203v3.321h-12.308v-3.321h4.151v-10.899c0-0.276,0.005-0.556,0.016-0.838
		c0.01-0.281,0.024-0.565,0.044-0.853l-2.461,2.046c-0.218,0.169-0.433,0.27-0.646,0.305c-0.213,0.034-0.413,0.034-0.601,0
		c-0.188-0.035-0.355-0.099-0.504-0.193c-0.148-0.094-0.258-0.189-0.326-0.289l-1.453-1.928l6.731-5.649h3.797v18.299H425.738z"/>
	<path fill="#33BCAB" d="M445.965,589.254c0.643,0.228,1.193,0.509,1.653,0.845s0.835,0.722,1.127,1.157
		c0.291,0.435,0.507,0.911,0.645,1.431c0.139,0.519,0.208,1.07,0.208,1.653c0,0.969-0.186,1.849-0.556,2.64
		c-0.371,0.791-0.896,1.466-1.572,2.024s-1.49,0.991-2.439,1.297c-0.949,0.307-1.997,0.46-3.144,0.46s-2.194-0.153-3.144-0.46
		c-0.949-0.306-1.763-0.738-2.439-1.297s-1.201-1.233-1.572-2.024c-0.37-0.791-0.556-1.671-0.556-2.64
		c0-0.583,0.069-1.135,0.208-1.653c0.138-0.52,0.353-0.996,0.645-1.431c0.292-0.436,0.667-0.821,1.127-1.157
		s1.011-0.617,1.653-0.845c-0.979-0.445-1.71-1.061-2.194-1.847s-0.727-1.732-0.727-2.84c0-0.84,0.173-1.618,0.519-2.335
		c0.347-0.717,0.831-1.337,1.453-1.861c0.623-0.523,1.362-0.937,2.218-1.238c0.854-0.301,1.791-0.452,2.81-0.452
		s1.955,0.151,2.811,0.452c0.854,0.302,1.594,0.715,2.217,1.238c0.622,0.524,1.106,1.145,1.453,1.861
		c0.346,0.717,0.519,1.495,0.519,2.335c0,1.107-0.242,2.054-0.727,2.84S446.943,588.809,445.965,589.254z M441.887,597.292
		c0.514,0,0.959-0.079,1.335-0.237c0.375-0.158,0.685-0.373,0.927-0.646c0.242-0.271,0.42-0.593,0.533-0.964
		c0.114-0.37,0.171-0.769,0.171-1.193c0-0.465-0.05-0.89-0.148-1.275s-0.262-0.714-0.489-0.986
		c-0.228-0.271-0.531-0.484-0.912-0.638c-0.381-0.152-0.853-0.229-1.416-0.229s-1.035,0.077-1.416,0.229
		c-0.381,0.153-0.685,0.366-0.912,0.638c-0.228,0.272-0.391,0.601-0.489,0.986s-0.148,0.811-0.148,1.275
		c0,0.425,0.057,0.823,0.171,1.193c0.113,0.371,0.291,0.692,0.533,0.964c0.242,0.272,0.549,0.487,0.92,0.646
		C440.915,597.212,441.362,597.292,441.887,597.292z M441.887,582.033c-0.465,0-0.855,0.074-1.172,0.223
		c-0.316,0.147-0.575,0.343-0.778,0.585c-0.202,0.243-0.349,0.521-0.438,0.838s-0.133,0.643-0.133,0.979
		c0,0.376,0.034,0.742,0.104,1.098c0.069,0.356,0.197,0.673,0.386,0.949c0.188,0.276,0.444,0.499,0.771,0.667
		c0.326,0.169,0.747,0.252,1.261,0.252s0.935-0.083,1.261-0.252c0.326-0.168,0.583-0.391,0.771-0.667
		c0.188-0.276,0.316-0.593,0.386-0.949c0.069-0.355,0.104-0.722,0.104-1.098c0-0.336-0.044-0.662-0.133-0.979
		s-0.235-0.595-0.438-0.838c-0.203-0.242-0.465-0.438-0.786-0.585C442.729,582.107,442.342,582.033,441.887,582.033z"/>
</g>
<g>
	<path fill="#1F3242" d="M165.307,619.265c0.572,0,1.069,0.066,1.491,0.198c0.422,0.133,0.772,0.321,1.049,0.564
		c0.277,0.244,0.484,0.538,0.621,0.883c0.136,0.345,0.205,0.729,0.205,1.153c0,0.42-0.073,0.805-0.22,1.153
		c-0.147,0.35-0.363,0.649-0.646,0.901c-0.284,0.253-0.634,0.449-1.053,0.59c-0.418,0.141-0.9,0.211-1.447,0.211h-1.45v3.379h-1.216
		v-9.033H165.307z M165.307,623.949c0.349,0,0.657-0.046,0.924-0.139c0.267-0.093,0.492-0.222,0.674-0.388
		c0.183-0.166,0.32-0.364,0.413-0.596c0.092-0.231,0.139-0.485,0.139-0.763c0-0.576-0.178-1.025-0.533-1.349
		c-0.355-0.324-0.894-0.485-1.617-0.485h-1.45v3.719H165.307z"/>
	<path fill="#1F3242" d="M172.449,621.812c0.466,0,0.887,0.077,1.261,0.233c0.374,0.155,0.693,0.376,0.958,0.661
		c0.265,0.286,0.468,0.632,0.608,1.037c0.141,0.406,0.211,0.858,0.211,1.358c0,0.505-0.07,0.958-0.211,1.362
		c-0.141,0.403-0.344,0.748-0.608,1.033c-0.265,0.286-0.584,0.506-0.958,0.659s-0.794,0.229-1.261,0.229
		c-0.471,0-0.894-0.076-1.27-0.229c-0.376-0.153-0.697-0.373-0.961-0.659c-0.265-0.285-0.468-0.63-0.608-1.033
		c-0.141-0.404-0.211-0.857-0.211-1.362c0-0.5,0.07-0.952,0.211-1.358c0.141-0.405,0.344-0.751,0.608-1.037
		c0.265-0.285,0.585-0.506,0.961-0.661C171.555,621.889,171.979,621.812,172.449,621.812z M172.449,627.51
		c0.63,0,1.101-0.211,1.412-0.634c0.311-0.422,0.466-1.012,0.466-1.768c0-0.761-0.155-1.354-0.466-1.778
		c-0.311-0.424-0.782-0.636-1.412-0.636c-0.319,0-0.598,0.054-0.835,0.163s-0.435,0.268-0.592,0.473
		c-0.158,0.206-0.275,0.46-0.353,0.76c-0.078,0.301-0.117,0.64-0.117,1.019c0,0.756,0.156,1.346,0.47,1.768
		C171.334,627.299,171.811,627.51,172.449,627.51z"/>
	<path fill="#1F3242" d="M176.906,628.298v-6.386h0.675c0.16,0,0.258,0.078,0.296,0.233l0.082,0.655
		c0.235-0.29,0.5-0.527,0.794-0.712c0.294-0.185,0.634-0.277,1.021-0.277c0.429,0,0.776,0.119,1.043,0.359
		c0.267,0.239,0.459,0.563,0.577,0.971c0.092-0.231,0.211-0.431,0.356-0.599s0.308-0.307,0.488-0.416s0.373-0.189,0.577-0.24
		c0.204-0.05,0.411-0.075,0.621-0.075c0.336,0,0.636,0.054,0.898,0.16c0.262,0.107,0.485,0.265,0.668,0.47
		c0.183,0.206,0.323,0.46,0.419,0.76c0.097,0.301,0.145,0.645,0.145,1.031v4.065h-1.128v-4.065c0-0.501-0.109-0.88-0.328-1.139
		c-0.218-0.258-0.534-0.388-0.945-0.388c-0.185,0-0.36,0.033-0.526,0.098c-0.166,0.065-0.312,0.161-0.438,0.287
		c-0.126,0.126-0.226,0.285-0.3,0.477c-0.073,0.19-0.11,0.412-0.11,0.665v4.065h-1.128v-4.065c0-0.513-0.103-0.896-0.309-1.147
		s-0.506-0.379-0.901-0.379c-0.277,0-0.534,0.075-0.769,0.225c-0.235,0.148-0.452,0.352-0.649,0.607v4.76H176.906z"/>
	<path fill="#1F3242" d="M189.967,621.812c0.466,0,0.887,0.077,1.261,0.233c0.374,0.155,0.693,0.376,0.958,0.661
		c0.265,0.286,0.468,0.632,0.608,1.037c0.141,0.406,0.211,0.858,0.211,1.358c0,0.505-0.07,0.958-0.211,1.362
		c-0.141,0.403-0.344,0.748-0.608,1.033c-0.265,0.286-0.584,0.506-0.958,0.659s-0.794,0.229-1.261,0.229
		c-0.471,0-0.894-0.076-1.27-0.229c-0.376-0.153-0.697-0.373-0.961-0.659c-0.265-0.285-0.468-0.63-0.608-1.033
		c-0.141-0.404-0.211-0.857-0.211-1.362c0-0.5,0.07-0.952,0.211-1.358c0.141-0.405,0.344-0.751,0.608-1.037
		c0.265-0.285,0.585-0.506,0.961-0.661C189.073,621.889,189.497,621.812,189.967,621.812z M189.967,627.51
		c0.63,0,1.101-0.211,1.412-0.634c0.311-0.422,0.466-1.012,0.466-1.768c0-0.761-0.155-1.354-0.466-1.778
		c-0.311-0.424-0.782-0.636-1.412-0.636c-0.319,0-0.598,0.054-0.835,0.163s-0.435,0.268-0.592,0.473
		c-0.158,0.206-0.275,0.46-0.353,0.76c-0.078,0.301-0.117,0.64-0.117,1.019c0,0.756,0.156,1.346,0.47,1.768
		C188.853,627.299,189.329,627.51,189.967,627.51z"/>
	<path fill="#1F3242" d="M195.489,623.192c0.202-0.437,0.45-0.778,0.744-1.023c0.294-0.246,0.654-0.369,1.078-0.369
		c0.134,0,0.264,0.015,0.388,0.044s0.234,0.076,0.331,0.139l-0.082,0.839c-0.025,0.104-0.088,0.157-0.189,0.157
		c-0.059,0-0.145-0.013-0.259-0.038c-0.113-0.025-0.242-0.037-0.384-0.037c-0.202,0-0.381,0.029-0.539,0.088
		s-0.298,0.146-0.422,0.262c-0.124,0.115-0.235,0.258-0.334,0.429c-0.099,0.17-0.188,0.364-0.268,0.583v4.034h-1.128v-6.386h0.643
		c0.122,0,0.206,0.023,0.252,0.069c0.046,0.047,0.078,0.126,0.094,0.239L195.489,623.192z"/>
	<path fill="#1F3242" d="M202.732,622.965c-0.05,0.093-0.128,0.139-0.233,0.139c-0.063,0-0.135-0.023-0.214-0.069
		c-0.08-0.046-0.178-0.098-0.293-0.154s-0.253-0.109-0.413-0.157c-0.16-0.049-0.349-0.073-0.567-0.073
		c-0.189,0-0.359,0.024-0.511,0.073c-0.151,0.048-0.28,0.114-0.388,0.198c-0.107,0.084-0.189,0.182-0.246,0.293
		c-0.057,0.111-0.085,0.232-0.085,0.362c0,0.164,0.047,0.301,0.142,0.41c0.094,0.109,0.219,0.204,0.375,0.283
		c0.155,0.08,0.332,0.15,0.529,0.212c0.198,0.061,0.4,0.126,0.608,0.195s0.411,0.146,0.608,0.229
		c0.197,0.084,0.374,0.189,0.529,0.315c0.156,0.126,0.281,0.28,0.375,0.463c0.094,0.184,0.142,0.403,0.142,0.659
		c0,0.294-0.053,0.566-0.158,0.816s-0.26,0.467-0.466,0.649s-0.458,0.326-0.756,0.432c-0.298,0.104-0.643,0.157-1.034,0.157
		c-0.446,0-0.849-0.072-1.21-0.217c-0.361-0.146-0.668-0.331-0.92-0.559l0.265-0.429c0.034-0.054,0.074-0.097,0.12-0.126
		c0.046-0.029,0.105-0.044,0.177-0.044c0.076,0,0.155,0.029,0.24,0.088c0.084,0.06,0.186,0.124,0.306,0.196
		c0.12,0.071,0.266,0.136,0.438,0.195c0.172,0.059,0.387,0.088,0.643,0.088c0.218,0,0.41-0.028,0.574-0.085
		c0.164-0.057,0.3-0.134,0.41-0.23c0.109-0.097,0.19-0.208,0.243-0.334c0.052-0.126,0.079-0.261,0.079-0.403
		c0-0.177-0.047-0.322-0.142-0.438c-0.095-0.115-0.22-0.214-0.375-0.296c-0.155-0.082-0.333-0.153-0.532-0.214
		c-0.2-0.062-0.404-0.125-0.612-0.192s-0.412-0.145-0.611-0.23s-0.377-0.194-0.533-0.324c-0.155-0.131-0.28-0.291-0.375-0.482
		s-0.142-0.424-0.142-0.696c0-0.244,0.05-0.479,0.151-0.703c0.101-0.225,0.248-0.423,0.441-0.593s0.431-0.306,0.712-0.406
		c0.281-0.102,0.603-0.151,0.964-0.151c0.42,0,0.797,0.066,1.131,0.198c0.334,0.133,0.623,0.314,0.867,0.546L202.732,622.965z"/>
	<path fill="#1F3242" d="M205.6,619.013v5.465h0.29c0.084,0,0.154-0.012,0.211-0.034c0.057-0.023,0.116-0.07,0.179-0.142
		l2.018-2.163c0.059-0.071,0.121-0.127,0.186-0.167c0.065-0.039,0.152-0.06,0.261-0.06h1.015l-2.352,2.503
		c-0.113,0.143-0.235,0.254-0.365,0.334c0.075,0.05,0.144,0.108,0.205,0.173c0.061,0.065,0.119,0.14,0.173,0.225l2.497,3.151h-1.002
		c-0.097,0-0.18-0.016-0.249-0.047c-0.069-0.032-0.129-0.09-0.18-0.174l-2.099-2.616c-0.063-0.088-0.125-0.146-0.186-0.173
		s-0.154-0.041-0.28-0.041H205.6v3.051h-1.128v-9.285H205.6z"/>
	<path fill="#1F3242" d="M212.301,619.908c0,0.109-0.022,0.212-0.066,0.306c-0.044,0.095-0.103,0.179-0.176,0.253
		c-0.074,0.073-0.16,0.131-0.258,0.173c-0.099,0.042-0.203,0.063-0.312,0.063c-0.109,0-0.211-0.021-0.306-0.063
		c-0.094-0.042-0.177-0.1-0.249-0.173c-0.071-0.074-0.128-0.158-0.17-0.253c-0.042-0.094-0.063-0.196-0.063-0.306
		c0-0.108,0.021-0.213,0.063-0.312s0.099-0.185,0.17-0.259c0.072-0.073,0.155-0.131,0.249-0.173
		c0.095-0.042,0.197-0.063,0.306-0.063c0.109,0,0.213,0.021,0.312,0.063c0.099,0.042,0.185,0.1,0.258,0.173
		c0.073,0.074,0.132,0.16,0.176,0.259C212.279,619.695,212.301,619.799,212.301,619.908z M212.061,621.913v6.386h-1.122v-6.386
		H212.061z"/>
	<path fill="#1F3242" d="M220.06,619.265c0.572,0,1.069,0.066,1.491,0.198c0.422,0.133,0.772,0.321,1.049,0.564
		c0.277,0.244,0.484,0.538,0.621,0.883c0.136,0.345,0.205,0.729,0.205,1.153c0,0.42-0.073,0.805-0.22,1.153
		c-0.147,0.35-0.363,0.649-0.646,0.901c-0.284,0.253-0.634,0.449-1.053,0.59c-0.418,0.141-0.9,0.211-1.447,0.211h-1.45v3.379h-1.216
		v-9.033H220.06z M220.06,623.949c0.349,0,0.657-0.046,0.924-0.139c0.267-0.093,0.492-0.222,0.674-0.388
		c0.183-0.166,0.32-0.364,0.413-0.596c0.092-0.231,0.139-0.485,0.139-0.763c0-0.576-0.178-1.025-0.533-1.349
		c-0.355-0.324-0.894-0.485-1.617-0.485h-1.45v3.719H220.06z"/>
	<path fill="#1F3242" d="M224.233,622.814c0.353-0.34,0.733-0.595,1.141-0.763s0.859-0.252,1.355-0.252
		c0.357,0,0.674,0.059,0.952,0.177c0.277,0.117,0.511,0.281,0.7,0.491c0.189,0.21,0.332,0.465,0.429,0.763
		c0.097,0.299,0.145,0.626,0.145,0.983v4.085h-0.498c-0.109,0-0.193-0.018-0.252-0.054c-0.059-0.035-0.105-0.105-0.139-0.211
		l-0.126-0.605c-0.168,0.155-0.332,0.293-0.492,0.413s-0.328,0.221-0.504,0.303c-0.177,0.082-0.365,0.145-0.564,0.189
		c-0.199,0.044-0.421,0.065-0.665,0.065c-0.248,0-0.481-0.034-0.7-0.104c-0.218-0.069-0.409-0.174-0.57-0.313
		s-0.29-0.313-0.384-0.526c-0.095-0.212-0.142-0.463-0.142-0.753c0-0.252,0.069-0.495,0.208-0.729
		c0.139-0.232,0.364-0.439,0.675-0.62c0.311-0.181,0.716-0.329,1.216-0.445c0.5-0.115,1.114-0.182,1.841-0.198v-0.498
		c0-0.496-0.107-0.871-0.322-1.125c-0.214-0.254-0.527-0.382-0.939-0.382c-0.277,0-0.51,0.035-0.697,0.104s-0.349,0.147-0.485,0.233
		s-0.254,0.164-0.353,0.233s-0.196,0.104-0.293,0.104c-0.076,0-0.141-0.02-0.195-0.06s-0.101-0.09-0.139-0.148L224.233,622.814z
		 M227.858,625.424c-0.517,0.017-0.957,0.058-1.321,0.122c-0.363,0.065-0.66,0.15-0.889,0.256c-0.229,0.104-0.395,0.229-0.498,0.372
		c-0.103,0.143-0.154,0.303-0.154,0.479c0,0.168,0.027,0.313,0.082,0.436c0.054,0.122,0.129,0.222,0.224,0.299
		c0.095,0.078,0.206,0.135,0.334,0.171c0.128,0.035,0.266,0.053,0.413,0.053c0.197,0,0.378-0.02,0.542-0.06s0.318-0.098,0.463-0.173
		c0.145-0.076,0.284-0.166,0.416-0.271s0.262-0.225,0.388-0.359V625.424z"/>
	<path fill="#1F3242" d="M231.729,623.192c0.202-0.437,0.45-0.778,0.744-1.023c0.294-0.246,0.654-0.369,1.078-0.369
		c0.134,0,0.264,0.015,0.388,0.044s0.234,0.076,0.331,0.139l-0.082,0.839c-0.025,0.104-0.088,0.157-0.189,0.157
		c-0.059,0-0.145-0.013-0.259-0.038c-0.113-0.025-0.242-0.037-0.384-0.037c-0.202,0-0.381,0.029-0.539,0.088
		s-0.298,0.146-0.422,0.262c-0.124,0.115-0.235,0.258-0.334,0.429c-0.099,0.17-0.188,0.364-0.268,0.583v4.034h-1.128v-6.386h0.643
		c0.122,0,0.206,0.023,0.252,0.069c0.046,0.047,0.078,0.126,0.094,0.239L231.729,623.192z"/>
	<path fill="#1F3242" d="M236.38,619.013v5.465h0.29c0.084,0,0.154-0.012,0.211-0.034c0.057-0.023,0.116-0.07,0.179-0.142
		l2.018-2.163c0.059-0.071,0.12-0.127,0.186-0.167c0.065-0.039,0.152-0.06,0.262-0.06h1.015l-2.352,2.503
		c-0.113,0.143-0.235,0.254-0.365,0.334c0.075,0.05,0.144,0.108,0.205,0.173c0.061,0.065,0.119,0.14,0.173,0.225l2.497,3.151h-1.003
		c-0.097,0-0.18-0.016-0.249-0.047c-0.069-0.032-0.129-0.09-0.18-0.174l-2.099-2.616c-0.063-0.088-0.125-0.146-0.186-0.173
		s-0.154-0.041-0.28-0.041h-0.322v3.051h-1.128v-9.285H236.38z"/>
	<path fill="#1F3242" d="M252.468,619.265v9.033h-0.611c-0.097,0-0.178-0.017-0.243-0.051c-0.065-0.033-0.129-0.09-0.192-0.17
		l-5.226-6.808c0.009,0.104,0.015,0.208,0.019,0.309c0.005,0.101,0.007,0.195,0.007,0.283v6.437h-1.071v-9.033h0.63
		c0.055,0,0.101,0.003,0.139,0.01c0.038,0.006,0.071,0.017,0.101,0.031s0.06,0.036,0.089,0.063s0.061,0.062,0.094,0.104l5.227,6.802
		c-0.009-0.109-0.016-0.216-0.022-0.318c-0.006-0.103-0.01-0.2-0.01-0.293v-6.398H252.468z"/>
	<path fill="#1F3242" d="M254.347,622.814c0.353-0.34,0.732-0.595,1.141-0.763c0.407-0.168,0.859-0.252,1.355-0.252
		c0.356,0,0.674,0.059,0.951,0.177c0.277,0.117,0.511,0.281,0.7,0.491s0.332,0.465,0.429,0.763c0.097,0.299,0.145,0.626,0.145,0.983
		v4.085h-0.498c-0.109,0-0.193-0.018-0.252-0.054c-0.059-0.035-0.104-0.105-0.139-0.211l-0.126-0.605
		c-0.168,0.155-0.332,0.293-0.491,0.413c-0.16,0.12-0.328,0.221-0.505,0.303s-0.364,0.145-0.564,0.189
		c-0.199,0.044-0.421,0.065-0.665,0.065c-0.247,0-0.48-0.034-0.699-0.104s-0.409-0.174-0.57-0.313
		c-0.162-0.139-0.29-0.313-0.385-0.526c-0.095-0.212-0.142-0.463-0.142-0.753c0-0.252,0.069-0.495,0.208-0.729
		c0.139-0.232,0.363-0.439,0.675-0.62c0.311-0.181,0.716-0.329,1.216-0.445c0.5-0.115,1.114-0.182,1.841-0.198v-0.498
		c0-0.496-0.107-0.871-0.321-1.125s-0.527-0.382-0.939-0.382c-0.277,0-0.51,0.035-0.696,0.104c-0.188,0.069-0.349,0.147-0.485,0.233
		s-0.255,0.164-0.354,0.233s-0.196,0.104-0.293,0.104c-0.075,0-0.141-0.02-0.195-0.06s-0.101-0.09-0.139-0.148L254.347,622.814z
		 M257.971,625.424c-0.517,0.017-0.957,0.058-1.32,0.122c-0.363,0.065-0.66,0.15-0.889,0.256c-0.229,0.104-0.396,0.229-0.498,0.372
		c-0.104,0.143-0.154,0.303-0.154,0.479c0,0.168,0.027,0.313,0.082,0.436c0.054,0.122,0.129,0.222,0.224,0.299
		c0.095,0.078,0.205,0.135,0.334,0.171c0.128,0.035,0.266,0.053,0.413,0.053c0.197,0,0.378-0.02,0.542-0.06s0.318-0.098,0.463-0.173
		c0.146-0.076,0.284-0.166,0.416-0.271c0.133-0.105,0.262-0.225,0.388-0.359V625.424z"/>
	<path fill="#1F3242" d="M266.026,621.913v6.386h-0.668c-0.16,0-0.261-0.078-0.303-0.233l-0.088-0.687
		c-0.277,0.307-0.589,0.554-0.933,0.74c-0.345,0.187-0.74,0.28-1.186,0.28c-0.349,0-0.656-0.058-0.924-0.173
		c-0.267-0.116-0.49-0.278-0.671-0.488c-0.181-0.211-0.316-0.465-0.406-0.764c-0.091-0.298-0.136-0.628-0.136-0.989v-4.072h1.122
		v4.072c0,0.483,0.11,0.857,0.331,1.122s0.558,0.397,1.012,0.397c0.332,0,0.642-0.079,0.93-0.236
		c0.288-0.158,0.554-0.375,0.797-0.652v-4.703H266.026z"/>
	<path fill="#1F3242" d="M268.933,619.013v5.465h0.29c0.084,0,0.154-0.012,0.211-0.034c0.057-0.023,0.116-0.07,0.18-0.142
		l2.017-2.163c0.06-0.071,0.121-0.127,0.187-0.167c0.064-0.039,0.152-0.06,0.262-0.06h1.015l-2.352,2.503
		c-0.113,0.143-0.235,0.254-0.365,0.334c0.075,0.05,0.144,0.108,0.205,0.173c0.061,0.065,0.118,0.14,0.173,0.225l2.496,3.151h-1.002
		c-0.097,0-0.18-0.016-0.249-0.047c-0.069-0.032-0.129-0.09-0.18-0.174l-2.1-2.616c-0.063-0.088-0.125-0.146-0.186-0.173
		s-0.154-0.041-0.28-0.041h-0.321v3.051h-1.129v-9.285H268.933z"/>
	<path fill="#1F3242" d="M276.534,621.812c0.467,0,0.887,0.077,1.261,0.233c0.374,0.155,0.693,0.376,0.959,0.661
		c0.265,0.286,0.467,0.632,0.607,1.037c0.142,0.406,0.212,0.858,0.212,1.358c0,0.505-0.07,0.958-0.212,1.362
		c-0.141,0.403-0.343,0.748-0.607,1.033c-0.266,0.286-0.585,0.506-0.959,0.659s-0.794,0.229-1.261,0.229
		c-0.471,0-0.894-0.076-1.27-0.229s-0.697-0.373-0.962-0.659c-0.265-0.285-0.467-0.63-0.608-1.033
		c-0.141-0.404-0.211-0.857-0.211-1.362c0-0.5,0.07-0.952,0.211-1.358c0.142-0.405,0.344-0.751,0.608-1.037
		c0.265-0.285,0.586-0.506,0.962-0.661C275.641,621.889,276.063,621.812,276.534,621.812z M276.534,627.51
		c0.631,0,1.102-0.211,1.412-0.634c0.312-0.422,0.467-1.012,0.467-1.768c0-0.761-0.155-1.354-0.467-1.778
		c-0.311-0.424-0.781-0.636-1.412-0.636c-0.319,0-0.598,0.054-0.835,0.163s-0.435,0.268-0.593,0.473
		c-0.157,0.206-0.275,0.46-0.353,0.76c-0.078,0.301-0.117,0.64-0.117,1.019c0,0.756,0.157,1.346,0.47,1.768
		C275.42,627.299,275.896,627.51,276.534,627.51z"/>
	<path fill="#1F3242" d="M289.798,621.913l-2.067,6.386h-0.89c-0.109,0-0.185-0.071-0.227-0.214l-1.412-4.331
		c-0.033-0.097-0.061-0.194-0.082-0.293c-0.021-0.099-0.042-0.196-0.063-0.293c-0.021,0.097-0.042,0.194-0.063,0.293
		s-0.048,0.198-0.082,0.299l-1.438,4.325c-0.037,0.143-0.121,0.214-0.252,0.214h-0.845l-2.067-6.386h0.883
		c0.088,0,0.162,0.023,0.224,0.069c0.061,0.047,0.102,0.101,0.123,0.164l1.223,4.11c0.071,0.302,0.128,0.588,0.17,0.856
		c0.038-0.139,0.077-0.279,0.117-0.422s0.083-0.288,0.129-0.435l1.349-4.136c0.021-0.063,0.059-0.115,0.11-0.157
		c0.053-0.042,0.117-0.063,0.192-0.063h0.492c0.084,0,0.153,0.021,0.208,0.063s0.092,0.095,0.113,0.157l1.317,4.136
		c0.046,0.146,0.088,0.292,0.126,0.435s0.073,0.283,0.107,0.422c0.021-0.139,0.047-0.278,0.079-0.419
		c0.031-0.141,0.065-0.286,0.104-0.438l1.248-4.11c0.021-0.067,0.061-0.123,0.12-0.167c0.059-0.044,0.128-0.066,0.208-0.066H289.798
		z"/>
	<path fill="#1F3242" d="M293.585,621.812c0.467,0,0.887,0.077,1.261,0.233c0.374,0.155,0.693,0.376,0.959,0.661
		c0.265,0.286,0.467,0.632,0.607,1.037c0.142,0.406,0.212,0.858,0.212,1.358c0,0.505-0.07,0.958-0.212,1.362
		c-0.141,0.403-0.343,0.748-0.607,1.033c-0.266,0.286-0.585,0.506-0.959,0.659s-0.794,0.229-1.261,0.229
		c-0.471,0-0.894-0.076-1.27-0.229s-0.697-0.373-0.962-0.659c-0.265-0.285-0.467-0.63-0.608-1.033
		c-0.141-0.404-0.211-0.857-0.211-1.362c0-0.5,0.07-0.952,0.211-1.358c0.142-0.405,0.344-0.751,0.608-1.037
		c0.265-0.285,0.586-0.506,0.962-0.661C292.691,621.889,293.114,621.812,293.585,621.812z M293.585,627.51
		c0.631,0,1.102-0.211,1.412-0.634c0.312-0.422,0.467-1.012,0.467-1.768c0-0.761-0.155-1.354-0.467-1.778
		c-0.311-0.424-0.781-0.636-1.412-0.636c-0.319,0-0.598,0.054-0.835,0.163s-0.435,0.268-0.593,0.473
		c-0.157,0.206-0.275,0.46-0.353,0.76c-0.078,0.301-0.117,0.64-0.117,1.019c0,0.756,0.157,1.346,0.47,1.768
		C292.471,627.299,292.946,627.51,293.585,627.51z"/>
	<path fill="#1F3242" d="M297.941,624.043h3.114v0.952h-3.114V624.043z"/>
	<path fill="#1F3242" d="M307.977,620.292h-2.925v8.006h-1.217v-8.006h-2.931v-1.027h7.072V620.292z"/>
	<path fill="#1F3242" d="M312.906,627.403c-0.139,0.169-0.305,0.314-0.498,0.438s-0.4,0.226-0.621,0.306s-0.448,0.14-0.684,0.18
		s-0.469,0.06-0.699,0.06c-0.441,0-0.849-0.074-1.221-0.224c-0.371-0.148-0.693-0.367-0.964-0.655
		c-0.271-0.288-0.482-0.645-0.634-1.068c-0.151-0.425-0.227-0.912-0.227-1.463c0-0.445,0.068-0.861,0.205-1.248
		c0.136-0.387,0.333-0.722,0.589-1.005c0.257-0.284,0.569-0.507,0.939-0.669c0.37-0.161,0.786-0.242,1.248-0.242
		c0.383,0,0.736,0.063,1.063,0.192c0.325,0.128,0.606,0.313,0.845,0.555c0.237,0.241,0.423,0.54,0.558,0.895
		c0.135,0.355,0.201,0.76,0.201,1.214c0,0.177-0.019,0.294-0.057,0.353c-0.037,0.06-0.109,0.089-0.214,0.089h-4.268
		c0.013,0.403,0.068,0.754,0.167,1.053c0.099,0.298,0.236,0.547,0.413,0.747c0.176,0.199,0.387,0.349,0.63,0.447
		c0.244,0.099,0.518,0.148,0.819,0.148c0.282,0,0.524-0.033,0.729-0.098c0.204-0.065,0.379-0.136,0.526-0.212
		c0.146-0.075,0.27-0.146,0.369-0.211c0.099-0.065,0.184-0.098,0.255-0.098c0.093,0,0.164,0.036,0.214,0.107L312.906,627.403z
		 M311.999,624.409c0-0.26-0.037-0.499-0.11-0.715c-0.074-0.217-0.181-0.403-0.322-0.562c-0.141-0.157-0.312-0.279-0.514-0.365
		c-0.201-0.086-0.431-0.13-0.687-0.13c-0.538,0-0.964,0.157-1.276,0.47c-0.313,0.313-0.508,0.747-0.583,1.302H311.999z"/>
	<path fill="#1F3242" d="M318.825,623.047c-0.034,0.046-0.067,0.082-0.101,0.107c-0.034,0.025-0.08,0.037-0.139,0.037
		c-0.063,0-0.133-0.025-0.208-0.078c-0.076-0.053-0.17-0.11-0.281-0.174c-0.111-0.063-0.248-0.12-0.409-0.173
		c-0.162-0.053-0.36-0.079-0.596-0.079c-0.315,0-0.593,0.056-0.832,0.167c-0.24,0.111-0.44,0.272-0.603,0.482
		c-0.161,0.21-0.283,0.464-0.365,0.763s-0.123,0.633-0.123,1.002c0,0.387,0.044,0.73,0.133,1.031c0.088,0.3,0.213,0.553,0.375,0.756
		c0.161,0.204,0.356,0.359,0.586,0.467c0.229,0.107,0.486,0.161,0.772,0.161c0.272,0,0.498-0.033,0.674-0.098
		c0.177-0.065,0.323-0.138,0.438-0.218s0.212-0.152,0.29-0.218s0.154-0.098,0.23-0.098c0.092,0,0.163,0.036,0.214,0.107l0.315,0.409
		c-0.139,0.173-0.297,0.319-0.473,0.441c-0.177,0.122-0.367,0.224-0.571,0.306c-0.203,0.082-0.417,0.143-0.64,0.18
		c-0.223,0.038-0.449,0.057-0.681,0.057c-0.399,0-0.77-0.073-1.112-0.221c-0.343-0.146-0.64-0.359-0.893-0.64
		c-0.252-0.279-0.449-0.623-0.592-1.03c-0.144-0.407-0.215-0.872-0.215-1.394c0-0.475,0.066-0.914,0.199-1.317
		c0.132-0.403,0.325-0.751,0.579-1.043c0.255-0.292,0.567-0.521,0.939-0.684c0.372-0.164,0.8-0.246,1.283-0.246
		c0.449,0,0.846,0.072,1.188,0.218c0.342,0.145,0.646,0.35,0.91,0.614L318.825,623.047z"/>
	<path fill="#1F3242" d="M321.53,622.764c0.272-0.29,0.575-0.521,0.907-0.694c0.332-0.172,0.715-0.258,1.147-0.258
		c0.349,0,0.656,0.058,0.924,0.173c0.267,0.116,0.489,0.28,0.668,0.492s0.313,0.468,0.406,0.766c0.093,0.299,0.139,0.628,0.139,0.99
		v4.065h-1.128v-4.065c0-0.483-0.11-0.858-0.331-1.126c-0.221-0.267-0.556-0.4-1.006-0.4c-0.332,0-0.642,0.08-0.93,0.24
		c-0.288,0.159-0.554,0.376-0.797,0.649v4.702h-1.129v-9.285h1.129V622.764z"/>
	<path fill="#1F3242" d="M328.496,622.839c0.139-0.155,0.285-0.296,0.44-0.423c0.156-0.126,0.321-0.233,0.495-0.324
		c0.175-0.09,0.359-0.159,0.555-0.208c0.195-0.048,0.407-0.072,0.634-0.072c0.349,0,0.656,0.058,0.924,0.173
		c0.267,0.116,0.489,0.28,0.668,0.492s0.313,0.468,0.406,0.766c0.093,0.299,0.139,0.628,0.139,0.99v4.065h-1.128v-4.065
		c0-0.483-0.11-0.858-0.331-1.126c-0.221-0.267-0.556-0.4-1.006-0.4c-0.332,0-0.642,0.08-0.93,0.24
		c-0.288,0.159-0.554,0.376-0.797,0.649v4.702h-1.129v-6.386h0.675c0.159,0,0.258,0.078,0.296,0.233L328.496,622.839z"/>
	<path fill="#1F3242" d="M337.162,621.812c0.467,0,0.887,0.077,1.261,0.233c0.374,0.155,0.693,0.376,0.959,0.661
		c0.265,0.286,0.467,0.632,0.607,1.037c0.142,0.406,0.212,0.858,0.212,1.358c0,0.505-0.07,0.958-0.212,1.362
		c-0.141,0.403-0.343,0.748-0.607,1.033c-0.266,0.286-0.585,0.506-0.959,0.659s-0.794,0.229-1.261,0.229
		c-0.471,0-0.894-0.076-1.27-0.229s-0.697-0.373-0.962-0.659c-0.265-0.285-0.467-0.63-0.608-1.033
		c-0.141-0.404-0.211-0.857-0.211-1.362c0-0.5,0.07-0.952,0.211-1.358c0.142-0.405,0.344-0.751,0.608-1.037
		c0.265-0.285,0.586-0.506,0.962-0.661C336.269,621.889,336.691,621.812,337.162,621.812z M337.162,627.51
		c0.631,0,1.102-0.211,1.412-0.634c0.312-0.422,0.467-1.012,0.467-1.768c0-0.761-0.155-1.354-0.467-1.778
		c-0.311-0.424-0.781-0.636-1.412-0.636c-0.319,0-0.598,0.054-0.835,0.163s-0.435,0.268-0.593,0.473
		c-0.157,0.206-0.275,0.46-0.353,0.76c-0.078,0.301-0.117,0.64-0.117,1.019c0,0.756,0.157,1.346,0.47,1.768
		C336.048,627.299,336.523,627.51,337.162,627.51z"/>
	<path fill="#1F3242" d="M342.779,619.013v9.285h-1.122v-9.285H342.779z"/>
	<path fill="#1F3242" d="M347.286,621.812c0.467,0,0.887,0.077,1.261,0.233c0.374,0.155,0.693,0.376,0.959,0.661
		c0.265,0.286,0.467,0.632,0.607,1.037c0.142,0.406,0.212,0.858,0.212,1.358c0,0.505-0.07,0.958-0.212,1.362
		c-0.141,0.403-0.343,0.748-0.607,1.033c-0.266,0.286-0.585,0.506-0.959,0.659s-0.794,0.229-1.261,0.229
		c-0.471,0-0.894-0.076-1.27-0.229s-0.697-0.373-0.962-0.659c-0.265-0.285-0.467-0.63-0.608-1.033
		c-0.141-0.404-0.211-0.857-0.211-1.362c0-0.5,0.07-0.952,0.211-1.358c0.142-0.405,0.344-0.751,0.608-1.037
		c0.265-0.285,0.586-0.506,0.962-0.661C346.393,621.889,346.815,621.812,347.286,621.812z M347.286,627.51
		c0.631,0,1.102-0.211,1.412-0.634c0.312-0.422,0.467-1.012,0.467-1.768c0-0.761-0.155-1.354-0.467-1.778
		c-0.311-0.424-0.781-0.636-1.412-0.636c-0.319,0-0.598,0.054-0.835,0.163s-0.435,0.268-0.593,0.473
		c-0.157,0.206-0.275,0.46-0.353,0.76c-0.078,0.301-0.117,0.64-0.117,1.019c0,0.756,0.157,1.346,0.47,1.768
		C346.172,627.299,346.647,627.51,347.286,627.51z"/>
	<path fill="#1F3242" d="M357.132,622.165v0.416c0,0.139-0.088,0.228-0.265,0.265l-0.725,0.095c0.143,0.277,0.214,0.584,0.214,0.921
		c0,0.311-0.06,0.594-0.18,0.848c-0.119,0.254-0.284,0.472-0.494,0.652c-0.211,0.181-0.463,0.319-0.757,0.416
		s-0.613,0.145-0.958,0.145c-0.299,0-0.58-0.035-0.845-0.106c-0.135,0.084-0.237,0.173-0.309,0.268
		c-0.072,0.095-0.107,0.19-0.107,0.287c0,0.151,0.062,0.266,0.186,0.344c0.124,0.077,0.287,0.133,0.488,0.167
		c0.202,0.033,0.433,0.055,0.69,0.063c0.259,0.009,0.523,0.022,0.795,0.041c0.271,0.02,0.535,0.052,0.794,0.098
		c0.259,0.047,0.488,0.122,0.69,0.228c0.201,0.104,0.364,0.25,0.488,0.435s0.186,0.425,0.186,0.719c0,0.273-0.068,0.538-0.204,0.794
		c-0.137,0.257-0.333,0.484-0.59,0.685c-0.256,0.199-0.57,0.358-0.942,0.479s-0.791,0.18-1.258,0.18
		c-0.466,0-0.874-0.046-1.223-0.139s-0.639-0.217-0.87-0.372c-0.23-0.155-0.404-0.335-0.52-0.539
		c-0.116-0.203-0.174-0.417-0.174-0.64c0-0.315,0.099-0.582,0.297-0.801c0.197-0.218,0.468-0.393,0.813-0.522
		c-0.188-0.084-0.339-0.197-0.45-0.338s-0.167-0.331-0.167-0.57c0-0.093,0.017-0.188,0.05-0.287
		c0.034-0.099,0.085-0.197,0.154-0.296s0.155-0.192,0.256-0.28c0.101-0.089,0.219-0.166,0.353-0.233
		c-0.314-0.177-0.561-0.411-0.737-0.703s-0.265-0.631-0.265-1.018c0-0.312,0.06-0.594,0.18-0.849c0.12-0.254,0.287-0.47,0.501-0.648
		c0.215-0.179,0.47-0.316,0.766-0.413c0.297-0.097,0.621-0.146,0.975-0.146c0.277,0,0.535,0.031,0.775,0.092
		c0.239,0.061,0.458,0.15,0.655,0.268H357.132z M355.991,628.645c0-0.155-0.044-0.281-0.133-0.378
		c-0.088-0.097-0.207-0.173-0.355-0.228c-0.149-0.055-0.323-0.093-0.521-0.116s-0.406-0.041-0.627-0.054s-0.444-0.025-0.672-0.038
		c-0.227-0.013-0.445-0.033-0.655-0.063c-0.235,0.109-0.428,0.247-0.577,0.413c-0.148,0.166-0.224,0.36-0.224,0.583
		c0,0.143,0.037,0.276,0.11,0.4c0.073,0.123,0.187,0.23,0.337,0.321c0.151,0.09,0.342,0.161,0.571,0.214
		c0.229,0.053,0.499,0.079,0.81,0.079c0.303,0,0.574-0.027,0.813-0.082s0.442-0.133,0.608-0.233s0.293-0.221,0.381-0.359
		C355.947,628.966,355.991,628.813,355.991,628.645z M353.968,625.178c0.227,0,0.426-0.031,0.599-0.095
		c0.172-0.063,0.317-0.151,0.435-0.265c0.118-0.113,0.206-0.249,0.265-0.406c0.06-0.158,0.089-0.331,0.089-0.521
		c0-0.391-0.119-0.702-0.356-0.933c-0.237-0.231-0.581-0.347-1.03-0.347c-0.454,0-0.8,0.115-1.037,0.347
		c-0.237,0.23-0.356,0.542-0.356,0.933c0,0.189,0.03,0.362,0.092,0.521c0.061,0.157,0.15,0.293,0.268,0.406
		c0.118,0.113,0.263,0.201,0.436,0.265C353.541,625.147,353.74,625.178,353.968,625.178z"/>
	<path fill="#1F3242" d="M359.723,619.908c0,0.109-0.022,0.212-0.066,0.306c-0.044,0.095-0.103,0.179-0.177,0.253
		c-0.073,0.073-0.159,0.131-0.258,0.173s-0.203,0.063-0.313,0.063s-0.211-0.021-0.306-0.063s-0.178-0.1-0.249-0.173
		c-0.071-0.074-0.128-0.158-0.17-0.253c-0.042-0.094-0.063-0.196-0.063-0.306c0-0.108,0.021-0.213,0.063-0.312
		s0.099-0.185,0.17-0.259c0.071-0.073,0.154-0.131,0.249-0.173s0.196-0.063,0.306-0.063s0.214,0.021,0.313,0.063
		s0.185,0.1,0.258,0.173c0.074,0.074,0.133,0.16,0.177,0.259S359.723,619.799,359.723,619.908z M359.483,621.913v6.386h-1.122
		v-6.386H359.483z"/>
	<path fill="#1F3242" d="M365.769,623.047c-0.034,0.046-0.067,0.082-0.101,0.107c-0.034,0.025-0.08,0.037-0.139,0.037
		c-0.063,0-0.133-0.025-0.208-0.078c-0.076-0.053-0.17-0.11-0.281-0.174c-0.111-0.063-0.248-0.12-0.409-0.173
		c-0.162-0.053-0.36-0.079-0.596-0.079c-0.315,0-0.593,0.056-0.832,0.167c-0.24,0.111-0.44,0.272-0.603,0.482
		c-0.161,0.21-0.283,0.464-0.365,0.763s-0.123,0.633-0.123,1.002c0,0.387,0.044,0.73,0.133,1.031c0.088,0.3,0.213,0.553,0.375,0.756
		c0.161,0.204,0.356,0.359,0.586,0.467c0.229,0.107,0.486,0.161,0.772,0.161c0.272,0,0.498-0.033,0.674-0.098
		c0.177-0.065,0.323-0.138,0.438-0.218s0.212-0.152,0.29-0.218s0.154-0.098,0.23-0.098c0.092,0,0.163,0.036,0.214,0.107l0.315,0.409
		c-0.139,0.173-0.297,0.319-0.473,0.441c-0.177,0.122-0.367,0.224-0.571,0.306c-0.203,0.082-0.417,0.143-0.64,0.18
		c-0.223,0.038-0.449,0.057-0.681,0.057c-0.399,0-0.77-0.073-1.112-0.221c-0.343-0.146-0.64-0.359-0.893-0.64
		c-0.252-0.279-0.449-0.623-0.592-1.03c-0.144-0.407-0.215-0.872-0.215-1.394c0-0.475,0.066-0.914,0.199-1.317
		c0.132-0.403,0.325-0.751,0.579-1.043c0.255-0.292,0.567-0.521,0.939-0.684c0.372-0.164,0.8-0.246,1.283-0.246
		c0.449,0,0.846,0.072,1.188,0.218c0.342,0.145,0.646,0.35,0.91,0.614L365.769,623.047z"/>
	<path fill="#1F3242" d="M371.75,622.392c0,0.079-0.014,0.157-0.041,0.233c-0.027,0.075-0.063,0.141-0.11,0.195l-3.461,4.602h3.493
		v0.876h-4.811v-0.467c0-0.055,0.013-0.118,0.038-0.192c0.025-0.073,0.063-0.144,0.113-0.211l3.479-4.633h-3.436v-0.883h4.734
		V622.392z"/>
	<path fill="#1F3242" d="M374.102,622.839c0.139-0.155,0.285-0.296,0.44-0.423c0.156-0.126,0.321-0.233,0.495-0.324
		c0.175-0.09,0.359-0.159,0.555-0.208c0.195-0.048,0.407-0.072,0.634-0.072c0.349,0,0.656,0.058,0.924,0.173
		c0.267,0.116,0.489,0.28,0.668,0.492s0.313,0.468,0.406,0.766c0.093,0.299,0.139,0.628,0.139,0.99v4.065h-1.128v-4.065
		c0-0.483-0.11-0.858-0.331-1.126c-0.221-0.267-0.556-0.4-1.006-0.4c-0.332,0-0.642,0.08-0.93,0.24
		c-0.288,0.159-0.554,0.376-0.797,0.649v4.702h-1.129v-6.386h0.675c0.159,0,0.258,0.078,0.296,0.233L374.102,622.839z"/>
	<path fill="#1F3242" d="M385.398,621.913l-3.562,8.271c-0.038,0.084-0.085,0.151-0.142,0.202c-0.058,0.05-0.145,0.075-0.262,0.075
		h-0.832l1.166-2.534l-2.635-6.014h0.971c0.097,0,0.173,0.024,0.229,0.072c0.057,0.049,0.096,0.103,0.117,0.161l1.708,4.021
		c0.067,0.177,0.124,0.361,0.17,0.555c0.059-0.197,0.122-0.385,0.189-0.561l1.658-4.016c0.024-0.067,0.067-0.123,0.129-0.167
		c0.061-0.044,0.129-0.066,0.205-0.066H385.398z"/>
</g>
<g>
	<path fill="#1F3242" d="M398.173,623.728v3.688c-0.463,0.341-0.955,0.59-1.479,0.747c-0.523,0.158-1.083,0.236-1.68,0.236
		c-0.744,0-1.418-0.115-2.021-0.347c-0.604-0.23-1.118-0.553-1.545-0.964c-0.426-0.412-0.755-0.904-0.986-1.476
		s-0.347-1.195-0.347-1.872c0-0.685,0.111-1.313,0.334-1.885s0.539-1.063,0.949-1.475c0.409-0.412,0.906-0.731,1.49-0.959
		c0.584-0.227,1.24-0.34,1.967-0.34c0.37,0,0.716,0.029,1.037,0.088s0.62,0.14,0.896,0.243c0.275,0.103,0.526,0.228,0.753,0.375
		c0.227,0.146,0.435,0.309,0.624,0.485l-0.485,0.769c-0.075,0.122-0.175,0.197-0.296,0.224c-0.122,0.028-0.255-0.003-0.397-0.091
		c-0.139-0.08-0.277-0.16-0.416-0.239c-0.139-0.08-0.293-0.149-0.463-0.208c-0.171-0.06-0.362-0.107-0.574-0.146
		s-0.457-0.057-0.734-0.057c-0.449,0-0.856,0.075-1.22,0.227s-0.674,0.368-0.93,0.649c-0.257,0.282-0.454,0.62-0.593,1.015
		c-0.139,0.396-0.208,0.837-0.208,1.324c0,0.521,0.075,0.986,0.224,1.396c0.149,0.409,0.359,0.756,0.631,1.04
		c0.271,0.283,0.598,0.5,0.98,0.649c0.382,0.149,0.809,0.224,1.279,0.224c0.336,0,0.637-0.036,0.901-0.107s0.523-0.168,0.775-0.29
		v-1.651h-1.147c-0.109,0-0.194-0.03-0.255-0.092c-0.062-0.061-0.092-0.135-0.092-0.224v-0.958H398.173z"/>
	<path fill="#1F3242" d="M410.427,623.741c0,0.668-0.111,1.282-0.334,1.841s-0.535,1.04-0.938,1.443
		c-0.404,0.403-0.89,0.717-1.457,0.939s-1.197,0.334-1.891,0.334h-3.474v-9.115h3.474c0.693,0,1.323,0.112,1.891,0.337
		c0.567,0.226,1.053,0.538,1.457,0.939c0.403,0.401,0.716,0.882,0.938,1.44C410.315,622.459,410.427,623.073,410.427,623.741z
		 M408.688,623.741c0-0.5-0.066-0.948-0.198-1.346c-0.133-0.397-0.324-0.733-0.574-1.009s-0.553-0.486-0.907-0.634
		c-0.355-0.146-0.756-0.221-1.201-0.221h-1.771v6.418h1.771c0.445,0,0.846-0.074,1.201-0.221c0.354-0.147,0.657-0.358,0.907-0.634
		s0.441-0.611,0.574-1.009C408.621,624.69,408.688,624.241,408.688,623.741z"/>
	<path fill="#1F3242" d="M417.84,624.768v3.53h-1.689v-3.53l-3.322-5.585h1.494c0.146,0,0.264,0.036,0.35,0.107
		s0.159,0.162,0.218,0.271l1.664,3.045c0.097,0.181,0.182,0.352,0.255,0.511c0.074,0.16,0.14,0.319,0.199,0.479
		c0.055-0.16,0.117-0.319,0.188-0.479c0.072-0.159,0.153-0.33,0.246-0.511l1.658-3.045c0.046-0.092,0.115-0.178,0.208-0.258
		c0.092-0.08,0.21-0.12,0.353-0.12h1.501L417.84,624.768z"/>
	<path fill="#1F3242" d="M432.288,619.183v9.115h-0.87c-0.135,0-0.247-0.022-0.337-0.066c-0.091-0.044-0.178-0.118-0.262-0.224
		l-4.76-6.077c0.025,0.277,0.038,0.534,0.038,0.77v5.598h-1.494v-9.115h0.889c0.072,0,0.134,0.003,0.187,0.01
		c0.053,0.006,0.099,0.019,0.139,0.038c0.04,0.019,0.079,0.046,0.116,0.081c0.038,0.036,0.08,0.083,0.126,0.143l4.778,6.102
		c-0.013-0.147-0.022-0.292-0.031-0.435c-0.009-0.144-0.013-0.275-0.013-0.397v-5.541H432.288z"/>
	<path fill="#1F3242" d="M438.541,628.298h-1.702v-9.115h1.702V628.298z"/>
	<path fill="#1F3242" d="M450.909,628.298h-1.312c-0.146,0-0.267-0.037-0.359-0.11c-0.092-0.073-0.161-0.165-0.208-0.274
		l-0.681-1.859h-3.775l-0.681,1.859c-0.034,0.097-0.1,0.186-0.196,0.265c-0.097,0.08-0.216,0.12-0.358,0.12h-1.324l3.587-9.115
		h1.728L450.909,628.298z M447.915,624.857l-1.109-3.032c-0.055-0.135-0.111-0.294-0.171-0.479
		c-0.059-0.185-0.117-0.385-0.176-0.599c-0.055,0.214-0.111,0.415-0.171,0.602c-0.059,0.188-0.115,0.351-0.17,0.489l-1.103,3.02
		H447.915z"/>
</g>
<g>
	<defs>
		<path id="SVGID_1_" d="M83.874,537.657c0.831,0.282,1.658,0.566,2.483,0.862l194.47-353.711c-0.833-0.295-1.657-0.584-2.484-0.862
			L83.874,537.657z"/>
	</defs>
	<clipPath id="SVGID_2_">
		<use xlink:href="#SVGID_1_"  overflow="visible"/>
	</clipPath>
	
		<linearGradient id="SVGID_3_" gradientUnits="userSpaceOnUse" x1="-0.2217" y1="664.0835" x2="0.9794" y2="664.0835" gradientTransform="matrix(163.5348 0 0 -163.5348 120.4388 108962.125)">
		<stop  offset="0" style="stop-color:#A7519F"/>
		<stop  offset="0.0287" style="stop-color:#A45A9F"/>
		<stop  offset="0.1656" style="stop-color:#9379A6"/>
		<stop  offset="0.3049" style="stop-color:#818FAA"/>
		<stop  offset="0.444" style="stop-color:#6EA0AC"/>
		<stop  offset="0.5831" style="stop-color:#5BACAC"/>
		<stop  offset="0.722" style="stop-color:#49B4AB"/>
		<stop  offset="0.8609" style="stop-color:#3AB9AB"/>
		<stop  offset="1" style="stop-color:#33BCAB"/>
	</linearGradient>
	<rect x="83.874" y="183.946" clip-path="url(#SVGID_2_)" fill="url(#SVGID_3_)" width="196.953" height="354.573"/>
</g>
<g>
	<defs>
		<path id="SVGID_4_" d="M83.874,537.657c0.831,0.282,1.658,0.566,2.483,0.862l194.47-353.711c-0.833-0.295-1.657-0.584-2.484-0.862
			L83.874,537.657z"/>
	</defs>
	<clipPath id="SVGID_5_">
		<use xlink:href="#SVGID_4_"  overflow="visible"/>
	</clipPath>
	
		<linearGradient id="SVGID_6_" gradientUnits="userSpaceOnUse" x1="-0.0498" y1="663.6401" x2="1.1508" y2="663.6401" gradientTransform="matrix(167.446 -290.1509 168.6518 183.634 -111833.9219 -121346.1875)">
		<stop  offset="0" style="stop-color:#A7519F"/>
		<stop  offset="0.0287" style="stop-color:#A45A9F"/>
		<stop  offset="0.1656" style="stop-color:#9379A6"/>
		<stop  offset="0.3049" style="stop-color:#818FAA"/>
		<stop  offset="0.444" style="stop-color:#6EA0AC"/>
		<stop  offset="0.5831" style="stop-color:#5BACAC"/>
		<stop  offset="0.722" style="stop-color:#49B4AB"/>
		<stop  offset="0.8609" style="stop-color:#3AB9AB"/>
		<stop  offset="1" style="stop-color:#33BCAB"/>
	</linearGradient>
	<polygon clip-path="url(#SVGID_5_)" fill="url(#SVGID_6_)" points="204.826,670.215 406.49,320.771 159.876,52.249 
		-41.789,401.694 	"/>
</g>
<g>
	<defs>
		<path id="SVGID_7_" d="M111.945,448.124c0.379,0.145,0.778,0.302,1.518,0.603c0.38,0.15,0.753,0.302,1.542,0.621
			c0.362,0.149,0.73,0.301,1.55,0.644c0.354,0.149,0.705,0.297,1.529,0.651c0.354,0.15,0.699,0.302,1.538,0.663
			c0.343,0.151,0.681,0.294,1.541,0.68c0.339,0.158,0.676,0.303,1.519,0.688l0.02,0.005L317.171,98.969
			c-0.006-0.006-0.012-0.012-0.018-0.012c-0.844-0.381-1.181-0.531-1.519-0.682c-0.861-0.379-1.205-0.529-1.548-0.68
			c-0.832-0.369-1.182-0.519-1.531-0.663c-0.832-0.362-1.181-0.506-1.536-0.65c-0.82-0.344-1.182-0.495-1.544-0.645
			c-0.795-0.32-1.169-0.477-1.548-0.627c-0.742-0.295-1.134-0.453-1.52-0.604L111.945,448.124z"/>
	</defs>
	<clipPath id="SVGID_8_">
		<use xlink:href="#SVGID_7_"  overflow="visible"/>
	</clipPath>
	
		<linearGradient id="SVGID_9_" gradientUnits="userSpaceOnUse" x1="-0.186" y1="664.1636" x2="1.0143" y2="664.1636" gradientTransform="matrix(168.2424 0 0 -168.2424 144.8271 112014.1016)">
		<stop  offset="0" style="stop-color:#A7519F"/>
		<stop  offset="0.0287" style="stop-color:#A45A9F"/>
		<stop  offset="0.1656" style="stop-color:#9379A6"/>
		<stop  offset="0.3049" style="stop-color:#818FAA"/>
		<stop  offset="0.444" style="stop-color:#6EA0AC"/>
		<stop  offset="0.5831" style="stop-color:#5BACAC"/>
		<stop  offset="0.722" style="stop-color:#49B4AB"/>
		<stop  offset="0.8609" style="stop-color:#3AB9AB"/>
		<stop  offset="1" style="stop-color:#33BCAB"/>
	</linearGradient>
	<rect x="111.945" y="94.406" clip-path="url(#SVGID_8_)" fill="url(#SVGID_9_)" width="205.226" height="358.272"/>
</g>
<g>
	<defs>
		<path id="SVGID_10_" d="M111.945,448.124c0.379,0.145,0.778,0.302,1.518,0.603c0.38,0.15,0.753,0.302,1.542,0.621
			c0.362,0.149,0.73,0.301,1.55,0.644c0.354,0.149,0.705,0.297,1.529,0.651c0.354,0.15,0.699,0.302,1.538,0.663
			c0.343,0.151,0.681,0.294,1.541,0.68c0.339,0.158,0.676,0.303,1.519,0.688l0.02,0.005L317.171,98.969
			c-0.006-0.006-0.012-0.012-0.018-0.012c-0.844-0.381-1.181-0.531-1.519-0.682c-0.861-0.379-1.205-0.529-1.548-0.68
			c-0.832-0.369-1.182-0.519-1.531-0.663c-0.832-0.362-1.181-0.506-1.536-0.65c-0.82-0.344-1.182-0.495-1.544-0.645
			c-0.795-0.32-1.169-0.477-1.548-0.627c-0.742-0.295-1.134-0.453-1.52-0.604L111.945,448.124z"/>
	</defs>
	<clipPath id="SVGID_11_">
		<use xlink:href="#SVGID_10_"  overflow="visible"/>
	</clipPath>
	
		<linearGradient id="SVGID_12_" gradientUnits="userSpaceOnUse" x1="-0.0073" y1="663.6313" x2="1.1935" y2="663.6313" gradientTransform="matrix(169.0135 -292.8669 170.2305 185.3529 -112855.8125 -122558.8906)">
		<stop  offset="0" style="stop-color:#A7519F"/>
		<stop  offset="0.0287" style="stop-color:#A45A9F"/>
		<stop  offset="0.1656" style="stop-color:#9379A6"/>
		<stop  offset="0.3049" style="stop-color:#818FAA"/>
		<stop  offset="0.444" style="stop-color:#6EA0AC"/>
		<stop  offset="0.5831" style="stop-color:#5BACAC"/>
		<stop  offset="0.722" style="stop-color:#49B4AB"/>
		<stop  offset="0.8609" style="stop-color:#3AB9AB"/>
		<stop  offset="1" style="stop-color:#33BCAB"/>
	</linearGradient>
	<polygon clip-path="url(#SVGID_11_)" fill="url(#SVGID_12_)" points="237.976,589.906 444.144,232.658 191.139,-42.822 
		-15.028,314.425 	"/>
</g>
<g>
	<defs>
		<path id="SVGID_13_" d="M124.383,378.361c1.758,0.035,3.53,0.103,5.315,0.205L333.335,8.254c-1.791-0.102-3.563-0.169-5.317-0.204
			L124.383,378.361z"/>
	</defs>
	<clipPath id="SVGID_14_">
		<use xlink:href="#SVGID_13_"  overflow="visible"/>
	</clipPath>
	
		<linearGradient id="SVGID_15_" gradientUnits="userSpaceOnUse" x1="-0.1689" y1="664.23" x2="1.0317" y2="664.23" gradientTransform="matrix(174.0251 0 0 -174.0251 153.865 115785.9063)">
		<stop  offset="0" style="stop-color:#A7519F"/>
		<stop  offset="0.0287" style="stop-color:#A45A9F"/>
		<stop  offset="0.1656" style="stop-color:#9379A6"/>
		<stop  offset="0.3049" style="stop-color:#818FAA"/>
		<stop  offset="0.444" style="stop-color:#6EA0AC"/>
		<stop  offset="0.5831" style="stop-color:#5BACAC"/>
		<stop  offset="0.722" style="stop-color:#49B4AB"/>
		<stop  offset="0.8609" style="stop-color:#3AB9AB"/>
		<stop  offset="1" style="stop-color:#33BCAB"/>
	</linearGradient>
	<rect x="124.383" y="8.05" clip-path="url(#SVGID_14_)" fill="url(#SVGID_15_)" width="208.952" height="370.516"/>
</g>
<g>
	<defs>
		<path id="SVGID_16_" d="M128.794,370.339l3.395,3.696L332.534,9.709l-1.438-1.564c-1.032-0.043-2.058-0.075-3.079-0.095
			L128.794,370.339z"/>
	</defs>
	<clipPath id="SVGID_17_">
		<use xlink:href="#SVGID_16_"  overflow="visible"/>
	</clipPath>
	
		<linearGradient id="SVGID_18_" gradientUnits="userSpaceOnUse" x1="0.0259" y1="663.6187" x2="1.2262" y2="663.6187" gradientTransform="matrix(171.9237 -297.9097 173.1617 188.5444 -114789.8672 -124744.7656)">
		<stop  offset="0" style="stop-color:#A7519F"/>
		<stop  offset="0.0287" style="stop-color:#A45A9F"/>
		<stop  offset="0.1656" style="stop-color:#9379A6"/>
		<stop  offset="0.3049" style="stop-color:#818FAA"/>
		<stop  offset="0.444" style="stop-color:#6EA0AC"/>
		<stop  offset="0.5831" style="stop-color:#5BACAC"/>
		<stop  offset="0.722" style="stop-color:#49B4AB"/>
		<stop  offset="0.8609" style="stop-color:#3AB9AB"/>
		<stop  offset="1" style="stop-color:#33BCAB"/>
	</linearGradient>
	<polygon clip-path="url(#SVGID_17_)" fill="url(#SVGID_18_)" points="253.914,510.268 462.24,149.279 207.415,-128.184 
		-0.912,232.806 	"/>
</g>
<g>
	<defs>
		<path id="SVGID_19_" d="M259.523,77.039L65.054,430.755c1.814-0.103,3.64-0.176,5.484-0.205L265.001,76.833
			C263.158,76.871,261.326,76.937,259.523,77.039"/>
	</defs>
	<clipPath id="SVGID_20_">
		<use xlink:href="#SVGID_19_"  overflow="visible"/>
	</clipPath>
	
		<linearGradient id="SVGID_21_" gradientUnits="userSpaceOnUse" x1="-0.2368" y1="664.187" x2="0.9639" y2="664.187" gradientTransform="matrix(166.5258 0 0 -166.5258 104.4691 110858.1797)">
		<stop  offset="0" style="stop-color:#A7519F"/>
		<stop  offset="0.0287" style="stop-color:#A45A9F"/>
		<stop  offset="0.1656" style="stop-color:#9379A6"/>
		<stop  offset="0.3049" style="stop-color:#818FAA"/>
		<stop  offset="0.444" style="stop-color:#6EA0AC"/>
		<stop  offset="0.5831" style="stop-color:#5BACAC"/>
		<stop  offset="0.722" style="stop-color:#49B4AB"/>
		<stop  offset="0.8609" style="stop-color:#3AB9AB"/>
		<stop  offset="1" style="stop-color:#33BCAB"/>
	</linearGradient>
	<rect x="65.054" y="76.833" clip-path="url(#SVGID_20_)" fill="url(#SVGID_21_)" width="199.947" height="353.922"/>
</g>
<g>
	<defs>
		<path id="SVGID_22_" d="M259.523,77.039L65.054,430.755h0.001c1.813-0.103,3.639-0.176,5.483-0.205L265.001,76.833
			C263.158,76.871,261.326,76.937,259.523,77.039"/>
	</defs>
	<clipPath id="SVGID_23_">
		<use xlink:href="#SVGID_22_"  overflow="visible"/>
	</clipPath>
	
		<linearGradient id="SVGID_24_" gradientUnits="userSpaceOnUse" x1="-0.0195" y1="663.5952" x2="1.1816" y2="663.5952" gradientTransform="matrix(168.7249 -292.3669 169.9399 185.0365 -112704.125 -122365.5078)">
		<stop  offset="0" style="stop-color:#A7519F"/>
		<stop  offset="0.0287" style="stop-color:#A45A9F"/>
		<stop  offset="0.1656" style="stop-color:#9379A6"/>
		<stop  offset="0.3049" style="stop-color:#818FAA"/>
		<stop  offset="0.444" style="stop-color:#6EA0AC"/>
		<stop  offset="0.5831" style="stop-color:#5BACAC"/>
		<stop  offset="0.722" style="stop-color:#49B4AB"/>
		<stop  offset="0.8609" style="stop-color:#3AB9AB"/>
		<stop  offset="1" style="stop-color:#33BCAB"/>
	</linearGradient>
	<polygon clip-path="url(#SVGID_23_)" fill="url(#SVGID_24_)" points="187.844,564.454 390.433,213.407 142.211,-56.865 
		-60.378,294.182 	"/>
</g>
<g>
	<defs>
		<path id="SVGID_25_" d="M65.054,430.755c1.814-0.103,3.64-0.176,5.484-0.205l65.211-118.433v-9.743L65.054,430.755z"/>
	</defs>
	<clipPath id="SVGID_26_">
		<use xlink:href="#SVGID_25_"  overflow="visible"/>
	</clipPath>
	
		<linearGradient id="SVGID_27_" gradientUnits="userSpaceOnUse" x1="-0.6699" y1="664.561" x2="0.5308" y2="664.561" gradientTransform="matrix(58.8787 0 0 -58.8787 104.4703 39495.0391)">
		<stop  offset="0" style="stop-color:#A7519F"/>
		<stop  offset="0.0287" style="stop-color:#A45A9F"/>
		<stop  offset="0.1656" style="stop-color:#9379A6"/>
		<stop  offset="0.3049" style="stop-color:#818FAA"/>
		<stop  offset="0.444" style="stop-color:#6EA0AC"/>
		<stop  offset="0.5831" style="stop-color:#5BACAC"/>
		<stop  offset="0.722" style="stop-color:#49B4AB"/>
		<stop  offset="0.8609" style="stop-color:#3AB9AB"/>
		<stop  offset="1" style="stop-color:#33BCAB"/>
	</linearGradient>
	<rect x="65.054" y="302.374" clip-path="url(#SVGID_26_)" fill="url(#SVGID_27_)" width="70.695" height="128.381"/>
</g>
<g>
	<defs>
		<path id="SVGID_28_" d="M65.054,430.755L65.054,430.755c1.814-0.103,3.64-0.176,5.484-0.205l65.211-118.433v-9.743L65.054,430.755
			z"/>
	</defs>
	<clipPath id="SVGID_29_">
		<use xlink:href="#SVGID_28_"  overflow="visible"/>
	</clipPath>
	
		<linearGradient id="SVGID_30_" gradientUnits="userSpaceOnUse" x1="-0.0195" y1="663.5962" x2="1.1816" y2="663.5962" gradientTransform="matrix(168.7249 -292.3669 169.9399 185.0365 -112704.125 -122365.5078)">
		<stop  offset="0" style="stop-color:#A7519F"/>
		<stop  offset="0.0287" style="stop-color:#A45A9F"/>
		<stop  offset="0.1656" style="stop-color:#9379A6"/>
		<stop  offset="0.3049" style="stop-color:#818FAA"/>
		<stop  offset="0.444" style="stop-color:#6EA0AC"/>
		<stop  offset="0.5831" style="stop-color:#5BACAC"/>
		<stop  offset="0.722" style="stop-color:#49B4AB"/>
		<stop  offset="0.8609" style="stop-color:#3AB9AB"/>
		<stop  offset="1" style="stop-color:#33BCAB"/>
	</linearGradient>
	<polygon clip-path="url(#SVGID_29_)" fill="url(#SVGID_30_)" points="108.468,478.027 181.248,351.915 92.334,255.103 
		19.555,381.215 	"/>
</g>
<g>
	<path fill="#1F3242" d="M135.848,200.17v67.183h-18.266V200.17c0-4.619-3.779-8.398-8.397-8.398H94.489v75.581H76.434V101.286
		h30.232c13.646,0,28.973,11.127,28.973,24.983v40.1c0,6.508-2.52,12.597-6.928,17.425
		C133.119,187.784,135.848,193.662,135.848,200.17z M94.489,177.076h12.177c2.939,0,5.668-1.049,7.558-3.149
		c2.1-1.89,3.149-4.619,3.149-7.558v-40.1c0-6.088-4.829-10.917-10.707-10.917H94.489V177.076z"/>
	<path fill="#1F3242" d="M176.785,267.353h-8.817c-12.807,0-23.094-10.287-23.094-23.094V124.17
		c0-12.807,10.288-23.094,23.094-23.094h8.817c12.807,0,23.094,10.287,23.094,23.094v120.089
		C199.879,257.066,189.592,267.353,176.785,267.353z M170.697,115.143c-5.039,0-9.027,3.989-9.027,9.027v120.089
		c0,5.039,3.989,9.028,9.027,9.028h2.729c5.039,0,9.028-3.989,9.028-9.028V124.17c0-5.039-3.989-9.027-9.028-9.027H170.697z"/>
	<path fill="#1F3242" d="M242.288,267.353h-8.817c-12.807,0-23.094-10.287-23.094-23.094V124.17
		c0-12.807,10.288-23.094,23.094-23.094h8.817c12.807,0,23.094,10.287,23.094,23.094v49.337h-17.005V124.17
		c0-5.039-3.989-9.027-9.027-9.027h-3.15c-5.039,0-9.027,3.989-9.027,9.027v120.089c0,5.039,3.989,9.028,9.027,9.028h3.15
		c5.038,0,9.027-3.989,9.027-9.028v-52.276h17.005v52.276C265.382,257.066,255.095,267.353,242.288,267.353z"/>
	<path fill="#1F3242" d="M318.498,165.949c8.818,11.757,13.646,27.293,13.646,43.669v57.735h-16.165v-57.735
		c0-13.437-3.779-26.034-10.708-35.271c-4.828-6.508-7.558-10.708-13.856-12.597v105.603H274.41V101.286h17.005v44.928
		c7.139-3.149,10.498-7.348,14.486-11.967c5.249-6.928,10.078-17.426,10.078-32.961h14.066c0,15.536-4.619,30.232-12.808,41.149
		c-3.568,5.039-7.768,9.027-12.387,11.967C309.051,157.341,315.14,161.331,318.498,165.949z"/>
</g>
<g>
	<path fill="#1F3242" d="M173.208,469.561h-8.598v-46.844h8.598c3.854,0,6.938,2.965,6.938,6.582v13.104
		c0,1.482-0.593,2.846-1.542,3.854c1.008,1.066,1.542,2.431,1.542,3.913v12.748C180.146,466.596,177.062,469.561,173.208,469.561z
		 M169.354,426.69v17.611l3.973-0.06c1.186-0.06,2.076-0.89,2.076-1.838v-13.104c0-1.423-1.305-2.609-2.965-2.609H169.354z
		 M169.354,465.588h3.083c1.66,0,2.965-1.187,2.965-2.669v-12.748c0-0.593-0.296-1.008-0.534-1.245
		c-0.356-0.415-0.949-0.593-1.601-0.593h-3.914V465.588z"/>
	<path fill="#1F3242" d="M204.335,469.561h-2.491c-3.617,0-6.522-2.905-6.522-6.522v-40.262h4.921v40.262
		c0,1.423,1.127,2.55,2.55,2.55h0.89c1.423,0,2.55-1.127,2.55-2.55v-40.262h4.625v40.262
		C210.858,466.656,207.952,469.561,204.335,469.561z"/>
	<path fill="#1F3242" d="M234.573,469.561h-3.558c-3.321,0-5.989-2.55-5.989-5.692v-12.334h4.803v12.334
		c0,0.949,0.889,1.72,2.016,1.72h2.016c1.127,0,2.016-0.771,2.016-1.72v-14.883c0-0.652-0.652-1.246-1.423-1.246h-3.973
		c-3.024,0-5.456-2.313-5.456-5.158v-14.29c0-3.143,2.668-5.692,5.989-5.692h3.558c3.32,0,5.989,2.55,5.989,5.692v11.74h-4.685
		v-11.74c0-0.949-0.889-1.72-2.016-1.72h-2.016c-1.127,0-2.016,0.771-2.016,1.72v14.29c0,0.652,0.652,1.245,1.482,1.245h3.854
		c2.965,0,5.396,2.313,5.396,5.159v14.883C240.563,467.011,237.894,469.561,234.573,469.561z"/>
	<path fill="#1F3242" d="M260.127,469.561h-4.743v-46.962h4.743V469.561z"/>
	<path fill="#1F3242" d="M285.8,469.561c-2.075-8.479-4.447-20.635-6.938-30.656v30.597h-4.685v-46.844c0,0,2.432,0,3.914,0
		l0.475,1.542c0.355,1.245,0.771,3.084,1.363,5.277c1.067,4.447,2.49,10.258,3.973,16.129l1.897,7.827l0.119-30.716h4.625
		l-0.178,46.844H285.8z"/>
	<path fill="#1F3242" d="M309.634,426.75v17.255h8.835v3.973h-8.835v17.611h8.835v3.973h-13.578v-46.784h13.578v3.973H309.634z"/>
	<path fill="#1F3242" d="M342.599,469.561h-3.558c-3.32,0-5.988-2.55-5.988-5.692v-12.334h4.803v12.334
		c0,0.949,0.89,1.72,2.016,1.72h2.017c1.126,0,2.016-0.771,2.016-1.72v-14.883c0-0.652-0.652-1.246-1.423-1.246h-3.973
		c-3.024,0-5.455-2.313-5.455-5.158v-14.29c0-3.143,2.668-5.692,5.988-5.692h3.558c3.321,0,5.989,2.55,5.989,5.692v11.74h-4.685
		v-11.74c0-0.949-0.89-1.72-2.016-1.72h-2.017c-1.126,0-2.016,0.771-2.016,1.72v14.29c0,0.652,0.652,1.245,1.482,1.245h3.854
		c2.964,0,5.396,2.313,5.396,5.159v14.883C348.588,467.011,345.92,469.561,342.599,469.561z"/>
	<path fill="#1F3242" d="M372.896,469.561h-3.558c-3.32,0-5.988-2.55-5.988-5.692v-12.334h4.803v12.334
		c0,0.949,0.89,1.72,2.016,1.72h2.017c1.126,0,2.016-0.771,2.016-1.72v-14.883c0-0.652-0.652-1.246-1.423-1.246h-3.973
		c-3.024,0-5.455-2.313-5.455-5.158v-14.29c0-3.143,2.668-5.692,5.988-5.692h3.558c3.321,0,5.989,2.55,5.989,5.692v11.74H374.2
		v-11.74c0-0.949-0.89-1.72-2.016-1.72h-2.017c-1.126,0-2.016,0.771-2.016,1.72v14.29c0,0.652,0.652,1.245,1.482,1.245h3.854
		c2.964,0,5.396,2.313,5.396,5.159v14.883C378.885,467.011,376.217,469.561,372.896,469.561z"/>
</g>
<g>
	<path fill="#33BCAB" d="M182.59,401.129h-11.518c-13.776,0-24.617-11.066-24.617-24.617v-73.174
		c0-13.551,10.841-24.617,24.617-24.617h11.518c13.551,0,24.617,11.066,24.617,24.617v73.174
		C207.207,390.063,196.141,401.129,182.59,401.129z M171.072,296.789c-3.613,0-6.549,2.936-6.549,6.549v73.174
		c0,3.613,2.936,6.55,6.549,6.55h11.518c3.614,0,6.55-2.937,6.55-6.55v-73.174c0-3.614-2.936-6.549-6.55-6.549H171.072z"/>
</g>
<g>
	<rect x="37.601" y="402.348" fill="#33BCAB" width="57.469" height="17.949"/>
	<path fill="#33BCAB" d="M135.749,275.095v197.169c0,16.262-13.326,29.362-29.36,29.362c-16.261,0-29.361-13.101-29.361-29.362
		V402.25h18.068v70.014c0,6.099,4.968,11.067,11.293,11.067c6.098,0,11.067-4.969,11.067-11.067v-74.982h-15.133
		c-10.841,0-18.971-5.872-22.811-16.938c-2.709-7.229-2.937-15.358-2.937-20.779v-84.47H94.87l-0.226,84.47
		c0,2.258,0,9.484,1.807,14.681c1.805,4.967,4.065,4.967,5.872,4.967h15.133V275.095H135.749z"/>
</g>
<g>
	<path fill="#33BCAB" d="M351.644,313.094v37.716h-18.068v-37.716c0-3.162-1.354-6.098-3.839-8.13
		c-2.259-2.033-5.421-3.162-8.356-3.162c-6.775,0-11.744,4.968-11.744,11.292h-0.226v91.242h-18.067V283.508h18.067v2.484
		c3.613-1.581,7.679-2.259,11.97-2.259c7.453,0,14.454,2.484,20.101,7.453C348.029,296.607,351.644,304.738,351.644,313.094z"/>
</g>
<g>
	<path fill="#33BCAB" d="M254.979,397.333h-11.518c-13.551,0-24.618-10.841-24.618-24.617v-97.791h18.068v97.791
		c0,3.613,2.937,6.55,6.55,6.55h11.518c3.614,0,6.55-2.937,6.55-6.55v-97.791h18.067v97.791
		C279.597,386.493,268.53,397.333,254.979,397.333z"/>
</g>
<g>
	<defs>
		<path id="SVGID_31_" d="M192.468,380.362c0.175,0.049,0.352,0.097,0.532,0.145c0.47,0.134,0.939,0.26,1.408,0.394L388.873,27.189
			c-0.47-0.132-0.94-0.265-1.404-0.392c-0.181-0.049-0.362-0.097-0.535-0.145L192.468,380.362z"/>
	</defs>
	<clipPath id="SVGID_32_">
		<use xlink:href="#SVGID_31_"  overflow="visible"/>
	</clipPath>
	
		<linearGradient id="SVGID_33_" gradientUnits="userSpaceOnUse" x1="-0.1113" y1="664.2456" x2="1.09" y2="664.2456" gradientTransform="matrix(163.2659 0 0 -163.2659 210.5713 108652.5234)">
		<stop  offset="0" style="stop-color:#A7519F"/>
		<stop  offset="0.0287" style="stop-color:#A45A9F"/>
		<stop  offset="0.1656" style="stop-color:#9379A6"/>
		<stop  offset="0.3049" style="stop-color:#818FAA"/>
		<stop  offset="0.444" style="stop-color:#6EA0AC"/>
		<stop  offset="0.5831" style="stop-color:#5BACAC"/>
		<stop  offset="0.722" style="stop-color:#49B4AB"/>
		<stop  offset="0.8609" style="stop-color:#3AB9AB"/>
		<stop  offset="1" style="stop-color:#33BCAB"/>
	</linearGradient>
	<rect x="192.468" y="26.652" clip-path="url(#SVGID_32_)" fill="url(#SVGID_33_)" width="196.405" height="354.248"/>
</g>
<g>
	<defs>
		<path id="SVGID_34_" d="M192.468,380.362c0.175,0.049,0.352,0.097,0.532,0.145c0.47,0.134,0.939,0.26,1.408,0.394L388.873,27.189
			c-0.47-0.132-0.94-0.265-1.404-0.392c-0.181-0.049-0.362-0.097-0.535-0.145L192.468,380.362z"/>
	</defs>
	<clipPath id="SVGID_35_">
		<use xlink:href="#SVGID_34_"  overflow="visible"/>
	</clipPath>
	
		<linearGradient id="SVGID_36_" gradientUnits="userSpaceOnUse" x1="0.0474" y1="663.6519" x2="1.2477" y2="663.6519" gradientTransform="matrix(167.3658 -290.0117 168.5709 183.5459 -111690.3047 -121418.6406)">
		<stop  offset="0" style="stop-color:#A7519F"/>
		<stop  offset="0.0287" style="stop-color:#A45A9F"/>
		<stop  offset="0.1656" style="stop-color:#9379A6"/>
		<stop  offset="0.3049" style="stop-color:#818FAA"/>
		<stop  offset="0.444" style="stop-color:#6EA0AC"/>
		<stop  offset="0.5831" style="stop-color:#5BACAC"/>
		<stop  offset="0.722" style="stop-color:#49B4AB"/>
		<stop  offset="0.8609" style="stop-color:#3AB9AB"/>
		<stop  offset="1" style="stop-color:#33BCAB"/>
	</linearGradient>
	<polygon clip-path="url(#SVGID_35_)" fill="url(#SVGID_36_)" points="313.082,512.229 514.42,163.352 268.258,-104.677 
		66.921,244.2 	"/>
</g>
<g>
	<defs>
		<path id="SVGID_37_" d="M110.713,451.337l8.31,9.049l62.84-115.298c-0.006-0.006-0.011-0.011-0.017-0.011
			c-0.845-0.379-1.181-0.528-1.519-0.681c-0.862-0.379-1.206-0.53-1.549-0.681c-0.832-0.367-1.182-0.519-1.53-0.663
			c-0.833-0.362-1.183-0.507-1.538-0.651c-0.819-0.344-1.18-0.495-1.543-0.645c-0.794-0.32-1.167-0.477-1.549-0.628
			c-0.742-0.295-1.132-0.451-1.519-0.603L110.713,451.337z"/>
	</defs>
	<clipPath id="SVGID_38_">
		<use xlink:href="#SVGID_37_"  overflow="visible"/>
	</clipPath>
	
		<linearGradient id="SVGID_39_" gradientUnits="userSpaceOnUse" x1="-0.1636" y1="663.9312" x2="1.0364" y2="663.9312" gradientTransform="matrix(366.4102 0 -80.997 542.1848 53812.168 -359573.1875)">
		<stop  offset="0" style="stop-color:#A7519F"/>
		<stop  offset="0.0508" style="stop-color:#A161A1"/>
		<stop  offset="0.1785" style="stop-color:#8F7CA7"/>
		<stop  offset="0.3097" style="stop-color:#7D91AA"/>
		<stop  offset="0.4419" style="stop-color:#6AA1AC"/>
		<stop  offset="0.5757" style="stop-color:#56ACAC"/>
		<stop  offset="0.7118" style="stop-color:#44B4AB"/>
		<stop  offset="0.8514" style="stop-color:#35B9AB"/>
		<stop  offset="1" style="stop-color:#2CBBAB"/>
	</linearGradient>
	<polygon clip-path="url(#SVGID_38_)" fill="url(#SVGID_39_)" points="92.807,460.386 181.863,460.386 199.769,340.527 
		110.713,340.527 	"/>
</g>
</svg>
