<?xml version="1.0" encoding="utf-8"?>
<!-- Generator: Adobe Illustrator 15.0.0, SVG Export Plug-In . SVG Version: 6.00 Build 0)  -->
<!DOCTYPE svg PUBLIC "-//W3C//DTD SVG 1.1//EN" "http://www.w3.org/Graphics/SVG/1.1/DTD/svg11.dtd">
<svg version="1.1" id="Warstwa_1" xmlns="http://www.w3.org/2000/svg" xmlns:xlink="http://www.w3.org/1999/xlink" x="0px" y="0px"
	 width="60.831px" height="28.347px" viewBox="0 0 60.831 28.347" enable-background="new 0 0 60.831 28.347" xml:space="preserve">
<g>
	<defs>
		<rect id="SVGID_1_" y="0" width="60.831" height="28.346"/>
	</defs>
	<clipPath id="SVGID_2_">
		<use xlink:href="#SVGID_1_"  overflow="visible"/>
	</clipPath>
	<path clip-path="url(#SVGID_2_)" fill="#3C3C3B" d="M16.611,18.09h3.055c1.809,0,2.479,0.741,2.479,2.116v1.068
		c0,1.362-0.729,2.103-2.55,2.103h-1.503v2.539h-1.481V18.09z M19.583,19.395h-1.491v2.68h1.491c0.835,0,1.081-0.307,1.081-0.952
		v-0.799C20.665,19.677,20.396,19.395,19.583,19.395"/>
	<path clip-path="url(#SVGID_2_)" fill="#3C3C3B" d="M25.617,21.392c-0.552,0.247-0.999,0.505-1.516,0.834v3.689h-1.432v-5.721h1.21
		l0.093,0.634c0.318-0.211,0.999-0.611,1.504-0.752L25.617,21.392z"/>
	<path clip-path="url(#SVGID_2_)" fill="#3C3C3B" d="M28.291,26.032c-1.963,0-2.491-1.081-2.491-2.255v-1.446
		c0-1.175,0.528-2.256,2.491-2.256c1.962,0,2.49,1.081,2.49,2.256v1.446C30.78,24.951,30.253,26.032,28.291,26.032 M28.291,21.298
		c-0.765,0-1.058,0.341-1.058,0.986v1.539c0,0.646,0.293,0.988,1.058,0.988c0.764,0,1.057-0.342,1.057-0.988v-1.539
		C29.348,21.639,29.055,21.298,28.291,21.298"/>
	<path clip-path="url(#SVGID_2_)" fill="#3C3C3B" d="M33.144,24.376c-0.188,0.118-0.342,0.282-0.342,0.458
		c0,0.152,0.096,0.223,0.317,0.247c0.635,0.07,0.988,0.105,1.658,0.176c0.927,0.105,1.221,0.563,1.221,1.386
		c0,1.224-0.447,1.704-2.585,1.704c-0.658,0-1.562-0.094-2.209-0.294l0.177-1.069c0.611,0.153,1.257,0.247,1.927,0.247
		c1.141,0,1.362-0.082,1.362-0.458c0-0.353-0.104-0.411-0.54-0.458c-0.658-0.07-0.929-0.106-1.656-0.188
		c-0.811-0.093-1.128-0.364-1.128-1.092c0-0.471,0.317-0.776,0.6-0.976c-0.529-0.316-0.776-0.846-0.776-1.539v-0.541
		c0.024-1.187,0.647-1.902,2.303-1.902c0.389,0,0.693,0.048,0.977,0.117h1.761v0.718c-0.199,0.058-0.434,0.116-0.634,0.175
		c0.129,0.247,0.2,0.564,0.2,0.893v0.541c0,1.163-0.705,1.868-2.304,1.868C33.355,24.388,33.249,24.388,33.144,24.376
		 M33.472,21.228c-0.704,0-0.95,0.258-0.95,0.799v0.435c0,0.563,0.28,0.775,0.95,0.775c0.683,0,0.965-0.224,0.965-0.775v-0.435
		C34.437,21.485,34.189,21.228,33.472,21.228"/>
	<path clip-path="url(#SVGID_2_)" fill="#3C3C3B" d="M39.559,21.392c-0.552,0.247-0.998,0.505-1.516,0.834v3.689h-1.432v-5.721h1.21
		l0.093,0.634c0.318-0.211,0.999-0.611,1.504-0.752L39.559,21.392z"/>
	<path clip-path="url(#SVGID_2_)" fill="#3C3C3B" d="M42.298,24.857c0.554,0,1.128-0.082,1.751-0.27l0.224,1.081
		c-0.646,0.246-1.421,0.363-2.104,0.363c-1.798,0-2.42-0.834-2.42-2.209v-1.516c0-1.21,0.54-2.232,2.373-2.232
		c1.832,0,2.244,1.069,2.244,2.304v1.222h-3.185v0.293C41.182,24.588,41.429,24.857,42.298,24.857 M41.182,22.449h1.821v-0.282
		c0-0.54-0.164-0.917-0.869-0.917s-0.952,0.377-0.952,0.917V22.449z"/>
	<path clip-path="url(#SVGID_2_)" fill="#3C3C3B" d="M46.713,26.032c-0.609,0-1.443-0.142-1.974-0.329l0.201-1.093
		c0.48,0.142,1.115,0.247,1.703,0.247c0.634,0,0.728-0.141,0.728-0.576c0-0.353-0.069-0.527-0.999-0.752
		c-1.396-0.34-1.562-0.691-1.562-1.797c0-1.151,0.505-1.657,2.138-1.657c0.529,0,1.222,0.071,1.715,0.2l-0.14,1.14
		c-0.436-0.082-1.128-0.165-1.575-0.165c-0.623,0-0.728,0.142-0.728,0.494c0,0.458,0.034,0.493,0.81,0.693
		c1.598,0.423,1.751,0.634,1.751,1.809C48.781,25.351,48.441,26.032,46.713,26.032"/>
	<path clip-path="url(#SVGID_2_)" fill="#3C3C3B" d="M51.142,26.032c-0.61,0-1.444-0.142-1.975-0.329l0.201-1.093
		c0.48,0.142,1.116,0.247,1.703,0.247c0.634,0,0.728-0.141,0.728-0.576c0-0.353-0.07-0.527-0.998-0.752
		c-1.397-0.34-1.562-0.691-1.562-1.797c0-1.151,0.505-1.657,2.137-1.657c0.53,0,1.223,0.071,1.716,0.2l-0.141,1.14
		c-0.436-0.082-1.128-0.165-1.575-0.165c-0.622,0-0.728,0.142-0.728,0.494c0,0.458,0.035,0.493,0.811,0.693
		c1.598,0.423,1.75,0.634,1.75,1.809C53.209,25.351,52.869,26.032,51.142,26.032"/>
	<path clip-path="url(#SVGID_2_)" fill="#3C3C3B" d="M53.796,17.726h1.435v1.657h-1.435V17.726z M53.796,20.193h1.435v5.723h-1.435
		V20.193z"/>
	<path clip-path="url(#SVGID_2_)" fill="#3C3C3B" d="M58.34,26.032c-1.963,0-2.49-1.081-2.49-2.255v-1.446
		c0-1.175,0.527-2.256,2.49-2.256c1.962,0,2.49,1.081,2.49,2.256v1.446C60.83,24.951,60.302,26.032,58.34,26.032 M58.34,21.298
		c-0.765,0-1.058,0.341-1.058,0.986v1.539c0,0.646,0.293,0.988,1.058,0.988c0.764,0,1.058-0.342,1.058-0.988v-1.539
		C59.397,21.639,59.104,21.298,58.34,21.298"/>
	<path clip-path="url(#SVGID_2_)" fill="#706F6F" d="M0,18.094h3.054c1.81,0,2.48,0.741,2.48,2.115v1.068
		c0,1.362-0.729,2.103-2.55,2.103H1.48v2.539H0V18.094z M2.972,19.397H1.48v2.68h1.492c0.834,0,1.081-0.307,1.081-0.952v-0.799
		C4.053,19.68,3.783,19.397,2.972,19.397"/>
	<path clip-path="url(#SVGID_2_)" fill="#706F6F" d="M9.005,21.395c-0.553,0.247-0.999,0.505-1.516,0.834v3.689H6.056v-5.721h1.21
		l0.093,0.635c0.318-0.212,1-0.612,1.504-0.752L9.005,21.395z"/>
	<path clip-path="url(#SVGID_2_)" fill="#706F6F" d="M11.678,26.035c-1.962,0-2.49-1.081-2.49-2.255v-1.445
		c0-1.175,0.528-2.256,2.49-2.256s2.49,1.081,2.49,2.256v1.445C14.168,24.954,13.64,26.035,11.678,26.035 M11.678,21.301
		c-0.764,0-1.058,0.341-1.058,0.986v1.539c0,0.646,0.294,0.988,1.058,0.988s1.058-0.342,1.058-0.988v-1.539
		C12.736,21.642,12.442,21.301,11.678,21.301"/>
	<polygon clip-path="url(#SVGID_2_)" fill="#E30613" points="22.887,0 17.729,1.444 24.124,9.56 	"/>
	<polygon clip-path="url(#SVGID_2_)" fill="#E30613" points="17.316,1.926 18.211,3.027 15.391,7.496 	"/>
	<polygon clip-path="url(#SVGID_2_)" fill="#E30613" points="18.623,3.577 17.522,5.364 16.697,10.661 20.893,6.534 	"/>
	<polygon clip-path="url(#SVGID_2_)" fill="#E30613" points="16.216,9.285 15.941,11.279 13.946,11.348 	"/>
	<polygon clip-path="url(#SVGID_2_)" fill="#E30613" points="14.428,8.391 14.015,9.698 13.533,9.904 13.19,9.766 	"/>
	<polygon clip-path="url(#SVGID_2_)" fill="#E30613" points="12.571,10.317 10.783,9.904 11.608,10.729 	"/>
	<polygon clip-path="url(#SVGID_2_)" fill="#E30613" points="13.396,12.036 14.221,11.967 13.534,13.893 	"/>
	<polygon clip-path="url(#SVGID_2_)" fill="#E30613" points="13.809,15.13 14.015,14.443 15.116,14.305 15.459,15.13 	"/>
	<polygon clip-path="url(#SVGID_2_)" fill="#E30613" points="25.776,14.924 26.188,15.749 24.606,15.749 24.4,15.13 	"/>
	<polygon clip-path="url(#SVGID_2_)" fill="#E30613" points="23.025,12.448 23.643,14.648 22.337,12.999 	"/>
	<polygon clip-path="url(#SVGID_2_)" fill="#E30613" points="22.268,12.243 24.124,10.661 22.612,8.734 	"/>
	<polygon clip-path="url(#SVGID_2_)" fill="#E30613" points="23.575,0 24.47,7.634 31.896,3.37 29.421,0.688 	"/>
	<polygon clip-path="url(#SVGID_2_)" fill="#E30613" points="27.564,6.671 32.241,3.852 36.022,7.978 	"/>
	<polygon clip-path="url(#SVGID_2_)" fill="#E30613" points="32.652,8.116 32.585,14.167 35.609,8.528 	"/>
	<polygon clip-path="url(#SVGID_2_)" fill="#E30613" points="32.79,15.13 33.203,14.374 34.028,14.305 34.372,15.199 	"/>
	<polygon clip-path="url(#SVGID_2_)" fill="#E30613" points="30.383,0.619 36.779,7.84 38.361,0 	"/>
	<polygon clip-path="url(#SVGID_2_)" fill="#E30613" points="38.636,1.444 37.329,8.459 40.424,11.897 	"/>
	<polygon clip-path="url(#SVGID_2_)" fill="#E30613" points="40.768,10.11 41.181,12.724 42.556,14.305 	"/>
	<polygon clip-path="url(#SVGID_2_)" fill="#E30613" points="43.519,14.924 44,15.749 45.514,15.749 45.169,14.924 	"/>
	<polygon clip-path="url(#SVGID_2_)" fill="#E30613" points="39.117,0.069 40.081,6.122 43.589,0.826 	"/>
	<polygon clip-path="url(#SVGID_2_)" fill="#E30613" points="43.313,2.614 42.418,4.677 43.794,6.189 46.821,3.852 	"/>
	<polygon clip-path="url(#SVGID_2_)" fill="#E30613" points="44.275,0.963 43.589,1.994 47.095,3.37 46.889,2.613 45.926,1.788 	"/>
	<polygon clip-path="url(#SVGID_2_)" fill="#E30613" points="45.101,0.55 46.202,0.276 45.996,1.101 	"/>
	<polygon clip-path="url(#SVGID_2_)" fill="#E30613" points="45.307,5.984 47.37,4.264 48.058,5.297 46.683,6.603 	"/>
</g>
</svg>
