<?xml version="1.0" encoding="utf-8"?>
<!-- Generator: Adobe Illustrator 22.1.0, SVG Export Plug-In . SVG Version: 6.00 Build 0)  -->
<svg version="1.1" id="Layer_1" xmlns="http://www.w3.org/2000/svg" xmlns:xlink="http://www.w3.org/1999/xlink" x="0px" y="0px"
	 viewBox="0 0 2793 318" style="enable-background:new 0 0 2793 318;" xml:space="preserve">
<g>
	<g>
		<path d="M1723.5,258.1V59.9c0-2.7,1.8-4.4,4.4-4.4h19.6c2.6,0,4.4,1.8,4.4,4.4v176.7c0,0.9,0.6,1.5,1.5,1.5h100.4
			c2.7,0,4.4,1.8,4.4,4.4v15.7c0,2.7-1.8,4.4-4.4,4.4H1728C1725.3,262.6,1723.5,260.8,1723.5,258.1z"/>
		<path d="M1921.1,258.1V59.9c0-2.7,1.8-4.4,4.4-4.4h19.6c2.6,0,4.4,1.8,4.4,4.4v198.3c0,2.7-1.8,4.4-4.4,4.4h-19.6
			C1922.9,262.6,1921.1,260.8,1921.1,258.1z"/>
		<path d="M2026.4,196.9v-75.8c0-41.1,29-68.1,72.2-68.1c43.2,0,71.9,27.3,71.9,64.2v1.8c0,2.7-1.8,4.4-4.4,4.4h-19.5
			c-2.7,0-4.4-1.2-4.4-3v-2.7c0-23.4-17.2-39.9-43.5-39.9c-26.4,0-43.8,16.6-43.8,42.3v77.5c0,25.7,18.3,42.3,45,42.3
			c25.8,0,42.3-14.2,42.3-38.2v-22.5c0-0.9-0.6-1.5-1.5-1.5h-38.2c-2.7,0-4.4-1.8-4.4-4.4v-15.4c0-2.7,1.8-4.4,4.4-4.4h63.6
			c2.7,0,4.4,1.8,4.4,4.4v36.1c0,46.2-28.7,70.7-71.9,70.7C2055.4,264.9,2026.4,237.7,2026.4,196.9z"/>
		<path d="M2362.9,55.4h19.5c2.7,0,4.4,1.8,4.4,4.4v198.3c0,2.7-1.8,4.4-4.4,4.4h-19.5c-2.7,0-4.4-1.8-4.4-4.4V172
			c0-0.9-0.6-1.5-1.5-1.5h-83.8c-0.9,0-1.5,0.6-1.5,1.5v86.1c0,2.7-1.8,4.4-4.4,4.4h-19.6c-2.6,0-4.4-1.8-4.4-4.4V59.9
			c0-2.7,1.8-4.4,4.4-4.4h19.6c2.6,0,4.4,1.8,4.4,4.4v84.6c0,0.9,0.6,1.5,1.5,1.5h83.8c0.9,0,1.5-0.6,1.5-1.5V59.9
			C2358.4,57.2,2360.2,55.4,2362.9,55.4z"/>
		<path d="M2587.2,59.9v16c0,2.6-1.8,4.4-4.4,4.4h-55.1c-0.9,0-1.5,0.6-1.5,1.4v176.4c0,2.7-1.8,4.4-4.4,4.4h-19.5
			c-2.7,0-4.4-1.8-4.4-4.4V81.7c0-0.9-0.6-1.4-1.5-1.4h-52.4c-2.7,0-4.4-1.8-4.4-4.4v-16c0-2.7,1.8-4.4,4.4-4.4h138.8
			C2585.4,55.4,2587.2,57.2,2587.2,59.9z"/>
		<path d="M2631.4,207.2v-7.1c0-2.6,1.8-4.4,4.4-4.4h18.9c2.7,0,4.4,1.8,4.4,4.4v5.6c0,19.5,18,34.6,47.6,34.6
			c28.1,0,41.1-13.3,41.1-31.1c0-18.7-16-26.9-50.6-40.9c-33.7-13-63.3-24.8-63.3-61c0-34.3,26.4-54.5,67.5-54.5
			c44.4,0,73.1,23.7,73.1,58.9v4.4c0,2.7-1.8,4.4-4.4,4.4H2751c-2.7,0-4.4-1.5-4.4-3.8v-3.6c0-19.8-16.3-35.8-46.2-35.8
			c-24.5,0-38.5,10.3-38.5,29.3c0,19.8,15.4,26.4,50.3,39.7c32.8,12.7,64.2,25.7,64.2,61.9c0,33.7-26.9,56.5-71.6,56.5
			C2660.2,264.9,2631.4,242.2,2631.4,207.2z"/>
	</g>
	<g>
		<path d="M600.7,156.3c20.8,9.2,31.1,26,31.1,49.4c0,37.3-27.8,56.8-65.1,56.8h-72.2c-2.6,0-4.4-1.8-4.4-4.4V59.9
			c0-2.7,1.8-4.4,4.4-4.4h69.8c40.3,0,64.8,18.3,64.8,55.1c0,21.6-10,36.1-28.1,44.1C599.8,155.2,599.8,155.7,600.7,156.3z
			 M518.4,81.4v61.9c0,0.9,0.6,1.5,1.5,1.5h44.4c22.8,0,37-12.4,37-32c0-20.1-14.2-32.9-37-32.9h-44.4C519,80,518.4,80.6,518.4,81.4
			z M603.4,203.1c0-21.3-14.5-34.6-37.6-34.6h-45.9c-0.9,0-1.5,0.6-1.5,1.5v66.3c0,0.9,0.6,1.5,1.5,1.5h46.8
			C589.1,237.7,603.4,224.4,603.4,203.1z"/>
		<path d="M817.2,259.3l-40.9-87.6c-0.3-0.6-1.2-1.2-1.8-1.2h-41.8c-0.9,0-1.5,0.6-1.5,1.5v86.1c0,2.7-1.8,4.4-4.4,4.4h-19.6
			c-2.7,0-4.4-1.8-4.4-4.4V59.5c0-2.6,1.8-4.4,4.4-4.4h78.2c35.8,0,59.5,23.7,59.5,58.9c0,27.5-15.7,47.6-40.5,54.2
			c-0.9,0.3-1.2,0.9-0.9,1.8l42,87.3c1.5,3.3,0,5.3-3.3,5.3h-20.1C819.9,262.6,818.1,261.4,817.2,259.3z M731.4,81.2v65.7
			c0,0.9,0.6,1.5,1.5,1.5H782c20.8,0,34.6-13.9,34.6-34.1c0-20.7-13.9-34.6-34.6-34.6h-49.1C732,79.7,731.4,80.3,731.4,81.2z"/>
		<path d="M914.8,258.1V59.9c0-2.7,1.8-4.4,4.4-4.4h19.6c2.6,0,4.4,1.8,4.4,4.4v198.3c0,2.7-1.8,4.4-4.4,4.4h-19.6
			C916.5,262.6,914.8,260.8,914.8,258.1z"/>
		<path d="M1016.5,196.9v-75.8c0-41.1,29-68.1,72.2-68.1c43.2,0,71.9,27.3,71.9,64.2v1.8c0,2.7-1.8,4.4-4.4,4.4h-19.5
			c-2.7,0-4.4-1.2-4.4-3v-2.7c0-23.4-17.2-39.9-43.5-39.9c-26.4,0-43.8,16.6-43.8,42.3v77.5c0,25.7,18.3,42.3,45,42.3
			c25.8,0,42.3-14.2,42.3-38.2v-22.5c0-0.9-0.6-1.5-1.5-1.5h-38.2c-2.7,0-4.4-1.8-4.4-4.4v-15.4c0-2.7,1.8-4.4,4.4-4.4h63.6
			c2.7,0,4.4,1.8,4.4,4.4v36.1c0,46.2-28.7,70.7-71.9,70.7C1045.5,264.9,1016.5,237.7,1016.5,196.9z"/>
		<path d="M1351.4,55.4h19.5c2.7,0,4.4,1.8,4.4,4.4v198.3c0,2.7-1.8,4.4-4.4,4.4h-19.5c-2.7,0-4.4-1.8-4.4-4.4V172
			c0-0.9-0.6-1.5-1.5-1.5h-83.8c-0.9,0-1.5,0.6-1.5,1.5v86.1c0,2.7-1.8,4.4-4.4,4.4h-19.6c-2.6,0-4.4-1.8-4.4-4.4V59.9
			c0-2.7,1.8-4.4,4.4-4.4h19.6c2.6,0,4.4,1.8,4.4,4.4v84.6c0,0.9,0.6,1.5,1.5,1.5h83.8c0.9,0,1.5-0.6,1.5-1.5V59.9
			C1347,57.2,1348.8,55.4,1351.4,55.4z"/>
		<path d="M1577.3,59.9v16c0,2.6-1.8,4.4-4.4,4.4h-55.1c-0.9,0-1.5,0.6-1.5,1.4v176.4c0,2.7-1.8,4.4-4.4,4.4h-19.5
			c-2.7,0-4.4-1.8-4.4-4.4V81.7c0-0.9-0.6-1.4-1.5-1.4h-52.4c-2.7,0-4.4-1.8-4.4-4.4v-16c0-2.7,1.8-4.4,4.4-4.4h138.8
			C1575.6,55.4,1577.3,57.2,1577.3,59.9z"/>
	</g>
	<path d="M280.9,118.7c-16.3-14.2-24.9-33-24.9-54.5c0-35.4-28.8-64.2-64.2-64.2s-64.2,28.8-64.2,64.2v138.5c0,3.7,3,6.7,6.7,6.7
		c0,0,15,0,15,0c3.7,0,6.7-3,6.7-6.7V64.2c0-19.7,16.1-35.8,35.8-35.8c19.4,0,35.8,16.4,35.8,35.8c0,29.5,12.3,56.5,33.9,75.3
		c48.8,48.8,7.7,97.4-6,111.1c-24.8,24.8-59.1,39-94.1,39c-73.3,0-133-59.7-133-133.1c0-34.9,13.8-68.4,38.2-93.2
		c2.8-2.4,3.1-6.7,0.7-9.5L57,42.8c-2.4-2.8-6.7-3.1-9.5-0.7C17.2,72.3,0,113.5,0,156.4C0,245.5,72.4,318,161.4,318
		c42.5,0,84.1-17.2,114.2-47.3C323.4,222.9,325.7,163.5,280.9,118.7z"/>
</g>
</svg>
