<?xml version="1.0" encoding="utf-8"?>
<!-- Generator: Adobe Illustrator 22.1.0, SVG Export Plug-In . SVG Version: 6.00 Build 0)  -->
<svg version="1.1" id="Capa_1" xmlns="http://www.w3.org/2000/svg" xmlns:xlink="http://www.w3.org/1999/xlink" x="0px" y="0px"
	 viewBox="0 0 512 512" style="enable-background:new 0 0 512 512;" xml:space="preserve">
<style type="text/css">
	.st0{fill:#FFFFFF;}
</style>
<g>
	<g>
		<g>
			<g>
				<path class="st0" d="M254.5,8C119.5,8,10,117.5,10,252.5C10,387.6,119.5,497,254.5,497C389.6,497,499,387.6,499,252.5
					C499,117.5,389.6,8,254.5,8z M384.9,366.6H124.1c-9,0-16.3-7.3-16.3-16.3s7.3-16.3,16.3-16.3h260.8c9,0,16.3,7.3,16.3,16.3
					C401.2,359.3,393.9,366.6,384.9,366.6z M384.9,268.8H124.1c-9,0-16.3-7.3-16.3-16.3c0-9,7.3-16.3,16.3-16.3h260.8
					c9,0,16.3,7.3,16.3,16.3C401.2,261.5,393.9,268.8,384.9,268.8z M384.9,171H124.1c-9,0-16.3-7.3-16.3-16.3s7.3-16.3,16.3-16.3
					h260.8c9,0,16.3,7.3,16.3,16.3C401.2,163.7,393.9,171,384.9,171z"/>
				<path d="M254.5,498.5c-65.7,0-127.5-25.6-173.9-72C34.1,380,8.5,318.2,8.5,252.5c0-65.7,25.6-127.5,72.1-173.9
					S188.8,6.5,254.5,6.5c65.7,0,127.5,25.6,174,72.1c46.5,46.5,72,108.2,72,173.9c0,65.7-25.6,127.5-72,174
					C382,472.9,320.2,498.5,254.5,498.5z M254.5,9.5c-134,0-243,109-243,243c0,134,109,243,243,243c134,0,243-109,243-243
					C497.5,118.5,388.5,9.5,254.5,9.5z M384.9,368.1H124.1c-9.8,0-17.8-8-17.8-17.8s8-17.8,17.8-17.8h260.8c9.8,0,17.8,8,17.8,17.8
					S394.7,368.1,384.9,368.1z M124.1,335.5c-8.2,0-14.8,6.6-14.8,14.8c0,8.2,6.6,14.8,14.8,14.8h260.8c8.2,0,14.8-6.6,14.8-14.8
					c0-8.2-6.6-14.8-14.8-14.8H124.1z M384.9,270.3H124.1c-9.8,0-17.8-8-17.8-17.8c0-9.8,8-17.8,17.8-17.8h260.8
					c9.8,0,17.8,8,17.8,17.8C402.7,262.3,394.7,270.3,384.9,270.3z M124.1,237.7c-8.2,0-14.8,6.6-14.8,14.8
					c0,8.2,6.6,14.8,14.8,14.8h260.8c8.2,0,14.8-6.6,14.8-14.8c0-8.2-6.6-14.8-14.8-14.8H124.1z M384.9,172.5H124.1
					c-9.8,0-17.8-8-17.8-17.8s8-17.8,17.8-17.8h260.8c9.8,0,17.8,8,17.8,17.8S394.7,172.5,384.9,172.5z M124.1,139.9
					c-8.2,0-14.8,6.6-14.8,14.8s6.6,14.8,14.8,14.8h260.8c8.2,0,14.8-6.6,14.8-14.8s-6.6-14.8-14.8-14.8H124.1z"/>
			</g>
		</g>
	</g>
</g>
</svg>
