<?xml version="1.0" encoding="utf-8"?>
<!-- Generator: Adobe Illustrator 22.1.0, SVG Export Plug-In . SVG Version: 6.00 Build 0)  -->
<svg version="1.1" id="Warstwa_1" xmlns="http://www.w3.org/2000/svg" xmlns:xlink="http://www.w3.org/1999/xlink" x="0px" y="0px"
	 viewBox="0 0 60 60" style="enable-background:new 0 0 60 60;" xml:space="preserve">
<style type="text/css">
	.st0{fill:#FFFFFF;}
</style>
<g>
	<g>
		<g>
			<g>
				<path class="st0" d="M23.6,47.2c-3.1,0-5.7-2.2-5.7-4.9c0,0,0,0,0,0c-2.6-1.1-4.2-3.3-4.2-5.8c0-0.5,0.1-1,0.2-1.5
					c-2.2-1.4-3.4-3.8-3.4-6.4c0-2.8,1.3-5.1,3.6-6.6c-0.1-0.3-0.1-0.6-0.1-0.9c0-2.3,1.5-4.5,3.8-5.6c0-0.1,0-0.1,0-0.2
					c0-2.7,2.5-4.9,5.7-4.9c3.1,0,5.7,2.2,5.7,4.9v6.4c0,0.8-0.2,1.5-0.6,2.1l-0.4,0.6c-0.3,0.4-0.2,0.9,0.1,1.2l0.1,0.1
					c0.6,0.6,0.9,1.3,0.9,2.1v8c0,0.6-0.2,1.1-0.5,1.6c-0.3,0.4-0.3,0.9,0,1.4l0.1,0.2c0.3,0.4,0.4,0.9,0.4,1.5v2
					C29.3,45,26.7,47.2,23.6,47.2z M23.6,11.9c-2.3,0-4.1,1.5-4.1,3.3c0,0.2,0,0.3,0.1,0.5c0.1,0.4-0.1,0.7-0.5,0.9
					c-2.1,0.8-3.4,2.6-3.4,4.4c0,0.4,0.1,0.7,0.2,1.1c0.1,0.4-0.1,0.7-0.4,0.9c-2.1,1.1-3.3,3.1-3.3,5.5c0,2.4,1.1,4.3,3.1,5.4
					c0.3,0.2,0.5,0.6,0.3,1c-0.2,0.5-0.3,1-0.3,1.6c0,2,1.5,3.8,3.7,4.5c0.4,0.1,0.6,0.5,0.5,0.9c0,0.1,0,0.3,0,0.4
					c0,1.8,1.8,3.3,4.1,3.3c2.3,0,4.1-1.5,4.1-3.3v-2c0-0.2-0.1-0.5-0.2-0.7l-0.1-0.2c-0.5-0.9-0.5-2.1,0.1-3
					c0.1-0.2,0.2-0.5,0.2-0.7v-8c0-0.4-0.1-0.7-0.4-1l-0.1-0.1c-0.8-0.9-1-2.2-0.3-3.2l0.4-0.6c0.2-0.4,0.4-0.8,0.4-1.2v-6.4
					C27.7,13.4,25.8,11.9,23.6,11.9z"/>
			</g>
		</g>
		<path class="st0" d="M19.8,19.2c-0.2,0-0.4-0.1-0.6-0.3C18.4,18,18,17,18,15.9c0-0.4,0.4-0.8,0.8-0.8c0.4,0,0.8,0.4,0.8,0.8
			c0,0.7,0.3,1.3,0.8,1.9c0.3,0.3,0.3,0.8-0.1,1.1C20.2,19.1,20,19.2,19.8,19.2z"/>
		<path class="st0" d="M13.7,24.1c-0.2,0-0.5-0.1-0.6-0.3c-0.3-0.3-0.2-0.8,0.1-1.1c1.3-1,2.8-1.5,4.4-1.5c0.9,0,1.9,0.2,2.7,0.5
			c0.4,0.2,0.6,0.6,0.4,1c-0.2,0.4-0.6,0.6-1,0.4c-0.7-0.3-1.4-0.4-2.1-0.4c-1.2,0-2.4,0.4-3.4,1.2C14,24,13.8,24.1,13.7,24.1z"/>
		<path class="st0" d="M25.5,18.3c0,0-0.1,0-0.1,0c-0.4-0.1-0.7-0.5-0.6-0.9c0-0.2,0-0.5-0.1-0.7c-0.1-0.2-0.3-0.3-0.6-0.4
			c-0.2,0-0.5,0-0.6,0.1c-0.4,0.2-0.8,0.2-1.1-0.2c-0.2-0.4-0.2-0.8,0.2-1.1c0.5-0.4,1.2-0.5,1.8-0.4c0.6,0.1,1.2,0.5,1.6,1
			c0.4,0.5,0.5,1.2,0.4,1.8C26.2,18,25.9,18.3,25.5,18.3z"/>
		<path class="st0" d="M23.8,43.8c-0.5,0-1-0.1-1.4-0.4c-0.4-0.2-0.4-0.7-0.2-1.1c0.2-0.4,0.7-0.4,1.1-0.2c0.2,0.1,0.4,0.2,0.6,0.1
			c0.2,0,0.4-0.2,0.6-0.4c0.2-0.4,0.7-0.4,1.1-0.2c0.4,0.2,0.4,0.7,0.2,1.1c-0.4,0.5-0.9,0.9-1.6,1C24.1,43.7,24,43.8,23.8,43.8z"/>
		<path class="st0" d="M16.8,31.3c-0.1,0-0.2,0-0.2,0c-1-0.3-1.7-1.2-1.7-2.2c0-0.7,0.2-1.3,0.6-1.8c0.3-0.3,0.8-0.3,1.1-0.1
			c0.3,0.3,0.3,0.8,0.1,1.1c-0.2,0.2-0.2,0.4-0.2,0.6c0,0.4,0.3,0.7,0.6,0.8c0.4,0.1,0.6,0.6,0.5,1C17.5,31,17.2,31.3,16.8,31.3z"/>
		<path class="st0" d="M20.4,26.3c-0.2,0-0.3-0.1-0.5-0.2c-0.6-0.5-1-1.2-1.1-2c-0.2-1.6,1-3.1,2.6-3.3c0.8-0.1,1.6,0.1,2.2,0.6
			c0.3,0.3,0.4,0.8,0.1,1.1c-0.3,0.3-0.8,0.4-1.1,0.1c-0.3-0.2-0.7-0.4-1-0.3c-0.8,0.1-1.3,0.8-1.2,1.6c0,0.4,0.2,0.7,0.5,0.9
			c0.3,0.3,0.4,0.8,0.1,1.1C20.8,26.2,20.6,26.3,20.4,26.3z"/>
		<path class="st0" d="M20,29.6c-0.3,0-0.5-0.1-0.6-0.3c-0.2-0.4-0.2-0.8,0.2-1.1c0.4-0.3,0.6-0.7,0.6-1.2c0-0.4-0.1-0.7-0.3-0.9
			c-0.3-0.3-0.3-0.8,0.1-1.1c0.3-0.3,0.8-0.3,1.1,0.1c0.5,0.5,0.7,1.2,0.7,2c0,1-0.5,1.9-1.3,2.5C20.3,29.6,20.1,29.6,20,29.6z"/>
		<path class="st0" d="M27.7,26.9c-0.2,0-0.4-0.1-0.6-0.2c-0.4-0.4-1.1-0.6-1.6-0.5c-0.4,0.1-0.8-0.2-0.9-0.6
			c-0.1-0.4,0.2-0.8,0.6-0.9c1.1-0.2,2.3,0.1,3.1,0.9c0.3,0.3,0.3,0.8,0,1.1C28.1,26.8,27.9,26.9,27.7,26.9z"/>
		<path class="st0" d="M16.9,35.8c-1.2,0-2.4-0.4-3.4-1.1c-0.3-0.3-0.4-0.8-0.2-1.1c0.3-0.3,0.8-0.4,1.1-0.2
			c0.7,0.5,1.5,0.8,2.4,0.8c0.4,0,0.8,0.4,0.8,0.8S17.3,35.8,16.9,35.8z"/>
		<g>
			<path class="st0" d="M21.5,38.6c-0.3,0-0.7-0.2-0.8-0.6c-0.1-0.4,0.1-0.9,0.5-1c0.2-0.1,0.5-0.2,0.6-0.5c0.2-0.5,0.1-1-0.4-1.3
				c-0.3-0.2-0.6-0.1-0.9,0c-0.4,0.2-0.9,0.1-1.1-0.3c-0.2-0.4-0.1-0.9,0.3-1.1c0.8-0.4,1.7-0.5,2.4,0c1.2,0.7,1.7,2.2,1,3.4
				c-0.3,0.6-0.9,1-1.5,1.2C21.6,38.6,21.5,38.6,21.5,38.6z"/>
			<path class="st0" d="M22.6,36.1c-0.3,0-0.6-0.2-0.7-0.4c-0.5-0.9-0.5-2,0-2.9c0.4-0.7,1-1.3,1.8-1.5c0.8-0.2,1.6-0.2,2.3,0.2
				c0.4,0.2,0.5,0.7,0.3,1.1c-0.2,0.4-0.7,0.5-1.1,0.3c-0.4-0.2-0.8-0.2-1.1-0.1c-0.4,0.1-0.7,0.4-0.9,0.7c-0.2,0.4-0.2,1,0,1.4
				c0.2,0.4,0,0.9-0.3,1.1C22.8,36.1,22.7,36.1,22.6,36.1z"/>
		</g>
		<path class="st0" d="M26.5,39.1c-0.3,0-0.6-0.2-0.7-0.5c-0.2-0.4,0-0.9,0.4-1c0.4-0.2,0.8-0.5,1.1-0.9c0.2-0.4,0.7-0.4,1.1-0.2
			c0.4,0.2,0.4,0.7,0.2,1.1c-0.5,0.6-1.1,1.1-1.8,1.4C26.7,39.1,26.6,39.1,26.5,39.1z"/>
		<path class="st0" d="M18.7,42.6c-0.2,0-0.4-0.1-0.6-0.3c-0.3-0.3-0.2-0.8,0.1-1.1l1.1-0.9c0.3-0.3,0.8-0.2,1.1,0.1
			c0.3,0.3,0.2,0.8-0.1,1.1l-1.1,0.9C19.1,42.5,18.9,42.6,18.7,42.6z"/>
	</g>
	<g>
		<g>
			<g>
				<path class="st0" d="M36.5,47.2c-3.1,0-5.7-2.2-5.7-4.9v-2c0-0.5,0.1-1,0.4-1.5l0.1-0.2c0.2-0.4,0.2-1,0-1.4
					c-0.3-0.5-0.5-1-0.5-1.6v-8c0-0.8,0.3-1.5,0.9-2.1l0.1-0.1c0.3-0.3,0.4-0.8,0.1-1.2l-0.4-0.6c-0.4-0.6-0.6-1.3-0.6-2.1v-6.4
					c0-2.7,2.5-4.9,5.7-4.9c3.1,0,5.7,2.2,5.7,4.9c0,0.1,0,0.1,0,0.2c2.3,1.1,3.8,3.3,3.8,5.6c0,0.3,0,0.6-0.1,0.9
					c2.3,1.4,3.6,3.8,3.6,6.6c0,2.7-1.2,5-3.4,6.4c0.1,0.5,0.2,1,0.2,1.5c0,2.5-1.6,4.7-4.2,5.8c0,0,0,0,0,0
					C42.1,45,39.6,47.2,36.5,47.2z M36.5,11.9c-2.3,0-4.1,1.5-4.1,3.3v6.4c0,0.4,0.1,0.9,0.4,1.2l0.4,0.6c0.7,1,0.6,2.3-0.3,3.2
					l-0.1,0.1c-0.3,0.3-0.4,0.6-0.4,1v8c0,0.3,0.1,0.5,0.2,0.7c0.6,0.9,0.6,2.1,0.1,3l-0.1,0.2c-0.1,0.2-0.2,0.4-0.2,0.7v2
					c0,1.8,1.8,3.3,4.1,3.3c2.3,0,4.1-1.5,4.1-3.3c0-0.1,0-0.3,0-0.4c-0.1-0.4,0.2-0.7,0.5-0.9c2.2-0.8,3.7-2.6,3.7-4.5
					c0-0.5-0.1-1.1-0.3-1.6c-0.2-0.4,0-0.8,0.3-1c2-1.1,3.1-3.1,3.1-5.4c0-2.4-1.2-4.4-3.3-5.5c-0.3-0.2-0.5-0.5-0.4-0.9
					c0.1-0.4,0.2-0.7,0.2-1.1c0-1.9-1.3-3.6-3.4-4.4c-0.4-0.1-0.6-0.5-0.5-0.9c0-0.2,0.1-0.4,0.1-0.5C40.6,13.4,38.7,11.9,36.5,11.9
					z"/>
			</g>
		</g>
		<path class="st0" d="M40.2,19.2c-0.2,0-0.4-0.1-0.5-0.2c-0.3-0.3-0.4-0.8-0.1-1.1c0.6-0.6,0.8-1.3,0.8-1.9c0-0.4,0.4-0.8,0.8-0.8
			c0.4,0,0.8,0.4,0.8,0.8c0,1-0.4,2-1.2,3C40.7,19.1,40.5,19.2,40.2,19.2z"/>
		<path class="st0" d="M46.4,24.1c-0.2,0-0.3-0.1-0.5-0.2c-1-0.8-2.2-1.2-3.4-1.2c-0.7,0-1.5,0.1-2.1,0.4c-0.4,0.2-0.9,0-1-0.4
			c-0.2-0.4,0-0.9,0.4-1c0.9-0.3,1.8-0.5,2.7-0.5c1.6,0,3,0.5,4.4,1.5c0.3,0.3,0.4,0.8,0.1,1.1C46.8,24,46.6,24.1,46.4,24.1z"/>
		<path class="st0" d="M34.5,18.3c-0.4,0-0.7-0.3-0.8-0.6c-0.1-0.6,0-1.3,0.4-1.8c0.4-0.5,0.9-0.9,1.6-1c0.6-0.1,1.3,0,1.8,0.4
			c0.4,0.2,0.5,0.7,0.2,1.1c-0.2,0.4-0.7,0.5-1.1,0.2c-0.2-0.1-0.4-0.2-0.6-0.1c-0.2,0-0.4,0.2-0.6,0.4c-0.1,0.2-0.2,0.4-0.1,0.7
			c0.1,0.4-0.2,0.8-0.6,0.9C34.6,18.3,34.6,18.3,34.5,18.3z"/>
		<path class="st0" d="M36.2,43.8c-0.1,0-0.3,0-0.4,0c-0.6-0.1-1.2-0.5-1.6-1c-0.2-0.4-0.2-0.8,0.2-1.1c0.4-0.2,0.8-0.2,1.1,0.2
			c0.1,0.2,0.3,0.3,0.6,0.4c0.2,0,0.5,0,0.6-0.1c0.4-0.2,0.8-0.2,1.1,0.2c0.2,0.4,0.2,0.8-0.2,1.1C37.2,43.6,36.7,43.8,36.2,43.8z"
			/>
		<path class="st0" d="M43.2,31.3c-0.3,0-0.6-0.2-0.7-0.6c-0.1-0.4,0.1-0.9,0.5-1c0.3-0.1,0.6-0.4,0.6-0.8c0-0.2-0.1-0.5-0.2-0.6
			c-0.3-0.3-0.3-0.8,0.1-1.1c0.3-0.3,0.8-0.3,1.1,0.1c0.4,0.5,0.7,1.1,0.6,1.8c-0.1,1-0.7,1.9-1.7,2.2
			C43.4,31.2,43.3,31.3,43.2,31.3z"/>
		<path class="st0" d="M39.7,26.3c-0.2,0-0.5-0.1-0.6-0.3c-0.3-0.3-0.2-0.8,0.1-1.1c0.3-0.2,0.5-0.6,0.5-0.9
			c0.1-0.8-0.5-1.5-1.2-1.6c-0.4,0-0.8,0.1-1,0.3c-0.3,0.3-0.8,0.2-1.1-0.1c-0.3-0.3-0.2-0.8,0.1-1.1c0.6-0.5,1.4-0.7,2.2-0.6
			c1.6,0.2,2.8,1.7,2.6,3.3c-0.1,0.8-0.5,1.5-1.1,2C40,26.2,39.9,26.3,39.7,26.3z"/>
		<path class="st0" d="M40.1,29.6c-0.2,0-0.3,0-0.4-0.1c-0.8-0.6-1.3-1.5-1.3-2.5c0-0.8,0.3-1.5,0.7-2c0.3-0.3,0.8-0.3,1.1-0.1
			c0.3,0.3,0.3,0.8,0.1,1.1c-0.2,0.2-0.3,0.6-0.3,0.9c0,0.5,0.2,0.9,0.6,1.2c0.4,0.2,0.5,0.7,0.2,1.1C40.6,29.5,40.3,29.6,40.1,29.6
			z"/>
		<path class="st0" d="M32.3,26.9c-0.2,0-0.4-0.1-0.6-0.2c-0.3-0.3-0.3-0.8,0-1.1c0.8-0.8,2-1.2,3.1-0.9c0.4,0.1,0.7,0.5,0.6,0.9
			c-0.1,0.4-0.5,0.7-0.9,0.6c-0.6-0.1-1.2,0.1-1.6,0.5C32.7,26.8,32.5,26.9,32.3,26.9z"/>
		<path class="st0" d="M43.2,35.8c-0.4,0-0.8-0.4-0.8-0.8s0.4-0.8,0.8-0.8c0.9,0,1.7-0.3,2.4-0.8c0.3-0.3,0.8-0.2,1.1,0.2
			c0.3,0.3,0.2,0.8-0.2,1.1C45.6,35.5,44.4,35.8,43.2,35.8z"/>
		<g>
			<path class="st0" d="M38.6,38.6c-0.1,0-0.1,0-0.2,0c-0.7-0.2-1.2-0.6-1.5-1.2c-0.7-1.2-0.2-2.8,1-3.4c0.8-0.4,1.7-0.4,2.4,0
				c0.4,0.2,0.5,0.7,0.3,1.1c-0.2,0.4-0.7,0.5-1.1,0.3c-0.3-0.2-0.6-0.2-0.9,0c-0.5,0.2-0.6,0.8-0.4,1.3c0.1,0.2,0.3,0.4,0.6,0.5
				c0.4,0.1,0.7,0.6,0.5,1C39.2,38.3,38.9,38.6,38.6,38.6z"/>
			<path class="st0" d="M37.5,36.1c-0.1,0-0.2,0-0.4-0.1c-0.4-0.2-0.5-0.7-0.3-1.1c0.2-0.4,0.2-1,0-1.4c-0.2-0.4-0.5-0.6-0.9-0.7
				c-0.4-0.1-0.8-0.1-1.1,0.1c-0.4,0.2-0.9,0.1-1.1-0.3c-0.2-0.4-0.1-0.9,0.3-1.1c0.7-0.4,1.5-0.5,2.3-0.2c0.8,0.2,1.4,0.8,1.8,1.5
				c0.5,0.9,0.5,2,0,2.9C38,36,37.8,36.1,37.5,36.1z"/>
		</g>
		<path class="st0" d="M33.6,39.1c-0.1,0-0.2,0-0.3-0.1c-0.7-0.3-1.3-0.8-1.8-1.4c-0.2-0.4-0.2-0.8,0.2-1.1c0.4-0.3,0.8-0.2,1.1,0.2
			c0.3,0.4,0.7,0.7,1.1,0.9c0.4,0.2,0.6,0.6,0.4,1C34.2,38.9,33.9,39.1,33.6,39.1z"/>
		<path class="st0" d="M41.3,42.6c-0.2,0-0.4-0.1-0.5-0.2l-1.1-0.9c-0.3-0.3-0.4-0.8-0.1-1.1c0.3-0.3,0.8-0.4,1.1-0.1l1.1,0.9
			c0.3,0.3,0.4,0.8,0.1,1.1C41.8,42.5,41.5,42.6,41.3,42.6z"/>
	</g>
	<path class="st0" d="M37.1,55.1H23c-0.4,0-0.8-0.4-0.8-0.8v-3.9c0-0.4,0.4-0.8,0.8-0.8h14.1c0.4,0,0.8,0.4,0.8,0.8v3.9
		C37.9,54.7,37.5,55.1,37.1,55.1z M23.7,53.5h12.6v-2.4H23.7V53.5z"/>
	<path class="st0" d="M33.9,59h-7.8c-0.2,0-0.5-0.1-0.6-0.3l-3.1-3.9c-0.2-0.2-0.2-0.6-0.1-0.8c0.1-0.3,0.4-0.4,0.7-0.4h14.1
		c0.3,0,0.6,0.2,0.7,0.4c0.1,0.3,0.1,0.6-0.1,0.8l-3.1,3.9C34.4,58.9,34.2,59,33.9,59z M26.5,57.4h7.1l1.9-2.4H24.6L26.5,57.4z"/>
	<path class="st0" d="M30,8c-0.4,0-0.8-0.4-0.8-0.8V2.5c0-0.4,0.4-0.8,0.8-0.8c0.4,0,0.8,0.4,0.8,0.8v4.7C30.8,7.7,30.5,8,30,8z"/>
	<path class="st0" d="M58.2,28.4h-4.7c-0.4,0-0.8-0.4-0.8-0.8c0-0.4,0.4-0.8,0.8-0.8h4.7c0.4,0,0.8,0.4,0.8,0.8
		C59,28.1,58.6,28.4,58.2,28.4z"/>
	<g>
		<path class="st0" d="M45.7,12.7c-0.2,0-0.4-0.1-0.6-0.2c-0.3-0.3-0.3-0.8,0-1.1l0.6-0.6c0.3-0.3,0.8-0.3,1.1,0
			c0.3,0.3,0.3,0.8,0,1.1l-0.6,0.6C46.1,12.6,45.9,12.7,45.7,12.7z"/>
		<path class="st0" d="M48.5,9.9c-0.2,0-0.4-0.1-0.6-0.2c-0.3-0.3-0.3-0.8,0-1.1l1.7-1.7c0.3-0.3,0.8-0.3,1.1,0
			c0.3,0.3,0.3,0.8,0,1.1L49,9.7C48.9,9.9,48.7,9.9,48.5,9.9z"/>
	</g>
	<g>
		<path class="st0" d="M6.5,28.4H1.8c-0.4,0-0.8-0.4-0.8-0.8c0-0.4,0.4-0.8,0.8-0.8h4.7c0.4,0,0.8,0.4,0.8,0.8
			C7.3,28.1,6.9,28.4,6.5,28.4z"/>
		<g>
			<path class="st0" d="M14.3,12.7c-0.2,0-0.4-0.1-0.6-0.2l-0.6-0.6c-0.3-0.3-0.3-0.8,0-1.1c0.3-0.3,0.8-0.3,1.1,0l0.6,0.6
				c0.3,0.3,0.3,0.8,0,1.1C14.7,12.6,14.5,12.7,14.3,12.7z"/>
			<path class="st0" d="M11.5,9.9c-0.2,0-0.4-0.1-0.6-0.2L9.3,8.1C9,7.7,9,7.2,9.3,6.9c0.3-0.3,0.8-0.3,1.1,0l1.7,1.7
				c0.3,0.3,0.3,0.8,0,1.1C11.9,9.9,11.7,9.9,11.5,9.9z"/>
		</g>
	</g>
</g>
</svg>
