<?xml version="1.0" encoding="utf-8"?>
<!-- Generator: Adobe Illustrator 22.1.0, SVG Export Plug-In . SVG Version: 6.00 Build 0)  -->
<svg version="1.1" id="Warstwa_1" xmlns="http://www.w3.org/2000/svg" xmlns:xlink="http://www.w3.org/1999/xlink" x="0px" y="0px"
	 viewBox="0 0 60 60" style="enable-background:new 0 0 60 60;" xml:space="preserve">
<style type="text/css">
	.st0{fill:#FFFFFF;}
</style>
<g>
	<g>
		<path class="st0" d="M43.2,52H10.7c-0.4,0-0.8-0.4-0.8-0.8V13.1c0-0.4,0.4-0.8,0.8-0.8H18v1.6h-6.5v36.5h30.8v-8.9H44v9.7
			C44,51.7,43.6,52,43.2,52z"/>
		<path class="st0" d="M43.2,31.7c-0.4,0-0.8-0.4-0.8-0.8v-17h-6.5c-0.4,0-0.8-0.4-0.8-0.8c0-0.4,0.4-0.8,0.8-0.8h7.3
			c0.4,0,0.8,0.4,0.8,0.8v17.9C44,31.4,43.6,31.7,43.2,31.7z"/>
		<path class="st0" d="M35.9,13.9H18c-0.4,0-0.8-0.4-0.8-0.8V5.8c0-0.4,0.4-0.8,0.8-0.8h5.2c0.6-1.5,2.1-2.4,3.7-2.4
			c1.6,0,3.1,1,3.7,2.4h5.2c0.4,0,0.8,0.4,0.8,0.8v7.3C36.7,13.5,36.3,13.9,35.9,13.9z M18.8,12.2h16.2V6.6h-5
			c-0.4,0-0.7-0.3-0.8-0.6C29,4.9,28.1,4.1,27,4.1c-1.1,0-2.1,0.8-2.3,1.8c-0.1,0.4-0.4,0.6-0.8,0.6h-5V12.2z"/>
		<path class="st0" d="M47.2,56.1H6.7c-0.4,0-0.8-0.4-0.8-0.8V9c0-0.4,0.4-0.8,0.8-0.8H18v1.6H7.5v44.6h39V38.2h1.6v17
			C48.1,55.7,47.7,56.1,47.2,56.1z"/>
		<path class="st0" d="M47.2,27.7c-0.4,0-0.8-0.4-0.8-0.8v-17H35.9c-0.4,0-0.8-0.4-0.8-0.8s0.4-0.8,0.8-0.8h11.4
			c0.4,0,0.8,0.4,0.8,0.8v17.9C48.1,27.3,47.7,27.7,47.2,27.7z"/>
		<g>
			<path class="st0" d="M18,24.4h-1.6c-0.4,0-0.8-0.4-0.8-0.8s0.4-0.8,0.8-0.8H18c0.4,0,0.8,0.4,0.8,0.8S18.5,24.4,18,24.4z"/>
			<path class="st0" d="M37.5,24.4H22.9c-0.4,0-0.8-0.4-0.8-0.8s0.4-0.8,0.8-0.8h14.6c0.4,0,0.8,0.4,0.8,0.8S38,24.4,37.5,24.4z"/>
		</g>
		<g>
			<path class="st0" d="M18,33.4h-1.6c-0.4,0-0.8-0.4-0.8-0.8c0-0.4,0.4-0.8,0.8-0.8H18c0.4,0,0.8,0.4,0.8,0.8
				C18.8,33,18.5,33.4,18,33.4z"/>
			<path class="st0" d="M35.9,33.4h-13c-0.4,0-0.8-0.4-0.8-0.8c0-0.4,0.4-0.8,0.8-0.8h13c0.4,0,0.8,0.4,0.8,0.8
				C36.7,33,36.3,33.4,35.9,33.4z"/>
		</g>
		<g>
			<path class="st0" d="M18,42.3h-1.6c-0.4,0-0.8-0.4-0.8-0.8s0.4-0.8,0.8-0.8H18c0.4,0,0.8,0.4,0.8,0.8S18.5,42.3,18,42.3z"/>
			<path class="st0" d="M33.4,42.3H22.9c-0.4,0-0.8-0.4-0.8-0.8s0.4-0.8,0.8-0.8h10.6c0.4,0,0.8,0.4,0.8,0.8S33.9,42.3,33.4,42.3z"
				/>
		</g>
	</g>
	<g>
		<path class="st0" d="M42.3,40.1c-0.2,0-0.4-0.1-0.6-0.2l-3.5-3.4c-0.3-0.3-0.3-0.8,0-1.1l14.9-15c0.2-0.2,0.4-0.2,0.6-0.2
			c0,0,0,0,0,0c0.2,0,0.4,0.1,0.6,0.2l3.5,3.4c0.3,0.3,0.3,0.8,0,1.1l-14.9,15C42.7,40,42.5,40.1,42.3,40.1L42.3,40.1z M40,35.9
			l2.3,2.3L56,24.3l-2.3-2.3L40,35.9z"/>
		<path class="st0" d="M37.7,41.3c-0.2,0-0.4-0.1-0.6-0.2c-0.2-0.2-0.3-0.5-0.2-0.8l1.1-4.6c0.1-0.3,0.3-0.5,0.6-0.6
			c0.3-0.1,0.6,0,0.8,0.2l3.5,3.4c0.2,0.2,0.3,0.5,0.2,0.8c-0.1,0.3-0.3,0.5-0.6,0.6l-4.6,1.2C37.8,41.3,37.8,41.3,37.7,41.3z
			 M39.3,37.4l-0.5,1.9l1.9-0.5L39.3,37.4z"/>
	</g>
</g>
</svg>
