<?xml version="1.0" encoding="utf-8"?>
<!-- Generator: Adobe Illustrator 22.1.0, SVG Export Plug-In . SVG Version: 6.00 Build 0)  -->
<svg version="1.1" id="Warstwa_1" xmlns="http://www.w3.org/2000/svg" xmlns:xlink="http://www.w3.org/1999/xlink" x="0px" y="0px"
	 viewBox="0 0 60 60" style="enable-background:new 0 0 60 60;" xml:space="preserve">
<style type="text/css">
	.st0{fill:#FFFFFF;}
</style>
<g>
	<path class="st0" d="M16.4,22.5h-1.4V9.6c0-0.8-0.8-1.5-1.7-1.5c-0.9,0-1.7,0.7-1.7,1.5v12.9h-1.4V9.6c0-1.6,1.4-2.9,3.1-2.9
		c1.7,0,3.1,1.3,3.1,2.9V22.5z"/>
	<path class="st0" d="M16.4,22.5H15V6.1c0-1.6,1.4-2.9,3.1-2.9c1.7,0,3.1,1.3,3.1,2.9v16.3h-1.4V6.1c0-0.8-0.8-1.5-1.7-1.5
		c-0.9,0-1.7,0.7-1.7,1.5V22.5z"/>
	<path class="st0" d="M24.8,15.3l-0.1-5.6c0-0.8-0.8-1.5-1.7-1.5c-0.9,0-1.7,0.7-1.7,1.5h-1.4c0-1.6,1.4-2.9,3.1-2.9
		c1.7,0,3.1,1.3,3.1,2.9l0.1,5.6L24.8,15.3z"/>
	<path class="st0" d="M26,45.7l-0.2-1.4c0.6-0.1,1.6-0.3,1.9-0.6c1.1-1.1,1.8-2.8,2-4.7l1.4,0.1c-0.2,2.2-1.1,4.2-2.4,5.6
		C28,45.4,26.3,45.7,26,45.7z"/>
	<rect x="27.5" y="44.3" class="st0" width="1.4" height="8.8"/>
	<path class="st0" d="M12.2,53.2h-1.4v-9.1C7,43.8,4,40.7,4,36.8V21.5c0-2.3,1.7-4.1,3.8-4.1c2.1,0,3.8,1.8,3.8,4.1v6.7
		c4,0.1,7.2,3.4,7.2,7.3h-1.4c0-3.3-2.7-5.9-5.9-5.9c-0.2,0-0.3,0-0.5,0c-0.2,0-0.4-0.1-0.5-0.2c-0.1-0.1-0.2-0.3-0.2-0.5v-7.5
		c0-1.5-1-2.7-2.3-2.7S5.4,20,5.4,21.5v15.3c0,3.3,2.7,5.9,5.9,5.9c0.3,0,0.6,0.2,0.7,0.5l0.1,0.5c0,0.1,0,0.1,0,0.2V53.2z"/>
</g>
<path class="st0" d="M50.9,22.5h-1.4V9.6c0-0.8-0.8-1.5-1.7-1.5s-1.7,0.7-1.7,1.5v12.9h-1.4V9.6c0-1.6,1.4-2.9,3.1-2.9
	c1.7,0,3.1,1.3,3.1,2.9V22.5z"/>
<path class="st0" d="M46,22.5h-1.4V6.1c0-0.8-0.8-1.5-1.7-1.5c-0.9,0-1.7,0.7-1.7,1.5v16.3h-1.4V6.1c0-1.6,1.4-2.9,3.1-2.9
	c1.7,0,3.1,1.3,3.1,2.9V22.5z"/>
<path class="st0" d="M34.9,15.3l-0.1-5.6c0-1.6,1.4-3,3.1-3c1.7,0,3.1,1.3,3.1,2.9h-1.4c0-0.8-0.8-1.5-1.7-1.5
	c-0.9,0-1.7,0.7-1.7,1.5l0.1,5.6L34.9,15.3z"/>
<path class="st0" d="M31.2,15.2h-1.4v-1.7c0-1.6,1.5-2.8,3.3-2.8c1.8,0,3.2,1.3,3.2,2.9h-1.4c0-0.8-0.8-1.5-1.8-1.5
	c-0.9,0-1.9,0.6-1.9,1.4V15.2z"/>
<path class="st0" d="M31.2,15.2h-1.4v-1.7c0-0.8-0.7-1.4-1.7-1.4c-0.9,0-1.9,0.6-1.9,1.4h-1.4c0-1.6,1.5-2.8,3.3-2.8
	c1.8,0,3.1,1.2,3.1,2.9V15.2z"/>
<path class="st0" d="M35,45.7c-0.3,0-2-0.3-2.8-1c-1.4-1.3-2.3-3.4-2.5-5.6l1.4-0.1c0.2,1.8,0.9,3.6,2.1,4.7
	c0.3,0.3,1.3,0.6,1.9,0.6L35,45.7z"/>
<rect x="32.1" y="44.3" class="st0" width="1.4" height="8.8"/>
<path class="st0" d="M50.2,53.2h-1.4v-9.2c0-0.1,0-0.1,0-0.2l0.1-0.5c0.1-0.3,0.4-0.5,0.7-0.5c3.3,0,5.9-2.7,5.9-5.9V21.5
	c0-1.5-1-2.7-2.3-2.7s-2.3,1.2-2.3,2.7V29c0,0.2-0.1,0.4-0.2,0.5c-0.1,0.1-0.3,0.2-0.5,0.2c-0.2,0-0.3,0-0.5,0
	c-3.3,0-5.9,2.7-5.9,5.9h-1.4c0-4,3.2-7.3,7.2-7.3v-6.7c0-2.3,1.7-4.1,3.8-4.1c2.1,0,3.8,1.8,3.8,4.1v15.3c0,3.9-3,7-6.8,7.3V53.2z"
	/>
<g>
	<g>
		<g>
			<path class="st0" d="M33.6,32.2C33.6,32.2,33.5,32.2,33.6,32.2c-0.5,0-0.7-0.4-0.7-0.8l0-0.4c0.2-1.3,0.8-2.4,1.7-3.4
				c1.1-1.1,1.7-2.5,1.7-4.1c0-1.6-0.7-3.2-1.9-4.3c-1.2-1.1-2.9-1.6-4.6-1.4c-2.6,0.3-4.8,2.4-5.1,5c-0.2,1.8,0.4,3.6,1.7,4.9
				c1,0.9,1.6,2.2,1.6,3.6l0,0.1c0,0.4-0.3,0.7-0.7,0.8c-0.4,0-0.7-0.3-0.8-0.7l0-0.1c-0.1-1-0.5-2-1.2-2.7
				c-1.7-1.6-2.4-3.8-2.2-6.1c0.4-3.2,3.1-5.9,6.3-6.2c2.1-0.2,4.1,0.4,5.7,1.8c1.5,1.4,2.4,3.3,2.4,5.3c0,1.9-0.7,3.7-2.1,5.1
				c-0.7,0.7-1.2,1.6-1.3,2.5l0,0.4C34.3,31.9,34,32.2,33.6,32.2z"/>
		</g>
		<path class="st0" d="M33.7,34.9h-6.5c-0.4,0-0.7-0.3-0.7-0.7s0.3-0.7,0.7-0.7h6.5c0.4,0,0.7,0.3,0.7,0.7S34.1,34.9,33.7,34.9z"/>
		<path class="st0" d="M32.5,37.8h-4c-0.4,0-0.7-0.3-0.7-0.7s0.3-0.7,0.7-0.7h4c0.4,0,0.7,0.3,0.7,0.7S32.9,37.8,32.5,37.8z"/>
	</g>
</g>
</svg>
