<?xml version="1.0" encoding="utf-8"?>
<!-- Generator: Adobe Illustrator 22.1.0, SVG Export Plug-In . SVG Version: 6.00 Build 0)  -->
<svg version="1.1" id="Warstwa_1" xmlns="http://www.w3.org/2000/svg" xmlns:xlink="http://www.w3.org/1999/xlink" x="0px" y="0px"
	 viewBox="0 0 60 60" style="enable-background:new 0 0 60 60;" xml:space="preserve">
<style type="text/css">
	.st0{fill:#FFFFFF;}
</style>
<g>
	<g>
		<path class="st0" d="M51.9,49.7H8.1V25.5c0-2.5,2.1-4.6,4.6-4.6h10.5v1.5H12.7c-1.7,0-3.1,1.4-3.1,3.1v22.6h40.9V25.5
			c0-1.7-1.4-3.1-3.1-3.1H36.8v-1.5h10.5c2.5,0,4.6,2.1,4.6,4.6V49.7z"/>
		<polygon class="st0" points="13.4,46.6 11.8,46.6 11.8,24.7 23.2,24.7 23.2,26.2 13.4,26.2 		"/>
		<polygon class="st0" points="48.2,46.6 46.6,46.6 46.6,26.2 36.8,26.2 36.8,24.7 48.2,24.7 		"/>
		<path class="st0" d="M52.8,55H7.2C4.3,55,2,52.7,2,49.8v-0.9c0-0.4,0.3-0.8,0.8-0.8h54.5c0.4,0,0.8,0.3,0.8,0.8v0.9
			C58,52.7,55.7,55,52.8,55z M3.5,49.7v0.1c0,2,1.6,3.6,3.6,3.6h45.7c2,0,3.7-1.6,3.7-3.6v-0.1H3.5z"/>
	</g>
	<g>
		<path class="st0" d="M30,9.6c-2.1,0-3.8-1.7-3.8-3.8S27.9,2,30,2s3.8,1.7,3.8,3.8S32.1,9.6,30,9.6z M30,3.5c-1.3,0-2.3,1-2.3,2.3
			s1,2.3,2.3,2.3s2.3-1,2.3-2.3S31.3,3.5,30,3.5z"/>
		<path class="st0" d="M42.1,13.4c-2.1,0-3.8-1.7-3.8-3.8s1.7-3.8,3.8-3.8s3.8,1.7,3.8,3.8S44.2,13.4,42.1,13.4z M42.1,7.3
			c-1.3,0-2.3,1-2.3,2.3s1,2.3,2.3,2.3s2.3-1,2.3-2.3S43.4,7.3,42.1,7.3z"/>
		<rect x="29.2" y="24.7" class="st0" width="1.5" height="1.5"/>
		<rect x="29.2" y="20.9" class="st0" width="1.5" height="1.5"/>
		<rect x="33.8" y="20.9" class="st0" width="1.5" height="1.5"/>
		<rect x="29.2" y="8.8" class="st0" width="1.5" height="9.8"/>
		<polygon class="st0" points="35.3,18.6 33.8,18.6 33.8,14.5 39.4,10.5 40.3,11.7 35.3,15.3 		"/>
		<path class="st0" d="M17.9,13.4c-2.1,0-3.8-1.7-3.8-3.8s1.7-3.8,3.8-3.8s3.8,1.7,3.8,3.8S20,13.4,17.9,13.4z M17.9,7.3
			c-1.3,0-2.3,1-2.3,2.3s1,2.3,2.3,2.3c1.3,0,2.3-1,2.3-2.3S19.1,7.3,17.9,7.3z"/>
		<rect x="24.7" y="20.9" class="st0" width="1.5" height="1.5"/>
		<polygon class="st0" points="26.2,18.6 24.7,18.6 24.7,15.3 19.7,11.7 20.6,10.5 26.2,14.5 		"/>
	</g>
</g>
</svg>
