<?xml version="1.0" encoding="utf-8"?>
<!-- Generator: Adobe Illustrator 15.0.0, SVG Export Plug-In . SVG Version: 6.00 Build 0)  -->
<!DOCTYPE svg PUBLIC "-//W3C//DTD SVG 1.1//EN" "http://www.w3.org/Graphics/SVG/1.1/DTD/svg11.dtd">
<svg version="1.1" id="Warstwa_1" xmlns="http://www.w3.org/2000/svg" xmlns:xlink="http://www.w3.org/1999/xlink" x="0px" y="0px"
	 width="528.266px" height="663.808px" viewBox="0 0 528.266 663.808" enable-background="new 0 0 528.266 663.808"
	 xml:space="preserve">
<g>
	<defs>
		<path id="SVGID_1_" d="M140.524,553.409c0.692,0.234,1.38,0.472,2.067,0.718L304.555,259.54c-0.692-0.246-1.38-0.487-2.067-0.718
			L140.524,553.409z"/>
	</defs>
	<clipPath id="SVGID_2_">
		<use xlink:href="#SVGID_1_"  overflow="visible"/>
	</clipPath>
	
		<linearGradient id="SVGID_3_" gradientUnits="userSpaceOnUse" x1="0" y1="663.8081" x2="1" y2="663.8081" gradientTransform="matrix(167.446 -290.1509 168.6518 183.634 -111813.5703 -121346.1641)">
		<stop  offset="0" style="stop-color:#A7519F"/>
		<stop  offset="0.0508" style="stop-color:#A2619F"/>
		<stop  offset="0.1785" style="stop-color:#947DA1"/>
		<stop  offset="0.3097" style="stop-color:#8592A0"/>
		<stop  offset="0.4419" style="stop-color:#77A39E"/>
		<stop  offset="0.5757" style="stop-color:#6AAE9A"/>
		<stop  offset="0.7118" style="stop-color:#5EB697"/>
		<stop  offset="0.8514" style="stop-color:#56BB95"/>
		<stop  offset="1" style="stop-color:#52BE95"/>
	</linearGradient>
	<polygon clip-path="url(#SVGID_2_)" fill="url(#SVGID_3_)" points="241.257,663.808 409.212,372.776 203.821,149.14 
		35.867,440.172 	"/>
</g>
<g>
	<defs>
		<path id="SVGID_4_" d="M163.902,478.841c0.316,0.12,0.648,0.251,1.265,0.502c0.316,0.125,0.627,0.251,1.285,0.517
			c0.302,0.125,0.607,0.251,1.29,0.536c0.296,0.125,0.587,0.247,1.274,0.543c0.297,0.125,0.584,0.251,1.28,0.552
			c0.286,0.126,0.568,0.245,1.285,0.566c0.282,0.132,0.562,0.252,1.266,0.573l0.014,0.004l161.964-294.585
			c-0.005-0.005-0.01-0.01-0.017-0.01c-0.701-0.317-0.982-0.442-1.265-0.568c-0.717-0.316-1.003-0.441-1.289-0.566
			c-0.692-0.307-0.983-0.432-1.274-0.552c-0.693-0.302-0.983-0.422-1.28-0.542c-0.683-0.286-0.983-0.412-1.285-0.537
			c-0.662-0.267-0.972-0.397-1.289-0.522c-0.618-0.246-0.944-0.377-1.265-0.503L163.902,478.841z"/>
	</defs>
	<clipPath id="SVGID_5_">
		<use xlink:href="#SVGID_4_"  overflow="visible"/>
	</clipPath>
	
		<linearGradient id="SVGID_6_" gradientUnits="userSpaceOnUse" x1="0" y1="663.8091" x2="1" y2="663.8091" gradientTransform="matrix(169.0135 -292.8669 170.2305 185.3529 -112835.6484 -122558.9063)">
		<stop  offset="0" style="stop-color:#A7519F"/>
		<stop  offset="0.0508" style="stop-color:#A2619F"/>
		<stop  offset="0.1785" style="stop-color:#947DA1"/>
		<stop  offset="0.3097" style="stop-color:#8592A0"/>
		<stop  offset="0.4419" style="stop-color:#77A39E"/>
		<stop  offset="0.5757" style="stop-color:#6AAE9A"/>
		<stop  offset="0.7118" style="stop-color:#5EB697"/>
		<stop  offset="0.8514" style="stop-color:#56BB95"/>
		<stop  offset="1" style="stop-color:#52BE95"/>
	</linearGradient>
	<polygon clip-path="url(#SVGID_5_)" fill="url(#SVGID_6_)" points="268.868,596.924 440.574,299.392 229.859,69.958 
		58.153,367.491 	"/>
</g>
<g>
	<defs>
		<rect id="SVGID_7_" width="528.266" height="663.808"/>
	</defs>
	<clipPath id="SVGID_8_">
		<use xlink:href="#SVGID_7_"  overflow="visible"/>
	</clipPath>
	<path clip-path="url(#SVGID_8_)" fill="#4FBC95" d="M222.738,439.702h-9.593c-11.475,0-20.503-9.217-20.503-20.502v-60.943
		c0-11.286,9.028-20.503,20.503-20.503h9.593c11.285,0,20.502,9.217,20.502,20.503V419.2
		C243.24,430.485,234.023,439.702,222.738,439.702 M213.145,352.801c-3.01,0-5.455,2.445-5.455,5.455V419.2
		c0,3.009,2.445,5.454,5.455,5.454h9.593c3.009,0,5.454-2.445,5.454-5.454v-60.943c0-3.01-2.445-5.455-5.454-5.455H213.145z"/>
</g>
<g>
	<defs>
		<path id="SVGID_9_" d="M177.935,414.058l2.827,3.078L347.619,113.71l-1.197-1.303c-0.859-0.036-1.714-0.062-2.563-0.079
			L177.935,414.058z"/>
	</defs>
	<clipPath id="SVGID_10_">
		<use xlink:href="#SVGID_9_"  overflow="visible"/>
	</clipPath>
	
		<linearGradient id="SVGID_11_" gradientUnits="userSpaceOnUse" x1="0" y1="663.812" x2="1" y2="663.812" gradientTransform="matrix(171.9237 -297.9097 173.1617 188.5444 -114769.4609 -124744.7734)">
		<stop  offset="0" style="stop-color:#A7519F"/>
		<stop  offset="0.0508" style="stop-color:#A2619F"/>
		<stop  offset="0.1785" style="stop-color:#947DA1"/>
		<stop  offset="0.3097" style="stop-color:#8592A0"/>
		<stop  offset="0.4419" style="stop-color:#77A39E"/>
		<stop  offset="0.5757" style="stop-color:#6AAE9A"/>
		<stop  offset="0.7118" style="stop-color:#5EB697"/>
		<stop  offset="0.8514" style="stop-color:#56BB95"/>
		<stop  offset="1" style="stop-color:#52BE95"/>
	</linearGradient>
	<polygon clip-path="url(#SVGID_10_)" fill="url(#SVGID_11_)" points="282.14,530.598 455.645,229.95 243.414,-1.134 69.91,299.515 
			"/>
</g>
<g>
	<defs>
		<rect id="SVGID_12_" width="528.266" height="663.808"/>
	</defs>
	<clipPath id="SVGID_13_">
		<use xlink:href="#SVGID_12_"  overflow="visible"/>
	</clipPath>
	<rect x="101.986" y="440.717" clip-path="url(#SVGID_13_)" fill="#4FBC95" width="47.862" height="14.949"/>
	<path clip-path="url(#SVGID_13_)" fill="#4FBC95" d="M183.728,334.735v164.212c0,13.543-11.099,24.454-24.453,24.454
		c-13.544,0-24.454-10.911-24.454-24.454v-58.311h15.049v58.311c0,5.079,4.137,9.217,9.405,9.217c5.078,0,9.216-4.138,9.216-9.217
		v-62.449h-12.603c-9.028,0-15.8-4.891-18.998-14.106c-2.257-6.021-2.445-12.791-2.445-17.306v-70.351h15.236l-0.188,70.351
		c0,1.881,0,7.899,1.505,12.227c1.504,4.137,3.385,4.137,4.89,4.137h12.603v-86.714H183.728z"/>
</g>
<g>
	<defs>
		<path id="SVGID_14_" d="M286.813,169.785L124.849,464.376h0.001c1.511-0.086,3.031-0.146,4.566-0.171l161.96-294.59l-0.001-0.001
			C289.839,169.645,288.313,169.7,286.813,169.785"/>
	</defs>
	<clipPath id="SVGID_15_">
		<use xlink:href="#SVGID_14_"  overflow="visible"/>
	</clipPath>
	
		<linearGradient id="SVGID_16_" gradientUnits="userSpaceOnUse" x1="4.882813e-004" y1="663.8081" x2="1.0005" y2="663.8081" gradientTransform="matrix(168.7249 -292.3669 169.9399 185.0365 -112683.75 -122365.5234)">
		<stop  offset="0" style="stop-color:#A7519F"/>
		<stop  offset="0.0508" style="stop-color:#A2619F"/>
		<stop  offset="0.1785" style="stop-color:#947DA1"/>
		<stop  offset="0.3097" style="stop-color:#8592A0"/>
		<stop  offset="0.4419" style="stop-color:#77A39E"/>
		<stop  offset="0.5757" style="stop-color:#6AAE9A"/>
		<stop  offset="0.7118" style="stop-color:#5EB697"/>
		<stop  offset="0.8514" style="stop-color:#56BB95"/>
		<stop  offset="1" style="stop-color:#52BE95"/>
	</linearGradient>
	<polygon clip-path="url(#SVGID_15_)" fill="url(#SVGID_16_)" points="227.115,575.727 395.841,283.359 189.11,58.263 
		20.384,350.631 	"/>
</g>
<g>
	<defs>
		<path id="SVGID_17_" d="M124.849,464.376L124.849,464.376c1.512-0.086,3.032-0.146,4.567-0.171l54.312-98.637v-8.114
			L124.849,464.376z"/>
	</defs>
	<clipPath id="SVGID_18_">
		<use xlink:href="#SVGID_17_"  overflow="visible"/>
	</clipPath>
	
		<linearGradient id="SVGID_19_" gradientUnits="userSpaceOnUse" x1="0" y1="663.8101" x2="1" y2="663.8101" gradientTransform="matrix(168.7249 -292.3669 169.9399 185.0365 -112683.75 -122365.5234)">
		<stop  offset="0" style="stop-color:#A7519F"/>
		<stop  offset="0.0508" style="stop-color:#A2619F"/>
		<stop  offset="0.1785" style="stop-color:#947DA1"/>
		<stop  offset="0.3097" style="stop-color:#8592A0"/>
		<stop  offset="0.4419" style="stop-color:#77A39E"/>
		<stop  offset="0.5757" style="stop-color:#6AAE9A"/>
		<stop  offset="0.7118" style="stop-color:#5EB697"/>
		<stop  offset="0.8514" style="stop-color:#56BB95"/>
		<stop  offset="1" style="stop-color:#52BE95"/>
	</linearGradient>
	<polygon clip-path="url(#SVGID_18_)" fill="url(#SVGID_19_)" points="161.007,503.747 221.622,398.714 147.57,318.083 
		86.956,423.117 	"/>
</g>
<g>
	<defs>
		<rect id="SVGID_20_" width="528.266" height="663.808"/>
	</defs>
	<clipPath id="SVGID_21_">
		<use xlink:href="#SVGID_20_"  overflow="visible"/>
	</clipPath>
	<path clip-path="url(#SVGID_21_)" fill="#FFFFFF" d="M183.808,272.333v55.953h-15.212v-55.953c0-3.846-3.147-6.994-6.994-6.994
		h-12.239v62.947h-15.037V189.98h25.179c11.365,0,24.129,9.267,24.129,20.807v33.397c0,5.42-2.099,10.491-5.77,14.512
		C181.535,262.018,183.808,266.914,183.808,272.333 M149.363,253.101h10.142c2.447,0,4.72-0.875,6.294-2.623
		c1.749-1.574,2.623-3.847,2.623-6.294v-33.397c0-5.071-4.022-9.092-8.917-9.092h-10.142V253.101z"/>
	<path clip-path="url(#SVGID_21_)" fill="#FFFFFF" d="M217.903,328.287h-7.343c-10.665,0-19.234-8.568-19.234-19.234V209.039
		c0-10.666,8.569-19.234,19.234-19.234h7.343c10.666,0,19.235,8.568,19.235,19.234v100.014
		C237.138,319.719,228.569,328.287,217.903,328.287 M212.833,201.52c-4.196,0-7.519,3.322-7.519,7.519v100.014
		c0,4.196,3.323,7.519,7.519,7.519h2.273c4.197,0,7.519-3.323,7.519-7.519V209.039c0-4.197-3.322-7.519-7.519-7.519H212.833z"/>
	<path clip-path="url(#SVGID_21_)" fill="#FFFFFF" d="M272.457,328.286h-7.345c-10.665,0-19.232-8.568-19.232-19.233V209.039
		c0-10.666,8.568-19.233,19.232-19.233h7.345c10.666,0,19.233,8.567,19.233,19.233v41.09h-14.163v-41.09
		c0-4.196-3.321-7.519-7.518-7.519h-2.623c-4.197,0-7.519,3.323-7.519,7.519v100.015c0,4.196,3.322,7.518,7.519,7.518h2.623
		c4.196,0,7.518-3.322,7.518-7.518v-43.538h14.163v43.538C291.69,319.718,283.123,328.286,272.457,328.286"/>
	<path clip-path="url(#SVGID_21_)" fill="#FFFFFF" d="M335.929,243.833c7.344,9.792,11.364,22.73,11.364,36.369v48.084h-13.464
		v-48.084c0-11.191-3.146-21.681-8.917-29.375c-4.021-5.42-6.295-8.917-11.54-10.491v87.95h-14.163V189.979h14.163v37.418
		c5.945-2.623,8.743-6.12,12.065-9.966c4.371-5.771,8.392-14.513,8.392-27.452h11.715c0,12.939-3.846,25.178-10.666,34.271
		c-2.971,4.196-6.469,7.518-10.314,9.966C328.061,236.665,333.131,239.987,335.929,243.833"/>
	<path clip-path="url(#SVGID_21_)" fill="#FFFFFF" d="M214.924,496.695h-7.16v-39.008h7.16c3.209,0,5.776,2.469,5.776,5.479v10.912
		c0,1.235-0.493,2.37-1.283,3.21c0.839,0.89,1.283,2.025,1.283,3.26v10.615C220.7,494.226,218.133,496.695,214.924,496.695
		 M211.713,460.994v14.665l3.309-0.048c0.987-0.05,1.727-0.742,1.727-1.532v-10.912c0-1.184-1.086-2.173-2.469-2.173H211.713z
		 M211.713,493.386h2.567c1.383,0,2.469-0.987,2.469-2.223v-10.615c0-0.494-0.246-0.841-0.444-1.037
		c-0.296-0.347-0.79-0.493-1.333-0.493h-3.259V493.386z"/>
	<path clip-path="url(#SVGID_21_)" fill="#FFFFFF" d="M240.896,496.695h-2.073c-3.013,0-5.432-2.42-5.432-5.433v-33.526h4.099
		v33.526c0,1.187,0.937,2.123,2.123,2.123h0.74c1.186,0,2.123-0.937,2.123-2.123v-33.526h3.852v33.526
		C246.328,494.275,243.909,496.695,240.896,496.695"/>
	<path clip-path="url(#SVGID_21_)" fill="#FFFFFF" d="M266.08,496.695h-2.963c-2.765,0-4.986-2.123-4.986-4.74v-10.271h3.999v10.271
		c0,0.79,0.741,1.431,1.679,1.431h1.68c0.938,0,1.679-0.641,1.679-1.431V479.56c0-0.543-0.544-1.036-1.187-1.036h-3.308
		c-2.518,0-4.542-1.927-4.542-4.297v-11.899c0-2.616,2.221-4.74,4.986-4.74h2.963c2.766,0,4.986,2.124,4.986,4.74v9.777h-3.899
		v-9.777c0-0.789-0.741-1.432-1.679-1.432h-1.68c-0.938,0-1.679,0.643-1.679,1.432v11.899c0,0.544,0.543,1.037,1.234,1.037h3.21
		c2.469,0,4.492,1.927,4.492,4.296v12.395C271.066,494.572,268.846,496.695,266.08,496.695"/>
	<rect x="283.463" y="457.587" clip-path="url(#SVGID_21_)" fill="#FFFFFF" width="3.95" height="39.106"/>
	<path clip-path="url(#SVGID_21_)" fill="#FFFFFF" d="M308.793,496.695c-1.729-7.062-3.703-17.185-5.776-25.528v25.478h-3.902
		v-39.008h3.26l0.396,1.285c0.295,1.037,0.642,2.567,1.135,4.395c0.89,3.702,2.074,8.542,3.309,13.431l1.58,6.517l0.1-25.577h3.852
		l-0.148,39.009H308.793z"/>
	<polygon clip-path="url(#SVGID_21_)" fill="#FFFFFF" points="328.645,461.044 328.645,475.414 336.001,475.414 336.001,478.721 
		328.645,478.721 328.645,493.386 336.001,493.386 336.001,496.694 324.694,496.694 324.694,457.735 336.001,457.735 
		336.001,461.044 	"/>
	<path clip-path="url(#SVGID_21_)" fill="#FFFFFF" d="M356.099,496.695h-2.962c-2.767,0-4.987-2.123-4.987-4.74v-10.271h3.999
		v10.271c0,0.79,0.741,1.431,1.679,1.431h1.679c0.938,0,1.68-0.641,1.68-1.431V479.56c0-0.543-0.544-1.036-1.187-1.036h-3.308
		c-2.518,0-4.542-1.927-4.542-4.297v-11.899c0-2.616,2.221-4.74,4.987-4.74h2.962c2.766,0,4.986,2.124,4.986,4.74v9.777h-3.899
		v-9.777c0-0.789-0.741-1.432-1.68-1.432h-1.679c-0.938,0-1.679,0.643-1.679,1.432v11.899c0,0.544,0.543,1.037,1.234,1.037h3.21
		c2.469,0,4.492,1.927,4.492,4.296v12.395C361.085,494.572,358.864,496.695,356.099,496.695"/>
	<path clip-path="url(#SVGID_21_)" fill="#FFFFFF" d="M381.381,496.695h-2.963c-2.766,0-4.986-2.123-4.986-4.74v-10.271h3.999
		v10.271c0,0.79,0.741,1.431,1.679,1.431h1.68c0.938,0,1.679-0.641,1.679-1.431V479.56c0-0.543-0.544-1.036-1.187-1.036h-3.308
		c-2.518,0-4.542-1.927-4.542-4.297v-11.899c0-2.616,2.221-4.74,4.986-4.74h2.963c2.766,0,4.986,2.124,4.986,4.74v9.777h-3.899
		v-9.777c0-0.789-0.741-1.432-1.679-1.432h-1.68c-0.938,0-1.679,0.643-1.679,1.432v11.899c0,0.544,0.543,1.037,1.234,1.037h3.21
		c2.469,0,4.492,1.927,4.492,4.296v12.395C386.367,494.572,384.146,496.695,381.381,496.695"/>
	<path clip-path="url(#SVGID_21_)" fill="#4FBC95" d="M363.533,366.381v31.412h-15.048v-31.412c0-2.634-1.129-5.079-3.197-6.771
		c-1.881-1.692-4.516-2.634-6.96-2.634c-5.644,0-9.78,4.138-9.78,9.405h-0.188v75.989h-15.049V341.74h15.049v2.069
		c3.01-1.316,6.396-1.881,9.969-1.881c6.207,0,12.038,2.069,16.741,6.207C360.522,352.65,363.533,359.422,363.533,366.381"/>
	<path clip-path="url(#SVGID_21_)" fill="#4FBC95" d="M283.073,436.499h-9.593c-11.287,0-20.503-9.028-20.503-20.502V334.55h15.048
		v81.446c0,3.009,2.444,5.454,5.455,5.454h9.593c3.009,0,5.454-2.445,5.454-5.454V334.55h15.048v81.446
		C303.575,427.47,294.358,436.499,283.073,436.499"/>
</g>
<g>
	<defs>
		<path id="SVGID_22_" d="M230.966,422.406c0.146,0.041,0.292,0.081,0.442,0.121c0.391,0.111,0.783,0.216,1.175,0.327
			l161.958-294.586c-0.392-0.11-0.784-0.221-1.169-0.326c-0.15-0.041-0.302-0.081-0.447-0.121L230.966,422.406z"/>
	</defs>
	<clipPath id="SVGID_23_">
		<use xlink:href="#SVGID_22_"  overflow="visible"/>
	</clipPath>
	
		<linearGradient id="SVGID_24_" gradientUnits="userSpaceOnUse" x1="-4.882813e-004" y1="663.8081" x2="0.9995" y2="663.8081" gradientTransform="matrix(167.3658 -290.0117 168.5709 183.5459 -111669.6953 -121418.6563)">
		<stop  offset="0" style="stop-color:#A7519F"/>
		<stop  offset="0.0508" style="stop-color:#A2619F"/>
		<stop  offset="0.1785" style="stop-color:#947DA1"/>
		<stop  offset="0.3097" style="stop-color:#8592A0"/>
		<stop  offset="0.4419" style="stop-color:#77A39E"/>
		<stop  offset="0.5757" style="stop-color:#6AAE9A"/>
		<stop  offset="0.7118" style="stop-color:#5EB697"/>
		<stop  offset="0.8514" style="stop-color:#56BB95"/>
		<stop  offset="1" style="stop-color:#52BE95"/>
	</linearGradient>
	<polygon clip-path="url(#SVGID_23_)" fill="url(#SVGID_24_)" points="331.419,532.231 499.102,241.671 294.088,18.444 
		126.405,309.004 	"/>
</g>
<g>
	<defs>
		<path id="SVGID_25_" d="M162.877,481.519l6.921,7.536l52.336-96.026c-0.004-0.005-0.01-0.009-0.015-0.009
			c-0.702-0.315-0.984-0.44-1.264-0.567c-0.719-0.315-1.005-0.441-1.291-0.566c-0.692-0.306-0.983-0.432-1.274-0.553
			c-0.692-0.302-0.983-0.422-1.28-0.542c-0.683-0.286-0.984-0.412-1.285-0.537c-0.663-0.267-0.973-0.396-1.29-0.522
			c-0.617-0.246-0.943-0.376-1.265-0.502L162.877,481.519z"/>
	</defs>
	<clipPath id="SVGID_26_">
		<use xlink:href="#SVGID_25_"  overflow="visible"/>
	</clipPath>
	
		<linearGradient id="SVGID_27_" gradientUnits="userSpaceOnUse" x1="0" y1="663.8237" x2="1" y2="663.8237" gradientTransform="matrix(169.0135 -292.8669 170.2305 185.3529 -112835.6484 -122558.9063)">
		<stop  offset="0" style="stop-color:#A7519F"/>
		<stop  offset="0.0508" style="stop-color:#A2619F"/>
		<stop  offset="0.1785" style="stop-color:#947DA1"/>
		<stop  offset="0.3097" style="stop-color:#8592A0"/>
		<stop  offset="0.4419" style="stop-color:#77A39E"/>
		<stop  offset="0.5757" style="stop-color:#6AAE9A"/>
		<stop  offset="0.7118" style="stop-color:#5EB697"/>
		<stop  offset="0.8514" style="stop-color:#56BB95"/>
		<stop  offset="1" style="stop-color:#52BE95"/>
	</linearGradient>
	<polygon clip-path="url(#SVGID_26_)" fill="url(#SVGID_27_)" points="199.268,528.678 257.512,427.751 185.744,349.607 
		127.499,450.534 	"/>
</g>
<g>
	<defs>
		<rect id="SVGID_28_" width="528.266" height="663.808"/>
	</defs>
	<clipPath id="SVGID_29_">
		<use xlink:href="#SVGID_28_"  overflow="visible"/>
	</clipPath>
	<path clip-path="url(#SVGID_29_)" fill="#4FBC95" d="M137.898,619.645c0.864,0,1.643,0.126,2.334,0.378
		c0.692,0.252,1.282,0.601,1.77,1.05c0.488,0.448,0.862,0.982,1.123,1.601c0.259,0.62,0.389,1.304,0.389,2.048
		c0,0.64-0.09,1.231-0.269,1.775c-0.181,0.544-0.427,1.063-0.739,1.554s-0.673,0.969-1.086,1.429
		c-0.412,0.46-0.85,0.926-1.314,1.396l-3.42,3.504c0.441-0.128,0.874-0.229,1.303-0.305c0.428-0.076,0.829-0.115,1.205-0.115h3.265
		c0.399,0,0.715,0.111,0.948,0.331c0.231,0.22,0.347,0.51,0.347,0.87v2.16h-12.288v-1.2c0-0.231,0.048-0.479,0.144-0.745
		c0.097-0.263,0.265-0.503,0.505-0.719l5.04-5.076c0.431-0.432,0.807-0.844,1.128-1.236c0.319-0.392,0.583-0.777,0.792-1.157
		c0.208-0.38,0.363-0.761,0.468-1.142c0.103-0.38,0.156-0.78,0.156-1.206c0-0.694-0.167-1.229-0.498-1.601
		c-0.332-0.372-0.839-0.558-1.519-0.558c-0.28,0-0.536,0.04-0.767,0.119c-0.233,0.08-0.441,0.188-0.624,0.323
		c-0.185,0.137-0.342,0.296-0.475,0.481c-0.132,0.184-0.237,0.384-0.317,0.6c-0.128,0.36-0.29,0.62-0.487,0.78
		c-0.196,0.16-0.462,0.24-0.798,0.24c-0.08,0-0.166-0.004-0.257-0.014c-0.093-0.007-0.187-0.019-0.283-0.035l-1.967-0.348
		c0.128-0.872,0.374-1.632,0.737-2.281c0.364-0.646,0.816-1.187,1.356-1.619c0.54-0.432,1.159-0.754,1.855-0.967
		C136.35,619.75,137.098,619.645,137.898,619.645"/>
	<path clip-path="url(#SVGID_29_)" fill="#4FBC95" d="M161.37,621.373c0,0.257-0.04,0.487-0.119,0.695
		c-0.08,0.208-0.206,0.391-0.379,0.546c-0.172,0.156-0.398,0.277-0.678,0.361c-0.28,0.084-0.616,0.126-1.008,0.126h-4.175
		l-0.493,2.892c0.329-0.057,0.644-0.099,0.949-0.127c0.303-0.027,0.599-0.042,0.887-0.042c0.92,0,1.733,0.142,2.437,0.421
		c0.703,0.279,1.296,0.661,1.775,1.146c0.481,0.483,0.842,1.051,1.086,1.704c0.244,0.651,0.366,1.349,0.366,2.093
		c0,0.937-0.166,1.79-0.498,2.563c-0.332,0.771-0.794,1.438-1.385,1.998c-0.593,0.561-1.298,0.994-2.119,1.303
		c-0.82,0.307-1.717,0.462-2.694,0.462c-0.567,0-1.109-0.061-1.626-0.181c-0.515-0.12-1-0.281-1.452-0.485
		c-0.452-0.204-0.869-0.441-1.254-0.708c-0.384-0.269-0.731-0.555-1.044-0.859l1.153-1.535c0.12-0.16,0.259-0.282,0.419-0.366
		c0.161-0.084,0.332-0.126,0.516-0.126c0.24,0,0.466,0.065,0.679,0.198c0.212,0.132,0.443,0.275,0.695,0.432
		s0.546,0.299,0.883,0.427c0.336,0.127,0.751,0.191,1.247,0.191c0.496,0,0.92-0.082,1.272-0.246
		c0.352-0.163,0.638-0.389,0.859-0.672c0.22-0.283,0.38-0.615,0.479-0.996c0.1-0.38,0.151-0.785,0.151-1.218
		c0-0.849-0.241-1.494-0.721-1.938c-0.479-0.445-1.159-0.666-2.04-0.666c-0.783,0-1.552,0.147-2.304,0.443l-2.303-0.624l1.488-8.748
		h8.951V621.373z"/>
	<rect x="179.346" y="619.836" clip-path="url(#SVGID_29_)" fill="#4FBC95" width="4.08" height="17.483"/>
	<path clip-path="url(#SVGID_29_)" fill="#4FBC95" d="M206.682,619.645c0.864,0,1.643,0.126,2.334,0.378
		c0.692,0.252,1.282,0.601,1.77,1.05c0.488,0.448,0.862,0.982,1.123,1.601c0.259,0.62,0.389,1.304,0.389,2.048
		c0,0.64-0.09,1.231-0.269,1.775c-0.181,0.544-0.427,1.063-0.739,1.554s-0.673,0.969-1.086,1.429
		c-0.412,0.46-0.85,0.926-1.314,1.396l-3.42,3.504c0.441-0.128,0.874-0.229,1.303-0.305c0.428-0.076,0.829-0.115,1.205-0.115h3.265
		c0.399,0,0.715,0.111,0.948,0.331c0.231,0.22,0.347,0.51,0.347,0.87v2.16H200.25v-1.2c0-0.231,0.048-0.479,0.144-0.745
		c0.097-0.263,0.265-0.503,0.505-0.719l5.04-5.076c0.431-0.432,0.807-0.844,1.128-1.236c0.319-0.392,0.583-0.777,0.792-1.157
		c0.208-0.38,0.363-0.761,0.468-1.142c0.103-0.38,0.156-0.78,0.156-1.206c0-0.694-0.167-1.229-0.498-1.601
		c-0.332-0.372-0.839-0.558-1.519-0.558c-0.28,0-0.536,0.04-0.767,0.119c-0.233,0.08-0.441,0.188-0.624,0.323
		c-0.185,0.137-0.342,0.296-0.475,0.481c-0.132,0.184-0.237,0.384-0.317,0.6c-0.128,0.36-0.29,0.62-0.487,0.78
		c-0.196,0.16-0.462,0.24-0.798,0.24c-0.08,0-0.166-0.004-0.257-0.014c-0.093-0.007-0.187-0.019-0.283-0.035l-1.967-0.348
		c0.128-0.872,0.374-1.632,0.737-2.281c0.364-0.646,0.816-1.187,1.356-1.619c0.54-0.432,1.159-0.754,1.855-0.967
		C205.133,619.75,205.881,619.645,206.682,619.645"/>
	<path clip-path="url(#SVGID_29_)" fill="#4FBC95" d="M231.618,628.573c0,1.527-0.164,2.853-0.492,3.972
		c-0.328,1.12-0.783,2.049-1.363,2.784s-1.267,1.284-2.063,1.644c-0.797,0.36-1.658,0.54-2.587,0.54c-0.928,0-1.786-0.18-2.573-0.54
		c-0.788-0.359-1.471-0.908-2.046-1.644c-0.576-0.735-1.027-1.664-1.351-2.784c-0.324-1.119-0.485-2.444-0.485-3.972
		c0-1.528,0.161-2.853,0.485-3.973c0.324-1.12,0.775-2.048,1.351-2.783c0.575-0.736,1.258-1.282,2.046-1.639
		c0.787-0.355,1.645-0.534,2.573-0.534c0.929,0,1.79,0.179,2.587,0.534c0.796,0.356,1.483,0.902,2.063,1.639
		c0.58,0.735,1.035,1.663,1.363,2.783S231.618,627.044,231.618,628.573 M227.777,628.573c0-1.208-0.076-2.198-0.228-2.971
		c-0.152-0.771-0.354-1.378-0.606-1.817c-0.252-0.44-0.538-0.742-0.857-0.906c-0.321-0.163-0.645-0.246-0.973-0.246
		c-0.328,0-0.649,0.083-0.966,0.246c-0.315,0.164-0.596,0.466-0.84,0.906c-0.244,0.439-0.44,1.046-0.588,1.817
		c-0.148,0.772-0.221,1.763-0.221,2.971c0,1.216,0.073,2.208,0.221,2.976c0.148,0.769,0.344,1.374,0.588,1.818
		c0.244,0.443,0.525,0.748,0.84,0.912c0.317,0.164,0.638,0.245,0.966,0.245c0.328,0,0.652-0.081,0.973-0.245
		c0.319-0.164,0.605-0.469,0.857-0.912c0.252-0.444,0.454-1.05,0.606-1.818C227.701,630.781,227.777,629.789,227.777,628.573"/>
	<path clip-path="url(#SVGID_29_)" fill="#4FBC95" d="M239.921,634.632h3.359v-8.819c0-0.433,0.013-0.884,0.037-1.357l-1.98,1.646
		c-0.129,0.103-0.257,0.177-0.385,0.221s-0.252,0.067-0.372,0.067c-0.208,0-0.393-0.046-0.557-0.139s-0.287-0.189-0.367-0.295
		l-1.175-1.559l5.448-4.573H247v14.809h2.881v2.688h-9.96V634.632z"/>
	<path clip-path="url(#SVGID_29_)" fill="#4FBC95" d="M262.576,637.513c-0.928,0-1.776-0.124-2.544-0.372s-1.426-0.599-1.974-1.051
		c-0.548-0.451-0.972-0.997-1.272-1.639c-0.3-0.639-0.45-1.351-0.45-2.135c0-0.472,0.054-0.918,0.162-1.338
		c0.108-0.42,0.28-0.805,0.516-1.153c0.236-0.347,0.541-0.657,0.912-0.929c0.372-0.273,0.822-0.5,1.35-0.685
		c-0.8-0.359-1.394-0.859-1.782-1.5c-0.388-0.641-0.582-1.407-0.582-2.305c0-0.679,0.14-1.309,0.42-1.889
		c0.28-0.58,0.672-1.082,1.176-1.506c0.505-0.425,1.102-0.758,1.794-1.002c0.692-0.244,1.45-0.366,2.274-0.366
		c0.824,0,1.583,0.122,2.274,0.366c0.692,0.244,1.29,0.577,1.794,1.002c0.504,0.424,0.896,0.926,1.177,1.506
		c0.279,0.58,0.42,1.21,0.42,1.889c0,0.897-0.196,1.664-0.588,2.305c-0.393,0.641-0.984,1.141-1.776,1.5
		c0.52,0.185,0.966,0.411,1.338,0.685c0.372,0.271,0.676,0.582,0.912,0.929c0.236,0.349,0.41,0.733,0.521,1.153
		c0.112,0.42,0.168,0.866,0.168,1.338c0,0.784-0.149,1.496-0.449,2.135c-0.301,0.642-0.726,1.188-1.272,1.639
		c-0.548,0.452-1.205,0.803-1.974,1.051S263.504,637.513,262.576,637.513 M262.576,634.704c0.416,0,0.776-0.063,1.08-0.19
		c0.304-0.128,0.554-0.303,0.75-0.523c0.195-0.219,0.34-0.479,0.432-0.779s0.138-0.622,0.138-0.967c0-0.376-0.04-0.719-0.12-1.031
		c-0.08-0.312-0.212-0.577-0.396-0.799c-0.185-0.22-0.43-0.391-0.738-0.515c-0.308-0.124-0.69-0.187-1.146-0.187
		c-0.456,0-0.838,0.063-1.146,0.187c-0.308,0.124-0.554,0.295-0.738,0.515c-0.184,0.222-0.316,0.487-0.396,0.799
		c-0.08,0.313-0.12,0.655-0.12,1.031c0,0.345,0.046,0.666,0.138,0.967c0.092,0.301,0.236,0.561,0.432,0.779
		c0.196,0.221,0.444,0.396,0.744,0.523C261.79,634.641,262.152,634.704,262.576,634.704 M262.576,626.88
		c0.416,0,0.756-0.067,1.021-0.203c0.263-0.138,0.472-0.317,0.623-0.54c0.152-0.226,0.256-0.481,0.313-0.77
		c0.056-0.288,0.084-0.584,0.084-0.887c0-0.272-0.036-0.537-0.108-0.792c-0.072-0.256-0.189-0.483-0.354-0.678
		c-0.165-0.196-0.376-0.355-0.636-0.476c-0.26-0.12-0.574-0.179-0.942-0.179c-0.376,0-0.692,0.059-0.948,0.179
		s-0.466,0.279-0.63,0.476c-0.164,0.194-0.282,0.422-0.354,0.678c-0.072,0.255-0.108,0.52-0.108,0.792
		c0,0.303,0.028,0.599,0.084,0.887c0.056,0.288,0.16,0.544,0.312,0.77c0.152,0.223,0.36,0.402,0.624,0.54
		C261.82,626.813,262.16,626.88,262.576,626.88"/>
	<path clip-path="url(#SVGID_29_)" fill="#4FBC95" d="M285.209,637.321v-12.444h2.208c0.184,0,0.338,0.016,0.462,0.048
		s0.227,0.083,0.311,0.15s0.149,0.158,0.193,0.27c0.044,0.112,0.082,0.248,0.113,0.408l0.203,1.164
		c0.456-0.703,0.969-1.26,1.536-1.668c0.569-0.408,1.189-0.612,1.861-0.612c0.567,0,1.023,0.137,1.368,0.408l-0.481,2.736
		c-0.031,0.168-0.095,0.286-0.19,0.354c-0.098,0.068-0.226,0.103-0.386,0.103c-0.136,0-0.296-0.019-0.479-0.055
		c-0.185-0.035-0.416-0.054-0.697-0.054c-0.975,0-1.744,0.521-2.303,1.561v7.632H285.209z"/>
	<path clip-path="url(#SVGID_29_)" fill="#4FBC95" d="M297.52,635.437c0-0.288,0.055-0.557,0.162-0.806
		c0.108-0.247,0.256-0.464,0.443-0.646c0.188-0.185,0.411-0.33,0.666-0.439c0.256-0.106,0.537-0.161,0.84-0.161
		c0.297,0,0.573,0.055,0.828,0.161c0.256,0.109,0.48,0.255,0.672,0.439c0.193,0.183,0.343,0.399,0.45,0.646
		c0.108,0.249,0.163,0.518,0.163,0.806s-0.055,0.558-0.163,0.81c-0.107,0.252-0.257,0.47-0.45,0.654
		c-0.191,0.183-0.416,0.328-0.672,0.432c-0.255,0.104-0.531,0.156-0.828,0.156c-0.303,0-0.584-0.052-0.84-0.156
		c-0.255-0.104-0.478-0.249-0.666-0.432c-0.188-0.185-0.335-0.402-0.443-0.654C297.574,635.995,297.52,635.725,297.52,635.437"/>
	
		<line clip-path="url(#SVGID_29_)" fill="none" stroke="#FFFFFF" stroke-width="3" stroke-miterlimit="10" x1="329.588" y1="589.292" x2="329.588" y2="645.202"/>
	<polygon clip-path="url(#SVGID_29_)" fill="#FFFFFF" points="144.57,571.808 144.57,575.025 139.65,575.025 139.65,589.292 
		135.594,589.292 135.594,575.025 130.674,575.025 130.674,571.808 	"/>
	<polygon clip-path="url(#SVGID_29_)" fill="#FFFFFF" points="166.314,589.292 162.234,589.292 162.234,581.9 155.129,581.9 
		155.129,589.292 151.05,589.292 151.05,571.808 155.129,571.808 155.129,579.116 162.234,579.116 162.234,571.808 166.314,571.808 
			"/>
	<polygon clip-path="url(#SVGID_29_)" fill="#FFFFFF" points="185.25,571.808 185.25,574.928 178.074,574.928 178.074,579.007 
		183.57,579.007 183.57,582.007 178.074,582.007 178.074,586.171 185.25,586.171 185.25,589.292 173.995,589.292 173.995,571.808 	
		"/>
	<path clip-path="url(#SVGID_29_)" fill="#FFFFFF" d="M131.875,613.292v-17.484h6.432c1.208,0,2.236,0.112,3.084,0.336
		c0.848,0.224,1.54,0.54,2.076,0.948s0.926,0.904,1.17,1.488c0.244,0.584,0.366,1.235,0.366,1.955c0,0.393-0.056,0.771-0.168,1.135
		c-0.112,0.363-0.288,0.706-0.528,1.025c-0.24,0.32-0.548,0.61-0.924,0.87s-0.828,0.486-1.356,0.678
		c1.152,0.28,2.004,0.735,2.556,1.362c0.552,0.628,0.827,1.435,0.827,2.418c0,0.744-0.143,1.437-0.431,2.076
		s-0.71,1.198-1.266,1.674c-0.556,0.477-1.242,0.849-2.058,1.116s-1.748,0.402-2.796,0.402H131.875z M135.93,603.165h2.112
		c0.448,0,0.852-0.032,1.212-0.097c0.36-0.063,0.666-0.175,0.918-0.336c0.252-0.16,0.444-0.379,0.576-0.66
		c0.132-0.279,0.198-0.632,0.198-1.056c0-0.415-0.052-0.762-0.156-1.038s-0.264-0.498-0.48-0.666
		c-0.216-0.168-0.49-0.288-0.822-0.36c-0.332-0.071-0.726-0.107-1.182-0.107h-2.376V603.165z M135.93,605.876v4.355h2.855
		c0.537,0,0.975-0.067,1.315-0.204c0.34-0.136,0.606-0.312,0.798-0.527c0.192-0.217,0.324-0.46,0.396-0.732
		c0.072-0.271,0.108-0.548,0.108-0.828c0-0.32-0.042-0.607-0.126-0.864c-0.084-0.256-0.228-0.471-0.432-0.647
		c-0.204-0.176-0.475-0.313-0.81-0.408c-0.336-0.096-0.76-0.144-1.272-0.144H135.93z"/>
	<path clip-path="url(#SVGID_29_)" fill="#FFFFFF" d="M162.162,599.361c-0.119,0.19-0.245,0.336-0.378,0.432
		c-0.132,0.095-0.302,0.143-0.51,0.143c-0.183,0-0.382-0.057-0.593-0.174c-0.212-0.114-0.453-0.246-0.72-0.389
		c-0.269-0.146-0.574-0.275-0.918-0.39c-0.345-0.116-0.736-0.176-1.177-0.176c-0.76,0-1.326,0.162-1.697,0.487
		c-0.372,0.324-0.559,0.761-0.559,1.314c0,0.352,0.113,0.644,0.336,0.876c0.224,0.23,0.519,0.432,0.882,0.6
		c0.364,0.168,0.78,0.322,1.248,0.462c0.469,0.14,0.946,0.295,1.435,0.467c0.487,0.173,0.965,0.374,1.433,0.607
		c0.468,0.231,0.884,0.528,1.248,0.887c0.365,0.361,0.658,0.798,0.882,1.315c0.225,0.516,0.336,1.138,0.336,1.866
		c0,0.808-0.14,1.563-0.42,2.268c-0.28,0.704-0.685,1.318-1.218,1.842c-0.532,0.524-1.187,0.937-1.967,1.236
		c-0.781,0.3-1.666,0.45-2.659,0.45c-0.544,0-1.097-0.058-1.662-0.168c-0.563-0.112-1.109-0.271-1.637-0.476
		c-0.529-0.204-1.025-0.444-1.489-0.725c-0.464-0.28-0.868-0.592-1.212-0.938l1.201-1.895c0.087-0.146,0.211-0.26,0.372-0.35
		c0.16-0.088,0.332-0.132,0.515-0.132c0.24,0,0.483,0.077,0.727,0.229c0.243,0.15,0.519,0.319,0.827,0.504
		c0.309,0.183,0.662,0.351,1.062,0.504c0.4,0.152,0.873,0.227,1.416,0.227c0.737,0,1.308-0.16,1.716-0.484
		c0.409-0.324,0.613-0.838,0.613-1.542c0-0.408-0.113-0.74-0.336-0.996c-0.225-0.256-0.519-0.468-0.882-0.636
		c-0.364-0.168-0.778-0.316-1.242-0.444s-0.941-0.271-1.429-0.426c-0.487-0.156-0.964-0.35-1.428-0.576
		c-0.464-0.229-0.878-0.529-1.242-0.901c-0.363-0.372-0.658-0.836-0.882-1.391c-0.223-0.556-0.336-1.242-0.336-2.06
		c0-0.654,0.132-1.296,0.397-1.92c0.263-0.624,0.651-1.179,1.164-1.668c0.512-0.486,1.139-0.878,1.884-1.17
		c0.744-0.292,1.595-0.437,2.555-0.437c0.536,0,1.058,0.042,1.567,0.126c0.507,0.084,0.99,0.208,1.445,0.372
		c0.456,0.164,0.883,0.358,1.278,0.588c0.397,0.227,0.75,0.486,1.063,0.772L162.162,599.361z"/>
	<path clip-path="url(#SVGID_29_)" fill="#FFFFFF" d="M179.97,599.361c-0.119,0.19-0.245,0.336-0.378,0.432
		c-0.132,0.095-0.302,0.143-0.51,0.143c-0.183,0-0.382-0.057-0.593-0.174c-0.212-0.114-0.453-0.246-0.72-0.389
		c-0.269-0.146-0.574-0.275-0.918-0.39c-0.345-0.116-0.736-0.176-1.177-0.176c-0.76,0-1.326,0.162-1.697,0.487
		c-0.372,0.324-0.559,0.761-0.559,1.314c0,0.352,0.113,0.644,0.336,0.876c0.224,0.23,0.519,0.432,0.882,0.6
		c0.364,0.168,0.78,0.322,1.248,0.462c0.469,0.14,0.946,0.295,1.435,0.467c0.487,0.173,0.965,0.374,1.433,0.607
		c0.468,0.231,0.884,0.528,1.248,0.887c0.365,0.361,0.658,0.798,0.882,1.315c0.225,0.516,0.336,1.138,0.336,1.866
		c0,0.808-0.14,1.563-0.42,2.268c-0.28,0.704-0.685,1.318-1.218,1.842c-0.532,0.524-1.187,0.937-1.967,1.236
		c-0.781,0.3-1.666,0.45-2.659,0.45c-0.544,0-1.097-0.058-1.662-0.168c-0.563-0.112-1.109-0.271-1.637-0.476
		c-0.529-0.204-1.025-0.444-1.489-0.725s-0.868-0.592-1.212-0.938l1.201-1.895c0.087-0.146,0.211-0.26,0.372-0.35
		c0.16-0.088,0.332-0.132,0.515-0.132c0.24,0,0.483,0.077,0.727,0.229c0.243,0.15,0.519,0.319,0.827,0.504
		c0.309,0.183,0.662,0.351,1.062,0.504c0.4,0.152,0.873,0.227,1.416,0.227c0.737,0,1.308-0.16,1.716-0.484
		c0.409-0.324,0.613-0.838,0.613-1.542c0-0.408-0.113-0.74-0.336-0.996c-0.225-0.256-0.519-0.468-0.882-0.636
		c-0.364-0.168-0.778-0.316-1.242-0.444s-0.941-0.271-1.429-0.426c-0.487-0.156-0.964-0.35-1.428-0.576
		c-0.464-0.229-0.878-0.529-1.242-0.901c-0.363-0.372-0.658-0.836-0.882-1.391c-0.223-0.556-0.336-1.242-0.336-2.06
		c0-0.654,0.132-1.296,0.397-1.92c0.263-0.624,0.651-1.179,1.164-1.668c0.512-0.486,1.139-0.878,1.884-1.17
		c0.744-0.292,1.595-0.437,2.555-0.437c0.536,0,1.058,0.042,1.567,0.126c0.507,0.084,0.99,0.208,1.445,0.372
		c0.456,0.164,0.883,0.358,1.278,0.588c0.397,0.227,0.75,0.486,1.063,0.772L179.97,599.361z"/>
	<polygon clip-path="url(#SVGID_29_)" fill="#FFFFFF" points="208.721,595.808 208.721,598.928 201.544,598.928 201.544,603.357 
		207.521,603.357 207.521,606.489 201.544,606.489 201.544,613.292 197.465,613.292 197.465,595.808 	"/>
	<path clip-path="url(#SVGID_29_)" fill="#FFFFFF" d="M232.889,604.544c0,1.265-0.218,2.439-0.654,3.527s-1.05,2.034-1.842,2.838
		c-0.792,0.805-1.746,1.435-2.862,1.891c-1.116,0.456-2.354,0.684-3.714,0.684s-2.6-0.228-3.72-0.684
		c-1.12-0.456-2.078-1.086-2.874-1.891c-0.797-0.804-1.412-1.75-1.848-2.838s-0.654-2.263-0.654-3.527s0.218-2.439,0.654-3.528
		c0.436-1.088,1.051-2.032,1.848-2.832c0.796-0.8,1.754-1.428,2.874-1.884c1.12-0.456,2.36-0.685,3.72-0.685s2.598,0.23,3.714,0.69
		c1.116,0.461,2.07,1.091,2.862,1.89c0.792,0.801,1.406,1.744,1.842,2.832S232.889,603.289,232.889,604.544 M228.737,604.544
		c0-0.864-0.112-1.643-0.336-2.334s-0.546-1.278-0.966-1.759c-0.42-0.479-0.934-0.847-1.542-1.104
		c-0.608-0.256-1.301-0.384-2.076-0.384c-0.784,0-1.482,0.128-2.094,0.384c-0.612,0.257-1.128,0.624-1.548,1.104
		c-0.42,0.48-0.742,1.067-0.966,1.759s-0.336,1.47-0.336,2.334c0,0.872,0.112,1.653,0.336,2.346s0.546,1.278,0.966,1.758
		c0.42,0.48,0.936,0.846,1.548,1.099c0.612,0.252,1.31,0.378,2.094,0.378c0.775,0,1.468-0.126,2.076-0.378
		c0.608-0.253,1.122-0.618,1.542-1.099c0.42-0.479,0.742-1.065,0.966-1.758S228.737,605.417,228.737,604.544"/>
	<path clip-path="url(#SVGID_29_)" fill="#FFFFFF" d="M243.689,606.825v6.468h-4.056v-17.485h5.688c1.264,0,2.342,0.132,3.234,0.392
		s1.62,0.622,2.184,1.086s0.973,1.012,1.23,1.643c0.256,0.632,0.384,1.321,0.384,2.065c0,0.567-0.076,1.103-0.228,1.606
		c-0.152,0.504-0.378,0.972-0.678,1.399c-0.3,0.427-0.668,0.809-1.104,1.145c-0.436,0.338-0.938,0.613-1.507,0.828
		c0.273,0.138,0.527,0.306,0.763,0.504c0.236,0.2,0.442,0.445,0.618,0.733l3.72,6.084h-3.672c-0.68,0-1.168-0.256-1.464-0.768
		l-2.904-5.076c-0.128-0.226-0.278-0.384-0.45-0.481c-0.172-0.095-0.414-0.143-0.726-0.143H243.689z M243.689,604.029h1.632
		c0.552,0,1.021-0.07,1.41-0.21c0.388-0.142,0.706-0.334,0.954-0.582s0.428-0.538,0.54-0.87c0.111-0.332,0.168-0.691,0.168-1.074
		c0-0.768-0.25-1.368-0.75-1.8c-0.5-0.434-1.274-0.649-2.322-0.649h-1.632V604.029z"/>
	<path clip-path="url(#SVGID_29_)" fill="#FFFFFF" d="M266.945,610.088c0.544,0,1.029-0.091,1.458-0.271
		c0.428-0.18,0.79-0.438,1.086-0.773s0.521-0.746,0.678-1.229c0.156-0.485,0.234-1.035,0.234-1.651v-10.355h4.056v10.355
		c0,1.072-0.174,2.057-0.522,2.952c-0.348,0.896-0.845,1.668-1.493,2.316c-0.648,0.647-1.437,1.152-2.364,1.512
		c-0.928,0.36-1.972,0.54-3.132,0.54c-1.168,0-2.217-0.18-3.145-0.54c-0.928-0.359-1.716-0.864-2.364-1.512
		c-0.648-0.648-1.144-1.42-1.488-2.316c-0.344-0.896-0.516-1.88-0.516-2.952v-10.355h4.056v10.344c0,0.617,0.078,1.166,0.234,1.65
		c0.157,0.483,0.382,0.896,0.678,1.235c0.296,0.341,0.657,0.601,1.086,0.78C265.915,609.998,266.401,610.088,266.945,610.088"/>
	<path clip-path="url(#SVGID_29_)" fill="#FFFFFF" d="M291.299,606.248c0.147,0.328,0.29,0.665,0.426,1.009
		c0.136-0.354,0.28-0.695,0.432-1.028c0.152-0.332,0.309-0.654,0.469-0.966l4.487-8.841c0.081-0.153,0.163-0.271,0.247-0.355
		s0.177-0.146,0.281-0.186c0.104-0.04,0.222-0.061,0.354-0.061h0.463h3.096v17.473h-3.576v-10.057c0-0.487,0.024-1.016,0.072-1.584
		l-4.632,8.988c-0.144,0.28-0.339,0.492-0.582,0.636c-0.244,0.145-0.521,0.217-0.834,0.217h-0.553c-0.312,0-0.589-0.072-0.834-0.217
		c-0.243-0.144-0.438-0.355-0.582-0.636l-4.655-9c0.031,0.28,0.056,0.558,0.071,0.834c0.017,0.276,0.024,0.53,0.024,0.762v10.057
		h-3.575V595.82h3.095h0.463c0.132,0,0.25,0.021,0.354,0.061s0.198,0.102,0.282,0.186s0.166,0.202,0.246,0.355l4.5,8.877
		C290.997,605.602,291.151,605.919,291.299,606.248"/>
	<path clip-path="url(#SVGID_29_)" fill="#FFFFFF" d="M22.215,570.111c2.536,0,4.955,0.369,7.256,1.104
		c2.302,0.736,4.328,1.849,6.082,3.334c1.754,1.489,3.147,3.353,4.181,5.59c1.033,2.239,1.549,4.861,1.549,7.867
		c0,2.505-0.383,4.83-1.151,6.975c-0.768,2.146-1.808,4.203-3.123,6.177c-1.315,1.973-2.841,3.891-4.579,5.753
		c-1.737,1.863-3.563,3.765-5.472,5.707L6.152,633.844c1.001-0.25,2.043-0.438,3.124-0.563c1.08-0.125,2.168-0.188,3.263-0.188
		h28.697c0.5,0,0.9,0.149,1.198,0.446c0.297,0.299,0.446,0.681,0.446,1.151v2.63H0v-1.598c0-0.344,0.086-0.695,0.259-1.056
		c0.171-0.361,0.383-0.665,0.634-0.916l22.684-22.967c1.879-1.909,3.618-3.758,5.214-5.542c1.597-1.785,2.983-3.585,4.156-5.402
		c1.174-1.814,2.098-3.678,2.772-5.588c0.673-1.911,1.01-3.946,1.01-6.105c0-2.442-0.408-4.563-1.222-6.364
		s-1.902-3.279-3.264-4.439c-1.362-1.158-2.928-2.019-4.697-2.583c-1.769-0.563-3.624-0.845-5.565-0.845
		c-2.098,0-4.032,0.321-5.8,0.963c-1.77,0.643-3.335,1.534-4.697,2.676c-1.363,1.145-2.49,2.506-3.382,4.087
		s-1.511,3.312-1.855,5.19c-0.313,1.096-0.939,1.643-1.879,1.643c-0.063,0-0.14-0.007-0.235-0.022
		c-0.094-0.017-0.172-0.024-0.234-0.024l-2.255-0.376c0.376-2.848,1.151-5.384,2.325-7.607c1.174-2.224,2.653-4.103,4.438-5.637
		c1.786-1.533,3.852-2.7,6.2-3.499S19.491,570.111,22.215,570.111"/>
	<path clip-path="url(#SVGID_29_)" fill="#FFFFFF" d="M58.845,571.936c0.13,0.067,0.279,0.206,0.446,0.415l12.994,16.907
		c-0.031-0.271-0.052-0.534-0.062-0.791c-0.011-0.255-0.016-0.503-0.016-0.742v-15.892h2.661v22.436h-1.534
		c-0.24,0-0.441-0.042-0.602-0.125c-0.162-0.084-0.322-0.226-0.478-0.423l-12.978-16.893c0.02,0.26,0.036,0.516,0.047,0.768
		c0.009,0.25,0.015,0.479,0.015,0.688v15.984h-2.662v-22.436h1.566C58.513,571.833,58.714,571.869,58.845,571.936"/>
	<path clip-path="url(#SVGID_29_)" fill="#FFFFFF" d="M106.054,583.06c0,1.68-0.265,3.209-0.798,4.587
		c-0.532,1.378-1.284,2.557-2.255,3.538c-0.97,0.98-2.134,1.739-3.491,2.276c-1.356,0.538-2.859,0.808-4.508,0.808H86.61v-22.436
		h8.392c1.649,0,3.152,0.27,4.508,0.808c1.357,0.536,2.521,1.299,3.491,2.284c0.971,0.987,1.723,2.169,2.255,3.547
		C105.789,579.85,106.054,581.378,106.054,583.06 M102.939,583.06c0-1.378-0.187-2.609-0.563-3.695
		c-0.376-1.085-0.909-2.004-1.597-2.755c-0.69-0.752-1.525-1.325-2.505-1.724c-0.981-0.396-2.072-0.595-3.272-0.595h-5.338v17.52
		h5.338c1.2,0,2.291-0.198,3.272-0.596c0.98-0.396,1.815-0.968,2.505-1.715c0.688-0.746,1.221-1.661,1.597-2.747
		C102.752,585.668,102.939,584.437,102.939,583.06"/>
	<path clip-path="url(#SVGID_29_)" fill="#FFFFFD" d="M353.096,598.353v3.567h-1.284v-9.535h2.813c0.604,0,1.128,0.07,1.574,0.21
		c0.446,0.139,0.815,0.338,1.108,0.595c0.292,0.257,0.511,0.568,0.654,0.933c0.145,0.362,0.217,0.769,0.217,1.218
		c0,0.443-0.077,0.848-0.232,1.217c-0.156,0.368-0.383,0.686-0.683,0.952c-0.299,0.265-0.671,0.473-1.114,0.622
		c-0.444,0.147-0.951,0.222-1.524,0.222H353.096z M353.096,597.33h1.529c0.368,0,0.694-0.05,0.976-0.146
		c0.281-0.098,0.517-0.235,0.709-0.41c0.189-0.175,0.335-0.384,0.432-0.629c0.097-0.244,0.146-0.512,0.146-0.804
		c0-0.609-0.188-1.083-0.563-1.425s-0.94-0.513-1.7-0.513h-1.529V597.33z"/>
	<path clip-path="url(#SVGID_29_)" fill="#FFFFFD" d="M362.151,595.073c0.491,0,0.937,0.082,1.334,0.246
		c0.396,0.165,0.733,0.398,1.012,0.699c0.277,0.301,0.49,0.667,0.638,1.094c0.149,0.429,0.224,0.907,0.224,1.436
		c0,0.531-0.074,1.011-0.224,1.437c-0.147,0.425-0.36,0.79-0.638,1.091c-0.278,0.303-0.615,0.534-1.012,0.696
		c-0.397,0.161-0.843,0.242-1.334,0.242c-0.492,0-0.938-0.081-1.334-0.242c-0.396-0.162-0.735-0.394-1.016-0.696
		c-0.278-0.301-0.494-0.666-0.645-1.091c-0.151-0.426-0.227-0.905-0.227-1.437c0-0.528,0.075-1.007,0.227-1.436
		c0.15-0.427,0.366-0.793,0.645-1.094c0.28-0.301,0.619-0.534,1.016-0.699C361.214,595.155,361.659,595.073,362.151,595.073
		 M362.151,601.088c0.666,0,1.162-0.224,1.489-0.668c0.329-0.446,0.493-1.068,0.493-1.867c0-0.803-0.164-1.428-0.493-1.876
		c-0.327-0.448-0.823-0.672-1.489-0.672c-0.337,0-0.63,0.058-0.878,0.173c-0.249,0.115-0.456,0.282-0.622,0.499
		c-0.166,0.218-0.291,0.483-0.373,0.802c-0.082,0.317-0.123,0.675-0.123,1.074c0,0.398,0.041,0.757,0.123,1.07
		c0.082,0.316,0.207,0.58,0.373,0.797c0.166,0.215,0.373,0.38,0.622,0.494C361.521,601.03,361.814,601.088,362.151,601.088"/>
	<path clip-path="url(#SVGID_29_)" fill="#FFFFFD" d="M366.822,601.92v-6.74h0.705c0.169,0,0.274,0.082,0.318,0.246l0.087,0.691
		c0.248-0.306,0.527-0.556,0.835-0.752c0.309-0.194,0.666-0.293,1.075-0.293c0.457,0,0.826,0.126,1.107,0.379
		c0.282,0.254,0.484,0.596,0.608,1.026c0.094-0.245,0.217-0.455,0.369-0.633c0.154-0.177,0.326-0.323,0.517-0.439
		c0.189-0.114,0.394-0.199,0.608-0.253c0.215-0.053,0.434-0.08,0.656-0.08c0.354,0,0.671,0.058,0.948,0.17
		c0.275,0.114,0.512,0.279,0.705,0.495c0.191,0.219,0.34,0.486,0.441,0.803c0.103,0.317,0.154,0.68,0.154,1.088v4.292h-1.185v-4.292
		c0-0.527-0.115-0.929-0.347-1.2c-0.23-0.274-0.565-0.41-1.004-0.41c-0.196,0-0.381,0.035-0.556,0.104
		c-0.176,0.069-0.329,0.17-0.463,0.303s-0.238,0.301-0.315,0.503c-0.079,0.201-0.118,0.435-0.118,0.701v4.292h-1.183v-4.292
		c0-0.541-0.11-0.944-0.326-1.211c-0.218-0.267-0.536-0.399-0.952-0.399c-0.292,0-0.564,0.079-0.814,0.236
		c-0.251,0.157-0.48,0.372-0.688,0.643v5.023H366.822z"/>
	<path clip-path="url(#SVGID_29_)" fill="#FFFFFD" d="M380.476,595.073c0.491,0,0.937,0.082,1.334,0.246
		c0.396,0.165,0.733,0.398,1.012,0.699c0.277,0.301,0.49,0.667,0.638,1.094c0.149,0.429,0.224,0.907,0.224,1.436
		c0,0.531-0.074,1.011-0.224,1.437c-0.147,0.425-0.36,0.79-0.638,1.091c-0.278,0.303-0.615,0.534-1.012,0.696
		c-0.397,0.161-0.843,0.242-1.334,0.242c-0.492,0-0.938-0.081-1.334-0.242c-0.396-0.162-0.735-0.394-1.016-0.696
		c-0.278-0.301-0.494-0.666-0.645-1.091c-0.151-0.426-0.227-0.905-0.227-1.437c0-0.528,0.075-1.007,0.227-1.436
		c0.15-0.427,0.366-0.793,0.645-1.094c0.28-0.301,0.619-0.534,1.016-0.699C379.538,595.155,379.983,595.073,380.476,595.073
		 M380.476,601.088c0.666,0,1.162-0.224,1.489-0.668c0.329-0.446,0.493-1.068,0.493-1.867c0-0.803-0.164-1.428-0.493-1.876
		c-0.327-0.448-0.823-0.672-1.489-0.672c-0.337,0-0.63,0.058-0.878,0.173c-0.249,0.115-0.456,0.282-0.622,0.499
		c-0.166,0.218-0.291,0.483-0.373,0.802c-0.082,0.317-0.123,0.675-0.123,1.074c0,0.398,0.041,0.757,0.123,1.07
		c0.082,0.316,0.207,0.58,0.373,0.797c0.166,0.215,0.373,0.38,0.622,0.494C379.846,601.03,380.139,601.088,380.476,601.088"/>
	<path clip-path="url(#SVGID_29_)" fill="#FFFFFD" d="M385.146,601.92v-6.74h0.679c0.128,0,0.217,0.024,0.265,0.073
		c0.05,0.049,0.082,0.133,0.101,0.253l0.08,1.051c0.229-0.47,0.516-0.837,0.854-1.101c0.339-0.265,0.738-0.396,1.195-0.396
		c0.186,0,0.354,0.021,0.506,0.063c0.15,0.042,0.29,0.101,0.419,0.177l-0.154,0.885c-0.03,0.11-0.099,0.166-0.206,0.166
		c-0.062,0-0.156-0.021-0.285-0.064c-0.13-0.042-0.309-0.062-0.539-0.062c-0.412,0-0.759,0.119-1.034,0.359
		c-0.277,0.238-0.51,0.588-0.695,1.044v4.292H385.146z"/>
	<path clip-path="url(#SVGID_29_)" fill="#FFFFFD" d="M394.369,596.292c-0.055,0.098-0.137,0.146-0.247,0.146
		c-0.066,0-0.143-0.023-0.227-0.073c-0.085-0.049-0.187-0.103-0.309-0.162s-0.268-0.115-0.437-0.166
		c-0.169-0.053-0.367-0.077-0.599-0.077c-0.2,0-0.379,0.024-0.538,0.077c-0.161,0.051-0.297,0.119-0.41,0.209
		c-0.112,0.089-0.199,0.192-0.259,0.31s-0.09,0.245-0.09,0.383c0,0.172,0.05,0.317,0.149,0.433c0.1,0.114,0.231,0.215,0.396,0.299
		c0.164,0.085,0.349,0.159,0.559,0.223c0.207,0.064,0.423,0.133,0.642,0.207c0.22,0.073,0.433,0.154,0.642,0.242
		c0.208,0.089,0.396,0.2,0.56,0.333s0.296,0.296,0.396,0.489c0.101,0.191,0.15,0.425,0.15,0.694c0,0.312-0.057,0.599-0.166,0.862
		c-0.111,0.263-0.275,0.492-0.493,0.685c-0.217,0.194-0.484,0.346-0.798,0.456c-0.316,0.111-0.679,0.166-1.092,0.166
		c-0.471,0-0.896-0.075-1.277-0.229s-0.705-0.351-0.972-0.589l0.279-0.452c0.035-0.059,0.077-0.104,0.126-0.134
		c0.05-0.03,0.114-0.046,0.194-0.046c0.079,0,0.164,0.03,0.253,0.093c0.087,0.062,0.196,0.131,0.322,0.206
		c0.126,0.076,0.279,0.145,0.459,0.207c0.18,0.062,0.405,0.093,0.676,0.093c0.23,0,0.432-0.03,0.605-0.09
		c0.173-0.061,0.316-0.142,0.433-0.243c0.115-0.103,0.2-0.22,0.256-0.354c0.056-0.133,0.083-0.273,0.083-0.426
		c0-0.186-0.05-0.339-0.149-0.461c-0.1-0.123-0.232-0.227-0.396-0.313c-0.164-0.086-0.352-0.161-0.562-0.227
		c-0.211-0.063-0.427-0.131-0.646-0.203c-0.22-0.07-0.435-0.151-0.646-0.242c-0.211-0.092-0.398-0.205-0.563-0.344
		c-0.164-0.137-0.296-0.306-0.396-0.508c-0.101-0.203-0.15-0.448-0.15-0.736c0-0.257,0.053-0.505,0.16-0.741
		c0.105-0.237,0.262-0.445,0.466-0.625c0.204-0.181,0.454-0.322,0.752-0.431c0.297-0.105,0.636-0.159,1.017-0.159
		c0.444,0,0.843,0.071,1.195,0.211s0.658,0.33,0.915,0.574L394.369,596.292z"/>
	<path clip-path="url(#SVGID_29_)" fill="#FFFFFD" d="M397.516,592.12v5.769h0.307c0.088,0,0.161-0.012,0.219-0.037
		c0.058-0.023,0.121-0.074,0.193-0.149l2.129-2.282c0.067-0.071,0.133-0.128,0.2-0.173c0.065-0.044,0.155-0.066,0.265-0.066h1.079
		l-2.481,2.642c-0.063,0.074-0.123,0.142-0.184,0.198c-0.06,0.059-0.127,0.11-0.203,0.154c0.08,0.053,0.152,0.114,0.217,0.182
		c0.064,0.07,0.125,0.148,0.183,0.237l2.635,3.327h-1.064c-0.098,0-0.181-0.02-0.249-0.057c-0.069-0.037-0.136-0.098-0.196-0.177
		l-2.216-2.761c-0.066-0.093-0.133-0.155-0.199-0.183c-0.068-0.029-0.167-0.044-0.3-0.044h-0.333v3.221h-1.19v-9.801H397.516z"/>
	<path clip-path="url(#SVGID_29_)" fill="#FFFFFD" d="M404.841,593.064c0,0.115-0.022,0.223-0.069,0.323
		c-0.048,0.099-0.109,0.188-0.187,0.265c-0.077,0.079-0.167,0.14-0.27,0.185c-0.102,0.044-0.212,0.065-0.326,0.065
		c-0.115,0-0.224-0.021-0.322-0.065c-0.1-0.045-0.189-0.105-0.267-0.185c-0.077-0.077-0.14-0.166-0.184-0.265
		c-0.044-0.101-0.065-0.208-0.065-0.323c0-0.116,0.021-0.225,0.065-0.33c0.044-0.104,0.106-0.194,0.184-0.271
		c0.077-0.078,0.167-0.14,0.267-0.185c0.099-0.044,0.207-0.065,0.322-0.065c0.114,0,0.225,0.021,0.326,0.065
		c0.103,0.045,0.192,0.106,0.27,0.185c0.077,0.077,0.139,0.168,0.187,0.271C404.818,592.839,404.841,592.948,404.841,593.064
		 M404.575,601.92h-1.186v-6.74h1.186V601.92z"/>
	<path clip-path="url(#SVGID_29_)" fill="#FFFFFD" d="M353.096,616.096v3.567h-1.284v-9.535h2.813c0.604,0,1.128,0.07,1.574,0.21
		c0.446,0.139,0.815,0.338,1.108,0.595c0.292,0.257,0.511,0.568,0.654,0.933c0.145,0.362,0.217,0.769,0.217,1.218
		c0,0.443-0.077,0.848-0.232,1.217c-0.156,0.368-0.383,0.686-0.683,0.952c-0.299,0.265-0.671,0.473-1.114,0.622
		c-0.444,0.147-0.951,0.222-1.524,0.222H353.096z M353.096,615.073h1.529c0.368,0,0.694-0.05,0.976-0.146
		c0.281-0.098,0.517-0.234,0.709-0.41c0.189-0.175,0.335-0.384,0.432-0.629c0.097-0.244,0.146-0.512,0.146-0.804
		c0-0.609-0.188-1.083-0.563-1.425c-0.375-0.341-0.94-0.513-1.7-0.513h-1.529V615.073z"/>
	<path clip-path="url(#SVGID_29_)" fill="#FFFFFD" d="M364.239,619.664h-0.524c-0.115,0-0.209-0.018-0.279-0.054
		c-0.072-0.035-0.119-0.11-0.141-0.227l-0.133-0.626c-0.179,0.16-0.351,0.304-0.519,0.431c-0.169,0.126-0.347,0.231-0.533,0.318
		c-0.186,0.086-0.384,0.153-0.595,0.197s-0.446,0.066-0.703,0.066c-0.261,0-0.506-0.037-0.734-0.11
		c-0.229-0.074-0.428-0.184-0.597-0.33c-0.168-0.148-0.302-0.333-0.401-0.558c-0.101-0.226-0.149-0.491-0.149-0.799
		c0-0.266,0.073-0.523,0.219-0.771c0.147-0.247,0.382-0.466,0.708-0.658c0.327-0.19,0.753-0.348,1.282-0.47
		c0.527-0.123,1.172-0.185,1.937-0.185v-0.528c0-0.527-0.112-0.925-0.337-1.195c-0.224-0.27-0.555-0.406-0.994-0.406
		c-0.288,0-0.531,0.037-0.729,0.111c-0.198,0.073-0.369,0.155-0.513,0.246c-0.145,0.091-0.27,0.173-0.372,0.246
		c-0.105,0.073-0.208,0.109-0.311,0.109c-0.079,0-0.148-0.021-0.21-0.063c-0.059-0.042-0.106-0.095-0.142-0.157l-0.213-0.379
		c0.372-0.36,0.772-0.627,1.204-0.805c0.43-0.178,0.907-0.268,1.431-0.268c0.377,0,0.711,0.063,1.004,0.188
		c0.292,0.124,0.54,0.297,0.739,0.519c0.199,0.223,0.35,0.491,0.452,0.806c0.102,0.314,0.152,0.66,0.152,1.038V619.664z
		 M361.166,618.938c0.209,0,0.398-0.021,0.571-0.063c0.174-0.043,0.336-0.103,0.49-0.18c0.153-0.078,0.298-0.172,0.439-0.283
		c0.14-0.111,0.274-0.238,0.409-0.379v-1.391c-0.547,0-1.011,0.033-1.391,0.104c-0.382,0.069-0.692,0.159-0.932,0.271
		c-0.24,0.111-0.414,0.242-0.523,0.396c-0.107,0.151-0.163,0.321-0.163,0.508c0,0.178,0.029,0.332,0.087,0.462
		c0.058,0.129,0.136,0.236,0.233,0.318c0.097,0.083,0.213,0.142,0.345,0.18C360.867,618.918,361.011,618.938,361.166,618.938"/>
	<path clip-path="url(#SVGID_29_)" fill="#FFFFFD" d="M366.037,619.664v-6.74h0.679c0.128,0,0.217,0.023,0.265,0.073
		c0.049,0.049,0.082,0.133,0.101,0.253l0.08,1.051c0.229-0.47,0.516-0.837,0.854-1.102c0.339-0.264,0.738-0.396,1.195-0.396
		c0.186,0,0.354,0.021,0.506,0.063c0.15,0.043,0.29,0.102,0.419,0.178l-0.154,0.885c-0.03,0.11-0.099,0.166-0.206,0.166
		c-0.062,0-0.156-0.021-0.285-0.064c-0.13-0.042-0.309-0.062-0.539-0.062c-0.412,0-0.759,0.119-1.034,0.359
		c-0.277,0.238-0.51,0.588-0.695,1.044v4.292H366.037z"/>
	<path clip-path="url(#SVGID_29_)" fill="#FFFFFD" d="M372.631,609.863v5.769h0.307c0.088,0,0.161-0.012,0.219-0.037
		c0.058-0.023,0.121-0.073,0.193-0.149l2.129-2.282c0.067-0.071,0.133-0.128,0.2-0.173c0.065-0.044,0.155-0.066,0.265-0.066h1.079
		l-2.481,2.642c-0.063,0.074-0.123,0.142-0.184,0.198c-0.06,0.059-0.127,0.11-0.203,0.154c0.08,0.053,0.152,0.114,0.217,0.182
		c0.064,0.07,0.125,0.148,0.183,0.237l2.635,3.327h-1.064c-0.098,0-0.181-0.02-0.249-0.057c-0.069-0.037-0.136-0.098-0.196-0.177
		l-2.216-2.761c-0.066-0.093-0.133-0.155-0.199-0.183c-0.068-0.029-0.167-0.044-0.3-0.044h-0.333v3.221h-1.19v-9.801H372.631z"/>
	<path clip-path="url(#SVGID_29_)" fill="#FFFFFD" d="M382.049,610.172c0.056,0.027,0.119,0.087,0.188,0.176l5.524,7.186
		c-0.014-0.114-0.023-0.227-0.027-0.336c-0.004-0.108-0.007-0.214-0.007-0.315v-6.754h1.132v9.534h-0.652
		c-0.103,0-0.188-0.017-0.257-0.053c-0.068-0.036-0.136-0.095-0.202-0.179l-5.516-7.18c0.008,0.109,0.015,0.22,0.02,0.325
		c0.004,0.107,0.007,0.204,0.007,0.292v6.794h-1.131v-9.534h0.665C381.907,610.128,381.992,610.143,382.049,610.172"/>
	<path clip-path="url(#SVGID_29_)" fill="#FFFFFD" d="M395.951,619.664h-0.524c-0.115,0-0.209-0.018-0.279-0.054
		c-0.071-0.035-0.119-0.11-0.141-0.227l-0.133-0.626c-0.179,0.16-0.351,0.304-0.519,0.431c-0.169,0.126-0.347,0.231-0.533,0.318
		c-0.186,0.086-0.384,0.153-0.595,0.197s-0.446,0.066-0.703,0.066c-0.261,0-0.506-0.037-0.734-0.11
		c-0.229-0.074-0.428-0.184-0.597-0.33c-0.168-0.148-0.302-0.333-0.401-0.558c-0.101-0.226-0.149-0.491-0.149-0.799
		c0-0.266,0.073-0.523,0.219-0.771c0.147-0.247,0.383-0.466,0.708-0.658c0.327-0.19,0.753-0.348,1.282-0.47
		c0.527-0.123,1.172-0.185,1.937-0.185v-0.528c0-0.527-0.112-0.925-0.337-1.195c-0.224-0.27-0.555-0.406-0.994-0.406
		c-0.288,0-0.531,0.037-0.729,0.111c-0.198,0.073-0.369,0.155-0.513,0.246c-0.145,0.091-0.27,0.173-0.372,0.246
		c-0.105,0.073-0.208,0.109-0.311,0.109c-0.079,0-0.148-0.021-0.21-0.063c-0.059-0.042-0.106-0.095-0.142-0.157l-0.213-0.379
		c0.372-0.36,0.772-0.627,1.204-0.805c0.43-0.178,0.907-0.268,1.431-0.268c0.377,0,0.711,0.063,1.004,0.188
		c0.292,0.124,0.54,0.297,0.739,0.519c0.199,0.223,0.35,0.491,0.452,0.806c0.102,0.314,0.152,0.66,0.152,1.038V619.664z
		 M392.878,618.938c0.209,0,0.398-0.021,0.571-0.063c0.174-0.043,0.337-0.103,0.49-0.18c0.153-0.078,0.298-0.172,0.439-0.283
		c0.14-0.111,0.274-0.238,0.409-0.379v-1.391c-0.547,0-1.011,0.033-1.391,0.104c-0.382,0.069-0.692,0.159-0.932,0.271
		c-0.24,0.111-0.414,0.242-0.523,0.396c-0.107,0.151-0.163,0.321-0.163,0.508c0,0.178,0.029,0.332,0.087,0.462
		c0.058,0.129,0.136,0.236,0.233,0.318c0.097,0.083,0.213,0.142,0.345,0.18C392.579,618.918,392.723,618.938,392.878,618.938"/>
	<path clip-path="url(#SVGID_29_)" fill="#FFFFFD" d="M398.772,612.923v4.298c0,0.511,0.116,0.905,0.353,1.184
		c0.235,0.28,0.589,0.42,1.064,0.42c0.347,0,0.672-0.082,0.979-0.247c0.306-0.164,0.587-0.392,0.844-0.684v-4.971h1.186v6.739
		h-0.705c-0.169,0-0.276-0.082-0.32-0.245l-0.093-0.726c-0.292,0.324-0.621,0.585-0.985,0.782c-0.363,0.197-0.78,0.296-1.251,0.296
		c-0.367,0-0.692-0.061-0.974-0.183c-0.283-0.122-0.519-0.294-0.709-0.517c-0.191-0.221-0.334-0.49-0.429-0.805
		c-0.097-0.315-0.145-0.663-0.145-1.045v-4.298H398.772z"/>
	<path clip-path="url(#SVGID_29_)" fill="#FFFFFD" d="M406.378,609.863v5.769h0.307c0.088,0,0.161-0.012,0.219-0.037
		c0.058-0.023,0.121-0.073,0.193-0.149l2.129-2.282c0.067-0.071,0.133-0.128,0.2-0.173c0.065-0.044,0.155-0.066,0.265-0.066h1.079
		l-2.481,2.642c-0.063,0.074-0.123,0.142-0.184,0.198c-0.06,0.059-0.127,0.11-0.203,0.154c0.08,0.053,0.152,0.114,0.216,0.182
		c0.065,0.07,0.125,0.148,0.184,0.237l2.635,3.327h-1.064c-0.098,0-0.181-0.02-0.249-0.057c-0.069-0.037-0.136-0.098-0.196-0.177
		l-2.216-2.761c-0.066-0.093-0.134-0.155-0.199-0.183c-0.068-0.029-0.167-0.044-0.3-0.044h-0.333v3.221h-1.19v-9.801H406.378z"/>
	<path clip-path="url(#SVGID_29_)" fill="#FFFFFD" d="M414.448,612.816c0.492,0,0.937,0.082,1.334,0.246
		c0.396,0.165,0.733,0.398,1.012,0.699c0.277,0.301,0.49,0.667,0.638,1.094c0.149,0.43,0.224,0.907,0.224,1.436
		c0,0.531-0.074,1.011-0.224,1.437c-0.147,0.425-0.36,0.79-0.638,1.091c-0.278,0.303-0.615,0.534-1.012,0.696
		c-0.397,0.161-0.842,0.242-1.334,0.242s-0.938-0.081-1.334-0.242c-0.396-0.162-0.735-0.394-1.016-0.696
		c-0.278-0.301-0.493-0.666-0.645-1.091c-0.151-0.426-0.227-0.905-0.227-1.437c0-0.528,0.075-1.006,0.227-1.436
		c0.151-0.427,0.366-0.793,0.645-1.094c0.28-0.301,0.619-0.534,1.016-0.699C413.511,612.898,413.956,612.816,414.448,612.816
		 M414.448,618.832c0.666,0,1.162-0.224,1.489-0.668c0.329-0.446,0.493-1.068,0.493-1.867c0-0.803-0.164-1.428-0.493-1.876
		c-0.327-0.448-0.823-0.672-1.489-0.672c-0.337,0-0.63,0.058-0.878,0.173c-0.249,0.115-0.456,0.282-0.622,0.499
		c-0.166,0.218-0.291,0.483-0.373,0.802c-0.082,0.317-0.123,0.675-0.123,1.074c0,0.398,0.041,0.757,0.123,1.071
		c0.082,0.315,0.207,0.579,0.373,0.796c0.166,0.215,0.373,0.38,0.622,0.495C413.818,618.773,414.111,618.832,414.448,618.832"/>
	<path clip-path="url(#SVGID_29_)" fill="#FFFFFD" d="M418.241,612.923h0.932c0.097,0,0.177,0.023,0.24,0.072
		c0.061,0.05,0.103,0.107,0.126,0.174l1.291,4.338c0.035,0.16,0.067,0.313,0.099,0.463c0.032,0.147,0.059,0.299,0.081,0.449
		c0.035-0.15,0.075-0.302,0.119-0.449c0.045-0.149,0.091-0.303,0.14-0.463l1.425-4.364c0.021-0.067,0.061-0.122,0.115-0.167
		c0.057-0.044,0.125-0.067,0.209-0.067h0.514c0.089,0,0.162,0.023,0.22,0.067c0.057,0.045,0.097,0.1,0.12,0.167l1.391,4.364
		c0.047,0.154,0.091,0.309,0.128,0.46c0.038,0.149,0.075,0.299,0.111,0.444c0.021-0.146,0.051-0.3,0.086-0.459
		c0.036-0.159,0.073-0.308,0.113-0.445l1.316-4.338c0.023-0.071,0.065-0.131,0.127-0.177c0.063-0.047,0.136-0.069,0.221-0.069h0.892
		l-2.183,6.739h-0.938c-0.116,0-0.196-0.074-0.24-0.226l-1.489-4.571c-0.036-0.102-0.064-0.206-0.087-0.309
		c-0.022-0.105-0.045-0.208-0.066-0.311c-0.023,0.103-0.045,0.206-0.067,0.313c-0.021,0.105-0.05,0.211-0.087,0.312l-1.509,4.565
		c-0.049,0.151-0.141,0.226-0.274,0.226h-0.891L418.241,612.923z"/>
	<path clip-path="url(#SVGID_29_)" fill="#FFFFFD" d="M432.041,612.816c0.491,0,0.937,0.082,1.334,0.246
		c0.396,0.165,0.733,0.398,1.012,0.699c0.277,0.301,0.49,0.667,0.638,1.094c0.149,0.43,0.224,0.907,0.224,1.436
		c0,0.531-0.074,1.011-0.224,1.437c-0.147,0.425-0.36,0.79-0.638,1.091c-0.278,0.303-0.615,0.534-1.012,0.696
		c-0.397,0.161-0.843,0.242-1.334,0.242c-0.492,0-0.938-0.081-1.334-0.242c-0.396-0.162-0.735-0.394-1.016-0.696
		c-0.278-0.301-0.494-0.666-0.645-1.091c-0.151-0.426-0.227-0.905-0.227-1.437c0-0.528,0.075-1.006,0.227-1.436
		c0.15-0.427,0.366-0.793,0.645-1.094c0.28-0.301,0.619-0.534,1.016-0.699C431.104,612.898,431.549,612.816,432.041,612.816
		 M432.041,618.832c0.666,0,1.162-0.224,1.489-0.668c0.329-0.446,0.493-1.068,0.493-1.867c0-0.803-0.164-1.428-0.493-1.876
		c-0.327-0.448-0.823-0.672-1.489-0.672c-0.337,0-0.63,0.058-0.878,0.173c-0.249,0.115-0.456,0.282-0.622,0.499
		c-0.166,0.218-0.291,0.483-0.373,0.802c-0.082,0.317-0.123,0.675-0.123,1.074c0,0.398,0.041,0.757,0.123,1.071
		c0.082,0.315,0.207,0.579,0.373,0.796c0.166,0.215,0.373,0.38,0.622,0.495C431.411,618.773,431.704,618.832,432.041,618.832"/>
	<rect x="436.405" y="615.172" clip-path="url(#SVGID_29_)" fill="#FFFFFD" width="3.287" height="1.005"/>
	<polygon clip-path="url(#SVGID_29_)" fill="#FFFFFD" points="446.812,610.128 446.812,611.213 443.731,611.213 443.731,619.664 
		442.44,619.664 442.44,611.213 439.346,611.213 439.346,610.128 	"/>
	<path clip-path="url(#SVGID_29_)" fill="#FFFFFD" d="M449.254,612.817c0.403,0,0.776,0.066,1.118,0.203
		c0.341,0.135,0.636,0.329,0.885,0.585c0.248,0.256,0.442,0.569,0.582,0.944c0.139,0.375,0.21,0.803,0.21,1.281
		c0,0.187-0.021,0.31-0.061,0.373c-0.04,0.062-0.115,0.092-0.227,0.092h-4.484c0.009,0.426,0.065,0.797,0.174,1.112
		c0.105,0.314,0.252,0.578,0.438,0.789c0.188,0.21,0.409,0.368,0.666,0.471c0.257,0.105,0.545,0.158,0.865,0.158
		c0.297,0,0.553-0.035,0.768-0.104c0.217-0.067,0.401-0.143,0.557-0.222c0.155-0.081,0.285-0.155,0.39-0.224
		c0.104-0.068,0.193-0.104,0.27-0.104c0.098,0,0.173,0.037,0.226,0.114l0.333,0.431c-0.146,0.179-0.322,0.332-0.526,0.463
		c-0.203,0.132-0.423,0.238-0.654,0.322c-0.233,0.085-0.475,0.149-0.724,0.191c-0.248,0.042-0.493,0.062-0.737,0.062
		c-0.467,0-0.895-0.078-1.287-0.234c-0.394-0.158-0.732-0.39-1.02-0.692c-0.286-0.304-0.508-0.68-0.669-1.128
		c-0.159-0.449-0.238-0.963-0.238-1.544c0-0.47,0.071-0.909,0.217-1.318c0.144-0.408,0.352-0.761,0.622-1.06
		c0.271-0.3,0.601-0.535,0.99-0.706C448.327,612.902,448.765,612.817,449.254,612.817 M449.28,613.689
		c-0.572,0-1.022,0.165-1.352,0.495c-0.328,0.33-0.532,0.788-0.611,1.373h3.666c0-0.273-0.037-0.525-0.112-0.755
		c-0.076-0.228-0.188-0.426-0.333-0.593c-0.147-0.166-0.325-0.294-0.536-0.385C449.792,613.734,449.551,613.689,449.28,613.689"/>
	<path clip-path="url(#SVGID_29_)" fill="#FFFFFD" d="M458.157,614.121c-0.036,0.049-0.071,0.087-0.106,0.112
		c-0.037,0.027-0.087,0.04-0.153,0.04s-0.139-0.026-0.217-0.083c-0.078-0.055-0.176-0.115-0.296-0.182
		c-0.12-0.068-0.265-0.128-0.436-0.184c-0.171-0.057-0.38-0.083-0.629-0.083c-0.328,0-0.618,0.059-0.871,0.177
		c-0.253,0.117-0.465,0.287-0.637,0.509c-0.171,0.221-0.3,0.49-0.385,0.804c-0.087,0.316-0.13,0.668-0.13,1.06
		c0,0.408,0.046,0.77,0.14,1.088c0.094,0.315,0.224,0.583,0.393,0.798s0.374,0.38,0.615,0.492c0.242,0.113,0.514,0.17,0.815,0.17
		c0.288,0,0.525-0.034,0.711-0.104c0.188-0.068,0.343-0.145,0.466-0.229c0.125-0.084,0.228-0.16,0.307-0.23
		c0.08-0.067,0.16-0.102,0.24-0.102c0.102,0,0.177,0.037,0.226,0.113l0.333,0.432c-0.293,0.359-0.659,0.623-1.098,0.789
		c-0.439,0.166-0.903,0.249-1.392,0.249c-0.421,0-0.813-0.077-1.174-0.233c-0.362-0.154-0.675-0.381-0.942-0.675
		c-0.265-0.295-0.475-0.658-0.629-1.088c-0.151-0.43-0.229-0.92-0.229-1.47c0-0.502,0.07-0.965,0.21-1.392
		c0.139-0.425,0.344-0.793,0.612-1.101c0.268-0.309,0.6-0.549,0.994-0.722c0.395-0.174,0.848-0.261,1.357-0.261
		c0.47,0,0.887,0.076,1.251,0.23c0.364,0.153,0.686,0.369,0.964,0.647L458.157,614.121z"/>
	<path clip-path="url(#SVGID_29_)" fill="#FFFFFD" d="M459.773,619.664v-9.802h1.185v3.967c0.288-0.308,0.607-0.553,0.958-0.735
		c0.35-0.185,0.753-0.277,1.211-0.277c0.368,0,0.692,0.062,0.975,0.184c0.28,0.122,0.517,0.295,0.705,0.519
		c0.188,0.225,0.332,0.494,0.43,0.81c0.097,0.314,0.145,0.662,0.145,1.044v4.292h-1.183v-4.292c0-0.511-0.117-0.905-0.35-1.188
		s-0.59-0.423-1.068-0.423c-0.351,0-0.677,0.085-0.982,0.253c-0.303,0.169-0.584,0.397-0.84,0.685v4.965H459.773z"/>
	<path clip-path="url(#SVGID_29_)" fill="#FFFFFD" d="M467.173,619.664v-6.74h0.705c0.169,0,0.274,0.082,0.318,0.246l0.094,0.731
		c0.293-0.323,0.619-0.586,0.981-0.785s0.78-0.3,1.255-0.3c0.368,0,0.692,0.062,0.975,0.184c0.28,0.122,0.517,0.295,0.705,0.519
		c0.188,0.225,0.331,0.494,0.43,0.81c0.097,0.314,0.145,0.662,0.145,1.044v4.292h-1.183v-4.292c0-0.511-0.117-0.905-0.35-1.188
		s-0.59-0.423-1.068-0.423c-0.35,0-0.677,0.085-0.982,0.253c-0.303,0.169-0.584,0.397-0.84,0.685v4.965H467.173z"/>
	<path clip-path="url(#SVGID_29_)" fill="#FFFFFD" d="M477.3,612.816c0.491,0,0.937,0.082,1.334,0.246
		c0.396,0.165,0.733,0.398,1.012,0.699c0.277,0.301,0.49,0.667,0.638,1.094c0.149,0.43,0.224,0.907,0.224,1.436
		c0,0.531-0.074,1.011-0.224,1.437c-0.147,0.425-0.36,0.79-0.638,1.091c-0.278,0.303-0.615,0.534-1.012,0.696
		c-0.397,0.161-0.843,0.242-1.334,0.242c-0.492,0-0.938-0.081-1.334-0.242c-0.396-0.162-0.735-0.394-1.016-0.696
		c-0.278-0.301-0.494-0.666-0.645-1.091c-0.151-0.426-0.227-0.905-0.227-1.437c0-0.528,0.075-1.006,0.227-1.436
		c0.15-0.427,0.366-0.793,0.645-1.094c0.28-0.301,0.619-0.534,1.016-0.699C476.362,612.898,476.808,612.816,477.3,612.816
		 M477.3,618.832c0.666,0,1.162-0.224,1.489-0.668c0.329-0.446,0.493-1.068,0.493-1.867c0-0.803-0.164-1.428-0.493-1.876
		c-0.327-0.448-0.823-0.672-1.489-0.672c-0.337,0-0.63,0.058-0.878,0.173c-0.249,0.115-0.456,0.282-0.622,0.499
		c-0.166,0.218-0.291,0.483-0.373,0.802c-0.082,0.317-0.123,0.675-0.123,1.074c0,0.398,0.041,0.757,0.123,1.071
		c0.082,0.315,0.207,0.579,0.373,0.796c0.166,0.215,0.373,0.38,0.622,0.495C476.67,618.773,476.963,618.832,477.3,618.832"/>
	<rect x="482.103" y="609.862" clip-path="url(#SVGID_29_)" fill="#FFFFFD" width="1.186" height="9.802"/>
	<path clip-path="url(#SVGID_29_)" fill="#FFFFFD" d="M488.104,612.816c0.491,0,0.937,0.082,1.334,0.246
		c0.396,0.165,0.733,0.398,1.012,0.699c0.277,0.301,0.49,0.667,0.638,1.094c0.149,0.43,0.224,0.907,0.224,1.436
		c0,0.531-0.074,1.011-0.224,1.437c-0.147,0.425-0.36,0.79-0.638,1.091c-0.278,0.303-0.615,0.534-1.012,0.696
		c-0.397,0.161-0.843,0.242-1.334,0.242c-0.492,0-0.938-0.081-1.334-0.242c-0.396-0.162-0.735-0.394-1.016-0.696
		c-0.278-0.301-0.494-0.666-0.645-1.091c-0.151-0.426-0.227-0.905-0.227-1.437c0-0.528,0.075-1.006,0.227-1.436
		c0.15-0.427,0.366-0.793,0.645-1.094c0.28-0.301,0.619-0.534,1.016-0.699C487.167,612.898,487.612,612.816,488.104,612.816
		 M488.104,618.832c0.666,0,1.162-0.224,1.489-0.668c0.329-0.446,0.493-1.068,0.493-1.867c0-0.803-0.164-1.428-0.493-1.876
		c-0.327-0.448-0.823-0.672-1.489-0.672c-0.337,0-0.63,0.058-0.878,0.173c-0.249,0.115-0.456,0.282-0.622,0.499
		c-0.166,0.218-0.291,0.483-0.373,0.802c-0.082,0.317-0.123,0.675-0.123,1.074c0,0.398,0.041,0.757,0.123,1.071
		c0.082,0.315,0.207,0.579,0.373,0.796c0.166,0.215,0.373,0.38,0.622,0.495C487.475,618.773,487.768,618.832,488.104,618.832"/>
	<path clip-path="url(#SVGID_29_)" fill="#FFFFFD" d="M495.045,612.809c0.293,0,0.565,0.033,0.821,0.098
		c0.255,0.064,0.487,0.157,0.696,0.282h1.829v0.439c0,0.146-0.093,0.239-0.28,0.279l-0.764,0.106c0.15,0.289,0.225,0.61,0.225,0.964
		c0,0.329-0.062,0.627-0.188,0.896c-0.126,0.268-0.302,0.498-0.526,0.688c-0.224,0.191-0.49,0.337-0.798,0.44
		c-0.309,0.101-0.647,0.152-1.015,0.152c-0.314,0-0.612-0.037-0.893-0.112c-0.141,0.091-0.249,0.188-0.322,0.295
		c-0.072,0.104-0.109,0.209-0.109,0.309c0,0.165,0.063,0.29,0.193,0.375c0.129,0.085,0.299,0.146,0.512,0.184
		c0.214,0.037,0.455,0.055,0.725,0.055h0.829c0.282,0,0.558,0.025,0.829,0.074c0.27,0.05,0.511,0.131,0.724,0.243
		c0.213,0.111,0.385,0.267,0.514,0.465c0.129,0.197,0.192,0.453,0.192,0.767c0,0.292-0.071,0.575-0.216,0.85
		c-0.145,0.273-0.352,0.518-0.623,0.73c-0.27,0.213-0.6,0.383-0.991,0.511c-0.39,0.128-0.832,0.193-1.323,0.193
		c-0.492,0-0.925-0.049-1.294-0.147c-0.371-0.097-0.679-0.228-0.923-0.393c-0.243-0.164-0.427-0.354-0.549-0.57
		c-0.122-0.215-0.182-0.439-0.182-0.675c0-0.334,0.104-0.617,0.314-0.85c0.212-0.233,0.5-0.418,0.868-0.557
		c-0.189-0.089-0.341-0.207-0.455-0.354c-0.112-0.149-0.17-0.347-0.17-0.595c0-0.099,0.019-0.198,0.055-0.303
		c0.034-0.104,0.089-0.207,0.161-0.309c0.073-0.102,0.163-0.2,0.271-0.292c0.105-0.093,0.23-0.175,0.373-0.246
		c-0.333-0.187-0.594-0.434-0.782-0.742c-0.188-0.308-0.283-0.669-0.283-1.082c0-0.328,0.064-0.626,0.19-0.894
		c0.126-0.27,0.302-0.497,0.529-0.687c0.226-0.188,0.494-0.334,0.808-0.435C494.329,612.86,494.673,612.809,495.045,612.809
		 M497.147,620.005c0-0.172-0.047-0.311-0.14-0.414s-0.221-0.184-0.379-0.241c-0.16-0.056-0.345-0.098-0.554-0.126
		c-0.208-0.026-0.427-0.041-0.657-0.041h-0.706c-0.239,0-0.469-0.028-0.686-0.089c-0.253,0.12-0.458,0.267-0.616,0.44
		c-0.156,0.173-0.234,0.38-0.234,0.618c0,0.152,0.038,0.294,0.116,0.425c0.076,0.131,0.195,0.244,0.355,0.34s0.36,0.171,0.603,0.226
		c0.24,0.057,0.525,0.083,0.854,0.083c0.32,0,0.605-0.028,0.858-0.087s0.467-0.143,0.643-0.251c0.174-0.108,0.31-0.239,0.402-0.387
		C497.101,620.351,497.147,620.185,497.147,620.005 M495.045,616.37c0.238,0,0.45-0.033,0.636-0.101
		c0.183-0.065,0.338-0.159,0.462-0.278c0.124-0.12,0.217-0.264,0.28-0.43c0.061-0.167,0.093-0.349,0.093-0.549
		c0-0.413-0.125-0.741-0.376-0.985c-0.251-0.243-0.616-0.365-1.095-0.365c-0.476,0-0.837,0.122-1.088,0.365
		c-0.252,0.244-0.377,0.572-0.377,0.985c0,0.2,0.032,0.382,0.098,0.549c0.063,0.166,0.158,0.31,0.283,0.43
		c0.124,0.119,0.275,0.213,0.459,0.278C494.602,616.336,494.81,616.37,495.045,616.37"/>
	<path clip-path="url(#SVGID_29_)" fill="#FFFFFD" d="M501.159,610.807c0,0.115-0.023,0.223-0.069,0.323
		c-0.047,0.1-0.109,0.188-0.187,0.266s-0.167,0.138-0.27,0.184c-0.102,0.044-0.211,0.066-0.327,0.066
		c-0.114,0-0.222-0.022-0.321-0.066c-0.101-0.046-0.188-0.105-0.268-0.184c-0.077-0.078-0.138-0.166-0.182-0.266
		c-0.045-0.101-0.067-0.208-0.067-0.323c0-0.116,0.022-0.225,0.067-0.329c0.044-0.104,0.104-0.196,0.182-0.272
		c0.079-0.078,0.167-0.14,0.268-0.184c0.1-0.044,0.207-0.066,0.321-0.066c0.116,0,0.226,0.022,0.327,0.066
		c0.103,0.044,0.192,0.105,0.27,0.184c0.077,0.076,0.14,0.168,0.187,0.272C501.136,610.583,501.159,610.691,501.159,610.807
		 M500.893,619.664h-1.185v-6.74h1.185V619.664z"/>
	<path clip-path="url(#SVGID_29_)" fill="#FFFFFD" d="M507.581,614.121c-0.036,0.049-0.071,0.087-0.106,0.112
		c-0.037,0.027-0.087,0.04-0.154,0.04c-0.065,0-0.138-0.026-0.216-0.083c-0.078-0.055-0.176-0.115-0.296-0.182
		c-0.12-0.068-0.265-0.128-0.436-0.184c-0.171-0.057-0.38-0.083-0.629-0.083c-0.328,0-0.618,0.059-0.871,0.177
		c-0.253,0.117-0.465,0.287-0.637,0.509c-0.171,0.221-0.3,0.49-0.385,0.804c-0.087,0.316-0.13,0.668-0.13,1.06
		c0,0.408,0.046,0.77,0.139,1.088c0.095,0.315,0.225,0.583,0.394,0.798s0.374,0.38,0.615,0.492c0.241,0.113,0.514,0.17,0.815,0.17
		c0.288,0,0.525-0.034,0.711-0.104c0.188-0.068,0.343-0.145,0.466-0.229c0.124-0.084,0.228-0.16,0.307-0.23
		c0.08-0.067,0.16-0.102,0.24-0.102c0.102,0,0.177,0.037,0.226,0.113l0.333,0.432c-0.293,0.359-0.659,0.623-1.098,0.789
		c-0.439,0.166-0.903,0.249-1.392,0.249c-0.421,0-0.813-0.077-1.174-0.233c-0.362-0.154-0.675-0.381-0.942-0.675
		c-0.265-0.295-0.475-0.658-0.629-1.088c-0.151-0.43-0.229-0.92-0.229-1.47c0-0.502,0.07-0.965,0.21-1.392
		c0.139-0.425,0.344-0.793,0.612-1.101c0.268-0.309,0.6-0.549,0.993-0.722c0.396-0.174,0.849-0.261,1.358-0.261
		c0.47,0,0.887,0.076,1.251,0.23c0.364,0.153,0.686,0.369,0.964,0.647L507.581,614.121z"/>
	<path clip-path="url(#SVGID_29_)" fill="#FFFFFD" d="M513.901,613.429c0,0.084-0.017,0.165-0.047,0.242
		c-0.031,0.077-0.071,0.148-0.119,0.21l-3.646,4.857h3.679v0.924h-5.076v-0.491c0-0.058,0.015-0.125,0.043-0.203
		c0.028-0.077,0.069-0.152,0.123-0.224l3.666-4.89h-3.626v-0.932h5.004V613.429z"/>
	<path clip-path="url(#SVGID_29_)" fill="#FFFFFD" d="M515.346,619.664v-6.74h0.705c0.169,0,0.274,0.082,0.318,0.246l0.093,0.731
		c0.294-0.323,0.62-0.586,0.982-0.785s0.78-0.3,1.255-0.3c0.368,0,0.692,0.062,0.975,0.184c0.28,0.122,0.517,0.295,0.704,0.519
		c0.189,0.225,0.332,0.494,0.431,0.81c0.097,0.314,0.145,0.662,0.145,1.044v4.292h-1.183v-4.292c0-0.511-0.117-0.905-0.351-1.188
		c-0.231-0.282-0.589-0.423-1.067-0.423c-0.351,0-0.677,0.085-0.982,0.253c-0.303,0.169-0.584,0.397-0.84,0.685v4.965H515.346z"/>
	<path clip-path="url(#SVGID_29_)" fill="#FFFFFD" d="M524.507,621.653c-0.04,0.089-0.091,0.16-0.149,0.213
		c-0.06,0.054-0.153,0.08-0.277,0.08h-0.878l1.231-2.676l-2.781-6.347h1.025c0.101,0,0.182,0.025,0.238,0.076
		c0.059,0.051,0.101,0.108,0.126,0.17l1.805,4.245c0.04,0.097,0.073,0.195,0.102,0.293c0.03,0.097,0.056,0.197,0.078,0.299
		c0.031-0.102,0.062-0.202,0.092-0.299c0.032-0.098,0.067-0.198,0.107-0.3l1.75-4.238c0.026-0.072,0.072-0.13,0.136-0.176
		c0.065-0.047,0.134-0.07,0.209-0.07h0.946L524.507,621.653z"/>
	<path clip-path="url(#SVGID_29_)" fill="#FFFFFD" d="M355.91,636.089c0.402,0,0.755-0.037,1.055-0.109
		c0.299-0.074,0.584-0.175,0.854-0.303v-1.75h-1.204c-0.115,0-0.206-0.032-0.272-0.098c-0.066-0.063-0.1-0.143-0.1-0.235v-1.013h3.2
		v3.894c-0.244,0.177-0.498,0.332-0.763,0.463c-0.264,0.13-0.545,0.238-0.845,0.322c-0.299,0.084-0.619,0.146-0.961,0.188
		s-0.71,0.064-1.105,0.064c-0.7,0-1.346-0.122-1.936-0.366s-1.1-0.583-1.53-1.018c-0.431-0.436-0.767-0.954-1.008-1.559
		c-0.242-0.602-0.364-1.261-0.364-1.975c0-0.724,0.119-1.387,0.354-1.989c0.233-0.604,0.567-1.122,1.001-1.558
		c0.433-0.436,0.957-0.772,1.573-1.012s1.309-0.358,2.075-0.358c0.786,0,1.466,0.116,2.039,0.348
		c0.576,0.234,1.063,0.537,1.461,0.909l-0.518,0.812c-0.104,0.164-0.237,0.246-0.406,0.246c-0.106,0-0.215-0.034-0.327-0.105
		c-0.141-0.084-0.287-0.169-0.435-0.253c-0.149-0.084-0.313-0.157-0.492-0.221c-0.18-0.061-0.382-0.112-0.605-0.152
		c-0.225-0.04-0.482-0.061-0.775-0.061c-0.475,0-0.904,0.08-1.288,0.24s-0.711,0.388-0.982,0.686
		c-0.27,0.297-0.478,0.653-0.625,1.07c-0.146,0.417-0.219,0.883-0.219,1.398c0,0.555,0.078,1.048,0.233,1.479
		c0.155,0.434,0.372,0.797,0.65,1.096c0.28,0.297,0.613,0.523,0.998,0.682C355.032,636.01,355.453,636.089,355.91,636.089"/>
	<path clip-path="url(#SVGID_29_)" fill="#FFFFFD" d="M372.317,632.596c0,0.705-0.117,1.353-0.353,1.941
		c-0.236,0.591-0.565,1.1-0.992,1.525c-0.425,0.426-0.938,0.756-1.537,0.991c-0.598,0.234-1.261,0.353-1.988,0.353h-3.673v-9.622
		h3.673c0.728,0,1.391,0.119,1.988,0.356c0.6,0.236,1.112,0.567,1.537,0.991c0.427,0.424,0.756,0.931,0.992,1.521
		C372.2,631.243,372.317,631.891,372.317,632.596 M370.488,632.596c0-0.528-0.071-1.002-0.214-1.421
		c-0.142-0.419-0.345-0.773-0.605-1.064c-0.262-0.29-0.579-0.514-0.954-0.669c-0.375-0.156-0.798-0.233-1.268-0.233h-1.87v6.774
		h1.87c0.47,0,0.893-0.077,1.268-0.234c0.375-0.153,0.692-0.378,0.954-0.668c0.261-0.291,0.464-0.645,0.605-1.063
		C370.417,633.597,370.488,633.123,370.488,632.596"/>
	<path clip-path="url(#SVGID_29_)" fill="#FFFFFD" d="M380.13,633.667v3.738h-1.79v-3.738l-3.507-5.883h1.576
		c0.156,0,0.279,0.037,0.369,0.113c0.091,0.076,0.168,0.171,0.23,0.287l1.764,3.212c0.102,0.192,0.19,0.373,0.265,0.543
		c0.076,0.171,0.146,0.338,0.207,0.502c0.059-0.168,0.123-0.337,0.197-0.508c0.073-0.171,0.16-0.35,0.262-0.537l1.75-3.212
		c0.05-0.098,0.122-0.188,0.221-0.274c0.097-0.084,0.222-0.126,0.372-0.126h1.584L380.13,633.667z"/>
	<path clip-path="url(#SVGID_29_)" fill="#FFFFFD" d="M388.36,627.795c0.053,0.007,0.101,0.02,0.143,0.04
		c0.042,0.02,0.084,0.049,0.123,0.086c0.04,0.038,0.085,0.088,0.133,0.149l5.05,6.435c-0.017-0.155-0.029-0.308-0.035-0.455
		c-0.008-0.15-0.012-0.287-0.012-0.416v-5.85h1.577v9.621h-0.924c-0.142,0-0.26-0.021-0.353-0.065
		c-0.094-0.044-0.185-0.124-0.272-0.239l-5.031-6.409c0.014,0.144,0.024,0.284,0.03,0.423c0.007,0.141,0.01,0.269,0.01,0.384v5.907
		h-1.577v-9.621h0.938C388.24,627.785,388.306,627.789,388.36,627.795"/>
	<rect x="400.164" y="627.785" clip-path="url(#SVGID_29_)" fill="#FFFFFD" width="1.796" height="9.621"/>
	<path clip-path="url(#SVGID_29_)" fill="#FFFFFD" d="M415.241,637.407h-1.385c-0.156,0-0.282-0.039-0.382-0.116
		c-0.102-0.079-0.172-0.174-0.217-0.29l-0.72-1.963h-3.984l-0.72,1.963c-0.034,0.103-0.104,0.195-0.209,0.28
		c-0.104,0.084-0.231,0.126-0.383,0.126h-1.39l3.779-9.621h1.829L415.241,637.407z M409.013,633.774h3.066l-1.171-3.2
		c-0.052-0.144-0.111-0.311-0.175-0.503c-0.065-0.193-0.128-0.402-0.191-0.629c-0.061,0.227-0.123,0.437-0.182,0.633
		c-0.06,0.195-0.119,0.365-0.177,0.511L409.013,633.774z"/>
</g>
</svg>
