<?xml version="1.0" encoding="utf-8"?>
<!-- Generator: Adobe Illustrator 15.0.0, SVG Export Plug-In . SVG Version: 6.00 Build 0)  -->
<!DOCTYPE svg PUBLIC "-//W3C//DTD SVG 1.1//EN" "http://www.w3.org/Graphics/SVG/1.1/DTD/svg11.dtd">
<svg version="1.1" id="Warstwa_1" xmlns="http://www.w3.org/2000/svg" xmlns:xlink="http://www.w3.org/1999/xlink" x="0px" y="0px"
	 width="49.407px" height="34.016px" viewBox="0 0 49.407 34.016" enable-background="new 0 0 49.407 34.016" xml:space="preserve">
<g>
	<path fill="#FFFFFF" d="M30.978,0.995H30.81C30.728,0.915,30.972,0.993,30.978,0.995"/>
	<path fill="#FFFFFF" d="M25.537,12.742c-0.009,0.042-0.021,0.073-0.039,0.091c-0.054,0.052-0.157,0.044-0.22,0
		c-0.038-0.028-0.039-0.08-0.045-0.123v-0.002c-0.002-0.487,0.004-0.95-0.067-1.436c-0.146-1.114-0.47-2.182-0.76-3.27
		c-0.034-0.12-0.058-0.244-0.116-0.358c-0.039-0.074-0.123-0.125-0.174-0.194l-0.2-0.346l-0.181-0.315l-0.31-0.434
		c-0.152-0.202-0.354-0.358-0.547-0.527c-0.052-0.054-0.084-0.12-0.136-0.174c-0.128-0.135-0.533-0.4-0.397-0.611
		c0.107-0.166,0.298-0.055,0.446-0.002l0.221,0.053c0.495,0.081,0.935,0.073,1.439,0.071c0.564-0.011,1.135-0.132,1.696-0.195
		l0.646-0.043l0.525,0.03l0.688,0.073c0.454,0.04,0.907,0.045,1.352,0.146c0.918,0.235,1.835,0.408,2.73,0.707
		c0.399,0.129,0.818,0.247,1.194,0.422l0.577,0.326l0.4,0.242c0.123,0.071,0.486,0.27,0.647,0.448l0.117,0.051l0.003-0.002
		c0.171,0.084,0.209,0.108,0.21,0.268l-0.155-0.137c0,0.049-0.005,0.116-0.011,0.179c0.003,0.048,0.004,0.098,0.004,0.155
		c-0.007,0.016-0.026,0.017-0.051,0.013c-0.027,0.004-0.071-0.017-0.098-0.028c-0.065-0.027-0.101-0.064-0.119-0.109h-0.002
		c-0.105-0.045-0.196-0.081-0.24-0.165c-0.071-0.033-0.127-0.071-0.184-0.134c-0.438-0.257-0.869-0.519-1.312-0.771
		c-0.356-0.169-0.758-0.282-1.138-0.406l-0.558-0.189C30.9,5.915,30.41,5.817,29.928,5.704l-0.69-0.181
		c-0.413-0.097-0.855-0.098-1.28-0.138L27.27,5.307c-0.707-0.071-1.425,0.039-2.121,0.144c-0.443,0.061-0.877,0.053-1.323,0.052
		c-0.247-0.003-0.552-0.017-0.836-0.068c0.141,0.143,0.283,0.283,0.435,0.416c0.477,0.435,0.71,1.016,1.072,1.518
		c0.083,0.114,0.149,0.234,0.196,0.364c0.38,1.441,0.887,2.971,0.854,4.455c0,0.041,0.004,0.115,0.007,0.198
		c0.007-0.035,0.024-0.063,0.071-0.1c0.15-0.119,0.35-0.215,0.517-0.317c0.266-0.127,0.53-0.287,0.801-0.399
		c0.163-0.067,0.362-0.098,0.537-0.135c0.514-0.091,1.053-0.23,1.573-0.246c0.784-0.034,1.552-0.048,2.337-0.045
		c0.476,0.008,0.91,0.125,1.368,0.225c0.731,0.165,1.42,0.488,2.108,0.757c0.679,0.232,1.287,0.516,1.919,0.831
		c0.343,0.196,0.614,0.524,0.894,0.798h0.062c0.001-0.032,0.001-0.063,0.001-0.094c0.013-0.059,0.055-0.111,0.065-0.171
		c0.03-0.176,0.001-0.407,0.002-0.589l-0.058-0.43c-0.017-0.143-0.016-0.289-0.056-0.428c-0.259-0.619-0.499-1.24-0.729-1.868
		c-0.304-0.587-0.59-1.18-0.9-1.763c-0.027-0.045-0.072-0.079-0.112-0.116c0.158,0.078,0.194,0.178,0.278,0.316l0.254,0.466
		l0.198,0.372l0.31,0.563c0.257,0.587,0.492,1.181,0.746,1.77c0.202,0.499,0.227,1.055,0.244,1.582
		c-0.005,0.152-0.067,0.286-0.066,0.441c-0.003,0.137-0.177,0.123-0.298,0.104c-0.075-0.012-0.316-0.285-0.364-0.332l-0.275-0.261
		c-0.316-0.269-0.748-0.429-1.135-0.608l-0.523-0.226c-0.691-0.229-1.354-0.503-2.038-0.746c-0.475-0.158-0.981-0.246-1.477-0.345
		c-0.327-0.044-0.68-0.022-1.011-0.021l-0.625,0.003l-0.548,0.028c-0.347,0.018-0.729,0.011-1.068,0.078
		c-0.417,0.098-0.838,0.163-1.255,0.257c-0.25,0.059-0.439,0.178-0.668,0.279c-0.248,0.142-0.561,0.275-0.78,0.452
		c-0.009,0.068-0.04,0.101-0.127,0.128c-0.014,0.063-0.054,0.093-0.155,0.119L25.537,12.742z"/>
	<path fill="#FFFFFF" d="M43.121,17.113l0.13,0.061l-0.043,0.006L43.2,17.184l0.039,0.035l-0.16-0.06
		c-0.104-0.021-0.168-0.06-0.201-0.121l-0.03-0.02c-0.663-0.286-1.18-0.782-1.663-1.183c-0.173-0.152-0.334-0.301-0.541-0.433
		c-0.837-0.48-1.724-0.914-2.633-1.336c-0.549-0.218-1.193-0.357-1.791-0.512c-1.661-0.469-3.295-0.928-5.045-1.249
		c-2.067-0.288-4.16-0.606-6.273-0.708c-0.57-0.001-1.243-0.004-1.8-0.096l0.026,0.014c0.491,0.252,1.02,0.538,1.358,0.884
		c0.597,0.608,0.755,1.299,0.942,1.995c0.183,0.898,0.401,1.774,0.687,2.66c0.152,0.664,0.206,1.373,0.224,2.044l-0.047,0.604
		l-0.09,0.504c-0.031,0.26-0.03,0.519-0.091,0.775c0.06-0.049,0.069-0.108,0.146-0.142c0.166-0.072,0.354-0.116,0.523-0.194
		c0.849-0.423,1.773-0.673,2.757-0.938c0.926-0.203,1.986-0.253,2.961-0.28l0.896,0.002c1.079,0.003,2.076,0.091,3.138,0.201
		c0.891,0.142,1.711,0.306,2.564,0.522c0.672,0.219,1.278,0.445,1.911,0.708c0.468,0.212,0.879,0.446,1.306,0.69
		c0.616,0.463,1.349,0.959,1.69,1.547c0.003-0.175,0.005-0.352,0.006-0.528c0.021-0.168,0.092-0.333,0.092-0.501
		c-0.13-0.991-0.311-1.976-0.4-2.969c0.013-0.862,0.026-1.717-0.101-2.578l0.075,0.193c0.123,0.74,0.157,1.456,0.169,2.199
		c0.055,0.951,0.275,1.89,0.425,2.837c0.063,0.494-0.033,0.992-0.028,1.49c-0.001,0.109,0.052,0.23-0.026,0.33
		c-0.064,0.08-0.196-0.018-0.248-0.042c-0.075-0.036-0.06-0.107-0.082-0.16c-0.117-0.27-0.376-0.612-0.639-0.831
		c-0.51-0.389-0.964-0.769-1.563-1.103c-0.489-0.264-0.953-0.465-1.493-0.683c-0.672-0.248-1.304-0.437-2.026-0.617l-0.959-0.181
		c-2.034-0.317-4.077-0.374-6.15-0.205l-0.767,0.072c-0.867,0.124-1.761,0.435-2.542,0.702c-0.419,0.174-0.772,0.369-1.211,0.519
		c-0.085,0.104-0.161,0.162-0.348,0.223c-0.11,0.048-0.256,0.196-0.381,0.203c-0.441,0.028-0.124-0.42-0.095-0.545
		c0.056-0.233,0.04-0.509,0.065-0.75l0.084-0.504c0.035-0.521,0.026-0.993-0.038-1.511c-0.041-0.346-0.047-0.706-0.155-1.045
		c-0.296-0.893-0.524-1.775-0.716-2.68c-0.184-0.656-0.329-1.296-0.892-1.87c-0.249-0.253-0.655-0.482-1.012-0.674
		c-0.083-0.042-0.159-0.091-0.257-0.117c-0.05-0.014-0.107-0.013-0.158-0.025c-0.091-0.023-0.148-0.081-0.19-0.142
		c-0.23-0.086-0.354-0.266-0.104-0.374c0.001,0,0.003-0.001,0.004-0.002c0.221-0.181,0.83-0.037,1.11-0.027
		c0.497,0.04,0.947,0.055,1.449,0.054l0.642,0.029l0.657,0.055c1.718,0.161,3.395,0.381,5.092,0.612
		c1.791,0.321,3.463,0.781,5.162,1.257c0.635,0.16,1.301,0.309,1.885,0.537c0.945,0.435,1.865,0.881,2.735,1.377
		c0.428,0.272,0.799,0.633,1.162,0.943c0.237,0.2,0.523,0.36,0.799,0.537c0.128,0.082,0.24,0.071,0.328,0.18
		c0.072,0.024,0.109,0.043,0.146,0.079c0.117,0.053,0.141,0.113,0.141,0.219l-0.313-0.014l-0.252,0.012l0.001,0.001L43.121,17.113z"
		/>
	<path fill="#FFFFFF" d="M32.471,23.807h-6.914l-1.072,1.38c-0.018,0.019-0.042,0.047-0.076,0.088
		c-0.389,0.499-0.653,0.911-0.796,1.243c-0.001-0.209-0.013-0.425-0.034-0.649s-0.056-0.476-0.104-0.758l-0.239-1.304h-3.901
		l1.576,5.815l-1.193,3.59c1.325-0.104,2.566-0.21,3.733-0.318l1.067-3.22l3.681-4.029l-2.281,7.008
		c1.369-0.144,2.62-0.285,3.767-0.426l0.416-1.261l0.025-0.081c0.339-1.046,0.552-1.803,0.639-2.269l0.708,3.383
		c1.881-0.248,3.45-0.482,4.796-0.685l2.489-7.508h-3.589l-1.716,5.176c-0.024-0.501-0.112-1.098-0.262-1.785
		c-0.022-0.105-0.038-0.183-0.047-0.233L32.471,23.807z M8.761,32.596c-0.755,0.477-1.497,0.83-2.229,1.067
		c-0.73,0.234-1.461,0.352-2.19,0.352c-1.48,0-2.616-0.43-3.402-1.29c-0.789-0.86-1.081-1.982-0.876-3.369
		c0.109-0.742,0.324-1.436,0.648-2.082c0.323-0.645,0.748-1.229,1.275-1.755c0.615-0.632,1.327-1.111,2.134-1.44
		c0.808-0.331,1.662-0.496,2.565-0.496c1.05,0,1.917,0.214,2.604,0.637c0.687,0.428,1.188,1.065,1.499,1.911l-3.386,1.194
		c-0.136-0.238-0.306-0.415-0.513-0.528c-0.207-0.114-0.455-0.17-0.748-0.17c-0.632,0-1.178,0.232-1.643,0.696
		c-0.466,0.464-0.752,1.063-0.86,1.797c-0.09,0.612,0.017,1.103,0.32,1.474c0.303,0.371,0.753,0.558,1.346,0.558
		c0.083,0,0.166-0.003,0.253-0.011c0.086-0.007,0.173-0.018,0.261-0.031l0.325-0.973H4.862l0.743-2.256h4.71L8.761,32.596z
		 M13.281,30.762h0.041c0.796,0,1.452-0.203,1.961-0.611c0.51-0.405,0.819-0.964,0.922-1.669c0.077-0.521-0.023-0.933-0.3-1.233
		c-0.278-0.302-0.694-0.452-1.248-0.452h-0.069L13.281,30.762z M8.705,33.752l3.29-9.945h2.676c0.828,0,1.517,0.041,2.061,0.122
		c0.544,0.082,0.981,0.207,1.312,0.374c0.722,0.391,1.238,0.924,1.552,1.601c0.313,0.677,0.402,1.461,0.271,2.353
		c-0.124,0.837-0.419,1.623-0.886,2.354c-0.47,0.729-1.066,1.342-1.79,1.831c-0.682,0.462-1.442,0.795-2.278,1.002
		c-0.238,0.059-0.492,0.107-0.76,0.149c-0.911,0.056-1.855,0.108-2.83,0.159H8.705z M36.928,31.215l2.457-7.408h3.635l-2.288,6.916
		C39.655,30.815,38.438,30.99,36.928,31.215 M44.93,30.076h1.264l0.116-1.067c0.006-0.057,0.011-0.141,0.022-0.25
		c0.045-0.444,0.086-0.802,0.126-1.072c0.026-0.183,0.048-0.32,0.064-0.418s0.034-0.189,0.052-0.275
		c-0.122,0.266-0.244,0.523-0.365,0.769c-0.122,0.248-0.23,0.472-0.34,0.663L44.93,30.076z M41.008,30.692l4.629-6.886h3.771
		l-0.002,8.174c-1.309-0.413-2.566-1.197-7.175-1.324C41.852,30.646,41.413,30.671,41.008,30.692"/>
	<path fill="#FFFFFF" d="M31.071,1.031c0.078,0.075,0.16,0.145,0.189,0.148l0.028,0.001c0.061,0.082,0.079,0.121,0.16,0.128
		c0.071,0.088,0.149,0.158,0.237,0.241c0.141,0.129,0.207,0.235,0.376,0.333c0.027,0.075,0.047,0.099,0.107,0.106
		c0.04,0.078,0.12,0.164,0.193,0.237c0.019,0.019,0.041,0.036,0.051,0.057c0.05,0.092,0.045,0.154,0.135,0.169
		c0.017,0.043,0.037,0.065,0.082,0.111c0.084,0.089,0.084,0.151,0.185,0.25c0.038,0.037,0.034,0.06,0.057,0.096
		c0.026,0.041,0.063,0.076,0.101,0.114c0.08,0.082,0.107,0.223,0.174,0.311c0.025,0.036,0.071,0.064,0.101,0.098
		c0.019,0.021,0.02,0.043,0.03,0.064c0.201,0.385,0.403,0.768,0.605,1.152c-0.039,0.015-0.032,0.051,0.015,0.122l-0.07,0.039
		l-0.008-0.005c-0.082,0.009-0.113,0.012-0.106,0.045c-0.059-0.002-0.147-0.001-0.174-0.011c-0.072-0.03-0.114-0.04-0.171-0.039
		c-0.086-0.053-0.158-0.067-0.272-0.099c-0.266-0.084-0.538-0.208-0.801-0.279l-0.013-0.001c-0.125-0.075-0.284-0.121-0.396-0.125
		h-0.002c-0.109-0.054-0.165-0.081-0.274-0.087c-0.104-0.015-0.213-0.068-0.313-0.081c-0.123-0.075-0.224-0.056-0.367-0.094
		c-0.09-0.024-0.171-0.024-0.257-0.047c-0.124-0.035-0.218-0.032-0.338-0.057c-0.118-0.022-0.26-0.06-0.37-0.066
		c-0.133,0.003-0.27,0.012-0.415-0.014c-0.266-0.046-0.498-0.029-0.744-0.03c-0.173-0.001-0.304,0.039-0.472,0.043
		c-0.045,0.024-0.086,0.049-0.131,0.071l-0.016,0.009c-0.083,0.008-0.13,0.049-0.19,0.085h-0.002
		c-0.077-0.006-0.117-0.006-0.126,0.048c-0.044,0.021-0.095,0.05-0.133,0.075h-0.001c-0.117-0.008-0.124,0.019-0.156,0.079
		c-0.091,0.003-0.105,0.02-0.141,0.081c-0.09,0.005-0.16,0.044-0.219,0.084c-0.08,0.01-0.125,0.013-0.135,0.041
		c-0.048-0.001-0.084,0.004-0.102,0.022l-0.012-0.021L26.97,4.344c-0.078-0.123-0.168-0.227-0.23-0.348L26.54,3.62l-0.309-0.583
		c-0.087-0.164-0.164-0.331-0.287-0.493c-0.1-0.132-0.147-0.242-0.215-0.378C25.682,2.082,25.62,2,25.559,1.917
		c-0.147-0.232-0.31-0.406-0.55-0.602c-0.033-0.026-0.063-0.055-0.089-0.084c-0.153-0.172-0.288-0.322-0.498-0.458l-0.001-0.001
		c-0.038-0.053-0.084-0.084-0.143-0.099l-0.005-0.004c-0.027-0.061-0.05-0.099-0.103-0.131c0.052,0,0.104,0,0.154,0.001
		c0.176,0.001,0.229-0.013,0.344-0.086l0.01,0.001c0.182-0.001,0.332-0.05,0.495-0.081c0.184-0.036,0.325-0.082,0.535-0.079
		l0.233,0.001l0.331,0.001c0.109-0.007,0.201-0.041,0.313-0.041c0.1-0.002,0.215,0.034,0.319,0.042
		c0.397,0.001,0.811,0.044,1.206,0.046c0.203-0.002,0.438,0.05,0.657,0.081l0.422,0.085c0.124,0.025,0.269,0.041,0.392,0.079
		c0.051,0.015,0.099,0.049,0.148,0.071c0.136,0.058,0.283,0.12,0.422,0.17c0.069,0.051,0.122,0.062,0.198,0.059
		c0.042,0.041,0.095,0.063,0.19,0.1l0.009,0.003c0.092,0.055,0.13,0.069,0.219,0.065c0.076,0.074,0.168,0.087,0.287,0.087
		l-0.179-0.107C30.931,1.036,31.012,1.039,31.071,1.031 M31.102,1.026c0.062-0.016,0.075-0.053-0.064-0.137
		c-0.041-0.025-0.082-0.036-0.122-0.041c-0.085-0.058-0.19-0.087-0.288-0.088c-0.022-0.01-0.045-0.019-0.067-0.029L30.559,0.73
		c-0.091-0.088-0.22-0.133-0.339-0.135c-0.028-0.014-0.061-0.027-0.106-0.045c-0.235-0.092-0.461-0.206-0.697-0.26
		c-0.387-0.083-0.773-0.159-1.148-0.201c-0.227-0.033-0.412-0.026-0.625-0.032L27.212,0.03c-0.322-0.006-0.657-0.049-0.961-0.021
		l-0.289,0.018c-0.239,0.001-0.491-0.017-0.703,0.03c-0.262,0.057-0.522,0.131-0.811,0.15l-0.133,0.081l0.002-0.001
		c-0.208-0.011-0.414-0.002-0.616-0.001c-0.178,0.011-0.056,0.218,0.106,0.297l0.043,0.021c0.044,0.035,0.081,0.047,0.145,0.062
		c0.055,0.099,0.146,0.19,0.258,0.226c0.064,0.055,0.144,0.111,0.199,0.157c0.153,0.139,0.263,0.283,0.427,0.417
		c0.09,0.074,0.294,0.251,0.34,0.331c0.038,0.065,0.079,0.129,0.127,0.193c0.159,0.213,0.222,0.407,0.388,0.622
		c0.034,0.044,0.062,0.088,0.086,0.133c0.235,0.435,0.477,0.872,0.702,1.307c0.056,0.091,0.126,0.166,0.188,0.254l0.001,0.001
		c0.006,0.115,0.075,0.227,0.142,0.349c0.067,0.099,0.228,0.155,0.244,0.059c0.045-0.005,0.071-0.012,0.078-0.035
		c0.034-0.006,0.058-0.016,0.064-0.039c0.064-0.003,0.11-0.011,0.116-0.052c0.072-0.011,0.125-0.039,0.18-0.079
		c0.118,0.008,0.124-0.018,0.156-0.081c0.09-0.004,0.104-0.02,0.139-0.083c0.109-0.004,0.205-0.054,0.251-0.126
		c0.105,0,0.142-0.044,0.215-0.086h0.003c0.093,0,0.117-0.073,0.191-0.087c0.041-0.008,0.097,0.006,0.138,0
		c0.038-0.007,0.062-0.035,0.102-0.041c0.063-0.009,0.153,0,0.223-0.001l0.419-0.001c0.039,0,0.075-0.008,0.118-0.002
		c0.072,0.009,0.148,0.034,0.221,0.042c0.133,0.014,0.272-0.026,0.4-0.005c0.165,0.026,0.336,0.096,0.489,0.084h0.034l0.008,0.003
		c0.095,0.037,0.149,0.044,0.23,0.034c0.12,0.052,0.244,0.059,0.361,0.08c0.047,0.039,0.071,0.043,0.129,0.046
		c0.049,0.003,0.344,0.123,0.359,0.076c0.121,0.055,0.161,0.08,0.277,0.086l0.013,0.001c0.07,0.027,0.146,0.052,0.217,0.077
		c0.073,0.063,0.088,0.025,0.158,0.054c0.154,0.058,0.312,0.113,0.468,0.169c0.156,0.055,0.307,0.09,0.462,0.148
		c0.061,0.053,0.082,0.039,0.148,0.04c0.082,0.001,0.448,0.119,0.432-0.005c0.064-0.007,0.143-0.028,0.143-0.082
		c0.04-0.024,0.026-0.051-0.003-0.093c0.066-0.035-0.028-0.144-0.081-0.241l-0.211-0.387l-0.28-0.516
		c-0.063-0.115-0.079-0.163-0.186-0.272c-0.058-0.059-0.114-0.192-0.152-0.262c-0.024-0.039-0.055-0.075-0.09-0.113
		c-0.071-0.072-0.083-0.129-0.16-0.207c-0.063-0.063-0.048-0.072-0.089-0.135c-0.036-0.058-0.097-0.105-0.137-0.165
		c-0.048-0.074-0.061-0.087-0.104-0.09l-0.019-0.041c-0.05-0.112-0.196-0.216-0.27-0.329C32.21,1.926,32.2,1.918,32.155,1.917
		c-0.046-0.081,0.006-0.034-0.119-0.112c-0.04-0.026-0.074-0.056-0.106-0.089c-0.04-0.041-0.467-0.45-0.475-0.452
		c-0.014-0.002-0.027-0.002-0.042-0.001c-0.083-0.08-0.07-0.12-0.161-0.12C31.2,1.103,31.15,1.065,31.102,1.026"/>
</g>
</svg>
