<?xml version="1.0" encoding="utf-8"?>
<!-- Generator: Adobe Illustrator 15.0.0, SVG Export Plug-In . SVG Version: 6.00 Build 0)  -->
<!DOCTYPE svg PUBLIC "-//W3C//DTD SVG 1.1//EN" "http://www.w3.org/Graphics/SVG/1.1/DTD/svg11.dtd">
<svg version="1.1" id="Warstwa_1" xmlns="http://www.w3.org/2000/svg" xmlns:xlink="http://www.w3.org/1999/xlink" x="0px" y="0px"
	 width="130px" height="100px" viewBox="0 0 130 100" enable-background="new 0 0 130 100" xml:space="preserve">
<line fill="none" stroke="#FFFFFF" stroke-width="0.5" stroke-miterlimit="10" x1="65.945" y1="17.53" x2="65.945" y2="64.6"/>
<g>
	<path fill="#31BBAB" d="M28.075,73.593h-2.107c-2.521,0-4.504-2.024-4.504-4.504V55.701c0-2.479,1.983-4.504,4.504-4.504h2.107
		c2.479,0,4.504,2.024,4.504,4.504v13.388C32.579,71.568,30.554,73.593,28.075,73.593z M25.968,54.503
		c-0.661,0-1.198,0.537-1.198,1.198v13.388c0,0.661,0.537,1.198,1.198,1.198h2.107c0.661,0,1.198-0.537,1.198-1.198V55.701
		c0-0.661-0.537-1.198-1.198-1.198H25.968z"/>
</g>
<g>
	<rect x="1.552" y="73.816" fill="#31BBAB" width="10.512" height="3.283"/>
	<path fill="#31BBAB" d="M19.506,50.538v36.068c0,2.975-2.438,5.372-5.371,5.372c-2.975,0-5.371-2.397-5.371-5.372V73.799h3.305
		v12.807c0,1.116,0.909,2.025,2.066,2.025c1.115,0,2.024-0.909,2.024-2.025V72.889h-2.768c-1.983,0-3.47-1.073-4.173-3.098
		c-0.496-1.323-0.537-2.811-0.537-3.802V50.538h3.346l-0.041,15.452c0,0.413,0,1.735,0.331,2.686
		c0.33,0.909,0.744,0.909,1.074,0.909h2.768V50.538H19.506z"/>
</g>
<g>
	<path fill="#FFFFFF" d="M19.524,36.831v12.29h-3.341v-12.29c0-0.845-0.691-1.536-1.536-1.536h-2.688v13.826H8.655V18.742h5.531
		c2.496,0,5.3,2.036,5.3,4.57v7.335c0,1.191-0.461,2.305-1.267,3.188C19.024,34.565,19.524,35.641,19.524,36.831z M11.958,32.606
		h2.228c0.538,0,1.037-0.192,1.382-0.576c0.384-0.346,0.576-0.845,0.576-1.383v-7.335c0-1.114-0.883-1.997-1.958-1.997h-2.228
		V32.606z"/>
	<path fill="#FFFFFF" d="M27.012,49.121h-1.613c-2.343,0-4.225-1.882-4.225-4.225V22.928c0-2.343,1.882-4.225,4.225-4.225h1.613
		c2.343,0,4.225,1.882,4.225,4.225v21.969C31.237,47.239,29.355,49.121,27.012,49.121z M25.898,21.276
		c-0.921,0-1.651,0.73-1.651,1.651v21.969c0,0.922,0.73,1.651,1.651,1.651h0.5c0.922,0,1.651-0.729,1.651-1.651V22.928
		c0-0.921-0.729-1.651-1.651-1.651H25.898z"/>
	<path fill="#FFFFFF" d="M38.995,49.121h-1.613c-2.343,0-4.225-1.882-4.225-4.225V22.928c0-2.343,1.882-4.225,4.225-4.225h1.613
		c2.343,0,4.225,1.882,4.225,4.225v9.026h-3.111v-9.026c0-0.921-0.729-1.651-1.651-1.651h-0.576c-0.921,0-1.651,0.73-1.651,1.651
		v21.969c0,0.922,0.73,1.651,1.651,1.651h0.576c0.922,0,1.651-0.729,1.651-1.651v-9.563h3.111v9.563
		C43.22,47.239,41.338,49.121,38.995,49.121z"/>
	<path fill="#FFFFFF" d="M52.936,30.571c1.613,2.151,2.497,4.993,2.497,7.989v10.562h-2.958V38.56c0-2.458-0.691-4.763-1.958-6.453
		c-0.884-1.19-1.383-1.958-2.535-2.304v19.318h-3.111V18.742h3.111v8.219c1.306-0.576,1.92-1.344,2.65-2.189
		c0.96-1.268,1.843-3.188,1.843-6.03h2.573c0,2.842-0.845,5.53-2.343,7.528c-0.653,0.921-1.421,1.651-2.266,2.189
		C51.208,28.996,52.321,29.726,52.936,30.571z"/>
</g>
<g>
	<path fill="#FFFFFF" d="M26.358,86.11h-1.573v-8.57h1.573c0.705,0,1.269,0.542,1.269,1.204v2.397c0,0.271-0.108,0.521-0.282,0.705
		c0.184,0.195,0.282,0.444,0.282,0.716v2.333C27.627,85.568,27.063,86.11,26.358,86.11z M25.653,78.267v3.222l0.727-0.011
		c0.217-0.011,0.38-0.162,0.38-0.336v-2.397c0-0.261-0.239-0.478-0.542-0.478H25.653z M25.653,85.384h0.564
		c0.304,0,0.542-0.218,0.542-0.488v-2.333c0-0.108-0.054-0.185-0.098-0.228c-0.065-0.076-0.174-0.108-0.293-0.108h-0.716V85.384z"/>
	<path fill="#FFFFFF" d="M32.052,86.11h-0.456c-0.662,0-1.193-0.531-1.193-1.193v-7.366h0.9v7.366c0,0.261,0.206,0.467,0.466,0.467
		h0.163c0.261,0,0.467-0.206,0.467-0.467v-7.366h0.846v7.366C33.246,85.579,32.714,86.11,32.052,86.11z"/>
	<path fill="#FFFFFF" d="M37.583,86.11h-0.651c-0.607,0-1.096-0.467-1.096-1.042v-2.256h0.879v2.256
		c0,0.174,0.163,0.315,0.369,0.315h0.369c0.206,0,0.369-0.142,0.369-0.315v-2.723c0-0.119-0.119-0.228-0.26-0.228h-0.727
		c-0.553,0-0.998-0.424-0.998-0.944V78.56c0-0.575,0.488-1.042,1.096-1.042h0.651c0.608,0,1.096,0.467,1.096,1.042v2.148h-0.857
		V78.56c0-0.174-0.163-0.314-0.369-0.314h-0.369c-0.206,0-0.369,0.141-0.369,0.314v2.614c0,0.119,0.119,0.229,0.271,0.229h0.706
		c0.542,0,0.987,0.423,0.987,0.943v2.723C38.679,85.644,38.191,86.11,37.583,86.11z"/>
	<path fill="#FFFFFF" d="M42.258,86.11H41.39v-8.593h0.868V86.11z"/>
	<path fill="#FFFFFF" d="M46.954,86.11c-0.379-1.552-0.813-3.775-1.269-5.609V86.1h-0.857v-8.571c0,0,0.445,0,0.716,0l0.087,0.282
		c0.065,0.229,0.141,0.564,0.25,0.966c0.195,0.813,0.456,1.877,0.727,2.951l0.347,1.432l0.022-5.619h0.846l-0.033,8.57H46.954z"/>
	<path fill="#FFFFFF" d="M51.314,78.277v3.157h1.616v0.727h-1.616v3.223h1.616v0.727h-2.484v-8.56h2.484v0.727H51.314z"/>
	<path fill="#FFFFFF" d="M57.344,86.11h-0.651c-0.607,0-1.096-0.467-1.096-1.042v-2.256h0.879v2.256
		c0,0.174,0.163,0.315,0.369,0.315h0.369c0.206,0,0.369-0.142,0.369-0.315v-2.723c0-0.119-0.119-0.228-0.26-0.228h-0.727
		c-0.553,0-0.998-0.424-0.998-0.944V78.56c0-0.575,0.488-1.042,1.096-1.042h0.651c0.608,0,1.096,0.467,1.096,1.042v2.148h-0.857
		V78.56c0-0.174-0.163-0.314-0.369-0.314h-0.369c-0.206,0-0.369,0.141-0.369,0.314v2.614c0,0.119,0.119,0.229,0.271,0.229h0.706
		c0.542,0,0.987,0.423,0.987,0.943v2.723C58.44,85.644,57.952,86.11,57.344,86.11z"/>
	<path fill="#FFFFFF" d="M62.886,86.11h-0.651c-0.607,0-1.096-0.467-1.096-1.042v-2.256h0.879v2.256
		c0,0.174,0.163,0.315,0.369,0.315h0.369c0.206,0,0.369-0.142,0.369-0.315v-2.723c0-0.119-0.119-0.228-0.26-0.228h-0.727
		c-0.553,0-0.998-0.424-0.998-0.944V78.56c0-0.575,0.488-1.042,1.096-1.042h0.651c0.608,0,1.096,0.467,1.096,1.042v2.148h-0.857
		V78.56c0-0.174-0.163-0.314-0.369-0.314h-0.369c-0.206,0-0.369,0.141-0.369,0.314v2.614c0,0.119,0.119,0.229,0.271,0.229h0.706
		c0.542,0,0.987,0.423,0.987,0.943v2.723C63.982,85.644,63.494,86.11,62.886,86.11z"/>
</g>
<g>
	<path fill="#31BBAB" d="M59,57.485v6.9h-3.306v-6.9c0-0.579-0.248-1.116-0.702-1.487c-0.413-0.372-0.992-0.579-1.529-0.579
		c-1.24,0-2.149,0.909-2.149,2.066h-0.041v16.693h-3.306V52.072h3.306v0.454c0.661-0.289,1.405-0.413,2.19-0.413
		c1.363,0,2.645,0.455,3.677,1.363C58.339,54.469,59,55.956,59,57.485z"/>
</g>
<g>
	<path fill="#31BBAB" d="M41.317,72.898H39.21c-2.479,0-4.504-1.983-4.504-4.504V50.502h3.306v17.892
		c0,0.661,0.537,1.198,1.198,1.198h2.107c0.661,0,1.198-0.537,1.198-1.198V50.502h3.306v17.892
		C45.821,70.915,43.796,72.898,41.317,72.898z"/>
</g>
<g>
	<path fill="#FFFFFC" d="M71.426,55.082v0.784h-0.282v-2.095h0.619c0.132,0,0.246,0.016,0.345,0.046
		c0.099,0.031,0.179,0.074,0.243,0.131s0.112,0.124,0.145,0.205c0.031,0.08,0.048,0.169,0.048,0.268
		c0,0.097-0.018,0.186-0.052,0.268c-0.033,0.081-0.084,0.15-0.149,0.209c-0.066,0.058-0.147,0.104-0.245,0.137
		c-0.098,0.031-0.209,0.048-0.334,0.048H71.426z M71.426,54.856h0.337c0.08,0,0.152-0.011,0.214-0.031
		c0.062-0.021,0.113-0.052,0.155-0.09s0.074-0.084,0.096-0.138s0.032-0.112,0.032-0.177c0-0.134-0.041-0.237-0.124-0.313
		s-0.207-0.112-0.373-0.112h-0.337V54.856z"/>
	<path fill="#FFFFFC" d="M73.415,54.362c0.107,0,0.206,0.018,0.293,0.054c0.088,0.036,0.161,0.087,0.222,0.153
		s0.108,0.146,0.142,0.241c0.032,0.094,0.048,0.198,0.048,0.314c0,0.117-0.016,0.222-0.048,0.316
		c-0.033,0.093-0.081,0.173-0.142,0.239c-0.061,0.065-0.134,0.117-0.222,0.152c-0.087,0.035-0.186,0.053-0.293,0.053
		c-0.108,0-0.205-0.018-0.293-0.053c-0.087-0.035-0.161-0.087-0.223-0.152c-0.062-0.066-0.109-0.146-0.142-0.239
		c-0.034-0.095-0.05-0.199-0.05-0.316c0-0.116,0.016-0.221,0.05-0.314c0.032-0.095,0.08-0.175,0.142-0.241s0.136-0.117,0.223-0.153
		C73.21,54.38,73.307,54.362,73.415,54.362 M73.415,55.684c0.146,0,0.256-0.05,0.327-0.147c0.072-0.098,0.109-0.234,0.109-0.409
		c0-0.177-0.037-0.314-0.109-0.413c-0.071-0.099-0.181-0.147-0.327-0.147c-0.074,0-0.139,0.014-0.192,0.038
		c-0.056,0.025-0.101,0.063-0.137,0.109c-0.037,0.048-0.064,0.107-0.082,0.177c-0.019,0.07-0.027,0.148-0.027,0.236
		c0,0.087,0.009,0.166,0.027,0.234c0.018,0.07,0.045,0.128,0.082,0.175c0.036,0.048,0.081,0.084,0.137,0.108
		C73.276,55.67,73.341,55.684,73.415,55.684"/>
	<path fill="#FFFFFC" d="M74.44,55.866v-1.481h0.156c0.036,0,0.06,0.019,0.069,0.054l0.02,0.153
		c0.054-0.067,0.114-0.123,0.183-0.166c0.067-0.042,0.146-0.063,0.236-0.063c0.101,0,0.182,0.027,0.243,0.083
		s0.106,0.131,0.134,0.226c0.021-0.054,0.048-0.1,0.081-0.14c0.034-0.039,0.072-0.071,0.113-0.096
		c0.042-0.025,0.086-0.045,0.134-0.056c0.047-0.013,0.095-0.018,0.145-0.018c0.077,0,0.146,0.012,0.207,0.037
		s0.112,0.061,0.155,0.109c0.042,0.047,0.075,0.106,0.097,0.175c0.023,0.07,0.034,0.15,0.034,0.239v0.943h-0.26v-0.943
		c0-0.116-0.025-0.203-0.076-0.264c-0.051-0.06-0.124-0.09-0.221-0.09c-0.043,0-0.083,0.008-0.122,0.023
		c-0.039,0.015-0.071,0.037-0.103,0.065c-0.028,0.03-0.052,0.066-0.068,0.111c-0.017,0.044-0.026,0.096-0.026,0.153v0.943h-0.26
		v-0.943c0-0.119-0.023-0.207-0.071-0.267c-0.047-0.058-0.118-0.087-0.209-0.087c-0.063,0-0.124,0.018-0.18,0.052
		c-0.055,0.035-0.105,0.082-0.149,0.141v1.104H74.44z"/>
	<path fill="#FFFFFC" d="M77.439,54.362c0.108,0,0.207,0.018,0.293,0.054c0.088,0.036,0.162,0.087,0.223,0.153
		s0.107,0.146,0.141,0.241c0.032,0.094,0.049,0.198,0.049,0.314c0,0.117-0.017,0.222-0.049,0.316
		c-0.033,0.093-0.08,0.173-0.141,0.239c-0.061,0.065-0.135,0.117-0.223,0.152c-0.086,0.035-0.185,0.053-0.293,0.053
		c-0.107,0-0.205-0.018-0.293-0.053c-0.087-0.035-0.161-0.087-0.223-0.152c-0.062-0.066-0.108-0.146-0.142-0.239
		c-0.033-0.095-0.049-0.199-0.049-0.316c0-0.116,0.016-0.221,0.049-0.314c0.033-0.095,0.08-0.175,0.142-0.241
		s0.136-0.117,0.223-0.153C77.234,54.38,77.332,54.362,77.439,54.362 M77.439,55.684c0.146,0,0.256-0.05,0.328-0.147
		c0.071-0.098,0.108-0.234,0.108-0.409c0-0.177-0.037-0.314-0.108-0.413c-0.072-0.099-0.182-0.147-0.328-0.147
		c-0.074,0-0.139,0.014-0.191,0.038c-0.056,0.025-0.102,0.063-0.138,0.109c-0.036,0.048-0.063,0.107-0.083,0.177
		c-0.018,0.07-0.026,0.148-0.026,0.236c0,0.087,0.009,0.166,0.026,0.234c0.02,0.07,0.047,0.128,0.083,0.175
		c0.036,0.048,0.082,0.084,0.138,0.108C77.301,55.67,77.365,55.684,77.439,55.684"/>
	<path fill="#FFFFFC" d="M78.466,55.866v-1.481h0.148c0.028,0,0.048,0.006,0.059,0.017s0.019,0.029,0.021,0.056l0.019,0.231
		c0.05-0.104,0.113-0.185,0.188-0.242c0.075-0.058,0.162-0.088,0.263-0.088c0.041,0,0.077,0.005,0.11,0.015
		c0.034,0.009,0.064,0.021,0.093,0.039l-0.033,0.194c-0.008,0.023-0.022,0.036-0.046,0.036c-0.014,0-0.035-0.005-0.063-0.015
		c-0.027-0.009-0.067-0.013-0.118-0.013c-0.09,0-0.166,0.025-0.227,0.079c-0.061,0.052-0.112,0.129-0.153,0.229v0.943H78.466z"/>
	<path fill="#FFFFFC" d="M80.491,54.63c-0.012,0.021-0.029,0.032-0.055,0.032c-0.014,0-0.03-0.006-0.049-0.016
		c-0.019-0.011-0.041-0.023-0.068-0.036c-0.026-0.014-0.059-0.026-0.096-0.037s-0.08-0.017-0.132-0.017
		c-0.043,0-0.083,0.006-0.118,0.017s-0.064,0.026-0.089,0.046c-0.025,0.02-0.045,0.043-0.058,0.068s-0.02,0.053-0.02,0.084
		c0,0.037,0.011,0.069,0.032,0.095s0.051,0.048,0.088,0.065c0.035,0.019,0.076,0.035,0.122,0.05
		c0.046,0.013,0.093,0.029,0.142,0.045c0.048,0.017,0.095,0.034,0.141,0.053c0.046,0.02,0.087,0.044,0.122,0.073
		c0.036,0.029,0.065,0.065,0.088,0.108c0.021,0.041,0.032,0.093,0.032,0.151c0,0.068-0.013,0.133-0.036,0.189
		c-0.024,0.059-0.061,0.108-0.108,0.15c-0.048,0.043-0.105,0.077-0.175,0.101c-0.07,0.024-0.148,0.037-0.24,0.037
		c-0.104,0-0.196-0.018-0.28-0.051s-0.155-0.076-0.214-0.13l0.063-0.099c0.007-0.013,0.016-0.022,0.026-0.03
		c0.011-0.006,0.025-0.01,0.043-0.01s0.036,0.008,0.056,0.021c0.02,0.015,0.043,0.029,0.071,0.045
		c0.026,0.018,0.061,0.032,0.1,0.047c0.041,0.013,0.09,0.02,0.148,0.02c0.052,0,0.096-0.007,0.134-0.02s0.07-0.03,0.095-0.054
		c0.025-0.021,0.044-0.049,0.057-0.077c0.012-0.029,0.018-0.061,0.018-0.094c0-0.041-0.011-0.074-0.033-0.101
		c-0.021-0.027-0.05-0.051-0.086-0.07c-0.037-0.019-0.078-0.034-0.124-0.049s-0.094-0.029-0.142-0.045
		c-0.048-0.015-0.095-0.033-0.141-0.054c-0.047-0.02-0.088-0.044-0.125-0.074c-0.035-0.031-0.064-0.067-0.086-0.112
		c-0.022-0.045-0.033-0.098-0.033-0.161c0-0.057,0.012-0.111,0.034-0.164c0.023-0.052,0.058-0.097,0.104-0.137
		c0.044-0.04,0.099-0.07,0.165-0.095c0.064-0.022,0.14-0.034,0.224-0.034c0.097,0,0.185,0.016,0.263,0.046
		c0.076,0.03,0.145,0.072,0.199,0.126L80.491,54.63z"/>
	<path fill="#FFFFFC" d="M81.183,53.714v1.267h0.067c0.02,0,0.035-0.003,0.048-0.009c0.013-0.005,0.026-0.016,0.043-0.032
		l0.467-0.502c0.016-0.015,0.029-0.027,0.044-0.038c0.015-0.009,0.034-0.015,0.059-0.015h0.236l-0.545,0.581
		c-0.014,0.016-0.026,0.03-0.039,0.043c-0.014,0.014-0.029,0.025-0.045,0.034c0.018,0.012,0.033,0.024,0.047,0.041
		c0.014,0.014,0.028,0.032,0.041,0.052l0.578,0.73H81.95c-0.021,0-0.04-0.005-0.056-0.013c-0.015-0.009-0.028-0.021-0.043-0.039
		l-0.486-0.605c-0.015-0.021-0.029-0.034-0.044-0.041s-0.036-0.009-0.065-0.009h-0.073v0.707h-0.262v-2.152H81.183z"/>
	<path fill="#FFFFFC" d="M82.791,53.921c0,0.024-0.005,0.049-0.015,0.071c-0.01,0.021-0.024,0.041-0.041,0.057
		c-0.018,0.019-0.037,0.031-0.06,0.042c-0.021,0.01-0.046,0.014-0.072,0.014c-0.024,0-0.048-0.004-0.069-0.014
		c-0.022-0.011-0.042-0.023-0.059-0.042c-0.018-0.016-0.031-0.035-0.041-0.057c-0.01-0.022-0.015-0.047-0.015-0.071
		c0-0.025,0.005-0.05,0.015-0.072s0.023-0.043,0.041-0.061c0.017-0.017,0.036-0.03,0.059-0.04c0.021-0.01,0.045-0.015,0.069-0.015
		c0.026,0,0.051,0.005,0.072,0.015c0.022,0.01,0.042,0.023,0.06,0.04c0.017,0.018,0.031,0.038,0.041,0.061
		S82.791,53.896,82.791,53.921 M82.732,55.866h-0.26v-1.481h0.26V55.866z"/>
	<path fill="#FFFFFC" d="M71.426,58.979v0.783h-0.282v-2.094h0.619c0.132,0,0.246,0.016,0.345,0.047
		c0.099,0.03,0.179,0.073,0.243,0.13s0.112,0.125,0.145,0.205c0.031,0.079,0.048,0.168,0.048,0.267s-0.018,0.187-0.052,0.269
		c-0.033,0.08-0.084,0.149-0.149,0.209c-0.066,0.058-0.147,0.104-0.245,0.136s-0.209,0.049-0.334,0.049H71.426z M71.426,58.755
		h0.337c0.08,0,0.152-0.011,0.214-0.032s0.113-0.052,0.155-0.091c0.042-0.037,0.074-0.084,0.096-0.138s0.032-0.112,0.032-0.177
		c0-0.134-0.041-0.237-0.124-0.313s-0.207-0.112-0.373-0.112h-0.337V58.755z"/>
	<path fill="#FFFFFC" d="M73.874,59.763h-0.115c-0.025,0-0.047-0.004-0.062-0.012c-0.016-0.008-0.026-0.023-0.031-0.049
		l-0.029-0.138c-0.039,0.035-0.077,0.066-0.113,0.094c-0.037,0.027-0.076,0.051-0.117,0.07s-0.084,0.033-0.13,0.043
		c-0.047,0.01-0.099,0.015-0.156,0.015c-0.057,0-0.11-0.008-0.16-0.024c-0.05-0.016-0.094-0.04-0.131-0.072
		s-0.066-0.073-0.089-0.122c-0.021-0.049-0.032-0.108-0.032-0.175c0-0.059,0.016-0.115,0.048-0.17s0.084-0.103,0.155-0.145
		c0.072-0.042,0.166-0.076,0.282-0.104c0.115-0.026,0.257-0.041,0.425-0.041v-0.116c0-0.115-0.024-0.202-0.074-0.262
		c-0.049-0.06-0.121-0.089-0.218-0.089c-0.063,0-0.117,0.008-0.16,0.024c-0.044,0.016-0.081,0.033-0.113,0.053
		c-0.031,0.021-0.059,0.04-0.081,0.055c-0.022,0.017-0.046,0.024-0.068,0.024c-0.018,0-0.033-0.005-0.046-0.015
		c-0.014-0.009-0.023-0.02-0.031-0.033l-0.047-0.084c0.082-0.079,0.17-0.137,0.265-0.177c0.095-0.039,0.199-0.058,0.314-0.058
		c0.082,0,0.156,0.013,0.221,0.04c0.063,0.027,0.118,0.065,0.161,0.114c0.045,0.049,0.077,0.108,0.101,0.177
		c0.021,0.069,0.033,0.146,0.033,0.229V59.763z M73.199,59.604c0.045,0,0.088-0.005,0.125-0.014s0.073-0.022,0.107-0.04
		c0.034-0.017,0.065-0.037,0.097-0.063c0.03-0.022,0.061-0.052,0.09-0.082V59.1c-0.12,0-0.223,0.008-0.305,0.022
		c-0.085,0.016-0.152,0.035-0.205,0.061c-0.053,0.023-0.092,0.053-0.114,0.085c-0.024,0.034-0.036,0.072-0.036,0.113
		c0,0.039,0.005,0.073,0.019,0.102c0.012,0.027,0.029,0.051,0.051,0.069s0.047,0.03,0.076,0.04
		C73.133,59.6,73.164,59.604,73.199,59.604"/>
	<path fill="#FFFFFC" d="M74.269,59.763v-1.48h0.149c0.028,0,0.048,0.006,0.058,0.017c0.011,0.011,0.019,0.029,0.022,0.056
		l0.018,0.231c0.05-0.104,0.113-0.185,0.188-0.242c0.074-0.059,0.162-0.087,0.263-0.087c0.04,0,0.077,0.004,0.111,0.014
		c0.032,0.01,0.063,0.021,0.092,0.038l-0.034,0.194c-0.006,0.024-0.022,0.037-0.045,0.037c-0.014,0-0.034-0.005-0.063-0.015
		c-0.028-0.009-0.067-0.013-0.117-0.013c-0.092,0-0.167,0.025-0.229,0.078c-0.06,0.053-0.111,0.129-0.152,0.229v0.942H74.269z"/>
	<path fill="#FFFFFC" d="M75.717,57.61v1.268h0.067c0.02,0,0.036-0.003,0.049-0.009c0.012-0.005,0.026-0.016,0.042-0.032
		l0.467-0.502c0.016-0.016,0.03-0.028,0.045-0.038c0.014-0.01,0.033-0.015,0.058-0.015h0.237l-0.545,0.58
		c-0.015,0.017-0.027,0.031-0.041,0.045c-0.013,0.013-0.027,0.023-0.044,0.033c0.017,0.012,0.033,0.024,0.047,0.04
		c0.015,0.015,0.028,0.032,0.04,0.052l0.579,0.73h-0.234c-0.021,0-0.039-0.004-0.054-0.013c-0.016-0.008-0.03-0.021-0.043-0.038
		l-0.487-0.606c-0.015-0.021-0.029-0.034-0.044-0.04c-0.014-0.007-0.036-0.01-0.065-0.01h-0.073v0.707h-0.261V57.61H75.717z"/>
	<path fill="#FFFFFC" d="M77.785,57.678c0.013,0.007,0.026,0.02,0.041,0.039l1.213,1.578c-0.001-0.025-0.004-0.049-0.005-0.073
		s-0.002-0.047-0.002-0.07v-1.482h0.248v2.094h-0.143c-0.022,0-0.041-0.004-0.057-0.012c-0.015-0.008-0.029-0.021-0.043-0.039
		l-1.213-1.577c0.002,0.024,0.003,0.049,0.005,0.072c0.001,0.022,0.002,0.044,0.002,0.064v1.491h-0.249v-2.094h0.146
		C77.755,57.669,77.772,57.673,77.785,57.678"/>
	<path fill="#FFFFFC" d="M80.839,59.763h-0.114c-0.026,0-0.047-0.004-0.062-0.012c-0.017-0.008-0.026-0.023-0.031-0.049
		l-0.029-0.138c-0.039,0.035-0.076,0.066-0.114,0.094c-0.037,0.027-0.076,0.051-0.117,0.07s-0.085,0.033-0.131,0.043
		c-0.047,0.01-0.098,0.015-0.153,0.015c-0.058,0-0.111-0.008-0.162-0.024c-0.05-0.016-0.094-0.04-0.131-0.072
		c-0.036-0.032-0.066-0.073-0.088-0.122c-0.022-0.049-0.033-0.108-0.033-0.175c0-0.059,0.017-0.115,0.048-0.17
		c0.032-0.055,0.084-0.103,0.156-0.145s0.165-0.076,0.281-0.104c0.116-0.026,0.257-0.041,0.425-0.041v-0.116
		c0-0.115-0.024-0.202-0.073-0.262c-0.05-0.06-0.122-0.089-0.219-0.089c-0.063,0-0.117,0.008-0.16,0.024
		c-0.043,0.016-0.08,0.033-0.112,0.053c-0.032,0.021-0.059,0.04-0.082,0.055c-0.023,0.017-0.046,0.024-0.068,0.024
		c-0.018,0-0.032-0.005-0.046-0.015c-0.013-0.009-0.023-0.02-0.03-0.033l-0.048-0.084c0.081-0.079,0.171-0.137,0.265-0.177
		c0.095-0.039,0.199-0.058,0.314-0.058c0.083,0,0.156,0.013,0.221,0.04s0.119,0.065,0.162,0.114s0.077,0.108,0.1,0.177
		c0.022,0.069,0.033,0.146,0.033,0.229V59.763z M80.163,59.604c0.047,0,0.089-0.005,0.127-0.014s0.073-0.022,0.107-0.04
		c0.034-0.017,0.065-0.037,0.097-0.063c0.03-0.022,0.061-0.052,0.089-0.082V59.1c-0.119,0-0.222,0.008-0.306,0.022
		c-0.084,0.016-0.151,0.035-0.203,0.061c-0.054,0.023-0.092,0.053-0.115,0.085c-0.024,0.034-0.037,0.072-0.037,0.113
		c0,0.039,0.008,0.073,0.02,0.102c0.013,0.027,0.03,0.051,0.052,0.069c0.021,0.019,0.047,0.03,0.075,0.04
		C80.098,59.6,80.129,59.604,80.163,59.604"/>
	<path fill="#FFFFFC" d="M81.459,58.282v0.944c0,0.112,0.024,0.198,0.076,0.26c0.052,0.063,0.131,0.093,0.234,0.093
		c0.077,0,0.148-0.019,0.215-0.054c0.067-0.037,0.13-0.087,0.186-0.151v-1.092h0.261v1.48h-0.155c-0.037,0-0.061-0.018-0.07-0.054
		l-0.021-0.159c-0.064,0.071-0.137,0.129-0.216,0.172s-0.172,0.064-0.274,0.064c-0.081,0-0.152-0.013-0.214-0.039
		c-0.063-0.027-0.115-0.065-0.156-0.114c-0.043-0.049-0.073-0.107-0.095-0.178c-0.021-0.068-0.031-0.145-0.031-0.229v-0.944H81.459z
		"/>
	<path fill="#FFFFFC" d="M83.129,57.61v1.268h0.068c0.019,0,0.034-0.003,0.048-0.009c0.013-0.005,0.026-0.016,0.041-0.032
		l0.469-0.502c0.014-0.016,0.029-0.028,0.044-0.038s0.034-0.015,0.058-0.015h0.237l-0.545,0.58
		c-0.015,0.017-0.026,0.031-0.041,0.045c-0.013,0.013-0.026,0.023-0.044,0.033c0.018,0.012,0.033,0.024,0.048,0.04
		c0.014,0.015,0.026,0.032,0.039,0.052l0.579,0.73h-0.233c-0.021,0-0.04-0.004-0.055-0.013c-0.016-0.008-0.03-0.021-0.043-0.038
		l-0.487-0.606c-0.015-0.021-0.028-0.034-0.043-0.04c-0.016-0.007-0.038-0.01-0.066-0.01h-0.073v0.707h-0.262V57.61H83.129z"/>
	<path fill="#FFFFFC" d="M84.901,58.259c0.109,0,0.206,0.019,0.293,0.055c0.088,0.036,0.162,0.087,0.223,0.153
		s0.108,0.146,0.14,0.24c0.032,0.095,0.05,0.199,0.05,0.315c0,0.117-0.018,0.223-0.05,0.315c-0.031,0.093-0.079,0.173-0.14,0.239
		s-0.135,0.118-0.223,0.153c-0.087,0.035-0.184,0.053-0.293,0.053c-0.108,0-0.205-0.018-0.293-0.053
		c-0.087-0.035-0.161-0.087-0.223-0.153s-0.107-0.146-0.142-0.239c-0.033-0.093-0.05-0.198-0.05-0.315
		c0-0.116,0.017-0.221,0.05-0.315c0.034-0.094,0.08-0.174,0.142-0.24s0.136-0.117,0.223-0.153
		C84.696,58.277,84.793,58.259,84.901,58.259 M84.901,59.581c0.146,0,0.256-0.05,0.327-0.146c0.073-0.099,0.108-0.236,0.108-0.411
		c0-0.176-0.035-0.313-0.108-0.412c-0.071-0.099-0.181-0.147-0.327-0.147c-0.073,0-0.138,0.013-0.193,0.038
		c-0.054,0.024-0.1,0.063-0.136,0.109c-0.037,0.048-0.063,0.106-0.082,0.176c-0.018,0.07-0.026,0.148-0.026,0.236
		c0,0.087,0.009,0.166,0.026,0.235c0.019,0.07,0.045,0.127,0.082,0.176c0.036,0.046,0.082,0.082,0.136,0.107
		C84.764,59.568,84.828,59.581,84.901,59.581"/>
	<path fill="#FFFFFC" d="M85.734,58.282h0.205c0.021,0,0.039,0.006,0.053,0.017s0.022,0.023,0.027,0.038l0.284,0.952
		c0.007,0.036,0.015,0.07,0.021,0.103s0.013,0.065,0.018,0.098c0.008-0.032,0.017-0.065,0.026-0.098s0.021-0.066,0.031-0.103
		l0.313-0.958c0.005-0.016,0.013-0.027,0.025-0.037s0.027-0.014,0.046-0.014h0.113c0.02,0,0.035,0.004,0.048,0.014
		s0.021,0.021,0.025,0.037l0.307,0.958c0.01,0.034,0.02,0.068,0.028,0.102c0.008,0.033,0.016,0.064,0.023,0.097
		c0.006-0.032,0.011-0.064,0.02-0.1c0.008-0.036,0.016-0.068,0.024-0.099l0.289-0.952c0.005-0.016,0.014-0.028,0.028-0.039
		c0.014-0.011,0.029-0.016,0.048-0.016h0.197l-0.481,1.48h-0.205c-0.025,0-0.043-0.016-0.053-0.05l-0.328-1.004
		c-0.007-0.021-0.013-0.045-0.019-0.068c-0.004-0.022-0.01-0.044-0.015-0.067c-0.004,0.023-0.01,0.045-0.015,0.069
		c-0.005,0.023-0.011,0.046-0.019,0.068l-0.332,1.002c-0.011,0.034-0.03,0.05-0.06,0.05h-0.195L85.734,58.282z"/>
	<path fill="#FFFFFC" d="M88.766,58.259c0.108,0,0.206,0.019,0.293,0.055c0.088,0.036,0.161,0.087,0.222,0.153
		c0.062,0.066,0.108,0.146,0.142,0.24c0.032,0.095,0.048,0.199,0.048,0.315c0,0.117-0.016,0.223-0.048,0.315
		c-0.033,0.093-0.08,0.173-0.142,0.239c-0.061,0.066-0.134,0.118-0.222,0.153c-0.087,0.035-0.185,0.053-0.293,0.053
		c-0.107,0-0.205-0.018-0.293-0.053c-0.087-0.035-0.161-0.087-0.224-0.153c-0.061-0.066-0.107-0.146-0.141-0.239
		s-0.05-0.198-0.05-0.315c0-0.116,0.017-0.221,0.05-0.315c0.033-0.094,0.08-0.174,0.141-0.24c0.063-0.066,0.137-0.117,0.224-0.153
		C88.561,58.277,88.658,58.259,88.766,58.259 M88.766,59.581c0.146,0,0.256-0.05,0.327-0.146c0.073-0.099,0.109-0.236,0.109-0.411
		c0-0.176-0.036-0.313-0.109-0.412c-0.071-0.099-0.181-0.147-0.327-0.147c-0.074,0-0.139,0.013-0.192,0.038
		c-0.055,0.024-0.101,0.063-0.137,0.109c-0.037,0.048-0.063,0.106-0.082,0.176c-0.019,0.07-0.027,0.148-0.027,0.236
		c0,0.087,0.009,0.166,0.027,0.235c0.019,0.07,0.045,0.127,0.082,0.176c0.036,0.046,0.082,0.082,0.137,0.107
		C88.627,59.568,88.691,59.581,88.766,59.581"/>
	<rect x="89.725" y="58.776" fill="#FFFFFC" width="0.723" height="0.221"/>
	<polygon fill="#FFFFFC" points="92.011,57.669 92.011,57.906 91.333,57.906 91.333,59.763 91.05,59.763 91.05,57.906 90.37,57.906 
		90.37,57.669 	"/>
	<path fill="#FFFFFC" d="M92.546,58.259c0.09,0,0.171,0.016,0.246,0.044c0.075,0.031,0.141,0.073,0.193,0.129
		c0.056,0.058,0.099,0.125,0.129,0.208c0.03,0.082,0.047,0.177,0.047,0.281c0,0.042-0.006,0.068-0.015,0.083
		c-0.009,0.013-0.025,0.02-0.049,0.02h-0.985c0.002,0.094,0.014,0.175,0.038,0.244c0.023,0.069,0.056,0.127,0.097,0.174
		c0.04,0.045,0.089,0.08,0.146,0.104c0.058,0.022,0.12,0.034,0.19,0.034c0.065,0,0.121-0.008,0.169-0.023
		c0.047-0.015,0.087-0.03,0.121-0.048c0.035-0.019,0.063-0.034,0.086-0.05c0.023-0.015,0.043-0.022,0.059-0.022
		c0.021,0,0.039,0.009,0.051,0.025l0.073,0.095c-0.032,0.039-0.071,0.073-0.115,0.102c-0.046,0.028-0.094,0.052-0.145,0.07
		c-0.052,0.02-0.104,0.033-0.158,0.042c-0.055,0.01-0.109,0.014-0.163,0.014c-0.102,0-0.195-0.017-0.282-0.052
		c-0.086-0.035-0.161-0.085-0.224-0.151c-0.063-0.067-0.112-0.149-0.147-0.248c-0.034-0.098-0.053-0.212-0.053-0.339
		c0-0.104,0.017-0.2,0.049-0.29c0.031-0.089,0.076-0.168,0.136-0.232c0.06-0.065,0.132-0.117,0.218-0.155
		C92.343,58.278,92.439,58.259,92.546,58.259 M92.552,58.45c-0.125,0-0.224,0.037-0.297,0.109c-0.071,0.072-0.116,0.173-0.134,0.301
		h0.806c0-0.06-0.009-0.114-0.025-0.165c-0.017-0.05-0.041-0.094-0.073-0.13c-0.031-0.037-0.071-0.064-0.117-0.085
		C92.664,58.46,92.612,58.45,92.552,58.45"/>
	<path fill="#FFFFFC" d="M94.503,58.546c-0.009,0.011-0.017,0.019-0.024,0.024s-0.019,0.009-0.033,0.009s-0.03-0.006-0.048-0.019
		c-0.018-0.012-0.039-0.025-0.064-0.039c-0.027-0.016-0.059-0.029-0.097-0.041c-0.037-0.012-0.083-0.019-0.138-0.019
		c-0.072,0-0.136,0.013-0.191,0.04c-0.055,0.024-0.103,0.063-0.14,0.11c-0.038,0.049-0.065,0.108-0.085,0.177
		c-0.019,0.069-0.028,0.147-0.028,0.233c0,0.089,0.011,0.169,0.031,0.238s0.049,0.129,0.086,0.175
		c0.037,0.049,0.083,0.084,0.135,0.109c0.054,0.025,0.113,0.037,0.18,0.037c0.063,0,0.115-0.008,0.156-0.022
		c0.041-0.016,0.074-0.032,0.102-0.051c0.027-0.02,0.05-0.035,0.067-0.051c0.019-0.015,0.035-0.022,0.053-0.022
		c0.022,0,0.039,0.009,0.05,0.025l0.073,0.095c-0.064,0.078-0.146,0.137-0.241,0.173c-0.097,0.036-0.198,0.055-0.306,0.055
		c-0.093,0-0.179-0.017-0.258-0.051c-0.08-0.034-0.147-0.084-0.207-0.148c-0.058-0.065-0.104-0.145-0.138-0.239
		s-0.051-0.202-0.051-0.322c0-0.11,0.016-0.212,0.046-0.306c0.031-0.094,0.076-0.174,0.135-0.242
		c0.059-0.067,0.131-0.12,0.219-0.159c0.086-0.037,0.186-0.057,0.299-0.057c0.103,0,0.194,0.018,0.273,0.051
		c0.08,0.034,0.151,0.081,0.212,0.142L94.503,58.546z"/>
	<path fill="#FFFFFC" d="M94.857,59.763V57.61h0.26v0.871c0.063-0.067,0.134-0.121,0.211-0.162c0.077-0.039,0.165-0.061,0.266-0.061
		c0.081,0,0.152,0.014,0.214,0.041c0.062,0.026,0.113,0.064,0.154,0.114c0.041,0.048,0.073,0.107,0.095,0.177
		s0.032,0.146,0.032,0.229v0.942h-0.261V58.82c0-0.111-0.024-0.199-0.076-0.261c-0.051-0.062-0.129-0.093-0.234-0.093
		c-0.077,0-0.148,0.019-0.216,0.056c-0.066,0.037-0.128,0.087-0.185,0.15v1.09H94.857z"/>
	<path fill="#FFFFFC" d="M96.482,59.763v-1.48h0.155c0.036,0,0.06,0.019,0.069,0.055l0.021,0.161
		c0.064-0.071,0.137-0.129,0.216-0.174c0.079-0.043,0.171-0.065,0.275-0.065c0.081,0,0.152,0.014,0.214,0.041
		c0.063,0.026,0.114,0.064,0.155,0.114c0.041,0.048,0.073,0.107,0.095,0.177c0.021,0.069,0.031,0.146,0.031,0.229v0.942h-0.26V58.82
		c0-0.111-0.025-0.199-0.077-0.261c-0.051-0.062-0.128-0.093-0.233-0.093c-0.077,0-0.149,0.019-0.217,0.056
		c-0.065,0.037-0.128,0.087-0.184,0.15v1.09H96.482z"/>
	<path fill="#FFFFFC" d="M98.706,58.259c0.108,0,0.206,0.019,0.293,0.055c0.088,0.036,0.161,0.087,0.223,0.153
		c0.061,0.066,0.108,0.146,0.141,0.24c0.032,0.095,0.048,0.199,0.048,0.315c0,0.117-0.016,0.223-0.048,0.315
		s-0.08,0.173-0.141,0.239c-0.062,0.066-0.135,0.118-0.223,0.153c-0.087,0.035-0.185,0.053-0.293,0.053
		c-0.107,0-0.205-0.018-0.293-0.053c-0.086-0.035-0.16-0.087-0.223-0.153c-0.061-0.066-0.108-0.146-0.142-0.239
		s-0.05-0.198-0.05-0.315c0-0.116,0.017-0.221,0.05-0.315c0.033-0.094,0.081-0.174,0.142-0.24c0.063-0.066,0.137-0.117,0.223-0.153
		C98.501,58.277,98.599,58.259,98.706,58.259 M98.706,59.581c0.146,0,0.256-0.05,0.327-0.146c0.073-0.099,0.109-0.236,0.109-0.411
		c0-0.176-0.036-0.313-0.109-0.412c-0.071-0.099-0.181-0.147-0.327-0.147c-0.073,0-0.138,0.013-0.192,0.038
		c-0.055,0.024-0.101,0.063-0.136,0.109c-0.038,0.048-0.064,0.106-0.082,0.176c-0.019,0.07-0.027,0.148-0.027,0.236
		c0,0.087,0.009,0.166,0.027,0.235c0.018,0.07,0.044,0.127,0.082,0.176c0.035,0.046,0.081,0.082,0.136,0.107
		C98.568,59.568,98.633,59.581,98.706,59.581"/>
	<rect x="99.762" y="57.61" fill="#FFFFFC" width="0.26" height="2.152"/>
	<path fill="#FFFFFC" d="M101.08,58.259c0.108,0,0.206,0.019,0.293,0.055s0.162,0.087,0.223,0.153s0.107,0.146,0.139,0.24
		c0.033,0.095,0.051,0.199,0.051,0.315c0,0.117-0.018,0.223-0.051,0.315c-0.031,0.093-0.078,0.173-0.139,0.239
		s-0.136,0.118-0.223,0.153s-0.185,0.053-0.293,0.053s-0.206-0.018-0.293-0.053s-0.162-0.087-0.223-0.153
		c-0.063-0.066-0.108-0.146-0.143-0.239c-0.032-0.093-0.05-0.198-0.05-0.315c0-0.116,0.018-0.221,0.05-0.315
		c0.034-0.094,0.08-0.174,0.143-0.24c0.061-0.066,0.136-0.117,0.223-0.153S100.972,58.259,101.08,58.259 M101.08,59.581
		c0.146,0,0.255-0.05,0.327-0.146c0.072-0.099,0.107-0.236,0.107-0.411c0-0.176-0.035-0.313-0.107-0.412s-0.182-0.147-0.327-0.147
		c-0.074,0-0.139,0.013-0.193,0.038c-0.054,0.024-0.1,0.063-0.137,0.109c-0.036,0.048-0.063,0.106-0.082,0.176
		c-0.018,0.07-0.026,0.148-0.026,0.236c0,0.087,0.009,0.166,0.026,0.235c0.019,0.07,0.046,0.127,0.082,0.176
		c0.037,0.046,0.083,0.082,0.137,0.107C100.941,59.568,101.006,59.581,101.08,59.581"/>
	<path fill="#FFFFFC" d="M102.604,58.258c0.064,0,0.124,0.007,0.181,0.021c0.056,0.013,0.106,0.034,0.152,0.062h0.401v0.097
		c0,0.032-0.02,0.053-0.061,0.062l-0.168,0.023c0.032,0.063,0.049,0.134,0.049,0.211c0,0.072-0.013,0.138-0.042,0.197
		c-0.026,0.059-0.065,0.109-0.115,0.151c-0.049,0.041-0.107,0.073-0.176,0.097c-0.066,0.022-0.141,0.034-0.222,0.034
		c-0.069,0-0.136-0.009-0.196-0.025c-0.031,0.02-0.055,0.041-0.07,0.064c-0.017,0.023-0.024,0.046-0.024,0.067
		c0,0.037,0.015,0.064,0.042,0.083c0.028,0.02,0.065,0.032,0.112,0.041c0.048,0.007,0.101,0.012,0.16,0.012h0.183
		c0.061,0,0.121,0.005,0.181,0.016c0.061,0.012,0.112,0.029,0.159,0.054c0.048,0.024,0.085,0.058,0.113,0.102s0.042,0.1,0.042,0.169
		c0,0.064-0.016,0.126-0.047,0.186c-0.032,0.062-0.078,0.114-0.138,0.161c-0.059,0.047-0.132,0.084-0.218,0.112
		c-0.086,0.029-0.183,0.043-0.29,0.043c-0.108,0-0.203-0.011-0.284-0.032c-0.082-0.021-0.149-0.051-0.203-0.087
		s-0.093-0.077-0.119-0.125c-0.027-0.047-0.042-0.097-0.042-0.148c0-0.073,0.023-0.135,0.07-0.187
		c0.046-0.052,0.109-0.093,0.191-0.122c-0.043-0.02-0.075-0.046-0.101-0.077c-0.025-0.033-0.037-0.077-0.037-0.132
		c0-0.021,0.003-0.044,0.012-0.066c0.008-0.022,0.02-0.045,0.035-0.067c0.017-0.022,0.036-0.044,0.06-0.064s0.051-0.038,0.082-0.055
		c-0.073-0.04-0.131-0.095-0.173-0.162c-0.041-0.068-0.062-0.146-0.062-0.238c0-0.071,0.014-0.137,0.042-0.196
		c0.026-0.059,0.066-0.108,0.116-0.15c0.05-0.041,0.109-0.073,0.177-0.096C102.447,58.27,102.522,58.258,102.604,58.258
		 M103.065,59.838c0-0.037-0.011-0.068-0.03-0.091c-0.021-0.022-0.048-0.04-0.084-0.052c-0.033-0.013-0.075-0.022-0.12-0.029
		c-0.046-0.005-0.094-0.009-0.145-0.009h-0.155c-0.054,0-0.104-0.006-0.15-0.02c-0.057,0.027-0.102,0.059-0.135,0.097
		c-0.035,0.038-0.052,0.084-0.052,0.136c0,0.034,0.008,0.064,0.024,0.094c0.018,0.028,0.043,0.054,0.079,0.074
		c0.034,0.021,0.078,0.037,0.132,0.05c0.053,0.013,0.115,0.018,0.188,0.018c0.07,0,0.133-0.005,0.188-0.019s0.103-0.031,0.142-0.055
		c0.038-0.024,0.067-0.053,0.088-0.085C103.055,59.915,103.065,59.877,103.065,59.838 M102.604,59.039
		c0.052,0,0.099-0.007,0.14-0.021c0.039-0.014,0.073-0.035,0.101-0.062c0.028-0.025,0.048-0.058,0.063-0.094
		c0.013-0.037,0.021-0.077,0.021-0.121c0-0.091-0.028-0.163-0.083-0.217c-0.056-0.054-0.136-0.08-0.24-0.08
		c-0.105,0-0.184,0.026-0.239,0.08c-0.055,0.054-0.082,0.126-0.082,0.217c0,0.044,0.006,0.084,0.021,0.121
		c0.015,0.036,0.035,0.068,0.062,0.094c0.028,0.026,0.061,0.048,0.103,0.062C102.507,59.032,102.553,59.039,102.604,59.039"/>
	<path fill="#FFFFFC" d="M103.946,57.817c0,0.025-0.004,0.05-0.014,0.071c-0.011,0.021-0.025,0.041-0.041,0.059
		c-0.019,0.017-0.038,0.031-0.06,0.04c-0.023,0.011-0.046,0.015-0.071,0.015s-0.05-0.004-0.071-0.015
		c-0.021-0.009-0.041-0.023-0.059-0.04c-0.017-0.018-0.031-0.037-0.04-0.059c-0.011-0.021-0.015-0.046-0.015-0.071
		s0.004-0.049,0.015-0.071c0.009-0.023,0.023-0.043,0.04-0.062c0.018-0.016,0.037-0.03,0.059-0.039
		c0.021-0.011,0.046-0.015,0.071-0.015s0.048,0.004,0.071,0.015c0.021,0.009,0.041,0.023,0.06,0.039
		c0.016,0.019,0.03,0.038,0.041,0.062C103.942,57.769,103.946,57.792,103.946,57.817 M103.89,59.763h-0.261v-1.48h0.261V59.763z"/>
	<path fill="#FFFFFC" d="M105.358,58.546c-0.01,0.011-0.017,0.019-0.023,0.024c-0.009,0.006-0.02,0.009-0.034,0.009
		s-0.03-0.006-0.048-0.019c-0.017-0.012-0.039-0.025-0.064-0.039c-0.027-0.016-0.06-0.029-0.097-0.041s-0.083-0.019-0.138-0.019
		c-0.071,0-0.136,0.013-0.191,0.04c-0.055,0.024-0.102,0.063-0.139,0.11c-0.038,0.049-0.066,0.108-0.085,0.177
		c-0.02,0.069-0.029,0.147-0.029,0.233c0,0.089,0.011,0.169,0.031,0.238s0.049,0.129,0.086,0.175
		c0.037,0.049,0.083,0.084,0.135,0.109c0.053,0.025,0.113,0.037,0.18,0.037c0.063,0,0.114-0.008,0.156-0.022
		c0.041-0.016,0.074-0.032,0.103-0.051c0.027-0.02,0.049-0.035,0.066-0.051c0.019-0.015,0.036-0.022,0.053-0.022
		c0.022,0,0.039,0.009,0.05,0.025l0.073,0.095c-0.064,0.078-0.146,0.137-0.241,0.173c-0.097,0.036-0.198,0.055-0.306,0.055
		c-0.092,0-0.179-0.017-0.258-0.051s-0.148-0.084-0.207-0.148c-0.058-0.065-0.104-0.145-0.138-0.239s-0.05-0.202-0.05-0.322
		c0-0.11,0.015-0.212,0.046-0.306c0.03-0.094,0.075-0.174,0.135-0.242c0.058-0.067,0.131-0.12,0.218-0.159
		c0.087-0.037,0.186-0.057,0.299-0.057c0.104,0,0.194,0.018,0.273,0.051c0.081,0.034,0.151,0.081,0.212,0.142L105.358,58.546z"/>
	<path fill="#FFFFFC" d="M106.746,58.394c0,0.019-0.004,0.036-0.011,0.054c-0.007,0.017-0.016,0.033-0.025,0.045l-0.802,1.068h0.809
		v0.202h-1.116v-0.108c0-0.012,0.004-0.027,0.01-0.044c0.007-0.018,0.016-0.033,0.028-0.05l0.805-1.073h-0.796v-0.205h1.099V58.394z
		"/>
	<path fill="#FFFFFC" d="M107.063,59.763v-1.48h0.154c0.038,0,0.061,0.019,0.069,0.055l0.021,0.161
		c0.064-0.071,0.136-0.129,0.216-0.174c0.079-0.043,0.171-0.065,0.276-0.065c0.08,0,0.151,0.014,0.213,0.041
		c0.062,0.026,0.113,0.064,0.154,0.114c0.041,0.048,0.073,0.107,0.095,0.177s0.032,0.146,0.032,0.229v0.942h-0.261V58.82
		c0-0.111-0.024-0.199-0.076-0.261c-0.051-0.062-0.129-0.093-0.234-0.093c-0.077,0-0.148,0.019-0.216,0.056
		c-0.066,0.037-0.128,0.087-0.185,0.15v1.09H107.063z"/>
	<path fill="#FFFFFC" d="M109.076,60.2c-0.009,0.02-0.021,0.034-0.034,0.047c-0.013,0.012-0.033,0.018-0.061,0.018h-0.192
		l0.271-0.588l-0.61-1.395h0.225c0.021,0,0.039,0.006,0.052,0.018c0.013,0.011,0.022,0.023,0.028,0.037l0.396,0.932
		c0.008,0.021,0.016,0.043,0.022,0.064s0.012,0.044,0.018,0.066c0.005-0.022,0.013-0.045,0.02-0.066s0.015-0.044,0.023-0.065
		l0.384-0.931c0.007-0.016,0.017-0.028,0.03-0.039c0.015-0.011,0.029-0.016,0.047-0.016h0.207L109.076,60.2z"/>
	<path fill="#FFFFFC" d="M72.044,63.371c0.089,0,0.165-0.008,0.231-0.024c0.066-0.016,0.129-0.038,0.188-0.066v-0.384h-0.265
		c-0.024,0-0.044-0.007-0.059-0.021c-0.016-0.015-0.022-0.032-0.022-0.052V62.6h0.703v0.856c-0.054,0.039-0.109,0.073-0.168,0.102
		c-0.057,0.028-0.119,0.052-0.186,0.07c-0.065,0.019-0.136,0.032-0.211,0.042c-0.075,0.009-0.155,0.014-0.243,0.014
		c-0.153,0-0.295-0.026-0.425-0.08c-0.129-0.054-0.241-0.128-0.336-0.225c-0.095-0.095-0.168-0.209-0.222-0.341
		c-0.053-0.133-0.079-0.277-0.079-0.435c0-0.159,0.025-0.305,0.077-0.437c0.052-0.134,0.125-0.247,0.22-0.343
		c0.095-0.095,0.211-0.169,0.346-0.221c0.136-0.054,0.288-0.08,0.457-0.08c0.172,0,0.321,0.026,0.447,0.076
		c0.126,0.052,0.233,0.119,0.32,0.2l-0.114,0.179c-0.021,0.035-0.052,0.054-0.089,0.054c-0.023,0-0.047-0.008-0.072-0.023
		c-0.03-0.018-0.063-0.038-0.094-0.056c-0.033-0.018-0.07-0.034-0.109-0.048s-0.084-0.025-0.132-0.034
		c-0.051-0.009-0.106-0.013-0.171-0.013c-0.104,0-0.199,0.018-0.283,0.052c-0.084,0.036-0.155,0.086-0.216,0.151
		c-0.06,0.065-0.105,0.144-0.137,0.234c-0.032,0.093-0.048,0.195-0.048,0.308c0,0.121,0.017,0.23,0.05,0.325
		c0.034,0.095,0.082,0.175,0.144,0.24c0.063,0.065,0.135,0.115,0.22,0.15C71.852,63.354,71.943,63.371,72.044,63.371"/>
	<path fill="#FFFFFC" d="M75.647,62.604c0,0.155-0.025,0.298-0.077,0.427c-0.052,0.13-0.124,0.241-0.218,0.334
		c-0.094,0.094-0.206,0.167-0.337,0.219c-0.132,0.052-0.278,0.077-0.438,0.077h-0.808v-2.113h0.808c0.159,0,0.306,0.025,0.438,0.077
		c0.131,0.053,0.243,0.126,0.337,0.219s0.166,0.204,0.218,0.334S75.647,62.448,75.647,62.604 M75.246,62.604
		c0-0.116-0.016-0.22-0.047-0.313c-0.031-0.091-0.076-0.17-0.133-0.233c-0.058-0.063-0.127-0.113-0.209-0.147
		c-0.083-0.034-0.177-0.05-0.279-0.05h-0.411v1.486h0.411c0.103,0,0.196-0.016,0.279-0.05c0.082-0.034,0.151-0.084,0.209-0.147
		c0.057-0.063,0.102-0.142,0.133-0.233C75.23,62.823,75.246,62.72,75.246,62.604"/>
	<path fill="#FFFFFC" d="M77.363,62.84v0.82h-0.393v-0.82L76.2,61.547h0.347c0.034,0,0.062,0.008,0.081,0.025
		c0.02,0.017,0.037,0.037,0.05,0.063l0.388,0.706c0.023,0.041,0.042,0.081,0.059,0.119c0.017,0.037,0.031,0.074,0.045,0.109
		c0.013-0.036,0.027-0.073,0.044-0.11c0.016-0.038,0.035-0.078,0.058-0.118l0.385-0.706c0.011-0.021,0.026-0.042,0.048-0.061
		c0.021-0.018,0.048-0.027,0.081-0.027h0.348L77.363,62.84z"/>
	<path fill="#FFFFFC" d="M79.172,61.55c0.012,0.001,0.021,0.003,0.031,0.009c0.009,0.003,0.019,0.011,0.026,0.018
		c0.009,0.009,0.02,0.02,0.03,0.034l1.109,1.413c-0.004-0.035-0.008-0.068-0.009-0.1c-0.001-0.033-0.002-0.063-0.002-0.093v-1.284
		h0.347v2.113h-0.204c-0.03,0-0.058-0.004-0.077-0.015c-0.021-0.01-0.041-0.027-0.06-0.052l-1.104-1.408
		c0.002,0.031,0.005,0.063,0.006,0.093c0.002,0.03,0.003,0.059,0.003,0.084v1.298h-0.347v-2.113h0.205
		C79.145,61.547,79.159,61.548,79.172,61.55"/>
	<rect x="81.764" y="61.547" fill="#FFFFFC" width="0.396" height="2.113"/>
	<path fill="#FFFFFC" d="M85.076,63.66h-0.305c-0.034,0-0.062-0.009-0.084-0.025c-0.021-0.018-0.038-0.038-0.047-0.063l-0.158-0.432
		h-0.875l-0.158,0.432c-0.008,0.022-0.023,0.043-0.046,0.062c-0.023,0.018-0.051,0.027-0.085,0.027h-0.305l0.83-2.113h0.402
		L85.076,63.66z M83.708,62.862h0.674l-0.258-0.704c-0.012-0.03-0.024-0.067-0.038-0.109c-0.015-0.042-0.027-0.089-0.042-0.139
		c-0.014,0.05-0.027,0.097-0.04,0.14c-0.014,0.043-0.026,0.08-0.039,0.112L83.708,62.862z"/>
</g>
<g>
	<path fill="#FFFFFF" d="M73.784,36.746h-1.08v3.134h-0.891v-3.134h-1.081v-0.707h3.052V36.746z"/>
	<path fill="#FFFFFF" d="M78.638,36.039v3.84h-0.896v-1.624h-1.561v1.624h-0.896v-3.84h0.896v1.605h1.561v-1.605H78.638z"/>
	<path fill="#FFFFFF" d="M81.33,36.725v0.896h1.207v0.659H81.33v0.915h1.576v0.685h-2.472v-3.84h2.472v0.686H81.33z"/>
</g>
<g>
	<path fill="#FFFFFF" d="M72.438,41.311c0.266,0,0.491,0.025,0.678,0.074c0.187,0.049,0.338,0.119,0.456,0.208
		c0.117,0.089,0.203,0.198,0.257,0.327s0.08,0.271,0.08,0.43c0,0.086-0.012,0.169-0.037,0.249c-0.024,0.08-0.063,0.155-0.115,0.224
		s-0.121,0.133-0.203,0.191c-0.083,0.058-0.182,0.108-0.298,0.15c0.253,0.062,0.44,0.161,0.562,0.298s0.182,0.314,0.182,0.532
		c0,0.164-0.031,0.315-0.095,0.456s-0.156,0.263-0.278,0.368s-0.272,0.187-0.452,0.245c-0.179,0.059-0.384,0.088-0.614,0.088h-1.533
		v-3.84H72.438z M71.916,41.978v0.949h0.464c0.099,0,0.187-0.007,0.266-0.021s0.146-0.039,0.202-0.074s0.098-0.083,0.126-0.145
		c0.029-0.062,0.044-0.139,0.044-0.232c0-0.091-0.012-0.167-0.034-0.228c-0.023-0.061-0.058-0.109-0.105-0.146
		c-0.048-0.037-0.107-0.063-0.181-0.079c-0.073-0.016-0.159-0.023-0.26-0.023H71.916z M72.543,44.479
		c0.118,0,0.214-0.015,0.289-0.045c0.074-0.03,0.133-0.069,0.175-0.116s0.071-0.101,0.087-0.161s0.024-0.12,0.024-0.182
		c0-0.07-0.01-0.134-0.028-0.19s-0.05-0.104-0.095-0.143c-0.045-0.039-0.104-0.068-0.178-0.089
		c-0.074-0.021-0.167-0.032-0.279-0.032h-0.622v0.957H72.543z"/>
	<path fill="#FFFFFF" d="M77.729,42.091c-0.026,0.042-0.054,0.074-0.083,0.095c-0.028,0.021-0.066,0.032-0.111,0.032
		c-0.041,0-0.084-0.013-0.131-0.038s-0.1-0.054-0.158-0.086c-0.059-0.031-0.126-0.06-0.201-0.085
		c-0.076-0.025-0.162-0.038-0.259-0.038c-0.167,0-0.291,0.036-0.373,0.106c-0.082,0.071-0.122,0.167-0.122,0.289
		c0,0.078,0.024,0.142,0.073,0.192c0.05,0.051,0.114,0.095,0.194,0.132c0.079,0.037,0.171,0.071,0.273,0.102
		s0.208,0.065,0.315,0.103c0.106,0.038,0.212,0.082,0.314,0.133c0.104,0.051,0.194,0.116,0.274,0.195s0.145,0.175,0.193,0.289
		c0.05,0.113,0.074,0.25,0.074,0.41c0,0.178-0.031,0.344-0.093,0.498c-0.062,0.155-0.15,0.29-0.267,0.405
		c-0.117,0.115-0.262,0.206-0.433,0.271c-0.172,0.066-0.366,0.099-0.584,0.099c-0.119,0-0.241-0.012-0.365-0.037
		c-0.124-0.025-0.243-0.06-0.359-0.104c-0.116-0.045-0.225-0.098-0.327-0.16c-0.102-0.062-0.19-0.13-0.266-0.206l0.263-0.417
		c0.021-0.03,0.049-0.055,0.083-0.075c0.035-0.02,0.072-0.03,0.112-0.03c0.053,0,0.106,0.017,0.159,0.05
		c0.054,0.033,0.114,0.07,0.183,0.11c0.067,0.041,0.146,0.078,0.233,0.111c0.088,0.034,0.191,0.05,0.311,0.05
		c0.162,0,0.287-0.036,0.377-0.107s0.135-0.184,0.135-0.339c0-0.089-0.025-0.162-0.074-0.219c-0.049-0.056-0.113-0.103-0.193-0.14
		c-0.08-0.037-0.171-0.069-0.273-0.097c-0.102-0.028-0.206-0.06-0.313-0.094s-0.212-0.077-0.313-0.126
		c-0.102-0.05-0.192-0.116-0.272-0.198s-0.145-0.184-0.194-0.306c-0.049-0.122-0.073-0.273-0.073-0.452
		c0-0.144,0.028-0.285,0.087-0.422c0.058-0.137,0.143-0.259,0.256-0.366c0.112-0.107,0.25-0.193,0.413-0.257
		c0.164-0.064,0.351-0.096,0.562-0.096c0.118,0,0.232,0.009,0.344,0.027c0.112,0.019,0.218,0.046,0.318,0.082
		c0.1,0.036,0.193,0.079,0.28,0.129c0.087,0.05,0.165,0.107,0.233,0.17L77.729,42.091z"/>
	<path fill="#FFFFFF" d="M81.704,42.091c-0.026,0.042-0.054,0.074-0.083,0.095c-0.028,0.021-0.066,0.032-0.111,0.032
		c-0.041,0-0.084-0.013-0.131-0.038s-0.1-0.054-0.158-0.086c-0.059-0.031-0.126-0.06-0.201-0.085
		c-0.076-0.025-0.162-0.038-0.259-0.038c-0.167,0-0.291,0.036-0.373,0.106c-0.082,0.071-0.122,0.167-0.122,0.289
		c0,0.078,0.024,0.142,0.073,0.192c0.05,0.051,0.114,0.095,0.194,0.132c0.079,0.037,0.171,0.071,0.273,0.102
		s0.208,0.065,0.315,0.103c0.106,0.038,0.212,0.082,0.314,0.133c0.104,0.051,0.194,0.116,0.274,0.195s0.145,0.175,0.193,0.289
		c0.05,0.113,0.074,0.25,0.074,0.41c0,0.178-0.031,0.344-0.093,0.498c-0.062,0.155-0.15,0.29-0.267,0.405
		c-0.117,0.115-0.262,0.206-0.433,0.271c-0.172,0.066-0.366,0.099-0.584,0.099c-0.119,0-0.241-0.012-0.365-0.037
		c-0.124-0.025-0.243-0.06-0.359-0.104c-0.116-0.045-0.225-0.098-0.327-0.16c-0.102-0.062-0.19-0.13-0.266-0.206l0.263-0.417
		c0.021-0.03,0.049-0.055,0.083-0.075c0.035-0.02,0.072-0.03,0.112-0.03c0.053,0,0.106,0.017,0.159,0.05
		c0.054,0.033,0.114,0.07,0.183,0.11c0.067,0.041,0.146,0.078,0.233,0.111c0.088,0.034,0.191,0.05,0.311,0.05
		c0.162,0,0.287-0.036,0.377-0.107s0.135-0.184,0.135-0.339c0-0.089-0.025-0.162-0.074-0.219c-0.049-0.056-0.113-0.103-0.193-0.14
		c-0.08-0.037-0.171-0.069-0.273-0.097c-0.102-0.028-0.206-0.06-0.313-0.094s-0.212-0.077-0.313-0.126
		c-0.102-0.05-0.192-0.116-0.272-0.198s-0.145-0.184-0.194-0.306c-0.049-0.122-0.073-0.273-0.073-0.452
		c0-0.144,0.028-0.285,0.087-0.422c0.058-0.137,0.143-0.259,0.256-0.366c0.112-0.107,0.25-0.193,0.413-0.257
		c0.164-0.064,0.351-0.096,0.562-0.096c0.118,0,0.232,0.009,0.344,0.027c0.112,0.019,0.218,0.046,0.318,0.082
		c0.1,0.036,0.193,0.079,0.28,0.129c0.087,0.05,0.165,0.107,0.233,0.17L81.704,42.091z"/>
	<path fill="#FFFFFF" d="M86.726,41.996v0.972h1.313v0.688h-1.313v1.495H85.83v-3.84h2.472v0.686H86.726z"/>
	<path fill="#FFFFFF" d="M93.639,43.229c0,0.278-0.048,0.536-0.144,0.775s-0.23,0.447-0.404,0.624
		c-0.174,0.176-0.384,0.315-0.629,0.415s-0.517,0.15-0.815,0.15s-0.571-0.05-0.817-0.15s-0.456-0.239-0.631-0.415
		c-0.175-0.177-0.311-0.385-0.406-0.624s-0.144-0.497-0.144-0.775s0.048-0.536,0.144-0.775s0.231-0.446,0.406-0.622
		s0.385-0.313,0.631-0.414c0.246-0.1,0.519-0.15,0.817-0.15s0.57,0.05,0.815,0.151s0.455,0.24,0.629,0.415
		c0.174,0.176,0.309,0.383,0.404,0.622C93.591,42.696,93.639,42.954,93.639,43.229z M92.727,43.229c0-0.19-0.024-0.361-0.073-0.513
		c-0.05-0.152-0.12-0.281-0.213-0.386c-0.092-0.105-0.205-0.186-0.338-0.242c-0.134-0.057-0.286-0.084-0.456-0.084
		c-0.173,0-0.326,0.028-0.46,0.084c-0.135,0.056-0.248,0.137-0.34,0.242c-0.093,0.105-0.163,0.234-0.213,0.386
		c-0.049,0.152-0.073,0.323-0.073,0.513c0,0.191,0.024,0.363,0.073,0.515c0.05,0.152,0.12,0.281,0.213,0.386
		c0.092,0.105,0.205,0.186,0.34,0.241c0.134,0.055,0.287,0.083,0.46,0.083c0.17,0,0.322-0.028,0.456-0.083
		c0.133-0.055,0.246-0.136,0.338-0.241c0.093-0.105,0.163-0.234,0.213-0.386C92.702,43.593,92.727,43.421,92.727,43.229z"/>
	<path fill="#FFFFFF" d="M98.36,45.151h-0.807c-0.149,0-0.257-0.056-0.321-0.168l-0.639-1.115c-0.029-0.047-0.063-0.082-0.1-0.104
		s-0.09-0.033-0.158-0.033h-0.227v1.421h-0.891v-3.84h1.249c0.277,0,0.515,0.029,0.71,0.086c0.196,0.057,0.356,0.136,0.479,0.238
		c0.124,0.102,0.215,0.222,0.271,0.361c0.057,0.139,0.084,0.29,0.084,0.453c0,0.125-0.017,0.243-0.05,0.353
		c-0.033,0.111-0.082,0.213-0.147,0.307c-0.065,0.094-0.146,0.178-0.241,0.252s-0.206,0.134-0.331,0.182
		c0.059,0.03,0.113,0.067,0.164,0.112c0.051,0.044,0.097,0.098,0.137,0.159L98.36,45.151z M96.468,43.116
		c0.121,0,0.225-0.016,0.31-0.046s0.155-0.073,0.21-0.127c0.054-0.055,0.094-0.118,0.118-0.191c0.024-0.073,0.037-0.151,0.037-0.236
		c0-0.168-0.055-0.3-0.165-0.396c-0.109-0.095-0.279-0.142-0.51-0.142h-0.358v1.139H96.468z"/>
	<path fill="#FFFFFF" d="M101.183,44.447c0.119,0,0.226-0.02,0.319-0.06c0.095-0.04,0.174-0.096,0.239-0.17
		c0.064-0.074,0.114-0.164,0.148-0.27s0.052-0.227,0.052-0.362v-2.275h0.891v2.275c0,0.235-0.038,0.452-0.114,0.648
		c-0.077,0.197-0.187,0.366-0.328,0.508c-0.143,0.143-0.315,0.253-0.52,0.332c-0.204,0.079-0.434,0.119-0.688,0.119
		c-0.257,0-0.487-0.04-0.691-0.119c-0.203-0.079-0.377-0.189-0.519-0.332c-0.143-0.142-0.252-0.312-0.327-0.508
		s-0.113-0.413-0.113-0.648v-2.275h0.891v2.272c0,0.135,0.018,0.256,0.052,0.362c0.034,0.106,0.084,0.197,0.148,0.271
		c0.065,0.075,0.145,0.132,0.239,0.171C100.956,44.427,101.063,44.447,101.183,44.447z"/>
	<path fill="#FFFFFF" d="M108.895,41.311v3.84h-0.785v-2.208c0-0.051,0.002-0.106,0.004-0.167c0.003-0.06,0.008-0.12,0.015-0.182
		l-1.02,1.974c-0.032,0.062-0.074,0.108-0.128,0.14s-0.115,0.047-0.184,0.047h-0.121c-0.068,0-0.13-0.016-0.184-0.047
		s-0.096-0.078-0.128-0.14l-1.02-1.979c0.005,0.063,0.01,0.125,0.013,0.186c0.004,0.061,0.006,0.116,0.006,0.167v2.208h-0.785v-3.84
		h0.68c0.038,0,0.072,0.001,0.102,0.003c0.028,0.001,0.055,0.007,0.077,0.016c0.023,0.009,0.044,0.022,0.063,0.041
		c0.019,0.018,0.036,0.044,0.054,0.078l0.988,1.948c0.035,0.067,0.069,0.136,0.102,0.208c0.032,0.072,0.063,0.146,0.094,0.222
		c0.03-0.077,0.062-0.153,0.094-0.227c0.032-0.074,0.067-0.144,0.104-0.211l0.986-1.94c0.018-0.033,0.035-0.06,0.054-0.078
		c0.019-0.019,0.039-0.032,0.063-0.041c0.022-0.009,0.049-0.014,0.077-0.016c0.029-0.002,0.063-0.003,0.102-0.003H108.895z"/>
</g>
<g>
	<path fill="#31BBAB" d="M73.301,50.049c0.091,0,0.162,0.025,0.214,0.075c0.053,0.05,0.079,0.115,0.079,0.197v0.488h-2.777v-0.271
		c0-0.052,0.011-0.108,0.032-0.168s0.06-0.114,0.114-0.163l1.139-1.147c0.098-0.098,0.183-0.191,0.255-0.279
		c0.072-0.089,0.133-0.176,0.18-0.262c0.047-0.085,0.082-0.171,0.105-0.257s0.035-0.177,0.035-0.273
		c0-0.157-0.037-0.278-0.112-0.362s-0.189-0.126-0.343-0.126c-0.125,0-0.23,0.033-0.316,0.099s-0.146,0.148-0.178,0.246
		c-0.038,0.1-0.088,0.166-0.149,0.198c-0.062,0.033-0.149,0.04-0.263,0.022l-0.445-0.079c0.029-0.197,0.085-0.369,0.167-0.516
		s0.185-0.269,0.307-0.366s0.262-0.17,0.419-0.218s0.326-0.072,0.508-0.072c0.195,0,0.371,0.028,0.527,0.085s0.29,0.136,0.399,0.237
		c0.11,0.101,0.195,0.222,0.254,0.362s0.088,0.294,0.088,0.462c0,0.145-0.02,0.278-0.061,0.401s-0.097,0.24-0.167,0.351
		c-0.07,0.111-0.152,0.219-0.245,0.323c-0.094,0.104-0.192,0.209-0.297,0.316l-0.773,0.792c0.1-0.031,0.198-0.054,0.296-0.071
		c0.098-0.016,0.188-0.024,0.271-0.024H73.301z"/>
	<path fill="#31BBAB" d="M76.089,48.248c0.074-0.015,0.146-0.024,0.215-0.03c0.068-0.006,0.136-0.008,0.2-0.008
		c0.208,0,0.392,0.032,0.551,0.095c0.159,0.063,0.293,0.15,0.401,0.259s0.19,0.238,0.246,0.385c0.055,0.147,0.082,0.305,0.082,0.473
		c0,0.212-0.037,0.405-0.112,0.579c-0.075,0.175-0.18,0.325-0.313,0.452c-0.134,0.127-0.293,0.225-0.479,0.294
		s-0.389,0.104-0.609,0.104c-0.128,0-0.251-0.014-0.367-0.041c-0.116-0.027-0.226-0.064-0.328-0.11
		c-0.103-0.046-0.196-0.1-0.283-0.16s-0.166-0.125-0.236-0.194L75.316,50c0.026-0.036,0.059-0.063,0.095-0.083
		s0.075-0.028,0.116-0.028c0.055,0,0.105,0.015,0.153,0.044s0.101,0.063,0.157,0.098c0.058,0.036,0.124,0.067,0.2,0.097
		c0.075,0.029,0.17,0.043,0.281,0.043c0.112,0,0.208-0.018,0.288-0.055c0.079-0.037,0.144-0.088,0.193-0.152
		c0.05-0.064,0.086-0.139,0.109-0.225c0.022-0.085,0.033-0.177,0.033-0.275c0-0.192-0.054-0.338-0.162-0.438
		c-0.108-0.1-0.263-0.15-0.462-0.15c-0.177,0-0.351,0.034-0.521,0.101l-0.521-0.141l0.336-1.978h2.023v0.347
		c0,0.058-0.009,0.11-0.026,0.157c-0.019,0.047-0.047,0.088-0.086,0.124s-0.09,0.063-0.153,0.082
		c-0.063,0.019-0.139,0.028-0.228,0.028H76.2L76.089,48.248z"/>
	<path fill="#31BBAB" d="M79.287,50.383c0-0.065,0.012-0.126,0.036-0.182c0.024-0.056,0.059-0.105,0.101-0.146
		c0.043-0.042,0.093-0.075,0.15-0.099c0.059-0.024,0.121-0.037,0.19-0.037c0.066,0,0.129,0.012,0.188,0.037
		c0.058,0.024,0.108,0.057,0.151,0.099c0.044,0.042,0.077,0.09,0.102,0.146c0.024,0.056,0.037,0.116,0.037,0.182
		c0,0.065-0.013,0.126-0.037,0.183c-0.024,0.057-0.058,0.106-0.102,0.148c-0.043,0.042-0.094,0.074-0.151,0.098
		c-0.059,0.023-0.121,0.035-0.188,0.035c-0.069,0-0.132-0.012-0.19-0.035c-0.058-0.024-0.107-0.056-0.15-0.098
		c-0.042-0.042-0.076-0.091-0.101-0.148C79.299,50.509,79.287,50.448,79.287,50.383z"/>
	<path fill="#31BBAB" d="M84.531,48.831c0,0.346-0.037,0.645-0.111,0.898s-0.177,0.463-0.308,0.629s-0.287,0.29-0.467,0.372
		s-0.375,0.122-0.584,0.122c-0.21,0-0.404-0.041-0.582-0.122c-0.179-0.082-0.333-0.205-0.463-0.372s-0.231-0.376-0.305-0.629
		s-0.11-0.552-0.11-0.898c0-0.345,0.037-0.645,0.11-0.898c0.073-0.253,0.175-0.463,0.305-0.629c0.13-0.166,0.284-0.29,0.463-0.37
		c0.178-0.081,0.372-0.121,0.582-0.121c0.209,0,0.404,0.04,0.584,0.121s0.336,0.204,0.467,0.37c0.131,0.167,0.233,0.376,0.308,0.629
		C84.494,48.187,84.531,48.486,84.531,48.831z M83.663,48.831c0-0.273-0.017-0.497-0.052-0.671c-0.034-0.174-0.08-0.312-0.137-0.411
		c-0.057-0.099-0.121-0.167-0.193-0.205c-0.073-0.037-0.146-0.056-0.22-0.056c-0.074,0-0.147,0.019-0.219,0.056
		s-0.135,0.105-0.19,0.205c-0.055,0.1-0.099,0.237-0.133,0.411c-0.033,0.175-0.05,0.398-0.05,0.671c0,0.275,0.017,0.499,0.05,0.673
		c0.034,0.173,0.078,0.311,0.133,0.411c0.056,0.101,0.119,0.169,0.19,0.207s0.145,0.056,0.219,0.056c0.073,0,0.146-0.019,0.22-0.056
		c0.072-0.037,0.137-0.106,0.193-0.207c0.057-0.1,0.103-0.237,0.137-0.411C83.646,49.33,83.663,49.106,83.663,48.831z"/>
	<path fill="#31BBAB" d="M88.575,50.201v0.607h-2.251v-0.607h0.76v-1.994c0-0.05,0.001-0.102,0.002-0.153
		c0.002-0.051,0.005-0.103,0.009-0.156l-0.45,0.375c-0.04,0.031-0.079,0.049-0.118,0.056s-0.076,0.006-0.11,0
		s-0.064-0.018-0.092-0.036c-0.027-0.017-0.047-0.035-0.06-0.053l-0.266-0.353l1.231-1.034h0.694v3.348H88.575z"/>
	<path fill="#31BBAB" d="M90.127,50.383c0-0.065,0.012-0.126,0.036-0.182c0.024-0.056,0.059-0.105,0.101-0.146
		c0.043-0.042,0.093-0.075,0.15-0.099c0.059-0.024,0.121-0.037,0.19-0.037c0.066,0,0.129,0.012,0.188,0.037
		c0.058,0.024,0.108,0.057,0.151,0.099c0.044,0.042,0.077,0.09,0.102,0.146c0.024,0.056,0.037,0.116,0.037,0.182
		c0,0.065-0.013,0.126-0.037,0.183c-0.024,0.057-0.058,0.106-0.102,0.148c-0.043,0.042-0.094,0.074-0.151,0.098
		c-0.059,0.023-0.121,0.035-0.188,0.035c-0.069,0-0.132-0.012-0.19-0.035c-0.058-0.024-0.107-0.056-0.15-0.098
		c-0.042-0.042-0.076-0.091-0.101-0.148C90.139,50.509,90.127,50.448,90.127,50.383z"/>
	<path fill="#31BBAB" d="M94.985,50.049c0.091,0,0.162,0.025,0.214,0.075c0.053,0.05,0.079,0.115,0.079,0.197v0.488h-2.777v-0.271
		c0-0.052,0.011-0.108,0.032-0.168s0.06-0.114,0.114-0.163l1.139-1.147c0.098-0.098,0.183-0.191,0.255-0.279
		c0.072-0.089,0.133-0.176,0.18-0.262c0.047-0.085,0.082-0.171,0.105-0.257s0.035-0.177,0.035-0.273
		c0-0.157-0.037-0.278-0.112-0.362s-0.189-0.126-0.343-0.126c-0.125,0-0.23,0.033-0.316,0.099s-0.146,0.148-0.178,0.246
		c-0.038,0.1-0.088,0.166-0.149,0.198c-0.062,0.033-0.149,0.04-0.263,0.022l-0.445-0.079c0.029-0.197,0.085-0.369,0.167-0.516
		s0.185-0.269,0.307-0.366s0.262-0.17,0.419-0.218s0.326-0.072,0.508-0.072c0.195,0,0.371,0.028,0.527,0.085s0.29,0.136,0.399,0.237
		c0.11,0.101,0.195,0.222,0.254,0.362s0.088,0.294,0.088,0.462c0,0.145-0.02,0.278-0.061,0.401s-0.097,0.24-0.167,0.351
		c-0.07,0.111-0.152,0.219-0.245,0.323c-0.094,0.104-0.192,0.209-0.297,0.316l-0.773,0.792c0.1-0.031,0.198-0.054,0.296-0.071
		c0.098-0.016,0.188-0.024,0.271-0.024H94.985z"/>
	<path fill="#31BBAB" d="M99.607,48.831c0,0.346-0.037,0.645-0.111,0.898s-0.177,0.463-0.308,0.629s-0.287,0.29-0.467,0.372
		s-0.375,0.122-0.584,0.122c-0.21,0-0.404-0.041-0.582-0.122c-0.179-0.082-0.333-0.205-0.463-0.372s-0.231-0.376-0.305-0.629
		s-0.11-0.552-0.11-0.898c0-0.345,0.037-0.645,0.11-0.898c0.073-0.253,0.175-0.463,0.305-0.629c0.13-0.166,0.284-0.29,0.463-0.37
		c0.178-0.081,0.372-0.121,0.582-0.121c0.209,0,0.404,0.04,0.584,0.121s0.336,0.204,0.467,0.37c0.131,0.167,0.233,0.376,0.308,0.629
		C99.57,48.187,99.607,48.486,99.607,48.831z M98.739,48.831c0-0.273-0.017-0.497-0.052-0.671c-0.034-0.174-0.08-0.312-0.137-0.411
		c-0.057-0.099-0.121-0.167-0.193-0.205c-0.073-0.037-0.146-0.056-0.22-0.056c-0.074,0-0.147,0.019-0.219,0.056
		s-0.135,0.105-0.19,0.205c-0.055,0.1-0.099,0.237-0.133,0.411c-0.033,0.175-0.05,0.398-0.05,0.671c0,0.275,0.017,0.499,0.05,0.673
		c0.034,0.173,0.078,0.311,0.133,0.411c0.056,0.101,0.119,0.169,0.19,0.207s0.145,0.056,0.219,0.056c0.073,0,0.146-0.019,0.22-0.056
		c0.072-0.037,0.137-0.106,0.193-0.207c0.057-0.1,0.103-0.237,0.137-0.411C98.723,49.33,98.739,49.106,98.739,48.831z"/>
	<path fill="#31BBAB" d="M103.651,50.201v0.607H101.4v-0.607h0.76v-1.994c0-0.05,0.001-0.102,0.002-0.153
		c0.002-0.051,0.005-0.103,0.009-0.156l-0.45,0.375c-0.04,0.031-0.079,0.049-0.118,0.056s-0.076,0.006-0.11,0
		s-0.064-0.018-0.092-0.036c-0.027-0.017-0.047-0.035-0.06-0.053l-0.266-0.353l1.231-1.034h0.694v3.348H103.651z"/>
	<path fill="#31BBAB" d="M107.352,48.747c0.117,0.042,0.219,0.093,0.303,0.155c0.084,0.061,0.152,0.132,0.206,0.211
		c0.053,0.08,0.093,0.167,0.118,0.262c0.024,0.095,0.037,0.196,0.037,0.302c0,0.177-0.033,0.338-0.102,0.483
		c-0.067,0.145-0.163,0.268-0.287,0.371c-0.124,0.102-0.272,0.181-0.446,0.237c-0.174,0.056-0.365,0.084-0.575,0.084
		s-0.401-0.028-0.575-0.084c-0.174-0.056-0.322-0.135-0.446-0.237c-0.124-0.103-0.22-0.226-0.287-0.371
		c-0.068-0.145-0.102-0.306-0.102-0.483c0-0.106,0.013-0.208,0.038-0.302c0.024-0.095,0.064-0.182,0.117-0.262
		c0.054-0.08,0.122-0.15,0.206-0.211c0.085-0.062,0.186-0.113,0.303-0.155c-0.179-0.082-0.313-0.194-0.401-0.338
		c-0.089-0.144-0.133-0.317-0.133-0.52c0-0.153,0.031-0.296,0.095-0.427c0.063-0.131,0.152-0.244,0.266-0.34
		c0.114-0.096,0.249-0.171,0.406-0.227c0.156-0.055,0.327-0.083,0.514-0.083s0.357,0.027,0.514,0.083
		c0.157,0.055,0.292,0.131,0.406,0.227c0.113,0.096,0.202,0.209,0.266,0.34c0.063,0.131,0.095,0.274,0.095,0.427
		c0,0.203-0.044,0.376-0.133,0.52C107.664,48.553,107.53,48.666,107.352,48.747z M106.605,50.217c0.094,0,0.176-0.015,0.244-0.043
		s0.125-0.068,0.17-0.118c0.044-0.049,0.076-0.108,0.098-0.176c0.021-0.068,0.031-0.141,0.031-0.218c0-0.085-0.01-0.163-0.027-0.233
		c-0.019-0.07-0.048-0.13-0.09-0.18c-0.041-0.05-0.097-0.089-0.167-0.117c-0.069-0.028-0.155-0.042-0.259-0.042
		c-0.103,0-0.189,0.014-0.259,0.042c-0.07,0.028-0.125,0.067-0.167,0.117s-0.071,0.11-0.09,0.18
		c-0.018,0.071-0.026,0.148-0.026,0.233c0,0.078,0.01,0.15,0.03,0.218c0.021,0.068,0.054,0.127,0.098,0.176
		c0.045,0.05,0.101,0.089,0.169,0.118C106.428,50.203,106.51,50.217,106.605,50.217z M106.605,47.426
		c-0.085,0-0.156,0.014-0.214,0.041c-0.059,0.027-0.105,0.063-0.143,0.107s-0.063,0.096-0.08,0.153
		c-0.017,0.058-0.024,0.118-0.024,0.179c0,0.069,0.006,0.135,0.019,0.201c0.013,0.065,0.036,0.123,0.071,0.173
		c0.034,0.051,0.081,0.091,0.141,0.122s0.137,0.046,0.23,0.046s0.171-0.016,0.23-0.046s0.106-0.071,0.142-0.122
		c0.034-0.05,0.058-0.108,0.07-0.173c0.013-0.065,0.019-0.132,0.019-0.201c0-0.062-0.008-0.121-0.024-0.179
		c-0.016-0.058-0.043-0.109-0.08-0.153s-0.085-0.08-0.144-0.107C106.76,47.439,106.688,47.426,106.605,47.426z"/>
</g>
<g>
	<path fill="#FFFFFF" d="M79.87,32.015c0.112,0,0.201,0.034,0.265,0.101c0.063,0.067,0.095,0.154,0.095,0.259v0.593h-9.662v-0.36
		c0-0.078,0.02-0.157,0.059-0.238c0.038-0.081,0.09-0.149,0.153-0.206l5.111-5.175c0.424-0.43,0.815-0.847,1.175-1.249
		c0.36-0.402,0.672-0.808,0.937-1.217s0.471-0.829,0.619-1.259s0.223-0.889,0.223-1.376c0-0.55-0.092-1.028-0.275-1.434
		s-0.427-0.739-0.73-1c-0.303-0.261-0.656-0.455-1.058-0.582c-0.402-0.127-0.819-0.19-1.249-0.19c-0.473,0-0.908,0.072-1.308,0.217
		c-0.398,0.145-0.751,0.346-1.058,0.604c-0.308,0.258-0.562,0.564-0.763,0.921c-0.2,0.356-0.34,0.746-0.418,1.169
		c-0.049,0.155-0.114,0.258-0.195,0.307s-0.192,0.067-0.333,0.053l-0.519-0.084c0.091-0.642,0.268-1.213,0.528-1.714
		c0.262-0.501,0.593-0.924,0.995-1.27s0.868-0.608,1.397-0.789c0.528-0.18,1.101-0.27,1.714-0.27c0.571,0,1.116,0.083,1.635,0.249
		c0.519,0.166,0.978,0.417,1.376,0.751s0.715,0.755,0.947,1.259c0.233,0.504,0.35,1.095,0.35,1.772c0,0.565-0.087,1.088-0.26,1.572
		s-0.407,0.947-0.703,1.392c-0.297,0.444-0.641,0.877-1.032,1.296c-0.392,0.42-0.803,0.849-1.232,1.286l-4.688,4.784
		c0.226-0.056,0.46-0.099,0.703-0.127c0.244-0.028,0.489-0.042,0.736-0.042H79.87z"/>
</g>
</svg>
