<?xml version="1.0" encoding="utf-8"?>
<!-- Generator: Adobe Illustrator 22.0.1, SVG Export Plug-In . SVG Version: 6.00 Build 0)  -->
<svg version="1.1" id="Layer_1" xmlns="http://www.w3.org/2000/svg" xmlns:xlink="http://www.w3.org/1999/xlink" x="0px" y="0px"
	 viewBox="0 0 841.9 595.3" style="enable-background:new 0 0 841.9 595.3;" xml:space="preserve">
<style type="text/css">
	.st0{display:none;fill:#1F3242;}
	.st1{display:none;}
	.st2{display:inline;}
	.st3{clip-path:url(#SVGID_2_);fill:url(#SVGID_3_);}
	.st4{clip-path:url(#SVGID_5_);fill:url(#SVGID_6_);}
	.st5{clip-path:url(#SVGID_8_);fill:url(#SVGID_9_);}
	.st6{clip-path:url(#SVGID_11_);fill:url(#SVGID_12_);}
	.st7{clip-path:url(#SVGID_14_);fill:url(#SVGID_15_);}
	.st8{clip-path:url(#SVGID_17_);fill:url(#SVGID_18_);}
	.st9{fill:#FFFFFF;}
	.st10{fill:#33BCAB;}
</style>
<rect x="0.7" class="st0" width="841.9" height="595.3"/>
<g class="st1">
	<g class="st2">
		<defs>
			<path id="SVGID_28_" d="M301.9,519.8c0.7,0.2,1.4,0.5,2.1,0.7l162-294.6c-0.7-0.2-1.4-0.5-2.1-0.7L301.9,519.8z"/>
		</defs>
		<linearGradient id="SVGID_1_" gradientUnits="userSpaceOnUse" x1="302.1246" y1="372.8404" x2="465.6593" y2="372.8404">
			<stop  offset="0" style="stop-color:#A7519F"/>
			<stop  offset="2.868611e-02" style="stop-color:#A45A9F"/>
			<stop  offset="0.1656" style="stop-color:#9379A6"/>
			<stop  offset="0.3049" style="stop-color:#818FAA"/>
			<stop  offset="0.444" style="stop-color:#6EA0AC"/>
			<stop  offset="0.5831" style="stop-color:#5BACAC"/>
			<stop  offset="0.722" style="stop-color:#49B4AB"/>
			<stop  offset="0.8609" style="stop-color:#3AB9AB"/>
			<stop  offset="1" style="stop-color:#33BCAB"/>
		</linearGradient>
		<use xlink:href="#SVGID_28_"  style="overflow:visible;fill:url(#SVGID_1_);"/>
		<clipPath id="SVGID_2_">
			<use xlink:href="#SVGID_28_"  style="overflow:visible;"/>
		</clipPath>
		
			<linearGradient id="SVGID_3_" gradientUnits="userSpaceOnUse" x1="392.9852" y1="341.9415" x2="398.0042" y2="341.9415" gradientTransform="matrix(33.3624 -57.8104 -33.6026 -36.5877 -1320.6232 35747.3828)">
			<stop  offset="0" style="stop-color:#A7519F"/>
			<stop  offset="2.868611e-02" style="stop-color:#A45A9F"/>
			<stop  offset="0.1656" style="stop-color:#9379A6"/>
			<stop  offset="0.3049" style="stop-color:#818FAA"/>
			<stop  offset="0.444" style="stop-color:#6EA0AC"/>
			<stop  offset="0.5831" style="stop-color:#5BACAC"/>
			<stop  offset="0.722" style="stop-color:#49B4AB"/>
			<stop  offset="0.8609" style="stop-color:#3AB9AB"/>
			<stop  offset="1" style="stop-color:#33BCAB"/>
		</linearGradient>
		<polygon class="st3" points="197.2,406.5 365.2,115.5 570.6,339.1 402.6,630.2 		"/>
	</g>
	<g class="st2">
		<defs>
			<path id="SVGID_32_" d="M325.3,445.2c0.3,0.1,0.6,0.3,1.3,0.5c0.3,0.1,0.6,0.3,1.3,0.5c0.3,0.1,0.6,0.3,1.3,0.5
				c0.3,0.1,0.6,0.2,1.3,0.5c0.3,0.1,0.6,0.3,1.3,0.6c0.3,0.1,0.6,0.2,1.3,0.6c0.3,0.1,0.6,0.3,1.3,0.6l0,0l162-294.6c0,0,0,0,0,0
				c-0.7-0.3-1-0.4-1.3-0.6c-0.7-0.3-1-0.4-1.3-0.6c-0.7-0.3-1-0.4-1.3-0.6c-0.7-0.3-1-0.4-1.3-0.5c-0.7-0.3-1-0.4-1.3-0.5
				c-0.7-0.3-1-0.4-1.3-0.5c-0.6-0.2-0.9-0.4-1.3-0.5L325.3,445.2z"/>
		</defs>
		<linearGradient id="SVGID_4_" gradientUnits="userSpaceOnUse" x1="326.5945" y1="299.8087" x2="494.8369" y2="299.8087">
			<stop  offset="0" style="stop-color:#A7519F"/>
			<stop  offset="2.868611e-02" style="stop-color:#A45A9F"/>
			<stop  offset="0.1656" style="stop-color:#9379A6"/>
			<stop  offset="0.3049" style="stop-color:#818FAA"/>
			<stop  offset="0.444" style="stop-color:#6EA0AC"/>
			<stop  offset="0.5831" style="stop-color:#5BACAC"/>
			<stop  offset="0.722" style="stop-color:#49B4AB"/>
			<stop  offset="0.8609" style="stop-color:#3AB9AB"/>
			<stop  offset="1" style="stop-color:#33BCAB"/>
		</linearGradient>
		<use xlink:href="#SVGID_32_"  style="overflow:visible;fill:url(#SVGID_4_);"/>
		<clipPath id="SVGID_5_">
			<use xlink:href="#SVGID_32_"  style="overflow:visible;"/>
		</clipPath>
		
			<linearGradient id="SVGID_6_" gradientUnits="userSpaceOnUse" x1="393.8561" y1="342.1642" x2="398.8751" y2="342.1642" gradientTransform="matrix(33.6747 -58.3515 -33.9171 -36.9302 -1331.5306 36064.5273)">
			<stop  offset="0" style="stop-color:#A7519F"/>
			<stop  offset="2.868611e-02" style="stop-color:#A45A9F"/>
			<stop  offset="0.1656" style="stop-color:#9379A6"/>
			<stop  offset="0.3049" style="stop-color:#818FAA"/>
			<stop  offset="0.444" style="stop-color:#6EA0AC"/>
			<stop  offset="0.5831" style="stop-color:#5BACAC"/>
			<stop  offset="0.722" style="stop-color:#49B4AB"/>
			<stop  offset="0.8609" style="stop-color:#3AB9AB"/>
			<stop  offset="1" style="stop-color:#33BCAB"/>
		</linearGradient>
		<polygon class="st4" points="219.5,333.9 391.2,36.3 601.9,265.8 430.2,563.3 		"/>
	</g>
	<g class="st2">
		<defs>
			<path id="SVGID_36_" d="M505.2,78.7L335.6,387.1c1.5,0,2.9,0.1,4.4,0.2L509.6,78.9C508.1,78.8,506.7,78.7,505.2,78.7z"/>
		</defs>
		<linearGradient id="SVGID_7_" gradientUnits="userSpaceOnUse" x1="335.6131" y1="232.9852" x2="509.6382" y2="232.9852">
			<stop  offset="0" style="stop-color:#A7519F"/>
			<stop  offset="2.868611e-02" style="stop-color:#A45A9F"/>
			<stop  offset="0.1656" style="stop-color:#9379A6"/>
			<stop  offset="0.3049" style="stop-color:#818FAA"/>
			<stop  offset="0.444" style="stop-color:#6EA0AC"/>
			<stop  offset="0.5831" style="stop-color:#5BACAC"/>
			<stop  offset="0.722" style="stop-color:#49B4AB"/>
			<stop  offset="0.8609" style="stop-color:#3AB9AB"/>
			<stop  offset="1" style="stop-color:#33BCAB"/>
		</linearGradient>
		<use xlink:href="#SVGID_36_"  style="overflow:visible;fill:url(#SVGID_7_);"/>
		<clipPath id="SVGID_8_">
			<use xlink:href="#SVGID_36_"  style="overflow:visible;"/>
		</clipPath>
		
			<linearGradient id="SVGID_9_" gradientUnits="userSpaceOnUse" x1="394.5027" y1="342.5599" x2="399.6222" y2="342.5599" gradientTransform="matrix(33.5821 -58.1911 -33.8239 -36.8287 -1323.5798 35951.5273)">
			<stop  offset="0" style="stop-color:#A7519F"/>
			<stop  offset="2.868611e-02" style="stop-color:#A45A9F"/>
			<stop  offset="0.1656" style="stop-color:#9379A6"/>
			<stop  offset="0.3049" style="stop-color:#818FAA"/>
			<stop  offset="0.444" style="stop-color:#6EA0AC"/>
			<stop  offset="0.5831" style="stop-color:#5BACAC"/>
			<stop  offset="0.722" style="stop-color:#49B4AB"/>
			<stop  offset="0.8609" style="stop-color:#3AB9AB"/>
			<stop  offset="1" style="stop-color:#33BCAB"/>
		</linearGradient>
		<polygon class="st5" points="232.6,264.3 404.5,-33.6 615.2,195.7 443.2,493.6 		"/>
	</g>
	<g class="st2">
		<g>
			<defs>
				<path id="SVGID_40_" d="M448.2,136.2l-162,294.6c1.5-0.1,3-0.1,4.6-0.2l162-294.6C451.2,136,449.7,136.1,448.2,136.2"/>
			</defs>
			<linearGradient id="SVGID_10_" gradientUnits="userSpaceOnUse" x1="286.2019" y1="283.3615" x2="452.7277" y2="283.3615">
				<stop  offset="0" style="stop-color:#A7519F"/>
				<stop  offset="2.868611e-02" style="stop-color:#A45A9F"/>
				<stop  offset="0.1656" style="stop-color:#9379A6"/>
				<stop  offset="0.3049" style="stop-color:#818FAA"/>
				<stop  offset="0.444" style="stop-color:#6EA0AC"/>
				<stop  offset="0.5831" style="stop-color:#5BACAC"/>
				<stop  offset="0.722" style="stop-color:#49B4AB"/>
				<stop  offset="0.8609" style="stop-color:#3AB9AB"/>
				<stop  offset="1" style="stop-color:#33BCAB"/>
			</linearGradient>
			<use xlink:href="#SVGID_40_"  style="overflow:visible;fill:url(#SVGID_10_);"/>
			<clipPath id="SVGID_11_">
				<use xlink:href="#SVGID_40_"  style="overflow:visible;"/>
			</clipPath>
			
				<linearGradient id="SVGID_12_" gradientUnits="userSpaceOnUse" x1="393.6156" y1="342.9014" x2="398.6346" y2="342.9014" gradientTransform="matrix(33.6173 -58.2522 -33.8594 -36.8673 -1336.7651 36000.3477)">
				<stop  offset="0" style="stop-color:#A7519F"/>
				<stop  offset="2.868611e-02" style="stop-color:#A45A9F"/>
				<stop  offset="0.1656" style="stop-color:#9379A6"/>
				<stop  offset="0.3049" style="stop-color:#818FAA"/>
				<stop  offset="0.444" style="stop-color:#6EA0AC"/>
				<stop  offset="0.5831" style="stop-color:#5BACAC"/>
				<stop  offset="0.722" style="stop-color:#49B4AB"/>
				<stop  offset="0.8609" style="stop-color:#3AB9AB"/>
				<stop  offset="1" style="stop-color:#33BCAB"/>
			</linearGradient>
			<polygon class="st6" points="181.7,317 350.5,24.6 557.2,249.7 388.5,542.1 			"/>
		</g>
		<g>
			<defs>
				<path id="SVGID_44_" d="M345.1,323.8l-58.9,106.9c1.5-0.1,3-0.1,4.6-0.2l54.3-98.6C345.1,331.9,345.1,331.9,345.1,323.8"/>
			</defs>
			<linearGradient id="SVGID_13_" gradientUnits="userSpaceOnUse" x1="286.2019" y1="377.2814" x2="345.0805" y2="377.2814">
				<stop  offset="0" style="stop-color:#A7519F"/>
				<stop  offset="2.868611e-02" style="stop-color:#A45A9F"/>
				<stop  offset="0.1656" style="stop-color:#9379A6"/>
				<stop  offset="0.3049" style="stop-color:#818FAA"/>
				<stop  offset="0.444" style="stop-color:#6EA0AC"/>
				<stop  offset="0.5831" style="stop-color:#5BACAC"/>
				<stop  offset="0.722" style="stop-color:#49B4AB"/>
				<stop  offset="0.8609" style="stop-color:#3AB9AB"/>
				<stop  offset="1" style="stop-color:#33BCAB"/>
			</linearGradient>
			<use xlink:href="#SVGID_44_"  style="overflow:visible;fill:url(#SVGID_13_);"/>
			<clipPath id="SVGID_14_">
				<use xlink:href="#SVGID_44_"  style="overflow:visible;"/>
			</clipPath>
			
				<linearGradient id="SVGID_15_" gradientUnits="userSpaceOnUse" x1="393.6156" y1="342.9014" x2="398.6346" y2="342.9014" gradientTransform="matrix(33.6173 -58.2522 -33.8594 -36.8673 -1336.7651 36000.3477)">
				<stop  offset="0" style="stop-color:#A7519F"/>
				<stop  offset="2.868611e-02" style="stop-color:#A45A9F"/>
				<stop  offset="0.1656" style="stop-color:#9379A6"/>
				<stop  offset="0.3049" style="stop-color:#818FAA"/>
				<stop  offset="0.444" style="stop-color:#6EA0AC"/>
				<stop  offset="0.5831" style="stop-color:#5BACAC"/>
				<stop  offset="0.722" style="stop-color:#49B4AB"/>
				<stop  offset="0.8609" style="stop-color:#3AB9AB"/>
				<stop  offset="1" style="stop-color:#33BCAB"/>
			</linearGradient>
			<polygon class="st7" points="181.7,317 350.5,24.6 557.2,249.7 388.5,542.1 			"/>
		</g>
	</g>
	<g class="st2">
		<defs>
			<path id="SVGID_48_" d="M392.3,388.8c0.1,0,0.3,0.1,0.4,0.1c0.4,0.1,0.8,0.2,1.2,0.3l162-294.6c-0.4-0.1-0.8-0.2-1.2-0.3
				c-0.2,0-0.3-0.1-0.4-0.1L392.3,388.8z"/>
		</defs>
		<linearGradient id="SVGID_16_" gradientUnits="userSpaceOnUse" x1="392.3188" y1="241.7037" x2="555.5848" y2="241.7037">
			<stop  offset="0" style="stop-color:#A7519F"/>
			<stop  offset="2.868611e-02" style="stop-color:#A45A9F"/>
			<stop  offset="0.1656" style="stop-color:#9379A6"/>
			<stop  offset="0.3049" style="stop-color:#818FAA"/>
			<stop  offset="0.444" style="stop-color:#6EA0AC"/>
			<stop  offset="0.5831" style="stop-color:#5BACAC"/>
			<stop  offset="0.722" style="stop-color:#49B4AB"/>
			<stop  offset="0.8609" style="stop-color:#3AB9AB"/>
			<stop  offset="1" style="stop-color:#33BCAB"/>
		</linearGradient>
		<use xlink:href="#SVGID_48_"  style="overflow:visible;fill:url(#SVGID_16_);"/>
		<clipPath id="SVGID_17_">
			<use xlink:href="#SVGID_48_"  style="overflow:visible;"/>
		</clipPath>
		
			<linearGradient id="SVGID_18_" gradientUnits="userSpaceOnUse" x1="394.9319" y1="341.7286" x2="399.951" y2="341.7286" gradientTransform="matrix(33.3464 -57.7826 -33.5865 -36.5701 -1301.8171 35704.2578)">
			<stop  offset="0" style="stop-color:#A7519F"/>
			<stop  offset="2.868611e-02" style="stop-color:#A45A9F"/>
			<stop  offset="0.1656" style="stop-color:#9379A6"/>
			<stop  offset="0.3049" style="stop-color:#818FAA"/>
			<stop  offset="0.444" style="stop-color:#6EA0AC"/>
			<stop  offset="0.5831" style="stop-color:#5BACAC"/>
			<stop  offset="0.722" style="stop-color:#49B4AB"/>
			<stop  offset="0.8609" style="stop-color:#3AB9AB"/>
			<stop  offset="1" style="stop-color:#33BCAB"/>
		</linearGradient>
		<polygon class="st8" points="287.8,275.4 455.4,-15.2 660.5,208 492.8,498.6 		"/>
	</g>
</g>
<g>
	<g>
		<path class="st9" d="M345.2,238.7v56h-15.2v-56c0-3.8-3.1-7-7-7h-12.2v62.9h-15V156.3h25.2c11.4,0,24.1,9.3,24.1,20.8v33.4
			c0,5.4-2.1,10.5-5.8,14.5C342.9,228.4,345.2,233.3,345.2,238.7z M310.7,219.5h10.1c2.4,0,4.7-0.9,6.3-2.6c1.7-1.6,2.6-3.8,2.6-6.3
			v-33.4c0-5.1-4-9.1-8.9-9.1h-10.1V219.5z"/>
		<path class="st9" d="M379.3,294.7h-7.3c-10.7,0-19.2-8.6-19.2-19.2v-100c0-10.7,8.6-19.2,19.2-19.2h7.3c10.7,0,19.2,8.6,19.2,19.2
			v100C398.5,286.1,389.9,294.7,379.3,294.7z M374.2,167.9c-4.2,0-7.5,3.3-7.5,7.5v100c0,4.2,3.3,7.5,7.5,7.5h2.3
			c4.2,0,7.5-3.3,7.5-7.5v-100c0-4.2-3.3-7.5-7.5-7.5H374.2z"/>
		<path class="st9" d="M433.8,294.7h-7.3c-10.7,0-19.2-8.6-19.2-19.2v-100c0-10.7,8.6-19.2,19.2-19.2h7.3c10.7,0,19.2,8.6,19.2,19.2
			v41.1h-14.2v-41.1c0-4.2-3.3-7.5-7.5-7.5h-2.6c-4.2,0-7.5,3.3-7.5,7.5v100c0,4.2,3.3,7.5,7.5,7.5h2.6c4.2,0,7.5-3.3,7.5-7.5v-43.5
			H453v43.5C453,286.1,444.5,294.7,433.8,294.7z"/>
		<path class="st9" d="M497.3,210.2c7.3,9.8,11.4,22.7,11.4,36.4v48.1h-13.5v-48.1c0-11.2-3.1-21.7-8.9-29.4
			c-4-5.4-6.3-8.9-11.5-10.5v87.9h-14.2V156.3h14.2v37.4c5.9-2.6,8.7-6.1,12.1-10c4.4-5.8,8.4-14.5,8.4-27.5h11.7
			c0,12.9-3.8,25.2-10.7,34.3c-3,4.2-6.5,7.5-10.3,10C489.4,203,494.5,206.4,497.3,210.2z"/>
	</g>
	<g>
		<path class="st9" d="M376.3,463.1h-7.2v-39h7.2c3.2,0,5.8,2.5,5.8,5.5v10.9c0,1.2-0.5,2.4-1.3,3.2c0.8,0.9,1.3,2,1.3,3.3v10.6
			C382.1,460.6,379.5,463.1,376.3,463.1z M373.1,427.4V442l3.3,0c1,0,1.7-0.7,1.7-1.5v-10.9c0-1.2-1.1-2.2-2.5-2.2H373.1z
			 M373.1,459.8h2.6c1.4,0,2.5-1,2.5-2.2v-10.6c0-0.5-0.2-0.8-0.4-1c-0.3-0.3-0.8-0.5-1.3-0.5h-3.3V459.8z"/>
		<path class="st9" d="M402.2,463.1h-2.1c-3,0-5.4-2.4-5.4-5.4v-33.5h4.1v33.5c0,1.2,0.9,2.1,2.1,2.1h0.7c1.2,0,2.1-0.9,2.1-2.1
			v-33.5h3.9v33.5C407.7,460.6,405.3,463.1,402.2,463.1z"/>
		<path class="st9" d="M427.4,463.1h-3c-2.8,0-5-2.1-5-4.7V448h4v10.3c0,0.8,0.7,1.4,1.7,1.4h1.7c0.9,0,1.7-0.6,1.7-1.4v-12.4
			c0-0.5-0.5-1-1.2-1H424c-2.5,0-4.5-1.9-4.5-4.3v-11.9c0-2.6,2.2-4.7,5-4.7h3c2.8,0,5,2.1,5,4.7v9.8h-3.9v-9.8
			c0-0.8-0.7-1.4-1.7-1.4h-1.7c-0.9,0-1.7,0.6-1.7,1.4v11.9c0,0.5,0.5,1,1.2,1h3.2c2.5,0,4.5,1.9,4.5,4.3v12.4
			C432.4,460.9,430.2,463.1,427.4,463.1z"/>
		<path class="st9" d="M448.8,463.1h-4V424h4V463.1z"/>
		<path class="st9" d="M470.1,463.1c-1.7-7.1-3.7-17.2-5.8-25.5V463h-3.9v-39c0,0,2,0,3.3,0l0.4,1.3c0.3,1,0.6,2.6,1.1,4.4
			c0.9,3.7,2.1,8.5,3.3,13.4l1.6,6.5l0.1-25.6h3.9l-0.1,39H470.1z"/>
		<path class="st9" d="M490,427.4v14.4h7.4v3.3H490v14.7h7.4v3.3H486v-39h11.3v3.3H490z"/>
		<path class="st9" d="M517.5,463.1h-3c-2.8,0-5-2.1-5-4.7V448h4v10.3c0,0.8,0.7,1.4,1.7,1.4h1.7c0.9,0,1.7-0.6,1.7-1.4v-12.4
			c0-0.5-0.5-1-1.2-1H514c-2.5,0-4.5-1.9-4.5-4.3v-11.9c0-2.6,2.2-4.7,5-4.7h3c2.8,0,5,2.1,5,4.7v9.8h-3.9v-9.8
			c0-0.8-0.7-1.4-1.7-1.4h-1.7c-0.9,0-1.7,0.6-1.7,1.4v11.9c0,0.5,0.5,1,1.2,1h3.2c2.5,0,4.5,1.9,4.5,4.3v12.4
			C522.4,460.9,520.2,463.1,517.5,463.1z"/>
		<path class="st9" d="M542.7,463.1h-3c-2.8,0-5-2.1-5-4.7V448h4v10.3c0,0.8,0.7,1.4,1.7,1.4h1.7c0.9,0,1.7-0.6,1.7-1.4v-12.4
			c0-0.5-0.5-1-1.2-1h-3.3c-2.5,0-4.5-1.9-4.5-4.3v-11.9c0-2.6,2.2-4.7,5-4.7h3c2.8,0,5,2.1,5,4.7v9.8h-3.9v-9.8
			c0-0.8-0.7-1.4-1.7-1.4h-1.7c-0.9,0-1.7,0.6-1.7,1.4v11.9c0,0.5,0.5,1,1.2,1h3.2c2.5,0,4.5,1.9,4.5,4.3v12.4
			C547.7,460.9,545.5,463.1,542.7,463.1z"/>
	</g>
	<g>
		<g>
			<g>
				<path class="st10" d="M384.1,406.1h-9.6c-11.5,0-20.5-9.2-20.5-20.5v-60.9c0-11.3,9-20.5,20.5-20.5h9.6
					c11.3,0,20.5,9.2,20.5,20.5v60.9C404.6,396.9,395.4,406.1,384.1,406.1z M374.5,319.2c-3,0-5.5,2.4-5.5,5.5v60.9
					c0,3,2.4,5.5,5.5,5.5h9.6c3,0,5.5-2.4,5.5-5.5v-60.9c0-3-2.4-5.5-5.5-5.5H374.5z"/>
			</g>
		</g>
		
			<rect x="279.8" y="390.6" transform="matrix(-1.836970e-16 1 -1 -1.836970e-16 701.8277 127.2882)" class="st10" width="15" height="47.9"/>
		<path class="st10" d="M345.1,301.1v164.2c0,13.5-11.1,24.5-24.5,24.5c-13.5,0-24.5-10.9-24.5-24.5V407h15v58.3
			c0,5.1,4.1,9.2,9.4,9.2c5.1,0,9.2-4.1,9.2-9.2v-62.4h-12.6c-9,0-15.8-4.9-19-14.1c-2.3-6-2.4-12.8-2.4-17.3v-70.3H311l-0.2,70.3
			c0,1.9,0,7.9,1.5,12.2c1.5,4.1,3.4,4.1,4.9,4.1h12.6v-86.7H345.1z"/>
		<g>
			<g>
				<path class="st10" d="M524.9,332.7v31.4h-15v-31.4c0-2.6-1.1-5.1-3.2-6.8c-1.9-1.7-4.5-2.6-7-2.6c-5.6,0-9.8,4.1-9.8,9.4h-0.2
					v76h-15V308.1h15v2.1c3-1.3,6.4-1.9,10-1.9c6.2,0,12,2.1,16.7,6.2C521.9,319,524.9,325.8,524.9,332.7z"/>
			</g>
		</g>
		<g>
			<g>
				<path class="st10" d="M444.4,402.9h-9.6c-11.3,0-20.5-9-20.5-20.5v-81.4h15v81.4c0,3,2.4,5.5,5.5,5.5h9.6c3,0,5.5-2.4,5.5-5.5
					v-81.4h15v81.4C464.9,393.8,455.7,402.9,444.4,402.9z"/>
			</g>
		</g>
	</g>
</g>
</svg>
