<?xml version="1.0" standalone="no"?>
<!DOCTYPE svg PUBLIC "-//W3C//DTD SVG 1.1//EN" "http://www.w3.org/Graphics/SVG/1.1/DTD/svg11.dtd" >
<svg>
<metadata>
Created by FontForge 20110222 at Tue Apr 22 23:37:59 2014
 By Orthosie Webhosting
Copyright 1989-2001 Bitstream Inc. Localization: copyright 2001 Kuba Tatarkiewicz.
</metadata>
<defs>
<font id="Geometric706BlkEUNormal" horiz-adv-x="500" >
  <font-face 
    font-family="Geometric706BlkEUNormal"
    font-weight="400"
    font-stretch="normal"
    units-per-em="1000"
    panose-1="0 0 4 0 0 0 0 0 0 0"
    ascent="800"
    descent="-200"
    x-height="537"
    cap-height="764"
    bbox="-167 -361 1359 1061"
    underline-thickness="115"
    underline-position="-48"
    unicode-range="U+0020-F6C2"
  />
<missing-glyph 
 />
    <glyph glyph-name=".notdef" 
 />
    <glyph glyph-name=".null" horiz-adv-x="0" 
 />
    <glyph glyph-name="nonmarkingreturn" 
 />
    <glyph glyph-name="space" unicode=" " horiz-adv-x="309" 
 />
    <glyph glyph-name="exclam" unicode="!" horiz-adv-x="310" 
d="M242 255h-174v509h174v-509zM253 83q0 -40 -28.5 -69t-69.5 -29t-69.5 28.5t-28.5 69.5t29 70t69 29t69 -29.5t29 -69.5z" />
    <glyph glyph-name="quotedbl" unicode="&#x22;" horiz-adv-x="348" 
d="M312 428h-109v274h109v-274zM144 428h-107v274h107v-274z" />
    <glyph glyph-name="numbersign" unicode="#" horiz-adv-x="769" 
d="M758 523l-42 -112h-131l-39 -112h135l-41 -113h-134l-69 -192h-122l68 192h-115l-69 -192h-122l68 192h-134l42 113h132l40 112h-138l42 112h136l69 193h122l-68 -193h115l69 193h122l-68 -193h132zM465 411h-120l-40 -113h120z" />
    <glyph glyph-name="dollar" unicode="$" horiz-adv-x="618" 
d="M581 236q0 -93 -56.5 -154.5t-156.5 -76.5v-110h-102v108q-98 11 -154 70t-59 155h171q1 -37 26.5 -58t66.5 -21t65 18.5t24 49.5t-31 52q-24 16 -89 40q-72 26 -75 28q-44 18 -76 41q-76 55 -76 162q0 88 56.5 149t150.5 72v107h102v-107q194 -33 197 -224h-167
q-1 40 -24 63.5t-62 23.5t-61 -19t-22 -50q0 -35 37 -55q13 -8 106 -42q67 -25 85 -33q44 -22 74 -54q50 -54 50 -135z" />
    <glyph glyph-name="percent" unicode="%" horiz-adv-x="984" 
d="M943 157q0 -80 -47.5 -125t-132.5 -45t-132 45t-47 125v93q0 80 47 125t132 45t132.5 -45t47.5 -125v-93zM731 777l-369 -790h-109l369 790h109zM400 514q0 -80 -47 -125t-132 -45t-132 45t-47 125v93q0 80 47 125t132 45t132 -45t47 -125v-93zM815 157v93q0 72 -52 72
q-51 0 -51 -72v-93q0 -72 51 -72q52 0 52 72zM272 514v93q0 71 -51 71t-51 -71v-93q0 -72 51 -72t51 72z" />
    <glyph glyph-name="ampersand" unicode="&#x26;" horiz-adv-x="773" 
d="M770 0h-214l-55 72q-96 -85 -222 -85q-107 0 -173.5 65t-66.5 163q0 152 169 230q-64 71 -64 152q0 79 57.5 129.5t155.5 50.5q86 0 141 -48t55 -120q0 -111 -126 -189l104 -121l118 107l110 -114l-132 -116zM408 613q0 23 -15.5 37.5t-40.5 14.5q-24 0 -39.5 -14.5
t-15.5 -38.5q0 -34 44 -84q67 42 67 85zM404 191l-112 140q-76 -40 -76 -103q0 -38 23.5 -62.5t60.5 -24.5q46 0 104 50z" />
    <glyph glyph-name="quotesingle" unicode="'" horiz-adv-x="181" 
d="M144 428h-107v274h107v-274z" />
    <glyph glyph-name="parenleft" unicode="(" horiz-adv-x="426" 
d="M385 -114l-120 -92q-174 243 -174 493q0 251 174 492l120 -92q-141 -196 -141 -400q0 -207 141 -401z" />
    <glyph glyph-name="parenright" unicode=")" horiz-adv-x="426" 
d="M335 286q0 -250 -174 -492l-120 91q141 196 141 401q0 207 -141 401l120 92q174 -243 174 -493z" />
    <glyph glyph-name="asterisk" unicode="*" 
d="M468 575l-179 -19l133 -122l-98 -71l-74 165l-74 -165l-98 71l133 122l-179 19l37 116l157 -89l-38 177h124l-38 -177l157 89z" />
    <glyph glyph-name="plus" unicode="+" horiz-adv-x="833" 
d="M709 242h-234v-242h-116v242h-235v113h235v241h116v-241h234v-113z" />
    <glyph glyph-name="comma" unicode="," horiz-adv-x="309" 
d="M259 162l-80 -301l-134 27l53 308z" />
    <glyph glyph-name="hyphen" unicode="-" horiz-adv-x="315" 
d="M278 212h-241v157h241v-157z" />
    <glyph glyph-name="hyphen" unicode="&#x2010;" horiz-adv-x="315" 
d="M278 212h-241v157h241v-157z" />
    <glyph glyph-name="period" unicode="." horiz-adv-x="309" 
d="M253 83q0 -40 -28.5 -69t-69.5 -29t-69.5 28.5t-28.5 69.5t29 70t69 29t69 -29.5t29 -69.5z" />
    <glyph glyph-name="slash" unicode="/" horiz-adv-x="278" 
d="M301 779l-219 -872h-105l219 872h105z" />
    <glyph glyph-name="zero" unicode="0" horiz-adv-x="618" 
d="M562 240q0 -120 -66.5 -186.5t-186.5 -66.5t-186.5 66.5t-66.5 186.5v284q0 120 66.5 186.5t186.5 66.5t186.5 -66.5t66.5 -186.5v-284zM387 247v270q0 107 -78 107t-78 -107v-270q0 -107 78 -107t78 107z" />
    <glyph glyph-name="one" unicode="1" horiz-adv-x="618" 
d="M442 0h-175v532l-146 -68v165l305 148h16v-777z" />
    <glyph glyph-name="two" unicode="2" horiz-adv-x="618" 
d="M571 551q0 -85 -58 -163l-164 -221h215v-167h-522v22l309 433q43 60 43 90q0 34 -22.5 56t-59.5 22q-85 0 -85 -102v-7h-175q1 125 69.5 194t190.5 69q116 0 187.5 -63t71.5 -163z" />
    <glyph glyph-name="three" unicode="3" horiz-adv-x="618" 
d="M562 740l-204 -263q97 -8 149.5 -66t52.5 -157q0 -122 -70.5 -194.5t-186.5 -72.5q-117 0 -187 65.5t-72 175.5h178q6 -87 79 -87q37 0 59.5 28t22.5 76q0 41 -22.5 66t-60.5 25q-37 0 -66 -29l-123 92l185 207h-221v158h487v-24z" />
    <glyph glyph-name="four" unicode="4" horiz-adv-x="618" 
d="M564 159h-66v-159h-171v159h-283v147l233 458h221v-458h66v-147zM341 602l-154 -296h147v212q0 37 7 84z" />
    <glyph glyph-name="five" unicode="5" horiz-adv-x="618" 
d="M572 251q0 -117 -74 -190.5t-192 -73.5q-193 0 -251 175l154 67q30 -79 99 -79q39 0 62.5 26.5t23.5 71.5q0 43 -23.5 69t-61.5 26q-51 0 -72 -44h-151v465h434v-158h-276v-136q41 20 95 20q105 0 169 -65.5t64 -173.5z" />
    <glyph glyph-name="six" unicode="6" horiz-adv-x="618" 
d="M566 236q0 -112 -71.5 -180.5t-191.5 -68.5q-117 0 -188 69.5t-71 182.5q0 102 88 239l184 286h205l-203 -298q4 0 11 1h10q106 0 166.5 -61.5t60.5 -169.5zM389 236q0 43 -23 69t-61 26q-37 0 -60.5 -26.5t-23.5 -68.5t24 -69t60 -27q37 0 60.5 26t23.5 70z" />
    <glyph glyph-name="seven" unicode="7" horiz-adv-x="618" 
d="M589 742l-309 -742h-193l260 606h-270v158h512v-22z" />
    <glyph glyph-name="eight" unicode="8" horiz-adv-x="618" 
d="M573 231q0 -111 -70.5 -176.5t-193.5 -65.5q-122 0 -193 65.5t-71 177.5q0 123 97 172q-81 47 -81 155q0 98 67 158.5t181 60.5q112 0 180 -61.5t68 -158.5q0 -108 -81 -155q97 -49 97 -172zM397 551q0 88 -88 88q-40 0 -64.5 -24.5t-24.5 -62.5q0 -41 25.5 -66t64.5 -25
q40 0 63.5 24.5t23.5 65.5zM402 239q0 42 -26 68.5t-67 26.5t-66 -27.5t-25 -72.5t25 -71t67 -26q41 0 66.5 28t25.5 74z" />
    <glyph glyph-name="nine" unicode="9" horiz-adv-x="618" 
d="M573 525q0 -105 -87 -239l-185 -286h-204l203 298h-10q-7 -1 -11 -1q-106 0 -167 62t-61 169q0 112 72 180.5t192 68.5q117 0 187.5 -69.5t70.5 -182.5zM397 528q0 42 -24 69t-60 27q-37 0 -60.5 -26t-23.5 -70q0 -43 23 -69t61 -26q37 0 60.5 26.5t23.5 68.5z" />
    <glyph glyph-name="colon" unicode=":" horiz-adv-x="310" 
d="M253 451q0 -40 -28.5 -69t-69.5 -29t-69.5 28.5t-28.5 69.5t29 70t69 29t69 -29.5t29 -69.5zM253 83q0 -40 -28.5 -69t-69.5 -29t-69.5 28.5t-28.5 69.5t29 70t69 29t69 -29.5t29 -69.5z" />
    <glyph glyph-name="semicolon" unicode=";" horiz-adv-x="310" 
d="M255 451q0 -40 -28.5 -69t-69.5 -29t-69.5 28.5t-28.5 69.5t29 70t69 29t69 -29.5t29 -69.5zM254 162l-80 -301l-135 27l54 308z" />
    <glyph glyph-name="less" unicode="&#x3c;" horiz-adv-x="833" 
d="M704 4l-575 237v114l575 238v-124l-417 -171l417 -170v-124z" />
    <glyph glyph-name="equal" unicode="=" horiz-adv-x="833" 
d="M709 351h-585v113h585v-113zM709 133h-585v112h585v-112z" />
    <glyph glyph-name="greater" unicode="&#x3e;" horiz-adv-x="833" 
d="M704 241l-575 -237v124l417 170l-417 171v124l575 -238v-114z" />
    <glyph glyph-name="question" unicode="?" horiz-adv-x="532" 
d="M497 575q0 -106 -109 -187l-48 -34q-19 -18 -19 -53v-30h-175v52q0 65 50 113q41 36 83 73q36 35 36 69q0 56 -62 56q-64 0 -64 -72v-3h-169v12q0 96 63.5 152t174.5 56q109 0 174 -56.5t65 -147.5zM334 83q0 -41 -29 -69.5t-69 -28.5t-69.5 29t-29.5 69t29 69.5t70 29.5
t69.5 -29t28.5 -70z" />
    <glyph glyph-name="at" unicode="@" horiz-adv-x="1000" 
d="M961 373q0 -167 -125 -267q-70 -56 -161 -56q-103 0 -108 78q-53 -77 -144 -77q-162 0 -162 168q0 119 69.5 198t170.5 79q75 0 112 -60l25 45h101l-75 -298q-2 -8 -2 -16q0 -29 31 -29q66 0 117 70t51 164q0 116 -87 190t-229 74q-146 0 -246 -71q-158 -112 -158 -308
q0 -148 99 -235.5t266 -87.5q164 0 291 91l47 -66q-151 -114 -338 -114q-191 0 -314 95q-152 117 -152 314q0 167 102 292q148 182 404 182q172 0 283 -87q132 -103 132 -268zM585 340q-9 76 -78 76q-50 0 -88.5 -59t-38.5 -140q0 -85 65 -85q40 0 71.5 28.5t43.5 77.5z" />
    <glyph glyph-name="A" unicode="A" horiz-adv-x="766" 
d="M764 0h-203l-31 111h-294l-31 -111h-202l262 764h237zM486 255l-103 354l-103 -354h206z" />
    <glyph glyph-name="B" unicode="B" horiz-adv-x="655" 
d="M610 224q0 -224 -259 -224h-265v764h279q106 0 167 -55.5t61 -149.5q0 -116 -101 -165q118 -36 118 -170zM410 538q0 50 -27.5 70.5t-89.5 20.5h-30v-182h46q101 0 101 91zM421 240q0 95 -112 95h-46v-191h62q45 0 70.5 26t25.5 70z" />
    <glyph glyph-name="C" unicode="C" horiz-adv-x="773" 
d="M737 103q-113 -118 -290 -118q-171 0 -284.5 112.5t-113.5 284.5q0 173 113 285t285 112q174 0 287 -115l-124 -126q-64 70 -157 70q-92 0 -151 -63t-59 -163t59 -163t151 -63q100 0 158 75z" />
    <glyph glyph-name="D" unicode="D" horiz-adv-x="778" 
d="M729 383q0 -215 -178 -332q-77 -51 -230 -51h-235v766h235q155 0 234 -50q174 -110 174 -333zM535 383q0 108 -54 168t-150 60h-53v-456h58q92 0 145.5 61.5t53.5 166.5z" />
    <glyph glyph-name="E" unicode="E" horiz-adv-x="593" 
d="M514 0h-428v764h428v-148h-236v-156h236v-148h-236v-157h236v-155z" />
    <glyph glyph-name="F" unicode="F" horiz-adv-x="574" 
d="M514 312h-236v-312h-192v764h428v-148h-236v-156h236v-148z" />
    <glyph glyph-name="G" unicode="G" horiz-adv-x="884" 
d="M847 387q0 -128 -52 -209q-124 -193 -347 -193q-171 0 -285 112t-114 285q0 172 112.5 284.5t286.5 112.5q187 0 307 -135l-141 -123q-58 87 -166 87q-90 0 -147.5 -63t-57.5 -163t57.5 -163t147.5 -63q147 0 198 131h-198v146h396q3 -51 3 -46z" />
    <glyph glyph-name="H" unicode="H" horiz-adv-x="799" 
d="M713 0h-192v310h-244v-310h-192v764h192v-299h244v299h192v-764z" />
    <glyph glyph-name="I" unicode="I" horiz-adv-x="366" 
d="M280 0h-194v764h194v-764z" />
    <glyph glyph-name="J" unicode="J" horiz-adv-x="477" 
d="M418 285q0 -300 -282 -300h-94v165h45q77 0 108 33.5t31 113.5v312h-172v155h364v-479z" />
    <glyph glyph-name="K" unicode="K" horiz-adv-x="701" 
d="M691 0h-210l-203 363v-363h-192v764h192v-347l191 347h213l-220 -358z" />
    <glyph glyph-name="L" unicode="L" horiz-adv-x="493" 
d="M471 0h-385v764h192v-609h193v-155z" />
    <glyph glyph-name="M" unicode="M" horiz-adv-x="1019" 
d="M933 0h-176v388q0 58 15 162q-15 -45 -56 -131l-208 -433l-206 433q-18 37 -56 131q16 -111 16 -162v-388h-176v764h236l187 -419l197 419h227v-764z" />
    <glyph glyph-name="N" unicode="N" horiz-adv-x="856" 
d="M770 0h-189l-261 390q-29 44 -65 121q21 -66 21 -141v-370h-190v764h199l246 -385q39 -61 68 -128q-18 81 -18 158v355h189v-764z" />
    <glyph glyph-name="O" unicode="O" horiz-adv-x="896" 
d="M847 382q0 -171 -113 -284t-286 -113t-286 113t-113 284q0 172 112.5 284.5t286.5 112.5q172 0 285.5 -112.5t113.5 -284.5zM652 382q0 100 -57 163t-147 63t-147.5 -63t-57.5 -163t58 -163t147 -63q90 0 147 63t57 163z" />
    <glyph glyph-name="P" unicode="P" horiz-adv-x="653" 
d="M617 509q0 -260 -273 -260h-66v-249h-192v764h267q121 0 192.5 -69t71.5 -186zM423 511q0 104 -120 104h-25v-211h29q116 0 116 107z" />
    <glyph glyph-name="Q" unicode="Q" horiz-adv-x="896" 
d="M847 382q0 -139 -80 -245l61 -60l-111 -122l-77 75q-87 -45 -192 -45q-174 0 -286.5 112.5t-112.5 284.5t112.5 284.5t286.5 112.5t286.5 -112.5t112.5 -284.5zM652 382q0 100 -57.5 163t-147.5 63t-147 -63t-57 -163q0 -101 58 -163.5t152 -62.5q24 0 48 8l-29 29
l111 118l44 -42q25 53 25 113z" />
    <glyph glyph-name="R" unicode="R" horiz-adv-x="706" 
d="M676 0h-231l-167 325v-325h-192v764h280q131 0 205 -67t74 -178q0 -88 -45.5 -143t-123.5 -63zM450 511q0 104 -120 104h-52v-211h57q115 0 115 107z" />
    <glyph glyph-name="S" unicode="S" horiz-adv-x="646" 
d="M599 230q0 -111 -76.5 -178.5t-205.5 -67.5q-121 0 -192 63.5t-74 174.5h177q3 -82 96 -82q44 0 68.5 19t24.5 51t-32 54q-25 18 -93 42q-72 26 -77 28q-45 19 -79 44q-79 59 -79 169q0 102 71 167t188 65q128 0 196.5 -60.5t70.5 -174.5h-174q-2 90 -89 90
q-40 0 -63.5 -19.5t-23.5 -52.5q0 -36 39 -57q12 -7 110 -44q71 -27 88 -35q47 -23 78 -56q51 -55 51 -140z" />
    <glyph glyph-name="T" unicode="T" horiz-adv-x="556" 
d="M546 609h-172v-609h-192v609h-173v155h537v-155z" />
    <glyph glyph-name="U" unicode="U" horiz-adv-x="785" 
d="M703 274q0 -135 -82 -212t-229 -77q-146 0 -228.5 77t-82.5 212v490h193v-423q0 -97 27 -142t91 -45q65 0 92 45t27 142v423h192v-490z" />
    <glyph glyph-name="V" unicode="V" horiz-adv-x="678" 
d="M670 764l-238 -764h-185l-238 764h205l103 -407q15 -59 28 -144q11 88 26 144l106 407h193z" />
    <glyph glyph-name="W" unicode="W" horiz-adv-x="1000" 
d="M998 764l-203 -764h-188l-89 429q-6 28 -19 122q-11 -72 -21 -122l-84 -429h-189l-203 764h195l81 -411q4 -27 19 -128q5 71 16 123l87 416h200l87 -416q11 -53 16 -123l19 128l81 411h195z" />
    <glyph glyph-name="X" unicode="X" horiz-adv-x="708" 
d="M698 0h-223l-108 222q-14 28 -18 59q-6 -33 -21 -65l-104 -216h-218l231 410l-204 354h220l77 -155q21 -43 26 -73q6 31 22 65l79 163h217l-206 -354z" />
    <glyph glyph-name="Y" unicode="Y" horiz-adv-x="644" 
d="M660 764l-242 -420v-344h-193v344l-242 420h216l99 -209q15 -31 24 -58q12 35 23 58l99 209h216z" />
    <glyph glyph-name="Z" unicode="Z" horiz-adv-x="676" 
d="M632 764l-321 -609h293v-155h-581l322 615h-289v149h576z" />
    <glyph glyph-name="bracketleft" unicode="[" horiz-adv-x="403" 
d="M369 -199h-268v963h268v-111h-115v-741h115v-111z" />
    <glyph glyph-name="backslash" unicode="\" horiz-adv-x="278" 
d="M301 -93h-105l-219 872h105z" />
    <glyph glyph-name="bracketright" unicode="]" horiz-adv-x="403" 
d="M302 -199h-268v111h115v741h-115v111h268v-963z" />
    <glyph glyph-name="asciicircum" unicode="^" horiz-adv-x="1000" 
d="M797 439h-129l-168 167l-169 -167h-129l227 275h141z" />
    <glyph glyph-name="underscore" unicode="_" 
d="M500 -236h-500v117h500v-117z" />
    <glyph glyph-name="grave" unicode="`" 
d="M335 591h-75l-159 181h140z" />
    <glyph glyph-name="a" unicode="a" horiz-adv-x="683" 
d="M609 0h-173v73q-32 -82 -143 -82q-109 0 -184 80q-72 76 -72 198q0 123 67 196q75 82 184 82q108 0 153 -80v70h168v-537zM441 269q0 64 -33.5 104.5t-80.5 40.5q-48 0 -80.5 -40t-32.5 -105q0 -64 32.5 -104.5t80.5 -40.5q47 0 80.5 40.5t33.5 104.5z" />
    <glyph glyph-name="b" unicode="b" horiz-adv-x="683" 
d="M646 269q0 -124 -67 -197q-75 -82 -183 -82q-56 0 -97.5 23t-56.5 62v-75h-168v764h173v-300q32 82 143 82q108 0 182 -79t74 -198zM469 269q0 64 -32.5 104t-80.5 40q-47 0 -80 -40t-33 -104t33 -105t80 -41q48 0 80.5 40.5t32.5 105.5z" />
    <glyph glyph-name="c" unicode="c" horiz-adv-x="574" 
d="M549 79q-91 -92 -223 -92q-130 0 -209.5 78t-79.5 203q0 126 80 204t209 78q126 0 212 -79l-104 -115q-41 47 -97 47q-52 0 -87.5 -38t-35.5 -97t35 -96.5t88 -37.5q67 0 105 61z" />
    <glyph glyph-name="d" unicode="d" horiz-adv-x="683" 
d="M609 0h-173v73q-32 -82 -143 -82q-109 0 -184 80q-72 76 -72 198q0 123 67 196q75 82 184 82q108 0 153 -80v297h168v-764zM441 269q0 64 -33.5 104.5t-80.5 40.5q-48 0 -80.5 -40t-32.5 -105q0 -64 32.5 -104.5t80.5 -40.5q47 0 80.5 40.5t33.5 104.5z" />
    <glyph glyph-name="e" unicode="e" horiz-adv-x="660" 
d="M623 229h-404q4 -50 35.5 -78.5t81.5 -28.5q76 0 105 57l169 -33q-34 -75 -106 -117t-170 -42q-134 0 -215.5 77t-81.5 201q0 127 80 206t211 79q139 0 217 -81t78 -227v-13zM446 311q-14 109 -117 109q-47 0 -77.5 -29.5t-34.5 -79.5h229z" />
    <glyph glyph-name="f" unicode="f" horiz-adv-x="363" 
d="M341 397h-75v-397h-175v397h-61v140h61v60q0 174 211 174h39v-151h-12q-63 0 -63 -55v-28h75v-140z" />
    <glyph glyph-name="g" unicode="g" horiz-adv-x="683" 
d="M609 56q0 -125 -78 -193.5t-220 -68.5q-157 0 -271 87l80 107q75 -72 168 -72q70 0 111 38.5t41 104.5v9q-1 6 -1 9q-39 -86 -146 -86q-109 0 -184 80q-72 76 -72 198q0 123 67 196q75 82 184 82q108 0 153 -80v70h168v-481zM441 269q0 64 -33.5 104.5t-80.5 40.5
q-48 0 -80.5 -40t-32.5 -105q0 -64 32.5 -104.5t80.5 -40.5q47 0 80.5 40.5t33.5 104.5z" />
    <glyph glyph-name="h" unicode="h" horiz-adv-x="632" 
d="M564 0h-175v315q0 85 -67 85q-73 0 -73 -100v-300h-175v764h175v-309q56 91 156 91q74 0 116.5 -47t42.5 -133v-366z" />
    <glyph glyph-name="i" unicode="i" horiz-adv-x="324" 
d="M256 676q0 -40 -28 -67.5t-67 -27.5q-38 0 -66.5 28.5t-28.5 66.5q0 39 27.5 67t67.5 28t67.5 -27.5t27.5 -67.5zM249 0h-175v537h175v-537z" />
    <glyph glyph-name="j" unicode="j" horiz-adv-x="338" 
d="M275 676q0 -40 -28 -67.5t-67 -27.5q-38 0 -66.5 28.5t-28.5 66.5q0 39 27.5 67t67.5 28t67.5 -27.5t27.5 -67.5zM267 2q0 -208 -206 -208q-16 0 -25 1v151h4q30 0 41.5 12.5t11.5 43.5v535h174v-535z" />
    <glyph glyph-name="k" unicode="k" horiz-adv-x="632" 
d="M602 0h-210l-143 250v-250h-175v764h175v-451l131 224h201l-180 -248z" />
    <glyph glyph-name="l" unicode="l" horiz-adv-x="324" 
d="M249 0h-175v764h175v-764z" />
    <glyph glyph-name="m" unicode="m" horiz-adv-x="942" 
d="M875 0h-175v315q0 85 -68 85q-73 0 -73 -100v-300h-170v315q0 85 -67 85q-73 0 -73 -100v-300h-175v537h167v-82q63 91 158 91q93 0 144 -80q60 80 168 80q78 0 121 -47t43 -133v-366z" />
    <glyph glyph-name="n" unicode="n" horiz-adv-x="632" 
d="M564 0h-175v315q0 85 -67 85q-73 0 -73 -100v-300h-175v537h167v-82q62 91 164 91q74 0 116.5 -47t42.5 -133v-366z" />
    <glyph glyph-name="o" unicode="o" horiz-adv-x="637" 
d="M599 268q0 -125 -78 -203t-203 -78q-126 0 -203.5 78t-77.5 203q0 126 77.5 204t203.5 78q125 0 203 -78.5t78 -203.5zM422 268q0 62 -28.5 98.5t-75.5 36.5q-46 0 -75 -37t-29 -98t29 -97.5t75 -36.5q47 0 75.5 36.5t28.5 97.5z" />
    <glyph glyph-name="p" unicode="p" horiz-adv-x="683" 
d="M646 269q0 -124 -67 -197q-75 -82 -183 -82q-56 0 -97.5 23t-56.5 62v-274h-168v736h173v-73q32 82 143 82q108 0 182 -79t74 -198zM469 269q0 64 -32.5 104t-80.5 40q-47 0 -80 -40t-33 -104t33 -105t80 -41q48 0 80.5 40.5t32.5 105.5z" />
    <glyph glyph-name="q" unicode="q" horiz-adv-x="683" 
d="M609 -199h-173v272q-32 -82 -143 -82q-109 0 -184 80q-72 76 -72 198q0 123 67 196q75 82 184 82q106 0 153 -80v70h168v-736zM441 269q0 64 -33.5 104.5t-80.5 40.5q-48 0 -80.5 -40t-32.5 -105q0 -64 32.5 -104.5t80.5 -40.5q47 0 80.5 40.5t33.5 104.5z" />
    <glyph glyph-name="r" unicode="r" horiz-adv-x="435" 
d="M409 361q-35 7 -52 7q-61 0 -84.5 -36.5t-23.5 -120.5v-211h-175v537h170v-98q44 108 145 108q13 0 20 -1v-185z" />
    <glyph glyph-name="s" unicode="s" horiz-adv-x="512" 
d="M460 165q0 -83 -53.5 -130.5t-150.5 -47.5q-197 0 -205 174h149v-5q0 -53 55 -53q51 0 51 41q0 22 -21 35q-11 8 -60 27q-33 12 -104 49q-59 39 -59 120t51 128t140 47q90 0 142.5 -44.5t54.5 -120.5h-142q-3 52 -50 52q-52 0 -52 -39q0 -24 28 -38q41 -16 82 -31
q77 -30 109 -64q35 -38 35 -100z" />
    <glyph glyph-name="t" unicode="t" horiz-adv-x="394" 
d="M336 0h-72q-96 0 -131 22q-39 24 -39 94v281h-59v140h59v137h175v-137h67v-140h-67v-213q0 -36 33 -36h34v-148z" />
    <glyph glyph-name="u" unicode="u" horiz-adv-x="625" 
d="M556 198q0 -100 -64 -155.5t-180 -55.5t-179.5 55.5t-63.5 155.5v339h175v-321q0 -86 68 -86q69 0 69 86v321h175v-339z" />
    <glyph glyph-name="v" unicode="v" horiz-adv-x="537" 
d="M552 537l-188 -537h-191l-188 537h180l78 -281q18 -66 26 -138q8 78 25 138l78 281h180z" />
    <glyph glyph-name="w" unicode="w" horiz-adv-x="889" 
d="M894 537l-177 -537h-186l-65 258q-9 36 -24 120q-5 -50 -23 -120l-66 -258h-185l-177 537h187l68 -279q13 -52 20 -112q8 67 19 112l68 279h178l67 -279q16 -67 21 -112q5 43 21 112l66 279h188z" />
    <glyph glyph-name="x" unicode="x" horiz-adv-x="565" 
d="M560 0h-194l-59 103q-10 18 -21 50q-9 -30 -20 -50l-54 -103h-200l173 275l-164 262h191l52 -96q9 -16 20 -50q9 28 21 50l51 96h198l-168 -269z" />
    <glyph glyph-name="y" unicode="y" horiz-adv-x="579" 
d="M568 537l-252 -736h-183l64 189l-192 547h191l68 -243q19 -67 26 -144q14 106 25 144l68 243h185z" />
    <glyph glyph-name="z" unicode="z" horiz-adv-x="544" 
d="M513 537l-225 -397h201v-140h-469l222 397h-195v140h466z" />
    <glyph glyph-name="braceleft" unicode="{" 
d="M436 -202q-7 0 -20 -1h-20q-101 0 -146 24q-33 17 -44 52q-8 26 -8 85v125q0 65 -24 91.5t-82 26.5h-9q-6 -1 -9 -1v118h9q6 -1 9 -1q58 0 82 27.5t24 91.5v124q0 59 8 86q11 35 44 52q45 24 147 24h19q13 -1 20 -1v-118q-4 0 -10 1h-10q-50 0 -65.5 -18.5t-15.5 -70.5
v-117q0 -66 -20 -95q-22 -32 -83 -44q61 -12 82 -42t21 -96v-118q0 -52 15.5 -70t64.5 -18h11q7 1 10 1v-118z" />
    <glyph glyph-name="bar" unicode="|" 
d="M309 -236h-117v1000h117v-1000z" />
    <glyph glyph-name="braceright" unicode="}" 
d="M427 200q-3 0 -9 1h-9q-58 0 -82 -27t-24 -91v-125q0 -64 -10 -90q-15 -41 -64 -58q-41 -13 -120 -13h-22q-14 1 -22 1v118q4 0 11 -1h10q50 0 65 18t15 70v118q0 65 21 95.5t82 42.5q-61 12 -83 44q-20 29 -20 95v117q0 52 -15 70.5t-63 18.5h-11q-8 -1 -12 -1v118
q7 0 20 1h19q101 0 147 -24q33 -17 44 -52q8 -27 8 -86v-124q0 -65 24 -92t82 -27q3 0 9 1h9v-118z" />
    <glyph glyph-name="asciitilde" unicode="~" horiz-adv-x="833" 
d="M747 276q-97 -67 -184 -67q-44 0 -84 14q-143 50 -205 50q-79 0 -187 -77v124q108 70 189 70q59 0 144 -28l72 -24q41 -12 74 -12q79 0 181 74v-124z" />
    <glyph glyph-name="c128" horiz-adv-x="618" 
d="M600 102q-81 -115 -207 -115q-137 0 -215 108q-56 77 -67 192h-95l23 66h68v19q-1 13 -1 18q0 7 2 37h-91l22 66h74q13 104 65 176q78 108 215 108q126 0 207 -115l-89 -126q-27 44 -45 61q-29 27 -68 27q-87 0 -107 -131h218l-22 -66h-201q-2 -30 -2 -37q0 -5 1 -18v-19
h176l-23 -66h-150q13 -147 110 -147q40 0 69 27q16 16 44 61z" />
    <glyph glyph-name="nonbreakingspace" unicode="&#xa0;" horiz-adv-x="309" 
 />
    <glyph glyph-name="exclamdown" unicode="&#xa1;" horiz-adv-x="310" 
d="M253 681q0 -40 -28.5 -69.5t-69.5 -29.5t-69.5 29t-28.5 70t29 69.5t69 28.5t69 -29t29 -69zM242 0h-174v509h174v-509z" />
    <glyph glyph-name="cent" unicode="&#xa2;" horiz-adv-x="618" 
d="M569 192q-77 -77 -179 -89v-116h-107v120q-104 18 -165 92.5t-61 182.5t60 181t166 94v120h107v-116q96 -12 168 -77l-104 -115q-41 47 -97 47q-52 0 -87 -38t-35 -97t35 -96.5t87 -37.5q67 0 105 61z" />
    <glyph glyph-name="sterling" unicode="&#xa3;" horiz-adv-x="618" 
d="M620 41q-82 -55 -166 -55q-33 0 -103 16t-107 16q-60 0 -129 -33l-71 131q132 62 132 157q0 5 -4 35h-139v106h87q-48 69 -48 137q0 100 72 163t188 63q122 0 190.5 -69t69.5 -194h-166v9q0 114 -96 114q-40 0 -65 -24.5t-25 -62.5q0 -26 20 -62.5t40 -73.5h209v-106
h-176q-2 -120 -82 -172q49 17 90 17q22 0 58.5 -6.5t50.5 -6.5q54 0 119 42z" />
    <glyph glyph-name="currency" unicode="&#xa4;" horiz-adv-x="618" 
d="M600 102q-81 -115 -207 -115q-137 0 -215 108q-56 77 -67 192h-95l23 66h68v19q-1 13 -1 18q0 7 2 37h-91l22 66h74q13 104 65 176q78 108 215 108q126 0 207 -115l-89 -126q-27 44 -45 61q-29 27 -68 27q-87 0 -107 -131h218l-22 -66h-201q-2 -30 -2 -37q0 -5 1 -18v-19
h176l-23 -66h-150q13 -147 110 -147q40 0 69 27q16 16 44 61z" />
    <glyph glyph-name="yen" unicode="&#xa5;" horiz-adv-x="618" 
d="M640 764l-117 -202h108v-83h-156l-52 -90h208v-83h-233v-306h-179v306h-233v83h207l-53 90h-154v83h106l-115 202h189l143 -298l143 298h188z" />
    <glyph glyph-name="brokenbar" unicode="&#xa6;" 
d="M309 329h-117v370h117v-370zM309 -171h-117v370h117v-370z" />
    <glyph glyph-name="section" unicode="&#xa7;" 
d="M462 312q0 -101 -103 -126q39 -52 39 -103q0 -68 -41.5 -108.5t-115.5 -40.5q-100 0 -181 102l92 73q52 -64 81 -64q41 0 41 38q0 29 -52 82l-97 98q-47 47 -65 78q-24 40 -24 86q0 98 101 123q-35 55 -35 99q0 58 42 94t113 36q97 0 167 -94l-90 -67q-43 54 -75 54
q-33 0 -33 -33q0 -22 69 -92l74 -75q50 -50 67 -78q26 -39 26 -82zM339 304q0 26 -57 86q-71 74 -96 74q-33 0 -33 -33q0 -25 59 -87q68 -71 91 -71q15 0 25.5 9.5t10.5 21.5z" />
    <glyph glyph-name="dieresis" unicode="&#xa8;" 
d="M415 682q0 -31 -20 -51t-50 -20q-29 0 -49.5 20.5t-20.5 50.5q0 28 21 48.5t49 20.5q29 0 49.5 -20t20.5 -49zM224 682q0 -31 -19.5 -51t-49.5 -20q-29 0 -50 20.5t-21 50.5q0 28 21 48.5t50 20.5t49 -20t20 -49z" />
    <glyph glyph-name="copyright" unicode="&#xa9;" horiz-adv-x="833" 
d="M781 360q0 -153 -104 -256q-111 -109 -261 -109q-149 0 -256.5 107.5t-107.5 257.5q0 149 108 259q104 106 256 106q153 0 259 -106t106 -259zM715 360q0 125 -87 212t-211 87q-125 0 -210 -87q-89 -91 -89 -212t88.5 -209.5t210.5 -88.5t213 89q85 84 85 209zM600 298
q-3 -70 -52.5 -112.5t-128.5 -42.5q-93 0 -147 57.5t-54 156.5q0 101 54.5 160.5t145.5 59.5q77 0 125.5 -39t52.5 -103h-104q-6 69 -76 69q-40 0 -63 -37t-23 -106q0 -139 91 -139q68 0 74 76h105z" />
    <glyph glyph-name="ordfeminine" unicode="&#xaa;" horiz-adv-x="512" 
d="M457 388h-130v51q-24 -57 -107 -57q-82 0 -137 55t-55 139q0 86 50 137q56 58 138 58q81 0 115 -56v49h126v-376zM331 576q0 45 -25.5 73.5t-60.5 28.5t-59.5 -28.5t-24.5 -73.5t24.5 -73t59.5 -28q36 0 61 28t25 73z" />
    <glyph glyph-name="guillemotleft" unicode="&#xab;" horiz-adv-x="630" 
d="M575 74h-145l-117 195l117 194h145l-117 -194zM320 74h-145l-117 195l117 194h145l-116 -194z" />
    <glyph glyph-name="logicalnot" unicode="&#xac;" horiz-adv-x="833" 
d="M709 178h-112v134h-473v111h585v-245z" />
    <glyph glyph-name="sfthyphen" unicode="&#xad;" horiz-adv-x="833" 
d="M709 241h-585v115h585v-115z" />
    <glyph glyph-name="registered" unicode="&#xae;" horiz-adv-x="833" 
d="M781 360q0 -156 -108 -259q-111 -106 -257 -106q-151 0 -259 111q-105 108 -105 254q0 153 111 262q104 103 253 103q155 0 263 -110q102 -104 102 -255zM715 360q0 124 -84 209q-88 90 -214 90q-123 0 -208 -84q-90 -89 -90 -215q0 -120 85 -207q89 -91 212 -91
q122 0 210.5 85.5t88.5 212.5zM600 168h-121l-75 159h-32v-159h-110v400h161q173 0 173 -116q0 -83 -85 -108zM483 444q0 55 -78 55h-33v-107h39q72 0 72 52z" />
    <glyph glyph-name="macron" unicode="&#xaf;" 
d="M441 628h-380v103h380v-103z" />
    <glyph glyph-name="macron" unicode="&#x2c9;" 
d="M441 628h-380v103h380v-103z" />
    <glyph glyph-name="degree" unicode="&#xb0;" horiz-adv-x="329" 
d="M317 564q0 -62 -44.5 -107t-108.5 -45q-63 0 -107 44t-44 108t44.5 108t107.5 44t107.5 -44.5t44.5 -107.5zM245 565q0 33 -23 56.5t-57 23.5q-33 0 -57 -23.5t-24 -56.5q0 -34 23.5 -57.5t57.5 -23.5q33 0 56.5 24t23.5 57z" />
    <glyph glyph-name="plusminus" unicode="&#xb1;" horiz-adv-x="833" 
d="M709 337h-234v-156h-116v156h-235v113h235v156h116v-156h234v-113zM709 -9h-585v113h585v-113z" />
    <glyph glyph-name="twosuperior" unicode="&#xb2;" horiz-adv-x="408" 
d="M377 637q0 -52 -38 -98l-109 -133h142v-100h-344v13l204 260q28 36 28 54q0 47 -54 47q-56 0 -56 -61v-5h-116q1 75 46 116.5t126 41.5q77 0 124 -37.5t47 -97.5z" />
    <glyph glyph-name="threesuperior" unicode="&#xb3;" horiz-adv-x="408" 
d="M371 750l-135 -158q134 -9 134 -134q0 -73 -47 -116.5t-123 -43.5q-77 0 -123.5 39.5t-47.5 105.5h118q3 -52 52 -52q54 0 54 62q0 55 -55 55q-23 0 -44 -18l-81 55l122 125h-145v94h321v-14z" />
    <glyph glyph-name="acute" unicode="&#xb4;" horiz-adv-x="637" 
d="M488 761l-149 -170h-105l94 170h160z" />
    <glyph glyph-name="mu" unicode="&#xb5;" horiz-adv-x="642" 
d="M615 532l-85 -532h-157l9 61q-37 -69 -102 -69q-60 0 -90 59l-40 -260h-172l116 741h175l-39 -258q-6 -40 -6 -70q0 -83 70 -83q82 0 104 141l43 270h174z" />
    <glyph glyph-name="mu" unicode="&#x3bc;" horiz-adv-x="642" 
d="M615 532l-85 -532h-157l9 61q-37 -69 -102 -69q-60 0 -90 59l-40 -260h-172l116 741h175l-39 -258q-6 -40 -6 -70q0 -83 70 -83q82 0 104 141l43 270h174z" />
    <glyph glyph-name="paragraph" unicode="&#xb6;" 
d="M487 662h-52v-662h-85v662h-74v-662h-85v383q-81 3 -129 49.5t-48 119.5q0 76 51.5 123t138.5 47h283v-60z" />
    <glyph glyph-name="periodcentered" unicode="&#xb7;" horiz-adv-x="309" 
d="M253 382q0 -40 -28.5 -69t-69.5 -29t-69.5 28.5t-28.5 69.5t29 69.5t69 28.5t69 -29t29 -69z" />
    <glyph glyph-name="periodcentered" unicode="&#x2219;" horiz-adv-x="309" 
d="M253 382q0 -40 -28.5 -69t-69.5 -29t-69.5 28.5t-28.5 69.5t29 69.5t69 28.5t69 -29t29 -69z" />
    <glyph glyph-name="cedilla" unicode="&#xb8;" horiz-adv-x="574" 
d="M463 -135q0 -102 -124 -102q-56 0 -142 23v67q80 -22 132 -22q42 0 42 35q0 31 -58 31q-17 0 -27 -1v104h56v-41h9q112 0 112 -94z" />
    <glyph glyph-name="onesuperior" unicode="&#xb9;" horiz-adv-x="408" 
d="M291 306h-115v319l-97 -41v99l202 89h10v-466z" />
    <glyph glyph-name="ordmasculine" unicode="&#xba;" horiz-adv-x="478" 
d="M449 576q0 -88 -58 -142.5t-152 -54.5t-152.5 54.5t-58.5 142.5t58.5 142.5t152.5 54.5t152 -55t58 -142zM317 576q0 43 -21.5 68.5t-56.5 25.5q-34 0 -56 -26t-22 -68q0 -43 21.5 -68.5t56.5 -25.5t56.5 25.5t21.5 68.5z" />
    <glyph glyph-name="guillemotright" unicode="&#xbb;" horiz-adv-x="630" 
d="M571 269l-116 -195h-146l117 195l-117 194h146zM317 269l-117 -195h-145l116 195l-116 194h145z" />
    <glyph glyph-name="onequarter" unicode="&#xbc;" horiz-adv-x="946" 
d="M911 89h-41v-89h-108v89h-178v82l147 257h139v-257h41v-82zM722 777l-389 -790h-111l389 790h111zM278 336h-110v298l-92 -38v92l192 83h10v-435zM771 337l-97 -166h92v119q0 22 5 47z" />
    <glyph glyph-name="onehalf" unicode="&#xbd;" horiz-adv-x="946" 
d="M916 309q0 -48 -37 -92l-103 -123h135v-94h-329v12l195 243q27 34 27 50q0 44 -51 44q-54 0 -54 -57v-4h-110q0 70 43.5 108.5t120.5 38.5q73 0 118 -35.5t45 -90.5zM722 777l-389 -790h-111l389 790h111zM278 336h-110v298l-92 -38v92l192 83h10v-435z" />
    <glyph glyph-name="threequarters" unicode="&#xbe;" horiz-adv-x="946" 
d="M911 89h-41v-89h-108v89h-178v82l147 257h139v-257h41v-82zM722 777l-389 -790h-111l389 790h111zM354 750l-128 -147q127 -9 127 -125q0 -68 -44.5 -108.5t-117.5 -40.5q-74 0 -118 37t-45 98h112q3 -49 50 -49q51 0 51 58q0 51 -52 51q-23 0 -42 -16l-77 51l116 116
h-139v89h307v-14zM771 337l-97 -166h92v119q0 22 5 47z" />
    <glyph glyph-name="questiondown" unicode="&#xbf;" horiz-adv-x="532" 
d="M396 681q0 -40 -28.5 -69.5t-69.5 -29.5t-70 29t-29 70t29.5 69.5t69.5 28.5t69 -29t29 -69zM513 193q0 -96 -63.5 -152t-174.5 -56q-110 0 -174.5 56.5t-64.5 146.5q0 107 110 188q24 17 47 33q19 18 19 53v31h175v-52q0 -66 -49 -113q-41 -36 -83 -73q-36 -35 -36 -69
q0 -56 61 -56q64 0 64 72v3h169v-12z" />
    <glyph glyph-name="Agrave" unicode="&#xc0;" horiz-adv-x="766" 
d="M447 833h-105l-149 170h160zM764 0h-203l-31 111h-294l-31 -111h-202l262 764h237zM486 255l-103 354l-103 -354h206z" />
    <glyph glyph-name="Aacute" unicode="&#xc1;" horiz-adv-x="766" 
d="M577 1003l-149 -170h-105l94 170h160zM764 0h-203l-31 111h-294l-31 -111h-202l262 764h237zM486 255l-103 354l-103 -354h206z" />
    <glyph glyph-name="Acircumflex" unicode="&#xc2;" horiz-adv-x="766" 
d="M539 822h-75l-81 97l-82 -97h-75l94 181h125zM764 0h-203l-31 111h-294l-31 -111h-202l262 764h237zM486 255l-103 354l-103 -354h206z" />
    <glyph glyph-name="Atilde" unicode="&#xc3;" horiz-adv-x="766" 
d="M545 992q-28 -124 -107 -124q-16 0 -37 6l-45 13q-21 6 -33 6q-31 0 -44 -38h-58q27 120 105 120q21 0 44 -7l46 -14q13 -4 28 -4q33 0 43 42h58zM764 0h-203l-31 111h-294l-31 -111h-202l262 764h237zM486 255l-103 354l-103 -354h206z" />
    <glyph glyph-name="Adieresis" unicode="&#xc4;" horiz-adv-x="766" 
d="M548 924q0 -31 -20 -51t-50 -20q-29 0 -49.5 20.5t-20.5 50.5q0 28 21 48.5t49 20.5q29 0 49.5 -20t20.5 -49zM357 924q0 -31 -19.5 -51t-49.5 -20q-29 0 -50 20.5t-21 50.5q0 28 21 48.5t50 20.5t49 -20t20 -49zM764 0h-203l-31 111h-294l-31 -111h-202l262 764h237z
M486 255l-103 354l-103 -354h206z" />
    <glyph glyph-name="Aring" unicode="&#xc5;" horiz-adv-x="766" 
d="M516 929q0 -55 -38.5 -94t-94.5 -39t-94.5 38.5t-38.5 94.5q0 55 38.5 93.5t94.5 38.5t94.5 -38.5t38.5 -93.5zM764 0h-203l-31 111h-294l-31 -111h-202l262 764h237zM439 929q0 23 -16.5 39.5t-39.5 16.5t-39.5 -16.5t-16.5 -39.5t16 -39.5t40 -16.5q23 0 39.5 16.5
t16.5 39.5zM486 255l-103 354l-103 -354h206z" />
    <glyph glyph-name="AE" unicode="&#xc6;" horiz-adv-x="975" 
d="M896 0h-410v111h-250l-49 -111h-184l338 764h555v-148h-237v-156h237v-148h-237v-157h237v-155zM486 255v416l-186 -416h186z" />
    <glyph glyph-name="Ccedilla" unicode="&#xc7;" horiz-adv-x="773" 
d="M737 103q-113 -118 -290 -118q-171 0 -284.5 112.5t-113.5 284.5q0 173 113 285t285 112q174 0 287 -115l-124 -126q-64 70 -157 70q-92 0 -151 -63t-59 -163t59 -163t151 -63q100 0 158 75zM588 -135q0 -102 -124 -102q-56 0 -142 23v67q80 -22 132 -22q42 0 42 35
q0 31 -58 31q-17 0 -27 -1v104h56v-41h9q112 0 112 -94z" />
    <glyph glyph-name="Egrave" unicode="&#xc8;" horiz-adv-x="593" 
d="M375 833h-105l-149 170h160zM514 0h-428v764h428v-148h-236v-156h236v-148h-236v-157h236v-155z" />
    <glyph glyph-name="Eacute" unicode="&#xc9;" horiz-adv-x="593" 
d="M471 1003l-149 -170h-105l94 170h160zM514 0h-428v764h428v-148h-236v-156h236v-148h-236v-157h236v-155z" />
    <glyph glyph-name="Ecircumflex" unicode="&#xca;" horiz-adv-x="593" 
d="M463 822h-75l-81 97l-82 -97h-75l94 181h125zM514 0h-428v764h428v-148h-236v-156h236v-148h-236v-157h236v-155z" />
    <glyph glyph-name="Edieresis" unicode="&#xcb;" horiz-adv-x="593" 
d="M472 924q0 -31 -20 -51t-50 -20q-29 0 -49.5 20.5t-20.5 50.5q0 28 21 48.5t49 20.5q29 0 49.5 -20t20.5 -49zM281 924q0 -31 -19.5 -51t-49.5 -20q-29 0 -50 20.5t-21 50.5q0 28 21 48.5t50 20.5t49 -20t20 -49zM514 0h-428v764h428v-148h-236v-156h236v-148h-236v-157
h236v-155z" />
    <glyph glyph-name="Igrave" unicode="&#xcc;" horiz-adv-x="366" 
d="M267 833h-105l-149 170h160zM280 0h-194v764h194v-764z" />
    <glyph glyph-name="Iacute" unicode="&#xcd;" horiz-adv-x="366" 
d="M370 1003l-149 -170h-105l94 170h160zM280 0h-194v764h194v-764z" />
    <glyph glyph-name="Icircumflex" unicode="&#xce;" horiz-adv-x="366" 
d="M339 822h-75l-81 97l-82 -97h-75l94 181h125zM280 0h-194v764h194v-764z" />
    <glyph glyph-name="Idieresis" unicode="&#xcf;" horiz-adv-x="366" 
d="M348 924q0 -31 -20 -51t-50 -20q-29 0 -49.5 20.5t-20.5 50.5q0 28 21 48.5t49 20.5q29 0 49.5 -20t20.5 -49zM157 924q0 -31 -19.5 -51t-49.5 -20q-29 0 -50 20.5t-21 50.5q0 28 21 48.5t50 20.5t49 -20t20 -49zM280 0h-194v764h194v-764z" />
    <glyph glyph-name="Eth" unicode="&#xd0;" horiz-adv-x="778" 
d="M729 383q0 -215 -178 -332q-77 -51 -230 -51h-235v332h-86v102h86v332h235q155 0 234 -50q174 -110 174 -333zM535 383q0 108 -54 168t-150 60h-53v-177h123v-102h-123v-177h58q92 0 145.5 61.5t53.5 166.5z" />
    <glyph glyph-name="Ntilde" unicode="&#xd1;" horiz-adv-x="856" 
d="M590 992q-28 -124 -107 -124q-16 0 -37 6l-45 13q-21 6 -33 6q-31 0 -44 -38h-58q27 120 105 120q21 0 44 -7l46 -14q13 -4 28 -4q33 0 43 42h58zM770 0h-189l-261 390q-29 44 -65 121q21 -66 21 -141v-370h-190v764h199l246 -385q39 -61 68 -128q-18 81 -18 158v355h189
v-764z" />
    <glyph glyph-name="Ograve" unicode="&#xd2;" horiz-adv-x="896" 
d="M537 833h-105l-149 170h160zM847 382q0 -171 -113 -284t-286 -113t-286 113t-113 284q0 172 112.5 284.5t286.5 112.5q172 0 285.5 -112.5t113.5 -284.5zM652 382q0 100 -57 163t-147 63t-147.5 -63t-57.5 -163t58 -163t147 -63q90 0 147 63t57 163z" />
    <glyph glyph-name="Oacute" unicode="&#xd3;" horiz-adv-x="896" 
d="M629 1003l-149 -170h-105l94 170h160zM847 382q0 -171 -113 -284t-286 -113t-286 113t-113 284q0 172 112.5 284.5t286.5 112.5q172 0 285.5 -112.5t113.5 -284.5zM652 382q0 100 -57 163t-147 63t-147.5 -63t-57.5 -163t58 -163t147 -63q90 0 147 63t57 163z" />
    <glyph glyph-name="Ocircumflex" unicode="&#xd4;" horiz-adv-x="896" 
d="M604 822h-75l-81 97l-82 -97h-75l94 181h125zM847 382q0 -171 -113 -284t-286 -113t-286 113t-113 284q0 172 112.5 284.5t286.5 112.5q172 0 285.5 -112.5t113.5 -284.5zM652 382q0 100 -57 163t-147 63t-147.5 -63t-57.5 -163t58 -163t147 -63q90 0 147 63t57 163z" />
    <glyph glyph-name="Otilde" unicode="&#xd5;" horiz-adv-x="896" 
d="M610 992q-28 -124 -107 -124q-16 0 -37 6l-45 13q-21 6 -33 6q-31 0 -44 -38h-58q27 120 105 120q21 0 44 -7l46 -14q13 -4 28 -4q33 0 43 42h58zM847 382q0 -171 -113 -284t-286 -113t-286 113t-113 284q0 172 112.5 284.5t286.5 112.5q172 0 285.5 -112.5t113.5 -284.5
zM652 382q0 100 -57 163t-147 63t-147.5 -63t-57.5 -163t58 -163t147 -63q90 0 147 63t57 163z" />
    <glyph glyph-name="Odieresis" unicode="&#xd6;" horiz-adv-x="896" 
d="M613 924q0 -31 -20 -51t-50 -20q-29 0 -49.5 20.5t-20.5 50.5q0 28 21 48.5t49 20.5q29 0 49.5 -20t20.5 -49zM422 924q0 -31 -19.5 -51t-49.5 -20q-29 0 -50 20.5t-21 50.5q0 28 21 48.5t50 20.5t49 -20t20 -49zM847 382q0 -171 -113 -284t-286 -113t-286 113t-113 284
q0 172 112.5 284.5t286.5 112.5q172 0 285.5 -112.5t113.5 -284.5zM652 382q0 100 -57 163t-147 63t-147.5 -63t-57.5 -163t58 -163t147 -63q90 0 147 63t57 163z" />
    <glyph glyph-name="multiply" unicode="&#xd7;" horiz-adv-x="833" 
d="M719 83l-79 -79l-215 215l-215 -215l-79 79l215 215l-215 216l79 79l215 -215l215 215l79 -79l-215 -216z" />
    <glyph glyph-name="Oslash" unicode="&#xd8;" horiz-adv-x="896" 
d="M847 382q0 -113 -52.5 -204.5t-142.5 -142t-204 -50.5q-94 0 -177 43l-61 -90l-86 58l59 88q-134 116 -134 298q0 172 112.5 284.5t286.5 112.5q93 0 176 -43l61 90l86 -58l-59 -88q135 -117 135 -298zM652 382q0 85 -41 148l-245 -361q30 -13 70 -13q99 0 157.5 61.5
t58.5 164.5zM530 597q-37 11 -77 11q-95 0 -152.5 -62t-57.5 -164q0 -85 41 -148z" />
    <glyph glyph-name="Ugrave" unicode="&#xd9;" horiz-adv-x="785" 
d="M470 833h-105l-149 170h160zM703 274q0 -135 -82 -212t-229 -77q-146 0 -228.5 77t-82.5 212v490h193v-423q0 -97 27 -142t91 -45q65 0 92 45t27 142v423h192v-490z" />
    <glyph glyph-name="Uacute" unicode="&#xda;" horiz-adv-x="785" 
d="M565 1003l-149 -170h-105l94 170h160zM703 274q0 -135 -82 -212t-229 -77q-146 0 -228.5 77t-82.5 212v490h193v-423q0 -97 27 -142t91 -45q65 0 92 45t27 142v423h192v-490z" />
    <glyph glyph-name="Ucircumflex" unicode="&#xdb;" horiz-adv-x="785" 
d="M549 822h-75l-81 97l-82 -97h-75l94 181h125zM703 274q0 -135 -82 -212t-229 -77q-146 0 -228.5 77t-82.5 212v490h193v-423q0 -97 27 -142t91 -45q65 0 92 45t27 142v423h192v-490z" />
    <glyph glyph-name="Udieresis" unicode="&#xdc;" horiz-adv-x="785" 
d="M558 924q0 -31 -20 -51t-50 -20q-29 0 -49.5 20.5t-20.5 50.5q0 28 21 48.5t49 20.5q29 0 49.5 -20t20.5 -49zM367 924q0 -31 -19.5 -51t-49.5 -20q-29 0 -50 20.5t-21 50.5q0 28 21 48.5t50 20.5t49 -20t20 -49zM703 274q0 -135 -82 -212t-229 -77q-146 0 -228.5 77
t-82.5 212v490h193v-423q0 -97 27 -142t91 -45q65 0 92 45t27 142v423h192v-490z" />
    <glyph glyph-name="Yacute" unicode="&#xdd;" horiz-adv-x="644" 
d="M471 1014l-159 -181h-75l94 181h140zM660 764l-242 -420v-344h-193v344l-242 420h216l99 -209q15 -31 24 -58q12 35 23 58l99 209h216z" />
    <glyph glyph-name="Thorn" unicode="&#xde;" horiz-adv-x="653" 
d="M617 393q0 -260 -273 -260h-66v-133h-192v764h192v-115h75q121 0 192.5 -69.5t71.5 -186.5zM423 396q0 104 -120 104h-25v-212h29q116 0 116 108z" />
    <glyph glyph-name="germandbls" unicode="&#xdf;" horiz-adv-x="657" 
d="M611 231q0 -114 -63 -179t-172 -65q-43 0 -79 13l22 144q23 -6 36 -6q37 0 58.5 28t21.5 79q0 50 -28 81t-71 31h-17v141h15q25 0 42 18.5t17 49.5q0 29 -19.5 49t-49.5 20q-68 0 -68 -76v-559h-171v397h-48v140h48v38q0 93 61.5 144.5t169.5 51.5q112 0 180 -54
q65 -53 65 -138q0 -119 -111 -136q76 -5 118.5 -61t42.5 -151z" />
    <glyph glyph-name="agrave" unicode="&#xe0;" horiz-adv-x="683" 
d="M428 591h-105l-149 170h160zM609 0h-173v73q-32 -82 -143 -82q-109 0 -184 80q-72 77 -72 198q0 123 67 196q75 82 184 82q108 0 153 -80v70h168v-537zM441 269q0 64 -33.5 104.5t-80.5 40.5q-48 0 -80.5 -40t-32.5 -105q0 -64 32.5 -104.5t80.5 -40.5q47 0 80.5 40.5
t33.5 104.5z" />
    <glyph glyph-name="aacute" unicode="&#xe1;" horiz-adv-x="683" 
d="M522 761l-149 -170h-105l94 170h160zM609 0h-173v73q-32 -82 -143 -82q-109 0 -184 80q-72 76 -72 198q0 123 67 196q75 82 184 82q108 0 153 -80v70h168v-537zM441 269q0 64 -33.5 104.5t-80.5 40.5q-48 0 -80.5 -40t-32.5 -105q0 -64 32.5 -104.5t80.5 -40.5
q47 0 80.5 40.5t33.5 104.5z" />
    <glyph glyph-name="acircumflex" unicode="&#xe2;" horiz-adv-x="683" 
d="M517 580h-75l-81 97l-82 -97h-75l94 181h125zM609 0h-173v73q-32 -82 -143 -82q-109 0 -184 80q-72 76 -72 198q0 123 67 196q75 82 184 82q108 0 153 -80v70h168v-537zM441 269q0 64 -33.5 104.5t-80.5 40.5q-48 0 -80.5 -40t-32.5 -105q0 -64 32.5 -104.5t80.5 -40.5
q47 0 80.5 40.5t33.5 104.5z" />
    <glyph glyph-name="atilde" unicode="&#xe3;" horiz-adv-x="683" 
d="M523 750q-28 -124 -107 -124q-16 0 -37 6l-45 13q-21 6 -33 6q-31 0 -44 -38h-58q27 120 105 120q21 0 44 -7l46 -14q13 -4 28 -4q33 0 43 42h58zM609 0h-173v73q-32 -82 -143 -82q-109 0 -184 80q-72 76 -72 198q0 123 67 196q75 82 184 82q108 0 153 -80v70h168v-537z
M441 269q0 64 -33.5 104.5t-80.5 40.5q-48 0 -80.5 -40t-32.5 -105q0 -64 32.5 -104.5t80.5 -40.5q47 0 80.5 40.5t33.5 104.5z" />
    <glyph glyph-name="adieresis" unicode="&#xe4;" horiz-adv-x="683" 
d="M526 682q0 -31 -20 -51t-50 -20q-29 0 -49.5 20.5t-20.5 50.5q0 28 21 48.5t49 20.5q29 0 49.5 -20t20.5 -49zM335 682q0 -31 -19.5 -51t-49.5 -20q-29 0 -50 20.5t-21 50.5q0 28 21 48.5t50 20.5t49 -20t20 -49zM609 0h-173v73q-32 -82 -143 -82q-109 0 -184 80
q-72 76 -72 198q0 123 67 196q75 82 184 82q108 0 153 -80v70h168v-537zM441 269q0 64 -33.5 104.5t-80.5 40.5q-48 0 -80.5 -40t-32.5 -105q0 -64 32.5 -104.5t80.5 -40.5q47 0 80.5 40.5t33.5 104.5z" />
    <glyph glyph-name="aring" unicode="&#xe5;" horiz-adv-x="683" 
d="M488 711q0 -55 -38 -93.5t-94 -38.5t-94.5 38t-38.5 94t39 94.5t94 38.5t93.5 -38.5t38.5 -94.5zM609 0h-173v73q-32 -82 -143 -82q-109 0 -184 80q-72 77 -72 198q0 123 67 196q75 82 184 82q108 0 153 -80v70h168v-537zM412 711q0 23 -16.5 39.5t-39.5 16.5
t-39.5 -16.5t-16.5 -39.5t16 -39.5t40 -16.5q23 0 39.5 16.5t16.5 39.5zM441 269q0 64 -33.5 104.5t-80.5 40.5q-48 0 -80.5 -40t-32.5 -105q0 -64 32.5 -104.5t80.5 -40.5q47 0 80.5 40.5t33.5 104.5z" />
    <glyph glyph-name="ae" unicode="&#xe6;" horiz-adv-x="1032" 
d="M996 229h-405q4 -50 36 -78.5t82 -28.5q76 0 105 57l169 -33q-33 -72 -100 -113.5t-150 -41.5q-110 0 -142 82v-73h-155v73q-32 -82 -143 -82q-109 0 -184 80q-72 76 -72 198q0 123 67 196q75 82 184 82q108 0 153 -80v70h144v-70q45 80 152 80q159 0 237 -169
q22 -47 22 -139v-10zM819 311q-14 109 -117 109q-47 0 -77.5 -29.5t-34.5 -79.5h229zM444 269q0 65 -33.5 105t-81.5 40t-81.5 -40t-33.5 -105q0 -64 33.5 -104.5t81.5 -40.5t81.5 40.5t33.5 104.5z" />
    <glyph glyph-name="ccedilla" unicode="&#xe7;" horiz-adv-x="574" 
d="M549 79q-91 -92 -223 -92q-130 0 -209.5 78t-79.5 203q0 126 80 204t209 78q126 0 212 -79l-104 -115q-41 47 -97 47q-52 0 -87.5 -38t-35.5 -97t35 -96.5t88 -37.5q67 0 105 61zM463 -135q0 -102 -124 -102q-56 0 -142 23v67q80 -22 132 -22q42 0 42 35q0 31 -58 31
q-17 0 -27 -1v104h56v-41h9q112 0 112 -94z" />
    <glyph glyph-name="egrave" unicode="&#xe8;" horiz-adv-x="660" 
d="M424 591h-105l-149 170h160zM623 229h-404q4 -50 35.5 -78.5t81.5 -28.5q76 0 105 57l169 -33q-34 -75 -106 -117t-170 -42q-134 0 -215.5 77t-81.5 201q0 127 80 206t211 79q139 0 217 -81t78 -227v-13zM446 311q-14 109 -117 109q-47 0 -77.5 -29.5t-34.5 -79.5h229z
" />
    <glyph glyph-name="eacute" unicode="&#xe9;" horiz-adv-x="660" 
d="M518 761l-149 -170h-105l94 170h160zM623 229h-404q4 -50 35.5 -78.5t81.5 -28.5q76 0 105 57l169 -33q-34 -75 -106 -117t-170 -42q-134 0 -215.5 77t-81.5 201q0 127 80 206t211 79q139 0 217 -81t78 -227v-13zM446 311q-14 109 -117 109q-47 0 -77.5 -29.5
t-34.5 -79.5h229z" />
    <glyph glyph-name="ecircumflex" unicode="&#xea;" horiz-adv-x="660" 
d="M486 580h-75l-81 97l-82 -97h-75l94 181h125zM623 229h-404q4 -50 35.5 -78.5t81.5 -28.5q76 0 105 57l169 -33q-34 -75 -106 -117t-170 -42q-134 0 -215.5 77t-81.5 201q0 127 80 206t211 79q139 0 217 -81t78 -227v-13zM446 311q-14 109 -117 109q-47 0 -77.5 -29.5
t-34.5 -79.5h229z" />
    <glyph glyph-name="edieresis" unicode="&#xeb;" horiz-adv-x="660" 
d="M495 682q0 -31 -20 -51t-50 -20q-29 0 -49.5 20.5t-20.5 50.5q0 28 21 48.5t49 20.5q29 0 49.5 -20t20.5 -49zM304 682q0 -31 -19.5 -51t-49.5 -20q-29 0 -50 20.5t-21 50.5q0 28 21 48.5t50 20.5t49 -20t20 -49zM623 229h-404q4 -50 35.5 -78.5t81.5 -28.5q76 0 105 57
l169 -33q-34 -75 -106 -117t-170 -42q-134 0 -215.5 77t-81.5 201q0 127 80 206t211 79q139 0 217 -81t78 -227v-13zM446 311q-14 109 -117 109q-47 0 -77.5 -29.5t-34.5 -79.5h229z" />
    <glyph glyph-name="igrave" unicode="&#xec;" horiz-adv-x="324" 
d="M241 591h-105l-149 170h160zM249 0h-175v537h175v-537z" />
    <glyph glyph-name="iacute" unicode="&#xed;" horiz-adv-x="324" 
d="M349 761l-149 -170h-105l94 170h160zM249 0h-175v537h175v-537z" />
    <glyph glyph-name="icircumflex" unicode="&#xee;" horiz-adv-x="324" 
d="M318 580h-75l-81 97l-82 -97h-75l94 181h125zM249 0h-175v537h175v-537z" />
    <glyph glyph-name="idieresis" unicode="&#xef;" horiz-adv-x="324" 
d="M327 682q0 -31 -20 -51t-50 -20q-29 0 -49.5 20.5t-20.5 50.5q0 28 21 48.5t49 20.5q29 0 49.5 -20t20.5 -49zM136 682q0 -31 -19.5 -51t-49.5 -20q-29 0 -50 20.5t-21 50.5q0 28 21 48.5t50 20.5t49 -20t20 -49zM249 0h-175v537h175v-537z" />
    <glyph glyph-name="eth" unicode="&#xf0;" horiz-adv-x="637" 
d="M599 267q0 -131 -75.5 -205.5t-205.5 -74.5q-126 0 -203.5 73.5t-77.5 191.5q0 116 75 189t193 73q39 0 77 -14q-29 43 -74 83l-149 -60l-29 70l110 43q-30 22 -80 52l49 85q61 -29 150 -88l147 57l27 -70l-107 -41q173 -156 173 -364zM422 256q0 56 -28.5 89t-75.5 33
q-46 0 -75 -33.5t-29 -88.5t28.5 -88.5t75.5 -33.5t75.5 33.5t28.5 88.5z" />
    <glyph glyph-name="ntilde" unicode="&#xf1;" horiz-adv-x="632" 
d="M478 750q-28 -124 -107 -124q-16 0 -37 6l-45 13q-21 6 -33 6q-31 0 -44 -38h-58q27 120 105 120q21 0 44 -7l46 -14q13 -4 28 -4q33 0 43 42h58zM564 0h-175v315q0 85 -67 85q-73 0 -73 -100v-300h-175v537h167v-82q62 91 164 91q74 0 116.5 -47t42.5 -133v-366z" />
    <glyph glyph-name="ograve" unicode="&#xf2;" horiz-adv-x="637" 
d="M408 591h-105l-149 170h160zM599 268q0 -125 -78 -203t-203 -78q-126 0 -203.5 78t-77.5 203q0 126 77.5 204t203.5 78q125 0 203 -78.5t78 -203.5zM422 268q0 62 -28.5 98.5t-75.5 36.5q-46 0 -75 -37t-29 -98t29 -97.5t75 -36.5q47 0 75.5 36.5t28.5 97.5z" />
    <glyph glyph-name="oacute" unicode="&#xf3;" horiz-adv-x="637" 
d="M506 761l-149 -170h-105l94 170h160zM599 268q0 -125 -78 -203t-203 -78q-126 0 -203.5 78t-77.5 203q0 126 77.5 204t203.5 78q125 0 203 -78.5t78 -203.5zM422 268q0 62 -28.5 98.5t-75.5 36.5q-46 0 -75 -37t-29 -98t29 -97.5t75 -36.5q47 0 75.5 36.5t28.5 97.5z" />
    <glyph glyph-name="ocircumflex" unicode="&#xf4;" horiz-adv-x="637" 
d="M475 580h-75l-81 97l-82 -97h-75l94 181h125zM599 268q0 -125 -78 -203t-203 -78q-126 0 -203.5 78t-77.5 203q0 126 77.5 204t203.5 78q125 0 203 -78.5t78 -203.5zM422 268q0 62 -28.5 98.5t-75.5 36.5q-46 0 -75 -37t-29 -98t29 -97.5t75 -36.5q47 0 75.5 36.5
t28.5 97.5z" />
    <glyph glyph-name="otilde" unicode="&#xf5;" horiz-adv-x="637" 
d="M481 750q-28 -124 -107 -124q-16 0 -37 6l-45 13q-21 6 -33 6q-31 0 -44 -38h-58q27 120 105 120q21 0 44 -7l46 -14q13 -4 28 -4q33 0 43 42h58zM599 268q0 -125 -78 -203t-203 -78q-126 0 -203.5 78t-77.5 203q0 126 77.5 204t203.5 78q125 0 203 -78.5t78 -203.5z
M422 268q0 62 -28.5 98.5t-75.5 36.5q-46 0 -75 -37t-29 -98t29 -97.5t75 -36.5q47 0 75.5 36.5t28.5 97.5z" />
    <glyph glyph-name="odieresis" unicode="&#xf6;" horiz-adv-x="637" 
d="M484 682q0 -31 -20 -51t-50 -20q-29 0 -49.5 20.5t-20.5 50.5q0 28 21 48.5t49 20.5q29 0 49.5 -20t20.5 -49zM293 682q0 -31 -19.5 -51t-49.5 -20q-29 0 -50 20.5t-21 50.5q0 28 21 48.5t50 20.5t49 -20t20 -49zM599 268q0 -125 -78 -203t-203 -78q-126 0 -203.5 78
t-77.5 203q0 126 77.5 204t203.5 78q125 0 203 -78.5t78 -203.5zM422 268q0 62 -28.5 98.5t-75.5 36.5q-46 0 -75 -37t-29 -98t29 -97.5t75 -36.5q47 0 75.5 36.5t28.5 97.5z" />
    <glyph glyph-name="divide" unicode="&#xf7;" horiz-adv-x="833" 
d="M497 496q0 -33 -23.5 -56.5t-57.5 -23.5t-57 23.5t-23 56.5q0 34 24 57.5t57 23.5t56.5 -23.5t23.5 -57.5zM709 242h-585v113h585v-113zM497 100q0 -33 -23 -56.5t-57 -23.5q-33 0 -57 23.5t-24 56.5q0 34 24 57.5t57 23.5t56.5 -23.5t23.5 -57.5z" />
    <glyph glyph-name="oslash" unicode="&#xf8;" horiz-adv-x="637" 
d="M599 268q0 -125 -78 -203t-203 -78q-62 0 -119 28l-52 -79l-73 49l51 77q-88 79 -88 206q0 126 77.5 204t203.5 78q59 0 119 -29l52 80l73 -49l-51 -78q88 -79 88 -206zM364 411q-20 7 -39 7q-53 0 -87.5 -41.5t-34.5 -109.5q0 -34 10 -79zM433 276q0 42 -11 72
l-150 -223q12 -6 31 -6q62 0 96 41t34 116z" />
    <glyph glyph-name="ugrave" unicode="&#xf9;" horiz-adv-x="625" 
d="M418 591h-105l-149 170h160zM556 198q0 -100 -64 -155.5t-180 -55.5t-179.5 55.5t-63.5 155.5v339h175v-321q0 -86 68 -86q69 0 69 86v321h175v-339z" />
    <glyph glyph-name="uacute" unicode="&#xfa;" horiz-adv-x="625" 
d="M469 761l-149 -170h-105l94 170h160zM556 198q0 -100 -64 -155.5t-180 -55.5t-179.5 55.5t-63.5 155.5v339h175v-321q0 -86 68 -86q69 0 69 86v321h175v-339z" />
    <glyph glyph-name="ucircumflex" unicode="&#xfb;" horiz-adv-x="625" 
d="M469 580h-75l-81 97l-82 -97h-75l94 181h125zM556 198q0 -100 -64 -155.5t-180 -55.5t-179.5 55.5t-63.5 155.5v339h175v-321q0 -86 68 -86q69 0 69 86v321h175v-339z" />
    <glyph glyph-name="udieresis" unicode="&#xfc;" horiz-adv-x="625" 
d="M478 682q0 -31 -20 -51t-50 -20q-29 0 -49.5 20.5t-20.5 50.5q0 28 21 48.5t49 20.5q29 0 49.5 -20t20.5 -49zM287 682q0 -31 -19.5 -51t-49.5 -20q-29 0 -50 20.5t-21 50.5q0 28 21 48.5t50 20.5t49 -20t20 -49zM556 198q0 -100 -64 -155.5t-180 -55.5t-179.5 55.5
t-63.5 155.5v339h175v-321q0 -86 68 -86q69 0 69 86v321h175v-339z" />
    <glyph glyph-name="yacute" unicode="&#xfd;" horiz-adv-x="579" 
d="M439 772l-159 -181h-75l94 181h140zM568 537l-252 -736h-183l64 189l-192 547h191l68 -243q19 -67 26 -144q14 106 25 144l68 243h185z" />
    <glyph glyph-name="thorn" unicode="&#xfe;" horiz-adv-x="683" 
d="M646 269q0 -124 -67 -197q-76 -82 -183 -82q-56 0 -97.5 23t-56.5 62v-274h-168v963h168v-308q38 90 148 90q108 0 182 -79t74 -198zM469 269q0 64 -35 104t-87 40q-51 0 -87 -40.5t-36 -103.5q0 -64 36 -105t87 -41q52 0 87 41t35 105z" />
    <glyph glyph-name="ydieresis" unicode="&#xff;" horiz-adv-x="579" 
d="M455 682q0 -31 -20 -51t-50 -20q-29 0 -49.5 20.5t-20.5 50.5q0 28 21 48.5t49 20.5q29 0 49.5 -20t20.5 -49zM264 682q0 -31 -19.5 -51t-49.5 -20q-29 0 -50 20.5t-21 50.5q0 28 21 48.5t50 20.5t49 -20t20 -49zM568 537l-252 -736h-183l64 189l-192 547h191l68 -243
q19 -67 26 -144q14 106 25 144l68 243h185z" />
    <glyph glyph-name="Amacron" unicode="&#x100;" horiz-adv-x="766" 
d="M571 871h-380v103h380v-103zM764 0h-203l-31 111h-294l-31 -111h-202l262 764h237zM486 255l-103 354l-103 -354h206z" />
    <glyph glyph-name="amacron" unicode="&#x101;" horiz-adv-x="683" 
d="M541 628h-380v103h380v-103zM609 0h-173v73q-32 -82 -143 -82q-109 0 -184 80q-72 77 -72 198q0 123 67 196q75 82 184 82q108 0 153 -80v70h168v-537zM441 269q0 64 -33.5 104.5t-80.5 40.5q-48 0 -80.5 -40t-32.5 -105q0 -64 32.5 -104.5t80.5 -40.5q47 0 80.5 40.5
t33.5 104.5z" />
    <glyph glyph-name="Abreve" unicode="&#x102;" horiz-adv-x="766" 
d="M533 944q-11 -150 -153 -150q-143 0 -154 150h64q6 -68 90 -68q87 0 89 68h64zM764 0h-203l-31 111h-294l-31 -111h-202l262 764h237zM486 255l-103 354l-103 -354h206z" />
    <glyph glyph-name="abreve" unicode="&#x103;" horiz-adv-x="683" 
d="M498 741q-12 -150 -153 -150q-144 0 -154 150h64q6 -68 90 -68q86 0 89 68h64zM609 0h-173v73q-32 -82 -143 -82q-109 0 -184 80q-72 77 -72 198q0 123 67 196q75 82 184 82q108 0 153 -80v70h168v-537zM441 269q0 64 -33.5 104.5t-80.5 40.5q-48 0 -80.5 -40t-32.5 -105
q0 -64 32.5 -104.5t80.5 -40.5q47 0 80.5 40.5t33.5 104.5z" />
    <glyph glyph-name="Aogonek" unicode="&#x104;" horiz-adv-x="766" 
d="M810 -91q-23 -56 -53 -81q-35 -27 -92 -27q-53 0 -89 24q-43 28 -43 78q0 58 65 97h-37l-31 111h-294l-31 -111h-202l262 764h237l262 -764h-45q-29 0 -50 -18.5t-21 -40.5q0 -42 39 -42q29 0 40 29zM486 255l-103 354l-103 -354h206z" />
    <glyph glyph-name="aogonek" unicode="&#x105;" horiz-adv-x="683" 
d="M661 -91q-23 -56 -53 -81q-35 -27 -92 -27q-53 0 -89 24q-43 28 -43 78q0 58 65 97h-13v73q-32 -82 -143 -82q-109 0 -184 80q-72 77 -72 198q0 123 67 196q75 82 184 82q108 0 153 -80v70h168v-537h-49q-24 0 -42.5 -19t-18.5 -40q0 -42 39 -42q29 0 40 29zM441 269
q0 64 -33.5 104.5t-80.5 40.5q-48 0 -80.5 -40t-32.5 -105q0 -64 32.5 -104.5t80.5 -40.5q47 0 80.5 40.5t33.5 104.5z" />
    <glyph glyph-name="Cacute" unicode="&#x106;" horiz-adv-x="773" 
d="M623 1003l-149 -170h-105l94 170h160zM737 103q-113 -118 -290 -118q-171 0 -284.5 112.5t-113.5 284.5q0 173 113 285t285 112q174 0 287 -115l-124 -126q-64 70 -157 70q-92 0 -151 -63t-59 -163t59 -163t151 -63q100 0 158 75z" />
    <glyph glyph-name="cacute" unicode="&#x107;" horiz-adv-x="574" 
d="M494 761l-149 -170h-105l94 170h160zM549 79q-91 -92 -223 -92q-130 0 -209.5 78t-79.5 203q0 126 80 204t209 78q126 0 212 -79l-104 -115q-41 47 -97 47q-52 0 -87.5 -38t-35.5 -97t35 -96.5t88 -37.5q67 0 105 61z" />
    <glyph glyph-name="Ccircumflex" unicode="&#x108;" horiz-adv-x="773" 
d="M609 824h-75l-81 97l-82 -97h-75l94 181h125zM737 103q-113 -118 -290 -118q-171 0 -284.5 112.5t-113.5 284.5q0 173 113 285t285 112q174 0 287 -115l-124 -126q-64 70 -157 70q-92 0 -151 -63t-59 -163t59 -163t151 -63q100 0 158 75z" />
    <glyph glyph-name="ccircumflex" unicode="&#x109;" horiz-adv-x="574" 
d="M488 580h-75l-81 97l-82 -97h-75l94 181h125zM549 79q-91 -92 -223 -92q-130 0 -209.5 78t-79.5 203q0 126 80 204t209 78q126 0 212 -79l-104 -115q-41 47 -97 47q-52 0 -87.5 -38t-35.5 -97t35 -96.5t88 -37.5q67 0 105 61z" />
    <glyph glyph-name="Cdot" unicode="&#x10a;" horiz-adv-x="773" 
d="M516 901q0 -32 -20.5 -52.5t-52.5 -20.5q-29 0 -50.5 21.5t-21.5 51.5q0 28 22 50t50 22q31 0 52 -21t21 -51zM737 103q-113 -118 -290 -118q-171 0 -284.5 112.5t-113.5 284.5q0 173 113 285t285 112q174 0 287 -115l-124 -126q-64 70 -157 70q-92 0 -151 -63t-59 -163
t59 -163t151 -63q100 0 158 75z" />
    <glyph glyph-name="cdot" unicode="&#x10b;" horiz-adv-x="574" 
d="M393 669q0 -31 -20.5 -52t-52.5 -21q-29 0 -50.5 21.5t-21.5 51.5q0 29 22 50.5t50 21.5q31 0 52 -21t21 -51zM549 79q-91 -92 -223 -92q-130 0 -209.5 78t-79.5 203q0 126 80 204t209 78q126 0 212 -79l-104 -115q-41 47 -97 47q-52 0 -87.5 -38t-35.5 -97t35 -96.5
t88 -37.5q67 0 105 61z" />
    <glyph glyph-name="Ccaron" unicode="&#x10c;" horiz-adv-x="773" 
d="M600 1002l-94 -181h-125l-94 181h75l82 -97l81 97h75zM737 103q-113 -118 -290 -118q-171 0 -284.5 112.5t-113.5 284.5q0 173 113 285t285 112q174 0 287 -115l-124 -126q-64 70 -157 70q-92 0 -151 -63t-59 -163t59 -163t151 -63q100 0 158 75z" />
    <glyph glyph-name="ccaron" unicode="&#x10d;" horiz-adv-x="574" 
d="M481 761l-94 -181h-125l-94 181h75l82 -97l81 97h75zM549 79q-91 -92 -223 -92q-130 0 -209.5 78t-79.5 203q0 126 80 204t209 78q126 0 212 -79l-104 -115q-41 47 -97 47q-52 0 -87.5 -38t-35.5 -97t35 -96.5t88 -37.5q67 0 105 61z" />
    <glyph glyph-name="Dcaron" unicode="&#x10e;" horiz-adv-x="778" 
d="M474 1001l-94 -181h-125l-94 181h75l82 -97l81 97h75zM729 383q0 -215 -178 -332q-77 -51 -230 -51h-235v766h235q155 0 234 -50q174 -110 174 -333zM535 383q0 108 -54 168t-150 60h-53v-456h58q92 0 145.5 61.5t53.5 166.5z" />
    <glyph glyph-name="dcaron" unicode="&#x10f;" horiz-adv-x="729" 
d="M875 761l-149 -170h-105l94 170h160zM609 0h-173v73q-32 -82 -143 -82q-109 0 -184 80q-72 77 -72 198q0 123 67 196q75 82 184 82q108 0 153 -80v297h168v-764zM441 269q0 64 -33.5 104.5t-80.5 40.5q-48 0 -80.5 -40t-32.5 -105q0 -64 32.5 -104.5t80.5 -40.5
q47 0 80.5 40.5t33.5 104.5z" />
    <glyph glyph-name="Dslash" unicode="&#x110;" horiz-adv-x="778" 
d="M729 383q0 -215 -178 -332q-77 -51 -230 -51h-235v332h-86v102h86v332h235q155 0 234 -50q174 -110 174 -333zM535 383q0 108 -54 168t-150 60h-53v-177h123v-102h-123v-177h58q92 0 145.5 61.5t53.5 166.5z" />
    <glyph glyph-name="dcroat" unicode="&#x111;" horiz-adv-x="683" 
d="M710 608h-101v-608h-173v73q-32 -82 -143 -82q-109 0 -184 80q-72 77 -72 198q0 123 67 196q75 82 184 82q108 0 153 -80v141h-111v103h111v53h168v-53h101v-103zM441 269q0 64 -33.5 104.5t-80.5 40.5q-48 0 -80.5 -40t-32.5 -105q0 -64 32.5 -104.5t80.5 -40.5
q47 0 80.5 40.5t33.5 104.5z" />
    <glyph glyph-name="Emacron" unicode="&#x112;" horiz-adv-x="593" 
d="M494 871h-380v103h380v-103zM514 0h-428v764h428v-148h-236v-156h236v-148h-236v-157h236v-155z" />
    <glyph glyph-name="emacron" unicode="&#x113;" horiz-adv-x="660" 
d="M523 628h-380v103h380v-103zM623 229h-404q4 -50 35.5 -78.5t81.5 -28.5q76 0 105 57l169 -33q-34 -75 -106 -117t-170 -42q-134 0 -215.5 77t-81.5 201q0 127 80 206t211 79q139 0 217 -81t78 -227v-13zM446 311q-14 109 -117 109q-47 0 -77.5 -29.5t-34.5 -79.5h229z
" />
    <glyph glyph-name="Ebreve" unicode="&#x114;" horiz-adv-x="593" 
d="M462 972q-12 -150 -153 -150q-144 0 -154 150h64q5 -68 90 -68q86 0 89 68h64zM514 0h-428v764h428v-148h-236v-156h236v-148h-236v-157h236v-155z" />
    <glyph glyph-name="ebreve" unicode="&#x115;" horiz-adv-x="660" 
d="M484 741q-12 -150 -153 -150q-144 0 -154 150h64q6 -68 90 -68q86 0 89 68h64zM623 229h-404q4 -50 35.5 -78.5t81.5 -28.5q76 0 105 57l169 -33q-34 -75 -106 -117t-170 -42q-134 0 -215.5 77t-81.5 201q0 127 80 206t211 79q139 0 217 -81t78 -227v-13zM446 311
q-14 109 -117 109q-47 0 -77.5 -29.5t-34.5 -79.5h229z" />
    <glyph glyph-name="Edot" unicode="&#x116;" horiz-adv-x="593" 
d="M382 900q0 -31 -20.5 -52t-52.5 -21q-29 0 -50.5 21.5t-21.5 51.5q0 29 22 50.5t50 21.5q31 0 52 -21t21 -51zM514 0h-428v764h428v-148h-236v-156h236v-148h-236v-157h236v-155z" />
    <glyph glyph-name="edot" unicode="&#x117;" horiz-adv-x="660" 
d="M403 669q0 -31 -20.5 -52t-52.5 -21q-29 0 -50.5 21.5t-21.5 51.5q0 29 22 50.5t50 21.5q31 0 52 -21t21 -51zM623 229h-404q4 -50 35.5 -78.5t81.5 -28.5q76 0 105 57l169 -33q-34 -75 -106 -117t-170 -42q-134 0 -215.5 77t-81.5 201q0 127 80 206t211 79
q139 0 217 -81t78 -227v-13zM446 311q-14 109 -117 109q-47 0 -77.5 -29.5t-34.5 -79.5h229z" />
    <glyph glyph-name="Eogonek" unicode="&#x118;" horiz-adv-x="593" 
d="M546 -91q-23 -56 -53 -81q-35 -27 -92 -27q-53 0 -89 24q-43 28 -43 78q0 58 65 97h-248v764h428v-148h-236v-156h236v-148h-236v-157h236v-155h-69q-25 0 -43 -18.5t-18 -40.5q0 -42 39 -42q29 0 40 29z" />
    <glyph glyph-name="eogonek" unicode="&#x119;" horiz-adv-x="660" 
d="M623 229h-404q4 -50 35.5 -78.5t81.5 -28.5q76 0 105 57l169 -33q-37 -82 -124 -127q-55 -28 -55 -78q0 -42 39 -42q29 0 40 29l83 -19q-23 -56 -53 -81q-35 -27 -92 -27q-53 0 -89 24q-43 28 -43 78q0 48 47 85q-14 -1 -29 -1q-134 0 -215.5 77t-81.5 201q0 127 80 206
t211 79q139 0 217 -81t78 -227v-13zM446 311q-14 109 -117 109q-47 0 -77.5 -29.5t-34.5 -79.5h229z" />
    <glyph glyph-name="Ecaron" unicode="&#x11a;" horiz-adv-x="593" 
d="M468 1000l-94 -181h-125l-94 181h75l82 -97l81 97h75zM514 0h-428v764h428v-148h-236v-156h236v-148h-236v-157h236v-155z" />
    <glyph glyph-name="ecaron" unicode="&#x11b;" horiz-adv-x="660" 
d="M486 761l-94 -181h-125l-94 181h75l82 -97l81 97h75zM623 229h-404q4 -50 35.5 -78.5t81.5 -28.5q76 0 105 57l169 -33q-34 -75 -106 -117t-170 -42q-134 0 -215.5 77t-81.5 201q0 127 80 206t211 79q139 0 217 -81t78 -227v-13zM446 311q-14 109 -117 109
q-47 0 -77.5 -29.5t-34.5 -79.5h229z" />
    <glyph glyph-name="Gcircumflex" unicode="&#x11c;" horiz-adv-x="884" 
d="M608 820h-75l-81 97l-82 -97h-75l94 181h125zM847 387q0 -128 -52 -209q-124 -193 -347 -193q-171 0 -285 112t-114 285q0 172 112.5 284.5t286.5 112.5q187 0 307 -135l-141 -123q-58 87 -166 87q-90 0 -147.5 -63t-57.5 -163t57.5 -163t147.5 -63q147 0 198 131h-198
v146h396q3 -51 3 -46z" />
    <glyph glyph-name="gcircumflex" unicode="&#x11d;" horiz-adv-x="683" 
d="M452 580h-75l-81 97l-82 -97h-75l94 181h125zM609 56q0 -125 -78 -193.5t-220 -68.5q-157 0 -271 87l80 107q75 -72 168 -72q70 0 111 38.5t41 104.5v9q-1 6 -1 9q-39 -86 -146 -86q-109 0 -184 80q-72 77 -72 198q0 123 67 196q75 82 184 82q108 0 153 -80v70h168v-481z
M441 269q0 64 -33.5 104.5t-80.5 40.5q-48 0 -80.5 -40t-32.5 -105q0 -64 32.5 -104.5t80.5 -40.5q47 0 80.5 40.5t33.5 104.5z" />
    <glyph glyph-name="Gbreve" unicode="&#x11e;" horiz-adv-x="884" 
d="M599 973q-11 -150 -153 -150q-143 0 -154 150h64q6 -68 90 -68q86 0 89 68h64zM847 387q0 -128 -52 -209q-124 -193 -347 -193q-171 0 -285 112t-114 285q0 172 112.5 284.5t286.5 112.5q187 0 307 -135l-141 -123q-58 87 -166 87q-90 0 -147.5 -63t-57.5 -163t57.5 -163
t147.5 -63q147 0 198 131h-198v146h396q3 -51 3 -46z" />
    <glyph glyph-name="gbreve" unicode="&#x11f;" horiz-adv-x="683" 
d="M440 741q-12 -150 -153 -150q-144 0 -154 150h64q6 -68 90 -68q86 0 89 68h64zM609 56q0 -125 -78 -193.5t-220 -68.5q-157 0 -271 87l80 107q75 -72 168 -72q70 0 111 38.5t41 104.5v9q-1 6 -1 9q-39 -86 -146 -86q-109 0 -184 80q-72 77 -72 198q0 123 67 196
q75 82 184 82q108 0 153 -80v70h168v-481zM441 269q0 64 -33.5 104.5t-80.5 40.5q-48 0 -80.5 -40t-32.5 -105q0 -64 32.5 -104.5t80.5 -40.5q47 0 80.5 40.5t33.5 104.5z" />
    <glyph glyph-name="Gdot" unicode="&#x120;" horiz-adv-x="884" 
d="M522 900q0 -32 -20.5 -52.5t-52.5 -20.5q-29 0 -50.5 21.5t-21.5 51.5q0 28 22 50t50 22q31 0 52 -21t21 -51zM847 387q0 -128 -52 -209q-124 -193 -347 -193q-171 0 -285 112t-114 285q0 172 112.5 284.5t286.5 112.5q187 0 307 -135l-141 -123q-58 87 -166 87
q-90 0 -147.5 -63t-57.5 -163t57.5 -163t147.5 -63q147 0 198 131h-198v146h396q3 -51 3 -46z" />
    <glyph glyph-name="gdot" unicode="&#x121;" horiz-adv-x="683" 
d="M372 669q0 -31 -20.5 -52t-52.5 -21q-29 0 -50.5 21.5t-21.5 51.5q0 29 22 50.5t50 21.5q31 0 52 -21t21 -51zM609 56q0 -125 -78 -193.5t-220 -68.5q-157 0 -271 87l80 107q75 -72 168 -72q70 0 111 38.5t41 104.5v9q-1 6 -1 9q-39 -86 -146 -86q-109 0 -184 80
q-72 77 -72 198q0 123 67 196q75 82 184 82q108 0 153 -80v70h168v-481zM441 269q0 64 -33.5 104.5t-80.5 40.5q-48 0 -80.5 -40t-32.5 -105q0 -64 32.5 -104.5t80.5 -40.5q47 0 80.5 40.5t33.5 104.5z" />
    <glyph glyph-name="Gcedilla" unicode="&#x122;" horiz-adv-x="884" 
d="M847 387q0 -128 -52 -209q-124 -193 -347 -193q-171 0 -285 112t-114 285q0 172 112.5 284.5t286.5 112.5q187 0 307 -135l-141 -123q-58 87 -166 87q-90 0 -147.5 -63t-57.5 -163t57.5 -163t147.5 -63q147 0 198 131h-198v146h396q3 -51 3 -46zM542 -60l-80 -301
l-134 27l53 308z" />
    <glyph glyph-name="gcedilla" unicode="&#x123;" horiz-adv-x="683" 
d="M447 871l-53 -308l-161 34l80 301zM609 56q0 -125 -78 -193.5t-220 -68.5q-157 0 -271 87l80 107q75 -72 168 -72q70 0 111 38.5t41 104.5v9q-1 6 -1 9q-39 -86 -146 -86q-109 0 -184 80q-72 77 -72 198q0 123 67 196q75 82 184 82q108 0 153 -80v70h168v-481zM441 269
q0 64 -33.5 104.5t-80.5 40.5q-48 0 -80.5 -40t-32.5 -105q0 -64 32.5 -104.5t80.5 -40.5q47 0 80.5 40.5t33.5 104.5z" />
    <glyph glyph-name="Hcircumflex" unicode="&#x124;" horiz-adv-x="799" 
d="M552 821h-75l-81 97l-82 -97h-75l94 181h125zM713 0h-192v310h-244v-310h-192v764h192v-299h244v299h192v-764z" />
    <glyph glyph-name="hcircumflex" unicode="&#x125;" horiz-adv-x="632" 
d="M464 821h-75l-81 97l-82 -97h-75l94 181h125zM564 0h-175v315q0 85 -67 85q-73 0 -73 -100v-300h-175v764h175v-309q56 91 156 91q74 0 116.5 -47t42.5 -133v-366z" />
    <glyph glyph-name="Hbar" unicode="&#x126;" horiz-adv-x="799" 
d="M763 578h-50v-578h-192v310h-244v-310h-192v578h-50v103h50v83h192v-83h244v83h192v-83h50v-103zM521 465v113h-244v-113h244z" />
    <glyph glyph-name="hbar" unicode="&#x127;" horiz-adv-x="632" 
d="M564 0h-175v315q0 85 -67 85q-73 0 -73 -100v-300h-175v608h-100v103h100v53h175v-53h105v-103h-105v-153q56 91 156 91q74 0 116.5 -47t42.5 -133v-366z" />
    <glyph glyph-name="Itilde" unicode="&#x128;" horiz-adv-x="366" 
d="M345 971q-28 -124 -107 -124q-16 0 -37 6l-45 13q-21 6 -33 6q-31 0 -44 -38h-58q27 120 105 120q21 0 44 -7l46 -14q13 -4 28 -4q32 0 43 42h58zM280 0h-194v764h194v-764z" />
    <glyph glyph-name="itilde" unicode="&#x129;" horiz-adv-x="324" 
d="M322 750q-28 -124 -107 -124q-16 0 -37 6l-45 13q-21 6 -33 6q-31 0 -44 -38h-58q27 120 105 120q21 0 44 -7l46 -14q13 -4 28 -4q33 0 43 42h58zM249 0h-175v537h175v-537z" />
    <glyph glyph-name="Imacron" unicode="&#x12a;" horiz-adv-x="366" 
d="M374 872h-380v103h380v-103zM280 0h-194v764h194v-764z" />
    <glyph glyph-name="imacron" unicode="&#x12b;" horiz-adv-x="324" 
d="M358 628h-380v103h380v-103zM249 0h-175v537h175v-537z" />
    <glyph glyph-name="Ibreve" unicode="&#x12c;" horiz-adv-x="366" 
d="M339 970q-12 -150 -153 -150q-144 0 -154 150h64q6 -68 90 -68q86 0 89 68h64zM280 0h-194v764h194v-764z" />
    <glyph glyph-name="ibreve" unicode="&#x12d;" horiz-adv-x="324" 
d="M320 741q-12 -150 -153 -150q-144 0 -154 150h64q6 -68 90 -68q86 0 89 68h64zM249 0h-175v537h175v-537z" />
    <glyph glyph-name="Iogonek" unicode="&#x12e;" horiz-adv-x="366" 
d="M325 -91q-23 -56 -53 -81q-35 -27 -92 -27q-53 0 -89 24q-43 28 -43 78q0 58 65 97h-27v764h194v-764h-56q-28 0 -44.5 -18t-16.5 -41q0 -42 39 -42q29 0 40 29z" />
    <glyph glyph-name="iogonek" unicode="&#x12f;" horiz-adv-x="324" 
d="M256 676q0 -40 -28 -67.5t-67 -27.5q-38 0 -66.5 28.5t-28.5 66.5q0 39 27.5 67t67.5 28t67.5 -27.5t27.5 -67.5zM305 -91q-23 -56 -53 -81q-35 -27 -92 -27q-53 0 -89 24q-43 28 -43 78q0 63 65 97h-19v537h175v-537h-45q-29 0 -45 -18t-16 -41q0 -42 39 -42q29 0 40 29
z" />
    <glyph glyph-name="Idotaccent" unicode="&#x130;" horiz-adv-x="366" 
d="M257 901q0 -32 -21 -52.5t-52 -20.5q-30 0 -51 21.5t-21 51.5q0 28 21.5 50t50.5 22q30 0 51.5 -21t21.5 -51zM280 0h-194v764h194v-764z" />
    <glyph glyph-name="dotlessi" unicode="&#x131;" horiz-adv-x="324" 
d="M249 0h-175v537h175v-537z" />
    <glyph glyph-name="IJ" unicode="&#x132;" horiz-adv-x="824" 
d="M738 285q0 -300 -282 -300h-94v165h45q77 0 108 33.5t31 113.5v312h-172v155h364v-479zM280 0h-194v764h194v-764z" />
    <glyph glyph-name="ij" unicode="&#x133;" horiz-adv-x="626" 
d="M555 676q0 -40 -28 -67.5t-67 -27.5q-38 0 -66.5 28.5t-28.5 66.5q0 39 27.5 67t67.5 28t67.5 -27.5t27.5 -67.5zM256 676q0 -40 -28 -67.5t-67 -27.5q-38 0 -66.5 28.5t-28.5 66.5q0 39 27.5 67t67.5 28t67.5 -27.5t27.5 -67.5zM547 2q0 -208 -206 -208q-16 0 -25 1v151
h4q30 0 41.5 12.5t11.5 43.5v535h174v-535zM249 0h-175v537h175v-537z" />
    <glyph glyph-name="Jcircumflex" unicode="&#x134;" horiz-adv-x="477" 
d="M394 821h-75l-81 97l-82 -97h-75l94 181h125zM418 285q0 -300 -282 -300h-94v165h45q77 0 108 33.5t31 113.5v312h-172v155h364v-479z" />
    <glyph glyph-name="jcircumflex" unicode="&#x135;" horiz-adv-x="338" 
d="M338 580h-75l-81 97l-82 -97h-75l94 181h125zM267 2q0 -208 -206 -208q-16 0 -25 1v151h4q30 0 41.5 12.5t11.5 43.5v535h174v-535z" />
    <glyph glyph-name="Kcedilla" unicode="&#x136;" horiz-adv-x="701" 
d="M691 0h-210l-203 363v-363h-192v764h192v-347l191 347h213l-220 -358zM464 -60l-80 -301l-134 27l53 308z" />
    <glyph glyph-name="kcedilla" unicode="&#x137;" horiz-adv-x="632" 
d="M602 0h-210l-143 250v-250h-175v764h175v-451l131 224h201l-180 -248zM402 -60l-80 -301l-134 27l53 308z" />
    <glyph glyph-name="Lacute" unicode="&#x139;" horiz-adv-x="493" 
d="M362 1002l-149 -170h-105l94 170h160zM471 0h-385v764h192v-609h193v-155z" />
    <glyph glyph-name="lacute" unicode="&#x13a;" horiz-adv-x="324" 
d="M344 1002l-149 -170h-105l94 170h160zM249 0h-175v764h175v-764z" />
    <glyph glyph-name="Lcedilla" unicode="&#x13b;" horiz-adv-x="493" 
d="M471 0h-385v764h192v-609h193v-155zM393 -60l-80 -301l-134 27l53 308z" />
    <glyph glyph-name="lcedilla" unicode="&#x13c;" horiz-adv-x="324" 
d="M249 0h-175v764h175v-764zM246 -60l-80 -301l-134 27l53 308z" />
    <glyph glyph-name="Lcaron" unicode="&#x13d;" horiz-adv-x="493" 
d="M545 761l-149 -170h-105l94 170h160zM471 0h-385v764h192v-609h193v-155z" />
    <glyph glyph-name="lcaron" unicode="&#x13e;" horiz-adv-x="368" 
d="M518 761l-149 -170h-105l94 170h160zM249 0h-175v764h175v-764z" />
    <glyph glyph-name="Ldot" unicode="&#x13f;" horiz-adv-x="508" 
d="M493 382q0 -40 -28.5 -69t-69.5 -29t-69.5 28.5t-28.5 69.5t29 69.5t69 28.5t69 -29t29 -69zM471 0h-385v764h192v-609h193v-155z" />
    <glyph glyph-name="ldot" unicode="&#x140;" horiz-adv-x="481" 
d="M463 382q0 -40 -28.5 -69t-69.5 -29t-69.5 28.5t-28.5 69.5t29 69.5t69 28.5t69 -29t29 -69zM249 0h-175v764h175v-764z" />
    <glyph glyph-name="Lslash" unicode="&#x141;" horiz-adv-x="493" 
d="M471 0h-385v261l-39 -32v154l39 33v348h192v-224l84 71v-157l-84 -71v-228h193v-155z" />
    <glyph glyph-name="lslash" unicode="&#x142;" horiz-adv-x="344" 
d="M299 493l-45 -37v-456h-165v340l-50 -44v150l50 42v276h165v-158l45 39v-152z" />
    <glyph glyph-name="Nacute" unicode="&#x143;" horiz-adv-x="856" 
d="M629 1003l-149 -170h-105l94 170h160zM770 0h-189l-261 390q-29 44 -65 121q21 -66 21 -141v-370h-190v764h199l246 -385q39 -61 68 -128q-18 81 -18 158v355h189v-764z" />
    <glyph glyph-name="nacute" unicode="&#x144;" horiz-adv-x="632" 
d="M483 761l-149 -170h-105l94 170h160zM564 0h-175v315q0 85 -67 85q-73 0 -73 -100v-300h-175v537h167v-82q62 91 164 91q74 0 116.5 -47t42.5 -133v-366z" />
    <glyph glyph-name="Ncedilla" unicode="&#x145;" horiz-adv-x="856" 
d="M770 0h-189l-261 390q-29 44 -65 121q21 -66 21 -141v-370h-190v764h199l246 -385q39 -61 68 -128q-18 81 -18 158v355h189v-764zM534 -60l-80 -301l-134 27l53 308z" />
    <glyph glyph-name="ncedilla" unicode="&#x146;" horiz-adv-x="632" 
d="M564 0h-175v315q0 85 -67 85q-73 0 -73 -100v-300h-175v537h167v-82q62 91 164 91q74 0 116.5 -47t42.5 -133v-366zM404 -60l-80 -301l-134 27l53 308z" />
    <glyph glyph-name="Ncaron" unicode="&#x147;" horiz-adv-x="856" 
d="M594 1001l-94 -181h-125l-94 181h75l82 -97l81 97h75zM770 0h-189l-261 390q-29 44 -65 121q21 -66 21 -141v-370h-190v764h199l246 -385q39 -61 68 -128q-18 81 -18 158v355h189v-764z" />
    <glyph glyph-name="ncaron" unicode="&#x148;" horiz-adv-x="632" 
d="M475 761l-94 -181h-125l-94 181h75l82 -97l81 97h75zM564 0h-175v315q0 85 -67 85q-73 0 -73 -100v-300h-175v537h167v-82q62 91 164 91q74 0 116.5 -47t42.5 -133v-366z" />
    <glyph glyph-name="Omacron" unicode="&#x14c;" horiz-adv-x="896" 
d="M641 870h-380v103h380v-103zM847 382q0 -171 -113 -284t-286 -113t-286 113t-113 284q0 172 112.5 284.5t286.5 112.5q172 0 285.5 -112.5t113.5 -284.5zM652 382q0 100 -57 163t-147 63t-147.5 -63t-57.5 -163t58 -163t147 -63q90 0 147 63t57 163z" />
    <glyph glyph-name="omacron" unicode="&#x14d;" horiz-adv-x="637" 
d="M507 628h-380v103h380v-103zM599 268q0 -125 -78 -203t-203 -78q-126 0 -203.5 78t-77.5 203q0 126 77.5 204t203.5 78q125 0 203 -78.5t78 -203.5zM422 268q0 62 -28.5 98.5t-75.5 36.5q-46 0 -75 -37t-29 -98t29 -97.5t75 -36.5q47 0 75.5 36.5t28.5 97.5z" />
    <glyph glyph-name="Obreve" unicode="&#x14e;" horiz-adv-x="896" 
d="M602 972q-12 -150 -153 -150q-144 0 -154 150h64q6 -68 90 -68q86 0 89 68h64zM847 382q0 -171 -113 -284t-286 -113t-286 113t-113 284q0 172 112.5 284.5t286.5 112.5q172 0 285.5 -112.5t113.5 -284.5zM652 382q0 100 -57 163t-147 63t-147.5 -63t-57.5 -163t58 -163
t147 -63q90 0 147 63t57 163z" />
    <glyph glyph-name="obreve" unicode="&#x14f;" horiz-adv-x="637" 
d="M463 741q-12 -150 -153 -150q-144 0 -154 150h64q6 -68 90 -68q86 0 89 68h64zM599 268q0 -125 -78 -203t-203 -78q-126 0 -203.5 78t-77.5 203q0 126 77.5 204t203.5 78q125 0 203 -78.5t78 -203.5zM422 268q0 62 -28.5 98.5t-75.5 36.5q-46 0 -75 -37t-29 -98t29 -97.5
t75 -36.5q47 0 75.5 36.5t28.5 97.5z" />
    <glyph glyph-name="Odblacute" unicode="&#x150;" horiz-adv-x="896" 
d="M677 1001l-162 -181h-58l96 181h124zM513 1001l-123 -181h-54l57 181h120zM847 382q0 -171 -113 -284t-286 -113t-286 113t-113 284q0 172 112.5 284.5t286.5 112.5q172 0 285.5 -112.5t113.5 -284.5zM652 382q0 100 -57 163t-147 63t-147.5 -63t-57.5 -163t58 -163
t147 -63q90 0 147 63t57 163z" />
    <glyph glyph-name="odblacute" unicode="&#x151;" horiz-adv-x="637" 
d="M558 761l-162 -181h-58l96 181h124zM394 761l-123 -181h-54l57 181h120zM599 268q0 -125 -78 -203t-203 -78q-126 0 -203.5 78t-77.5 203q0 126 77.5 204t203.5 78q125 0 203 -78.5t78 -203.5zM422 268q0 62 -28.5 98.5t-75.5 36.5q-46 0 -75 -37t-29 -98t29 -97.5
t75 -36.5q47 0 75.5 36.5t28.5 97.5z" />
    <glyph glyph-name="OE" unicode="&#x152;" horiz-adv-x="1125" 
d="M1047 0h-420v88q-75 -98 -209 -98q-148 0 -256 107q-113 112 -113 285t114 286q107 106 262 106q130 0 202 -97v87h420v-148h-237v-156h237v-148h-237v-157h237v-155zM627 382q0 102 -50.5 164t-128.5 62q-90 0 -147.5 -63t-57.5 -163t58 -163t147 -63q78 0 128.5 62
t50.5 164z" />
    <glyph glyph-name="oe" unicode="&#x153;" horiz-adv-x="1025" 
d="M989 229h-404q4 -50 36 -78.5t82 -28.5q76 0 105 57l168 -33q-34 -75 -106 -117t-170 -42q-133 0 -198 99q-59 -99 -190 -99q-121 0 -198 78.5t-77 202.5q0 126 77.5 204t203.5 78q124 0 185 -98q70 98 202 98q130 0 207 -82.5t77 -225.5v-13zM812 311q-14 109 -117 109
q-47 0 -77 -29.5t-34 -79.5h228zM422 268q0 60 -30 97.5t-74 37.5q-43 0 -73.5 -37.5t-30.5 -97.5t30.5 -97t73.5 -37q44 0 74 37t30 97z" />
    <glyph glyph-name="Racute" unicode="&#x154;" horiz-adv-x="706" 
d="M442 1002l-149 -170h-105l94 170h160zM676 0h-231l-167 325v-325h-192v764h280q131 0 205 -67t74 -178q0 -88 -45.5 -143t-123.5 -63zM450 511q0 104 -120 104h-52v-211h57q115 0 115 107z" />
    <glyph glyph-name="racute" unicode="&#x155;" horiz-adv-x="435" 
d="M378 761l-149 -170h-105l94 170h160zM409 361q-35 7 -52 7q-61 0 -84.5 -36.5t-23.5 -120.5v-211h-175v537h170v-98q44 108 145 108q13 0 20 -1v-185z" />
    <glyph glyph-name="Rcedilla" unicode="&#x156;" horiz-adv-x="706" 
d="M676 0h-231l-167 325v-325h-192v764h280q131 0 205 -67t74 -178q0 -88 -45.5 -143t-123.5 -63zM442 -60l-80 -301l-134 27l53 308zM450 511q0 104 -120 104h-52v-211h57q115 0 115 107z" />
    <glyph glyph-name="rcedilla" unicode="&#x157;" horiz-adv-x="435" 
d="M409 361q-35 7 -52 7q-61 0 -84.5 -36.5t-23.5 -120.5v-211h-175v537h170v-98q44 108 145 108q13 0 20 -1v-185zM249 -60l-80 -301l-134 27l53 308z" />
    <glyph glyph-name="Rcaron" unicode="&#x158;" horiz-adv-x="706" 
d="M450 1000l-94 -181h-125l-94 181h75l82 -97l81 97h75zM676 0h-231l-167 325v-325h-192v764h280q131 0 205 -67t74 -178q0 -88 -45.5 -143t-123.5 -63zM450 511q0 104 -120 104h-52v-211h57q115 0 115 107z" />
    <glyph glyph-name="rcaron" unicode="&#x159;" horiz-adv-x="435" 
d="M338 761l-94 -181h-125l-94 181h75l82 -97l81 97h75zM409 361q-35 7 -52 7q-61 0 -84.5 -36.5t-23.5 -120.5v-211h-175v537h170v-98q44 108 145 108q13 0 20 -1v-185z" />
    <glyph glyph-name="Sacute" unicode="&#x15a;" horiz-adv-x="646" 
d="M516 1003l-149 -170h-105l94 170h160zM599 230q0 -111 -76.5 -178.5t-205.5 -67.5q-121 0 -192 63.5t-74 174.5h177q3 -82 96 -82q44 0 68.5 19t24.5 51t-32 54q-25 18 -93 42q-72 26 -77 28q-45 19 -79 44q-79 59 -79 169q0 102 71 167t188 65q128 0 196.5 -60.5
t70.5 -174.5h-174q-2 90 -89 90q-40 0 -63.5 -19.5t-23.5 -52.5q0 -36 39 -57q12 -7 110 -44q71 -27 88 -35q47 -23 78 -56q51 -55 51 -140z" />
    <glyph glyph-name="sacute" unicode="&#x15b;" horiz-adv-x="512" 
d="M447 761l-149 -170h-105l94 170h160zM460 165q0 -83 -53.5 -130.5t-150.5 -47.5q-197 0 -205 174h149v-5q0 -53 55 -53q51 0 51 41q0 22 -21 35q-11 8 -60 27q-33 12 -104 49q-59 39 -59 120t51 128t140 47q90 0 142.5 -44.5t54.5 -120.5h-142q-3 52 -50 52
q-52 0 -52 -39q0 -24 28 -38q41 -16 82 -31q77 -30 109 -64q35 -38 35 -100z" />
    <glyph glyph-name="Scircumflex" unicode="&#x15c;" horiz-adv-x="646" 
d="M478 819h-75l-81 97l-82 -97h-75l94 181h125zM599 230q0 -111 -76.5 -178.5t-205.5 -67.5q-121 0 -192 63.5t-74 174.5h177q3 -82 96 -82q44 0 68.5 19t24.5 51t-32 54q-25 18 -93 42q-72 26 -77 28q-45 19 -79 44q-79 59 -79 169q0 102 71 167t188 65q128 0 196.5 -60.5
t70.5 -174.5h-174q-2 90 -89 90q-40 0 -63.5 -19.5t-23.5 -52.5q0 -36 39 -57q12 -7 110 -44q71 -27 88 -35q47 -23 78 -56q51 -55 51 -140z" />
    <glyph glyph-name="scircumflex" unicode="&#x15d;" horiz-adv-x="512" 
d="M414 580h-75l-81 97l-82 -97h-75l94 181h125zM460 165q0 -83 -53.5 -130.5t-150.5 -47.5q-197 0 -205 174h149v-5q0 -53 55 -53q51 0 51 41q0 22 -21 35q-11 8 -60 27q-33 12 -104 49q-59 39 -59 120t51 128t140 47q90 0 142.5 -44.5t54.5 -120.5h-142q-3 52 -50 52
q-52 0 -52 -39q0 -24 28 -38q41 -16 82 -31q77 -30 109 -64q35 -38 35 -100z" />
    <glyph glyph-name="Scedilla" unicode="&#x15e;" horiz-adv-x="646" 
d="M599 230q0 -103 -67 -169.5t-182 -75.5v-26h9q112 0 112 -94q0 -102 -124 -102q-56 0 -142 23v67q80 -22 132 -22q42 0 42 35q0 31 -58 31q-17 0 -27 -1v89q-111 6 -175.5 69t-67.5 168h177q3 -82 96 -82q44 0 68.5 19t24.5 51t-32 54q-25 18 -93 42q-72 26 -77 28
q-45 19 -79 44q-79 59 -79 169q0 102 71 167t188 65q128 0 196.5 -60.5t70.5 -174.5h-174q-2 90 -89 90q-40 0 -63.5 -19.5t-23.5 -52.5q0 -36 39 -57q12 -7 110 -44q71 -27 88 -35q47 -23 78 -56q51 -55 51 -140z" />
    <glyph glyph-name="scedilla" unicode="&#x15f;" horiz-adv-x="512" 
d="M460 165q0 -76 -46 -123t-129 -54v-29h9q112 0 112 -94q0 -102 -124 -102q-56 0 -142 23v67q80 -22 132 -22q42 0 42 35q0 31 -58 31q-17 0 -27 -1v92q-171 12 -178 173h149v-5q0 -53 55 -53q51 0 51 41q0 22 -21 35q-11 8 -60 27q-33 12 -104 49q-59 39 -59 120t51 128
t140 47q90 0 142.5 -44.5t54.5 -120.5h-142q-3 52 -50 52q-52 0 -52 -39q0 -24 28 -38q41 -16 82 -31q77 -30 109 -64q35 -38 35 -100z" />
    <glyph glyph-name="Scaron" unicode="&#x160;" horiz-adv-x="646" 
d="M479 1014l-94 -181h-125l-94 181h75l82 -97l81 97h75zM599 230q0 -111 -76.5 -178.5t-205.5 -67.5q-121 0 -192 63.5t-74 174.5h177q3 -82 96 -82q44 0 68.5 19t24.5 51t-32 54q-25 18 -93 42q-72 26 -77 28q-45 19 -79 44q-79 59 -79 169q0 102 71 167t188 65
q128 0 196.5 -60.5t70.5 -174.5h-174q-2 90 -89 90q-40 0 -63.5 -19.5t-23.5 -52.5q0 -36 39 -57q12 -7 110 -44q71 -27 88 -35q47 -23 78 -56q51 -55 51 -140z" />
    <glyph glyph-name="scaron" unicode="&#x161;" horiz-adv-x="512" 
d="M412 772l-94 -181h-125l-94 181h75l82 -97l81 97h75zM460 165q0 -83 -53.5 -130.5t-150.5 -47.5q-197 0 -205 174h149v-5q0 -53 55 -53q51 0 51 41q0 22 -21 35q-11 8 -60 27q-33 12 -104 49q-59 39 -59 120t51 128t140 47q90 0 142.5 -44.5t54.5 -120.5h-142
q-3 52 -50 52q-52 0 -52 -39q0 -24 28 -38q41 -16 82 -31q77 -30 109 -64q35 -38 35 -100z" />
    <glyph glyph-name="Tcaron" unicode="&#x164;" horiz-adv-x="556" 
d="M432 1003l-94 -181h-125l-94 181h75l82 -97l81 97h75zM546 609h-172v-609h-192v609h-173v155h537v-155z" />
    <glyph glyph-name="tcaron" unicode="&#x165;" horiz-adv-x="409" 
d="M553 761l-149 -170h-105l94 170h160zM336 0h-72q-96 0 -131 22q-39 24 -39 94v281h-59v140h59v137h175v-137h67v-140h-67v-213q0 -36 33 -36h34v-148z" />
    <glyph glyph-name="Tbar" unicode="&#x166;" horiz-adv-x="556" 
d="M546 609h-172v-241h92v-103h-92v-265h-192v265h-96v103h96v241h-173v155h537v-155z" />
    <glyph glyph-name="tbar" unicode="&#x167;" horiz-adv-x="394" 
d="M336 0h-72q-96 0 -131 22q-39 24 -39 94v127h-47v103h47v51h-59v140h59v137h175v-137h67v-140h-67v-51h57v-103h-57v-59q0 -36 33 -36h34v-148z" />
    <glyph glyph-name="Utilde" unicode="&#x168;" horiz-adv-x="785" 
d="M551 971q-28 -124 -107 -124q-16 0 -37 6l-45 13q-21 6 -33 6q-31 0 -44 -38h-58q26 120 105 120q21 0 44 -7l46 -14q13 -4 28 -4q32 0 43 42h58zM703 274q0 -135 -82 -212t-229 -77q-146 0 -228.5 77t-82.5 212v490h193v-423q0 -97 27 -142t91 -45q65 0 92 45t27 142
v423h192v-490z" />
    <glyph glyph-name="utilde" unicode="&#x169;" horiz-adv-x="625" 
d="M470 750q-28 -124 -107 -124q-16 0 -37 6l-45 13q-21 6 -33 6q-31 0 -44 -38h-58q27 120 105 120q21 0 44 -7l46 -14q13 -4 28 -4q33 0 43 42h58zM556 198q0 -100 -64 -155.5t-180 -55.5t-179.5 55.5t-63.5 155.5v339h175v-321q0 -86 68 -86q69 0 69 86v321h175v-339z
" />
    <glyph glyph-name="Umacron" unicode="&#x16a;" horiz-adv-x="785" 
d="M586 872h-380v103h380v-103zM703 274q0 -135 -82 -212t-229 -77q-146 0 -228.5 77t-82.5 212v490h193v-423q0 -97 27 -142t91 -45q65 0 92 45t27 142v423h192v-490z" />
    <glyph glyph-name="umacron" unicode="&#x16b;" horiz-adv-x="625" 
d="M496 628h-380v103h380v-103zM556 198q0 -100 -64 -155.5t-180 -55.5t-179.5 55.5t-63.5 155.5v339h175v-321q0 -86 68 -86q69 0 69 86v321h175v-339z" />
    <glyph glyph-name="Ubreve" unicode="&#x16c;" horiz-adv-x="785" 
d="M542 970q-12 -150 -153 -150q-144 0 -154 150h64q6 -68 90 -68q86 0 89 68h64zM703 274q0 -135 -82 -212t-229 -77q-146 0 -228.5 77t-82.5 212v490h193v-423q0 -97 27 -142t91 -45q65 0 92 45t27 142v423h192v-490z" />
    <glyph glyph-name="ubreve" unicode="&#x16d;" horiz-adv-x="625" 
d="M463 741q-12 -150 -153 -150q-144 0 -154 150h64q6 -68 90 -68q86 0 89 68h64zM556 198q0 -100 -64 -155.5t-180 -55.5t-179.5 55.5t-63.5 155.5v339h175v-321q0 -86 68 -86q69 0 69 86v321h175v-339z" />
    <glyph glyph-name="Uring" unicode="&#x16e;" horiz-adv-x="785" 
d="M523 897q0 -56 -38.5 -94.5t-94.5 -38.5q-55 0 -93.5 38t-38.5 95q0 55 38.5 93.5t93.5 38.5q56 0 94.5 -38.5t38.5 -93.5zM703 274q0 -135 -82 -212t-229 -77q-146 0 -228.5 77t-82.5 212v490h193v-423q0 -97 27 -142t91 -45q65 0 92 45t27 142v423h192v-490zM446 896
q0 23 -16.5 39.5t-39.5 16.5t-39.5 -16.5t-16.5 -39.5q0 -24 16 -39.5t40 -15.5q23 0 39.5 15.5t16.5 39.5z" />
    <glyph glyph-name="uring" unicode="&#x16f;" horiz-adv-x="625" 
d="M435 672q0 -55 -38.5 -94t-94.5 -39q-55 0 -93.5 38.5t-38.5 94.5t38.5 94t93.5 38q56 0 94.5 -38t38.5 -94zM556 198q0 -100 -64 -155.5t-180 -55.5t-179.5 55.5t-63.5 155.5v339h175v-321q0 -86 68 -86q69 0 69 86v321h175v-339zM358 671q0 23 -16 39.5t-40 16.5
q-23 0 -39.5 -16.5t-16.5 -39.5t16 -39t40 -16t40 16t16 39z" />
    <glyph glyph-name="Udblacute" unicode="&#x170;" horiz-adv-x="785" 
d="M621 1003l-162 -181h-58l96 181h124zM457 1003l-123 -181h-54l57 181h120zM703 274q0 -135 -82 -212t-229 -77q-146 0 -228.5 77t-82.5 212v490h193v-423q0 -97 27 -142t91 -45q65 0 92 45t27 142v423h192v-490z" />
    <glyph glyph-name="udblacute" unicode="&#x171;" horiz-adv-x="625" 
d="M528 761l-162 -181h-58l96 181h124zM364 761l-123 -181h-54l57 181h120zM556 198q0 -100 -64 -155.5t-180 -55.5t-179.5 55.5t-63.5 155.5v339h175v-321q0 -86 68 -86q69 0 69 86v321h175v-339z" />
    <glyph glyph-name="Uogonek" unicode="&#x172;" horiz-adv-x="785" 
d="M703 274q0 -181 -147 -256q-52 -26 -52 -77q0 -42 39 -42q29 0 40 29l83 -19q-23 -56 -53 -81q-35 -27 -92 -27q-53 0 -89 24q-43 28 -43 78q0 47 46 84q-21 -2 -43 -2q-146 0 -228.5 77t-82.5 212v490h193v-423q0 -97 27 -142t91 -45q65 0 92 45t27 142v423h192v-490z
" />
    <glyph glyph-name="uogonek" unicode="&#x173;" horiz-adv-x="625" 
d="M560 -91q-23 -56 -53 -81q-35 -27 -92 -27q-53 0 -89 24q-43 28 -43 78q0 48 46 84h-17q-116 0 -179.5 55.5t-63.5 155.5v339h175v-321q0 -86 68 -86q69 0 69 86v321h175v-339q0 -127 -106 -183q-52 -28 -52 -74q0 -42 39 -42q29 0 40 29z" />
    <glyph glyph-name="Wcircumflex" unicode="&#x174;" horiz-adv-x="1000" 
d="M659 819h-75l-81 97l-82 -97h-75l94 181h125zM998 764l-203 -764h-188l-89 429q-6 28 -19 122q-11 -72 -21 -122l-84 -429h-189l-203 764h195l81 -411q4 -27 19 -128q5 71 16 123l87 416h200l87 -416q11 -53 16 -123l19 128l81 411h195z" />
    <glyph glyph-name="wcircumflex" unicode="&#x175;" horiz-adv-x="889" 
d="M601 580h-75l-81 97l-82 -97h-75l94 181h125zM894 537l-177 -537h-186l-65 258q-9 36 -24 120q-5 -50 -23 -120l-66 -258h-185l-177 537h187l68 -279q13 -52 20 -112q8 67 19 112l68 279h178l67 -279q16 -67 21 -112q5 43 21 112l66 279h188z" />
    <glyph glyph-name="Ycircumflex" unicode="&#x176;" horiz-adv-x="644" 
d="M472 822h-75l-81 97l-82 -97h-75l94 181h125zM660 764l-242 -420v-344h-193v344l-242 420h216l99 -209q15 -31 24 -58q12 35 23 58l99 209h216z" />
    <glyph glyph-name="ycircumflex" unicode="&#x177;" horiz-adv-x="579" 
d="M436 580h-75l-81 97l-82 -97h-75l94 181h125zM568 537l-252 -736h-183l64 189l-192 547h191l68 -243q19 -67 26 -144q14 106 25 144l68 243h185z" />
    <glyph glyph-name="Ydieresis" unicode="&#x178;" horiz-adv-x="644" 
d="M487 924q0 -31 -20 -51t-50 -20q-29 0 -49.5 20.5t-20.5 50.5q0 28 21 48.5t49 20.5q29 0 49.5 -20t20.5 -49zM296 924q0 -31 -19.5 -51t-49.5 -20q-29 0 -50 20.5t-21 50.5q0 28 21 48.5t50 20.5t49 -20t20 -49zM660 764l-242 -420v-344h-193v344l-242 420h216l99 -209
q15 -31 24 -58q12 35 23 58l99 209h216z" />
    <glyph glyph-name="Zacute" unicode="&#x179;" horiz-adv-x="676" 
d="M514 1003l-149 -170h-105l94 170h160zM632 764l-321 -609h293v-155h-581l322 615h-289v149h576z" />
    <glyph glyph-name="zacute" unicode="&#x17a;" horiz-adv-x="544" 
d="M449 761l-149 -170h-105l94 170h160zM513 537l-225 -397h201v-140h-469l222 397h-195v140h466z" />
    <glyph glyph-name="Zdot" unicode="&#x17b;" horiz-adv-x="676" 
d="M422 913q0 -40 -28 -67.5t-67 -27.5q-38 0 -66.5 28.5t-28.5 66.5q0 39 27.5 67t67.5 28t67.5 -27.5t27.5 -67.5zM632 764l-321 -609h293v-155h-581l322 615h-289v149h576z" />
    <glyph glyph-name="zdot" unicode="&#x17c;" horiz-adv-x="544" 
d="M357 676q0 -40 -28 -67.5t-67 -27.5q-38 0 -66.5 28.5t-28.5 66.5q0 39 27.5 67t67.5 28t67.5 -27.5t27.5 -67.5zM513 537l-225 -397h201v-140h-469l222 397h-195v140h466z" />
    <glyph glyph-name="Zcaron" unicode="&#x17d;" horiz-adv-x="676" 
d="M494 1014l-94 -181h-125l-94 181h75l82 -97l81 97h75zM632 764l-321 -609h293v-155h-581l322 615h-289v149h576z" />
    <glyph glyph-name="zcaron" unicode="&#x17e;" horiz-adv-x="544" 
d="M428 772l-94 -181h-125l-94 181h75l82 -97l81 97h75zM513 537l-225 -397h201v-140h-469l222 397h-195v140h466z" />
    <glyph glyph-name="florin" unicode="&#x192;" horiz-adv-x="618" 
d="M565 763l-30 -138q-31 6 -44 6q-31 0 -47 -22q-13 -18 -24 -68l-9 -41h123v-106h-145l-79 -365q-27 -127 -75 -183q-51 -60 -139 -60q-48 0 -110 13l30 138q32 -6 44 -6q31 0 47 22q13 19 24 69l80 372h-113v106h136l7 33q27 127 77 185.5t138 58.5q42 0 109 -14z" />
    <glyph glyph-name="Scommaaccent" unicode="&#x218;" horiz-adv-x="646" 
d="M599 230q0 -111 -76.5 -178.5t-205.5 -67.5q-121 0 -192 63.5t-74 174.5h177q3 -82 96 -82q44 0 68.5 19t24.5 51t-32 54q-25 18 -93 42q-72 26 -77 28q-45 19 -79 44q-79 59 -79 169q0 102 71 167t188 65q128 0 196.5 -60.5t70.5 -174.5h-174q-2 90 -89 90
q-40 0 -63.5 -19.5t-23.5 -52.5q0 -36 39 -57q12 -7 110 -44q71 -27 88 -35q47 -23 78 -56q51 -55 51 -140zM415 -60l-80 -301l-134 27l53 308z" />
    <glyph glyph-name="scommaaccent" unicode="&#x219;" horiz-adv-x="512" 
d="M460 165q0 -83 -53.5 -130.5t-150.5 -47.5q-197 0 -205 174h149v-5q0 -53 55 -53q51 0 51 41q0 22 -21 35q-11 8 -60 27q-33 12 -104 49q-59 39 -59 120t51 128t140 47q90 0 142.5 -44.5t54.5 -120.5h-142q-3 52 -50 52q-52 0 -52 -39q0 -24 28 -38q41 -16 82 -31
q77 -30 109 -64q35 -38 35 -100zM355 -60l-80 -301l-134 27l53 308z" />
    <glyph glyph-name="Tcommaaccent" unicode="&#x21a;" horiz-adv-x="556" 
d="M546 609h-172v-609h-192v609h-173v155h537v-155zM365 -60l-80 -301l-134 27l53 308z" />
    <glyph glyph-name="tcommaaccent" unicode="&#x21b;" horiz-adv-x="394" 
d="M336 0h-72q-96 0 -131 22q-39 24 -39 94v281h-59v140h59v137h175v-137h67v-140h-67v-213q0 -36 33 -36h34v-148zM315 -60l-80 -301l-134 27l53 308z" />
    <glyph glyph-name="circumflex" unicode="&#x2c6;" 
d="M406 580h-75l-81 97l-82 -97h-75l94 181h125z" />
    <glyph glyph-name="caron" unicode="&#x2c7;" 
d="M406 761l-94 -181h-125l-94 181h75l82 -97l81 97h75z" />
    <glyph glyph-name="breve" unicode="&#x2d8;" 
d="M403 741q-12 -150 -153 -150q-144 0 -154 150h64q6 -68 90 -68q86 0 89 68h64z" />
    <glyph glyph-name="dotaccent" unicode="&#x2d9;" 
d="M323 669q0 -31 -20.5 -52t-52.5 -21q-29 0 -50.5 21.5t-21.5 51.5q0 29 22 50.5t50 21.5q31 0 52 -21t21 -51z" />
    <glyph glyph-name="ring" unicode="&#x2da;" 
d="M383 715q0 -55 -38.5 -94t-94.5 -39t-94 38.5t-38 94.5t38.5 94t93.5 38q56 0 94.5 -38.5t38.5 -93.5zM306 714q0 23 -16.5 39.5t-39.5 16.5t-39.5 -16.5t-16.5 -39.5t16 -39t40 -16q23 0 39.5 16t16.5 39z" />
    <glyph glyph-name="ogonek" unicode="&#x2db;" 
d="M416 -91q-23 -56 -53 -81q-35 -27 -92 -27q-53 0 -89 24q-43 28 -43 78q0 43 39 78q33 29 79 42l38 -23q-41 -18 -41 -59q0 -42 39 -42q29 0 40 29z" />
    <glyph glyph-name="tilde" unicode="&#x2dc;" 
d="M412 750q-28 -124 -107 -124q-16 0 -37 6l-45 13q-21 6 -33 6q-31 0 -44 -38h-58q27 120 105 120q21 0 44 -7l46 -14q13 -4 28 -4q33 0 43 42h58z" />
    <glyph glyph-name="hungarumlaut" unicode="&#x2dd;" 
d="M478 761l-162 -181h-58l96 181h124zM314 761l-123 -181h-54l57 181h120z" />
    <glyph glyph-name="endash" unicode="&#x2013;" 
d="M500 233h-500v115h500v-115z" />
    <glyph glyph-name="emdash" unicode="&#x2014;" horiz-adv-x="1000" 
d="M1000 233h-1000v115h1000v-115z" />
    <glyph glyph-name="quoteleft" unicode="&#x2018;" horiz-adv-x="310" 
d="M264 759l-42 -254l-163 23l67 251z" />
    <glyph glyph-name="quoteright" unicode="&#x2019;" horiz-adv-x="310" 
d="M263 755l-67 -251l-137 21l42 254z" />
    <glyph glyph-name="quotesinglbase" unicode="&#x201a;" horiz-adv-x="310" 
d="M263 114l-67 -251l-137 20l42 254z" />
    <glyph glyph-name="quotedblleft" unicode="&#x201c;" horiz-adv-x="588" 
d="M541 759l-41 -254l-163 23l67 251zM264 759l-42 -254l-163 23l67 251z" />
    <glyph glyph-name="quotedblright" unicode="&#x201d;" horiz-adv-x="588" 
d="M541 756l-67 -251l-137 20l41 254zM263 756l-67 -251l-137 20l42 254z" />
    <glyph glyph-name="quotedblbase" unicode="&#x201e;" horiz-adv-x="588" 
d="M541 114l-67 -251l-137 20l41 254zM263 114l-67 -251l-137 20l42 254z" />
    <glyph glyph-name="dagger" unicode="&#x2020;" 
d="M444 479l-171 49q23 -118 46 -170q-35 -108 -44 -423h-51q-8 302 -43 423q23 52 46 170l-171 -49l1 137l170 -46l-47 209h140l-47 -209l170 46z" />
    <glyph glyph-name="daggerdbl" unicode="&#x2021;" 
d="M444 235l-1 -137l-170 46l47 -209h-140l47 209l-170 -46l-1 137l171 -49q-19 107 -46 172q23 52 46 170l-171 -49l1 137l170 -46l-47 209h140l-47 -209l170 46l1 -137l-171 49q23 -118 46 -170q-27 -65 -46 -172z" />
    <glyph glyph-name="bullet" unicode="&#x2022;" horiz-adv-x="590" 
d="M439 372q0 -59 -42.5 -102t-102.5 -43t-102 42.5t-42 102.5t42.5 102t102.5 42q59 0 101.5 -42t42.5 -102z" />
    <glyph glyph-name="ellipsis" unicode="&#x2026;" horiz-adv-x="1000" 
d="M932 83q0 -40 -28.5 -69t-69.5 -29t-69.5 28.5t-28.5 69.5t29 70t69 29t69 -29.5t29 -69.5zM598 83q0 -40 -28.5 -69t-69.5 -29t-69.5 28.5t-28.5 69.5t29 70t69 29t69 -29.5t29 -69.5zM265 83q0 -40 -28.5 -69t-69.5 -29t-69.5 28.5t-28.5 69.5t29 70t69 29t69 -29.5
t29 -69.5z" />
    <glyph glyph-name="perthousand" unicode="&#x2030;" horiz-adv-x="1400" 
d="M1359 157q0 -80 -47 -125t-132 -45t-132 45t-47 125v93q0 80 47 125t132 45t132 -45t47 -125v-93zM943 157q0 -80 -47.5 -125t-132.5 -45t-132 45t-47 125v93q0 80 47 125t132 45t132.5 -45t47.5 -125v-93zM731 777l-369 -790h-109l369 790h109zM400 514q0 -80 -47 -125
t-132 -45t-132 45t-47 125v93q0 80 47 125t132 45t132 -45t47 -125v-93zM1231 157v93q0 72 -51 72t-51 -72v-93q0 -72 51 -72t51 72zM815 157v93q0 72 -52 72q-51 0 -51 -72v-93q0 -72 51 -72q52 0 52 72zM272 514v93q0 71 -51 71t-51 -71v-93q0 -72 51 -72t51 72z" />
    <glyph glyph-name="guilsinglleft" unicode="&#x2039;" horiz-adv-x="376" 
d="M319 74h-144l-117 195l117 194h144l-116 -194z" />
    <glyph glyph-name="guilsinglright" unicode="&#x203a;" horiz-adv-x="376" 
d="M318 269l-117 -195h-145l117 195l-117 194h145z" />
    <glyph glyph-name="fraction" unicode="&#x2044;" horiz-adv-x="167" 
d="M333 777l-389 -790h-111l389 790h111z" />
    <glyph glyph-name="euro" unicode="&#x20ac;" horiz-adv-x="618" 
d="M600 102q-81 -115 -207 -115q-137 0 -215 108q-56 77 -67 192h-95l23 66h68v19q-1 13 -1 18q0 7 2 37h-91l22 66h74q13 104 65 176q78 108 215 108q126 0 207 -115l-89 -126q-27 44 -45 61q-29 27 -68 27q-87 0 -107 -131h218l-22 -66h-201q-2 -30 -2 -37q0 -5 1 -18v-19
h176l-23 -66h-150q13 -147 110 -147q40 0 69 27q16 16 44 61z" />
    <glyph glyph-name="trademark" unicode="&#x2122;" horiz-adv-x="833" 
d="M717 446h-76v190l-71 -190h-32l-73 190v-190h-76v269h109l55 -148l56 148h108v-269zM337 653h-80v-207h-85v207h-80v62h245v-62z" />
    <glyph glyph-name="minus" unicode="&#x2212;" horiz-adv-x="833" 
d="M709 241h-585v115h585v-115z" />
    <glyph glyph-name="fi" unicode="&#xf001;" horiz-adv-x="657" 
d="M589 676q0 -40 -28 -67.5t-67 -27.5q-38 0 -66.5 28.5t-28.5 66.5q0 39 27.5 67t67.5 28t67.5 -27.5t27.5 -67.5zM581 0h-175v537h175v-537zM341 397h-75v-397h-175v397h-61v140h61v60q0 174 211 174h39v-151h-12q-63 0 -63 -55v-28h75v-140z" />
    <glyph glyph-name="fl" unicode="&#xf002;" horiz-adv-x="656" 
d="M581 0h-175v764h175v-764zM341 397h-75v-397h-175v397h-61v140h61v60q0 174 211 174h39v-151h-12q-63 0 -63 -55v-28h75v-140z" />
    <glyph glyph-name="Tcedilla" unicode="&#xf6c1;" horiz-adv-x="556" 
d="M546 609h-172v-609h-62v-41h9q112 0 112 -94q0 -102 -124 -102q-56 0 -142 23v67q80 -22 132 -22q42 0 42 35q0 31 -58 31q-17 0 -27 -1v104h-74v609h-173v155h537v-155z" />
    <glyph glyph-name="tcedilla" unicode="&#xf6c2;" horiz-adv-x="394" 
d="M387 -135q0 -102 -124 -102q-56 0 -142 23v67q80 -22 132 -22q42 0 42 35q0 31 -58 31q-17 0 -27 -1v106q-63 5 -89.5 29.5t-26.5 84.5v281h-59v140h59v137h175v-137h67v-140h-67v-213q0 -36 33 -36h34v-148h-70v-41h9q112 0 112 -94z" />
    </font>
</defs>
</svg>
