<svg 
 xmlns="http://www.w3.org/2000/svg"
 xmlns:xlink="http://www.w3.org/1999/xlink"
 width="24px" height="24px">
<path fill-rule="evenodd"  fill="rgb(235, 175, 46)"
 d="M23.471,10.540 L10.555,23.470 C10.204,23.822 9.774,23.997 9.266,23.997 C8.758,23.997 8.329,23.822 7.977,23.470 L6.183,21.676 C6.715,21.144 6.980,20.499 6.980,19.739 C6.980,18.980 6.714,18.334 6.183,17.802 C5.651,17.271 5.006,17.005 4.246,17.005 C3.487,17.005 2.841,17.271 2.310,17.802 L0.530,16.008 C0.178,15.657 0.003,15.227 0.003,14.719 C0.003,14.212 0.178,13.782 0.530,13.431 L13.445,0.529 C13.797,0.178 14.226,0.003 14.734,0.003 C15.242,0.003 15.671,0.178 16.023,0.529 L17.803,2.309 C17.272,2.841 17.006,3.486 17.006,4.246 C17.006,5.005 17.271,5.651 17.803,6.183 C18.335,6.714 18.980,6.980 19.740,6.980 C20.499,6.980 21.145,6.714 21.676,6.183 L23.471,7.963 C23.822,8.314 23.997,8.744 23.997,9.251 C23.997,9.759 23.822,10.189 23.471,10.540 ZM19.611,9.529 L14.457,4.374 C14.286,4.203 14.072,4.117 13.816,4.117 C13.559,4.117 13.346,4.203 13.175,4.374 L4.374,13.174 C4.194,13.355 4.104,13.568 4.104,13.815 C4.104,14.062 4.194,14.276 4.374,14.456 L9.530,19.611 C9.700,19.782 9.914,19.867 10.170,19.867 C10.427,19.867 10.640,19.782 10.811,19.611 L19.611,10.811 C19.792,10.630 19.882,10.417 19.882,10.170 C19.882,9.923 19.792,9.709 19.611,9.529 ZM5.671,13.815 L13.816,5.670 L18.316,10.170 L10.171,18.316 L5.671,13.815 Z"/>
</svg>