<?xml version="1.0" standalone="no"?>
<!DOCTYPE svg PUBLIC "-//W3C//DTD SVG 20010904//EN"
 "http://www.w3.org/TR/2001/REC-SVG-20010904/DTD/svg10.dtd">
<svg version="1.0" xmlns="http://www.w3.org/2000/svg"
 width="1258.000000pt" height="1258.000000pt" viewBox="0 0 1258.000000 1258.000000"
 preserveAspectRatio="xMidYMid meet">
<metadata>
Created by potrace 1.11, written by Peter Selinger 2001-2013
</metadata>
<g transform="translate(0.000000,1258.000000) scale(0.100000,-0.100000)"
fill="#000000" stroke="none">
<path d="M6209 9862 c-31 -26 -75 -63 -99 -82 -23 -19 -47 -40 -54 -46 -54
-50 -345 -288 -421 -345 -407 -302 -768 -434 -1185 -433 -116 0 -263 11 -325
24 -22 4 -65 11 -95 15 -84 11 -102 13 -135 19 -16 3 -48 8 -69 12 -59 9 -165
43 -220 71 -27 13 -52 21 -56 16 -4 -4 -73 -107 -152 -228 -167 -254 -409
-621 -568 -860 -60 -92 -110 -171 -110 -175 0 -5 -3 -10 -7 -12 -10 -4 -73
-96 -73 -106 1 -4 80 -66 178 -139 278 -207 390 -311 496 -461 73 -103 142
-265 161 -377 11 -67 13 -226 3 -300 -21 -159 -50 -241 -154 -431 -110 -202
-145 -301 -159 -448 -3 -33 -7 -62 -9 -63 -2 -2 -25 -6 -52 -8 -193 -18 -288
-50 -427 -142 -128 -84 -251 -222 -397 -443 -34 -52 -84 -128 -111 -168 -27
-41 -49 -78 -49 -82 0 -5 -3 -10 -7 -12 -5 -1 -35 -39 -68 -83 -136 -183 -283
-301 -442 -354 -171 -58 -337 8 -601 236 -223 194 -309 235 -486 234 -78 -1
-97 -3 -176 -18 -47 -8 -48 -9 -100 -24 -25 -7 -49 -13 -55 -15 -5 -1 -50 -15
-100 -31 l-89 -29 145 -95 c80 -53 152 -107 161 -121 9 -14 23 -31 30 -39 7
-8 33 -40 57 -72 135 -182 325 -390 466 -510 101 -86 90 -77 176 -135 145 -97
278 -153 444 -188 156 -32 327 -21 505 32 193 59 306 133 549 363 183 172 269
241 381 303 57 31 159 67 213 74 36 5 45 2 65 -19 20 -21 23 -35 23 -93 -1
-135 -30 -226 -139 -435 -83 -158 -119 -243 -128 -297 -6 -37 -4 -40 22 -47
16 -5 36 -10 44 -13 8 -3 47 -5 85 -5 106 1 188 45 328 180 129 123 194 177
245 200 49 23 57 24 100 13 55 -14 80 -28 229 -133 108 -76 177 -107 266 -122
18 -3 39 -8 48 -11 17 -5 34 -8 114 -19 22 -3 65 -10 95 -15 87 -15 112 -19
155 -24 22 -3 81 -10 130 -16 50 -6 101 -13 115 -15 14 -2 48 -6 75 -10 71 -9
111 -15 235 -35 150 -24 264 -50 394 -92 122 -38 219 -85 312 -149 83 -58 131
-107 191 -197 41 -61 98 -121 134 -142 12 -7 24 4 57 53 73 109 163 190 297
268 77 45 255 118 325 134 8 2 62 15 120 28 98 23 297 59 400 72 25 3 61 7 80
10 19 3 53 7 75 9 51 7 123 16 155 21 14 2 50 7 80 10 30 3 62 8 70 10 8 2 35
7 60 10 164 21 402 87 527 145 117 55 177 94 250 163 l52 49 43 -17 c80 -31
162 -83 321 -203 178 -134 300 -201 368 -203 91 -3 88 -5 74 49 -13 49 -80
227 -120 317 -12 28 -32 77 -44 110 -12 33 -26 67 -31 76 -24 46 -71 308 -62
350 1 8 24 25 49 37 l47 21 70 -36 c90 -45 218 -133 322 -220 45 -37 132 -111
195 -164 202 -169 334 -250 505 -307 128 -43 226 -59 356 -60 358 -1 630 160
1053 623 261 286 416 430 535 497 51 29 89 63 90 80 0 13 -57 66 -86 81 -41
20 -140 44 -274 66 -51 8 -185 7 -243 -3 -61 -10 -158 -45 -223 -81 -66 -37
-147 -98 -300 -224 -163 -135 -302 -203 -440 -214 l-59 -5 -90 92 c-49 50
-142 152 -205 225 -63 73 -120 139 -126 145 -5 6 -43 49 -84 96 -193 221 -455
465 -598 556 -122 79 -271 134 -359 134 -24 0 -43 1 -43 3 0 2 -36 109 -81
238 -44 129 -105 304 -134 389 -29 85 -65 188 -79 227 -34 98 -37 120 -41 248
-9 287 110 551 359 801 124 124 310 257 422 302 16 7 37 25 46 40 17 30 36 -2
-435 725 -67 104 -126 196 -132 205 -5 9 -32 51 -60 93 -27 43 -86 135 -130
204 -118 188 -108 179 -196 177 -41 -1 -99 -6 -129 -12 -30 -6 -64 -13 -75
-15 -22 -4 -21 -3 -150 -35 -120 -29 -110 -26 -195 -45 -41 -9 -90 -18 -109
-21 -18 -3 -43 -7 -55 -10 -104 -20 -308 -22 -402 -4 -33 6 -70 13 -84 16 -49
10 -166 47 -240 76 -193 77 -360 176 -650 387 -204 149 -357 249 -456 301 -45
23 -101 62 -125 86 -24 24 -46 44 -49 43 -3 0 -30 -21 -61 -47z m150 -794 c31
-24 60 -46 66 -50 5 -4 24 -18 40 -31 191 -148 502 -345 659 -417 131 -60 317
-128 397 -144 206 -42 297 -51 489 -50 161 1 303 11 390 29 13 2 42 7 65 10
22 4 69 13 105 21 36 9 78 18 93 21 16 2 49 10 73 18 42 12 45 12 59 -8 8 -12
15 -25 15 -28 0 -4 47 -115 106 -246 93 -212 103 -239 88 -248 -114 -68 -210
-167 -316 -330 -134 -203 -204 -361 -233 -525 -31 -168 -26 -375 12 -540 8
-36 17 -76 19 -90 17 -88 75 -262 222 -660 46 -126 100 -286 107 -320 2 -8 10
-42 18 -75 33 -125 41 -196 41 -340 1 -145 -7 -194 -44 -306 -97 -292 -292
-460 -688 -593 -73 -25 -136 -45 -140 -46 -4 0 -25 -5 -47 -11 -38 -11 -54
-14 -100 -23 -11 -2 -40 -9 -65 -16 -25 -7 -56 -14 -70 -16 -14 -3 -54 -11
-90 -19 -36 -8 -81 -17 -100 -20 -19 -3 -78 -14 -130 -25 -52 -11 -106 -22
-120 -24 -14 -2 -47 -10 -75 -16 -27 -6 -61 -14 -75 -16 -113 -22 -371 -98
-454 -135 -25 -11 -49 -20 -53 -20 -5 -1 -20 -10 -35 -20 -14 -10 -29 -19 -32
-19 -10 0 -91 -59 -127 -92 -42 -39 -99 -112 -99 -126 0 -6 -12 -20 -26 -31
l-25 -20 -67 70 c-161 172 -423 290 -842 379 -74 16 -146 31 -160 33 -61 11
-115 21 -120 22 -3 1 -23 5 -45 9 -444 85 -657 144 -843 234 -278 135 -456
364 -506 649 -25 138 -17 276 27 493 14 68 84 276 153 455 42 110 92 243 111
295 19 52 39 104 43 115 28 68 91 295 104 375 3 19 8 45 10 57 16 76 23 292
12 348 -2 11 -7 41 -10 67 -10 72 -53 213 -88 287 -104 217 -295 455 -445 553
-66 43 -71 51 -50 83 8 11 42 74 77 140 164 315 169 323 190 320 8 -1 47 -6
85 -9 39 -4 88 -9 110 -12 285 -32 869 -39 1010 -10 11 2 43 7 70 10 463 61
860 278 1132 619 25 31 50 57 56 57 6 0 35 -19 66 -42z"/>
<path d="M5889 8073 c-30 -14 -92 -39 -139 -57 -227 -89 -342 -156 -445 -260
-216 -218 -296 -489 -235 -791 67 -335 219 -564 482 -725 77 -47 284 -142 423
-195 461 -173 732 -293 868 -383 84 -56 152 -130 186 -202 22 -47 26 -69 26
-150 0 -103 -15 -169 -53 -240 -86 -157 -313 -325 -497 -367 -11 -2 -31 -7
-45 -10 -14 -3 -66 -5 -116 -5 -329 0 -708 273 -1012 727 -37 54 -72 108 -78
120 -11 21 -63 114 -71 128 -2 4 -10 4 -16 0 -7 -4 -16 -8 -22 -9 -5 -1 -28
-6 -50 -12 -22 -6 -53 -13 -69 -16 -43 -8 -50 -19 -39 -63 82 -308 264 -970
272 -989 9 -20 13 -21 62 -12 28 5 81 20 118 33 157 56 277 73 391 54 36 -6
151 -33 257 -60 105 -26 204 -51 220 -54 15 -2 39 -7 53 -10 98 -20 250 -26
345 -13 410 54 792 449 879 907 13 68 15 278 4 341 -45 238 -142 406 -313 539
-80 61 -252 171 -270 171 -2 0 -36 15 -77 34 -102 48 -243 103 -448 175 -490
173 -659 258 -783 390 -184 197 -152 532 68 696 48 36 141 83 178 91 10 2 27
6 37 9 72 23 187 23 310 0 45 -9 145 -51 215 -91 246 -142 558 -450 667 -660
35 -67 26 -63 113 -49 17 2 48 7 70 11 22 3 41 7 41 7 1 1 -62 226 -141 500
l-142 498 -141 -86 c-77 -47 -150 -85 -161 -85 -43 0 -173 33 -321 81 -170 56
-234 74 -295 83 -22 4 -54 9 -72 12 -18 3 -66 7 -106 8 -60 2 -85 -2 -128 -21z"/>
</g>
</svg>
