<?xml version="1.0" encoding="utf-8"?>
<!-- Generator: Adobe Illustrator 15.0.0, SVG Export Plug-In . SVG Version: 6.00 Build 0)  -->
<!DOCTYPE svg PUBLIC "-//W3C//DTD SVG 1.1//EN" "http://www.w3.org/Graphics/SVG/1.1/DTD/svg11.dtd">
<svg version="1.1" id="Warstwa_1" xmlns="http://www.w3.org/2000/svg" xmlns:xlink="http://www.w3.org/1999/xlink" x="0px" y="0px"
	 width="425.2px" height="141.73px" viewBox="0 0 425.2 141.73" enable-background="new 0 0 425.2 141.73" xml:space="preserve">
<polygon fill="#282727" points="16.39,12.384 5.555,12.384 5.555,4.002 38.479,4.002 38.479,12.384 27.644,12.384 27.644,42.554 
	16.39,42.554 "/>
<path fill="#282727" d="M41.472,2.208h11.255v13.708c1.036-0.678,2.313-1.236,3.831-1.676c1.515-0.438,3.092-0.658,4.729-0.658
	c3.87,0,6.714,0.908,8.531,2.724c1.814,1.815,2.723,4.619,2.723,8.41v17.839H61.227V25.553c0-1.317-0.28-2.254-0.837-2.813
	c-0.561-0.557-1.518-0.838-2.874-0.838c-0.839,0-1.696,0.19-2.574,0.568c-0.879,0.379-1.618,0.869-2.214,1.468v18.616H41.472V2.208z
	"/>
<path fill="#282727" d="M81.01,39.353c-3.053-2.534-4.581-6.176-4.581-10.925c0-4.629,1.297-8.262,3.892-10.896
	c2.594-2.634,6.385-3.95,11.375-3.95c4.588,0,8.202,1.177,10.835,3.531c2.634,2.355,3.952,5.567,3.952,9.637v4.969H86.787
	c0.479,1.478,1.467,2.545,2.963,3.203c1.498,0.659,3.583,0.989,6.257,0.989c1.595,0,3.221-0.141,4.878-0.42
	c1.656-0.278,3.003-0.638,4.04-1.078v6.765c-2.793,1.316-6.684,1.976-11.673,1.976C88.142,43.154,84.063,41.886,81.01,39.353
	 M96.784,25.614v-1.018c0-2.553-1.576-3.831-4.729-3.831c-1.875,0-3.224,0.4-4.041,1.197c-0.819,0.8-1.228,2.016-1.228,3.651H96.784
	z"/>
<path fill="#282727" d="M131.024,4.003h21.192c3.871,0,6.832,0.92,8.889,2.754c2.054,1.837,3.083,4.471,3.083,7.902
	c0,1.916-0.359,3.573-1.078,4.968c-0.718,1.398-1.696,2.496-2.934,3.294c1.797,0.718,3.143,1.697,4.042,2.932
	c0.898,1.238,1.347,2.994,1.347,5.268c0,3.632-1.117,6.444-3.352,8.44c-2.236,1.996-5.41,2.993-9.519,2.993h-21.67V4.003z
	 M149.163,19.388c2.753,0,4.129-1.236,4.129-3.71c0-1.277-0.349-2.226-1.047-2.844c-0.699-0.619-1.827-0.929-3.382-0.929h-7.004
	v7.483H149.163z M149.642,34.712c1.517,0,2.635-0.318,3.352-0.957c0.719-0.639,1.078-1.695,1.078-3.172
	c0-1.276-0.37-2.226-1.108-2.844c-0.739-0.617-1.925-0.929-3.561-0.929h-7.544v7.902H149.642z"/>
<path fill="#282727" d="M174.962,42.525c-2.315-0.419-4.272-1.007-5.868-1.766V31.48c1.836,0.838,3.851,1.518,6.047,2.036
	c2.193,0.518,4.229,0.778,6.105,0.778c2.156,0,3.702-0.189,4.641-0.569c0.936-0.379,1.405-1.128,1.405-2.245
	c0-0.718-0.229-1.307-0.688-1.766c-0.458-0.458-1.128-0.858-2.005-1.197c-0.879-0.34-2.274-0.809-4.19-1.407
	c-0.639-0.159-1.118-0.3-1.437-0.421c-2.635-0.836-4.699-1.755-6.195-2.751c-1.498-0.999-2.575-2.205-3.233-3.623
	c-0.659-1.416-0.989-3.182-0.989-5.297c0-3.791,1.357-6.675,4.072-8.651c2.712-1.976,6.704-2.962,11.972-2.962
	c2.035,0,4.18,0.17,6.436,0.507c2.254,0.341,4.121,0.749,5.597,1.229v9.338c-3.511-1.396-6.924-2.095-10.237-2.095
	c-2.114,0-3.701,0.16-4.758,0.479s-1.586,1.018-1.586,2.095c0,0.679,0.218,1.218,0.66,1.615c0.438,0.401,1.106,0.749,2.004,1.049
	c0.898,0.299,2.425,0.729,4.579,1.289c3.074,0.836,5.438,1.845,7.094,3.021c1.656,1.179,2.804,2.525,3.442,4.042
	c0.638,1.517,0.958,3.352,0.958,5.507c0,3.591-1.386,6.436-4.16,8.529c-2.774,2.096-6.854,3.144-12.241,3.144
	C179.751,43.153,177.276,42.944,174.962,42.525"/>
<path fill="#282727" d="M206.091,42.525c-2.315-0.419-4.271-1.007-5.867-1.766V31.48c1.836,0.838,3.851,1.518,6.047,2.036
	c2.193,0.518,4.229,0.778,6.105,0.778c2.155,0,3.701-0.189,4.64-0.569c0.938-0.379,1.406-1.128,1.406-2.245
	c0-0.718-0.229-1.307-0.688-1.766c-0.458-0.458-1.128-0.858-2.006-1.197c-0.878-0.34-2.273-0.809-4.189-1.407
	c-0.639-0.159-1.118-0.3-1.438-0.421c-2.634-0.836-4.699-1.755-6.195-2.751c-1.498-0.999-2.574-2.205-3.232-3.623
	c-0.66-1.416-0.989-3.182-0.989-5.297c0-3.791,1.357-6.675,4.072-8.651c2.713-1.976,6.704-2.962,11.971-2.962
	c2.037,0,4.181,0.17,6.437,0.507c2.253,0.341,4.12,0.749,5.597,1.229v9.338c-3.511-1.396-6.925-2.095-10.237-2.095
	c-2.115,0-3.701,0.16-4.758,0.479c-1.058,0.319-1.586,1.018-1.586,2.095c0,0.679,0.218,1.218,0.659,1.615
	c0.438,0.401,1.107,0.749,2.005,1.049c0.897,0.299,2.424,0.729,4.579,1.289c3.073,0.836,5.438,1.845,7.094,3.021
	c1.655,1.179,2.804,2.525,3.442,4.042c0.638,1.517,0.958,3.352,0.958,5.507c0,3.591-1.386,6.436-4.161,8.529
	c-2.772,2.096-6.854,3.144-12.241,3.144C210.879,43.153,208.404,42.944,206.091,42.525"/>
<polygon fill="#282727" points="262.9,12.384 252.066,12.384 252.066,4.002 284.989,4.002 284.989,12.384 274.154,12.384 
	274.154,42.554 262.9,42.554 "/>
<path fill="#282727" d="M279.901,28.367c0-4.828,1.378-8.5,4.13-11.015c2.755-2.513,6.905-3.77,12.453-3.77
	c5.584,0,9.767,1.257,12.539,3.77c2.775,2.515,4.16,6.187,4.16,11.015c0,9.858-5.564,14.787-16.699,14.787
	C285.429,43.154,279.901,38.225,279.901,28.367 M300.464,33.396c0.819-1.037,1.229-2.714,1.229-5.029
	c0-2.274-0.409-3.94-1.229-4.999c-0.818-1.056-2.146-1.586-3.979-1.586c-1.797,0-3.095,0.53-3.894,1.586
	c-0.799,1.058-1.195,2.725-1.195,4.999c0,2.315,0.396,3.992,1.195,5.029c0.799,1.038,2.097,1.556,3.894,1.556
	C298.318,34.952,299.646,34.434,300.464,33.396"/>
<path fill="#282727" d="M319.859,40.31c-1.856-1.895-2.785-4.639-2.785-8.231V14.18h11.255v17.001c0,1.278,0.31,2.215,0.928,2.815
	c0.619,0.597,1.565,0.896,2.843,0.896c0.878,0,1.757-0.199,2.635-0.599c0.876-0.399,1.595-0.897,2.154-1.496V14.18h11.255v28.375
	h-10.536l-0.3-2.156c-2.593,1.837-5.807,2.755-9.638,2.755C324.318,43.154,321.713,42.206,319.859,40.31"/>
<path fill="#282727" d="M353.531,14.18h10.835l0.3,2.274c1.237-0.717,2.742-1.345,4.52-1.884c1.776-0.54,3.561-0.868,5.357-0.987
	v8.38c-1.677,0.12-3.454,0.381-5.328,0.778c-1.876,0.399-3.354,0.858-4.43,1.376v18.438h-11.254V14.18z"/>
<path fill="#282727" d="M11.848,61.81h11.119c2.453,0,4.34,0.589,5.666,1.774c1.324,1.184,1.987,2.79,1.987,4.821
	c0,0.704-0.083,1.438-0.253,2.196c-0.565,2.735-1.742,4.849-3.53,6.341c-1.791,1.496-4.235,2.242-7.335,2.242h-7.863l-2.074,9.851
	H6.099L11.848,61.81z M19.543,76.479c2.169,0,3.839-0.5,5.01-1.501c1.169-1.001,1.951-2.461,2.347-4.377
	c0.195-0.986,0.295-1.732,0.295-2.241c0-1.268-0.387-2.218-1.163-2.852c-0.774-0.635-2.022-0.952-3.742-0.952h-7.524l-2.538,11.923
	H19.543z"/>
<path fill="#282727" d="M33.643,87.641c-1.368-1.212-2.052-2.987-2.052-5.328c0-1.016,0.128-2.113,0.38-3.296
	c0.732-3.495,2.065-6.11,3.996-7.844c1.93-1.733,4.671-2.6,8.224-2.6c2.705,0,4.748,0.614,6.129,1.839
	c1.38,1.227,2.073,2.998,2.073,5.307c0,1.014-0.126,2.112-0.381,3.298c-0.733,3.496-2.065,6.108-3.995,7.842
	c-1.93,1.733-4.687,2.601-8.265,2.601C37.045,89.459,35.009,88.854,33.643,87.641 M45.818,84.724
	c1.253-1.186,2.163-3.086,2.728-5.707c0.28-1.41,0.423-2.511,0.423-3.298c0-1.494-0.417-2.567-1.249-3.213
	c-0.832-0.649-2.219-0.974-4.165-0.974c-2.339,0-4.136,0.594-5.39,1.774c-1.254,1.186-2.164,3.087-2.726,5.71
	c-0.283,1.409-0.423,2.509-0.423,3.296c0,1.495,0.415,2.565,1.246,3.215c0.832,0.648,2.207,0.973,4.123,0.973
	C42.754,86.5,44.564,85.907,45.818,84.724"/>
<path fill="#282727" d="M56.62,88.612c-0.62-0.563-0.93-1.366-0.93-2.409c0-0.508,0.056-1.001,0.168-1.479l5.158-24.184h3.468
	l-5.072,23.803c-0.086,0.453-0.128,0.818-0.128,1.1c0,0.424,0.106,0.712,0.317,0.865c0.211,0.155,0.57,0.233,1.078,0.233
	c0.62,0,1.269-0.083,1.945-0.253l-0.549,2.747c-0.818,0.282-1.776,0.424-2.875,0.424C58.099,89.459,57.239,89.176,56.62,88.612"/>
<path fill="#282727" d="M68.795,89.185c-1.184-0.184-2.17-0.401-2.96-0.655l0.635-3.045c1.86,0.677,3.846,1.014,5.96,1.014
	c1.831,0,3.156-0.188,3.974-0.569c0.817-0.382,1.339-1.091,1.564-2.136c0.056-0.337,0.084-0.563,0.084-0.677
	c0-0.647-0.268-1.141-0.804-1.479c-0.535-0.339-1.535-0.777-3-1.312l-1.143-0.424c-1.634-0.592-2.854-1.211-3.657-1.859
	c-0.802-0.648-1.205-1.55-1.205-2.705c0-0.228,0.056-0.648,0.168-1.269c0.395-1.86,1.275-3.241,2.644-4.143
	c1.366-0.902,3.488-1.354,6.363-1.354c2.113,0,3.945,0.268,5.497,0.803l-0.635,3.045c-0.761-0.282-1.585-0.502-2.474-0.657
	c-0.887-0.153-1.712-0.232-2.472-0.232c-1.72,0-3.011,0.184-3.871,0.549c-0.86,0.367-1.388,1.016-1.584,1.945
	c-0.058,0.281-0.085,0.493-0.085,0.635c0,0.449,0.155,0.824,0.465,1.121c0.31,0.294,0.725,0.549,1.246,0.759
	c0.522,0.212,1.417,0.544,2.686,0.995c1.945,0.649,3.332,1.318,4.165,2.008c0.831,0.691,1.246,1.628,1.246,2.812
	c0,0.479-0.056,0.945-0.167,1.396c-0.424,2.001-1.341,3.453-2.75,4.354c-1.409,0.903-3.55,1.354-6.425,1.354
	C71.135,89.459,69.979,89.367,68.795,89.185"/>
<polygon fill="#282727" points="91.457,60.54 94.924,60.54 91.246,77.832 102.492,68.996 106.508,68.996 96.614,76.943 
	102.745,89.035 99.109,89.035 94.036,78.804 90.442,81.638 88.877,89.035 85.412,89.035 "/>
<path fill="#282727" d="M106.256,82.904c0-0.984,0.126-2.084,0.381-3.297c0.478-2.341,1.295-4.34,2.452-6.003
	c1.155-1.663,2.536-2.917,4.142-3.763c1.608-0.845,3.327-1.269,5.158-1.269c1.269,0,2.369,0.148,3.298,0.444
	c0.932,0.296,1.818,0.784,2.664,1.459l0.296-1.479h3.468l-4.229,20.038h-2.959l0.168-2.113c-1.127,0.873-2.291,1.515-3.488,1.924
	c-1.198,0.408-2.543,0.611-4.036,0.611C108.692,89.457,106.256,87.273,106.256,82.904 M121.434,84.258l2.283-10.907
	c-0.593-0.647-1.283-1.142-2.073-1.479c-0.788-0.339-1.762-0.508-2.917-0.508c-4.595,0-7.47,2.749-8.625,8.244
	c-0.253,1.185-0.38,2.214-0.38,3.087c0,1.438,0.407,2.46,1.227,3.064c0.817,0.606,2.184,0.911,4.101,0.911
	C117.445,86.67,119.574,85.865,121.434,84.258"/>
<rect x="156.106" y="80.052" fill="#282727" width="264.394" height="8.983"/>
<rect x="411.771" y="71.32" fill="#282727" width="8.729" height="8.731"/>
</svg>
