<?xml version="1.0" encoding="utf-8"?>
<!-- Generator: Adobe Illustrator 15.0.0, SVG Export Plug-In . SVG Version: 6.00 Build 0)  -->
<!DOCTYPE svg PUBLIC "-//W3C//DTD SVG 1.1//EN" "http://www.w3.org/Graphics/SVG/1.1/DTD/svg11.dtd">
<svg version="1.1" id="Warstwa_1" xmlns="http://www.w3.org/2000/svg" xmlns:xlink="http://www.w3.org/1999/xlink" x="0px" y="0px"
	 width="566.93px" height="283.46px" viewBox="0 0 566.93 283.46" enable-background="new 0 0 566.93 283.46" xml:space="preserve">
<path fill="#3C3C3B" d="M156.558,175.88h28.186c16.695,0,22.876,6.831,22.876,19.517v9.866c0,12.576-6.723,19.402-23.528,19.402
	h-13.876v23.419h-13.658V175.88z M183.986,187.917h-13.77v24.717h13.77c7.697,0,9.972-2.819,9.972-8.783v-7.37
	C193.958,190.517,191.467,187.917,183.986,187.917"/>
<path fill="#3C3C3B" d="M239.655,206.347c-5.093,2.277-9.215,4.661-13.985,7.696v34.041h-13.225v-52.799h11.165l0.868,5.856
	c2.927-1.954,9.215-5.636,13.876-6.94L239.655,206.347z"/>
<path fill="#3C3C3B" d="M264.326,249.168c-18.107,0-22.984-9.973-22.984-20.816v-13.337c0-10.838,4.877-20.813,22.984-20.813
	c18.104,0,22.98,9.976,22.98,20.813v13.337C287.307,239.195,282.431,249.168,264.326,249.168 M264.326,205.477
	c-7.051,0-9.76,3.147-9.76,9.108v14.199c0,5.966,2.708,9.108,9.76,9.108c7.046,0,9.753-3.143,9.753-9.108v-14.199
	C274.079,208.624,271.372,205.477,264.326,205.477"/>
<path fill="#3C3C3B" d="M309.11,233.883c-1.735,1.084-3.145,2.6-3.145,4.229c0,1.409,0.867,2.058,2.929,2.276
	c5.854,0.646,9.105,0.973,15.285,1.624c8.566,0.977,11.273,5.205,11.273,12.792c0,11.278-4.119,15.723-23.85,15.723
	c-6.073,0-14.418-0.867-20.381-2.715l1.625-9.861c5.639,1.407,11.602,2.274,17.779,2.274c10.518,0,12.578-0.758,12.578-4.226
	c0-3.254-0.977-3.796-4.989-4.229c-6.07-0.651-8.566-0.979-15.285-1.737c-7.478-0.865-10.405-3.358-10.405-10.08
	c0-4.335,2.928-7.157,5.528-8.996c-4.878-2.932-7.154-7.811-7.154-14.204v-4.987c0.216-10.95,5.961-17.563,21.246-17.563
	c3.58,0,6.394,0.433,8.999,1.084h16.263v6.61c-1.843,0.544-4.013,1.089-5.859,1.628c1.198,2.274,1.847,5.205,1.847,8.24v4.987
	c0,10.731-6.506,17.236-21.249,17.236C311.062,233.989,310.088,233.989,309.11,233.883 M312.146,204.828
	c-6.506,0-8.78,2.384-8.78,7.373v4.01c0,5.205,2.601,7.154,8.78,7.154c6.284,0,8.892-2.059,8.892-7.154v-4.01
	C321.037,207.212,318.758,204.828,312.146,204.828"/>
<path fill="#3C3C3B" d="M368.316,206.347c-5.094,2.277-9.215,4.661-13.985,7.696v34.041h-13.225v-52.799h11.164l0.867,5.856
	c2.929-1.954,9.215-5.636,13.876-6.94L368.316,206.347z"/>
<path fill="#3C3C3B" d="M393.594,238.327c5.096,0,10.408-0.758,16.152-2.493l2.063,9.974c-5.966,2.274-13.12,3.36-19.407,3.36
	c-16.588,0-22.332-7.696-22.332-20.382v-13.985c0-11.169,4.983-20.598,21.897-20.598c16.911,0,20.707,9.864,20.707,21.249v11.273
	h-29.38v2.712C383.295,235.834,385.571,238.327,393.594,238.327 M383.295,216.104h16.804v-2.605c0-4.986-1.519-8.456-8.024-8.456
	c-6.503,0-8.779,3.47-8.779,8.456V216.104z"/>
<path fill="#3C3C3B" d="M434.336,249.168c-5.639,0-13.335-1.3-18.214-3.038l1.844-10.08c4.445,1.298,10.297,2.277,15.719,2.277
	c5.854,0,6.722-1.303,6.722-5.314c0-3.252-0.651-4.88-9.216-6.936c-12.901-3.145-14.417-6.398-14.417-16.588
	c0-10.625,4.66-15.288,19.728-15.288c4.879,0,11.278,0.653,15.829,1.845l-1.3,10.515c-4.01-0.758-10.411-1.517-14.529-1.517
	c-5.745,0-6.72,1.301-6.72,4.555c0,4.229,0.328,4.554,7.482,6.394c14.744,3.902,16.153,5.856,16.153,16.694
	C453.417,242.882,450.272,249.168,434.336,249.168"/>
<path fill="#3C3C3B" d="M475.197,249.168c-5.635,0-13.334-1.3-18.214-3.038l1.845-10.08c4.447,1.298,10.299,2.277,15.721,2.277
	c5.854,0,6.722-1.303,6.722-5.314c0-3.252-0.651-4.88-9.215-6.936c-12.901-3.145-14.421-6.398-14.421-16.588
	c0-10.625,4.661-15.288,19.73-15.288c4.88,0,11.278,0.653,15.83,1.845l-1.301,10.515c-4.009-0.758-10.408-1.517-14.529-1.517
	c-5.745,0-6.72,1.301-6.72,4.555c0,4.229,0.326,4.554,7.48,6.394c14.743,3.902,16.153,5.856,16.153,16.694
	C494.279,242.882,491.137,249.168,475.197,249.168"/>
<path fill="#3C3C3B" d="M499.695,172.521h13.225v15.283h-13.225V172.521z M499.695,195.285h13.225v52.797h-13.225V195.285z"/>
<path fill="#3C3C3B" d="M541.623,249.168c-18.107,0-22.984-9.973-22.984-20.816v-13.337c0-10.838,4.877-20.813,22.984-20.813
	c18.104,0,22.981,9.976,22.981,20.813v13.337C564.604,239.195,559.728,249.168,541.623,249.168 M541.623,205.477
	c-7.05,0-9.757,3.147-9.757,9.108v14.199c0,5.966,2.707,9.108,9.757,9.108c7.047,0,9.754-3.143,9.754-9.108v-14.199
	C551.377,208.624,548.67,205.477,541.623,205.477"/>
<path fill="#706F6F" d="M3.267,175.909h28.186c16.695,0,22.874,6.831,22.874,19.517v9.866c0,12.575-6.723,19.401-23.525,19.401
	H16.923v23.42H3.267V175.909z M30.692,187.945H16.923v24.717h13.769c7.696,0,9.975-2.816,9.975-8.78v-7.373
	C40.667,190.548,38.173,187.945,30.692,187.945"/>
<path fill="#706F6F" d="M86.363,206.376c-5.093,2.276-9.215,4.66-13.985,7.695v34.042H59.153v-52.8h11.165l0.868,5.856
	c2.927-1.954,9.215-5.635,13.876-6.94L86.363,206.376z"/>
<path fill="#706F6F" d="M111.033,249.199c-18.107,0-22.983-9.976-22.983-20.819v-13.334c0-10.838,4.875-20.816,22.983-20.816
	c18.104,0,22.981,9.979,22.981,20.816v13.334C134.014,239.224,129.137,249.199,111.033,249.199 M111.033,205.508
	c-7.049,0-9.756,3.145-9.756,9.105v14.202c0,5.964,2.707,9.105,9.756,9.105c7.048,0,9.757-3.142,9.757-9.105v-14.202
	C120.79,208.652,118.081,205.508,111.033,205.508"/>
<polygon fill="#E30613" points="214.465,8.945 166.869,22.271 225.89,97.16 "/>
<polygon fill="#E30613" points="163.06,26.715 171.308,36.869 145.289,78.122 "/>
<polygon fill="#E30613" points="175.117,41.945 164.963,58.446 157.346,107.313 196.063,69.235 "/>
<polygon fill="#E30613" points="152.905,94.622 150.365,113.027 131.962,113.663 "/>
<polygon fill="#E30613" points="136.404,86.372 132.597,98.43 128.152,100.333 124.98,99.063 "/>
<polygon fill="#E30613" points="119.27,104.141 102.769,100.335 110.382,107.949 "/>
<polygon fill="#E30613" points="126.885,120.008 134.499,119.373 128.155,137.144 "/>
<polygon fill="#E30613" points="130.692,148.568 132.597,142.222 142.751,140.951 145.923,148.568 "/>
<polygon fill="#E30613" points="241.121,146.664 244.927,154.276 230.332,154.276 228.427,148.568 "/>
<polygon fill="#E30613" points="215.735,123.815 221.448,144.124 209.389,128.893 "/>
<polygon fill="#E30613" points="208.753,121.911 225.889,107.316 211.925,89.545 "/>
<polygon fill="#E30613" points="220.812,8.945 229.063,79.391 297.605,40.042 274.756,15.289 "/>
<polygon fill="#E30613" points="257.621,70.505 300.776,44.486 335.683,82.564 "/>
<polygon fill="#E30613" points="304.585,83.833 303.949,139.682 331.873,87.64 "/>
<polygon fill="#E30613" points="305.854,148.568 309.663,141.586 317.278,140.951 320.451,149.199 "/>
<polygon fill="#E30613" points="283.642,14.656 342.664,81.294 357.26,8.944 "/>
<polygon fill="#E30613" points="359.8,22.271 347.742,87.007 376.299,118.739 "/>
<polygon fill="#E30613" points="379.473,102.237 383.281,126.354 395.975,140.951 "/>
<polygon fill="#E30613" points="404.858,146.664 409.301,154.276 423.263,154.276 420.09,146.664 "/>
<polygon fill="#E30613" points="364.242,9.58 373.126,65.429 405.494,16.562 "/>
<polygon fill="#E30613" points="402.954,33.062 394.706,52.1 407.396,66.063 435.323,44.486 "/>
<polygon fill="#E30613" points="411.841,17.829 405.494,27.349 437.86,40.042 435.956,33.06 427.072,25.443 "/>
<polygon fill="#E30613" points="419.456,14.021 429.609,11.481 427.705,19.1 "/>
<polygon fill="#E30613" points="421.361,64.159 440.398,48.293 446.745,57.812 434.052,69.871 "/>
</svg>
