<?xml version="1.0" encoding="utf-8"?>
<!-- Generator: Adobe Illustrator 15.0.0, SVG Export Plug-In . SVG Version: 6.00 Build 0)  -->
<!DOCTYPE svg PUBLIC "-//W3C//DTD SVG 1.1//EN" "http://www.w3.org/Graphics/SVG/1.1/DTD/svg11.dtd">
<svg version="1.1" id="Warstwa_1" xmlns="http://www.w3.org/2000/svg" xmlns:xlink="http://www.w3.org/1999/xlink" x="0px" y="0px"
	 width="283.46px" height="141.73px" viewBox="0 0 283.46 141.73" enable-background="new 0 0 283.46 141.73" xml:space="preserve">
<path fill="#FFFFFF" d="M79.25,89.614h14.02c8.305,0,11.379,3.397,11.379,9.706v4.906c0,6.257-3.344,9.654-11.703,9.654h-6.902
	v11.646H79.25V89.614z M92.893,95.598h-6.849v12.297h6.849c3.829,0,4.961-1.401,4.961-4.368v-3.667
	C97.854,96.894,96.614,95.598,92.893,95.598"/>
<path fill="#FFFFFF" d="M120.584,104.766c-2.534,1.134-4.583,2.319-6.957,3.83v16.932h-6.579V99.267h5.553l0.432,2.911
	c1.457-0.97,4.583-2.804,6.902-3.45L120.584,104.766z"/>
<path fill="#FFFFFF" d="M132.856,126.067c-9.007,0-11.433-4.962-11.433-10.354v-6.633c0-5.394,2.426-10.354,11.433-10.354
	c9.005,0,11.43,4.961,11.43,10.354v6.633C144.286,121.105,141.861,126.067,132.856,126.067 M132.856,104.335
	c-3.507,0-4.854,1.564-4.854,4.53v7.063c0,2.967,1.347,4.53,4.854,4.53c3.504,0,4.852-1.563,4.852-4.53v-7.063
	C137.708,105.899,136.36,104.335,132.856,104.335"/>
<path fill="#FFFFFF" d="M155.132,118.465c-0.862,0.538-1.564,1.293-1.564,2.103c0,0.7,0.433,1.023,1.457,1.132
	c2.913,0.324,4.53,0.486,7.604,0.81c4.261,0.485,5.608,2.589,5.608,6.362c0,5.609-2.05,7.819-11.864,7.819
	c-3.019,0-7.172-0.431-10.138-1.348l0.81-4.908c2.803,0.702,5.77,1.133,8.844,1.133c5.231,0,6.256-0.377,6.256-2.103
	c0-1.617-0.486-1.889-2.482-2.104c-3.019-0.322-4.259-0.484-7.603-0.862c-3.721-0.431-5.177-1.672-5.177-5.016
	c0-2.157,1.456-3.561,2.75-4.477c-2.425-1.455-3.559-3.882-3.559-7.063v-2.479c0.108-5.448,2.965-8.737,10.569-8.737
	c1.779,0,3.182,0.215,4.477,0.54h8.088v3.289c-0.917,0.271-1.995,0.538-2.912,0.809c0.594,1.133,0.917,2.589,0.917,4.1v2.479
	c0,5.34-3.235,8.574-10.569,8.574C156.104,118.518,155.617,118.518,155.132,118.465 M156.643,104.012
	c-3.235,0-4.369,1.186-4.369,3.667v1.994c0,2.59,1.294,3.561,4.369,3.561c3.127,0,4.422-1.023,4.422-3.561v-1.994
	C161.064,105.197,159.933,104.012,156.643,104.012"/>
<path fill="#FFFFFF" d="M184.583,104.766c-2.535,1.134-4.584,2.319-6.955,3.83v16.932h-6.58V99.267h5.554l0.431,2.911
	c1.456-0.97,4.584-2.804,6.902-3.45L184.583,104.766z"/>
<path fill="#FFFFFF" d="M197.155,120.676c2.535,0,5.177-0.379,8.035-1.241l1.025,4.962c-2.967,1.131-6.525,1.672-9.652,1.672
	c-8.251,0-11.109-3.829-11.109-10.139v-6.956c0-5.556,2.479-10.247,10.893-10.247s10.301,4.908,10.301,10.57v5.608h-14.614v1.348
	C192.033,119.435,193.165,120.676,197.155,120.676 M192.033,109.62h8.357v-1.295c0-2.48-0.754-4.206-3.989-4.206
	c-3.236,0-4.368,1.726-4.368,4.206V109.62z"/>
<path fill="#FFFFFF" d="M217.421,126.067c-2.804,0-6.632-0.648-9.061-1.51l0.918-5.015c2.211,0.647,5.122,1.132,7.818,1.132
	c2.914,0,3.344-0.646,3.344-2.643c0-1.618-0.323-2.427-4.583-3.451c-6.417-1.564-7.172-3.182-7.172-8.25
	c0-5.285,2.318-7.604,9.815-7.604c2.425,0,5.607,0.322,7.871,0.916l-0.646,5.229c-1.995-0.376-5.178-0.754-7.226-0.754
	c-2.859,0-3.345,0.646-3.345,2.266c0,2.103,0.162,2.264,3.721,3.181c7.335,1.941,8.035,2.911,8.035,8.306
	C226.912,122.939,225.35,126.067,217.421,126.067"/>
<path fill="#FFFFFF" d="M237.747,126.067c-2.803,0-6.632-0.648-9.061-1.51l0.919-5.015c2.21,0.647,5.121,1.132,7.818,1.132
	c2.912,0,3.344-0.646,3.344-2.643c0-1.618-0.324-2.427-4.585-3.451c-6.416-1.564-7.172-3.182-7.172-8.25
	c0-5.285,2.319-7.604,9.816-7.604c2.426,0,5.606,0.322,7.871,0.916l-0.646,5.229c-1.996-0.376-5.179-0.754-7.226-0.754
	c-2.86,0-3.345,0.646-3.345,2.266c0,2.103,0.161,2.264,3.721,3.181c7.334,1.941,8.035,2.911,8.035,8.306
	C247.238,122.939,245.676,126.067,237.747,126.067"/>
<path fill="#FFFFFF" d="M249.932,87.941h6.579v7.604h-6.579V87.941z M249.932,99.267h6.579v26.261h-6.579V99.267z"/>
<path fill="#FFFFFF" d="M270.787,126.067c-9.006,0-11.432-4.962-11.432-10.354v-6.633c0-5.394,2.426-10.354,11.432-10.354
	s11.432,4.961,11.432,10.354v6.633C282.219,121.105,279.793,126.067,270.787,126.067 M270.787,104.335
	c-3.505,0-4.853,1.564-4.853,4.53v7.063c0,2.967,1.348,4.53,4.853,4.53s4.854-1.563,4.854-4.53v-7.063
	C275.641,105.899,274.292,104.335,270.787,104.335"/>
<path fill="#FFFFFF" d="M3,89.628h14.02c8.305,0,11.38,3.396,11.38,9.707v4.907c0,6.255-3.344,9.651-11.703,9.651H9.794v11.648H3
	V89.628z M16.643,95.614H9.794v12.295h6.849c3.829,0,4.961-1.402,4.961-4.368v-3.667C21.604,96.908,20.364,95.614,16.643,95.614"/>
<path fill="#FFFFFF" d="M44.334,104.782c-2.533,1.132-4.583,2.317-6.956,3.828v16.932H30.8V99.28h5.552l0.432,2.912
	c1.456-0.971,4.583-2.805,6.903-3.45L44.334,104.782z"/>
<path fill="#FFFFFF" d="M56.605,126.082c-9.006,0-11.432-4.963-11.432-10.354v-6.634c0-5.392,2.426-10.354,11.432-10.354
	c9.005,0,11.431,4.962,11.431,10.354v6.634C68.037,121.119,65.611,126.082,56.605,126.082 M56.605,104.35
	c-3.506,0-4.854,1.565-4.854,4.53v7.064c0,2.966,1.349,4.529,4.854,4.529c3.505,0,4.853-1.563,4.853-4.529v-7.064
	C61.458,105.915,60.11,104.35,56.605,104.35"/>
<polygon fill="#FFFFFF" points="108.055,6.577 84.379,13.206 113.737,50.457 "/>
<polygon fill="#FFFFFF" points="82.484,15.416 86.588,20.467 73.645,40.986 "/>
<polygon fill="#FFFFFF" points="88.482,22.993 83.431,31.2 79.643,55.507 98.899,36.567 "/>
<polygon fill="#FFFFFF" points="77.433,49.194 76.171,58.349 67.015,58.665 "/>
<polygon fill="#FFFFFF" points="69.226,45.09 67.331,51.087 65.122,52.034 63.543,51.404 "/>
<polygon fill="#FFFFFF" points="60.702,53.929 52.495,52.035 56.283,55.823 "/>
<polygon fill="#FFFFFF" points="64.49,61.821 68.279,61.505 65.122,70.345 "/>
<polygon fill="#FFFFFF" points="66.384,76.027 67.331,72.871 72.382,72.238 73.96,76.027 "/>
<polygon fill="#FFFFFF" points="121.313,75.079 123.207,78.868 115.947,78.868 115,76.027 "/>
<polygon fill="#FFFFFF" points="108.686,63.715 111.528,73.817 105.529,66.24 "/>
<polygon fill="#FFFFFF" points="105.213,62.768 113.737,55.507 106.792,46.669 "/>
<polygon fill="#FFFFFF" points="111.211,6.577 115.315,41.618 149.409,22.045 138.044,9.733 "/>
<polygon fill="#FFFFFF" points="129.521,37.198 150.987,24.255 168.35,43.196 "/>
<polygon fill="#FFFFFF" points="152.882,43.827 152.565,71.607 166.456,45.721 "/>
<polygon fill="#FFFFFF" points="153.513,76.027 155.406,72.553 159.194,72.238 160.774,76.343 "/>
<polygon fill="#FFFFFF" points="142.464,9.418 171.821,42.564 179.082,6.577 "/>
<polygon fill="#FFFFFF" points="180.347,13.206 174.348,45.405 188.554,61.19 "/>
<polygon fill="#FFFFFF" points="190.133,52.982 192.026,64.978 198.339,72.238 "/>
<polygon fill="#FFFFFF" points="202.758,75.079 204.97,78.868 211.915,78.868 210.336,75.079 "/>
<polygon fill="#FFFFFF" points="182.555,6.893 186.975,34.673 203.074,10.365 "/>
<polygon fill="#FFFFFF" points="201.812,18.573 197.708,28.043 204.022,34.988 217.912,24.255 "/>
<polygon fill="#FFFFFF" points="206.231,10.997 203.074,15.731 219.175,22.045 218.228,18.572 213.809,14.785 "/>
<polygon fill="#FFFFFF" points="210.02,9.103 215.07,7.84 214.124,11.628 "/>
<polygon fill="#FFFFFF" points="210.967,34.041 220.438,26.148 223.594,30.884 217.281,36.882 "/>
</svg>
