<?xml version="1.0" standalone="no"?>
<!DOCTYPE svg PUBLIC "-//W3C//DTD SVG 1.1//EN" "http://www.w3.org/Graphics/SVG/1.1/DTD/svg11.dtd" >
<svg>
<metadata>
Created by FontForge 20090914 at Thu Jan 16 18:44:56 2014
 By www-data
Copyright 2011 Dalton Maag Ltd. Modification of this file requires prior written permission from Dalton Maag Ltd.
</metadata>
<defs>
<font id="Foco-Bold" horiz-adv-x="370" >
  <font-face 
    font-family="Foco"
    font-weight="700"
    font-stretch="normal"
    units-per-em="1000"
    panose-1="2 11 8 4 5 2 2 2 2 3"
    ascent="800"
    descent="-200"
    x-height="476.002"
    cap-height="674"
    bbox="-198.999 -231.003 1155 927"
    underline-thickness="20"
    underline-position="-113"
    unicode-range="U+0008-U+FB04"
  />
<missing-glyph horiz-adv-x="500" 
d="M50 0v750h400v-750h-400zM400 50v650h-300v-650h300z" />
    <glyph glyph-name="f_f" unicode="ff" horiz-adv-x="660" 
d="M672 572c-11.333 11.333 -25.5 20.6631 -42.5 27.9961s-36.167 11 -57.5 11c-25.333 0 -45.5 -6.66699 -60.5 -20s-22.5 -36 -22.5 -68v-47h160v-103h-160v-373h-135v373h-155v-373h-135v519c0 64.667 17 113.834 51 147.501s83 50.5 147 50.5
c28 0 54.5 -3.16699 79.5 -9.5s49.833 -17.166 74.5 -32.499c32.667 28 78 42 136 42c24 0 48.167 -2.66699 72.5 -8s44.5 -13.333 60.5 -24c16.667 -10.667 25 -24.667 25 -42c0 -9.33301 -4 -20.666 -12 -33.999s-16.667 -25.666 -26 -36.999zM354 518.997
c0 21.333 2.66699 44.333 8 69c-21.333 15.333 -48 23 -80 23c-25.333 0 -45.5 -6.66699 -60.5 -20s-22.5 -36 -22.5 -68v-47h155v43z" />
    <glyph glyph-name="f_i" unicode="fi" horiz-adv-x="556" 
d="M492 -6c-1.33301 -0.666992 -6.66309 -1.50098 -15.9961 -2.50098s-19.333 -1.5 -30 -1.5s-21.334 1.16699 -32.001 3.5s-20.334 6.66602 -29.001 12.999s-15.667 14.833 -21 25.5s-8 24.334 -8 41.001v300h-157v-373h-135v504c0 26 2 49.667 6 71
c9.33301 46 32.333 81.167 69 105.5s85 36.5 145 36.5c25.333 0 50.666 -2.33301 75.999 -7s46.666 -11.667 63.999 -21c24 -13.333 36 -29 36 -47c0 -11.333 -3.33301 -24 -10 -38s-14.667 -26.333 -24 -37c-11.333 11.333 -28.5 21.5 -51.5 30.5s-48.5 13.5 -76.5 13.5
c-32 0 -56.5 -7.16699 -73.5 -21.5s-25.5 -41.166 -25.5 -80.499v-33h293v-482z" />
    <glyph glyph-name="f_l" unicode="fl" horiz-adv-x="563" 
d="M499 -6c-1.33301 -0.666992 -6.66504 -1.49805 -15.998 -2.49805s-19.333 -1.5 -30 -1.5s-21.334 1.16699 -32.001 3.5s-20.334 6.66602 -29.001 12.999s-15.667 14.833 -21 25.5s-8 24.334 -8 41.001v524c-20 8.66699 -44.333 13 -73 13c-28 0 -50.167 -7 -66.5 -21
s-24.5 -39.667 -24.5 -77v-36h117v-103h-117v-373h-135v508c0 15.333 0.833008 30.166 2.5 44.499s4.16699 27.166 7.5 38.499c12 40 37.5 71 76.5 93s85.5 33 139.5 33c44 0 82.833 -4 116.5 -12s64.5 -18.333 92.5 -31v-680z" />
    <glyph glyph-name="f_f_i" unicode="ffi" horiz-adv-x="850" 
d="M786 -6c-1.33301 -0.666992 -6.66406 -1.50293 -15.9971 -2.50293s-19.333 -1.5 -30 -1.5s-21.334 1.16699 -32.001 3.5s-20.334 6.66602 -29.001 12.999s-15.667 14.833 -21 25.5s-8 24.334 -8 41.001v300h-157v-373h-135v373h-159v-373h-135v519
c0 64.667 17 113.834 51 147.501s83 50.5 147 50.5c24 0 49.833 -3.16699 77.5 -9.5s55.5 -18.166 83.5 -35.499c38.667 30 90.334 45 155.001 45c25.333 0 50.666 -2.33301 75.999 -7s46.666 -11.667 63.999 -21c24 -13.333 36 -29 36 -47c0 -11.333 -3.33301 -24 -10 -38
s-14.667 -26.333 -24 -37c-11.333 11.333 -28.5 21.5 -51.5 30.5s-48.5 13.5 -76.5 13.5c-32 0 -56.5 -7.16699 -73.5 -21.5s-25.5 -41.166 -25.5 -80.499v-33h293v-482zM358.002 503.997c0 28.667 3 55.667 9 81c-11.333 8 -24 14.333 -38 19s-29.667 7 -47 7
c-25.333 0 -45.5 -6.66699 -60.5 -20s-22.5 -36 -22.5 -68v-47h159v28z" />
    <glyph glyph-name="f_f_l" unicode="ffl" horiz-adv-x="856" 
d="M792 -6c-1.33301 -0.666992 -6.66504 -1.50098 -15.998 -2.50098s-19.333 -1.5 -30 -1.5s-21.334 1.16699 -32.001 3.5s-20.334 6.66602 -29.001 12.999s-15.667 14.833 -21 25.5s-8 24.334 -8 41.001v524c-20 8.66699 -44.333 13 -73 13c-28 0 -50.167 -7 -66.5 -21
s-24.5 -39.667 -24.5 -77v-36h117v-103h-117v-373h-135v373h-158v-373h-135v519c0 64.667 17 113.834 51 147.501s83 50.5 147 50.5c23.333 0 49.5 -3 78.5 -9s57.5 -17.667 85.5 -35c20 14 43.167 24.833 69.5 32.5s55.5 11.5 87.5 11.5c44 0 82.833 -4 116.5 -12
s64.5 -18.333 92.5 -31v-680zM199.001 475.999l158.001 0.000976562v32c0 14 0.5 27.667 1.5 41s3.16699 25.666 6.5 36.999c-11.333 7.33301 -23.833 13.333 -37.5 18s-28.834 7 -45.501 7c-25.333 0 -45.5 -6.66699 -60.5 -20s-22.5 -36 -22.5 -68v-47z" />
    <glyph glyph-name=".notdef" horiz-adv-x="500" 
d="M50 0v750h400v-750h-400zM400 50v650h-300v-650h300z" />
    <glyph glyph-name=".null" horiz-adv-x="0" 
 />
    <glyph glyph-name=".null" horiz-adv-x="0" 
 />
    <glyph glyph-name=".null" horiz-adv-x="0" 
 />
    <glyph glyph-name="nonmarkingreturn" unicode="&#x9;" horiz-adv-x="230" 
 />
    <glyph glyph-name="nonmarkingreturn" unicode="&#xd;" horiz-adv-x="230" 
 />
    <glyph glyph-name="space" unicode=" " horiz-adv-x="230" 
 />
    <glyph glyph-name="exclam" unicode="!" horiz-adv-x="281" 
d="M215 59c0 -21.333 -6.83203 -39 -20.499 -53s-31.834 -21 -54.501 -21c-22 0 -39.833 7 -53.5 21s-20.5 31.667 -20.5 53s6.83301 38.833 20.5 52.5s31.5 20.5 53.5 20.5s40 -6.83301 54 -20.5s21 -31.167 21 -52.5zM205.001 189
c-12 -2 -21.332 -3.16797 -27.999 -3.50098s-12.667 -0.5 -18 -0.5c-10.667 0 -21.334 1.33301 -32.001 4s-20.334 7.33398 -29.001 14.001s-15.667 15.5 -21 26.5s-8 24.833 -8 41.5v397c10.667 1.33301 19.667 2.33301 27 3s13.666 1 18.999 1
c10.667 0 21.334 -1.16699 32.001 -3.5s20.334 -6.5 29.001 -12.5s15.667 -14.167 21 -24.5s8 -23.833 8 -40.5v-402z" />
    <glyph glyph-name="quotedbl" unicode="&#x22;" horiz-adv-x="362" 
d="M220 678l11.999 1.99902c4 0.666992 8.5 1.33398 13.5 2.00098s10.5 1 16.5 1c18.667 0 32.834 -5 42.501 -15s14.5 -22.667 14.5 -38v-6l-10 -199h-89v253zM46.999 677.999l11.999 1.99902c4 0.666992 8.5 1.33398 13.5 2.00098s10.5 1 16.5 1
c18.667 0 32.834 -5 42.501 -15s14.5 -22.667 14.5 -38v-6l-10 -199h-89v253z" />
    <glyph glyph-name="numbersign" unicode="#" horiz-adv-x="666" 
d="M465 181l-21 -155h-95l22 155h-118l-21 -155h-95l22 155h-128l10 74h128l18 129h-128l11 74h128l21 148h94l-21 -148h118l21 148h94l-22 -148h134l-10 -74h-133l-19 -129h133l-10 -74h-133zM400 384h-119l-18 -129h118z" />
    <glyph glyph-name="dollar" unicode="$" horiz-adv-x="549" 
d="M92 154c17.333 -14 38.832 -28.167 64.499 -42.5s56.167 -21.5 91.5 -21.5c13.333 0 26.333 1.5 39 4.5s23.834 7.83301 33.501 14.5s17.5 15.667 23.5 27s9 25 9 41s-2.83301 29.833 -8.5 41.5s-13.5 21.667 -23.5 30s-21.833 15.5 -35.5 21.5
s-28.834 11.333 -45.501 16c-24 6.66699 -47 14.834 -69 24.501s-41.5 22 -58.5 37s-30.5 33.167 -40.5 54.5s-15 47 -15 77c0 47.333 13.5 86.166 40.5 116.499s61.167 51.5 102.5 63.5v100h61v-89c3.33301 0 7 0.166992 11 0.5s8 0.5 12 0.5h10
c3.33301 0 6.66602 -0.333008 9.99902 -1v89h61v-98c20.667 -5.33301 38.167 -11.166 52.5 -17.499s24.833 -11.833 31.5 -16.5c17.333 -11.333 26 -26 26 -44c0 -8 -3.33301 -19 -10 -33s-16 -27.667 -28 -41c-15.333 13.333 -35.666 25.833 -60.999 37.5
s-52 17.5 -80 17.5c-11.333 0 -23 -1 -35 -3s-23 -5.66699 -33 -11s-18.167 -12.833 -24.5 -22.5s-9.5 -21.834 -9.5 -36.501c0 -13.333 2.33301 -24.833 7 -34.5s11.834 -18.167 21.501 -25.5s22 -14 37 -20s32.833 -12.333 53.5 -19c24 -8 46.5 -17.333 67.5 -28
s39.5 -23.667 55.5 -39s28.667 -33.333 38 -54s14 -45 14 -73c0 -48 -11 -88.333 -33 -121s-52 -57 -90 -73v-108h-61v92c-7.33301 -1.33301 -14.5 -2.33301 -21.5 -3l-21.5 -2v-87h-61v90c-32 3.33301 -58 8.83301 -78 16.5s-35 14.834 -45 21.501
c-7.33301 5.33301 -13.5 11.666 -18.5 18.999s-7.5 15.666 -7.5 24.999c0 10.667 4.33301 24.334 13 41.001s18 31.667 28 45z" />
    <glyph glyph-name="percent" unicode="%" horiz-adv-x="832" 
d="M362 509c0 -56.667 -14.667 -100.334 -44 -131.001s-68 -46 -116 -46c-50.667 0 -90.167 15.333 -118.5 46s-42.5 74.334 -42.5 131.001s15 100 45 130s68.333 45 115 45c50 0 89.333 -15 118 -45s43 -73.333 43 -130zM262 510c0 30 -4.33301 53.833 -13 71.5
s-24.667 26.5 -48 26.5c-22.667 0 -38.167 -9 -46.5 -27s-12.5 -42 -12.5 -72c0 -30.667 4.33301 -55.167 13 -73.5s24 -27.5 46 -27.5c23.333 0 39.333 9 48 27s13 43 13 75zM791 160c0 -56.667 -14.665 -100.335 -43.998 -131.002s-68 -46 -116 -46
c-50 0 -89.333 15.333 -118 46s-43 74.334 -43 131.001c0 28 4 53 12 75s19.167 40.333 33.5 55s31.166 25.834 50.499 33.501s40.666 11.5 63.999 11.5c50 0 89.333 -15 118 -45s43 -73.333 43 -130zM691.002 160.999c0 30 -4.33301 53.833 -13 71.5s-24.667 26.5 -48 26.5
c-22 0 -37.333 -9 -46 -27s-13 -42 -13 -72c0 -30.667 4.33301 -55.167 13 -73.5s24 -27.5 46 -27.5c24 0 40.167 9 48.5 27s12.5 43 12.5 75zM269.002 -0.000976562h-111.001l378 627c10 16.667 20 30.167 30 40.5s25.667 15.5 47 15.5
c6.66699 0 13.834 -0.333008 21.501 -1s14.167 -1.66699 19.5 -3l19 -4z" />
    <glyph glyph-name="ampersand" unicode="&#x26;" horiz-adv-x="735" 
d="M691 13c-23.333 -13.333 -47.3281 -19.998 -71.9951 -19.998c-32.667 0 -58.834 7 -78.501 21s-37.834 32.667 -54.501 56c-23.333 -25.333 -51.333 -45.833 -84 -61.5s-74.334 -23.5 -125.001 -23.5c-41.333 0 -76.666 5.5 -105.999 16.5s-53.166 25.833 -71.499 44.5
s-31.833 40.5 -40.5 65.5s-13 51.167 -13 78.5c0 30.667 5.16699 58.334 15.5 83.001s23.5 46.167 39.5 64.5s33.833 34 53.5 47s39.167 23.5 58.5 31.5c-12.667 17.333 -22.334 34.166 -29.001 50.499s-10 36.833 -10 61.5c0 24 5 45.333 15 64s23.667 34.667 41 48
s37.666 23.5 60.999 30.5s48.666 10.5 75.999 10.5c30 0 55.167 -2.83301 75.5 -8.5s37.166 -12.834 50.499 -21.501c24.667 -14.667 37 -30.334 37 -47.001c0 -12 -3.66699 -24.167 -11 -36.5s-16 -24.833 -26 -37.5c-20.667 17.333 -39 29.5 -55 36.5s-32 10.5 -48 10.5
c-22.667 0 -40 -5.5 -52 -16.5s-18 -26.5 -18 -46.5c0 -13.333 2.83301 -26.5 8.5 -39.5s13.167 -25.167 22.5 -36.5l141 -181c12 24.667 20 52.167 24 82.5s6 60.5 6 90.5h192v-85h-88c-4 -68.667 -23 -128 -57 -178zM286.005 91.002c28 0 51.668 5.33203 71.001 15.999
s38.333 26 57 46l-142 178c-12.667 -5.33301 -24.834 -12 -36.501 -20s-22 -17.667 -31 -29s-16.167 -24.166 -21.5 -38.499s-8 -30.5 -8 -48.5c0 -32 9.5 -57.333 28.5 -76s46.5 -28 82.5 -28z" />
    <glyph glyph-name="quotesingle" unicode="'" horiz-adv-x="189" 
d="M47 678l11.999 1.99902c4 0.666992 8.5 1.33398 13.5 2.00098s10.5 1 16.5 1c18.667 0 32.834 -5 42.501 -15s14.5 -22.667 14.5 -38v-6l-10 -199h-89v253z" />
    <glyph glyph-name="parenleft" unicode="(" horiz-adv-x="321" 
d="M51 303c0 82.667 10.999 155.499 32.999 218.499s50 111.5 84 145.5c31.333 31.333 64.666 47 99.999 47c10 0 18.333 -0.833008 25 -2.5s12.334 -3.83398 17.001 -6.50098c-8 -11.333 -18.5 -27.5 -31.5 -48.5s-25.667 -47.667 -38 -80s-23 -71.166 -32 -116.499
s-13.5 -98 -13.5 -158c0 -68.667 6.16699 -128.167 18.5 -178.5s26.166 -93.5 41.499 -129.5c17.333 -42.667 37.333 -78 60 -106c-6.66699 -4 -14.167 -6.83301 -22.5 -8.5s-16.166 -2.5 -23.499 -2.5c-17.333 0 -33.833 3.33301 -49.5 10s-32.167 18.334 -49.5 35.001
c-15.333 14.667 -30.166 33 -44.499 55s-27 48.5 -38 79.5s-19.833 66.833 -26.5 107.5s-10 87 -10 139z" />
    <glyph glyph-name="parenright" unicode=")" horiz-adv-x="321" 
d="M270 303c0 -52 -3.33398 -98.332 -10.001 -138.999s-15.5 -76.5 -26.5 -107.5s-23.667 -57.5 -38 -79.5s-29.166 -40.333 -44.499 -55c-17.333 -16.667 -33.833 -28.334 -49.5 -35.001s-32.167 -10 -49.5 -10c-7.33301 0 -15.166 0.833008 -23.499 2.5
s-15.833 4.5 -22.5 8.5c22.667 28 42.667 63.333 60 106c15.333 36 29.166 79.167 41.499 129.5s18.5 109.833 18.5 178.5c0 60 -4.5 112.667 -13.5 158s-19.667 84.166 -32 116.499s-25 59 -38 80s-23.5 37.167 -31.5 48.5c4.66699 2.66699 10.334 4.83398 17.001 6.50098
s15 2.5 25 2.5c35.333 0 68.666 -15.667 99.999 -47c34 -34 62 -82.5 84 -145.5s33 -135.833 33 -218.5z" />
    <glyph glyph-name="asterisk" unicode="*" horiz-adv-x="411" 
d="M55 554c-10.667 4.66699 -16.001 13.667 -16.001 27c0 7.33301 2.33301 15.333 7 24c8.66699 16 19.667 24 33 24c4.66699 0 9.33398 -1.33301 14.001 -4c6 -4 13 -9.33301 21 -16l32 -29c12 -11.333 18 -21 18 -29c0 -4 -1 -8 -3 -12
c-2.66699 -4.66699 -5.66699 -7.66699 -9 -9s-7 -2 -11 -2c-3.33301 0 -7 0.333008 -11 1s-7.66699 1.66699 -11 3l-38 12l-13.5 4.5c-5 1.66699 -9.16699 3.5 -12.5 5.5zM92.999 401c-5.33301 -3.33301 -10.998 -4.99902 -16.998 -4.99902c-12 0 -22.667 7.66699 -32 23
c-5.33301 9.33301 -8 18 -8 26c0 11.333 4.66699 19.666 14 24.999c3.33301 1.33301 6.66602 2.83301 9.99902 4.5s8.33301 3.5 15 5.5l41 13c10 3.33301 17 5 21 5c10 0 17.333 -4.33301 22 -13c2 -4 3 -7.66699 3 -11c0 -5.33301 -1.83301 -10.333 -5.5 -15
s-7.83398 -9 -12.501 -13l-30 -27c-2.66699 -3.33301 -6 -6.83301 -10 -10.5s-7.66699 -6.16699 -11 -7.5zM247.001 360.001c0 -8.66699 -2.99805 -16.335 -8.99805 -23.002s-16.333 -10 -31 -10c-14 0 -24.333 2.83301 -31 8.5s-10 12.834 -10 21.501c0 8 1.33301 17 4 27
l9 42c2 10.667 5 18.834 9 24.501s10.333 8.5 19 8.5c9.33301 0 15.666 -3.33301 18.999 -10s5.66602 -14 6.99902 -22l9 -40c1.33301 -3.33301 2.5 -7.83301 3.5 -13.5s1.5 -10.167 1.5 -13.5zM318.003 403c-3.33301 1.33301 -6.83203 3.83398 -10.499 7.50098l-10.5 10.5
l-31 27c-4.66699 4 -8.66699 8.16699 -12 12.5s-5 9.16602 -5 14.499c0 4 1 8 3 12c4.66699 8.66699 12 13 22 13c4 0 11 -1.66699 21 -5l41 -13c6 -2 10.833 -3.83301 14.5 -5.5s7.16699 -3.16699 10.5 -4.5c9.33301 -5.33301 14 -13.333 14 -24c0 -8 -3 -17 -9 -27
c-4.66699 -8 -9.83398 -13.667 -15.501 -17s-11.167 -5 -16.5 -5c-6 0 -11.333 1.33301 -16 4zM358.004 553.001c-3.33301 -2 -7.66895 -3.83203 -13.002 -5.49902s-9.66602 -3.16699 -12.999 -4.5l-39 -12c-3.33301 -1.33301 -7 -2.33301 -11 -3s-7.66699 -1 -11 -1
c-4 0 -7.66699 0.666992 -11 2s-6.33301 4.33301 -9 9c-2 4 -3 8.33301 -3 13c0 5.33301 1.66699 10 5 14s8 8.66699 14 14l31 29c6.66699 6 12.834 10.833 18.501 14.5s11.5 5.5 17.5 5.5c12 0 22.667 -8 32 -24c5.33301 -9.33301 8 -17.333 8 -24
c0 -6 -1.5 -11.333 -4.5 -16s-6.83301 -8.33398 -11.5 -11.001zM248.001 672.002c0 -3.33301 -0.501953 -7.83398 -1.50195 -13.501s-2.16699 -10.167 -3.5 -13.5l-9 -40c-1.33301 -8 -3.66602 -15.333 -6.99902 -22s-9.66602 -10 -18.999 -10
c-8.66699 0 -15 2.83301 -19 8.5s-7 13.834 -9 24.501l-9 42c-2.66699 10 -4 19 -4 27c0 8.66699 3.33301 15.834 10 21.501s17 8.5 31 8.5c14.667 0 25 -3.33301 31 -10s9 -14.334 9 -23.001z" />
    <glyph glyph-name="plus" unicode="+" horiz-adv-x="549" 
d="M338 279v-169h-117v168h-160v113h160v171h117v-171h160v-112h-160z" />
    <glyph glyph-name="comma" unicode="," horiz-adv-x="241" 
d="M120 131c25.333 0 44.333 -9 57 -27s19 -39.667 19 -65c0 -18 -3 -37 -9 -57s-14.333 -38.167 -25 -54.5s-23 -30 -37 -41s-29 -16.5 -45 -16.5c-11.333 0 -21.5 2.83301 -30.5 8.5s-15.5 14.167 -19.5 25.5c13.333 6 26.833 16 40.5 30s21.167 31 22.5 51
c-9.33301 7.33301 -18.833 17 -28.5 29s-14.5 28.667 -14.5 50c0 16 5.83301 31.167 17.5 45.5s29.167 21.5 52.5 21.5z" />
    <glyph glyph-name="hyphen" unicode="-" horiz-adv-x="456" 
d="M137 228c-48 0 -72 20.999 -72 62.999c0 14.667 1 29 3 43h250c22 0 40 -3.66699 54 -11s21 -24.666 21 -51.999c0 -7.33301 -0.166992 -14.5 -0.5 -21.5s-0.833008 -14.167 -1.5 -21.5h-254z" />
    <glyph glyph-name="period" unicode="." horiz-adv-x="248" 
d="M198 60c0 -21.333 -6.66699 -39.166 -20 -53.499s-31.333 -21.5 -54 -21.5c-22 0 -39.833 7.16699 -53.5 21.5s-20.5 32.166 -20.5 53.499s7 38.833 21 52.5s31.667 20.5 53 20.5s39 -6.83301 53 -20.5s21 -31.167 21 -52.5z" />
    <glyph glyph-name="slash" unicode="/" horiz-adv-x="400" 
d="M133 0h-127l240 616c7.33301 18 17.5 32.167 30.5 42.5s31.167 15.5 54.5 15.5c5.33301 0 12.5 -0.333008 21.5 -1s16.167 -1.66699 21.5 -3l17 -4z" />
    <glyph glyph-name="zero" unicode="0" horiz-adv-x="549" 
d="M521 327c0 -109.333 -20 -193.667 -60 -253s-102 -89 -186 -89c-84.667 0 -147.167 28.5 -187.5 85.5s-60.5 142.5 -60.5 256.5c0 52.667 5.16699 100.167 15.5 142.5s26 78.5 47 108.5s47.333 53 79 69s68.5 24 110.5 24c43.333 0 80.333 -7.83301 111 -23.5
s55.667 -38.167 75 -67.5s33.5 -65.333 42.5 -108s13.5 -91 13.5 -145zM386 326.999c0 44 -2.5 81.166 -7.5 111.499s-12.167 54.666 -21.5 72.999s-20.833 31.666 -34.5 39.999s-29.167 12.5 -46.5 12.5s-33 -4.16699 -47 -12.5s-25.833 -21.666 -35.5 -39.999
s-17 -42.666 -22 -72.999s-7.5 -67.5 -7.5 -111.5c0 -43.333 2.5 -80 7.5 -110s12.333 -54.167 22 -72.5s21.5 -31.666 35.5 -39.999s29.667 -12.5 47 -12.5s32.833 4 46.5 12s25.167 21.167 34.5 39.5s16.5 42.5 21.5 72.5s7.5 67 7.5 111z" />
    <glyph glyph-name="one" unicode="1" horiz-adv-x="549" 
d="M260 0l0.00390625 504.998l-131 -66c-9.33301 12.667 -18.5 26.334 -27.5 41.001s-13.5 28.334 -13.5 41.001c0 8 2.5 16 7.5 24s13.167 15 24.5 21l142 74c13.333 6.66699 26.166 12.5 38.499 17.5s25.166 7.5 38.499 7.5s24.666 -1.83301 33.999 -5.5
s16.666 -7.16699 21.999 -10.5v-649h-135z" />
    <glyph glyph-name="two" unicode="2" horiz-adv-x="549" 
d="M54 0l0.000976562 96.001c12.667 10 27.334 22.333 44.001 37l52.5 48l56 54.5c19 19 37.167 38.167 54.5 57.5c26 28.667 46.833 57 62.5 85s23.5 57 23.5 87c0 18 -2.83301 33 -8.5 45s-13 21.5 -22 28.5s-19.167 12 -30.5 15s-23 4.5 -35 4.5
c-34 0 -63.833 -7.66699 -89.5 -23s-48.834 -32.666 -69.501 -51.999c-13.333 15.333 -24.5 30 -33.5 44s-13.5 25.667 -13.5 35c0 8 2.33301 15.333 7 22s10.334 12.667 17.001 18s15.834 12 27.501 20s25.667 15.667 42 23s35.166 13.5 56.499 18.5s45.333 7.5 72 7.5
c30 0 58.333 -3.66699 85 -11s49.667 -18.666 69 -33.999s34.666 -35.5 45.999 -60.5s17 -54.833 17 -89.5c0 -24.667 -4 -48.834 -12 -72.501s-18.5 -46.834 -31.5 -69.501s-27.833 -44.334 -44.5 -65.001s-34 -40.334 -52 -59.001l-55 -55.5
c-18 -17.667 -34.667 -33.167 -50 -46.5h191c16 0 29.167 -2.16699 39.5 -6.5s18.666 -10 24.999 -17s10.833 -14.667 13.5 -23s4 -16.833 4 -25.5c0 -7.33301 -0.166992 -13.666 -0.5 -18.999s-0.833008 -11 -1.5 -17h-456z" />
    <glyph glyph-name="three" unicode="3" horiz-adv-x="549" 
d="M482 192c0 -30 -4.83105 -57.8311 -14.498 -83.498s-24.5 -47.834 -44.5 -66.501s-45.167 -33.167 -75.5 -43.5s-65.833 -15.5 -106.5 -15.5c-26 0 -49 1.66699 -69 5s-37.5 7.16602 -52.5 11.499s-27.667 9.16602 -38 14.499s-18.833 10 -25.5 14
c-20 11.333 -30 26.333 -30 45s13.667 48.334 41 89.001c7.33301 -7.33301 16.5 -15.333 27.5 -24s23.5 -16.5 37.5 -23.5s29.333 -12.833 46 -17.5s34.667 -7 54 -7c14.667 0 28.667 1.83301 42 5.5s25.166 9.83398 35.499 18.501s18.666 19.667 24.999 33
s9.5 29.666 9.5 48.999c0 22 -4.33301 39.667 -13 53s-19 23.333 -31 30s-24.5 11 -37.5 13s-23.833 3 -32.5 3h-51v101h51c8.66699 0 18.667 1.33301 30 4s22 7.16699 32 13.5s18.5 15.333 25.5 27s10.5 26.5 10.5 44.5c0 26.667 -8.16699 46.167 -24.5 58.5
s-39.833 18.5 -70.5 18.5c-17.333 0 -33.166 -2 -47.499 -6s-27.833 -9.16699 -40.5 -15.5s-24.5 -13.333 -35.5 -21s-21.5 -15.5 -31.5 -23.5c-13.333 12 -24.333 25.333 -33 40s-13 26.667 -13 36s2.66699 17.166 8 23.499s11 12.166 17 17.499
c6.66699 5.33301 15.834 11.333 27.501 18s25.667 13 42 19s35.166 11 56.499 15s45 6 71 6c36.667 0 68.5 -4.33301 95.5 -13s49.167 -20.5 66.5 -35.5s30.166 -32.667 38.499 -53s12.5 -42.5 12.5 -66.5c0 -23.333 -3.66699 -43.666 -11 -60.999
s-16.166 -32.166 -26.499 -44.499s-21.333 -22.333 -33 -30s-21.834 -13.5 -30.501 -17.5c10.667 -4 22.667 -9.5 36 -16.5s26 -16.5 38 -28.5s22 -27.167 30 -45.5s12 -40.833 12 -67.5z" />
    <glyph glyph-name="four" unicode="4" horiz-adv-x="549" 
d="M38 159l0.000976562 91.001l254 352c10 14 22.833 27.667 38.5 41s36.167 20 61.5 20c8.66699 0 18.667 -1.5 30 -4.5s19.666 -6.5 24.999 -10.5v-390h31c19.333 0 32.833 -4.33301 40.5 -13s11.5 -20.334 11.5 -35.001c0 -6 -0.333008 -11.833 -1 -17.5l-2 -16.5l-2 -17
h-78v-159h-136v159h-273zM311.001 261.001v222l-165 -222h165z" />
    <glyph glyph-name="five" unicode="5" horiz-adv-x="549" 
d="M211 551l-13.9961 -127.999c9.33301 2 21 4.16699 35 6.5s28 3.5 42 3.5c32.667 0 62.5 -4.16699 89.5 -12.5s50.333 -21.333 70 -39s34.834 -40 45.501 -67s16 -59.167 16 -96.5c0 -32 -5 -62 -15 -90s-25.167 -52.667 -45.5 -74s-46 -38.166 -77 -50.499
s-67.5 -18.5 -109.5 -18.5c-28 0 -52.667 1.66699 -74 5s-39.833 7.5 -55.5 12.5s-28.334 10.333 -38.001 16s-16.834 10.5 -21.501 14.5c-6.66699 4.66699 -12.667 10.5 -18 17.5s-8 14.833 -8 23.5s3.83301 21.167 11.5 37.5s18.167 34.166 31.5 53.499
c7.33301 -7.33301 16.666 -15 27.999 -23s24.166 -15.5 38.499 -22.5s30 -12.833 47 -17.5s35.167 -7 54.5 -7c14 0 27.833 2.16699 41.5 6.5s25.834 11.166 36.501 20.499s19.167 21.333 25.5 36s9.5 32.334 9.5 53.001c0 25.333 -4.16699 45.666 -12.5 60.999
s-18.833 27.166 -31.5 35.499s-26.334 13.833 -41.001 16.5s-28 4 -40 4c-22 0 -42.167 -2 -60.5 -6s-35.5 -9.66699 -51.5 -17l-47 20l35 338h359c1.33301 -7.33301 2.16602 -13.5 2.49902 -18.5s0.5 -11.167 0.5 -18.5c0 -23.333 -6 -41.666 -18 -54.999
s-34.333 -20 -67 -20h-174z" />
    <glyph glyph-name="six" unicode="6" horiz-adv-x="549" 
d="M509 231c0 -40.667 -5.99609 -76.334 -17.9961 -107.001s-28.333 -56.5 -49 -77.5s-45 -36.833 -73 -47.5s-58.333 -16 -91 -16c-40.667 0 -76 6.83301 -106 20.5s-54.833 33.167 -74.5 58.5s-34.334 56 -44.001 92s-14.5 76.333 -14.5 121
c0 68 9.66699 126.833 29 176.5s44.5 90.834 75.5 123.501s66.167 56.834 105.5 72.501s79 23.5 119 23.5c26 0 45.5 -3.83301 58.5 -11.5s19.5 -23.834 19.5 -48.501c0 -7.33301 -0.333008 -15.333 -1 -24s-1.66699 -16.667 -3 -24c-9.33301 1.33301 -17.5 2.33301 -24.5 3
s-16.167 1 -27.5 1c-29.333 0 -55.333 -5.33301 -78 -16s-42.334 -24 -59.001 -40s-30.334 -33.5 -41.001 -52.5s-18.334 -36.833 -23.001 -53.5c11.333 9.33301 28.666 18.833 51.999 28.5s50.333 14.5 81 14.5c32.667 0 60.834 -5.83301 84.501 -17.5s43 -27.5 58 -47.5
s26.167 -43.167 33.5 -69.5s11 -53.833 11 -82.5zM369.004 222c0 40 -6.66309 70.999 -19.9961 92.999s-37 33 -71 33c-10 0 -19.833 -1.16699 -29.5 -3.5s-18.834 -5.33301 -27.501 -9s-16.334 -7.5 -23.001 -11.5s-12 -8 -16 -12c-1.33301 -8 -2.33301 -16.667 -3 -26
s-1 -19.666 -1 -30.999c0 -18 1.16699 -36.667 3.5 -56s7.16602 -37 14.499 -53s17.666 -29.167 30.999 -39.5s31 -15.5 53 -15.5c26.667 0 48.167 11.333 64.5 34s24.5 55 24.5 97z" />
    <glyph glyph-name="seven" unicode="7" horiz-adv-x="549" 
d="M232 0l-143.999 -0.000976562l261 545h-302l-3 17c-0.666992 5.33301 -1.16699 11 -1.5 17s-0.5 11.667 -0.5 17c0 20 6.33301 36.167 19 48.5s33 18.5 61 18.5h333c19.333 0 32.666 -3.16699 39.999 -9.5s11 -18.166 11 -35.499v-40z" />
    <glyph glyph-name="eight" unicode="8" horiz-adv-x="549" 
d="M508 188c0 -36 -6.16895 -66.998 -18.502 -92.998s-29.166 -47.333 -50.499 -64s-46.666 -28.834 -75.999 -36.501s-61 -11.5 -95 -11.5c-75.333 0 -134 16 -176 48s-63 82 -63 150c0 42 11 77 33 105s49.333 47.333 82 58c-30.667 13.333 -54 33.666 -70 60.999
s-24 56 -24 86c0 29.333 5.83301 55.166 17.5 77.499s27.5 41.166 47.5 56.499s43.167 26.833 69.5 34.5s54.166 11.5 83.499 11.5c30 0 58.167 -3.5 84.5 -10.5s49.333 -17.667 69 -32s35.334 -32.666 47.001 -54.999s17.5 -48.5 17.5 -78.5
c0 -32 -7.83301 -61.333 -23.5 -88s-38.5 -47.667 -68.5 -63c38 -11.333 66.5 -30.666 85.5 -57.999s28.5 -60 28.5 -98zM370.998 189.002c0 32.667 -8.66699 58 -26 76s-43 27 -77 27s-59.667 -9.16699 -77 -27.5s-26 -43.5 -26 -75.5c0 -34.667 9.16699 -60.5 27.5 -77.5
s43.5 -25.5 75.5 -25.5s57.167 8.5 75.5 25.5s27.5 42.833 27.5 77.5zM353.998 492.002c0 28 -8.16699 49.167 -24.5 63.5s-36.833 21.5 -61.5 21.5s-45 -7.33301 -61 -22s-24 -36 -24 -64c0 -28.667 7.83301 -51.667 23.5 -69s36.167 -26 61.5 -26s46 8.5 62 25.5
s24 40.5 24 70.5z" />
    <glyph glyph-name="nine" unicode="9" horiz-adv-x="549" 
d="M36 426c0 40 5.83496 75.3311 17.502 105.998s27.667 56.334 48 77.001s44.5 36.167 72.5 46.5s58.333 15.5 91 15.5c40 0 75 -6.83301 105 -20.5s55 -33 75 -58s35 -55.5 45 -91.5s15 -76 15 -120c0 -68 -9.16699 -127 -27.5 -177s-42.833 -91.333 -73.5 -124
s-65.834 -57 -105.501 -73s-80.5 -24 -122.5 -24c-10.667 0 -20.667 0.833008 -30 2.5s-17.5 4.66699 -24.5 9s-12.667 10.333 -17 18s-6.5 17.167 -6.5 28.5c0 7.33301 0.5 15.833 1.5 25.5s2.16699 18.167 3.5 25.5c14.667 -2 29 -3 43 -3c34 0 63.333 5 88 15
s45.167 22.833 61.5 38.5s29 32.834 38 51.501s15.167 37 18.5 55c-11.333 -11.333 -27.833 -21 -49.5 -29s-46.5 -12 -74.5 -12c-33.333 0 -62 6.16699 -86 18.5s-43.833 28.5 -59.5 48.5s-27.334 43.167 -35.001 69.5s-11.5 53.5 -11.5 81.5zM175.002 431.998
c0 -40 7.33008 -71.167 21.9971 -93.5s39 -33.5 73 -33.5c22.667 0 41.834 3.83301 57.501 11.5s27.167 15.167 34.5 22.5c1.33301 8 2.33301 17.333 3 28s1 21.667 1 33c0 18 -1.33301 36.667 -4 56s-7.66699 37 -15 53s-17.666 29.167 -30.999 39.5
s-30.666 15.5 -51.999 15.5c-26.667 0 -48.167 -11.5 -64.5 -34.5s-24.5 -55.5 -24.5 -97.5z" />
    <glyph glyph-name="colon" unicode=":" horiz-adv-x="248" 
d="M198 60c0 -21.333 -6.66699 -39.166 -20 -53.499s-31.333 -21.5 -54 -21.5c-22 0 -39.833 7.16699 -53.5 21.5s-20.5 32.166 -20.5 53.499s7 38.833 21 52.5s31.667 20.5 53 20.5s39 -6.83301 53 -20.5s21 -31.167 21 -52.5zM198 438
c0 -21.333 -6.66699 -39.166 -20 -53.499s-31.333 -21.5 -54 -21.5c-22 0 -39.833 7.16699 -53.5 21.5s-20.5 32.166 -20.5 53.499s7 38.833 21 52.5s31.667 20.5 53 20.5s39 -6.83301 53 -20.5s21 -31.167 21 -52.5z" />
    <glyph glyph-name="semicolon" unicode=";" horiz-adv-x="252" 
d="M120 131c25.333 0 44.333 -9 57 -27s19 -39.667 19 -65c0 -18 -3 -37 -9 -57s-14.333 -38.167 -25 -54.5s-23 -30 -37 -41s-29 -16.5 -45 -16.5c-11.333 0 -21.5 2.83301 -30.5 8.5s-15.5 14.167 -19.5 25.5c13.333 6 26.833 16 40.5 30s21.167 31 22.5 51
c-9.33301 7.33301 -18.833 17 -28.5 29s-14.5 28.667 -14.5 50c0 16 5.83301 31.167 17.5 45.5s29.167 21.5 52.5 21.5zM207 438c0 -21.333 -6.66699 -39.166 -20 -53.499s-31.333 -21.5 -54 -21.5c-22 0 -39.833 7.16699 -53.5 21.5s-20.5 32.166 -20.5 53.499
s7 38.833 21 52.5s31.667 20.5 53 20.5s39 -6.83301 53 -20.5s21 -31.167 21 -52.5z" />
    <glyph glyph-name="less" unicode="&#x3c;" horiz-adv-x="549" 
d="M489 95l-430 180v108l430 175v-117l-278 -110l278 -114v-122z" />
    <glyph glyph-name="equal" unicode="=" horiz-adv-x="549" 
d="M55 169v113h439v-113h-439zM55 379v113h439v-113h-439z" />
    <glyph glyph-name="greater" unicode="&#x3e;" horiz-adv-x="549" 
d="M59 217l278 114l-278 110v117l430 -175v-108l-430 -180v122z" />
    <glyph glyph-name="question" unicode="?" horiz-adv-x="461" 
d="M215 681c28.667 0 55.833 -3.50098 81.5 -10.501s48 -17.667 67 -32s34 -32.166 45 -53.499s16.5 -46.333 16.5 -75c0 -21.333 -2.66699 -40.166 -8 -56.499s-12.333 -31.166 -21 -44.499s-18.5 -25.5 -29.5 -36.5s-22.167 -21.5 -33.5 -31.5
c-21.333 -17.333 -39.833 -34.833 -55.5 -52.5s-23.5 -39.167 -23.5 -64.5c0 -12.667 1.33301 -24.334 4 -35.001c-4 -1.33301 -9 -2.16602 -15 -2.49902s-11.667 -0.5 -17 -0.5c-24.667 0 -44.834 6.33301 -60.501 19s-23.5 32 -23.5 58
c0 23.333 6.16699 43.666 18.5 60.999s26.5 33.666 42.5 48.999l29.5 27.5c9.66699 9 18.334 18.333 26.001 28s13.834 19.834 18.501 30.501s7 22.334 7 35.001c0 30 -9 51.167 -27 63.5s-39.667 18.5 -65 18.5c-26.667 0 -51 -5.83301 -73 -17.5s-40.667 -23.5 -56 -35.5
c-10 10 -19.5 20.667 -28.5 32s-13.5 23.333 -13.5 36c0 9.33301 3.66699 18.166 11 26.499s16.666 16.166 27.999 23.499c18 11.333 40.333 20.833 67 28.5s56 11.5 88 11.5zM278.999 58.999c0 -21.333 -6.66699 -39 -20 -53s-31.333 -21 -54 -21s-40.834 7 -54.501 21
s-20.5 31.667 -20.5 53s6.83301 38.833 20.5 52.5s31.834 20.5 54.501 20.5c21.333 0 39 -6.83301 53 -20.5s21 -31.167 21 -52.5z" />
    <glyph glyph-name="at" unicode="@" horiz-adv-x="797" 
d="M508 63c-14 -4 -28 -6.00293 -42 -6.00293c-25.333 0 -44.666 6 -57.999 18s-20 32 -20 60v75c-13.333 0 -31 -0.833008 -53 -2.5s-43.5 -6.5 -64.5 -14.5s-39.167 -20 -54.5 -36s-23 -38.333 -23 -67c0 -11.333 2.16699 -24 6.5 -38s12.833 -27.333 25.5 -40
s30.5 -23.167 53.5 -31.5s53.167 -12.5 90.5 -12.5c42 0 79.5 5.83301 112.5 17.5s61 29.667 84 54s40.667 55.333 53 93s18.5 82.167 18.5 133.5c0 46.667 -7.33301 87.5 -22 122.5s-35.334 64 -62.001 87s-58.334 40.333 -95.001 52s-77.334 17.5 -122.001 17.5
c-32 0 -61.833 -3 -89.5 -9s-52.5 -13.167 -74.5 -21.5s-41.167 -17.5 -57.5 -27.5s-29.166 -19 -38.499 -27c-10 7.33301 -19.167 17.333 -27.5 30s-12.5 23 -12.5 31c0 6 1.83301 12 5.5 18s10.167 12.667 19.5 20c12 8.66699 27 17.5 45 26.5s39 17.167 63 24.5
s50.5 13.5 79.5 18.5s60.5 7.5 94.5 7.5c65.333 0 122.666 -9.5 171.999 -28.5s90.333 -45 123 -78s57.167 -71.833 73.5 -116.5s24.5 -93 24.5 -145c0 -58 -8.16699 -110.833 -24.5 -158.5s-40.5 -88.667 -72.5 -123s-71.5 -60.833 -118.5 -79.5s-100.833 -28 -161.5 -28
c-48 0 -89.667 5.16699 -125 15.5s-64.5 24.833 -87.5 43.5s-40 40.834 -51 66.501s-16.5 53.834 -16.5 84.501c0 27.333 4.83301 51 14.5 71s22.334 37.167 38.001 51.5s33.5 26 53.5 35s40.5 16.167 61.5 21.5s41.667 9 62 11s38.5 3 54.5 3h11.5
c3.66699 0 7.16699 -0.333008 10.5 -1c0 26.667 -6.5 48.5 -19.5 65.5s-36.167 25.5 -69.5 25.5c-30 0 -56.167 -4.83301 -78.5 -14.5s-41.833 -19.5 -58.5 -29.5c-9.33301 10 -16.333 20.333 -21 31s-7 19.667 -7 27s2.5 14.166 7.5 20.499s14.833 13.166 29.5 20.499
c16.667 8.66699 37.167 15.834 61.5 21.501s52.5 8.5 84.5 8.5c58 0 103.333 -13.667 136 -41s49 -70.333 49 -129v-105c0 -19.333 0.333008 -38.166 1 -56.499s3.33398 -39.166 8.00098 -62.499z" />
    <glyph glyph-name="A" unicode="A" horiz-adv-x="633" 
d="M485 0l-57.002 163.999h-231l-55 -164h-136l232 660c8 3.33301 19.167 6.5 33.5 9.5s29.833 4.5 46.5 4.5c7.33301 0 15.5 -0.666992 24.5 -2s17.833 -4.16602 26.5 -8.49902s16.834 -10.5 24.501 -18.5s13.834 -19 18.501 -33l215 -612h-142zM313.998 548.999l-91 -285
h179z" />
    <glyph glyph-name="B" unicode="B" horiz-adv-x="584" 
d="M548 196c0 -38.667 -6.49805 -70.499 -19.498 -95.499s-31.667 -45 -56 -60s-53.5 -25.5 -87.5 -31.5s-72 -9 -114 -9h-202v665c34 3.33301 66.167 6 96.5 8s59.5 3 87.5 3c50 0 92 -3.83301 126 -11.5s61.167 -18.834 81.5 -33.501s34.833 -32.667 43.5 -54
s13 -45.333 13 -72c0 -22 -3.16699 -41.333 -9.5 -58s-14.5 -31.334 -24.5 -44.001s-21 -23 -33 -31s-23.333 -14 -34 -18c12 -3.33301 25.667 -8.16602 41 -14.499s29.666 -15.5 42.999 -27.5s24.666 -27.333 33.999 -46s14 -42 14 -70zM262.002 99.001
c22.667 0 42.999 1.33203 60.999 3.99902s33.333 7.83398 46 15.501s22.334 18 29.001 31s10 30.167 10 51.5c0 36 -12 61.5 -36 76.5s-55 22.5 -93 22.5h-73v-201h56zM377.001 497c0 31.333 -10.833 53.001 -32.5 65.001s-50.834 18 -87.501 18
c-12.667 0 -23 -0.333008 -31 -1s-14.667 -1.33398 -20 -2.00098v-186h66c32.667 0 58.334 9.66699 77.001 29s28 45 28 77z" />
    <glyph glyph-name="C" unicode="C" horiz-adv-x="607" 
d="M547 38c-4 -4 -10.502 -9.00293 -19.502 -15.0029s-21.167 -12 -36.5 -18s-33.833 -11.167 -55.5 -15.5s-46.5 -6.5 -74.5 -6.5c-54 0 -100.667 8.66699 -140 26s-71.833 41.5 -97.5 72.5s-44.5 67.667 -56.5 110s-18 88.833 -18 139.5s6.5 97.5 19.5 140.5
s32.5 80.167 58.5 111.5s58.5 55.833 97.5 73.5s84.833 26.5 137.5 26.5c26 0 49.5 -2.33301 70.5 -7s39.333 -10.167 55 -16.5s28.667 -13 39 -20s18.166 -12.833 23.499 -17.5c6 -5.33301 11.167 -11.666 15.5 -18.999s6.5 -15.333 6.5 -24
c0 -13.333 -5 -26.666 -15 -39.999s-21 -25.666 -33 -36.999c-8 8 -17 16.167 -27 24.5s-21.167 15.666 -33.5 21.999s-26.333 11.666 -42 15.999s-33.167 6.5 -52.5 6.5c-34 0 -62.5 -6.83301 -85.5 -20.5s-41.5 -31.5 -55.5 -53.5s-24 -47.167 -30 -75.5
s-9 -57.166 -9 -86.499c0 -31.333 3 -61.333 9 -90s16.333 -54 31 -76s33.834 -39.667 57.501 -53s53.167 -20 88.5 -20c18.667 0 35.834 2.33301 51.501 7s29.5 10.334 41.5 17.001s22.5 13.667 31.5 21s16.5 13.666 22.5 18.999l14 -17
c5.33301 -6.66699 10.333 -13.667 15 -21s8.66699 -14.666 12 -21.999s5 -14 5 -20c0 -8.66699 -1.66699 -16 -5 -22s-8.66602 -12.667 -15.999 -20z" />
    <glyph glyph-name="D" unicode="D" horiz-adv-x="643" 
d="M601 346c0 -47.333 -6.33301 -92 -19 -134s-32 -78.667 -58 -110s-59.167 -56.166 -99.5 -74.499s-87.833 -27.5 -142.5 -27.5h-213v664c42.667 5.33301 79.167 8.66602 109.5 9.99902s56.5 2 78.5 2c66.667 0 122 -8.83301 166 -26.5s79.167 -41.5 105.5 -71.5
s45 -65 56 -105s16.5 -82.333 16.5 -127zM461 344c0 31.333 -3 60.6689 -9 88.002s-16.333 51.166 -31 71.499s-34.5 36.333 -59.5 48s-56.5 17.5 -94.5 17.5c-19.333 0 -39.333 -1 -60 -3v-461h55c39.333 0 71.833 5.83301 97.5 17.5s46 28 61 49s25.5 46.167 31.5 75.5
s9 61.666 9 96.999z" />
    <glyph glyph-name="E" unicode="E" horiz-adv-x="525" 
d="M421 106c32 0 53.834 -7.33301 65.501 -22s17.5 -31 17.5 -49c0 -7.33301 -0.166992 -13.5 -0.5 -18.5s-0.833008 -10.5 -1.5 -16.5h-433v670h417c1.33301 -7.33301 2.16602 -13.5 2.49902 -18.5s0.5 -11.167 0.5 -18.5c0 -23.333 -6 -40.833 -18 -52.5
s-34.333 -17.5 -67 -17.5h-197v-165h212v-107h-212v-185h214z" />
    <glyph glyph-name="F" unicode="F" horiz-adv-x="508" 
d="M206 407h215.002v-107h-215v-300h-137v670h420c1.33301 -7.33301 2.16602 -13.5 2.49902 -18.5s0.5 -11.167 0.5 -18.5c0 -20 -5.83301 -36.667 -17.5 -50s-32.834 -20 -63.501 -20h-205v-156z" />
    <glyph glyph-name="G" unicode="G" horiz-adv-x="667" 
d="M361 262l-0.000976562 101.998h243v-300c-6 -7.33301 -15.333 -15.666 -28 -24.999s-29 -18.166 -49 -26.499s-43.667 -15.333 -71 -21s-58.333 -8.5 -93 -8.5c-54 0 -100.833 8.83301 -140.5 26.5s-72.334 42 -98.001 73s-44.667 68 -57 111s-18.5 89.833 -18.5 140.5
c0 50 6.5 96.167 19.5 138.5s32.833 79.166 59.5 110.499s60.334 55.833 101.001 73.5s88.667 26.5 144 26.5c26.667 0 52.834 -3.16699 78.501 -9.5s48.334 -14.5 68.001 -24.5s35.5 -21.167 47.5 -33.5s18 -24.833 18 -37.5c0 -11.333 -4.83301 -24 -14.5 -38
s-21.167 -26.667 -34.5 -38c-8 7.33301 -17.167 15 -27.5 23s-22 15.333 -35 22s-27.667 12.167 -44 16.5s-34.5 6.5 -54.5 6.5c-36 0 -66 -6.66699 -90 -20s-43 -30.833 -57 -52.5s-24 -46.5 -30 -74.5s-9 -57 -9 -87c0 -32 3.16699 -62.667 9.5 -92
s16.666 -55.166 30.999 -77.499s33.666 -40.333 57.999 -54s54.5 -20.5 90.5 -20.5c17.333 0 32 1.33301 44 4s22 5.66699 30 9c8.66699 4 16.334 8.66699 23.001 14v143h-114z" />
    <glyph glyph-name="H" unicode="H" horiz-adv-x="654" 
d="M201 398h252v271c9.33301 1.33301 18.666 2.5 27.999 3.5s16.666 1.5 21.999 1.5c8.66699 0 18.167 -1 28.5 -3s19.833 -5.83301 28.5 -11.5s15.834 -13.5 21.501 -23.5s8.5 -23.333 8.5 -40v-596h-137v290h-252v-290h-137v669c9.33301 1.33301 18.5 2.5 27.5 3.5
s15.833 1.5 20.5 1.5c10 0 20.167 -1 30.5 -3s19.833 -5.83301 28.5 -11.5s15.834 -13.5 21.501 -23.5s8.5 -23.333 8.5 -40v-198z" />
    <glyph glyph-name="I" unicode="I" horiz-adv-x="265" 
d="M64 669c9.33301 1.33301 18.499 2.5 27.499 3.5s15.833 1.5 20.5 1.5c10 0 20.167 -1 30.5 -3s19.833 -5.83301 28.5 -11.5s15.834 -13.5 21.501 -23.5s8.5 -23.333 8.5 -40v-596h-137v669z" />
    <glyph glyph-name="J" unicode="J" horiz-adv-x="266" 
d="M202 77c0 -25.333 -1.83301 -54 -5.5 -86s-12 -62.167 -25 -90.5s-32.5 -52.333 -58.5 -72s-61.333 -29.5 -106 -29.5c-28 0 -46.833 6.5 -56.5 19.5s-14.5 34.5 -14.5 64.5v16c19.333 0.666992 37 3 53 7s29.5 10.667 40.5 20s19.5 21.5 25.5 36.5s9 34.167 9 57.5v649
c9.33301 1.33301 18.5 2.5 27.5 3.5s15.833 1.5 20.5 1.5c10 0 20.167 -1 30.5 -3s20 -5.83301 29 -11.5s16.333 -13.5 22 -23.5s8.5 -23.333 8.5 -40v-519z" />
    <glyph glyph-name="K" unicode="K" horiz-adv-x="588" 
d="M69 669c9.33301 1.33301 18.502 2.50195 27.502 3.50195s15.833 1.5 20.5 1.5c10 0 20.167 -1 30.5 -3s19.833 -5.83301 28.5 -11.5s15.834 -13.5 21.501 -23.5s8.5 -23.333 8.5 -40v-242c1.33301 16 5.66602 30.667 12.999 44c8 14.667 17.333 28.667 28 42l137 180
c15.333 20 30.666 34 45.999 42s31.666 12 48.999 12s33 -2.83301 47 -8.5s25.333 -12.834 34 -21.501l-221 -295l249 -337c-26 -15.333 -52.333 -23 -79 -23c-44.667 0 -80.334 17.333 -107.001 52l-147 190c-12.667 16 -23.667 33 -33 51
c-9.33301 17.333 -14.666 35.666 -15.999 54.999v-337h-137v669z" />
    <glyph glyph-name="L" unicode="L" horiz-adv-x="504" 
d="M207 111l195 0.000976562c16 0 29.333 -2 40 -6s19 -9.33301 25 -16s10.167 -14.334 12.5 -23.001s3.5 -17.334 3.5 -26.001c0 -6.66699 -0.166992 -14.667 -0.5 -24s-0.833008 -14.666 -1.5 -15.999h-412v669c9.33301 1.33301 18.5 2.5 27.5 3.5s15.833 1.5 20.5 1.5
c10 0 20.167 -1 30.5 -3s20 -5.83301 29 -11.5s16.333 -13.5 22 -23.5s8.5 -23.333 8.5 -40v-485z" />
    <glyph glyph-name="M" unicode="M" horiz-adv-x="806" 
d="M170 674c22 0 38.999 -5.16504 50.999 -15.498s21.667 -23.833 29 -40.5l152 -358l153 354c9.33301 21.333 21 36.666 35 45.999s30 14 48 14c14 0 27.333 -0.833008 40 -2.5s22.334 -3.83398 29.001 -6.50098l48 -665h-130l-31 444l-136 -304h-115l-132 291l-29 -431
h-131l49 665c6.66699 2 16.5 4 29.5 6s26.5 3 40.5 3z" />
    <glyph glyph-name="N" unicode="N" horiz-adv-x="660" 
d="M596 0h-115.998l-285 440v-440h-131v668c6.66699 1.33301 15.667 2.66602 27 3.99902s22.666 2 33.999 2c21.333 0 38 -3.66699 50 -11s22.667 -18.666 32 -33.999l258 -421v461c9.33301 1.33301 18 2.5 26 3.5s14.333 1.5 19 1.5c10 0 20 -1 30 -3
s19.167 -5.83301 27.5 -11.5s15.166 -13.5 20.499 -23.5s8 -23.333 8 -40v-596z" />
    <glyph glyph-name="O" unicode="O" horiz-adv-x="704" 
d="M655 337c0 -48 -5.66602 -93.501 -16.999 -136.501s-29.333 -80.667 -54 -113s-56.334 -57.833 -95.001 -76.5s-85.334 -28 -140.001 -28c-54 0 -100 9.5 -138 28.5s-69 44.667 -93 77s-41.5 69.833 -52.5 112.5s-16.5 87.667 -16.5 135c0 46.667 6 91 18 133
s30.667 78.833 56 110.5s57.333 56.834 96 75.501s84.667 28 138 28c52.667 0 97.834 -9 135.501 -27s68.5 -42.5 92.5 -73.5s41.667 -67.5 53 -109.5s17 -87.333 17 -136zM514.001 335.999c0 32 -2.66895 62.333 -8.00195 91s-14.333 53.834 -27 75.501
s-29 38.834 -49 51.501s-44.667 19 -74 19c-30.667 0 -56.5 -6.33301 -77.5 -19s-38 -29.834 -51 -51.501s-22.333 -46.834 -28 -75.501s-8.5 -59 -8.5 -91s2.83301 -62.667 8.5 -92s14.834 -55.333 27.501 -78s29.334 -40.667 50.001 -54s46 -20 76 -20
s55.333 6.66699 76 20s37.167 31.333 49.5 54s21.333 48.667 27 78s8.5 60 8.5 92z" />
    <glyph glyph-name="P" unicode="P" horiz-adv-x="553" 
d="M528 473c0 -43.333 -7.33203 -80 -21.999 -110s-34.5 -54.167 -59.5 -72.5s-54 -31.5 -87 -39.5s-67.833 -12 -104.5 -12h-48v-239h-138v666c30 3.33301 60.667 5.83301 92 7.5s59.666 2.5 84.999 2.5c98 0 169.5 -17.167 214.5 -51.5s67.5 -84.833 67.5 -151.5z
M388.001 466c0 40.667 -11.833 69.667 -35.5 87s-54.5 26 -92.5 26c-21.333 0 -39.333 -1 -54 -3v-240h33c48.667 0 85.667 9.5 111 28.5s38 52.833 38 101.5z" />
    <glyph glyph-name="Q" unicode="Q" horiz-adv-x="705" 
d="M345 -73c5.33301 8 12.833 15.167 22.5 21.5s20.834 9.5 33.501 9.5c17.333 0 32.5 -4 45.5 -12l43 -27c15.667 -10 34 -19.333 55 -28s48.167 -13.667 81.5 -15c-0.666992 -24 -7 -43.667 -19 -59s-30.667 -23 -56 -23c-20.667 0 -41.667 4.33301 -63 13
s-41.333 19.5 -60 32.5s-35.334 27.333 -50.001 43s-25.667 30.5 -33 44.5zM656 337c0 -48 -5.83105 -93.501 -17.498 -136.501s-29.834 -80.667 -54.501 -113s-56.334 -57.833 -95.001 -76.5s-85 -28 -139 -28s-100 9.5 -138 28.5s-69.167 44.667 -93.5 77
s-42 69.833 -53 112.5s-16.5 87.667 -16.5 135c0 46.667 6.16699 91 18.5 133s31.166 78.833 56.499 110.5s57.333 56.834 96 75.501s84.667 28 138 28c52.667 0 97.834 -9 135.501 -27s68.5 -42.5 92.5 -73.5s41.667 -67.5 53 -109.5s17 -87.333 17 -136zM515.002 335.999
c0 32 -2.66797 62.333 -8.00098 91s-14.333 53.834 -27 75.501s-29 38.834 -49 51.501s-44.667 19 -74 19c-31.333 0 -57.5 -6.33301 -78.5 -19s-38 -29.834 -51 -51.501s-22.333 -46.834 -28 -75.501s-8.5 -59 -8.5 -91s2.83301 -62.667 8.5 -92s14.834 -55.333 27.501 -78
s29.5 -40.667 50.5 -54s46.5 -20 76.5 -20s55.333 6.66699 76 20s37.167 31.333 49.5 54s21.333 48.667 27 78s8.5 60 8.5 92z" />
    <glyph glyph-name="R" unicode="R" horiz-adv-x="575" 
d="M526 478c0 -28 -3.49805 -52.666 -10.498 -73.999s-16.5 -40 -28.5 -56s-25.667 -29.333 -41 -40s-31 -19 -47 -25l165 -276c-12.667 -5.33301 -26 -9.5 -40 -12.5s-27.333 -4.5 -40 -4.5c-24.667 0 -45.334 5.33301 -62.001 16s-32 28 -46 52l-114 194h-55v-252h-138
v666c30 3.33301 60.667 5.83301 92 7.5s59.666 2.5 84.999 2.5c96.667 0 167.5 -16.333 212.5 -49s67.5 -82.334 67.5 -149.001zM382.002 465.001c0 42 -11 71.5 -33 88.5s-52 25.5 -90 25.5c-12 0 -22.333 -0.333008 -31 -1s-16 -1.33398 -22 -2.00098v-231h47
c40 0 71.5 9.83301 94.5 29.5s34.5 49.834 34.5 90.501z" />
    <glyph glyph-name="S" unicode="S" horiz-adv-x="518" 
d="M67 154c18.667 -14.667 41.502 -29.1641 68.502 -43.4971s59.167 -21.5 96.5 -21.5c14 0 27.667 1.66699 41 5s25.166 8.5 35.499 15.5s18.833 16.167 25.5 27.5s10 25.333 10 42c0 17.333 -3.66699 32 -11 44s-17 22.167 -29 30.5s-26 15.5 -42 21.5l-49 18
c-21.333 7.33301 -42.833 15.333 -64.5 24s-41.167 20 -58.5 34s-31.5 31.833 -42.5 53.5s-16.5 49.167 -16.5 82.5c0 32 6.33301 60.333 19 85s30 45.167 52 61.5s47.333 28.666 76 36.999s59 12.5 91 12.5c22 0 42.5 -1.66699 61.5 -5s36 -7.33301 51 -12
s27.667 -9.5 38 -14.5s18.166 -9.5 23.499 -13.5c18.667 -10.667 28 -25.667 28 -45c0 -8 -3.5 -18.833 -10.5 -32.5s-16.833 -27.167 -29.5 -40.5c-16.667 13.333 -38.167 26 -64.5 38s-54.5 18 -84.5 18c-12 0 -24.333 -1.16699 -37 -3.5s-24.167 -6.33301 -34.5 -12
s-18.833 -13.5 -25.5 -23.5s-10 -22.333 -10 -37c0 -14 3.33301 -26.167 10 -36.5s15.667 -19.333 27 -27s24.5 -14.5 39.5 -20.5l46.5 -18c21.333 -8 43 -16.667 65 -26s42 -21.166 60 -35.499s32.667 -32.333 44 -54s17 -48.834 17 -81.501
c0 -35.333 -6.16699 -66.5 -18.5 -93.5s-29.5 -49.833 -51.5 -68.5s-48.5 -32.667 -79.5 -42s-64.833 -14 -101.5 -14c-48 0 -86.833 4.83301 -116.5 14.5s-51.167 18.5 -64.5 26.5c-8 5.33301 -14.667 11.666 -20 18.999s-8 15.666 -8 24.999c0 11.333 4.5 25 13.5 41
s18.833 31 29.5 45z" />
    <glyph glyph-name="T" unicode="T" horiz-adv-x="570" 
d="M218 558h-209.001v1c-1.33301 8 -2.16602 14.667 -2.49902 20s-0.5 11.666 -0.5 18.999c0 18 6.5 34.5 19.5 49.5s34.833 22.5 65.5 22.5h470c2 -14 3 -28.333 3 -43c0 -17.333 -6 -33.166 -18 -47.499s-33.333 -21.5 -64 -21.5h-126v-558h-138v558z" />
    <glyph glyph-name="U" unicode="U" horiz-adv-x="647" 
d="M583 270c0 -13.333 -0.334961 -26.666 -1.00195 -39.999s-1.66699 -27 -3 -41c-2.66699 -28 -9.5 -54.5 -20.5 -79.5s-27 -46.667 -48 -65s-47.167 -32.833 -78.5 -43.5s-68.333 -16 -111 -16c-43.333 0 -80 4.66699 -110 14s-55 22.833 -75 40.5
s-35.333 39.334 -46 65.001s-18 55.167 -22 88.5c-1.33301 12 -2.33301 24.333 -3 37s-1 26 -1 40v399c9.33301 1.33301 18.5 2.5 27.5 3.5s15.833 1.5 20.5 1.5c10 0 20.167 -1 30.5 -3s19.833 -5.83301 28.5 -11.5s15.834 -13.5 21.501 -23.5s8.5 -23.333 8.5 -40v-335
c0 -24 1.5 -45.667 4.5 -65s9 -35.833 18 -49.5s21.5 -24.334 37.5 -32.001s37 -11.5 63 -11.5c45.333 0 77 13.167 95 39.5s27 63.166 27 110.499v416c9.33301 1.33301 18.5 2.5 27.5 3.5s15.833 1.5 20.5 1.5c10 0 20.167 -1 30.5 -3s19.833 -5.83301 28.5 -11.5
s15.834 -13.5 21.501 -23.5s8.5 -23.333 8.5 -40v-326z" />
    <glyph glyph-name="V" unicode="V" horiz-adv-x="617" 
d="M383 -5h-151.999l-225 669c6.66699 2.66699 16.834 5 30.501 7s28.167 3 43.5 3c25.333 0 45.5 -6.33301 60.5 -19s26.167 -31 33.5 -55l137 -455l140 458c7.33301 23.333 18.166 41 32.499 53s34.166 18 59.499 18c19.333 0 42 -3.33301 68 -10z" />
    <glyph glyph-name="W" unicode="W" horiz-adv-x="897" 
d="M676 -5l-113 -0.00195312l-113 350l-109 -350h-112l-223 666c8 3.33301 19.5 6.33301 34.5 9s27.833 4 38.5 4c24.667 0 43.834 -5.5 57.501 -16.5s23.834 -27.167 30.501 -48.5l130 -428l98 314l-46 170c12.667 2.66699 24.5 4.83398 35.5 6.50098s21.167 2.5 30.5 2.5
c25.333 0 44.5 -5.66699 57.5 -17s22.5 -27.666 28.5 -48.999l118 -416l113 408c6 21.333 16 39 30 53s33.333 21 58 21c15.333 0 28.666 -1.16699 39.999 -3.5s21.666 -4.83301 30.999 -7.5z" />
    <glyph glyph-name="X" unicode="X" horiz-adv-x="582" 
d="M289 221l-128.003 -220.998h-150l198 334l-176 318c13.333 6 27.333 11.167 42 15.5s29.667 6.5 45 6.5c36.667 0 63.334 -16.333 80.001 -49l97 -181l99 170c12.667 21.333 25.667 36.666 39 45.999s31.333 14 54 14c14 0 26.5 -1.66699 37.5 -5
s22.833 -8.33301 35.5 -15l-186 -315l195 -335c-12.667 -4.66699 -26.167 -8.33398 -40.5 -11.001s-27.166 -4 -38.499 -4c-26.667 0 -47.167 5.33301 -61.5 16s-27.166 25.667 -38.499 45z" />
    <glyph glyph-name="Y" unicode="Y" horiz-adv-x="578" 
d="M357 257l0.00292969 -256.999h-137v253l-214 401c11.333 5.33301 24.666 10 39.999 14s29.666 6 42.999 6c24 0 41.833 -4.5 53.5 -13.5s22.167 -22.5 31.5 -40.5l117 -233l117 231c8 16 18.667 29.333 32 40s32 16 56 16c15.333 0 28.666 -1.33301 39.999 -4
s23.333 -6.33398 36 -11.001z" />
    <glyph glyph-name="Z" unicode="Z" horiz-adv-x="556" 
d="M21 0l0.000976562 91.998l336 471h-333v1c-0.666992 6.66699 -1.16699 12.667 -1.5 18s-0.5 11.666 -0.5 18.999c0 18.667 6.33301 34.834 19 48.501s34 20.5 64 20.5h368c17.333 0 29.666 -3.16699 36.999 -9.5s11 -17.166 11 -32.499v-50l-338 -472h268
c16 0 29.5 -2 40.5 -6s19.667 -9.33301 26 -16s10.833 -14.167 13.5 -22.5s4 -16.833 4 -25.5c0 -7.33301 -0.166992 -13.666 -0.5 -18.999s-0.833008 -11 -1.5 -17h-512z" />
    <glyph glyph-name="bracketleft" unicode="[" horiz-adv-x="319" 
d="M64 -136v853h230v-99h-107v-656h107v-98h-230z" />
    <glyph glyph-name="backslash" unicode="\" horiz-adv-x="400" 
d="M9 666l17 4c5.33301 1.33301 12.5 2.33301 21.5 3s16.167 1 21.5 1c23.333 0 41.5 -5.16699 54.5 -15.5s23.167 -24.5 30.5 -42.5l240 -616h-127z" />
    <glyph glyph-name="bracketright" unicode="]" horiz-adv-x="319" 
d="M25 -136v98h107v656h-107v99h230v-853h-230z" />
    <glyph glyph-name="asciicircum" unicode="^" horiz-adv-x="585" 
d="M408 284l-115 277l-115 -277h-116l167 383h135l159 -383h-115z" />
    <glyph glyph-name="underscore" unicode="_" horiz-adv-x="472" 
d="M24 -180v80h424v-80h-424z" />
    <glyph glyph-name="grave" unicode="`" horiz-adv-x="382" 
d="M106 679c8.66699 7.33301 20.5 14.667 35.5 22s28.5 11 40.5 11c14 0 25.833 -3.16699 35.5 -9.5s19.167 -15.833 28.5 -28.5l82 -116c-6 -5.33301 -15.333 -10 -28 -14s-23.667 -6 -33 -6c-22 0 -40.667 8.66699 -56 26z" />
    <glyph glyph-name="a" unicode="a" horiz-adv-x="517" 
d="M453 116c0 -52 7.66309 -90.333 22.9961 -115c-12 -4.66699 -23.167 -8 -33.5 -10s-21.166 -3 -32.499 -3c-24 0 -42.167 4.66699 -54.5 14s-20.166 22.666 -23.499 39.999c-14.667 -15.333 -34 -28.333 -58 -39s-53.333 -16 -88 -16c-18 0 -36 2.5 -54 7.5
s-34.333 13.167 -49 24.5s-26.667 26.5 -36 45.5s-14 42.167 -14 69.5c0 34 8.16699 61.667 24.5 83s36.833 38.166 61.5 50.499s51.334 20.833 80.001 25.5s55 7.66699 79 9c8 0.666992 15.833 1 23.5 1h21.5v18c0 25.333 -6.83301 43.333 -20.5 54s-35.834 16 -66.501 16
c-28.667 0 -54.167 -4.66699 -76.5 -14s-44.166 -20 -65.499 -32c-9.33301 11.333 -16.833 23.833 -22.5 37.5s-8.5 23.834 -8.5 30.501c0 8.66699 5.16699 17.5 15.5 26.5s24.5 17 42.5 24s38.667 12.667 62 17s48 6.5 74 6.5c36 0 66.5 -3.66699 91.5 -11
s45.333 -18.666 61 -33.999s26.834 -34.5 33.501 -57.5s10 -49.833 10 -80.5v-188zM324.996 232l-13.999 0.00390625c-4.66699 0 -9.33398 -0.333008 -14.001 -1c-16.667 -1.33301 -33.167 -3.5 -49.5 -6.5s-30.833 -7.66699 -43.5 -14s-23 -14.833 -31 -25.5
s-12 -24.334 -12 -41.001c0 -18.667 5.33301 -34.5 16 -47.5s28.667 -19.5 54 -19.5c12.667 0 24.667 1.66699 36 5s21.333 7.66602 30 12.999s15.5 11.166 20.5 17.499s7.5 12.166 7.5 17.499v102z" />
    <glyph glyph-name="b" unicode="b" horiz-adv-x="561" 
d="M200 443c10 10 24.667 19.833 44 29.5s44.333 14.5 75 14.5c26 0 50.833 -3.83301 74.5 -11.5s44.667 -20.834 63 -39.501s33 -43.167 44 -73.5s16.5 -68.166 16.5 -113.499c0 -52 -6 -95 -18 -129s-27.5 -60.833 -46.5 -80.5s-40.333 -33.5 -64 -41.5
s-47.5 -12 -71.5 -12c-21.333 0 -39.833 2.5 -55.5 7.5s-28.667 10.5 -39 16.5s-18.5 11.667 -24.5 17c-5.33301 5.33301 -8.66602 9 -9.99902 11c0 -10 -2.66699 -18.833 -8 -26.5s-14.666 -11.5 -27.999 -11.5h-88v705c1.33301 0.666992 6.66602 1.5 15.999 2.5
s19.333 1.5 30 1.5s21.5 -1 32.5 -3s20.667 -6 29 -12s15.166 -14.167 20.499 -24.5s8 -23.833 8 -40.5v-186zM375 247c0 20.667 -1.66797 39.832 -5.00098 57.499s-8.83301 32.834 -16.5 45.501s-18 22.667 -31 30s-28.833 11 -47.5 11c-28 0 -47.5 -5.33301 -58.5 -16
s-16.5 -22.667 -16.5 -36v-217c5.33301 -5.33301 14.833 -11.833 28.5 -19.5s30.834 -11.5 51.501 -11.5c34 0 58.333 13.5 73 40.5s22 65.5 22 115.5z" />
    <glyph glyph-name="c" unicode="c" horiz-adv-x="472" 
d="M303 86c14.667 0 28 1.66699 40 5s22.667 7.5 32 12.5s17.333 10.333 24 16s11.667 10.5 15 14.5c4 -4 8 -9.16699 12 -15.5s7.66699 -13 11 -20s6 -13.833 8 -20.5s3 -12.667 3 -18c0 -6.66699 -1.33301 -13.167 -4 -19.5s-8.33398 -12.833 -17.001 -19.5
c-12.667 -9.33301 -30.667 -18 -54 -26s-53 -12 -89 -12c-24 0 -50 3.33301 -78 10s-54 19.334 -78 38.001s-44 44.5 -60 77.5s-24 76.167 -24 129.5c0 50.667 8.33301 92 25 124s37.334 57.333 62.001 76s50.834 31.5 78.501 38.5s52.5 10.5 74.5 10.5
c28 0 53.5 -3 76.5 -9s42.167 -14 57.5 -24c12.667 -8 21.5 -15.667 26.5 -23s7.5 -16 7.5 -26c0 -9.33301 -3 -20.833 -9 -34.5s-13.667 -26.167 -23 -37.5c-10.667 11.333 -26.334 22.666 -47.001 33.999s-43.667 17 -69 17c-44 0 -75.333 -13.5 -94 -40.5
s-28 -61.5 -28 -103.5c0 -21.333 2 -41.333 6 -60s10.833 -35 20.5 -49s22.167 -25 37.5 -33s34.333 -12 57 -12z" />
    <glyph glyph-name="d" unicode="d" horiz-adv-x="559" 
d="M406 0c-11.333 0 -20.3311 3.83301 -26.998 11.5s-10 17.5 -10 29.5c-9.33301 -11.333 -25.166 -23 -47.499 -35s-50.833 -18 -85.5 -18c-24.667 0 -48.5 4 -71.5 12s-43.5 21.333 -61.5 40s-32.333 43.5 -43 74.5s-16 69.5 -16 115.5s5.5 85.333 16.5 118
s25.667 59.167 44 79.5s39.333 35.333 63 45s48.5 14.5 74.5 14.5c30 0 54.667 -5.16699 74 -15.5s33.666 -20.5 42.999 -30.5v264c1.33301 0.666992 6.66602 1.5 15.999 2.5s19.333 1.5 30 1.5s21.5 -1 32.5 -3s20.667 -6 29 -12s15.166 -14.167 20.499 -24.5
s8 -23.833 8 -40.5v-629h-89zM184.002 237c0 -23.333 1.66797 -44.5 5.00098 -63.5s9 -35.167 17 -48.5s18.667 -23.666 32 -30.999s30.333 -11 51 -11c19.333 0 35.833 4 49.5 12s20.5 19.333 20.5 34v225c-5.33301 5.33301 -14.5 11.666 -27.5 18.999s-28.167 11 -45.5 11
c-34.667 0 -60.334 -12.5 -77.001 -37.5s-25 -61.5 -25 -109.5z" />
    <glyph glyph-name="e" unicode="e" horiz-adv-x="514" 
d="M310 85c16.667 0 31.335 1.83594 44.002 5.50293s24 8.16699 34 13.5s18.667 11.166 26 17.499l20 17.5c8 -10 16.333 -22.833 25 -38.5s13 -28.5 13 -38.5c0 -14.667 -8.33301 -28 -25 -40c-14 -10.667 -33.833 -19.834 -59.5 -27.501s-55.834 -11.5 -90.501 -11.5
c-31.333 0 -62.166 4 -92.499 12s-57.333 22 -81 42s-42.834 46.833 -57.501 80.5s-22 76.167 -22 127.5c0 42 6.5 78.167 19.5 108.5s30.333 55.5 52 75.5s46.167 34.667 73.5 44s55.333 14 84 14c37.333 0 69 -5.83301 95 -17.5s47.167 -27.334 63.5 -47.001
s28.166 -42.167 35.499 -67.5s11 -52 11 -80v-14c0 -5.33301 -0.166992 -11 -0.5 -17l-1 -17.5c-0.333008 -5.66699 -0.833008 -10.167 -1.5 -13.5h-294c2.66699 -36.667 14 -67.167 34 -91.5s51.667 -36.5 95 -36.5zM355.001 288.003c0 32 -6.16699 58 -18.5 78
s-34.5 30 -66.5 30c-28 0 -50 -9.5 -66 -28.5s-24 -45.5 -24 -79.5h175z" />
    <glyph glyph-name="f" unicode="f" 
d="M382 572c-11.333 11.333 -25.501 20.6641 -42.501 27.9971s-36.167 11 -57.5 11c-25.333 0 -45.5 -6.66699 -60.5 -20s-22.5 -36 -22.5 -68v-47h160v-103h-160v-373h-135v519c0 64.667 16.833 113.834 50.5 147.501s82.834 50.5 147.501 50.5
c24 0 48.167 -2.66699 72.5 -8s44.5 -13.333 60.5 -24c16.667 -10.667 25 -24.667 25 -42c0 -9.33301 -4 -20.666 -12 -33.999s-16.667 -25.666 -26 -36.999z" />
    <glyph glyph-name="g" unicode="g" horiz-adv-x="553" 
d="M489 37c0 -39.333 -3.83496 -75.167 -11.502 -107.5s-21 -60.166 -40 -83.499s-44.167 -41.333 -75.5 -54s-70.666 -19 -117.999 -19c-40 0 -72.833 3 -98.5 9s-46.167 13.333 -61.5 22c-13.333 7.33301 -21.833 15 -25.5 23s-5.5 15.667 -5.5 23
c0 10.667 4.33301 23.167 13 37.5s17.334 27.166 26.001 38.499c4.66699 -4.66699 11.167 -10 19.5 -16s18.5 -11.833 30.5 -17.5s25.5 -10.5 40.5 -14.5s31.5 -6 49.5 -6c26 0 47.167 3.5 63.5 10.5s29.166 17 38.499 30s15.833 28.833 19.5 47.5s5.5 40 5.5 64v18
c-9.33301 -11.333 -24.166 -21.833 -44.499 -31.5s-46.5 -14.5 -78.5 -14.5c-24.667 0 -48.5 3.83301 -71.5 11.5s-43.5 20.834 -61.5 39.501s-32.333 43.167 -43 73.5s-16 68.166 -16 113.499c0 46 5.5 85 16.5 117s25.667 58.167 44 78.5s39.333 35 63 44
s48.5 13.5 74.5 13.5c30 0 54.5 -5 73.5 -15s33.833 -22.667 44.5 -38c5.33301 15.333 15.333 26.333 30 33s31.667 10 51 10c5.33301 0 11 -0.166992 17 -0.5s11.333 -0.833008 16 -1.5l15 -2v-436zM183.998 241.999c0 -46.667 7.00098 -83.499 21.001 -110.499
s40.333 -40.5 79 -40.5c23.333 0 41.666 4.5 54.999 13.5s20 20.833 20 35.5v214c-5.33301 5.33301 -14.5 11.666 -27.5 18.999s-28.167 11 -45.5 11c-68 0 -102 -47.333 -102 -142z" />
    <glyph glyph-name="h" unicode="h" horiz-adv-x="561" 
d="M361 276c0 14.667 -0.500977 28.332 -1.50098 40.999s-3.66699 23.5 -8 32.5s-11.333 16 -21 21s-23.167 7.5 -40.5 7.5c-24.667 0 -45.834 -5.16699 -63.501 -15.5s-26.5 -23.166 -26.5 -38.499v-324h-136v705c1.33301 0.666992 6.66602 1.5 15.999 2.5
s19.333 1.5 30 1.5s21.334 -1 32.001 -3s20.334 -5.83301 29.001 -11.5s15.667 -13.667 21 -24s8 -23.833 8 -40.5v-199c5.33301 6 12 12.333 20 19s17.667 12.834 29 18.501s24.5 10.167 39.5 13.5s32.167 5 51.5 5c47.333 0 82.333 -9.33301 105 -28
s37.334 -43.334 44.001 -74.001c3.33301 -15.333 5.5 -32 6.5 -50s1.5 -35.667 1.5 -53v-282h-136v276z" />
    <glyph glyph-name="i" unicode="i" horiz-adv-x="264" 
d="M200 -6c-2.66699 -1.33301 -8.66797 -2.33301 -18.001 -3s-19.333 -1 -30 -1c-26 0 -47.167 5.5 -63.5 16.5s-24.5 33.167 -24.5 66.5v400c1.33301 0.666992 6.66602 1.5 15.999 2.5s19.333 1.5 30 1.5s21.334 -1 32.001 -3s20.334 -5.83301 29.001 -11.5
s15.667 -13.667 21 -24s8 -23.833 8 -40.5v-404zM200.999 633c0 -21.333 -7.16699 -38.666 -21.5 -51.999s-31.5 -20 -51.5 -20c-20.667 0 -38 6.66699 -52 20s-21 30.666 -21 51.999s7 38.833 21 52.5s31.333 20.5 52 20.5c20 0 37.167 -6.83301 51.5 -20.5
s21.5 -31.167 21.5 -52.5z" />
    <glyph glyph-name="j" unicode="j" horiz-adv-x="264" 
d="M64 473c1.33301 0.666992 6.66406 1.49805 15.9971 2.49805s19.333 1.5 30 1.5s21.334 -1 32.001 -3s20.334 -5.83301 29.001 -11.5s15.667 -13.667 21 -24s8 -23.833 8 -40.5v-409c0 -10 -0.333008 -20 -1 -30c-2 -38.667 -9 -70.167 -21 -94.5
s-26.333 -43.166 -43 -56.499s-34.167 -22.5 -52.5 -27.5s-34.833 -7.5 -49.5 -7.5c-29.333 0 -48.333 8.16699 -57 24.5s-13 38.166 -13 65.499v8c20.667 1.33301 37.5 4.33301 50.5 9s23.333 11.334 31 20.001s12.834 19.334 15.501 32.001s4 27.667 4 45v496z
M200.998 632.998c0 -21.333 -7.16699 -38.666 -21.5 -51.999s-31.5 -20 -51.5 -20c-20.667 0 -38 6.66699 -52 20s-21 30.666 -21 51.999s7 38.833 21 52.5s31.333 20.5 52 20.5c20 0 37.167 -6.83301 51.5 -20.5s21.5 -31.167 21.5 -52.5z" />
    <glyph glyph-name="k" unicode="k" horiz-adv-x="522" 
d="M222 191c-11.333 13.333 -18.6699 30.002 -22.0029 50.002v-241h-136v705c1.33301 0.666992 6.66602 1.5 15.999 2.5s19.333 1.5 30 1.5s21.334 -1 32.001 -3s20.334 -6 29.001 -12s15.667 -14.167 21 -24.5s8 -23.833 8 -40.5v-358c4 18 12.667 34.667 26 50l106 121
c11.333 13.333 22.833 23.666 34.5 30.999s25.834 11 42.501 11c17.333 0 32.833 -3.16699 46.5 -9.5s26.834 -14.5 39.501 -24.5l-163 -188l187 -248c-9.33301 -6.66699 -21 -12.334 -35 -17.001s-28.667 -7 -44 -7c-24 0 -44 3.83301 -60 11.5s-31.667 21.167 -47 40.5z
" />
    <glyph glyph-name="l" unicode="l" horiz-adv-x="264" 
d="M200 -6c-3.33301 -1.33301 -9.66992 -2.33301 -19.0029 -3s-19.666 -1 -30.999 -1s-22.166 1.16699 -32.499 3.5s-19.5 6.66602 -27.5 12.999s-14.333 14.833 -19 25.5s-7 24.334 -7 41.001v632c1.33301 0.666992 6.66602 1.5 15.999 2.5s19.333 1.5 30 1.5
s21.334 -1 32.001 -3s20.334 -5.83301 29.001 -11.5s15.667 -13.667 21 -24s8 -23.833 8 -40.5v-636z" />
    <glyph glyph-name="m" unicode="m" horiz-adv-x="832" 
d="M201 0l-136.996 -0.00292969v473l12 2c4 0.666992 8.66699 1.16699 14 1.5s11.666 0.5 18.999 0.5c21.333 0 39.833 -3.83301 55.5 -11.5s25.5 -21.167 29.5 -40.5c11.333 15.333 28.666 29.5 51.999 42.5s55 19.5 95 19.5c37.333 0 65.166 -6.66699 83.499 -20
s31.833 -29 40.5 -47c14 17.333 33.333 32.833 58 46.5s56 20.5 94 20.5c47.333 0 82.166 -10 104.499 -30s35.5 -44 39.5 -72c2.66699 -15.333 4.5 -32 5.5 -50s1.5 -35.667 1.5 -53v-282h-136v276c0 14.667 -0.333008 28 -1 40s-3.16699 22.333 -7.5 31
s-11 15.334 -20 20.001s-21.5 7 -37.5 7c-17.333 0 -33.833 -4 -49.5 -12s-26.5 -16.667 -32.5 -26c2 -19.333 3 -39 3 -59v-277h-136v276c0 14.667 -0.333008 28.334 -1 41.001s-3.33398 23.5 -8.00098 32.5s-11.667 16 -21 21s-22.666 7.5 -39.999 7.5
c-23.333 0 -42.5 -5.16699 -57.5 -15.5s-22.5 -23.166 -22.5 -38.499v-324z" />
    <glyph glyph-name="n" unicode="n" horiz-adv-x="562" 
d="M201 0l-136.998 -0.000976562v473l12 2c4 0.666992 8.66699 1.16699 14 1.5s11.666 0.5 18.999 0.5c21.333 0 39.833 -3.83301 55.5 -11.5s25.5 -21.167 29.5 -40.5c11.333 15.333 28.666 29.5 51.999 42.5s55 19.5 95 19.5c47.333 0 82.333 -9.33301 105 -28
s37.334 -43.334 44.001 -74.001c3.33301 -15.333 5.5 -32 6.5 -50s1.5 -35.667 1.5 -53v-282h-136v276c0 14.667 -0.5 28.334 -1.5 41.001s-3.66699 23.5 -8 32.5s-11.333 16 -21 21s-23.167 7.5 -40.5 7.5c-24.667 0 -45.834 -5.16699 -63.501 -15.5
s-26.5 -23.166 -26.5 -38.499v-324z" />
    <glyph glyph-name="o" unicode="o" horiz-adv-x="559" 
d="M515 239c0 -33.333 -4.16309 -65.332 -12.4961 -95.999s-22 -57.667 -41 -81s-43.5 -42 -73.5 -56s-66.333 -21 -109 -21s-78.834 6.83301 -108.501 20.5s-53.834 32 -72.501 55s-32.334 49.667 -41.001 80s-13 62.166 -13 95.499c0 34 5 66.167 15 96.5
s24.833 57 44.5 80s44.5 41.167 74.5 54.5s65 20 105 20c42 0 77.833 -6.66699 107.5 -20s53.667 -31.333 72 -54s31.666 -49 39.999 -79s12.5 -61.667 12.5 -95zM378.004 238.001c0 18 -1.33301 35.835 -4 53.502s-7.66699 33.167 -15 46.5s-17.333 24.166 -30 32.499
s-28.667 12.5 -48 12.5s-35.5 -4.33301 -48.5 -13s-23.333 -19.834 -31 -33.501s-13.167 -29.167 -16.5 -46.5s-5 -35 -5 -53s1.5 -36 4.5 -54s8.16699 -34.167 15.5 -48.5s17.5 -25.833 30.5 -34.5s29.167 -13 48.5 -13c20 0 36.5 4.33301 49.5 13s23.167 20.167 30.5 34.5
s12.333 30.5 15 48.5s4 36.333 4 55z" />
    <glyph glyph-name="p" unicode="p" horiz-adv-x="561" 
d="M194 429c10.667 12.667 27.334 25.5039 50.001 38.5039s51.334 19.5 86.001 19.5c24.667 0 48.167 -4.16699 70.5 -12.5s42.166 -21.833 59.499 -40.5s31.166 -43.334 41.499 -74.001s15.5 -68.334 15.5 -113.001c0 -52 -6 -94.833 -18 -128.5
s-27.5 -60.334 -46.5 -80.001s-40.333 -33.5 -64 -41.5s-46.834 -12 -69.501 -12c-19.333 0 -36.166 2.16699 -50.499 6.5s-26.5 9.16602 -36.5 14.499s-17.667 10.666 -23 15.999s-8.66602 9 -9.99902 11v-251h-135v691l12 2c4 0.666992 8.66699 1.16699 14 1.5
s11.666 0.5 18.999 0.5c22 0 40.667 -3.66699 56 -11s25 -19.666 29 -36.999zM375 244.004c0 20 -1.66699 38.667 -5 56s-8.83301 32.333 -16.5 45s-18 22.5 -31 29.5s-28.833 10.5 -47.5 10.5c-28 0 -47.5 -5.33301 -58.5 -16s-16.5 -22.334 -16.5 -35.001v-212
c5.33301 -5.33301 14.833 -11.666 28.5 -18.999s29.5 -11 47.5 -11c34 0 59 13.333 75 40s24 64 24 112z" />
    <glyph glyph-name="q" unicode="q" horiz-adv-x="559" 
d="M495 -218l-135 -0.000976562v254c-10 -12 -25 -23 -45 -33s-45 -15 -75 -15c-26.667 0 -51.834 4.16699 -75.501 12.5s-44.5 22 -62.5 41s-32.167 43.833 -42.5 74.5s-15.5 68.334 -15.5 113.001c0 49.333 6 90.5 18 123.5s27.667 59.5 47 79.5s40.833 34.167 64.5 42.5
s47.5 12.5 71.5 12.5c18 0 34.167 -2.33301 48.5 -7s26.666 -10 36.999 -16s18.5 -12.167 24.5 -18.5s10 -11.5 12 -15.5c4.66699 15.333 14.334 27 29.001 35s31.667 12 51 12c6 0 11.833 -0.166992 17.5 -0.5s10.834 -0.833008 15.501 -1.5l15 -2v-691zM184 233.999
c0 -46 7.66895 -82.667 23.002 -110s42 -41 80 -41c21.333 0 38.666 4.16699 51.999 12.5s20 18.833 20 31.5v228c-5.33301 5.33301 -14.5 11.5 -27.5 18.5s-28.167 10.5 -45.5 10.5c-34.667 0 -60.334 -13 -77.001 -39s-25 -63 -25 -111z" />
    <glyph glyph-name="r" unicode="r" horiz-adv-x="380" 
d="M194 426c4 6 9.49707 12.6641 16.4971 19.9971s15.167 14 24.5 20s19.833 11 31.5 15s24.167 6 37.5 6c8 0 16.5 -0.666992 25.5 -2s17.333 -3.83301 25 -7.5s13.834 -8.66699 18.501 -15s7 -14.166 7 -23.499c0 -14 -3.66699 -30.667 -11 -50
s-14.666 -35.666 -21.999 -48.999c-11.333 9.33301 -22.666 16.5 -33.999 21.5s-24.666 7.5 -39.999 7.5c-20.667 0 -38 -6 -52 -18s-21 -26.333 -21 -43v-308h-136v473l12 2c4 0.666992 8.66699 1.16699 14 1.5s11.666 0.5 18.999 0.5c21.333 0 39.833 -4.16699 55.5 -12.5
s25.5 -21.166 29.5 -38.499z" />
    <glyph glyph-name="s" unicode="s" horiz-adv-x="430" 
d="M393 418c0 -10 -3.1709 -21.8311 -9.50391 -35.498s-13.166 -26.5 -20.499 -38.5c-6 4.66699 -14 10 -24 16s-21 11.5 -33 16.5s-24.667 9.16699 -38 12.5s-26.333 5 -39 5c-7.33301 0 -15 -0.5 -23 -1.5s-15.167 -3 -21.5 -6s-11.666 -7.33301 -15.999 -13
s-6.5 -13.167 -6.5 -22.5c0 -22.667 24.333 -39.334 73 -50.001c20 -4 39.833 -9.16699 59.5 -15.5s37.334 -15.166 53.001 -26.499s28.334 -25.666 38.001 -42.999s14.5 -39 14.5 -65c0 -26.667 -5.16699 -50.334 -15.5 -71.001s-24.5 -38 -42.5 -52
s-39.167 -24.667 -63.5 -32s-50.833 -11 -79.5 -11c-30 0 -55 2.16699 -75 6.5s-36.667 9.5 -50 15.5c-9.33301 4 -19.5 9.83301 -30.5 17.5s-16.5 18.167 -16.5 31.5c0 11.333 3.33301 23.166 10 35.499s14.334 25.166 23.001 38.499c6 -5.33301 13.5 -10.833 22.5 -16.5
s19.333 -11 31 -16s24.167 -9.16699 37.5 -12.5s27 -5 41 -5c8.66699 0 17.667 0.666992 27 2s17.5 4 24.5 8s12.833 9.33301 17.5 16s7 15.334 7 26.001c0 19.333 -7.5 33.166 -22.5 41.499s-37.5 15.5 -67.5 21.5c-19.333 4 -38 9.33301 -56 16s-34 15.5 -48 26.5
s-25.167 24.833 -33.5 41.5s-12.5 37 -12.5 61s5.33301 45 16 63s24.834 33.333 42.501 46s38.167 22.167 61.5 28.5s47.666 9.5 72.999 9.5c26.667 0 50.5 -2 71.5 -6s39.167 -9.33301 54.5 -16c29.333 -12 44.666 -27.667 45.999 -47z" />
    <glyph glyph-name="t" unicode="t" horiz-adv-x="376" 
d="M71 72c-4.66699 13.333 -7.66699 27.333 -9 42s-2 29.334 -2 44.001v464l15 2c4.66699 0.666992 9.66699 1.16699 15 1.5s10.666 0.5 15.999 0.5c10.667 0 21.334 -1 32.001 -3s20.334 -6 29.001 -12s15.667 -14.167 21 -24.5s8 -23.833 8 -40.5v-70h140v-102h-140v-214
c0 -46.667 19 -70 57 -70c9.33301 0 18.166 1.5 26.499 4.5s16 6.33301 23 10s12.833 7.5 17.5 11.5s8 7 10 9c10 -14.667 17.667 -27.334 23 -38.001s8 -20.667 8 -30c0 -8.66699 -3.5 -17.167 -10.5 -25.5s-16.833 -16 -29.5 -23s-28 -12.667 -46 -17
s-37.667 -6.5 -59 -6.5c-42 0 -74.333 8 -97 24s-38.667 37 -48 63z" />
    <glyph glyph-name="u" unicode="u" horiz-adv-x="561" 
d="M497 0l-91.0029 -0.00195312c-16.667 0 -27.167 4.5 -31.5 13.5s-6.5 22.167 -6.5 39.5c-11.333 -15.333 -28.666 -29.5 -51.999 -42.5s-55 -19.5 -95 -19.5c-47.333 0 -82.333 9.33301 -105 28s-37.334 43.334 -44.001 74.001c-3.33301 15.333 -5.5 32 -6.5 50
s-1.5 35.667 -1.5 53v277c1.33301 0.666992 6.66602 1.5 15.999 2.5s19.333 1.5 30 1.5s21.334 -1 32.001 -3s20.334 -5.83301 29.001 -11.5s15.667 -13.667 21 -24s8 -23.833 8 -40.5v-196c0 -15.333 0.5 -29.166 1.5 -41.499s3.66699 -23 8 -32s11.333 -16 21 -21
s23.167 -7.5 40.5 -7.5c24.667 0 45.834 5.16699 63.501 15.5s26.5 23.166 26.5 38.499v319c1.33301 0.666992 6.66602 1.5 15.999 2.5s19.333 1.5 30 1.5s21.334 -1.16699 32.001 -3.5s20.334 -6.66602 29.001 -12.999s15.667 -15 21 -26s8 -24.833 8 -41.5v-393z" />
    <glyph glyph-name="v" unicode="v" horiz-adv-x="485" 
d="M316 -5h-145l-165 469c21.333 8.66699 45.333 13 72 13c16 0 29.167 -2.33301 39.5 -7s19 -11 26 -19s12.667 -17.833 17 -29.5s8.5 -24.5 12.5 -38.5l72 -258l76 261c8 28.667 18 51 30 67s32 24 60 24c13.333 0 26 -1.33301 38 -4s22 -5.66699 30 -9z" />
    <glyph glyph-name="w" unicode="w" horiz-adv-x="725" 
d="M557 -5l-105.998 0.000976562l-81 217l-93 -217h-96l-175 469c12 4 24.5 7.16699 37.5 9.5s24.167 3.5 33.5 3.5c20.667 0 38.167 -4.33301 52.5 -13s25.166 -23.334 32.499 -44.001l90 -270l67 163l-48 153c12.667 4 24.5 6.83301 35.5 8.5s21.833 2.5 32.5 2.5
c17.333 0 32.166 -4.33301 44.499 -13s21.5 -22.667 27.5 -42l86 -262l65 226c8 30 18.333 52.667 31 68s31.667 23 57 23c13.333 0 25.5 -1.16699 36.5 -3.5s21.833 -5.5 32.5 -9.5z" />
    <glyph glyph-name="x" unicode="x" horiz-adv-x="469" 
d="M239 327l53.999 88.001c12.667 20.667 26 36.167 40 46.5s33.667 15.5 59 15.5c13.333 0 25.833 -1.66699 37.5 -5s22.834 -7.33301 33.501 -12l-152 -228l146 -230c-20 -8 -41 -12 -63 -12c-23.333 0 -43 3.5 -59 10.5s-30.667 21.167 -44 42.5l-60 94l-82 -137h-143
l152 237l-140 226c10.667 3.33301 23.5 6.66602 38.5 9.99902s29.5 5 43.5 5c22.667 0 40.5 -5 53.5 -15s24.167 -23.667 33.5 -41z" />
    <glyph glyph-name="y" unicode="y" horiz-adv-x="494" 
d="M322 -82c-13.333 -44 -35.499 -79.167 -66.499 -105.5s-73.5 -39.5 -127.5 -39.5c-30 0 -54.667 4.33301 -74 13s-29 23.334 -29 44.001c0 9.33301 2.5 19.666 7.5 30.999s11.833 24 20.5 38c7.33301 -5.33301 17 -10 29 -14s24.667 -6 38 -6
c20.667 0 37.667 5.5 51 16.5s24.666 30.5 33.999 58.5l17 50h-62l-154 462c10 3.33301 22.167 6 36.5 8s27.5 3 39.5 3c18.667 0 35.167 -5 49.5 -15s24.5 -25.333 30.5 -46l90 -308l74 269c4 14 8.5 27 13.5 39s11.167 22.5 18.5 31.5s16.333 16.167 27 21.5
s23.667 8 39 8c12.667 0 24 -1.16699 34 -3.5s20 -5.5 30 -9.5z" />
    <glyph glyph-name="z" unicode="z" horiz-adv-x="443" 
d="M25 0v91.002l217 279h-220c-0.666992 3.33301 -1 6.83301 -1 10.5v9.5c0 30 8.16699 51.833 24.5 65.5s39.5 20.5 69.5 20.5h231c21.333 0 37 -3.5 47 -10.5s15 -19.5 15 -37.5v-34l-223 -289h156c32 0 54.5 -6 67.5 -18s19.5 -30.667 19.5 -56
c0 -6.66699 -0.166992 -12.334 -0.5 -17.001s-0.833008 -9.33398 -1.5 -14.001h-401z" />
    <glyph glyph-name="braceleft" unicode="{" horiz-adv-x="351" 
d="M230 427c0 -32 -5.49902 -59.5029 -16.499 -82.5029s-30.5 -40.167 -58.5 -51.5c28 -10 47.5 -26.667 58.5 -50s16.5 -51 16.5 -83v-132c0 -26 7.66699 -44 23 -54s33.333 -15 54 -15h10.5c3.66699 0 7.16699 0.333008 10.5 1c2 -11.333 3.66699 -21.666 5 -30.999
s2 -16.666 2 -21.999c0 -19.333 -6.33301 -31.833 -19 -37.5s-28.334 -8.5 -47.001 -8.5c-32 0 -59 5 -81 15s-39.833 22.667 -53.5 38s-23.5 32.666 -29.5 51.999s-9 38.333 -9 57v142c0 55.333 -21.667 83 -65 83v92c26.667 0 44.167 8.5 52.5 25.5s12.5 43.5 12.5 79.5
v84c0 22.667 2.83301 45.167 8.5 67.5s15.334 42.333 29.001 60s32.167 32 55.5 43s52.666 16.5 87.999 16.5c16.667 0 30.5 -3 41.5 -9s16.5 -18 16.5 -36c0 -5.33301 -0.666992 -12.666 -2 -21.999s-3 -19.666 -5 -30.999c-3.33301 0.666992 -6.66602 1 -9.99902 1h-10
c-20.667 0 -38.834 -5 -54.501 -15s-23.5 -28 -23.5 -54v-123z" />
    <glyph glyph-name="bar" unicode="|" horiz-adv-x="271" 
d="M77 -188v982h112v-982h-112z" />
    <glyph glyph-name="braceright" unicode="}" horiz-adv-x="351" 
d="M121 550c0 26 -7.83203 44.0029 -23.499 54.0029s-33.834 15 -54.501 15h-10c-3.33301 0 -6.66602 -0.333008 -9.99902 -1c-2 11.333 -3.66699 21.666 -5 30.999s-2 16.666 -2 21.999c0 18 5.5 30 16.5 36s24.833 9 41.5 9c35.333 0 64.666 -5.5 87.999 -16.5
s41.833 -25.333 55.5 -43s23.334 -37.667 29.001 -60s8.5 -44.833 8.5 -67.5v-84c0 -36 4.16699 -62.5 12.5 -79.5s25.833 -25.5 52.5 -25.5v-92c-43.333 0 -65 -27.667 -65 -83v-142c0 -18.667 -3 -37.667 -9 -57s-15.833 -36.666 -29.5 -51.999s-31.5 -28 -53.5 -38
s-49 -15 -81 -15c-18.667 0 -34.334 2.83301 -47.001 8.5s-19 18.167 -19 37.5c0 5.33301 0.666992 12.666 2 21.999s3 19.666 5 30.999c3.33301 -0.666992 6.83301 -1 10.5 -1h10.5c20.667 0 38.667 5 54 15s23 28 23 54v132c0 32 5.5 59.667 16.5 83s30.5 40 58.5 50
c-28 11.333 -47.5 28.5 -58.5 51.5s-16.5 50.5 -16.5 82.5v123z" />
    <glyph glyph-name="asciitilde" unicode="~" horiz-adv-x="501" 
d="M477 655c-2.66699 -54 -15.8311 -96 -39.498 -126s-53.834 -45 -90.501 -45c-21.333 0 -39.5 3.83301 -54.5 11.5s-29 16.167 -42 25.5s-25.667 17.833 -38 25.5s-25.833 11.5 -40.5 11.5c-34 0 -54 -24.333 -60 -73h-88c3.33301 50 16.833 90.833 40.5 122.5
s56.5 47.5 98.5 47.5c22.667 0 42 -3.83301 58 -11.5s30.333 -16 43 -25l35.5 -25c11 -7.66699 22.5 -11.5 34.5 -11.5c17.333 0 30.166 6.5 38.499 19.5s13.5 30.833 15.5 53.5h89z" />
    <glyph glyph-name="uni00A0" unicode="&#xa0;" horiz-adv-x="230" 
 />
    <glyph glyph-name="exclamdown" unicode="&#xa1;" horiz-adv-x="281" 
d="M66 401c0 21.333 6.83203 39 20.499 53s31.834 21 54.501 21c22 0 39.833 -7 53.5 -21s20.5 -31.667 20.5 -53s-6.83301 -38.833 -20.5 -52.5s-31.5 -20.5 -53.5 -20.5s-40 6.83301 -54 20.5s-21 31.167 -21 52.5zM75.999 271l15 2.00098
c4.66699 0.666992 9.66699 1.16699 15 1.5s10.666 0.5 15.999 0.5c10.667 0 21.334 -1.33301 32.001 -4s20.334 -7.33398 29.001 -14.001s15.667 -15.5 21 -26.5s8 -24.833 8 -41.5v-397l-15 -2c-4.66699 -0.666992 -9.66699 -1.16699 -15 -1.5s-10.666 -0.5 -15.999 -0.5
c-10.667 0 -21.334 1.16699 -32.001 3.5s-20.334 6.5 -29.001 12.5s-15.667 14.167 -21 24.5s-8 23.833 -8 40.5v402z" />
    <glyph glyph-name="cent" unicode="&#xa2;" horiz-adv-x="549" 
d="M331 192c14.667 0 28.0039 1.66797 40.0039 5.00098s22.833 7.5 32.5 12.5s17.667 10.167 24 15.5s11.166 10 14.499 14c3.33301 -4 7 -9.16699 11 -15.5s7.66699 -13 11 -20s6.16602 -14 8.49902 -21s3.5 -12.833 3.5 -17.5c0 -6 -1.33301 -12.167 -4 -18.5
s-8.33398 -12.833 -17.001 -19.5c-7.33301 -5.33301 -16 -10.333 -26 -15s-21.667 -8.66699 -35 -12v-117h-61v108h-23c-9.33301 0 -16 0.333008 -20 1v-109h-61v120c-20 6 -39.5 14.667 -58.5 26s-35.667 26.333 -50 45s-26 41.334 -35 68.001s-13.5 58.334 -13.5 95.001
c0 35.333 4.5 66 13.5 92s20.833 48.167 35.5 66.5s31.5 33.166 50.5 44.499s38.167 20 57.5 26v118h61v-106c6 0.666992 13.333 1 22 1c7.33301 0 14.333 -0.333008 21 -1v106h61v-116c10 -2.66699 19.333 -5.83398 28 -9.50098s16.667 -7.5 24 -11.5
c12.667 -6.66699 21.5 -13.834 26.5 -21.501s7.5 -16.5 7.5 -26.5c0 -8.66699 -3 -20 -9 -34s-13.667 -26.667 -23 -38c-10.667 11.333 -26.334 22.5 -47.001 33.5s-43.667 16.5 -69 16.5c-44 0 -75.333 -12.5 -94 -37.5s-28 -58.5 -28 -100.5c0 -20.667 2 -40 6 -58
s10.833 -33.5 20.5 -46.5s22.167 -23.333 37.5 -31s34.333 -11.5 57 -11.5z" />
    <glyph glyph-name="sterling" unicode="&#xa3;" horiz-adv-x="549" 
d="M113 0l-0.00195312 275h-67v95h67v88c0 24.667 2.16699 47.167 6.5 67.5s11.666 39.333 21.999 57s25.333 33.5 45 47.5s41.834 24.333 66.501 31s50.667 10 78 10c22 0 42 -1.66699 60 -5s34 -7.33301 48 -12s26 -9.83398 36 -15.501s18 -10.5 24 -14.5
c16 -12 24 -25 24 -39c0 -9.33301 -4.16699 -21.166 -12.5 -35.499s-18.166 -27.5 -29.499 -39.5c-16.667 12.667 -35 24.5 -55 35.5s-44.667 16.5 -74 16.5c-14 0 -27.167 -1.66699 -39.5 -5s-23.166 -9 -32.499 -17s-16.833 -18.667 -22.5 -32s-8.5 -30 -8.5 -50v-88h197
v-95h-197v-169h191c32.667 0 54.667 -6.16699 66 -18.5s17 -29.833 17 -52.5c0 -7.33301 -0.166992 -13.5 -0.5 -18.5s-0.833008 -10.5 -1.5 -16.5h-408z" />
    <glyph glyph-name="currency" unicode="&#xa4;" horiz-adv-x="549" 
d="M403 353c0 40 -11.333 73.333 -34 100s-55 40 -97 40s-74.333 -13.167 -97 -39.5s-34 -59.833 -34 -100.5c0 -40 11.667 -73.167 35 -99.5s55.333 -39.5 96 -39.5c42 0 74.333 13.167 97 39.5s34 59.5 34 99.5zM471 96l-75.001 72.0029c-37.333 -24 -79 -36 -125 -36
c-44 0 -84.333 11.333 -121 34l-74 -70l-65 63l75 71c-12 17.333 -21 36.666 -27 57.999s-9 42.666 -9 63.999c0 45.333 11.667 85.666 35 120.999l-71 66l67 62l66 -62c36.667 24 78.334 36 125.001 36c46 0 88.667 -12.667 128 -38l71 69l67 -63l-76 -71
c11.333 -17.333 19.5 -36 24.5 -56s7.5 -40.667 7.5 -62c0 -22 -2.83301 -43.5 -8.5 -64.5s-14.167 -40.167 -25.5 -57.5l76 -73z" />
    <glyph glyph-name="yen" unicode="&#xa5;" horiz-adv-x="549" 
d="M379 342l104.001 0.000976562v-63h-140v-74h140v-63h-140v-142h-137v142h-133v63h133v74h-133v63h95l-161 298c11.333 5.33301 24.666 10 39.999 14s29.666 6 42.999 6c24 0 41.833 -4.66699 53.5 -14s22.167 -22.666 31.5 -39.999l101 -200l98 197
c8.66699 15.333 19.834 28.666 33.501 39.999s32.5 17 56.5 17c15.333 0 29 -1.33301 41 -4s24.667 -6.33398 38 -11.001z" />
    <glyph glyph-name="brokenbar" unicode="&#xa6;" horiz-adv-x="271" 
d="M77 -188v403h112v-403h-112zM189 419h-112v375h112v-375z" />
    <glyph glyph-name="section" unicode="&#xa7;" horiz-adv-x="508" 
d="M56 294c0 14.667 2 28.1709 6 40.5039s9.16699 23.666 15.5 33.999s13.333 19.666 21 27.999s15.167 15.5 22.5 21.5c-17.333 13.333 -30.833 28.333 -40.5 45s-14.5 39 -14.5 67c0 23.333 4.83301 44.5 14.5 63.5s23.167 35.167 40.5 48.5s37.833 23.5 61.5 30.5
s49.5 10.5 77.5 10.5c20 0 40.833 -2 62.5 -6s41.167 -9.5 58.5 -16.5s31.666 -15.5 42.999 -25.5s17 -21 17 -33s-3.5 -24.5 -10.5 -37.5s-15.167 -25.5 -24.5 -37.5c-23.333 16.667 -47.666 30.167 -72.999 40.5s-49.333 15.5 -72 15.5s-40.667 -4.33301 -54 -13
s-20 -21.667 -20 -39c0 -14.667 7.33301 -27.667 22 -39s32.334 -21.666 53.001 -30.999l75 -32c17.333 -8 33 -16.5 47 -25.5s26 -19.167 36 -30.5s17.833 -24.333 23.5 -39s8.5 -31.667 8.5 -51c0 -14 -2 -27.333 -6 -40s-9.16699 -24.334 -15.5 -35.001
s-13.333 -20.5 -21 -29.5s-15.167 -16.833 -22.5 -23.5c13.333 -12 24 -25 32 -39s12 -32.333 12 -55c0 -26 -5 -49 -15 -69s-23.667 -36.833 -41 -50.5s-37.333 -23.834 -60 -30.501s-46.667 -10 -72 -10c-32.667 0 -62 3.33301 -88 10s-47 15.334 -63 26.001
c-21.333 14 -32 29.667 -32 47c0 11.333 4.83301 24 14.5 38s19.167 26.333 28.5 37c22 -20.667 45 -36.167 69 -46.5s47 -15.5 69 -15.5c19.333 0 36.166 4.66699 50.499 14s21.5 24.333 21.5 45c0 17.333 -6.5 30.833 -19.5 40.5s-34.5 20.167 -64.5 31.5l-67 26
c-39.333 15.333 -66.833 35.166 -82.5 59.499s-23.5 51.166 -23.5 80.499zM169 305.004c0 -14 4 -25.6689 12 -35.002s23.667 -19 47 -29l76 -33c8 7.33301 15.5 17 22.5 29s10.5 24.667 10.5 38c0 16.667 -6.16699 30.334 -18.5 41.001s-26.833 19.334 -43.5 26.001l-70 28
c-8 -5.33301 -16 -13.5 -24 -24.5s-12 -24.5 -12 -40.5z" />
    <glyph glyph-name="dieresis" unicode="&#xa8;" horiz-adv-x="382" 
d="M400 619c0 -19.333 -6.33203 -34.833 -18.999 -46.5s-28 -17.5 -46 -17.5c-18.667 0 -34.334 5.83301 -47.001 17.5s-19 27.167 -19 46.5c0 18.667 6.5 34 19.5 46s28.5 18 46.5 18s33.333 -6 46 -18s19 -27.333 19 -46zM194.001 619
c0 -19.333 -6.33203 -34.833 -18.999 -46.5s-28 -17.5 -46 -17.5c-18.667 0 -34.334 5.83301 -47.001 17.5s-19 27.167 -19 46.5c0 18.667 6.5 34 19.5 46s28.5 18 46.5 18s33.333 -6 46 -18s19 -27.333 19 -46z" />
    <glyph glyph-name="copyright" unicode="&#xa9;" horiz-adv-x="818" 
d="M754 325c0 -49.333 -8.16504 -95.833 -24.498 -139.5s-39.5 -82 -69.5 -115s-66.333 -59.167 -109 -78.5s-90.334 -29 -143.001 -29c-54 0 -102.333 9.5 -145 28.5s-78.834 44.833 -108.501 77.5s-52.167 71 -67.5 115s-23 91 -23 141c0 48.667 8 94.834 24 138.501
s39 81.834 69 114.501s66.167 58.667 108.5 78s90.166 29 143.499 29c52.667 0 100.334 -9.66699 143.001 -29s79 -45.333 109 -78s53 -70.834 69 -114.501s24 -89.834 24 -138.501zM696.002 325c0 40 -6.66699 78.333 -20 115s-32.333 69.167 -57 97.5
s-54.667 50.833 -90 67.5s-75 25 -119 25s-83.667 -8.33301 -119 -25s-65.333 -39.167 -90 -67.5s-43.667 -60.833 -57 -97.5s-20 -75 -20 -115s6.33301 -78.5 19 -115.5s31.167 -69.667 55.5 -98s54.333 -51 90 -68s76.167 -25.5 121.5 -25.5c44 0 83.667 8.5 119 25.5
s65.333 39.667 90 68s43.667 61 57 98s20 75.5 20 115.5zM551.002 141c-8 -6.66699 -22.502 -15.002 -43.502 -25.002s-48.833 -15 -83.5 -15c-29.333 0 -57 4.5 -83 13.5s-48.833 22.833 -68.5 41.5s-35.167 42.334 -46.5 71.001s-17 62.667 -17 102
c0 38.667 6 72.334 18 101.001s28 52.5 48 71.5s42.833 33.167 68.5 42.5s52.167 14 79.5 14c28 0 51.333 -2.83301 70 -8.5s34 -12.5 46 -20.5c13.333 -8.66699 22.333 -16.667 27 -24s7 -14.666 7 -21.999c0 -10 -3.66699 -20 -11 -30s-15.333 -19.667 -24 -29
c-14 16 -29.167 28.5 -45.5 37.5s-37.166 13.5 -62.499 13.5c-40 0 -69 -13.333 -87 -40s-27 -61.334 -27 -104.001c0 -20 2 -38.833 6 -56.5s10.667 -33 20 -46s21.5 -23.333 36.5 -31s33.5 -11.5 55.5 -11.5c14 0 26.5 1.66699 37.5 5s20.667 7.33301 29 12
s15.5 9.66699 21.5 15s10.667 9.66602 14 12.999l10 -12c4 -4.66699 7.83301 -9.66699 11.5 -15s6.83398 -10.666 9.50098 -15.999s4 -10 4 -14c0 -6 -1.5 -11.5 -4.5 -16.5s-8.16699 -10.5 -15.5 -16.5z" />
    <glyph glyph-name="ordfeminine" unicode="&#xaa;" horiz-adv-x="426" 
d="M370 401c0 -19.333 1.83691 -37.001 5.50391 -53.001s8.5 -29 14.5 -39c-11.333 -4.66699 -21 -7.83398 -29 -9.50098s-18.667 -2.5 -32 -2.5c-17.333 0 -30.833 3.5 -40.5 10.5s-16.834 15.833 -21.501 26.5c-11.333 -9.33301 -26.166 -17.666 -44.499 -24.999
s-38.833 -11 -61.5 -11c-14.667 0 -29.334 2 -44.001 6s-28 10.5 -40 19.5s-21.833 20.833 -29.5 35.5s-11.5 33 -11.5 55c0 26.667 6.5 48.334 19.5 65.001s29.167 29.667 48.5 39s40.166 15.833 62.499 19.5s43.166 5.5 62.499 5.5h24v11c0 17.333 -4.33301 30 -13 38
s-23.667 12 -45 12c-18.667 0 -37.667 -3.16699 -57 -9.5s-38 -14.5 -56 -24.5c-15.333 20.667 -23 39 -23 55c0 8 4.16699 15.5 12.5 22.5s19.666 13.167 33.999 18.5s30.833 9.5 49.5 12.5s38.334 4.5 59.001 4.5c57.333 0 97.666 -11.667 120.999 -35s35 -59 35 -107
v-140zM255.004 483.999c-11.333 0 -23.168 -1.16699 -35.501 -3.5s-23.666 -6 -33.999 -11s-18.833 -11.667 -25.5 -20s-10 -18.5 -10 -30.5c0 -12.667 3.83301 -23.5 11.5 -32.5s20.167 -13.5 37.5 -13.5c16 0 29.333 3.83301 40 11.5s16 15.167 16 22.5v77z" />
    <glyph glyph-name="guillemotleft" unicode="&#xab;" horiz-adv-x="532" 
d="M393 279l71 -87c12 -15.333 18 -30.333 18 -45c0 -12.667 -3.5 -26 -10.5 -40s-14.167 -25.667 -21.5 -35l-145 132c-11.333 10.667 -20.5 22 -27.5 34s-10.5 25.333 -10.5 40s3.83301 27.834 11.5 39.501s17.167 22.5 28.5 32.5l138 128c22 -25.333 33 -48 33 -68
c0 -8.66699 -1.33301 -17.334 -4 -26.001s-7.66699 -17.667 -15 -27zM162 279l71 -87c12 -15.333 18 -30.333 18 -45c0 -12.667 -3.5 -26 -10.5 -40s-14.167 -25.667 -21.5 -35l-145 132c-11.333 10.667 -20.5 22 -27.5 34s-10.5 25.333 -10.5 40
s3.83301 27.834 11.5 39.501s17.167 22.5 28.5 32.5l138 128c22 -25.333 33 -48 33 -68c0 -8.66699 -1.33301 -17.334 -4 -26.001s-7.66699 -17.667 -15 -27z" />
    <glyph glyph-name="logicalnot" unicode="&#xac;" horiz-adv-x="549" 
d="M392 135v168h-353v113h471v-281h-118z" />
    <glyph glyph-name="uni00AD" unicode="&#xad;" horiz-adv-x="456" 
d="M137 228c-48 0 -72 20.999 -72 62.999c0 14.667 1 29 3 43h250c22 0 40 -3.66699 54 -11s21 -24.666 21 -51.999c0 -7.33301 -0.166992 -14.5 -0.5 -21.5s-0.833008 -14.167 -1.5 -21.5h-254z" />
    <glyph glyph-name="registered" unicode="&#xae;" horiz-adv-x="818" 
d="M589 130c-20 -9.33301 -37 -14 -51 -14c-12 0 -23.333 2.66699 -34 8s-19.667 14 -27 26l-81 131h-38v-157h-85v419c18 1.33301 39.333 2.66602 64 3.99902s46 2 64 2c58.667 0 101.5 -11.833 128.5 -35.5s40.5 -54.5 40.5 -92.5c0 -17.333 -2.33301 -32.666 -7 -45.999
s-11 -25 -19 -35s-17.167 -18.667 -27.5 -26s-20.833 -13.333 -31.5 -18zM479 415c0 44 -26.333 66.001 -79 66.001c-9.33301 0 -17.333 -0.166992 -24 -0.5s-12.667 -0.833008 -18 -1.5v-133h47c25.333 0 44 6.16699 56 18.5s18 29.166 18 50.499zM754 325.001
c0 -49.333 -8.16602 -95.833 -24.499 -139.5s-39.5 -82.167 -69.5 -115.5s-66.333 -59.666 -109 -78.999s-90.334 -29 -143.001 -29c-55.333 0 -104.333 9.66699 -147 29s-78.5 45.666 -107.5 78.999s-51.167 71.833 -66.5 115.5s-23 90.167 -23 139.5
c0 48.667 8 94.834 24 138.501s39 81.834 69 114.501s66.167 58.667 108.5 78s90.166 29 143.499 29c52.667 0 100.334 -9.66699 143.001 -29s79 -45.333 109 -78s53 -70.834 69 -114.501s24 -89.834 24 -138.501zM695.001 325.001c0 40 -6.66895 78.333 -20.002 115
s-32.333 69.167 -57 97.5s-54.667 50.833 -90 67.5s-75 25 -119 25s-83.667 -8.33301 -119 -25s-65.166 -39.167 -89.499 -67.5s-43.166 -60.833 -56.499 -97.5s-20 -75 -20 -115s6.33301 -78.5 19 -115.5s31 -69.667 55 -98s53.667 -51 89 -68s75.666 -25.5 120.999 -25.5
c44 0 83.833 8.5 119.5 25.5s65.834 39.667 90.501 68s43.667 61 57 98s20 75.5 20 115.5z" />
    <glyph glyph-name="macron" unicode="&#xaf;" horiz-adv-x="382" 
d="M99 568c-25.333 0 -42.333 4.16797 -51 12.501s-13 21.166 -13 38.499c0 7.33301 0.166992 13.5 0.5 18.5s0.833008 11.167 1.5 18.5h241c21.333 0 38 -3 50 -9s18 -21 18 -45c0 -6 -0.166992 -11.667 -0.5 -17s-0.833008 -11 -1.5 -17h-245z" />
    <glyph glyph-name="degree" unicode="&#xb0;" horiz-adv-x="389" 
d="M334 558c0 -19.333 -3.33496 -37.332 -10.002 -53.999s-16.167 -31.167 -28.5 -43.5s-27.166 -22.166 -44.499 -29.499s-36.333 -11 -57 -11c-21.333 0 -40.666 3.66699 -57.999 11s-32 17.166 -44 29.499s-21.333 26.833 -28 43.5s-10 34.667 -10 54
c0 18.667 3.33301 36.5 10 53.5s16.167 31.667 28.5 44s27 22.166 44 29.499s36.167 11 57.5 11c42.667 0 76.667 -13 102 -39s38 -59 38 -99zM269.998 558.001c0 22 -7.16699 40.5 -21.5 55.5s-32.5 22.5 -54.5 22.5c-21.333 0 -38.833 -7.5 -52.5 -22.5
s-20.5 -33.5 -20.5 -55.5c0 -21.333 6.83301 -39.666 20.5 -54.999s31.167 -23 52.5 -23c22 0 40.167 7.66699 54.5 23s21.5 33.666 21.5 54.999z" />
    <glyph glyph-name="plusminus" unicode="&#xb1;" horiz-adv-x="549" 
d="M333 279v-167h157v-112h-431v112h157v166h-160v113h160v171h117v-171h160v-112h-160z" />
    <glyph glyph-name="twosuperior" unicode="&#xb2;" 
d="M55 300l0.000976562 71.001c15.333 12.667 33 28.167 53 46.5s39.667 38.166 59 59.499c14 15.333 25 29.666 33 42.999s12 28 12 44c0 14.667 -4.5 26.334 -13.5 35.001s-21.833 13 -38.5 13c-17.333 0 -33 -4.66699 -47 -14s-25.667 -18.666 -35 -27.999
c-10 8 -18.167 16.5 -24.5 25.5s-9.5 17.167 -9.5 24.5s2.66699 14.333 8 21s14.666 14 27.999 22c15.333 9.33301 32.333 15.666 51 18.999s34.334 5 47.001 5c18.667 0 36 -2.33301 52 -7s30 -11.667 42 -21s21.333 -21.333 28 -36s10 -32.334 10 -53.001
c0 -26.667 -6.16699 -50.5 -18.5 -71.5s-27.833 -41.167 -46.5 -60.5l-32.5 -31l-30.5 -28h81c23.333 0 39.666 -3.16699 48.999 -9.5s14 -20.166 14 -41.499c0 -7.33301 -0.333008 -13.5 -1 -18.5s-1 -8.16699 -1 -9.5h-269z" />
    <glyph glyph-name="threesuperior" unicode="&#xb3;" 
d="M323 411c0 -36.667 -12.1631 -66.1641 -36.4961 -88.4971s-61.5 -33.5 -111.5 -33.5c-13.333 0 -29 1.66699 -47 5s-34.333 8.66602 -49 15.999c-9.33301 4.66699 -17 10.167 -23 16.5s-9 14.166 -9 23.499s2.66699 18.5 8 27.5l17 28.5
c9.33301 -10 22.666 -19.5 39.999 -28.5s35.666 -13.5 54.999 -13.5c15.333 0 29.166 3.16699 41.499 9.5s18.5 19.5 18.5 39.5c0 11.333 -2.33301 20.333 -7 27s-10.334 11.667 -17.001 15s-13.667 5.5 -21 6.5s-13.333 1.5 -18 1.5h-33v68h35
c4.66699 0 10.167 0.5 16.5 1.5s12 3 17 6s9.33301 7.33301 13 13s5.5 13.167 5.5 22.5c0 14 -4.5 24 -13.5 30s-20.833 9 -35.5 9c-18.667 0 -35 -3.83301 -49 -11.5s-27 -15.834 -39 -24.501c-10 7.33301 -18 15.833 -24 25.5s-9 17.834 -9 24.501
c0 5.33301 1.66699 10.666 5 15.999s10.333 11 21 17c11.333 6.66699 26.333 12.834 45 18.501s40 8.5 64 8.5c46 0 79.333 -9.33301 100 -28s31 -42.334 31 -71.001c0 -25.333 -5.83301 -44.666 -17.5 -57.999s-24.167 -23.666 -37.5 -30.999
c16 -6.66699 30.667 -16.334 44 -29.001s20 -32.334 20 -59.001z" />
    <glyph glyph-name="acute" unicode="&#xb4;" horiz-adv-x="382" 
d="M240 564c-15.333 -17.333 -34 -26.001 -56 -26.001c-9.33301 0 -20.333 2 -33 6s-22 8.66699 -28 14l82 116c9.33301 12.667 18.833 22.167 28.5 28.5s21.5 9.5 35.5 9.5c12 0 25.5 -3.66699 40.5 -11s26.833 -14.666 35.5 -21.999z" />
    <glyph glyph-name="mu" unicode="&#xb5;" horiz-adv-x="568" 
d="M285 -7c-21.333 0 -39.333 2.99707 -54 8.99707s-28 15.667 -40 29v-249h-127v691c1.33301 0.666992 6.66602 1.5 15.999 2.5s19.333 1.5 30 1.5s21.334 -1 32.001 -3s20.334 -5.83301 29.001 -11.5s15.667 -13.667 21 -24s8 -23.833 8 -40.5v-209
c0 -34 6.66699 -57.833 20 -71.5s32.666 -20.5 57.999 -20.5c18.667 0 33.667 2.16699 45 6.5s20 9.83301 26 16.5s10 13.334 12 20.001s3 12.667 3 18v315c1.33301 0.666992 6.66602 1.5 15.999 2.5s19.333 1.5 30 1.5s21.334 -1.16699 32.001 -3.5
s20.334 -6.66602 29.001 -12.999s15.667 -15 21 -26s8 -24.833 8 -41.5v-239c0 -17.333 0.833008 -32 2.5 -44s5.16699 -21.833 10.5 -29.5s13 -13.167 23 -16.5s23.333 -5 40 -5v-51c-13.333 -5.33301 -27.333 -9.66602 -42 -12.999s-30.334 -5 -47.001 -5
c-54 0 -87.333 20.333 -100 61c-22.667 -38.667 -56.667 -58 -102 -58z" />
    <glyph glyph-name="paragraph" unicode="&#xb6;" horiz-adv-x="589" 
d="M258 -118l0.000976562 373h-18c-30.667 0 -58 5.16699 -82 15.5s-44.333 24.666 -61 42.999s-29.334 40 -38.001 65s-13 52.167 -13 81.5c0 34.667 5.33301 65.167 16 91.5s25.5 48.333 44.5 66s41 31 66 40s52.167 13.5 81.5 13.5h202
c19.333 0 34.833 -4.66699 46.5 -14s17.5 -25.666 17.5 -48.999v-726h-90v707h-83v-707h-89z" />
    <glyph glyph-name="periodcentered" unicode="&#xb7;" horiz-adv-x="308" 
d="M228 372c0 -21.333 -6.66699 -39.166 -20 -53.499s-31.333 -21.5 -54 -21.5c-22 0 -39.833 7.16699 -53.5 21.5s-20.5 32.166 -20.5 53.499s7 38.833 21 52.5s31.667 20.5 53 20.5s39 -6.83301 53 -20.5s21 -31.167 21 -52.5z" />
    <glyph glyph-name="cedilla" unicode="&#xb8;" horiz-adv-x="382" 
d="M271 -132c0 -14.667 -3.33301 -27.834 -10 -39.501s-15.167 -21.667 -25.5 -30s-22.333 -14.666 -36 -18.999s-27.5 -6.5 -41.5 -6.5c-13.333 0 -24.666 3 -33.999 9s-14 14.667 -14 26c0 4.66699 0.5 10.5 1.5 17.5s2.83301 14.833 5.5 23.5
c4.66699 -2.66699 10 -4.83398 16 -6.50098s12 -2.5 18 -2.5c10.667 0 19.167 1.66699 25.5 5s9.5 9.33301 9.5 18c0 8 -2.16699 14.833 -6.5 20.5s-9 11.167 -14 16.5s-9.66699 11 -14 17s-6.5 14 -6.5 24c0 13.333 3.83301 25.5 11.5 36.5s14.167 19.167 19.5 24.5h69
c-6.66699 -6.66699 -12.334 -13 -17.001 -19s-7 -12.667 -7 -20s2.66699 -13.666 8 -18.999l17 -17.5c6 -6.33301 11.667 -14 17 -23s8 -20.833 8 -35.5z" />
    <glyph glyph-name="onesuperior" unicode="&#xb9;" 
d="M171 300l-0.000976562 270l-97 -54c-7.33301 9.33301 -14.666 20.333 -21.999 33s-11 23.334 -11 32.001c0 11.333 8.66699 22 26 32l102 56c9.33301 5.33301 18.5 9.66602 27.5 12.999s18.833 5 29.5 5c12 0 21.167 -1.5 27.5 -4.5s11.833 -6.5 16.5 -10.5v-372h-99z
" />
    <glyph glyph-name="ordmasculine" unicode="&#xba;" horiz-adv-x="461" 
d="M415 496c0 -24 -3.33008 -47.8301 -9.99707 -71.4971s-17.167 -44.834 -31.5 -63.501s-33.333 -33.834 -57 -45.501s-52.5 -17.5 -86.5 -17.5c-33.333 0 -61.666 5.66699 -84.999 17s-42.333 26.166 -57 44.499s-25.334 39.166 -32.001 62.499s-10 47 -10 71
c0 25.333 4 49.5 12 72.5s19.833 43.167 35.5 60.5s35.167 31.166 58.5 41.499s50.333 15.5 81 15.5c33.333 0 61.666 -5.16699 84.999 -15.5s42.166 -24.166 56.499 -41.499s24.666 -37.166 30.999 -59.499s9.5 -45.833 9.5 -70.5zM303.003 494.003
c0 28 -4.99805 52.001 -14.998 72.001s-28.667 30 -56 30c-14 0 -25.667 -3 -35 -9s-17 -13.667 -23 -23s-10.167 -20.333 -12.5 -33s-3.5 -25.334 -3.5 -38.001c0 -14 1.16699 -27.333 3.5 -40s6.16602 -24 11.499 -34s12.666 -17.833 21.999 -23.5s21 -8.5 35 -8.5
c14.667 0 26.667 3 36 9s16.833 13.833 22.5 23.5s9.5 21 11.5 34s3 26.5 3 40.5z" />
    <glyph glyph-name="guillemotright" unicode="&#xbb;" horiz-adv-x="532" 
d="M304 357c-7.33301 9.33301 -12.333 18.333 -15 27s-4 17.334 -4 26.001c0 20 11 42.667 33 68l138 -128c11.333 -10 20.833 -20.833 28.5 -32.5s11.5 -24.834 11.5 -39.501s-3.5 -28 -10.5 -40s-16.167 -23.333 -27.5 -34l-145 -132c-7.33301 9.33301 -14.5 21 -21.5 35
s-10.5 27.333 -10.5 40c0 14.667 6 29.667 18 45l71 87zM73 357c-7.33301 9.33301 -12.333 18.333 -15 27s-4 17.334 -4 26.001c0 20 11 42.667 33 68l138 -128c11.333 -10 20.833 -20.833 28.5 -32.5s11.5 -24.834 11.5 -39.501s-3.5 -28 -10.5 -40
s-16.167 -23.333 -27.5 -34l-145 -132c-7.33301 9.33301 -14.5 21 -21.5 35s-10.5 27.333 -10.5 40c0 14.667 6 29.667 18 45l71 87z" />
    <glyph glyph-name="onequarter" unicode="&#xbc;" horiz-adv-x="822" 
d="M273 0l-108.999 0.000976562l343 627c9.33301 17.333 19 31 29 41s25.333 15 46 15c9.33301 0 17.5 -0.5 24.5 -1.5s13.167 -2.16699 18.5 -3.5c3.33301 -1.33301 6.16602 -2.33301 8.49902 -3s4.83301 -1.33398 7.5 -2.00098zM175.001 300.001l-0.000976562 270l-97 -54
c-7.33301 9.33301 -14.666 20.333 -21.999 33s-11 23.334 -11 32.001c0 11.333 8.66699 22 26 32l102 56c9.33301 5.33301 18.5 9.66602 27.5 12.999s18.833 5 29.5 5c12 0 21.167 -1.5 27.5 -4.5s11.833 -6.5 16.5 -10.5v-372h-99zM452 73.001v62.999l156 219
c6.66699 9.33301 14.5 17.166 23.5 23.499s19.833 9.5 32.5 9.5c16.667 0 32 -3.33301 46 -10v-238h17c22.667 0 34 -10.667 34 -32c0 -3.33301 -0.166992 -7.16602 -0.5 -11.499s-0.833008 -8.16602 -1.5 -11.499l-2 -12h-47v-72h-98v72h-160zM612 141v128l-91 -128h91z
" />
    <glyph glyph-name="onehalf" unicode="&#xbd;" horiz-adv-x="822" 
d="M246 0l-108.999 0.000976562l343 627c9.33301 17.333 19 31 29 41s25.333 15 46 15c9.33301 0 17.5 -0.5 24.5 -1.5s13.167 -2.16699 18.5 -3.5c3.33301 -1.33301 6.16602 -2.33301 8.49902 -3s4.83301 -1.33398 7.5 -2.00098zM156.001 300.001l-0.000976562 270l-97 -54
c-7.33301 9.33301 -14.666 20.333 -21.999 33s-11 23.334 -11 32.001c0 11.333 8.66699 22 26 32l102 56c9.33301 5.33301 18.5 9.66602 27.5 12.999s18.833 5 29.5 5c12 0 21.167 -1.5 27.5 -4.5s11.833 -6.5 16.5 -10.5v-372h-99zM494 1.00098l0.000976562 71.001
c15.333 12.667 33 28.167 53 46.5s39.667 38.166 59 59.499c14 15.333 25 29.666 33 42.999s12 28 12 44c0 14.667 -4.5 26.334 -13.5 35.001s-21.833 13 -38.5 13c-17.333 0 -33 -4.66699 -47 -14s-25.667 -18.666 -35 -27.999c-10 8 -18.167 16.5 -24.5 25.5
s-9.5 17.167 -9.5 24.5s2.66699 14.333 8 21s14.666 14 27.999 22c15.333 9.33301 32.333 15.666 51 18.999s34.334 5 47.001 5c18.667 0 36 -2.33301 52 -7s30 -11.667 42 -21s21.333 -21.333 28 -36s10 -32.334 10 -53.001c0 -26.667 -6.16699 -50.5 -18.5 -71.5
s-27.833 -41.167 -46.5 -60.5l-32.5 -31l-30.5 -28h81c23.333 0 39.666 -3.16699 48.999 -9.5s14 -20.166 14 -41.499c0 -7.33301 -0.333008 -13.5 -1 -18.5s-1 -8.16699 -1 -9.5h-269z" />
    <glyph glyph-name="threequarters" unicode="&#xbe;" horiz-adv-x="822" 
d="M306 0l-108.999 0.000976562l343 627c9.33301 17.333 19 31 29 41s25.333 15 46 15c9.33301 0 17.5 -0.5 24.5 -1.5s13.167 -2.16699 18.5 -3.5c3.33301 -1.33301 6.16602 -2.33301 8.49902 -3s4.83301 -1.33398 7.5 -2.00098zM336.001 411.001
c0 -36.667 -12.1631 -66.1641 -36.4961 -88.4971s-61.5 -33.5 -111.5 -33.5c-13.333 0 -29 1.66699 -47 5s-34.333 8.66602 -49 15.999c-9.33301 4.66699 -17 10.167 -23 16.5s-9 14.166 -9 23.499s2.66699 18.5 8 27.5l17 28.5c9.33301 -10 22.666 -19.5 39.999 -28.5
s35.666 -13.5 54.999 -13.5c15.333 0 29.166 3.16699 41.499 9.5s18.5 19.5 18.5 39.5c0 11.333 -2.33301 20.333 -7 27s-10.334 11.667 -17.001 15s-13.667 5.5 -21 6.5s-13.333 1.5 -18 1.5h-33v68h35c4.66699 0 10.167 0.5 16.5 1.5s12 3 17 6s9.33301 7.33301 13 13
s5.5 13.167 5.5 22.5c0 14 -4.5 24 -13.5 30s-20.833 9 -35.5 9c-18.667 0 -35 -3.83301 -49 -11.5s-27 -15.834 -39 -24.501c-10 7.33301 -18 15.833 -24 25.5s-9 17.834 -9 24.501c0 5.33301 1.66699 10.666 5 15.999s10.333 11 21 17
c11.333 6.66699 26.333 12.834 45 18.501s40 8.5 64 8.5c46 0 79.333 -9.33301 100 -28s31 -42.334 31 -71.001c0 -25.333 -5.83301 -44.666 -17.5 -57.999s-24.167 -23.666 -37.5 -30.999c16 -6.66699 30.667 -16.334 44 -29.001s20 -32.334 20 -59.001zM465.005 73.0039
v62.999l156 219c6.66699 9.33301 14.5 17.166 23.5 23.499s19.833 9.5 32.5 9.5c16.667 0 32 -3.33301 46 -10v-238h17c22.667 0 34 -10.667 34 -32c0 -3.33301 -0.166992 -7.16602 -0.5 -11.499s-0.833008 -8.16602 -1.5 -11.499l-2 -12h-47v-72h-98v72h-160z
M625.005 141.003v128l-91 -128h91z" />
    <glyph glyph-name="questiondown" unicode="&#xbf;" horiz-adv-x="446" 
d="M244 -221c-29.333 0 -56.667 3.50098 -82 10.501s-47.5 17.667 -66.5 32s-34 32.166 -45 53.499s-16.5 46.333 -16.5 75c0 21.333 2.66699 40.166 8 56.499s12.333 31.166 21 44.499s18.5 25.5 29.5 36.5s22.167 21.5 33.5 31.5c21.333 17.333 39.833 34.833 55.5 52.5
s23.5 39.167 23.5 64.5c0 12.667 -1.33301 24.334 -4 35.001c4 1.33301 9 2.16602 15 2.49902s11.667 0.5 17 0.5c24.667 0 44.834 -6.33301 60.501 -19s23.5 -32 23.5 -58c0 -23.333 -6.16699 -43.666 -18.5 -60.999s-26.5 -33.666 -42.5 -48.999l-29.5 -27.5
c-9.66699 -9 -18.334 -18.333 -26.001 -28s-13.834 -19.834 -18.501 -30.501s-7 -22.334 -7 -35.001c0 -30 9 -51.167 27 -63.5s39.667 -18.5 65 -18.5c26.667 0 51 5.83301 73 17.5s40.667 23.5 56 35.5c10 -10 19.5 -20.667 28.5 -32s13.5 -23.333 13.5 -36
c0 -9.33301 -3.66699 -18.166 -11 -26.499s-16.666 -16.166 -27.999 -23.499c-18 -11.333 -40.333 -20.833 -67 -28.5s-56 -11.5 -88 -11.5zM179.999 401.001c0 21.333 6.66699 39 20 53s31.333 21 54 21s40.834 -7 54.501 -21s20.5 -31.667 20.5 -53
s-6.83301 -38.833 -20.5 -52.5s-31.834 -20.5 -54.501 -20.5c-21.333 0 -39 6.83301 -53 20.5s-21 31.167 -21 52.5z" />
    <glyph glyph-name="Agrave" unicode="&#xc0;" horiz-adv-x="633" 
d="M485 0l-57.002 163.999h-231l-55 -164h-136l232 660c8 3.33301 19.167 6.5 33.5 9.5s29.833 4.5 46.5 4.5c7.33301 0 15.5 -0.666992 24.5 -2s17.833 -4.16602 26.5 -8.49902s16.834 -10.5 24.501 -18.5s13.834 -19 18.501 -33l215 -612h-142zM313.998 548.999l-91 -285
h179zM151.998 820.999c8.66699 13.333 19.166 25.668 31.499 37.001s26.166 17 41.499 17c9.33301 0 18.333 -2.33301 27 -7s16.667 -10 24 -16l111 -90c-7.33301 -8.66699 -16.666 -16.834 -27.999 -24.501s-22.666 -11.5 -33.999 -11.5c-8 0 -16 1.5 -24 4.5
s-15.667 6.83301 -23 11.5z" />
    <glyph glyph-name="Aacute" unicode="&#xc1;" horiz-adv-x="633" 
d="M485 0l-57.002 163.999h-231l-55 -164h-136l232 660c8 3.33301 19.167 6.5 33.5 9.5s29.833 4.5 46.5 4.5c7.33301 0 15.5 -0.666992 24.5 -2s17.833 -4.16602 26.5 -8.49902s16.834 -10.5 24.501 -18.5s13.834 -19 18.501 -33l215 -612h-142zM313.998 548.999l-91 -285
h179zM338.998 741.999c-7.33301 -4.66699 -15.001 -8.50195 -23.001 -11.502s-16 -4.5 -24 -4.5c-11.333 0 -22.666 3.83301 -33.999 11.5s-20.666 15.834 -27.999 24.501l111 90c7.33301 6 15.333 11.333 24 16s17.667 7 27 7c15.333 0 29.166 -5.66699 41.499 -17
s22.833 -23.666 31.5 -36.999z" />
    <glyph glyph-name="Acircumflex" unicode="&#xc2;" horiz-adv-x="633" 
d="M485 0l-57.002 163.999h-231l-55 -164h-136l232 660c8 3.33301 19.167 6.5 33.5 9.5s29.833 4.5 46.5 4.5c7.33301 0 15.5 -0.666992 24.5 -2s17.833 -4.16602 26.5 -8.49902s16.834 -10.5 24.501 -18.5s13.834 -19 18.501 -33l215 -612h-142zM313.998 548.999l-91 -285
h179zM314.998 795.999l-52.999 -52.001c-8 -7.33301 -16.167 -12.333 -24.5 -15s-16.5 -4 -24.5 -4c-8.66699 0 -17.834 1.33301 -27.501 4s-17.167 6.33398 -22.5 11.001l87 108c16 19.333 37.667 29 65 29c25.333 0 46.666 -9.66699 63.999 -29l88 -110
c-6.66699 -4 -14.5 -7.33301 -23.5 -10s-17.5 -4 -25.5 -4c-10.667 0 -20.167 1.5 -28.5 4.5s-17.166 9.16699 -26.499 18.5z" />
    <glyph glyph-name="Atilde" unicode="&#xc3;" horiz-adv-x="633" 
d="M485 0l-57.002 163.999h-231l-55 -164h-136l232 660c8 3.33301 19.167 6.5 33.5 9.5s29.833 4.5 46.5 4.5c7.33301 0 15.5 -0.666992 24.5 -2s17.833 -4.16602 26.5 -8.49902s16.834 -10.5 24.501 -18.5s13.834 -19 18.501 -33l215 -612h-142zM313.998 548.999l-91 -285
h179zM385.998 738.999c-16 0 -30.332 2 -42.999 6s-24.167 8.16699 -34.5 12.5l-29.5 12.5c-9.33301 4 -19 6 -29 6c-15.333 0 -28.5 -4 -39.5 -12s-21.833 -18.333 -32.5 -31c-8 6.66699 -16.167 14.5 -24.5 23.5s-12.5 18.833 -12.5 29.5c0 9.33301 3.33301 18.333 10 27
s15.167 16.167 25.5 22.5s21.833 11.333 34.5 15s25 5.5 37 5.5c14.667 0 27.667 -2 39 -6s22 -8.16699 32 -12.5l29 -12.5c9.33301 -4 19 -6 29 -6c14.667 0 27 3.5 37 10.5s20 18.167 30 33.5c7.33301 -6.66699 15.666 -15 24.999 -25s14 -20.333 14 -31
c0 -10 -2.83301 -19.167 -8.5 -27.5s-13.167 -15.5 -22.5 -21.5s-19.833 -10.667 -31.5 -14s-23.167 -5 -34.5 -5z" />
    <glyph glyph-name="Adieresis" unicode="&#xc4;" horiz-adv-x="633" 
d="M485 0l-57.002 163.999h-231l-55 -164h-136l232 660c8 3.33301 19.167 6.5 33.5 9.5s29.833 4.5 46.5 4.5c7.33301 0 15.5 -0.666992 24.5 -2s17.833 -4.16602 26.5 -8.49902s16.834 -10.5 24.501 -18.5s13.834 -19 18.501 -33l215 -612h-142zM313.998 548.999l-91 -285
h179zM476.998 793.999c0 -19.333 -6.33203 -34.833 -18.999 -46.5s-28 -17.5 -46 -17.5c-18.667 0 -34.334 5.83301 -47.001 17.5s-19 27.167 -19 46.5c0 18.667 6.5 34 19.5 46s28.5 18 46.5 18s33.333 -6 46 -18s19 -27.333 19 -46zM280.999 793.999
c0 -19.333 -6.33203 -34.833 -18.999 -46.5s-28 -17.5 -46 -17.5c-18.667 0 -34.334 5.83301 -47.001 17.5s-19 27.167 -19 46.5c0 18.667 6.5 34 19.5 46s28.5 18 46.5 18s33.333 -6 46 -18s19 -27.333 19 -46z" />
    <glyph glyph-name="Aring" unicode="&#xc5;" horiz-adv-x="633" 
d="M427 754c0 -20 -4.16797 -38.5029 -12.501 -55.5029s-20.166 -30.5 -35.499 -40.5c6.66699 -5.33301 12.834 -11.5 18.501 -18.5s10.5 -16.167 14.5 -27.5l215 -612h-142l-57 164h-231l-55 -164h-136l232 660l6 2c-13.333 10.667 -23.333 23.834 -30 39.501
s-10 32.834 -10 51.501c0 16 2.5 30.833 7.5 44.5s12.333 25.834 22 36.501s21.5 19 35.5 25s29.667 9 47 9c16.667 0 32 -3 46 -9s25.667 -14.167 35 -24.5s16.666 -22.5 21.999 -36.5s8 -28.667 8 -44zM313.999 548.997l-91 -285h179zM368.999 752.997
c0 16.667 -4.83105 31 -14.498 43s-22.5 18 -38.5 18c-16.667 0 -29.834 -6 -39.501 -18s-14.5 -26 -14.5 -42s4.66699 -30.333 14 -43s22.666 -19 39.999 -19c16 0 28.833 6.16699 38.5 18.5s14.5 26.5 14.5 42.5z" />
    <glyph glyph-name="AE" unicode="&#xc6;" horiz-adv-x="905" 
d="M801 106c32 0 53.834 -7.33301 65.501 -22s17.5 -31 17.5 -49c0 -7.33301 -0.166992 -13.5 -0.5 -18.5s-0.833008 -10.5 -1.5 -16.5h-433v170h-204l-91 -170h-148l316 572c8 14 16 27 24 39s17 22.333 27 31s21.333 15.5 34 20.5s27.667 7.5 45 7.5h414
c1.33301 -7.33301 2.16602 -13.5 2.49902 -18.5s0.5 -11.167 0.5 -18.5c0 -23.333 -6 -40.833 -18 -52.5s-34.333 -17.5 -67 -17.5h-197v-165h212v-107h-212v-185h214zM289.001 264h160v300z" />
    <glyph glyph-name="Ccedilla" unicode="&#xc7;" horiz-adv-x="607" 
d="M418 -132c0 -14.667 -3.33594 -27.8369 -10.0029 -39.5039s-15.167 -21.667 -25.5 -30s-22.333 -14.666 -36 -18.999s-27.5 -6.5 -41.5 -6.5c-13.333 0 -24.666 3 -33.999 9s-14 14.667 -14 26c0 4.66699 0.5 10.5 1.5 17.5s2.83301 14.833 5.5 23.5
c4.66699 -2.66699 10 -4.83398 16 -6.50098s12 -2.5 18 -2.5c10.667 0 19.167 1.66699 25.5 5s9.5 9.33301 9.5 18c0 8 -2.16699 14.833 -6.5 20.5s-9 11.167 -14 16.5s-9.66699 11 -14 17s-6.5 14 -6.5 24c0 9.33301 1.66699 17.666 5 24.999s7.33301 14 12 20
c-45.333 5.33301 -84.333 17.5 -117 36.5s-59.5 43.667 -80.5 74s-36.667 65.333 -47 105s-15.5 82.834 -15.5 129.501c0 50.667 6.5 97.5 19.5 140.5s32.5 80.167 58.5 111.5s58.5 55.833 97.5 73.5s84.833 26.5 137.5 26.5c26 0 49.5 -2.33301 70.5 -7
s39.333 -10.167 55 -16.5s28.667 -13 39 -20s18.166 -12.833 23.499 -17.5c6 -5.33301 11.167 -11.666 15.5 -18.999s6.5 -15.333 6.5 -24c0 -13.333 -5 -26.666 -15 -39.999s-21 -25.666 -33 -36.999c-8 8 -17 16.167 -27 24.5s-21.167 15.666 -33.5 21.999
s-26.333 11.666 -42 15.999s-33.167 6.5 -52.5 6.5c-34 0 -62.5 -6.83301 -85.5 -20.5s-41.5 -31.5 -55.5 -53.5s-24 -47.167 -30 -75.5s-9 -57.166 -9 -86.499c0 -31.333 3 -61.333 9 -90s16.333 -54 31 -76s33.834 -39.667 57.501 -53s53.167 -20 88.5 -20
c18.667 0 35.834 2.33301 51.501 7s29.5 10.334 41.5 17.001s22.5 13.667 31.5 21s16.5 13.666 22.5 18.999l14 -17c5.33301 -6.66699 10.333 -13.667 15 -21s8.66699 -14.666 12 -21.999s5 -14 5 -20c0 -8.66699 -1.66699 -16 -5 -22s-8.66602 -12.667 -15.999 -20
c-4 -4 -10.333 -8.83301 -19 -14.5s-20 -11.5 -34 -17.5s-30.833 -11.167 -50.5 -15.5s-42.5 -6.83301 -68.5 -7.5c-2 -3.33301 -3.66699 -6.5 -5 -9.5s-2 -6.5 -2 -10.5c0 -7.33301 2.66699 -13.666 8 -18.999l17 -17.5c6 -6.33301 11.667 -14 17 -23s8 -20.833 8 -35.5z
" />
    <glyph glyph-name="Egrave" unicode="&#xc8;" horiz-adv-x="525" 
d="M421 106c32 0 53.834 -7.33301 65.501 -22s17.5 -31 17.5 -49c0 -7.33301 -0.166992 -13.5 -0.5 -18.5s-0.833008 -10.5 -1.5 -16.5h-433v670h417c1.33301 -7.33301 2.16602 -13.5 2.49902 -18.5s0.5 -11.167 0.5 -18.5c0 -23.333 -6 -40.833 -18 -52.5
s-34.333 -17.5 -67 -17.5h-197v-165h212v-107h-212v-185h214zM129.001 821c8.66699 13.333 19.166 25.668 31.499 37.001s26.166 17 41.499 17c9.33301 0 18.333 -2.33301 27 -7s16.667 -10 24 -16l111 -90c-7.33301 -8.66699 -16.666 -16.834 -27.999 -24.501
s-22.666 -11.5 -33.999 -11.5c-8 0 -16 1.5 -24 4.5s-15.667 6.83301 -23 11.5z" />
    <glyph glyph-name="Eacute" unicode="&#xc9;" horiz-adv-x="525" 
d="M421 106c32 0 53.834 -7.33301 65.501 -22s17.5 -31 17.5 -49c0 -7.33301 -0.166992 -13.5 -0.5 -18.5s-0.833008 -10.5 -1.5 -16.5h-433v670h417c1.33301 -7.33301 2.16602 -13.5 2.49902 -18.5s0.5 -11.167 0.5 -18.5c0 -23.333 -6 -40.833 -18 -52.5
s-34.333 -17.5 -67 -17.5h-197v-165h212v-107h-212v-185h214zM287.001 742c-7.33301 -4.66699 -15.001 -8.50195 -23.001 -11.502s-16 -4.5 -24 -4.5c-11.333 0 -22.666 3.83301 -33.999 11.5s-20.666 15.834 -27.999 24.501l111 90c7.33301 6 15.333 11.333 24 16
s17.667 7 27 7c15.333 0 29.166 -5.66699 41.499 -17s22.833 -23.666 31.5 -36.999z" />
    <glyph glyph-name="Ecircumflex" unicode="&#xca;" horiz-adv-x="525" 
d="M421 106c32 0 53.834 -7.33301 65.501 -22s17.5 -31 17.5 -49c0 -7.33301 -0.166992 -13.5 -0.5 -18.5s-0.833008 -10.5 -1.5 -16.5h-433v670h417c1.33301 -7.33301 2.16602 -13.5 2.49902 -18.5s0.5 -11.167 0.5 -18.5c0 -23.333 -6 -40.833 -18 -52.5
s-34.333 -17.5 -67 -17.5h-197v-165h212v-107h-212v-185h214zM282.001 796l-52.999 -52.001c-8 -7.33301 -16.167 -12.333 -24.5 -15s-16.5 -4 -24.5 -4c-8.66699 0 -17.834 1.33301 -27.501 4s-17.167 6.33398 -22.5 11.001l87 108c16 19.333 37.667 29 65 29
c25.333 0 46.666 -9.66699 63.999 -29l88 -110c-6.66699 -4 -14.5 -7.33301 -23.5 -10s-17.5 -4 -25.5 -4c-10.667 0 -20.167 1.5 -28.5 4.5s-17.166 9.16699 -26.499 18.5z" />
    <glyph glyph-name="Edieresis" unicode="&#xcb;" horiz-adv-x="525" 
d="M421 106c32 0 53.834 -7.33301 65.501 -22s17.5 -31 17.5 -49c0 -7.33301 -0.166992 -13.5 -0.5 -18.5s-0.833008 -10.5 -1.5 -16.5h-433v670h417c1.33301 -7.33301 2.16602 -13.5 2.49902 -18.5s0.5 -11.167 0.5 -18.5c0 -23.333 -6 -40.833 -18 -52.5
s-34.333 -17.5 -67 -17.5h-197v-165h212v-107h-212v-185h214zM440.001 794c0 -19.333 -6.33203 -34.833 -18.999 -46.5s-28 -17.5 -46 -17.5c-18.667 0 -34.334 5.83301 -47.001 17.5s-19 27.167 -19 46.5c0 18.667 6.5 34 19.5 46s28.5 18 46.5 18s33.333 -6 46 -18
s19 -27.333 19 -46zM244.002 794c0 -19.333 -6.33203 -34.833 -18.999 -46.5s-28 -17.5 -46 -17.5c-18.667 0 -34.334 5.83301 -47.001 17.5s-19 27.167 -19 46.5c0 18.667 6.5 34 19.5 46s28.5 18 46.5 18s33.333 -6 46 -18s19 -27.333 19 -46z" />
    <glyph glyph-name="Igrave" unicode="&#xcc;" horiz-adv-x="265" 
d="M64 669c9.33301 1.33301 18.499 2.5 27.499 3.5s15.833 1.5 20.5 1.5c10 0 20.167 -1 30.5 -3s19.833 -5.83301 28.5 -11.5s15.834 -13.5 21.501 -23.5s8.5 -23.333 8.5 -40v-596h-137v669zM-32.001 821c8.66699 13.333 19.166 25.668 31.499 37.001s26.166 17 41.499 17
c9.33301 0 18.333 -2.33301 27 -7s16.667 -10 24 -16l111 -90c-7.33301 -8.66699 -16.666 -16.834 -27.999 -24.501s-22.666 -11.5 -33.999 -11.5c-8 0 -16 1.5 -24 4.5s-15.667 6.83301 -23 11.5z" />
    <glyph glyph-name="Iacute" unicode="&#xcd;" horiz-adv-x="265" 
d="M64 669c9.33301 1.33301 18.499 2.5 27.499 3.5s15.833 1.5 20.5 1.5c10 0 20.167 -1 30.5 -3s19.833 -5.83301 28.5 -11.5s15.834 -13.5 21.501 -23.5s8.5 -23.333 8.5 -40v-596h-137v669zM154.999 742c-7.33301 -4.66699 -15.001 -8.50195 -23.001 -11.502
s-16 -4.5 -24 -4.5c-11.333 0 -22.666 3.83301 -33.999 11.5s-20.666 15.834 -27.999 24.501l111 90c7.33301 6 15.333 11.333 24 16s17.667 7 27 7c15.333 0 29.166 -5.66699 41.499 -17s22.833 -23.666 31.5 -36.999z" />
    <glyph glyph-name="Icircumflex" unicode="&#xce;" horiz-adv-x="265" 
d="M64 669c9.33301 1.33301 18.499 2.5 27.499 3.5s15.833 1.5 20.5 1.5c10 0 20.167 -1 30.5 -3s19.833 -5.83301 28.5 -11.5s15.834 -13.5 21.501 -23.5s8.5 -23.333 8.5 -40v-596h-137v669zM125.999 796l-52.999 -52.001c-8 -7.33301 -16.167 -12.333 -24.5 -15
s-16.5 -4 -24.5 -4c-8.66699 0 -17.834 1.33301 -27.501 4s-17.167 6.33398 -22.5 11.001l87 108c16 19.333 37.667 29 65 29c25.333 0 46.666 -9.66699 63.999 -29l88 -110c-6.66699 -4 -14.5 -7.33301 -23.5 -10s-17.5 -4 -25.5 -4c-10.667 0 -20.167 1.5 -28.5 4.5
s-17.166 9.16699 -26.499 18.5z" />
    <glyph glyph-name="Idieresis" unicode="&#xcf;" horiz-adv-x="265" 
d="M64 669c9.33301 1.33301 18.499 2.5 27.499 3.5s15.833 1.5 20.5 1.5c10 0 20.167 -1 30.5 -3s19.833 -5.83301 28.5 -11.5s15.834 -13.5 21.501 -23.5s8.5 -23.333 8.5 -40v-596h-137v669zM289.999 794c0 -19.333 -6.33203 -34.833 -18.999 -46.5s-28 -17.5 -46 -17.5
c-18.667 0 -34.334 5.83301 -47.001 17.5s-19 27.167 -19 46.5c0 18.667 6.5 34 19.5 46s28.5 18 46.5 18s33.333 -6 46 -18s19 -27.333 19 -46zM94 794c0 -19.333 -6.33203 -34.833 -18.999 -46.5s-28 -17.5 -46 -17.5c-18.667 0 -34.334 5.83301 -47.001 17.5
s-19 27.167 -19 46.5c0 18.667 6.5 34 19.5 46s28.5 18 46.5 18s33.333 -6 46 -18s19 -27.333 19 -46z" />
    <glyph glyph-name="Eth" unicode="&#xd0;" horiz-adv-x="651" 
d="M609 346c0 -47.333 -5.83496 -92 -17.502 -134s-30.167 -78.667 -55.5 -110s-57.666 -56.166 -96.999 -74.499s-86.666 -27.5 -141.999 -27.5h-220v300h-62v88h62v276c42.667 5.33301 79.167 8.66602 109.5 9.99902s56.5 2 78.5 2c68.667 0 125.167 -8.83301 169.5 -26.5
s79.5 -41.5 105.5 -71.5s44 -65 54 -105s15 -82.333 15 -127zM468.998 344c0 31.333 -2.83203 60.832 -8.49902 88.499s-15.834 51.667 -30.501 72s-34.5 36.5 -59.5 48.5s-56.833 18 -95.5 18c-19.333 0 -39.333 -1 -60 -3v-180h134v-88h-134v-195h39
c41.333 0 75.833 6.33301 103.5 19s49.667 29.834 66 51.501s28 47 35 76s10.5 59.833 10.5 92.5z" />
    <glyph glyph-name="Ntilde" unicode="&#xd1;" horiz-adv-x="660" 
d="M596 0h-115.998l-285 440v-440h-131v668c6.66699 1.33301 15.667 2.66602 27 3.99902s22.666 2 33.999 2c21.333 0 38 -3.66699 50 -11s22.667 -18.666 32 -33.999l258 -421v461c9.33301 1.33301 18 2.5 26 3.5s14.333 1.5 19 1.5c10 0 20 -1 30 -3
s19.167 -5.83301 27.5 -11.5s15.166 -13.5 20.499 -23.5s8 -23.333 8 -40v-596zM402.002 739c-16 0 -30.332 2 -42.999 6s-24.167 8.16699 -34.5 12.5l-29.5 12.5c-9.33301 4 -19 6 -29 6c-15.333 0 -28.5 -4 -39.5 -12s-21.833 -18.333 -32.5 -31
c-8 6.66699 -16.167 14.5 -24.5 23.5s-12.5 18.833 -12.5 29.5c0 9.33301 3.33301 18.333 10 27s15.167 16.167 25.5 22.5s21.833 11.333 34.5 15s25 5.5 37 5.5c14.667 0 27.667 -2 39 -6s22 -8.16699 32 -12.5l29 -12.5c9.33301 -4 19 -6 29 -6c14.667 0 27 3.5 37 10.5
s20 18.167 30 33.5c7.33301 -6.66699 15.666 -15 24.999 -25s14 -20.333 14 -31c0 -10 -2.83301 -19.167 -8.5 -27.5s-13.167 -15.5 -22.5 -21.5s-19.833 -10.667 -31.5 -14s-23.167 -5 -34.5 -5z" />
    <glyph glyph-name="Ograve" unicode="&#xd2;" horiz-adv-x="704" 
d="M655 337c0 -48 -5.66602 -93.501 -16.999 -136.501s-29.333 -80.667 -54 -113s-56.334 -57.833 -95.001 -76.5s-85.334 -28 -140.001 -28c-54 0 -100 9.5 -138 28.5s-69 44.667 -93 77s-41.5 69.833 -52.5 112.5s-16.5 87.667 -16.5 135c0 46.667 6 91 18 133
s30.667 78.833 56 110.5s57.333 56.834 96 75.501s84.667 28 138 28c52.667 0 97.834 -9 135.501 -27s68.5 -42.5 92.5 -73.5s41.667 -67.5 53 -109.5s17 -87.333 17 -136zM514.001 335.999c0 32 -2.66895 62.333 -8.00195 91s-14.333 53.834 -27 75.501
s-29 38.834 -49 51.501s-44.667 19 -74 19c-30.667 0 -56.5 -6.33301 -77.5 -19s-38 -29.834 -51 -51.501s-22.333 -46.834 -28 -75.501s-8.5 -59 -8.5 -91s2.83301 -62.667 8.5 -92s14.834 -55.333 27.501 -78s29.334 -40.667 50.001 -54s46 -20 76 -20
s55.333 6.66699 76 20s37.167 31.333 49.5 54s21.333 48.667 27 78s8.5 60 8.5 92zM207.999 820.999c8.66699 13.333 19.166 25.668 31.499 37.001s26.166 17 41.499 17c9.33301 0 18.333 -2.33301 27 -7s16.667 -10 24 -16l111 -90
c-7.33301 -8.66699 -16.666 -16.834 -27.999 -24.501s-22.666 -11.5 -33.999 -11.5c-8 0 -16 1.5 -24 4.5s-15.667 6.83301 -23 11.5z" />
    <glyph glyph-name="Oacute" unicode="&#xd3;" horiz-adv-x="704" 
d="M655 337c0 -48 -5.66602 -93.501 -16.999 -136.501s-29.333 -80.667 -54 -113s-56.334 -57.833 -95.001 -76.5s-85.334 -28 -140.001 -28c-54 0 -100 9.5 -138 28.5s-69 44.667 -93 77s-41.5 69.833 -52.5 112.5s-16.5 87.667 -16.5 135c0 46.667 6 91 18 133
s30.667 78.833 56 110.5s57.333 56.834 96 75.501s84.667 28 138 28c52.667 0 97.834 -9 135.501 -27s68.5 -42.5 92.5 -73.5s41.667 -67.5 53 -109.5s17 -87.333 17 -136zM514.001 335.999c0 32 -2.66895 62.333 -8.00195 91s-14.333 53.834 -27 75.501
s-29 38.834 -49 51.501s-44.667 19 -74 19c-30.667 0 -56.5 -6.33301 -77.5 -19s-38 -29.834 -51 -51.501s-22.333 -46.834 -28 -75.501s-8.5 -59 -8.5 -91s2.83301 -62.667 8.5 -92s14.834 -55.333 27.501 -78s29.334 -40.667 50.001 -54s46 -20 76 -20
s55.333 6.66699 76 20s37.167 31.333 49.5 54s21.333 48.667 27 78s8.5 60 8.5 92zM393.999 741.999c-7.33301 -4.66699 -15.001 -8.50195 -23.001 -11.502s-16 -4.5 -24 -4.5c-11.333 0 -22.666 3.83301 -33.999 11.5s-20.666 15.834 -27.999 24.501l111 90
c7.33301 6 15.333 11.333 24 16s17.667 7 27 7c15.333 0 29.166 -5.66699 41.499 -17s22.833 -23.666 31.5 -36.999z" />
    <glyph glyph-name="Ocircumflex" unicode="&#xd4;" horiz-adv-x="704" 
d="M655 337c0 -48 -5.66602 -93.501 -16.999 -136.501s-29.333 -80.667 -54 -113s-56.334 -57.833 -95.001 -76.5s-85.334 -28 -140.001 -28c-54 0 -100 9.5 -138 28.5s-69 44.667 -93 77s-41.5 69.833 -52.5 112.5s-16.5 87.667 -16.5 135c0 46.667 6 91 18 133
s30.667 78.833 56 110.5s57.333 56.834 96 75.501s84.667 28 138 28c52.667 0 97.834 -9 135.501 -27s68.5 -42.5 92.5 -73.5s41.667 -67.5 53 -109.5s17 -87.333 17 -136zM514.001 335.999c0 32 -2.66895 62.333 -8.00195 91s-14.333 53.834 -27 75.501
s-29 38.834 -49 51.501s-44.667 19 -74 19c-30.667 0 -56.5 -6.33301 -77.5 -19s-38 -29.834 -51 -51.501s-22.333 -46.834 -28 -75.501s-8.5 -59 -8.5 -91s2.83301 -62.667 8.5 -92s14.834 -55.333 27.501 -78s29.334 -40.667 50.001 -54s46 -20 76 -20
s55.333 6.66699 76 20s37.167 31.333 49.5 54s21.333 48.667 27 78s8.5 60 8.5 92zM359.999 795.999l-52.999 -52.001c-8 -7.33301 -16.167 -12.333 -24.5 -15s-16.5 -4 -24.5 -4c-8.66699 0 -17.834 1.33301 -27.501 4s-17.167 6.33398 -22.5 11.001l87 108
c16 19.333 37.667 29 65 29c25.333 0 46.666 -9.66699 63.999 -29l88 -110c-6.66699 -4 -14.5 -7.33301 -23.5 -10s-17.5 -4 -25.5 -4c-10.667 0 -20.167 1.5 -28.5 4.5s-17.166 9.16699 -26.499 18.5z" />
    <glyph glyph-name="Otilde" unicode="&#xd5;" horiz-adv-x="704" 
d="M655 337c0 -48 -5.66602 -93.501 -16.999 -136.501s-29.333 -80.667 -54 -113s-56.334 -57.833 -95.001 -76.5s-85.334 -28 -140.001 -28c-54 0 -100 9.5 -138 28.5s-69 44.667 -93 77s-41.5 69.833 -52.5 112.5s-16.5 87.667 -16.5 135c0 46.667 6 91 18 133
s30.667 78.833 56 110.5s57.333 56.834 96 75.501s84.667 28 138 28c52.667 0 97.834 -9 135.501 -27s68.5 -42.5 92.5 -73.5s41.667 -67.5 53 -109.5s17 -87.333 17 -136zM514.001 335.999c0 32 -2.66895 62.333 -8.00195 91s-14.333 53.834 -27 75.501
s-29 38.834 -49 51.501s-44.667 19 -74 19c-30.667 0 -56.5 -6.33301 -77.5 -19s-38 -29.834 -51 -51.501s-22.333 -46.834 -28 -75.501s-8.5 -59 -8.5 -91s2.83301 -62.667 8.5 -92s14.834 -55.333 27.501 -78s29.334 -40.667 50.001 -54s46 -20 76 -20
s55.333 6.66699 76 20s37.167 31.333 49.5 54s21.333 48.667 27 78s8.5 60 8.5 92zM429.999 738.999c-16 0 -30.332 2 -42.999 6s-24.167 8.16699 -34.5 12.5l-29.5 12.5c-9.33301 4 -19 6 -29 6c-15.333 0 -28.5 -4 -39.5 -12s-21.833 -18.333 -32.5 -31
c-8 6.66699 -16.167 14.5 -24.5 23.5s-12.5 18.833 -12.5 29.5c0 9.33301 3.33301 18.333 10 27s15.167 16.167 25.5 22.5s21.833 11.333 34.5 15s25 5.5 37 5.5c14.667 0 27.667 -2 39 -6s22 -8.16699 32 -12.5l29 -12.5c9.33301 -4 19 -6 29 -6c14.667 0 27 3.5 37 10.5
s20 18.167 30 33.5c7.33301 -6.66699 15.666 -15 24.999 -25s14 -20.333 14 -31c0 -10 -2.83301 -19.167 -8.5 -27.5s-13.167 -15.5 -22.5 -21.5s-19.833 -10.667 -31.5 -14s-23.167 -5 -34.5 -5z" />
    <glyph glyph-name="Odieresis" unicode="&#xd6;" horiz-adv-x="704" 
d="M655 337c0 -48 -5.66602 -93.501 -16.999 -136.501s-29.333 -80.667 -54 -113s-56.334 -57.833 -95.001 -76.5s-85.334 -28 -140.001 -28c-54 0 -100 9.5 -138 28.5s-69 44.667 -93 77s-41.5 69.833 -52.5 112.5s-16.5 87.667 -16.5 135c0 46.667 6 91 18 133
s30.667 78.833 56 110.5s57.333 56.834 96 75.501s84.667 28 138 28c52.667 0 97.834 -9 135.501 -27s68.5 -42.5 92.5 -73.5s41.667 -67.5 53 -109.5s17 -87.333 17 -136zM514.001 335.999c0 32 -2.66895 62.333 -8.00195 91s-14.333 53.834 -27 75.501
s-29 38.834 -49 51.501s-44.667 19 -74 19c-30.667 0 -56.5 -6.33301 -77.5 -19s-38 -29.834 -51 -51.501s-22.333 -46.834 -28 -75.501s-8.5 -59 -8.5 -91s2.83301 -62.667 8.5 -92s14.834 -55.333 27.501 -78s29.334 -40.667 50.001 -54s46 -20 76 -20
s55.333 6.66699 76 20s37.167 31.333 49.5 54s21.333 48.667 27 78s8.5 60 8.5 92zM525.999 822.999c0 -19.333 -6.33203 -34.833 -18.999 -46.5s-28 -17.5 -46 -17.5c-18.667 0 -34.334 5.83301 -47.001 17.5s-19 27.167 -19 46.5c0 18.667 6.5 34 19.5 46s28.5 18 46.5 18
s33.333 -6 46 -18s19 -27.333 19 -46zM320 822.999c0 -19.333 -6.33203 -34.833 -18.999 -46.5s-28 -17.5 -46 -17.5c-18.667 0 -34.334 5.83301 -47.001 17.5s-19 27.167 -19 46.5c0 18.667 6.5 34 19.5 46s28.5 18 46.5 18s33.333 -6 46 -18s19 -27.333 19 -46z" />
    <glyph glyph-name="multiply" unicode="&#xd7;" horiz-adv-x="549" 
d="M487 207l-84 -84l-130 131l-128 -128l-80 80l128 128l-132 131l84 85l132 -132l128 128l80 -80l-129 -129z" />
    <glyph glyph-name="Oslash" unicode="&#xd8;" horiz-adv-x="704" 
d="M655 337c0 -48 -5.66406 -93.501 -16.9971 -136.501s-29.333 -80.667 -54 -113s-56.334 -57.833 -95.001 -76.5s-85.334 -28 -140.001 -28c-50 0 -93 8 -129 24l-52 -94l-75 35l58 104c-12 10.667 -23 22.667 -33 36c-24 32.667 -41.5 70.167 -52.5 112.5
s-16.5 87.5 -16.5 135.5c0 46.667 6 91 18 133s30.667 78.833 56 110.5s57.333 56.834 96 75.501s84.667 28 138 28c51.333 0 95 -8.33301 131 -25l46 82l73 -37l-50 -90c5.33301 -4.66699 10.166 -9.66699 14.499 -15l13.5 -16c24 -30.667 41.667 -67 53 -109
s17 -87.333 17 -136zM356.003 572.999c-30.667 0 -56.499 -6.33105 -77.499 -18.998s-38 -29.834 -51 -51.501s-22.333 -46.834 -28 -75.501s-8.5 -59 -8.5 -91c0 -30.667 2.66699 -61.334 8 -92.001c5.33301 -25.333 12.666 -47.666 21.999 -66.999l209 377
c-19.333 12.667 -44 19 -74 19zM514.004 336.001c0 16 -0.666992 31.5 -2 46.5s-3.33301 29.833 -6 44.5c-4 23.333 -10.333 43.333 -19 60l-209 -376c19.333 -12.667 44.333 -19 75 -19c30 0 55.333 6.66699 76 20s37.167 31.333 49.5 54s21.333 48.667 27 78
s8.5 60 8.5 92z" />
    <glyph glyph-name="Ugrave" unicode="&#xd9;" horiz-adv-x="647" 
d="M583 270c0 -13.333 -0.334961 -26.666 -1.00195 -39.999s-1.66699 -27 -3 -41c-2.66699 -28 -9.5 -54.5 -20.5 -79.5s-27 -46.667 -48 -65s-47.167 -32.833 -78.5 -43.5s-68.333 -16 -111 -16c-43.333 0 -80 4.66699 -110 14s-55 22.833 -75 40.5
s-35.333 39.334 -46 65.001s-18 55.167 -22 88.5c-1.33301 12 -2.33301 24.333 -3 37s-1 26 -1 40v399c9.33301 1.33301 18.5 2.5 27.5 3.5s15.833 1.5 20.5 1.5c10 0 20.167 -1 30.5 -3s19.833 -5.83301 28.5 -11.5s15.834 -13.5 21.501 -23.5s8.5 -23.333 8.5 -40v-335
c0 -24 1.5 -45.667 4.5 -65s9 -35.833 18 -49.5s21.5 -24.334 37.5 -32.001s37 -11.5 63 -11.5c45.333 0 77 13.167 95 39.5s27 63.166 27 110.499v416c9.33301 1.33301 18.5 2.5 27.5 3.5s15.833 1.5 20.5 1.5c10 0 20.167 -1 30.5 -3s19.833 -5.83301 28.5 -11.5
s15.834 -13.5 21.501 -23.5s8.5 -23.333 8.5 -40v-326zM179.998 821c8.66699 13.333 19.166 25.668 31.499 37.001s26.166 17 41.499 17c9.33301 0 18.333 -2.33301 27 -7s16.667 -10 24 -16l111 -90c-7.33301 -8.66699 -16.666 -16.834 -27.999 -24.501
s-22.666 -11.5 -33.999 -11.5c-8 0 -16 1.5 -24 4.5s-15.667 6.83301 -23 11.5z" />
    <glyph glyph-name="Uacute" unicode="&#xda;" horiz-adv-x="647" 
d="M583 270c0 -13.333 -0.334961 -26.666 -1.00195 -39.999s-1.66699 -27 -3 -41c-2.66699 -28 -9.5 -54.5 -20.5 -79.5s-27 -46.667 -48 -65s-47.167 -32.833 -78.5 -43.5s-68.333 -16 -111 -16c-43.333 0 -80 4.66699 -110 14s-55 22.833 -75 40.5
s-35.333 39.334 -46 65.001s-18 55.167 -22 88.5c-1.33301 12 -2.33301 24.333 -3 37s-1 26 -1 40v399c9.33301 1.33301 18.5 2.5 27.5 3.5s15.833 1.5 20.5 1.5c10 0 20.167 -1 30.5 -3s19.833 -5.83301 28.5 -11.5s15.834 -13.5 21.501 -23.5s8.5 -23.333 8.5 -40v-335
c0 -24 1.5 -45.667 4.5 -65s9 -35.833 18 -49.5s21.5 -24.334 37.5 -32.001s37 -11.5 63 -11.5c45.333 0 77 13.167 95 39.5s27 63.166 27 110.499v416c9.33301 1.33301 18.5 2.5 27.5 3.5s15.833 1.5 20.5 1.5c10 0 20.167 -1 30.5 -3s19.833 -5.83301 28.5 -11.5
s15.834 -13.5 21.501 -23.5s8.5 -23.333 8.5 -40v-326zM354.998 742c-7.33301 -4.66699 -15.001 -8.50195 -23.001 -11.502s-16 -4.5 -24 -4.5c-11.333 0 -22.666 3.83301 -33.999 11.5s-20.666 15.834 -27.999 24.501l111 90c7.33301 6 15.333 11.333 24 16s17.667 7 27 7
c15.333 0 29.166 -5.66699 41.499 -17s22.833 -23.666 31.5 -36.999z" />
    <glyph glyph-name="Ucircumflex" unicode="&#xdb;" horiz-adv-x="647" 
d="M583 270c0 -13.333 -0.334961 -26.666 -1.00195 -39.999s-1.66699 -27 -3 -41c-2.66699 -28 -9.5 -54.5 -20.5 -79.5s-27 -46.667 -48 -65s-47.167 -32.833 -78.5 -43.5s-68.333 -16 -111 -16c-43.333 0 -80 4.66699 -110 14s-55 22.833 -75 40.5
s-35.333 39.334 -46 65.001s-18 55.167 -22 88.5c-1.33301 12 -2.33301 24.333 -3 37s-1 26 -1 40v399c9.33301 1.33301 18.5 2.5 27.5 3.5s15.833 1.5 20.5 1.5c10 0 20.167 -1 30.5 -3s19.833 -5.83301 28.5 -11.5s15.834 -13.5 21.501 -23.5s8.5 -23.333 8.5 -40v-335
c0 -24 1.5 -45.667 4.5 -65s9 -35.833 18 -49.5s21.5 -24.334 37.5 -32.001s37 -11.5 63 -11.5c45.333 0 77 13.167 95 39.5s27 63.166 27 110.499v416c9.33301 1.33301 18.5 2.5 27.5 3.5s15.833 1.5 20.5 1.5c10 0 20.167 -1 30.5 -3s19.833 -5.83301 28.5 -11.5
s15.834 -13.5 21.501 -23.5s8.5 -23.333 8.5 -40v-326zM327.998 796l-52.999 -52.001c-8 -7.33301 -16.167 -12.333 -24.5 -15s-16.5 -4 -24.5 -4c-8.66699 0 -17.834 1.33301 -27.501 4s-17.167 6.33398 -22.5 11.001l87 108c16 19.333 37.667 29 65 29
c25.333 0 46.666 -9.66699 63.999 -29l88 -110c-6.66699 -4 -14.5 -7.33301 -23.5 -10s-17.5 -4 -25.5 -4c-10.667 0 -20.167 1.5 -28.5 4.5s-17.166 9.16699 -26.499 18.5z" />
    <glyph glyph-name="Udieresis" unicode="&#xdc;" horiz-adv-x="647" 
d="M583 270c0 -13.333 -0.334961 -26.666 -1.00195 -39.999s-1.66699 -27 -3 -41c-2.66699 -28 -9.5 -54.5 -20.5 -79.5s-27 -46.667 -48 -65s-47.167 -32.833 -78.5 -43.5s-68.333 -16 -111 -16c-43.333 0 -80 4.66699 -110 14s-55 22.833 -75 40.5
s-35.333 39.334 -46 65.001s-18 55.167 -22 88.5c-1.33301 12 -2.33301 24.333 -3 37s-1 26 -1 40v399c9.33301 1.33301 18.5 2.5 27.5 3.5s15.833 1.5 20.5 1.5c10 0 20.167 -1 30.5 -3s19.833 -5.83301 28.5 -11.5s15.834 -13.5 21.501 -23.5s8.5 -23.333 8.5 -40v-335
c0 -24 1.5 -45.667 4.5 -65s9 -35.833 18 -49.5s21.5 -24.334 37.5 -32.001s37 -11.5 63 -11.5c45.333 0 77 13.167 95 39.5s27 63.166 27 110.499v416c9.33301 1.33301 18.5 2.5 27.5 3.5s15.833 1.5 20.5 1.5c10 0 20.167 -1 30.5 -3s19.833 -5.83301 28.5 -11.5
s15.834 -13.5 21.501 -23.5s8.5 -23.333 8.5 -40v-326zM489.998 794c0 -19.333 -6.33203 -34.833 -18.999 -46.5s-28 -17.5 -46 -17.5c-18.667 0 -34.334 5.83301 -47.001 17.5s-19 27.167 -19 46.5c0 18.667 6.5 34 19.5 46s28.5 18 46.5 18s33.333 -6 46 -18
s19 -27.333 19 -46zM293.999 794c0 -19.333 -6.33203 -34.833 -18.999 -46.5s-28 -17.5 -46 -17.5c-18.667 0 -34.334 5.83301 -47.001 17.5s-19 27.167 -19 46.5c0 18.667 6.5 34 19.5 46s28.5 18 46.5 18s33.333 -6 46 -18s19 -27.333 19 -46z" />
    <glyph glyph-name="Yacute" unicode="&#xdd;" horiz-adv-x="578" 
d="M357 257l0.00292969 -256.999h-137v253l-214 401c11.333 5.33301 24.666 10 39.999 14s29.666 6 42.999 6c24 0 41.833 -4.5 53.5 -13.5s22.167 -22.5 31.5 -40.5l117 -233l117 231c8 16 18.667 29.333 32 40s32 16 56 16c15.333 0 28.666 -1.33301 39.999 -4
s23.333 -6.33398 36 -11.001zM321.003 742.001c-7.33301 -4.66699 -15.001 -8.50195 -23.001 -11.502s-16 -4.5 -24 -4.5c-11.333 0 -22.666 3.83301 -33.999 11.5s-20.666 15.834 -27.999 24.501l111 90c7.33301 6 15.333 11.333 24 16s17.667 7 27 7
c15.333 0 29.166 -5.66699 41.499 -17s22.833 -23.666 31.5 -36.999z" />
    <glyph glyph-name="Thorn" unicode="&#xde;" horiz-adv-x="556" 
d="M206 549c22.667 2 45.6689 3 69.002 3c86.667 0 150.667 -17.833 192 -53.5s62 -84.834 62 -147.501c0 -44 -7.16699 -81 -21.5 -111s-33.833 -54.333 -58.5 -73s-53.334 -32.167 -86.001 -40.5s-67.334 -12.5 -104.001 -12.5h-52v-114h-138v669
c2 0 8.83301 0.666992 20.5 2s22.167 2 31.5 2c10 0 20 -0.833008 30 -2.5s19 -5 27 -10s14.667 -12.167 20 -21.5s8 -21.666 8 -36.999v-53zM389.002 344c0 40.667 -12.168 69.668 -36.501 87.001s-55.166 26 -92.499 26h-30c-8.66699 0 -16.667 -0.666992 -24 -2v-243h31
c48.667 0 86.167 9.66699 112.5 29s39.5 53.666 39.5 102.999z" />
    <glyph glyph-name="germandbls" unicode="&#xdf;" horiz-adv-x="618" 
d="M385 535c0 22 -7.99512 40.1689 -23.9951 54.502s-38.333 21.5 -67 21.5c-32 0 -55.833 -8 -71.5 -24s-23.5 -41 -23.5 -75v-512h-135v516c0 14 0.833008 27.5 2.5 40.5s4.16699 24.833 7.5 35.5c13.333 42 38.833 73.333 76.5 94s84.834 31 141.501 31
c30 0 58 -3.16699 84 -9.5s48.667 -15.833 68 -28.5s34.5 -28.5 45.5 -47.5s16.5 -40.833 16.5 -65.5c0 -23.333 -5 -43.333 -15 -60s-21.167 -32 -33.5 -46s-23.5 -27.333 -33.5 -40s-15 -26.334 -15 -41.001s4.33301 -26.834 13 -36.501s19.667 -18.5 33 -26.5
s27.666 -16.167 42.999 -24.5s29.666 -18.666 42.999 -30.999s24.333 -27.333 33 -45s13 -39.834 13 -66.501c0 -22.667 -4 -44 -12 -64s-19.667 -37.333 -35 -52s-34.5 -26.334 -57.5 -35.001s-49.5 -13 -79.5 -13c-32 0 -58.333 2.83301 -79 8.5s-38 12.5 -52 20.5
c-11.333 6.66699 -19.666 13 -24.999 19s-8 14.333 -8 25c0 10 3.66699 21.333 11 34s15.666 25.667 24.999 39c12 -10.667 28 -21.334 48 -32.001s43 -16 69 -16c19.333 0 35.333 4.83301 48 14.5s19 24.167 19 43.5c0 14 -4.33301 25.667 -13 35
s-19.334 17.833 -32.001 25.5s-26.5 15.334 -41.5 23.001s-28.833 16.334 -41.5 26.001s-23.334 21.334 -32.001 35.001s-13 30.5 -13 50.5c0 23.333 5.16699 43.166 15.5 59.499s21.666 31.5 33.999 45.5s23.666 28.333 33.999 43s15.5 31.667 15.5 51z" />
    <glyph glyph-name="agrave" unicode="&#xe0;" horiz-adv-x="517" 
d="M453 116c0 -52 7.66309 -90.333 22.9961 -115c-12 -4.66699 -23.167 -8 -33.5 -10s-21.166 -3 -32.499 -3c-24 0 -42.167 4.66699 -54.5 14s-20.166 22.666 -23.499 39.999c-14.667 -15.333 -34 -28.333 -58 -39s-53.333 -16 -88 -16c-18 0 -36 2.5 -54 7.5
s-34.333 13.167 -49 24.5s-26.667 26.5 -36 45.5s-14 42.167 -14 69.5c0 34 8.16699 61.667 24.5 83s36.833 38.166 61.5 50.499s51.334 20.833 80.001 25.5s55 7.66699 79 9c8 0.666992 15.833 1 23.5 1h21.5v18c0 25.333 -6.83301 43.333 -20.5 54s-35.834 16 -66.501 16
c-28.667 0 -54.167 -4.66699 -76.5 -14s-44.166 -20 -65.499 -32c-9.33301 11.333 -16.833 23.833 -22.5 37.5s-8.5 23.834 -8.5 30.501c0 8.66699 5.16699 17.5 15.5 26.5s24.5 17 42.5 24s38.667 12.667 62 17s48 6.5 74 6.5c36 0 66.5 -3.66699 91.5 -11
s45.333 -18.666 61 -33.999s26.834 -34.5 33.501 -57.5s10 -49.833 10 -80.5v-188zM324.996 232l-13.999 0.00390625c-4.66699 0 -9.33398 -0.333008 -14.001 -1c-16.667 -1.33301 -33.167 -3.5 -49.5 -6.5s-30.833 -7.66699 -43.5 -14s-23 -14.833 -31 -25.5
s-12 -24.334 -12 -41.001c0 -18.667 5.33301 -34.5 16 -47.5s28.667 -19.5 54 -19.5c12.667 0 24.667 1.66699 36 5s21.333 7.66602 30 12.999s15.5 11.166 20.5 17.499s7.5 12.166 7.5 17.499v102zM99.9971 679.004c8.66699 7.33301 20.5 14.667 35.5 22s28.5 11 40.5 11
c14 0 25.833 -3.16699 35.5 -9.5s19.167 -15.833 28.5 -28.5l82 -116c-6 -5.33301 -15.333 -10 -28 -14s-23.667 -6 -33 -6c-22 0 -40.667 8.66699 -56 26z" />
    <glyph glyph-name="aacute" unicode="&#xe1;" horiz-adv-x="517" 
d="M453 116c0 -52 7.66309 -90.333 22.9961 -115c-12 -4.66699 -23.167 -8 -33.5 -10s-21.166 -3 -32.499 -3c-24 0 -42.167 4.66699 -54.5 14s-20.166 22.666 -23.499 39.999c-14.667 -15.333 -34 -28.333 -58 -39s-53.333 -16 -88 -16c-18 0 -36 2.5 -54 7.5
s-34.333 13.167 -49 24.5s-26.667 26.5 -36 45.5s-14 42.167 -14 69.5c0 34 8.16699 61.667 24.5 83s36.833 38.166 61.5 50.499s51.334 20.833 80.001 25.5s55 7.66699 79 9c8 0.666992 15.833 1 23.5 1h21.5v18c0 25.333 -6.83301 43.333 -20.5 54s-35.834 16 -66.501 16
c-28.667 0 -54.167 -4.66699 -76.5 -14s-44.166 -20 -65.499 -32c-9.33301 11.333 -16.833 23.833 -22.5 37.5s-8.5 23.834 -8.5 30.501c0 8.66699 5.16699 17.5 15.5 26.5s24.5 17 42.5 24s38.667 12.667 62 17s48 6.5 74 6.5c36 0 66.5 -3.66699 91.5 -11
s45.333 -18.666 61 -33.999s26.834 -34.5 33.501 -57.5s10 -49.833 10 -80.5v-188zM324.996 232l-13.999 0.00390625c-4.66699 0 -9.33398 -0.333008 -14.001 -1c-16.667 -1.33301 -33.167 -3.5 -49.5 -6.5s-30.833 -7.66699 -43.5 -14s-23 -14.833 -31 -25.5
s-12 -24.334 -12 -41.001c0 -18.667 5.33301 -34.5 16 -47.5s28.667 -19.5 54 -19.5c12.667 0 24.667 1.66699 36 5s21.333 7.66602 30 12.999s15.5 11.166 20.5 17.499s7.5 12.166 7.5 17.499v102zM311.997 564.004c-15.333 -17.333 -34 -26.001 -56 -26.001
c-9.33301 0 -20.333 2 -33 6s-22 8.66699 -28 14l82 116c9.33301 12.667 18.833 22.167 28.5 28.5s21.5 9.5 35.5 9.5c12 0 25.5 -3.66699 40.5 -11s26.833 -14.666 35.5 -21.999z" />
    <glyph glyph-name="acircumflex" unicode="&#xe2;" horiz-adv-x="517" 
d="M453 116c0 -52 7.66309 -90.333 22.9961 -115c-12 -4.66699 -23.167 -8 -33.5 -10s-21.166 -3 -32.499 -3c-24 0 -42.167 4.66699 -54.5 14s-20.166 22.666 -23.499 39.999c-14.667 -15.333 -34 -28.333 -58 -39s-53.333 -16 -88 -16c-18 0 -36 2.5 -54 7.5
s-34.333 13.167 -49 24.5s-26.667 26.5 -36 45.5s-14 42.167 -14 69.5c0 34 8.16699 61.667 24.5 83s36.833 38.166 61.5 50.499s51.334 20.833 80.001 25.5s55 7.66699 79 9c8 0.666992 15.833 1 23.5 1h21.5v18c0 25.333 -6.83301 43.333 -20.5 54s-35.834 16 -66.501 16
c-28.667 0 -54.167 -4.66699 -76.5 -14s-44.166 -20 -65.499 -32c-9.33301 11.333 -16.833 23.833 -22.5 37.5s-8.5 23.834 -8.5 30.501c0 8.66699 5.16699 17.5 15.5 26.5s24.5 17 42.5 24s38.667 12.667 62 17s48 6.5 74 6.5c36 0 66.5 -3.66699 91.5 -11
s45.333 -18.666 61 -33.999s26.834 -34.5 33.501 -57.5s10 -49.833 10 -80.5v-188zM324.996 232l-13.999 0.00390625c-4.66699 0 -9.33398 -0.333008 -14.001 -1c-16.667 -1.33301 -33.167 -3.5 -49.5 -6.5s-30.833 -7.66699 -43.5 -14s-23 -14.833 -31 -25.5
s-12 -24.334 -12 -41.001c0 -18.667 5.33301 -34.5 16 -47.5s28.667 -19.5 54 -19.5c12.667 0 24.667 1.66699 36 5s21.333 7.66602 30 12.999s15.5 11.166 20.5 17.499s7.5 12.166 7.5 17.499v102zM259.997 625.004l-59 -67.001c-7.33301 -8.66699 -15.166 -14 -23.499 -16
s-16.5 -3 -24.5 -3c-8.66699 0 -18 1.33301 -28 4s-17.667 6.33398 -23 11.001l91 126c7.33301 10 17 17.333 29 22s25 7 39 7c13.333 0 26 -2 38 -6s21.667 -11.667 29 -23l91 -128c-6.66699 -4 -14.334 -7.33301 -23.001 -10s-17 -4 -25 -4c-10.667 0 -20.5 2 -29.5 6
s-18.167 11 -27.5 21z" />
    <glyph glyph-name="atilde" unicode="&#xe3;" horiz-adv-x="517" 
d="M453 116c0 -52 7.66309 -90.333 22.9961 -115c-12 -4.66699 -23.167 -8 -33.5 -10s-21.166 -3 -32.499 -3c-24 0 -42.167 4.66699 -54.5 14s-20.166 22.666 -23.499 39.999c-14.667 -15.333 -34 -28.333 -58 -39s-53.333 -16 -88 -16c-18 0 -36 2.5 -54 7.5
s-34.333 13.167 -49 24.5s-26.667 26.5 -36 45.5s-14 42.167 -14 69.5c0 34 8.16699 61.667 24.5 83s36.833 38.166 61.5 50.499s51.334 20.833 80.001 25.5s55 7.66699 79 9c8 0.666992 15.833 1 23.5 1h21.5v18c0 25.333 -6.83301 43.333 -20.5 54s-35.834 16 -66.501 16
c-28.667 0 -54.167 -4.66699 -76.5 -14s-44.166 -20 -65.499 -32c-9.33301 11.333 -16.833 23.833 -22.5 37.5s-8.5 23.834 -8.5 30.501c0 8.66699 5.16699 17.5 15.5 26.5s24.5 17 42.5 24s38.667 12.667 62 17s48 6.5 74 6.5c36 0 66.5 -3.66699 91.5 -11
s45.333 -18.666 61 -33.999s26.834 -34.5 33.501 -57.5s10 -49.833 10 -80.5v-188zM324.996 232l-13.999 0.00390625c-4.66699 0 -9.33398 -0.333008 -14.001 -1c-16.667 -1.33301 -33.167 -3.5 -49.5 -6.5s-30.833 -7.66699 -43.5 -14s-23 -14.833 -31 -25.5
s-12 -24.334 -12 -41.001c0 -18.667 5.33301 -34.5 16 -47.5s28.667 -19.5 54 -19.5c12.667 0 24.667 1.66699 36 5s21.333 7.66602 30 12.999s15.5 11.166 20.5 17.499s7.5 12.166 7.5 17.499v102zM327.997 559.004c-16 0 -30.332 2 -42.999 6s-24.167 8.16699 -34.5 12.5
l-29.5 12.5c-9.33301 4 -19 6 -29 6c-15.333 0 -28.5 -4 -39.5 -12s-21.833 -18.333 -32.5 -31c-8 6.66699 -16.167 14.5 -24.5 23.5s-12.5 18.833 -12.5 29.5c0 9.33301 3.33301 18.333 10 27s15.167 16.167 25.5 22.5s21.833 11.333 34.5 15s25 5.5 37 5.5
c14.667 0 27.667 -2 39 -6s22 -8.16699 32 -12.5l29 -12.5c9.33301 -4 19 -6 29 -6c14.667 0 27 3.5 37 10.5s20 18.167 30 33.5c7.33301 -6.66699 15.666 -15 24.999 -25s14 -20.333 14 -31c0 -10 -2.83301 -19.167 -8.5 -27.5s-13.167 -15.5 -22.5 -21.5
s-19.833 -10.667 -31.5 -14s-23.167 -5 -34.5 -5z" />
    <glyph glyph-name="adieresis" unicode="&#xe4;" horiz-adv-x="517" 
d="M453 116c0 -52 7.66309 -90.333 22.9961 -115c-12 -4.66699 -23.167 -8 -33.5 -10s-21.166 -3 -32.499 -3c-24 0 -42.167 4.66699 -54.5 14s-20.166 22.666 -23.499 39.999c-14.667 -15.333 -34 -28.333 -58 -39s-53.333 -16 -88 -16c-18 0 -36 2.5 -54 7.5
s-34.333 13.167 -49 24.5s-26.667 26.5 -36 45.5s-14 42.167 -14 69.5c0 34 8.16699 61.667 24.5 83s36.833 38.166 61.5 50.499s51.334 20.833 80.001 25.5s55 7.66699 79 9c8 0.666992 15.833 1 23.5 1h21.5v18c0 25.333 -6.83301 43.333 -20.5 54s-35.834 16 -66.501 16
c-28.667 0 -54.167 -4.66699 -76.5 -14s-44.166 -20 -65.499 -32c-9.33301 11.333 -16.833 23.833 -22.5 37.5s-8.5 23.834 -8.5 30.501c0 8.66699 5.16699 17.5 15.5 26.5s24.5 17 42.5 24s38.667 12.667 62 17s48 6.5 74 6.5c36 0 66.5 -3.66699 91.5 -11
s45.333 -18.666 61 -33.999s26.834 -34.5 33.501 -57.5s10 -49.833 10 -80.5v-188zM324.996 232l-13.999 0.00390625c-4.66699 0 -9.33398 -0.333008 -14.001 -1c-16.667 -1.33301 -33.167 -3.5 -49.5 -6.5s-30.833 -7.66699 -43.5 -14s-23 -14.833 -31 -25.5
s-12 -24.334 -12 -41.001c0 -18.667 5.33301 -34.5 16 -47.5s28.667 -19.5 54 -19.5c12.667 0 24.667 1.66699 36 5s21.333 7.66602 30 12.999s15.5 11.166 20.5 17.499s7.5 12.166 7.5 17.499v102zM429.997 619.004c0 -19.333 -6.33203 -34.833 -18.999 -46.5
s-28 -17.5 -46 -17.5c-18.667 0 -34.334 5.83301 -47.001 17.5s-19 27.167 -19 46.5c0 18.667 6.5 34 19.5 46s28.5 18 46.5 18s33.333 -6 46 -18s19 -27.333 19 -46zM223.998 619.004c0 -19.333 -6.33203 -34.833 -18.999 -46.5s-28 -17.5 -46 -17.5
c-18.667 0 -34.334 5.83301 -47.001 17.5s-19 27.167 -19 46.5c0 18.667 6.5 34 19.5 46s28.5 18 46.5 18s33.333 -6 46 -18s19 -27.333 19 -46z" />
    <glyph glyph-name="aring" unicode="&#xe5;" horiz-adv-x="517" 
d="M453 116c0 -52 7.66309 -90.333 22.9961 -115c-12 -4.66699 -23.167 -8 -33.5 -10s-21.166 -3 -32.499 -3c-24 0 -42.167 4.66699 -54.5 14s-20.166 22.666 -23.499 39.999c-14.667 -15.333 -34 -28.333 -58 -39s-53.333 -16 -88 -16c-18 0 -36 2.5 -54 7.5
s-34.333 13.167 -49 24.5s-26.667 26.5 -36 45.5s-14 42.167 -14 69.5c0 34 8.16699 61.667 24.5 83s36.833 38.166 61.5 50.499s51.334 20.833 80.001 25.5s55 7.66699 79 9c8 0.666992 15.833 1 23.5 1h21.5v18c0 25.333 -6.83301 43.333 -20.5 54s-35.834 16 -66.501 16
c-28.667 0 -54.167 -4.66699 -76.5 -14s-44.166 -20 -65.499 -32c-9.33301 11.333 -16.833 23.833 -22.5 37.5s-8.5 23.834 -8.5 30.501c0 8.66699 5.16699 17.5 15.5 26.5s24.5 17 42.5 24s38.667 12.667 62 17s48 6.5 74 6.5c36 0 66.5 -3.66699 91.5 -11
s45.333 -18.666 61 -33.999s26.834 -34.5 33.501 -57.5s10 -49.833 10 -80.5v-188zM324.996 232l-13.999 0.00390625c-4.66699 0 -9.33398 -0.333008 -14.001 -1c-16.667 -1.33301 -33.167 -3.5 -49.5 -6.5s-30.833 -7.66699 -43.5 -14s-23 -14.833 -31 -25.5
s-12 -24.334 -12 -41.001c0 -18.667 5.33301 -34.5 16 -47.5s28.667 -19.5 54 -19.5c12.667 0 24.667 1.66699 36 5s21.333 7.66602 30 12.999s15.5 11.166 20.5 17.499s7.5 12.166 7.5 17.499v102zM370.997 657.004c0 -15.333 -2.66699 -29.998 -8 -43.998
s-12.666 -26.333 -21.999 -37s-21 -19 -35 -25s-29.333 -9 -46 -9c-17.333 0 -33 3 -47 9s-25.833 14.167 -35.5 24.5s-17 22.5 -22 36.5s-7.5 28.667 -7.5 44s2.5 30 7.5 44s12.333 26.167 22 36.5s21.5 18.666 35.5 24.999s29.667 9.5 47 9.5c16.667 0 32 -3 46 -9
s25.667 -14.333 35 -25s16.666 -22.834 21.999 -36.501s8 -28.167 8 -43.5zM312.997 656.006c0 16.667 -4.83105 31 -14.498 43s-22.5 18 -38.5 18c-16.667 0 -29.834 -6 -39.501 -18s-14.5 -26 -14.5 -42c0 -16.667 4.66699 -31.167 14 -43.5s22.666 -18.5 39.999 -18.5
c16 0 28.833 6.16699 38.5 18.5s14.5 26.5 14.5 42.5z" />
    <glyph glyph-name="ae" unicode="&#xe6;" horiz-adv-x="788" 
d="M584 85c16.667 0 31.3281 1.83496 43.9951 5.50195s24 8.16699 34 13.5s18.667 11.166 26 17.499l20 17.5c8 -10 16.333 -22.833 25 -38.5s13 -28.5 13 -38.5c0 -14.667 -8.33301 -28 -25 -40c-14 -10.667 -33.833 -19.834 -59.5 -27.501s-55.834 -11.5 -90.501 -11.5
c-36 0 -71.167 5 -105.5 15s-63.833 29 -88.5 57c-7.33301 -7.33301 -16.333 -15 -27 -23s-23.5 -15.5 -38.5 -22.5s-32 -12.667 -51 -17s-40.167 -6.5 -63.5 -6.5c-20.667 0 -40.834 2.33301 -60.501 7s-37.167 12.667 -52.5 24s-27.666 26.333 -36.999 45s-14 42 -14 70
c0 26 4.83301 48.167 14.5 66.5s22.5 33.666 38.5 45.999s34.167 22 54.5 29s41.333 12.333 63 16s42.834 6 63.501 7s39.334 1.5 56.001 1.5v20c0 25.333 -6.83301 44 -20.5 56s-35.834 18 -66.501 18c-28.667 0 -54.167 -4.66699 -76.5 -14s-44.166 -20 -65.499 -32
c-9.33301 11.333 -16.833 23.666 -22.5 36.999s-8.5 23.333 -8.5 30c0 8.66699 5.16699 17.5 15.5 26.5s24.333 17 42 24s37.834 12.667 60.501 17s46.334 6.5 71.001 6.5c38 0 69 -5.66699 93 -17s44 -25.666 60 -42.999c40.667 40 91.334 60 152.001 60
c34.667 0 64.334 -5.83301 89.001 -17.5s44.834 -27.167 60.501 -46.5s27.167 -41.666 34.5 -66.999s11 -52 11 -80c0 -7.33301 -0.166992 -17 -0.5 -29s-1.16602 -21.667 -2.49902 -29h-294c1.33301 -18 4.66602 -35 9.99902 -51s13.166 -30.167 23.499 -42.5
s23.333 -22 39 -29s34.5 -10.5 56.5 -10.5zM230.994 77.002c10.667 0 21.832 1.66699 33.499 5s22.5 7.5 32.5 12.5s18.667 10.333 26 16s12.666 11.167 15.999 16.5c-5.33301 15.333 -9.5 30.333 -12.5 45s-4.83301 32.667 -5.5 54
c-15.333 0 -32.166 -0.833008 -50.499 -2.5s-35.666 -5.16699 -51.999 -10.5s-30 -13.5 -41 -24.5s-16.5 -25.833 -16.5 -44.5s5.33301 -34.5 16 -47.5s28.667 -19.5 54 -19.5zM628.992 293.002c0 32.667 -6.16602 58 -18.499 76s-34.5 27 -66.5 27
c-28 0 -49.833 -8.5 -65.5 -25.5s-23.834 -42.833 -24.501 -77.5h175z" />
    <glyph glyph-name="ccedilla" unicode="&#xe7;" horiz-adv-x="472" 
d="M346 -132c0 -14.667 -3.33496 -27.8311 -10.002 -39.498s-15.167 -21.667 -25.5 -30s-22.333 -14.666 -36 -18.999s-27.5 -6.5 -41.5 -6.5c-13.333 0 -24.666 3 -33.999 9s-14 14.667 -14 26c0 4.66699 0.5 10.5 1.5 17.5s2.83301 14.833 5.5 23.5
c4.66699 -2.66699 10 -4.83398 16 -6.50098s12 -2.5 18 -2.5c10.667 0 19.167 1.66699 25.5 5s9.5 9.33301 9.5 18c0 8 -2.16699 14.833 -6.5 20.5s-9 11.167 -14 16.5s-9.66699 11 -14 17s-6.5 14 -6.5 24c0 9.33301 1.66699 17.833 5 25.5s7.33301 14.5 12 20.5
c-22.667 3.33301 -45.5 9.83301 -68.5 19.5s-43.667 24.167 -62 43.5s-33.333 44.166 -45 74.499s-17.5 68.166 -17.5 113.499c0 50.667 8.33301 92 25 124s37.334 57.333 62.001 76s50.834 31.5 78.501 38.5s52.5 10.5 74.5 10.5c28 0 53.5 -3 76.5 -9s42.167 -14 57.5 -24
c12.667 -8 21.5 -15.667 26.5 -23s7.5 -16 7.5 -26c0 -9.33301 -3 -20.833 -9 -34.5s-13.667 -26.167 -23 -37.5c-10.667 11.333 -26.334 22.666 -47.001 33.999s-43.667 17 -69 17c-44 0 -75.333 -13.5 -94 -40.5s-28 -61.5 -28 -103.5c0 -21.333 2 -41.333 6 -60
s10.833 -35 20.5 -49s22.167 -25 37.5 -33s34.333 -12 57 -12c14.667 0 28 1.66699 40 5s22.667 7.5 32 12.5s17.333 10.333 24 16s11.667 10.5 15 14.5c4 -4 8 -9.16699 12 -15.5s7.66699 -13 11 -20s6 -13.833 8 -20.5s3 -12.667 3 -18
c0 -6.66699 -1.33301 -13.167 -4 -19.5s-8.33398 -12.833 -17.001 -19.5c-11.333 -9.33301 -27.166 -17.5 -47.499 -24.5s-45.833 -11.167 -76.5 -12.5c-4.66699 -6.66699 -7 -13.667 -7 -21s2.66699 -13.666 8 -18.999l17 -17.5c6 -6.33301 11.667 -14 17 -23
s8 -20.833 8 -35.5z" />
    <glyph glyph-name="egrave" unicode="&#xe8;" horiz-adv-x="514" 
d="M310 85c16.667 0 31.335 1.83594 44.002 5.50293s24 8.16699 34 13.5s18.667 11.166 26 17.499l20 17.5c8 -10 16.333 -22.833 25 -38.5s13 -28.5 13 -38.5c0 -14.667 -8.33301 -28 -25 -40c-14 -10.667 -33.833 -19.834 -59.5 -27.501s-55.834 -11.5 -90.501 -11.5
c-31.333 0 -62.166 4 -92.499 12s-57.333 22 -81 42s-42.834 46.833 -57.501 80.5s-22 76.167 -22 127.5c0 42 6.5 78.167 19.5 108.5s30.333 55.5 52 75.5s46.167 34.667 73.5 44s55.333 14 84 14c37.333 0 69 -5.83301 95 -17.5s47.167 -27.334 63.5 -47.001
s28.166 -42.167 35.499 -67.5s11 -52 11 -80v-14c0 -5.33301 -0.166992 -11 -0.5 -17l-1 -17.5c-0.333008 -5.66699 -0.833008 -10.167 -1.5 -13.5h-294c2.66699 -36.667 14 -67.167 34 -91.5s51.667 -36.5 95 -36.5zM355.001 288.003c0 32 -6.16699 58 -18.5 78
s-34.5 30 -66.5 30c-28 0 -50 -9.5 -66 -28.5s-24 -45.5 -24 -79.5h175zM130.001 679.003c8.66699 7.33301 20.5 14.667 35.5 22s28.5 11 40.5 11c14 0 25.833 -3.16699 35.5 -9.5s19.167 -15.833 28.5 -28.5l82 -116c-6 -5.33301 -15.333 -10 -28 -14s-23.667 -6 -33 -6
c-22 0 -40.667 8.66699 -56 26z" />
    <glyph glyph-name="eacute" unicode="&#xe9;" horiz-adv-x="514" 
d="M310 85c16.667 0 31.335 1.83594 44.002 5.50293s24 8.16699 34 13.5s18.667 11.166 26 17.499l20 17.5c8 -10 16.333 -22.833 25 -38.5s13 -28.5 13 -38.5c0 -14.667 -8.33301 -28 -25 -40c-14 -10.667 -33.833 -19.834 -59.5 -27.501s-55.834 -11.5 -90.501 -11.5
c-31.333 0 -62.166 4 -92.499 12s-57.333 22 -81 42s-42.834 46.833 -57.501 80.5s-22 76.167 -22 127.5c0 42 6.5 78.167 19.5 108.5s30.333 55.5 52 75.5s46.167 34.667 73.5 44s55.333 14 84 14c37.333 0 69 -5.83301 95 -17.5s47.167 -27.334 63.5 -47.001
s28.166 -42.167 35.499 -67.5s11 -52 11 -80v-14c0 -5.33301 -0.166992 -11 -0.5 -17l-1 -17.5c-0.333008 -5.66699 -0.833008 -10.167 -1.5 -13.5h-294c2.66699 -36.667 14 -67.167 34 -91.5s51.667 -36.5 95 -36.5zM355.001 288.003c0 32 -6.16699 58 -18.5 78
s-34.5 30 -66.5 30c-28 0 -50 -9.5 -66 -28.5s-24 -45.5 -24 -79.5h175zM344.001 564.003c-15.333 -17.333 -34 -26.001 -56 -26.001c-9.33301 0 -20.333 2 -33 6s-22 8.66699 -28 14l82 116c9.33301 12.667 18.833 22.167 28.5 28.5s21.5 9.5 35.5 9.5
c12 0 25.5 -3.66699 40.5 -11s26.833 -14.666 35.5 -21.999z" />
    <glyph glyph-name="ecircumflex" unicode="&#xea;" horiz-adv-x="514" 
d="M310 85c16.667 0 31.335 1.83594 44.002 5.50293s24 8.16699 34 13.5s18.667 11.166 26 17.499l20 17.5c8 -10 16.333 -22.833 25 -38.5s13 -28.5 13 -38.5c0 -14.667 -8.33301 -28 -25 -40c-14 -10.667 -33.833 -19.834 -59.5 -27.501s-55.834 -11.5 -90.501 -11.5
c-31.333 0 -62.166 4 -92.499 12s-57.333 22 -81 42s-42.834 46.833 -57.501 80.5s-22 76.167 -22 127.5c0 42 6.5 78.167 19.5 108.5s30.333 55.5 52 75.5s46.167 34.667 73.5 44s55.333 14 84 14c37.333 0 69 -5.83301 95 -17.5s47.167 -27.334 63.5 -47.001
s28.166 -42.167 35.499 -67.5s11 -52 11 -80v-14c0 -5.33301 -0.166992 -11 -0.5 -17l-1 -17.5c-0.333008 -5.66699 -0.833008 -10.167 -1.5 -13.5h-294c2.66699 -36.667 14 -67.167 34 -91.5s51.667 -36.5 95 -36.5zM355.001 288.003c0 32 -6.16699 58 -18.5 78
s-34.5 30 -66.5 30c-28 0 -50 -9.5 -66 -28.5s-24 -45.5 -24 -79.5h175zM280.001 625.003l-59 -67.001c-7.33301 -8.66699 -15.166 -14 -23.499 -16s-16.5 -3 -24.5 -3c-8.66699 0 -18 1.33301 -28 4s-17.667 6.33398 -23 11.001l91 126c7.33301 10 17 17.333 29 22
s25 7 39 7c13.333 0 26 -2 38 -6s21.667 -11.667 29 -23l91 -128c-6.66699 -4 -14.334 -7.33301 -23.001 -10s-17 -4 -25 -4c-10.667 0 -20.5 2 -29.5 6s-18.167 11 -27.5 21z" />
    <glyph glyph-name="edieresis" unicode="&#xeb;" horiz-adv-x="514" 
d="M310 85c16.667 0 31.335 1.83594 44.002 5.50293s24 8.16699 34 13.5s18.667 11.166 26 17.499l20 17.5c8 -10 16.333 -22.833 25 -38.5s13 -28.5 13 -38.5c0 -14.667 -8.33301 -28 -25 -40c-14 -10.667 -33.833 -19.834 -59.5 -27.501s-55.834 -11.5 -90.501 -11.5
c-31.333 0 -62.166 4 -92.499 12s-57.333 22 -81 42s-42.834 46.833 -57.501 80.5s-22 76.167 -22 127.5c0 42 6.5 78.167 19.5 108.5s30.333 55.5 52 75.5s46.167 34.667 73.5 44s55.333 14 84 14c37.333 0 69 -5.83301 95 -17.5s47.167 -27.334 63.5 -47.001
s28.166 -42.167 35.499 -67.5s11 -52 11 -80v-14c0 -5.33301 -0.166992 -11 -0.5 -17l-1 -17.5c-0.333008 -5.66699 -0.833008 -10.167 -1.5 -13.5h-294c2.66699 -36.667 14 -67.167 34 -91.5s51.667 -36.5 95 -36.5zM355.001 288.003c0 32 -6.16699 58 -18.5 78
s-34.5 30 -66.5 30c-28 0 -50 -9.5 -66 -28.5s-24 -45.5 -24 -79.5h175zM454.001 619.003c0 -19.333 -6.33203 -34.833 -18.999 -46.5s-28 -17.5 -46 -17.5c-18.667 0 -34.334 5.83301 -47.001 17.5s-19 27.167 -19 46.5c0 18.667 6.5 34 19.5 46s28.5 18 46.5 18
s33.333 -6 46 -18s19 -27.333 19 -46zM248.002 619.003c0 -19.333 -6.33203 -34.833 -18.999 -46.5s-28 -17.5 -46 -17.5c-18.667 0 -34.334 5.83301 -47.001 17.5s-19 27.167 -19 46.5c0 18.667 6.5 34 19.5 46s28.5 18 46.5 18s33.333 -6 46 -18s19 -27.333 19 -46z" />
    <glyph glyph-name="igrave" unicode="&#xec;" horiz-adv-x="264" 
d="M200 -6c-2.66699 -1.33301 -8.66797 -2.33301 -18.001 -3s-19.333 -1 -30 -1c-26 0 -47.167 5.5 -63.5 16.5s-24.5 33.167 -24.5 66.5v400c1.33301 0.666992 6.66602 1.5 15.999 2.5s19.333 1.5 30 1.5s21.334 -1 32.001 -3s20.334 -5.83301 29.001 -11.5
s15.667 -13.667 21 -24s8 -23.833 8 -40.5v-404zM-18.001 679c8.66699 7.33301 20.5 14.667 35.5 22s28.5 11 40.5 11c14 0 25.833 -3.16699 35.5 -9.5s19.167 -15.833 28.5 -28.5l82 -116c-6 -5.33301 -15.333 -10 -28 -14s-23.667 -6 -33 -6c-22 0 -40.667 8.66699 -56 26
z" />
    <glyph glyph-name="iacute" unicode="&#xed;" horiz-adv-x="264" 
d="M200 -6c-2.66699 -1.33301 -8.66797 -2.33301 -18.001 -3s-19.333 -1 -30 -1c-26 0 -47.167 5.5 -63.5 16.5s-24.5 33.167 -24.5 66.5v400c1.33301 0.666992 6.66602 1.5 15.999 2.5s19.333 1.5 30 1.5s21.334 -1 32.001 -3s20.334 -5.83301 29.001 -11.5
s15.667 -13.667 21 -24s8 -23.833 8 -40.5v-404zM181.999 564c-15.333 -17.333 -34 -26.001 -56 -26.001c-9.33301 0 -20.333 2 -33 6s-22 8.66699 -28 14l82 116c9.33301 12.667 18.833 22.167 28.5 28.5s21.5 9.5 35.5 9.5c12 0 25.5 -3.66699 40.5 -11
s26.833 -14.666 35.5 -21.999z" />
    <glyph glyph-name="icircumflex" unicode="&#xee;" horiz-adv-x="264" 
d="M200 -6c-2.66699 -1.33301 -8.66797 -2.33301 -18.001 -3s-19.333 -1 -30 -1c-26 0 -47.167 5.5 -63.5 16.5s-24.5 33.167 -24.5 66.5v400c1.33301 0.666992 6.66602 1.5 15.999 2.5s19.333 1.5 30 1.5s21.334 -1 32.001 -3s20.334 -5.83301 29.001 -11.5
s15.667 -13.667 21 -24s8 -23.833 8 -40.5v-404zM127.999 625l-59 -67.001c-7.33301 -8.66699 -15.166 -14 -23.499 -16s-16.5 -3 -24.5 -3c-8.66699 0 -18 1.33301 -28 4s-17.667 6.33398 -23 11.001l91 126c7.33301 10 17 17.333 29 22s25 7 39 7c13.333 0 26 -2 38 -6
s21.667 -11.667 29 -23l91 -128c-6.66699 -4 -14.334 -7.33301 -23.001 -10s-17 -4 -25 -4c-10.667 0 -20.5 2 -29.5 6s-18.167 11 -27.5 21z" />
    <glyph glyph-name="idieresis" unicode="&#xef;" horiz-adv-x="264" 
d="M200 -6c-2.66699 -1.33301 -8.66797 -2.33301 -18.001 -3s-19.333 -1 -30 -1c-26 0 -47.167 5.5 -63.5 16.5s-24.5 33.167 -24.5 66.5v400c1.33301 0.666992 6.66602 1.5 15.999 2.5s19.333 1.5 30 1.5s21.334 -1 32.001 -3s20.334 -5.83301 29.001 -11.5
s15.667 -13.667 21 -24s8 -23.833 8 -40.5v-404zM305.999 619c0 -19.333 -6.33203 -34.833 -18.999 -46.5s-28 -17.5 -46 -17.5c-18.667 0 -34.334 5.83301 -47.001 17.5s-19 27.167 -19 46.5c0 18.667 6.5 34 19.5 46s28.5 18 46.5 18s33.333 -6 46 -18s19 -27.333 19 -46z
M100 619c0 -19.333 -6.33203 -34.833 -18.999 -46.5s-28 -17.5 -46 -17.5c-18.667 0 -34.334 5.83301 -47.001 17.5s-19 27.167 -19 46.5c0 18.667 6.5 34 19.5 46s28.5 18 46.5 18s33.333 -6 46 -18s19 -27.333 19 -46z" />
    <glyph glyph-name="eth" unicode="&#xf0;" horiz-adv-x="557" 
d="M198 483l-50 62.001l61 41c-16 7.33301 -33.333 13 -52 17s-37 7.33301 -55 10c5.33301 30 13.666 52 24.999 66s26 21 44 21c15.333 0 35.833 -3.66699 61.5 -11s51.834 -17.666 78.501 -30.999l84 60l52 -60l-65 -47c22.667 -18.667 42.667 -40.834 60 -66.501
s31.666 -53.334 42.999 -83.001s20 -60.5 26 -92.5s9 -63.333 9 -94c0 -48 -5.66699 -90 -17 -126s-27.5 -66.167 -48.5 -90.5s-46.333 -42.5 -76 -54.5s-62.834 -18 -99.501 -18c-34.667 0 -66.334 4.83301 -95.001 14.5s-53.334 24.5 -74.001 44.5s-36.667 45.333 -48 76
s-17 67 -17 109c0 37.333 5.66699 69.833 17 97.5s26.833 50.5 46.5 68.5s42.334 31.5 68.001 40.5s52.834 13.5 81.501 13.5c23.333 0 44.333 -3.5 63 -10.5s34.334 -15.167 47.001 -24.5c-9.33301 22.667 -21.166 45 -35.499 67s-30.5 40.667 -48.5 56zM383 258.001
c0 16.667 -0.668945 30.166 -2.00195 40.499s-3.66602 21.166 -6.99902 32.499c-12.667 8.66699 -26 15.334 -40 20.001s-28.667 7 -44 7c-37.333 0 -64.166 -12.167 -80.499 -36.5s-24.5 -55.166 -24.5 -92.499c0 -48 8.66699 -83.333 26 -106s41 -34 71 -34
c14.667 0 28.167 3 40.5 9s23 15.833 32 29.5s16 31.167 21 52.5s7.5 47.333 7.5 78z" />
    <glyph glyph-name="ntilde" unicode="&#xf1;" horiz-adv-x="562" 
d="M201 0l-136.998 -0.000976562v473l12 2c4 0.666992 8.66699 1.16699 14 1.5s11.666 0.5 18.999 0.5c21.333 0 39.833 -3.83301 55.5 -11.5s25.5 -21.167 29.5 -40.5c11.333 15.333 28.666 29.5 51.999 42.5s55 19.5 95 19.5c47.333 0 82.333 -9.33301 105 -28
s37.334 -43.334 44.001 -74.001c3.33301 -15.333 5.5 -32 6.5 -50s1.5 -35.667 1.5 -53v-282h-136v276c0 14.667 -0.5 28.334 -1.5 41.001s-3.66699 23.5 -8 32.5s-11.333 16 -21 21s-23.167 7.5 -40.5 7.5c-24.667 0 -45.834 -5.16699 -63.501 -15.5
s-26.5 -23.166 -26.5 -38.499v-324zM361.002 558.999c-16 0 -30.332 2 -42.999 6s-24.167 8.16699 -34.5 12.5l-29.5 12.5c-9.33301 4 -19 6 -29 6c-15.333 0 -28.5 -4 -39.5 -12s-21.833 -18.333 -32.5 -31c-8 6.66699 -16.167 14.5 -24.5 23.5s-12.5 18.833 -12.5 29.5
c0 9.33301 3.33301 18.333 10 27s15.167 16.167 25.5 22.5s21.833 11.333 34.5 15s25 5.5 37 5.5c14.667 0 27.667 -2 39 -6s22 -8.16699 32 -12.5l29 -12.5c9.33301 -4 19 -6 29 -6c14.667 0 27 3.5 37 10.5s20 18.167 30 33.5c7.33301 -6.66699 15.666 -15 24.999 -25
s14 -20.333 14 -31c0 -10 -2.83301 -19.167 -8.5 -27.5s-13.167 -15.5 -22.5 -21.5s-19.833 -10.667 -31.5 -14s-23.167 -5 -34.5 -5z" />
    <glyph glyph-name="ograve" unicode="&#xf2;" horiz-adv-x="559" 
d="M515 239c0 -33.333 -4.16309 -65.332 -12.4961 -95.999s-22 -57.667 -41 -81s-43.5 -42 -73.5 -56s-66.333 -21 -109 -21s-78.834 6.83301 -108.501 20.5s-53.834 32 -72.501 55s-32.334 49.667 -41.001 80s-13 62.166 -13 95.499c0 34 5 66.167 15 96.5
s24.833 57 44.5 80s44.5 41.167 74.5 54.5s65 20 105 20c42 0 77.833 -6.66699 107.5 -20s53.667 -31.333 72 -54s31.666 -49 39.999 -79s12.5 -61.667 12.5 -95zM378.004 238.001c0 18 -1.33301 35.835 -4 53.502s-7.66699 33.167 -15 46.5s-17.333 24.166 -30 32.499
s-28.667 12.5 -48 12.5s-35.5 -4.33301 -48.5 -13s-23.333 -19.834 -31 -33.501s-13.167 -29.167 -16.5 -46.5s-5 -35 -5 -53s1.5 -36 4.5 -54s8.16699 -34.167 15.5 -48.5s17.5 -25.833 30.5 -34.5s29.167 -13 48.5 -13c20 0 36.5 4.33301 49.5 13s23.167 20.167 30.5 34.5
s12.333 30.5 15 48.5s4 36.333 4 55zM137.004 679.003c8.66699 7.33301 20.5 14.667 35.5 22s28.5 11 40.5 11c14 0 25.833 -3.16699 35.5 -9.5s19.167 -15.833 28.5 -28.5l82 -116c-6 -5.33301 -15.333 -10 -28 -14s-23.667 -6 -33 -6c-22 0 -40.667 8.66699 -56 26z" />
    <glyph glyph-name="oacute" unicode="&#xf3;" horiz-adv-x="559" 
d="M515 239c0 -33.333 -4.16309 -65.332 -12.4961 -95.999s-22 -57.667 -41 -81s-43.5 -42 -73.5 -56s-66.333 -21 -109 -21s-78.834 6.83301 -108.501 20.5s-53.834 32 -72.501 55s-32.334 49.667 -41.001 80s-13 62.166 -13 95.499c0 34 5 66.167 15 96.5
s24.833 57 44.5 80s44.5 41.167 74.5 54.5s65 20 105 20c42 0 77.833 -6.66699 107.5 -20s53.667 -31.333 72 -54s31.666 -49 39.999 -79s12.5 -61.667 12.5 -95zM378.004 238.001c0 18 -1.33301 35.835 -4 53.502s-7.66699 33.167 -15 46.5s-17.333 24.166 -30 32.499
s-28.667 12.5 -48 12.5s-35.5 -4.33301 -48.5 -13s-23.333 -19.834 -31 -33.501s-13.167 -29.167 -16.5 -46.5s-5 -35 -5 -53s1.5 -36 4.5 -54s8.16699 -34.167 15.5 -48.5s17.5 -25.833 30.5 -34.5s29.167 -13 48.5 -13c20 0 36.5 4.33301 49.5 13s23.167 20.167 30.5 34.5
s12.333 30.5 15 48.5s4 36.333 4 55zM356.004 564.003c-15.333 -17.333 -34 -26.001 -56 -26.001c-9.33301 0 -20.333 2 -33 6s-22 8.66699 -28 14l82 116c9.33301 12.667 18.833 22.167 28.5 28.5s21.5 9.5 35.5 9.5c12 0 25.5 -3.66699 40.5 -11
s26.833 -14.666 35.5 -21.999z" />
    <glyph glyph-name="ocircumflex" unicode="&#xf4;" horiz-adv-x="559" 
d="M515 239c0 -33.333 -4.16309 -65.332 -12.4961 -95.999s-22 -57.667 -41 -81s-43.5 -42 -73.5 -56s-66.333 -21 -109 -21s-78.834 6.83301 -108.501 20.5s-53.834 32 -72.501 55s-32.334 49.667 -41.001 80s-13 62.166 -13 95.499c0 34 5 66.167 15 96.5
s24.833 57 44.5 80s44.5 41.167 74.5 54.5s65 20 105 20c42 0 77.833 -6.66699 107.5 -20s53.667 -31.333 72 -54s31.666 -49 39.999 -79s12.5 -61.667 12.5 -95zM378.004 238.001c0 18 -1.33301 35.835 -4 53.502s-7.66699 33.167 -15 46.5s-17.333 24.166 -30 32.499
s-28.667 12.5 -48 12.5s-35.5 -4.33301 -48.5 -13s-23.333 -19.834 -31 -33.501s-13.167 -29.167 -16.5 -46.5s-5 -35 -5 -53s1.5 -36 4.5 -54s8.16699 -34.167 15.5 -48.5s17.5 -25.833 30.5 -34.5s29.167 -13 48.5 -13c20 0 36.5 4.33301 49.5 13s23.167 20.167 30.5 34.5
s12.333 30.5 15 48.5s4 36.333 4 55zM284.004 625.003l-59 -67.001c-7.33301 -8.66699 -15.166 -14 -23.499 -16s-16.5 -3 -24.5 -3c-8.66699 0 -18 1.33301 -28 4s-17.667 6.33398 -23 11.001l91 126c7.33301 10 17 17.333 29 22s25 7 39 7c13.333 0 26 -2 38 -6
s21.667 -11.667 29 -23l91 -128c-6.66699 -4 -14.334 -7.33301 -23.001 -10s-17 -4 -25 -4c-10.667 0 -20.5 2 -29.5 6s-18.167 11 -27.5 21z" />
    <glyph glyph-name="otilde" unicode="&#xf5;" horiz-adv-x="559" 
d="M515 239c0 -33.333 -4.16309 -65.332 -12.4961 -95.999s-22 -57.667 -41 -81s-43.5 -42 -73.5 -56s-66.333 -21 -109 -21s-78.834 6.83301 -108.501 20.5s-53.834 32 -72.501 55s-32.334 49.667 -41.001 80s-13 62.166 -13 95.499c0 34 5 66.167 15 96.5
s24.833 57 44.5 80s44.5 41.167 74.5 54.5s65 20 105 20c42 0 77.833 -6.66699 107.5 -20s53.667 -31.333 72 -54s31.666 -49 39.999 -79s12.5 -61.667 12.5 -95zM378.004 238.001c0 18 -1.33301 35.835 -4 53.502s-7.66699 33.167 -15 46.5s-17.333 24.166 -30 32.499
s-28.667 12.5 -48 12.5s-35.5 -4.33301 -48.5 -13s-23.333 -19.834 -31 -33.501s-13.167 -29.167 -16.5 -46.5s-5 -35 -5 -53s1.5 -36 4.5 -54s8.16699 -34.167 15.5 -48.5s17.5 -25.833 30.5 -34.5s29.167 -13 48.5 -13c20 0 36.5 4.33301 49.5 13s23.167 20.167 30.5 34.5
s12.333 30.5 15 48.5s4 36.333 4 55zM352.004 559.003c-16 0 -30.332 2 -42.999 6s-24.167 8.16699 -34.5 12.5l-29.5 12.5c-9.33301 4 -19 6 -29 6c-15.333 0 -28.5 -4 -39.5 -12s-21.833 -18.333 -32.5 -31c-8 6.66699 -16.167 14.5 -24.5 23.5s-12.5 18.833 -12.5 29.5
c0 9.33301 3.33301 18.333 10 27s15.167 16.167 25.5 22.5s21.833 11.333 34.5 15s25 5.5 37 5.5c14.667 0 27.667 -2 39 -6s22 -8.16699 32 -12.5l29 -12.5c9.33301 -4 19 -6 29 -6c14.667 0 27 3.5 37 10.5s20 18.167 30 33.5c7.33301 -6.66699 15.666 -15 24.999 -25
s14 -20.333 14 -31c0 -10 -2.83301 -19.167 -8.5 -27.5s-13.167 -15.5 -22.5 -21.5s-19.833 -10.667 -31.5 -14s-23.167 -5 -34.5 -5z" />
    <glyph glyph-name="odieresis" unicode="&#xf6;" horiz-adv-x="559" 
d="M515 239c0 -33.333 -4.16309 -65.332 -12.4961 -95.999s-22 -57.667 -41 -81s-43.5 -42 -73.5 -56s-66.333 -21 -109 -21s-78.834 6.83301 -108.501 20.5s-53.834 32 -72.501 55s-32.334 49.667 -41.001 80s-13 62.166 -13 95.499c0 34 5 66.167 15 96.5
s24.833 57 44.5 80s44.5 41.167 74.5 54.5s65 20 105 20c42 0 77.833 -6.66699 107.5 -20s53.667 -31.333 72 -54s31.666 -49 39.999 -79s12.5 -61.667 12.5 -95zM378.004 238.001c0 18 -1.33301 35.835 -4 53.502s-7.66699 33.167 -15 46.5s-17.333 24.166 -30 32.499
s-28.667 12.5 -48 12.5s-35.5 -4.33301 -48.5 -13s-23.333 -19.834 -31 -33.501s-13.167 -29.167 -16.5 -46.5s-5 -35 -5 -53s1.5 -36 4.5 -54s8.16699 -34.167 15.5 -48.5s17.5 -25.833 30.5 -34.5s29.167 -13 48.5 -13c20 0 36.5 4.33301 49.5 13s23.167 20.167 30.5 34.5
s12.333 30.5 15 48.5s4 36.333 4 55zM452.004 619.003c0 -19.333 -6.33203 -34.833 -18.999 -46.5s-28 -17.5 -46 -17.5c-18.667 0 -34.334 5.83301 -47.001 17.5s-19 27.167 -19 46.5c0 18.667 6.5 34 19.5 46s28.5 18 46.5 18s33.333 -6 46 -18s19 -27.333 19 -46z
M246.005 619.003c0 -19.333 -6.33203 -34.833 -18.999 -46.5s-28 -17.5 -46 -17.5c-18.667 0 -34.334 5.83301 -47.001 17.5s-19 27.167 -19 46.5c0 18.667 6.5 34 19.5 46s28.5 18 46.5 18s33.333 -6 46 -18s19 -27.333 19 -46z" />
    <glyph glyph-name="divide" unicode="&#xf7;" horiz-adv-x="549" 
d="M344 160c0 -19.333 -6.66699 -35.666 -20 -48.999s-30 -20 -50 -20s-36.667 6.66699 -50 20s-20 29.666 -20 48.999s6.66699 35.666 20 48.999s30 20 50 20s36.667 -6.66699 50 -20s20 -29.666 20 -48.999zM56 279v112h437v-112h-437zM344 509
c0 -19.333 -6.66699 -35.666 -20 -48.999s-30 -20 -50 -20s-36.667 6.66699 -50 20s-20 29.666 -20 48.999c0 20 6.66699 36.5 20 49.5s30 19.5 50 19.5s36.667 -6.5 50 -19.5s20 -29.5 20 -49.5z" />
    <glyph glyph-name="oslash" unicode="&#xf8;" horiz-adv-x="559" 
d="M515 239c0 -33.333 -4.16602 -65.332 -12.499 -95.999s-22 -57.667 -41 -81s-43.5 -42 -73.5 -56s-66.333 -21 -109 -21c-42 0 -78.333 6.66699 -109 20l-1 1l-52 -76l-59 34l55 80l-15 16c-18.667 23.333 -32.334 50 -41.001 80s-13 62 -13 96s5 66.167 15 96.5
s24.833 57 44.5 80s44.5 41.167 74.5 54.5s65 20 105 20c41.333 0 77 -6.66699 107 -20l9 -4l45 66l59 -32l-50 -73l9 -11c18.667 -22.667 32.167 -48.834 40.5 -78.501s12.5 -61.5 12.5 -95.5zM329.001 370.001c-12.667 8.66699 -28.667 13.001 -48 13.001
s-35.5 -4.33301 -48.5 -13s-23.333 -19.834 -31 -33.501s-13.167 -29.167 -16.5 -46.5s-5 -35 -5 -53c0 -9.33301 0.333008 -18.333 1 -27s1.66699 -17.667 3 -27s3.33301 -18 6 -26l143 210zM378.001 238.002c0 9.33301 -0.333984 18.332 -1.00098 26.999
s-1.66699 17.334 -3 26.001l-3 13l-139 -205c12.667 -8 28.334 -12 47.001 -12c20 0 36.5 4.33301 49.5 13s23.167 20.167 30.5 34.5s12.333 30.5 15 48.5s4 36.333 4 55z" />
    <glyph glyph-name="ugrave" unicode="&#xf9;" horiz-adv-x="561" 
d="M497 0l-91.0029 -0.00195312c-16.667 0 -27.167 4.5 -31.5 13.5s-6.5 22.167 -6.5 39.5c-11.333 -15.333 -28.666 -29.5 -51.999 -42.5s-55 -19.5 -95 -19.5c-47.333 0 -82.333 9.33301 -105 28s-37.334 43.334 -44.001 74.001c-3.33301 15.333 -5.5 32 -6.5 50
s-1.5 35.667 -1.5 53v277c1.33301 0.666992 6.66602 1.5 15.999 2.5s19.333 1.5 30 1.5s21.334 -1 32.001 -3s20.334 -5.83301 29.001 -11.5s15.667 -13.667 21 -24s8 -23.833 8 -40.5v-196c0 -15.333 0.5 -29.166 1.5 -41.499s3.66699 -23 8 -32s11.333 -16 21 -21
s23.167 -7.5 40.5 -7.5c24.667 0 45.834 5.16699 63.501 15.5s26.5 23.166 26.5 38.499v319c1.33301 0.666992 6.66602 1.5 15.999 2.5s19.333 1.5 30 1.5s21.334 -1.16699 32.001 -3.5s20.334 -6.66602 29.001 -12.999s15.667 -15 21 -26s8 -24.833 8 -41.5v-393z
M132.997 678.998c8.66699 7.33301 20.5 14.667 35.5 22s28.5 11 40.5 11c14 0 25.833 -3.16699 35.5 -9.5s19.167 -15.833 28.5 -28.5l82 -116c-6 -5.33301 -15.333 -10 -28 -14s-23.667 -6 -33 -6c-22 0 -40.667 8.66699 -56 26z" />
    <glyph glyph-name="uacute" unicode="&#xfa;" horiz-adv-x="561" 
d="M497 0l-91.0029 -0.00195312c-16.667 0 -27.167 4.5 -31.5 13.5s-6.5 22.167 -6.5 39.5c-11.333 -15.333 -28.666 -29.5 -51.999 -42.5s-55 -19.5 -95 -19.5c-47.333 0 -82.333 9.33301 -105 28s-37.334 43.334 -44.001 74.001c-3.33301 15.333 -5.5 32 -6.5 50
s-1.5 35.667 -1.5 53v277c1.33301 0.666992 6.66602 1.5 15.999 2.5s19.333 1.5 30 1.5s21.334 -1 32.001 -3s20.334 -5.83301 29.001 -11.5s15.667 -13.667 21 -24s8 -23.833 8 -40.5v-196c0 -15.333 0.5 -29.166 1.5 -41.499s3.66699 -23 8 -32s11.333 -16 21 -21
s23.167 -7.5 40.5 -7.5c24.667 0 45.834 5.16699 63.501 15.5s26.5 23.166 26.5 38.499v319c1.33301 0.666992 6.66602 1.5 15.999 2.5s19.333 1.5 30 1.5s21.334 -1.16699 32.001 -3.5s20.334 -6.66602 29.001 -12.999s15.667 -15 21 -26s8 -24.833 8 -41.5v-393z
M347.997 563.998c-15.333 -17.333 -34 -26.001 -56 -26.001c-9.33301 0 -20.333 2 -33 6s-22 8.66699 -28 14l82 116c9.33301 12.667 18.833 22.167 28.5 28.5s21.5 9.5 35.5 9.5c12 0 25.5 -3.66699 40.5 -11s26.833 -14.666 35.5 -21.999z" />
    <glyph glyph-name="ucircumflex" unicode="&#xfb;" horiz-adv-x="561" 
d="M497 0l-91.0029 -0.00195312c-16.667 0 -27.167 4.5 -31.5 13.5s-6.5 22.167 -6.5 39.5c-11.333 -15.333 -28.666 -29.5 -51.999 -42.5s-55 -19.5 -95 -19.5c-47.333 0 -82.333 9.33301 -105 28s-37.334 43.334 -44.001 74.001c-3.33301 15.333 -5.5 32 -6.5 50
s-1.5 35.667 -1.5 53v277c1.33301 0.666992 6.66602 1.5 15.999 2.5s19.333 1.5 30 1.5s21.334 -1 32.001 -3s20.334 -5.83301 29.001 -11.5s15.667 -13.667 21 -24s8 -23.833 8 -40.5v-196c0 -15.333 0.5 -29.166 1.5 -41.499s3.66699 -23 8 -32s11.333 -16 21 -21
s23.167 -7.5 40.5 -7.5c24.667 0 45.834 5.16699 63.501 15.5s26.5 23.166 26.5 38.499v319c1.33301 0.666992 6.66602 1.5 15.999 2.5s19.333 1.5 30 1.5s21.334 -1.16699 32.001 -3.5s20.334 -6.66602 29.001 -12.999s15.667 -15 21 -26s8 -24.833 8 -41.5v-393z
M279.997 624.998l-59 -67.001c-7.33301 -8.66699 -15.166 -14 -23.499 -16s-16.5 -3 -24.5 -3c-8.66699 0 -18 1.33301 -28 4s-17.667 6.33398 -23 11.001l91 126c7.33301 10 17 17.333 29 22s25 7 39 7c13.333 0 26 -2 38 -6s21.667 -11.667 29 -23l91 -128
c-6.66699 -4 -14.334 -7.33301 -23.001 -10s-17 -4 -25 -4c-10.667 0 -20.5 2 -29.5 6s-18.167 11 -27.5 21z" />
    <glyph glyph-name="udieresis" unicode="&#xfc;" horiz-adv-x="561" 
d="M497 0l-91.0029 -0.00195312c-16.667 0 -27.167 4.5 -31.5 13.5s-6.5 22.167 -6.5 39.5c-11.333 -15.333 -28.666 -29.5 -51.999 -42.5s-55 -19.5 -95 -19.5c-47.333 0 -82.333 9.33301 -105 28s-37.334 43.334 -44.001 74.001c-3.33301 15.333 -5.5 32 -6.5 50
s-1.5 35.667 -1.5 53v277c1.33301 0.666992 6.66602 1.5 15.999 2.5s19.333 1.5 30 1.5s21.334 -1 32.001 -3s20.334 -5.83301 29.001 -11.5s15.667 -13.667 21 -24s8 -23.833 8 -40.5v-196c0 -15.333 0.5 -29.166 1.5 -41.499s3.66699 -23 8 -32s11.333 -16 21 -21
s23.167 -7.5 40.5 -7.5c24.667 0 45.834 5.16699 63.501 15.5s26.5 23.166 26.5 38.499v319c1.33301 0.666992 6.66602 1.5 15.999 2.5s19.333 1.5 30 1.5s21.334 -1.16699 32.001 -3.5s20.334 -6.66602 29.001 -12.999s15.667 -15 21 -26s8 -24.833 8 -41.5v-393z
M453.997 618.998c0 -19.333 -6.33203 -34.833 -18.999 -46.5s-28 -17.5 -46 -17.5c-18.667 0 -34.334 5.83301 -47.001 17.5s-19 27.167 -19 46.5c0 18.667 6.5 34 19.5 46s28.5 18 46.5 18s33.333 -6 46 -18s19 -27.333 19 -46zM247.998 618.998
c0 -19.333 -6.33203 -34.833 -18.999 -46.5s-28 -17.5 -46 -17.5c-18.667 0 -34.334 5.83301 -47.001 17.5s-19 27.167 -19 46.5c0 18.667 6.5 34 19.5 46s28.5 18 46.5 18s33.333 -6 46 -18s19 -27.333 19 -46z" />
    <glyph glyph-name="yacute" unicode="&#xfd;" horiz-adv-x="494" 
d="M322 -82c-13.333 -44 -35.499 -79.167 -66.499 -105.5s-73.5 -39.5 -127.5 -39.5c-30 0 -54.667 4.33301 -74 13s-29 23.334 -29 44.001c0 9.33301 2.5 19.666 7.5 30.999s11.833 24 20.5 38c7.33301 -5.33301 17 -10 29 -14s24.667 -6 38 -6
c20.667 0 37.667 5.5 51 16.5s24.666 30.5 33.999 58.5l17 50h-62l-154 462c10 3.33301 22.167 6 36.5 8s27.5 3 39.5 3c18.667 0 35.167 -5 49.5 -15s24.5 -25.333 30.5 -46l90 -308l74 269c4 14 8.5 27 13.5 39s11.167 22.5 18.5 31.5s16.333 16.167 27 21.5
s23.667 8 39 8c12.667 0 24 -1.16699 34 -3.5s20 -5.5 30 -9.5zM316.001 564c-15.333 -17.333 -34 -26.001 -56 -26.001c-9.33301 0 -20.333 2 -33 6s-22 8.66699 -28 14l82 116c9.33301 12.667 18.833 22.167 28.5 28.5s21.5 9.5 35.5 9.5c12 0 25.5 -3.66699 40.5 -11
s26.833 -14.666 35.5 -21.999z" />
    <glyph glyph-name="thorn" unicode="&#xfe;" horiz-adv-x="561" 
d="M64 705c1.33301 0 7.33301 0.666992 18 2s21.667 2 33 2c10.667 0 21.167 -1 31.5 -3s19.166 -5.66699 26.499 -11s13.333 -12.833 18 -22.5s7 -22.167 7 -37.5v-204c4.66699 6 11 12.167 19 18.5s17.667 12.333 29 18s24 10.334 38 14.001s29 5.5 45 5.5
c24 0 47.333 -4.16699 70 -12.5s42.667 -21.833 60 -40.5s31.333 -43.334 42 -74.001s16 -68.334 16 -113.001c0 -50.667 -6 -92.667 -18 -126s-27.5 -59.666 -46.5 -78.999s-40.333 -33 -64 -41s-46.834 -12 -69.501 -12c-19.333 0 -36.166 2 -50.499 6
s-26.5 8.83301 -36.5 14.5s-17.667 11 -23 16s-8.66602 8.5 -9.99902 10.5v-254h-135v923zM375 244c0 20 -1.66602 38.667 -4.99902 56s-8.83301 32.333 -16.5 45s-18 22.5 -31 29.5s-28.833 10.5 -47.5 10.5c-28 0 -47.5 -5.33301 -58.5 -16s-16.5 -22.334 -16.5 -35.001
v-209c5.33301 -5.33301 14.666 -11.666 27.999 -18.999s29 -11 47 -11c34 0 59.167 12.833 75.5 38.5s24.5 62.5 24.5 110.5z" />
    <glyph glyph-name="ydieresis" unicode="&#xff;" horiz-adv-x="494" 
d="M322 -82c-13.333 -44 -35.499 -79.167 -66.499 -105.5s-73.5 -39.5 -127.5 -39.5c-30 0 -54.667 4.33301 -74 13s-29 23.334 -29 44.001c0 9.33301 2.5 19.666 7.5 30.999s11.833 24 20.5 38c7.33301 -5.33301 17 -10 29 -14s24.667 -6 38 -6
c20.667 0 37.667 5.5 51 16.5s24.666 30.5 33.999 58.5l17 50h-62l-154 462c10 3.33301 22.167 6 36.5 8s27.5 3 39.5 3c18.667 0 35.167 -5 49.5 -15s24.5 -25.333 30.5 -46l90 -308l74 269c4 14 8.5 27 13.5 39s11.167 22.5 18.5 31.5s16.333 16.167 27 21.5
s23.667 8 39 8c12.667 0 24 -1.16699 34 -3.5s20 -5.5 30 -9.5zM422.001 619c0 -19.333 -6.33203 -34.833 -18.999 -46.5s-28 -17.5 -46 -17.5c-18.667 0 -34.334 5.83301 -47.001 17.5s-19 27.167 -19 46.5c0 18.667 6.5 34 19.5 46s28.5 18 46.5 18s33.333 -6 46 -18
s19 -27.333 19 -46zM216.002 619c0 -19.333 -6.33203 -34.833 -18.999 -46.5s-28 -17.5 -46 -17.5c-18.667 0 -34.334 5.83301 -47.001 17.5s-19 27.167 -19 46.5c0 18.667 6.5 34 19.5 46s28.5 18 46.5 18s33.333 -6 46 -18s19 -27.333 19 -46z" />
    <glyph glyph-name="Amacron" unicode="&#x100;" horiz-adv-x="633" 
d="M485 0l-57.002 163.999h-231l-55 -164h-136l232 660c8 3.33301 19.167 6.5 33.5 9.5s29.833 4.5 46.5 4.5c7.33301 0 15.5 -0.666992 24.5 -2s17.833 -4.16602 26.5 -8.49902s16.834 -10.5 24.501 -18.5s13.834 -19 18.501 -33l215 -612h-142zM313.998 548.999l-91 -285
h179zM223.998 751.999c-25.333 0 -42.333 4.16797 -51 12.501s-13 21.166 -13 38.499c0 7.33301 0.166992 13.5 0.5 18.5s0.833008 11.167 1.5 18.5h241c21.333 0 38 -3 50 -9s18 -21 18 -45c0 -6 -0.166992 -11.667 -0.5 -17s-0.833008 -11 -1.5 -17h-245z" />
    <glyph glyph-name="amacron" unicode="&#x101;" horiz-adv-x="517" 
d="M453 116c0 -52 7.66309 -90.333 22.9961 -115c-12 -4.66699 -23.167 -8 -33.5 -10s-21.166 -3 -32.499 -3c-24 0 -42.167 4.66699 -54.5 14s-20.166 22.666 -23.499 39.999c-14.667 -15.333 -34 -28.333 -58 -39s-53.333 -16 -88 -16c-18 0 -36 2.5 -54 7.5
s-34.333 13.167 -49 24.5s-26.667 26.5 -36 45.5s-14 42.167 -14 69.5c0 34 8.16699 61.667 24.5 83s36.833 38.166 61.5 50.499s51.334 20.833 80.001 25.5s55 7.66699 79 9c8 0.666992 15.833 1 23.5 1h21.5v18c0 25.333 -6.83301 43.333 -20.5 54s-35.834 16 -66.501 16
c-28.667 0 -54.167 -4.66699 -76.5 -14s-44.166 -20 -65.499 -32c-9.33301 11.333 -16.833 23.833 -22.5 37.5s-8.5 23.834 -8.5 30.501c0 8.66699 5.16699 17.5 15.5 26.5s24.5 17 42.5 24s38.667 12.667 62 17s48 6.5 74 6.5c36 0 66.5 -3.66699 91.5 -11
s45.333 -18.666 61 -33.999s26.834 -34.5 33.501 -57.5s10 -49.833 10 -80.5v-188zM324.996 232l-13.999 0.00390625c-4.66699 0 -9.33398 -0.333008 -14.001 -1c-16.667 -1.33301 -33.167 -3.5 -49.5 -6.5s-30.833 -7.66699 -43.5 -14s-23 -14.833 -31 -25.5
s-12 -24.334 -12 -41.001c0 -18.667 5.33301 -34.5 16 -47.5s28.667 -19.5 54 -19.5c12.667 0 24.667 1.66699 36 5s21.333 7.66602 30 12.999s15.5 11.166 20.5 17.499s7.5 12.166 7.5 17.499v102zM165.997 568.004c-25.333 0 -42.333 4.16797 -51 12.501
s-13 21.166 -13 38.499c0 7.33301 0.166992 13.5 0.5 18.5s0.833008 11.167 1.5 18.5h241c21.333 0 38 -3 50 -9s18 -21 18 -45c0 -6 -0.166992 -11.667 -0.5 -17s-0.833008 -11 -1.5 -17h-245z" />
    <glyph glyph-name="Abreve" unicode="&#x102;" horiz-adv-x="633" 
d="M485 0l-57.002 163.999h-231l-55 -164h-136l232 660c8 3.33301 19.167 6.5 33.5 9.5s29.833 4.5 46.5 4.5c7.33301 0 15.5 -0.666992 24.5 -2s17.833 -4.16602 26.5 -8.49902s16.834 -10.5 24.501 -18.5s13.834 -19 18.501 -33l215 -612h-142zM313.998 548.999l-91 -285
h179zM478.998 873.999c-3.33301 -20 -9.16504 -38.6709 -17.498 -56.0039s-19.166 -32.666 -32.499 -45.999s-29.5 -23.833 -48.5 -31.5s-40.833 -11.5 -65.5 -11.5c-44.667 0 -81 12 -109 36s-45.333 61 -52 111c4.66699 3.33301 11.667 6.33301 21 9s18.666 4 27.999 4
s16.666 -2.16699 21.999 -6.5s10.333 -12.166 15 -23.499c7.33301 -19.333 16.833 -33.666 28.5 -42.999s28.167 -14 49.5 -14c20.667 0 36.334 4.83301 47.001 14.5s20.667 23.5 30 41.5c5.33301 10.667 10.666 18.5 15.999 23.5s12.666 7.5 21.999 7.5
c8 0 16.333 -1.66699 25 -5s15.667 -6.66602 21 -9.99902z" />
    <glyph glyph-name="abreve" unicode="&#x103;" horiz-adv-x="517" 
d="M453 116c0 -52 7.66309 -90.333 22.9961 -115c-12 -4.66699 -23.167 -8 -33.5 -10s-21.166 -3 -32.499 -3c-24 0 -42.167 4.66699 -54.5 14s-20.166 22.666 -23.499 39.999c-14.667 -15.333 -34 -28.333 -58 -39s-53.333 -16 -88 -16c-18 0 -36 2.5 -54 7.5
s-34.333 13.167 -49 24.5s-26.667 26.5 -36 45.5s-14 42.167 -14 69.5c0 34 8.16699 61.667 24.5 83s36.833 38.166 61.5 50.499s51.334 20.833 80.001 25.5s55 7.66699 79 9c8 0.666992 15.833 1 23.5 1h21.5v18c0 25.333 -6.83301 43.333 -20.5 54s-35.834 16 -66.501 16
c-28.667 0 -54.167 -4.66699 -76.5 -14s-44.166 -20 -65.499 -32c-9.33301 11.333 -16.833 23.833 -22.5 37.5s-8.5 23.834 -8.5 30.501c0 8.66699 5.16699 17.5 15.5 26.5s24.5 17 42.5 24s38.667 12.667 62 17s48 6.5 74 6.5c36 0 66.5 -3.66699 91.5 -11
s45.333 -18.666 61 -33.999s26.834 -34.5 33.501 -57.5s10 -49.833 10 -80.5v-188zM324.996 232l-13.999 0.00390625c-4.66699 0 -9.33398 -0.333008 -14.001 -1c-16.667 -1.33301 -33.167 -3.5 -49.5 -6.5s-30.833 -7.66699 -43.5 -14s-23 -14.833 -31 -25.5
s-12 -24.334 -12 -41.001c0 -18.667 5.33301 -34.5 16 -47.5s28.667 -19.5 54 -19.5c12.667 0 24.667 1.66699 36 5s21.333 7.66602 30 12.999s15.5 11.166 20.5 17.499s7.5 12.166 7.5 17.499v102zM422.997 686.004c-3.33301 -20 -9.16504 -38.6709 -17.498 -56.0039
s-19.166 -32.666 -32.499 -45.999s-29.5 -23.833 -48.5 -31.5s-40.833 -11.5 -65.5 -11.5c-44.667 0 -81 12 -109 36s-45.333 61 -52 111c4.66699 3.33301 11.667 6.33301 21 9s18.666 4 27.999 4s16.666 -2.16699 21.999 -6.5s10.333 -12.166 15 -23.499
c7.33301 -19.333 16.833 -33.666 28.5 -42.999s28.167 -14 49.5 -14c20.667 0 36.334 4.83301 47.001 14.5s20.667 23.5 30 41.5c5.33301 10.667 10.666 18.5 15.999 23.5s12.666 7.5 21.999 7.5c8 0 16.333 -1.66699 25 -5s15.667 -6.66602 21 -9.99902z" />
    <glyph glyph-name="Aogonek" unicode="&#x104;" horiz-adv-x="633" 
d="M627 0c-18.667 -4 -34.6709 -10.3369 -48.0039 -19.0039s-24.5 -18.167 -33.5 -28.5s-15.667 -21.333 -20 -33s-6.5 -22.5 -6.5 -32.5c0 -14 3.16699 -24.167 9.5 -30.5s14.5 -9.5 24.5 -9.5c10.667 0 19.834 2.66699 27.501 8s13.834 10.666 18.501 15.999
c5.33301 -5.33301 10.5 -11.666 15.5 -18.999s7.5 -15.333 7.5 -24c0 -8 -2.66699 -15.167 -8 -21.5s-12.333 -11.666 -21 -15.999s-18.167 -7.66602 -28.5 -9.99902s-20.833 -3.5 -31.5 -3.5c-32 0 -57.333 7.16699 -76 21.5s-28 37.5 -28 69.5c0 30 8.33301 56.333 25 79
s36.667 40.334 60 53.001h-29l-57 164h-231l-55 -164h-136l232 660c8 3.33301 19.167 6.5 33.5 9.5s29.833 4.5 46.5 4.5c7.33301 0 15.5 -0.666992 24.5 -2s17.833 -4.16602 26.5 -8.49902s16.834 -10.5 24.501 -18.5s13.834 -19 18.501 -33zM313.996 548.996l-91 -285h179
z" />
    <glyph glyph-name="aogonek" unicode="&#x105;" horiz-adv-x="517" 
d="M453 116c0 -52 7.66602 -90.334 22.999 -115.001c-11.333 -4 -22.166 -9.66699 -32.499 -17s-19.666 -16 -27.999 -26s-15 -21.167 -20 -33.5s-7.5 -25.166 -7.5 -38.499c0 -14 2.5 -24 7.5 -30s12.833 -9 23.5 -9c10 0 18.5 2.66699 25.5 8s12.833 10.666 17.5 15.999
c5.33301 -5.33301 10.666 -12 15.999 -20s8 -15.667 8 -23c0 -8 -2.66699 -15.167 -8 -21.5s-12.333 -11.666 -21 -15.999s-18.334 -7.66602 -29.001 -9.99902s-21 -3.5 -31 -3.5c-30 0 -54.333 7.16699 -73 21.5s-28 36.5 -28 66.5c0 29.333 8.16699 54.666 24.5 75.999
s33.833 38.666 52.5 51.999c-22.667 8 -36.334 24.333 -41.001 49c-14.667 -15.333 -34 -28.333 -58 -39s-53.333 -16 -88 -16c-18 0 -36 2.5 -54 7.5s-34.333 13.167 -49 24.5s-26.667 26.5 -36 45.5s-14 42.167 -14 69.5c0 34 8.16699 61.667 24.5 83
s36.833 38.166 61.5 50.499s51.334 20.833 80.001 25.5s55 7.66699 79 9c8 0.666992 15.833 1 23.5 1h21.5v18c0 25.333 -6.83301 43.333 -20.5 54s-35.834 16 -66.501 16c-28.667 0 -54.167 -4.66699 -76.5 -14s-44.166 -20 -65.499 -32
c-9.33301 11.333 -16.833 23.833 -22.5 37.5s-8.5 23.834 -8.5 30.501c0 8.66699 5.16699 17.5 15.5 26.5s24.5 17 42.5 24s38.667 12.667 62 17s48 6.5 74 6.5c36 0 66.5 -3.66699 91.5 -11s45.333 -18.666 61 -33.999s26.834 -34.5 33.501 -57.5s10 -49.833 10 -80.5v-188
zM324.999 231.999l-13.999 0.00390625c-4.66699 0 -9.33398 -0.333008 -14.001 -1c-16.667 -1.33301 -33.167 -3.5 -49.5 -6.5s-30.833 -7.66699 -43.5 -14s-23 -14.833 -31 -25.5s-12 -24.334 -12 -41.001c0 -18.667 5.33301 -34.5 16 -47.5s28.667 -19.5 54 -19.5
c12.667 0 24.667 1.66699 36 5s21.333 7.66602 30 12.999s15.5 11.166 20.5 17.499s7.5 12.166 7.5 17.499v102z" />
    <glyph glyph-name="Cacute" unicode="&#x106;" horiz-adv-x="607" 
d="M547 38c-4 -4 -10.502 -9.00293 -19.502 -15.0029s-21.167 -12 -36.5 -18s-33.833 -11.167 -55.5 -15.5s-46.5 -6.5 -74.5 -6.5c-54 0 -100.667 8.66699 -140 26s-71.833 41.5 -97.5 72.5s-44.5 67.667 -56.5 110s-18 88.833 -18 139.5s6.5 97.5 19.5 140.5
s32.5 80.167 58.5 111.5s58.5 55.833 97.5 73.5s84.833 26.5 137.5 26.5c26 0 49.5 -2.33301 70.5 -7s39.333 -10.167 55 -16.5s28.667 -13 39 -20s18.166 -12.833 23.499 -17.5c6 -5.33301 11.167 -11.666 15.5 -18.999s6.5 -15.333 6.5 -24
c0 -13.333 -5 -26.666 -15 -39.999s-21 -25.666 -33 -36.999c-8 8 -17 16.167 -27 24.5s-21.167 15.666 -33.5 21.999s-26.333 11.666 -42 15.999s-33.167 6.5 -52.5 6.5c-34 0 -62.5 -6.83301 -85.5 -20.5s-41.5 -31.5 -55.5 -53.5s-24 -47.167 -30 -75.5
s-9 -57.166 -9 -86.499c0 -31.333 3 -61.333 9 -90s16.333 -54 31 -76s33.834 -39.667 57.501 -53s53.167 -20 88.5 -20c18.667 0 35.834 2.33301 51.501 7s29.5 10.334 41.5 17.001s22.5 13.667 31.5 21s16.5 13.666 22.5 18.999l14 -17
c5.33301 -6.66699 10.333 -13.667 15 -21s8.66699 -14.666 12 -21.999s5 -14 5 -20c0 -8.66699 -1.66699 -16 -5 -22s-8.66602 -12.667 -15.999 -20zM386.998 741.997c-7.33301 -4.66699 -15.001 -8.50195 -23.001 -11.502s-16 -4.5 -24 -4.5
c-11.333 0 -22.666 3.83301 -33.999 11.5s-20.666 15.834 -27.999 24.501l111 90c7.33301 6 15.333 11.333 24 16s17.667 7 27 7c15.333 0 29.166 -5.66699 41.499 -17s22.833 -23.666 31.5 -36.999z" />
    <glyph glyph-name="cacute" unicode="&#x107;" horiz-adv-x="472" 
d="M303 86c14.667 0 28 1.66699 40 5s22.667 7.5 32 12.5s17.333 10.333 24 16s11.667 10.5 15 14.5c4 -4 8 -9.16699 12 -15.5s7.66699 -13 11 -20s6 -13.833 8 -20.5s3 -12.667 3 -18c0 -6.66699 -1.33301 -13.167 -4 -19.5s-8.33398 -12.833 -17.001 -19.5
c-12.667 -9.33301 -30.667 -18 -54 -26s-53 -12 -89 -12c-24 0 -50 3.33301 -78 10s-54 19.334 -78 38.001s-44 44.5 -60 77.5s-24 76.167 -24 129.5c0 50.667 8.33301 92 25 124s37.334 57.333 62.001 76s50.834 31.5 78.501 38.5s52.5 10.5 74.5 10.5
c28 0 53.5 -3 76.5 -9s42.167 -14 57.5 -24c12.667 -8 21.5 -15.667 26.5 -23s7.5 -16 7.5 -26c0 -9.33301 -3 -20.833 -9 -34.5s-13.667 -26.167 -23 -37.5c-10.667 11.333 -26.334 22.666 -47.001 33.999s-43.667 17 -69 17c-44 0 -75.333 -13.5 -94 -40.5
s-28 -61.5 -28 -103.5c0 -21.333 2 -41.333 6 -60s10.833 -35 20.5 -49s22.167 -25 37.5 -33s34.333 -12 57 -12zM337 564c-15.333 -17.333 -34 -26.001 -56 -26.001c-9.33301 0 -20.333 2 -33 6s-22 8.66699 -28 14l82 116c9.33301 12.667 18.833 22.167 28.5 28.5
s21.5 9.5 35.5 9.5c12 0 25.5 -3.66699 40.5 -11s26.833 -14.666 35.5 -21.999z" />
    <glyph glyph-name="Ccircumflex" unicode="&#x108;" horiz-adv-x="607" 
d="M547 38c-4 -4 -10.502 -9.00293 -19.502 -15.0029s-21.167 -12 -36.5 -18s-33.833 -11.167 -55.5 -15.5s-46.5 -6.5 -74.5 -6.5c-54 0 -100.667 8.66699 -140 26s-71.833 41.5 -97.5 72.5s-44.5 67.667 -56.5 110s-18 88.833 -18 139.5s6.5 97.5 19.5 140.5
s32.5 80.167 58.5 111.5s58.5 55.833 97.5 73.5s84.833 26.5 137.5 26.5c26 0 49.5 -2.33301 70.5 -7s39.333 -10.167 55 -16.5s28.667 -13 39 -20s18.166 -12.833 23.499 -17.5c6 -5.33301 11.167 -11.666 15.5 -18.999s6.5 -15.333 6.5 -24
c0 -13.333 -5 -26.666 -15 -39.999s-21 -25.666 -33 -36.999c-8 8 -17 16.167 -27 24.5s-21.167 15.666 -33.5 21.999s-26.333 11.666 -42 15.999s-33.167 6.5 -52.5 6.5c-34 0 -62.5 -6.83301 -85.5 -20.5s-41.5 -31.5 -55.5 -53.5s-24 -47.167 -30 -75.5
s-9 -57.166 -9 -86.499c0 -31.333 3 -61.333 9 -90s16.333 -54 31 -76s33.834 -39.667 57.501 -53s53.167 -20 88.5 -20c18.667 0 35.834 2.33301 51.501 7s29.5 10.334 41.5 17.001s22.5 13.667 31.5 21s16.5 13.666 22.5 18.999l14 -17
c5.33301 -6.66699 10.333 -13.667 15 -21s8.66699 -14.666 12 -21.999s5 -14 5 -20c0 -8.66699 -1.66699 -16 -5 -22s-8.66602 -12.667 -15.999 -20zM350.998 795.997l-52.999 -52.001c-8 -7.33301 -16.167 -12.333 -24.5 -15s-16.5 -4 -24.5 -4
c-8.66699 0 -17.834 1.33301 -27.501 4s-17.167 6.33398 -22.5 11.001l87 108c16 19.333 37.667 29 65 29c25.333 0 46.666 -9.66699 63.999 -29l88 -110c-6.66699 -4 -14.5 -7.33301 -23.5 -10s-17.5 -4 -25.5 -4c-10.667 0 -20.167 1.5 -28.5 4.5
s-17.166 9.16699 -26.499 18.5z" />
    <glyph glyph-name="ccircumflex" unicode="&#x109;" horiz-adv-x="472" 
d="M303 86c14.667 0 28 1.66699 40 5s22.667 7.5 32 12.5s17.333 10.333 24 16s11.667 10.5 15 14.5c4 -4 8 -9.16699 12 -15.5s7.66699 -13 11 -20s6 -13.833 8 -20.5s3 -12.667 3 -18c0 -6.66699 -1.33301 -13.167 -4 -19.5s-8.33398 -12.833 -17.001 -19.5
c-12.667 -9.33301 -30.667 -18 -54 -26s-53 -12 -89 -12c-24 0 -50 3.33301 -78 10s-54 19.334 -78 38.001s-44 44.5 -60 77.5s-24 76.167 -24 129.5c0 50.667 8.33301 92 25 124s37.334 57.333 62.001 76s50.834 31.5 78.501 38.5s52.5 10.5 74.5 10.5
c28 0 53.5 -3 76.5 -9s42.167 -14 57.5 -24c12.667 -8 21.5 -15.667 26.5 -23s7.5 -16 7.5 -26c0 -9.33301 -3 -20.833 -9 -34.5s-13.667 -26.167 -23 -37.5c-10.667 11.333 -26.334 22.666 -47.001 33.999s-43.667 17 -69 17c-44 0 -75.333 -13.5 -94 -40.5
s-28 -61.5 -28 -103.5c0 -21.333 2 -41.333 6 -60s10.833 -35 20.5 -49s22.167 -25 37.5 -33s34.333 -12 57 -12zM276 625l-59 -67.001c-7.33301 -8.66699 -15.166 -14 -23.499 -16s-16.5 -3 -24.5 -3c-8.66699 0 -18 1.33301 -28 4s-17.667 6.33398 -23 11.001l91 126
c7.33301 10 17 17.333 29 22s25 7 39 7c13.333 0 26 -2 38 -6s21.667 -11.667 29 -23l91 -128c-6.66699 -4 -14.334 -7.33301 -23.001 -10s-17 -4 -25 -4c-10.667 0 -20.5 2 -29.5 6s-18.167 11 -27.5 21z" />
    <glyph glyph-name="Cdotaccent" unicode="&#x10a;" horiz-adv-x="607" 
d="M547 38c-4 -4 -10.502 -9.00293 -19.502 -15.0029s-21.167 -12 -36.5 -18s-33.833 -11.167 -55.5 -15.5s-46.5 -6.5 -74.5 -6.5c-54 0 -100.667 8.66699 -140 26s-71.833 41.5 -97.5 72.5s-44.5 67.667 -56.5 110s-18 88.833 -18 139.5s6.5 97.5 19.5 140.5
s32.5 80.167 58.5 111.5s58.5 55.833 97.5 73.5s84.833 26.5 137.5 26.5c26 0 49.5 -2.33301 70.5 -7s39.333 -10.167 55 -16.5s28.667 -13 39 -20s18.166 -12.833 23.499 -17.5c6 -5.33301 11.167 -11.666 15.5 -18.999s6.5 -15.333 6.5 -24
c0 -13.333 -5 -26.666 -15 -39.999s-21 -25.666 -33 -36.999c-8 8 -17 16.167 -27 24.5s-21.167 15.666 -33.5 21.999s-26.333 11.666 -42 15.999s-33.167 6.5 -52.5 6.5c-34 0 -62.5 -6.83301 -85.5 -20.5s-41.5 -31.5 -55.5 -53.5s-24 -47.167 -30 -75.5
s-9 -57.166 -9 -86.499c0 -31.333 3 -61.333 9 -90s16.333 -54 31 -76s33.834 -39.667 57.501 -53s53.167 -20 88.5 -20c18.667 0 35.834 2.33301 51.501 7s29.5 10.334 41.5 17.001s22.5 13.667 31.5 21s16.5 13.666 22.5 18.999l14 -17
c5.33301 -6.66699 10.333 -13.667 15 -21s8.66699 -14.666 12 -21.999s5 -14 5 -20c0 -8.66699 -1.66699 -16 -5 -22s-8.66602 -12.667 -15.999 -20zM424.998 796.997c0 -20 -6.5 -36.167 -19.5 -48.5s-29.167 -18.5 -48.5 -18.5s-35.666 6.16699 -48.999 18.5
s-20 28.5 -20 48.5s6.66699 36.5 20 49.5s29.666 19.5 48.999 19.5s35.5 -6.5 48.5 -19.5s19.5 -29.5 19.5 -49.5z" />
    <glyph glyph-name="cdotaccent" unicode="&#x10b;" horiz-adv-x="472" 
d="M303 86c14.667 0 28 1.66699 40 5s22.667 7.5 32 12.5s17.333 10.333 24 16s11.667 10.5 15 14.5c4 -4 8 -9.16699 12 -15.5s7.66699 -13 11 -20s6 -13.833 8 -20.5s3 -12.667 3 -18c0 -6.66699 -1.33301 -13.167 -4 -19.5s-8.33398 -12.833 -17.001 -19.5
c-12.667 -9.33301 -30.667 -18 -54 -26s-53 -12 -89 -12c-24 0 -50 3.33301 -78 10s-54 19.334 -78 38.001s-44 44.5 -60 77.5s-24 76.167 -24 129.5c0 50.667 8.33301 92 25 124s37.334 57.333 62.001 76s50.834 31.5 78.501 38.5s52.5 10.5 74.5 10.5
c28 0 53.5 -3 76.5 -9s42.167 -14 57.5 -24c12.667 -8 21.5 -15.667 26.5 -23s7.5 -16 7.5 -26c0 -9.33301 -3 -20.833 -9 -34.5s-13.667 -26.167 -23 -37.5c-10.667 11.333 -26.334 22.666 -47.001 33.999s-43.667 17 -69 17c-44 0 -75.333 -13.5 -94 -40.5
s-28 -61.5 -28 -103.5c0 -21.333 2 -41.333 6 -60s10.833 -35 20.5 -49s22.167 -25 37.5 -33s34.333 -12 57 -12zM359 622c0 -20.667 -6.5 -37.167 -19.5 -49.5s-29.167 -18.5 -48.5 -18.5s-35.666 6.16699 -48.999 18.5s-20 28.833 -20 49.5c0 20 6.66699 36.333 20 49
s29.666 19 48.999 19s35.5 -6.33301 48.5 -19s19.5 -29 19.5 -49z" />
    <glyph glyph-name="Ccaron" unicode="&#x10c;" horiz-adv-x="607" 
d="M547 38c-4 -4 -10.502 -9.00293 -19.502 -15.0029s-21.167 -12 -36.5 -18s-33.833 -11.167 -55.5 -15.5s-46.5 -6.5 -74.5 -6.5c-54 0 -100.667 8.66699 -140 26s-71.833 41.5 -97.5 72.5s-44.5 67.667 -56.5 110s-18 88.833 -18 139.5s6.5 97.5 19.5 140.5
s32.5 80.167 58.5 111.5s58.5 55.833 97.5 73.5s84.833 26.5 137.5 26.5c26 0 49.5 -2.33301 70.5 -7s39.333 -10.167 55 -16.5s28.667 -13 39 -20s18.166 -12.833 23.499 -17.5c6 -5.33301 11.167 -11.666 15.5 -18.999s6.5 -15.333 6.5 -24
c0 -13.333 -5 -26.666 -15 -39.999s-21 -25.666 -33 -36.999c-8 8 -17 16.167 -27 24.5s-21.167 15.666 -33.5 21.999s-26.333 11.666 -42 15.999s-33.167 6.5 -52.5 6.5c-34 0 -62.5 -6.83301 -85.5 -20.5s-41.5 -31.5 -55.5 -53.5s-24 -47.167 -30 -75.5
s-9 -57.166 -9 -86.499c0 -31.333 3 -61.333 9 -90s16.333 -54 31 -76s33.834 -39.667 57.501 -53s53.167 -20 88.5 -20c18.667 0 35.834 2.33301 51.501 7s29.5 10.334 41.5 17.001s22.5 13.667 31.5 21s16.5 13.666 22.5 18.999l14 -17
c5.33301 -6.66699 10.333 -13.667 15 -21s8.66699 -14.666 12 -21.999s5 -14 5 -20c0 -8.66699 -1.66699 -16 -5 -22s-8.66602 -12.667 -15.999 -20zM402.998 853.997c9.33301 9.33301 18.165 15.499 26.498 18.499s17.833 4.5 28.5 4.5c8 0 16.5 -1.33301 25.5 -4
s16.833 -6 23.5 -10l-88 -110c-17.333 -19.333 -38.666 -29 -63.999 -29c-27.333 0 -49 9.66699 -65 29l-87 108c5.33301 4.66699 12.833 8.33398 22.5 11.001s18.834 4 27.501 4c8 0 16.167 -1.33301 24.5 -4s16.5 -7.66699 24.5 -15l53 -52z" />
    <glyph glyph-name="ccaron" unicode="&#x10d;" horiz-adv-x="472" 
d="M303 86c14.667 0 28 1.66699 40 5s22.667 7.5 32 12.5s17.333 10.333 24 16s11.667 10.5 15 14.5c4 -4 8 -9.16699 12 -15.5s7.66699 -13 11 -20s6 -13.833 8 -20.5s3 -12.667 3 -18c0 -6.66699 -1.33301 -13.167 -4 -19.5s-8.33398 -12.833 -17.001 -19.5
c-12.667 -9.33301 -30.667 -18 -54 -26s-53 -12 -89 -12c-24 0 -50 3.33301 -78 10s-54 19.334 -78 38.001s-44 44.5 -60 77.5s-24 76.167 -24 129.5c0 50.667 8.33301 92 25 124s37.334 57.333 62.001 76s50.834 31.5 78.501 38.5s52.5 10.5 74.5 10.5
c28 0 53.5 -3 76.5 -9s42.167 -14 57.5 -24c12.667 -8 21.5 -15.667 26.5 -23s7.5 -16 7.5 -26c0 -9.33301 -3 -20.833 -9 -34.5s-13.667 -26.167 -23 -37.5c-10.667 11.333 -26.334 22.666 -47.001 33.999s-43.667 17 -69 17c-44 0 -75.333 -13.5 -94 -40.5
s-28 -61.5 -28 -103.5c0 -21.333 2 -41.333 6 -60s10.833 -35 20.5 -49s22.167 -25 37.5 -33s34.333 -12 57 -12zM341 682c9.33301 10 18.5 16.999 27.5 20.999s18.833 6 29.5 6c8 0 16.333 -1.33301 25 -4s16.334 -6 23.001 -10l-91 -128c-7.33301 -11.333 -17 -19 -29 -23
s-24.667 -6 -38 -6c-14 0 -27 2.33301 -39 7s-21.667 12 -29 22l-91 126c5.33301 4.66699 13 8.33398 23 11.001s19.333 4 28 4c8 0 16.167 -1 24.5 -3s16.166 -7.33301 23.499 -16l59 -67z" />
    <glyph glyph-name="Dcaron" unicode="&#x10e;" horiz-adv-x="643" 
d="M601 346c0 -47.333 -6.33301 -92 -19 -134s-32 -78.667 -58 -110s-59.167 -56.166 -99.5 -74.499s-87.833 -27.5 -142.5 -27.5h-213v664c42.667 5.33301 79.167 8.66602 109.5 9.99902s56.5 2 78.5 2c66.667 0 122 -8.83301 166 -26.5s79.167 -41.5 105.5 -71.5
s45 -65 56 -105s16.5 -82.333 16.5 -127zM461 344c0 31.333 -3 60.6689 -9 88.002s-16.333 51.166 -31 71.499s-34.5 36.333 -59.5 48s-56.5 17.5 -94.5 17.5c-19.333 0 -39.333 -1 -60 -3v-461h55c39.333 0 71.833 5.83301 97.5 17.5s46 28 61 49s25.5 46.167 31.5 75.5
s9 61.666 9 96.999zM336 854.003c9.33301 9.33301 18.165 15.499 26.498 18.499s17.833 4.5 28.5 4.5c8 0 16.5 -1.33301 25.5 -4s16.833 -6 23.5 -10l-88 -110c-17.333 -19.333 -38.666 -29 -63.999 -29c-27.333 0 -49 9.66699 -65 29l-87 108
c5.33301 4.66699 12.833 8.33398 22.5 11.001s18.834 4 27.501 4c8 0 16.167 -1.33301 24.5 -4s16.5 -7.66699 24.5 -15l53 -52z" />
    <glyph glyph-name="dcaron" unicode="&#x10f;" horiz-adv-x="594" 
d="M406 0c-11.333 0 -20.3311 3.83301 -26.998 11.5s-10 17.5 -10 29.5c-9.33301 -11.333 -25.166 -23 -47.499 -35s-50.833 -18 -85.5 -18c-24.667 0 -48.5 4 -71.5 12s-43.5 21.333 -61.5 40s-32.333 43.5 -43 74.5s-16 69.5 -16 115.5s5.5 85.333 16.5 118
s25.667 59.167 44 79.5s39.333 35.333 63 45s48.5 14.5 74.5 14.5c30 0 54.667 -5.16699 74 -15.5s33.666 -20.5 42.999 -30.5v264c1.33301 0.666992 6.66602 1.5 15.999 2.5s19.333 1.5 30 1.5s21.5 -1 32.5 -3s20.667 -6 29 -12s15.166 -14.167 20.499 -24.5
s8 -23.833 8 -40.5v-629h-89zM184.002 237c0 -23.333 1.66797 -44.5 5.00098 -63.5s9 -35.167 17 -48.5s18.667 -23.666 32 -30.999s30.333 -11 51 -11c19.333 0 35.833 4 49.5 12s20.5 19.333 20.5 34v225c-5.33301 5.33301 -14.5 11.666 -27.5 18.999s-28.167 11 -45.5 11
c-34.667 0 -60.334 -12.5 -77.001 -37.5s-25 -61.5 -25 -109.5zM655.003 547c-2 -22 -9.16602 -37.833 -21.499 -47.5s-29.166 -14.5 -50.499 -14.5h-9c-2.66699 0 -5.66699 0.333008 -9 1v141c0 25.333 5.66699 45.333 17 60s30.333 22 57 22
c5.33301 0 11.166 -0.166992 17.499 -0.5s11.166 -0.833008 14.499 -1.5z" />
    <glyph glyph-name="Dcroat" unicode="&#x110;" horiz-adv-x="651" 
d="M609 346c0 -47.333 -5.83496 -92 -17.502 -134s-30.167 -78.667 -55.5 -110s-57.666 -56.166 -96.999 -74.499s-86.666 -27.5 -141.999 -27.5h-220v300h-62v88h62v276c42.667 5.33301 79.167 8.66602 109.5 9.99902s56.5 2 78.5 2c68.667 0 125.167 -8.83301 169.5 -26.5
s79.5 -41.5 105.5 -71.5s44 -65 54 -105s15 -82.333 15 -127zM468.998 344c0 31.333 -2.83203 60.832 -8.49902 88.499s-15.834 51.667 -30.501 72s-34.5 36.5 -59.5 48.5s-56.833 18 -95.5 18c-19.333 0 -39.333 -1 -60 -3v-180h134v-88h-134v-195h39
c41.333 0 75.833 6.33301 103.5 19s49.667 29.834 66 51.501s28 47 35 76s10.5 59.833 10.5 92.5z" />
    <glyph glyph-name="dcroat" unicode="&#x111;" horiz-adv-x="559" 
d="M406 0c-11.333 0 -20.3311 3.83496 -26.998 11.502s-10 17.5 -10 29.5c-9.33301 -11.333 -25.166 -23 -47.499 -35s-50.833 -18 -85.5 -18c-24.667 0 -48.5 4 -71.5 12s-43.5 21.167 -61.5 39.5s-32.333 42.166 -43 71.499s-16 65.666 -16 108.999
c0 46 5.5 84.667 16.5 116s25.667 56.833 44 76.5s39.333 33.667 63 42s48.5 12.5 74.5 12.5c30 0 54.667 -5.16699 74 -15.5s33.666 -20.5 42.999 -30.5v117h-171v88h171v79c1.33301 0.666992 6.66602 1.5 15.999 2.5s19.333 1.5 30 1.5s21.5 -1 32.5 -3s20.667 -6 29 -12
s15.166 -14.5 20.499 -25.5s8 -25.167 8 -42.5h63v-88h-63v-538h-89zM184.002 229.002c0 -20 1.66797 -38.832 5.00098 -56.499s9 -33.167 17 -46.5s18.667 -23.833 32 -31.5s30.333 -11.5 51 -11.5c19.333 0 35.833 4 49.5 12s20.5 19.333 20.5 34v205
c-5.33301 5.33301 -14.5 11.666 -27.5 18.999s-28.167 11 -45.5 11c-34.667 0 -60.334 -10.5 -77.001 -31.5s-25 -55.5 -25 -103.5z" />
    <glyph glyph-name="Emacron" unicode="&#x112;" horiz-adv-x="525" 
d="M421 106c32 0 53.834 -7.33301 65.501 -22s17.5 -31 17.5 -49c0 -7.33301 -0.166992 -13.5 -0.5 -18.5s-0.833008 -10.5 -1.5 -16.5h-433v670h417c1.33301 -7.33301 2.16602 -13.5 2.49902 -18.5s0.5 -11.167 0.5 -18.5c0 -23.333 -6 -40.833 -18 -52.5
s-34.333 -17.5 -67 -17.5h-197v-165h212v-107h-212v-185h214zM181.001 752c-25.333 0 -42.333 4.16797 -51 12.501s-13 21.166 -13 38.499c0 7.33301 0.166992 13.5 0.5 18.5s0.833008 11.167 1.5 18.5h241c21.333 0 38 -3 50 -9s18 -21 18 -45
c0 -6 -0.166992 -11.667 -0.5 -17s-0.833008 -11 -1.5 -17h-245z" />
    <glyph glyph-name="emacron" unicode="&#x113;" horiz-adv-x="514" 
d="M310 85c16.667 0 31.335 1.83594 44.002 5.50293s24 8.16699 34 13.5s18.667 11.166 26 17.499l20 17.5c8 -10 16.333 -22.833 25 -38.5s13 -28.5 13 -38.5c0 -14.667 -8.33301 -28 -25 -40c-14 -10.667 -33.833 -19.834 -59.5 -27.501s-55.834 -11.5 -90.501 -11.5
c-31.333 0 -62.166 4 -92.499 12s-57.333 22 -81 42s-42.834 46.833 -57.501 80.5s-22 76.167 -22 127.5c0 42 6.5 78.167 19.5 108.5s30.333 55.5 52 75.5s46.167 34.667 73.5 44s55.333 14 84 14c37.333 0 69 -5.83301 95 -17.5s47.167 -27.334 63.5 -47.001
s28.166 -42.167 35.499 -67.5s11 -52 11 -80v-14c0 -5.33301 -0.166992 -11 -0.5 -17l-1 -17.5c-0.333008 -5.66699 -0.833008 -10.167 -1.5 -13.5h-294c2.66699 -36.667 14 -67.167 34 -91.5s51.667 -36.5 95 -36.5zM355.001 288.003c0 32 -6.16699 58 -18.5 78
s-34.5 30 -66.5 30c-28 0 -50 -9.5 -66 -28.5s-24 -45.5 -24 -79.5h175zM185.001 568.003c-25.333 0 -42.333 4.16797 -51 12.501s-13 21.166 -13 38.499c0 7.33301 0.166992 13.5 0.5 18.5s0.833008 11.167 1.5 18.5h241c21.333 0 38 -3 50 -9s18 -21 18 -45
c0 -6 -0.166992 -11.667 -0.5 -17s-0.833008 -11 -1.5 -17h-245z" />
    <glyph glyph-name="Ebreve" unicode="&#x114;" horiz-adv-x="525" 
d="M421 106c32 0 53.834 -7.33301 65.501 -22s17.5 -31 17.5 -49c0 -7.33301 -0.166992 -13.5 -0.5 -18.5s-0.833008 -10.5 -1.5 -16.5h-433v670h417c1.33301 -7.33301 2.16602 -13.5 2.49902 -18.5s0.5 -11.167 0.5 -18.5c0 -23.333 -6 -40.833 -18 -52.5
s-34.333 -17.5 -67 -17.5h-197v-165h212v-107h-212v-185h214zM438.001 874c-3.33301 -20 -9.16504 -38.6709 -17.498 -56.0039s-19.166 -32.666 -32.499 -45.999s-29.5 -23.833 -48.5 -31.5s-40.833 -11.5 -65.5 -11.5c-44.667 0 -81 12 -109 36s-45.333 61 -52 111
c4.66699 3.33301 11.667 6.33301 21 9s18.666 4 27.999 4s16.666 -2.16699 21.999 -6.5s10.333 -12.166 15 -23.499c7.33301 -19.333 16.833 -33.666 28.5 -42.999s28.167 -14 49.5 -14c20.667 0 36.334 4.83301 47.001 14.5s20.667 23.5 30 41.5
c5.33301 10.667 10.666 18.5 15.999 23.5s12.666 7.5 21.999 7.5c8 0 16.333 -1.66699 25 -5s15.667 -6.66602 21 -9.99902z" />
    <glyph glyph-name="ebreve" unicode="&#x115;" horiz-adv-x="514" 
d="M310 85c16.667 0 31.335 1.83594 44.002 5.50293s24 8.16699 34 13.5s18.667 11.166 26 17.499l20 17.5c8 -10 16.333 -22.833 25 -38.5s13 -28.5 13 -38.5c0 -14.667 -8.33301 -28 -25 -40c-14 -10.667 -33.833 -19.834 -59.5 -27.501s-55.834 -11.5 -90.501 -11.5
c-31.333 0 -62.166 4 -92.499 12s-57.333 22 -81 42s-42.834 46.833 -57.501 80.5s-22 76.167 -22 127.5c0 42 6.5 78.167 19.5 108.5s30.333 55.5 52 75.5s46.167 34.667 73.5 44s55.333 14 84 14c37.333 0 69 -5.83301 95 -17.5s47.167 -27.334 63.5 -47.001
s28.166 -42.167 35.499 -67.5s11 -52 11 -80v-14c0 -5.33301 -0.166992 -11 -0.5 -17l-1 -17.5c-0.333008 -5.66699 -0.833008 -10.167 -1.5 -13.5h-294c2.66699 -36.667 14 -67.167 34 -91.5s51.667 -36.5 95 -36.5zM355.001 288.003c0 32 -6.16699 58 -18.5 78
s-34.5 30 -66.5 30c-28 0 -50 -9.5 -66 -28.5s-24 -45.5 -24 -79.5h175zM435.001 686.003c-3.33301 -20 -9.16504 -38.6709 -17.498 -56.0039s-19.166 -32.666 -32.499 -45.999s-29.5 -23.833 -48.5 -31.5s-40.833 -11.5 -65.5 -11.5c-44.667 0 -81 12 -109 36
s-45.333 61 -52 111c4.66699 3.33301 11.667 6.33301 21 9s18.666 4 27.999 4s16.666 -2.16699 21.999 -6.5s10.333 -12.166 15 -23.499c7.33301 -19.333 16.833 -33.666 28.5 -42.999s28.167 -14 49.5 -14c20.667 0 36.334 4.83301 47.001 14.5s20.667 23.5 30 41.5
c5.33301 10.667 10.666 18.5 15.999 23.5s12.666 7.5 21.999 7.5c8 0 16.333 -1.66699 25 -5s15.667 -6.66602 21 -9.99902z" />
    <glyph glyph-name="Edotaccent" unicode="&#x116;" horiz-adv-x="525" 
d="M421 106c32 0 53.834 -7.33301 65.501 -22s17.5 -31 17.5 -49c0 -7.33301 -0.166992 -13.5 -0.5 -18.5s-0.833008 -10.5 -1.5 -16.5h-433v670h417c1.33301 -7.33301 2.16602 -13.5 2.49902 -18.5s0.5 -11.167 0.5 -18.5c0 -23.333 -6 -40.833 -18 -52.5
s-34.333 -17.5 -67 -17.5h-197v-165h212v-107h-212v-185h214zM353.001 797c0 -20 -6.5 -36.167 -19.5 -48.5s-29.167 -18.5 -48.5 -18.5s-35.666 6.16699 -48.999 18.5s-20 28.5 -20 48.5s6.66699 36.5 20 49.5s29.666 19.5 48.999 19.5s35.5 -6.5 48.5 -19.5
s19.5 -29.5 19.5 -49.5z" />
    <glyph glyph-name="edotaccent" unicode="&#x117;" horiz-adv-x="514" 
d="M310 85c16.667 0 31.335 1.83594 44.002 5.50293s24 8.16699 34 13.5s18.667 11.166 26 17.499l20 17.5c8 -10 16.333 -22.833 25 -38.5s13 -28.5 13 -38.5c0 -14.667 -8.33301 -28 -25 -40c-14 -10.667 -33.833 -19.834 -59.5 -27.501s-55.834 -11.5 -90.501 -11.5
c-31.333 0 -62.166 4 -92.499 12s-57.333 22 -81 42s-42.834 46.833 -57.501 80.5s-22 76.167 -22 127.5c0 42 6.5 78.167 19.5 108.5s30.333 55.5 52 75.5s46.167 34.667 73.5 44s55.333 14 84 14c37.333 0 69 -5.83301 95 -17.5s47.167 -27.334 63.5 -47.001
s28.166 -42.167 35.499 -67.5s11 -52 11 -80v-14c0 -5.33301 -0.166992 -11 -0.5 -17l-1 -17.5c-0.333008 -5.66699 -0.833008 -10.167 -1.5 -13.5h-294c2.66699 -36.667 14 -67.167 34 -91.5s51.667 -36.5 95 -36.5zM355.001 288.003c0 32 -6.16699 58 -18.5 78
s-34.5 30 -66.5 30c-28 0 -50 -9.5 -66 -28.5s-24 -45.5 -24 -79.5h175zM344.001 622.003c0 -20.667 -6.5 -37.167 -19.5 -49.5s-29.167 -18.5 -48.5 -18.5s-35.666 6.16699 -48.999 18.5s-20 28.833 -20 49.5c0 20 6.66699 36.333 20 49s29.666 19 48.999 19
s35.5 -6.33301 48.5 -19s19.5 -29 19.5 -49z" />
    <glyph glyph-name="Eogonek" unicode="&#x118;" horiz-adv-x="525" 
d="M421 106c32 0 53.8359 -7.33301 65.5029 -22s17.5 -31 17.5 -49c0 -7.33301 -0.166992 -13.5 -0.5 -18.5s-0.833008 -10.5 -1.5 -16.5c-15.333 -4.66699 -29.5 -11.167 -42.5 -19.5s-24.333 -17.833 -34 -28.5s-17.167 -22 -22.5 -34s-8 -23.333 -8 -34
c0 -24.667 10.333 -37 31 -37c10 0 18.667 3 26 9s13.333 11.667 18 17c5.33301 -5.33301 10.666 -12.333 15.999 -21s8 -17 8 -25s-2.66699 -15 -8 -21s-12.333 -11.167 -21 -15.5s-18.334 -7.66602 -29.001 -9.99902s-21 -3.5 -31 -3.5c-30 0 -54.333 7 -73 21
s-28 36 -28 66c0 30.667 8.5 57.667 25.5 81s37.5 41.666 61.5 54.999h-322v670h417c1.33301 -7.33301 2.16602 -13.5 2.49902 -18.5s0.5 -11.167 0.5 -18.5c0 -23.333 -6 -40.833 -18 -52.5s-34.333 -17.5 -67 -17.5h-197v-165h212v-107h-212v-185h214z" />
    <glyph glyph-name="eogonek" unicode="&#x119;" horiz-adv-x="514" 
d="M310 85c16.667 0 31.334 1.83301 44.001 5.5s24 8.16699 34 13.5s18.667 11.166 26 17.499l20 17.5c8 -10 16.333 -22.833 25 -38.5s13 -28.5 13 -38.5c0 -16 -8.33301 -29.333 -25 -40c-12 -8 -24.333 -16.667 -37 -26s-24 -19.5 -34 -30.5s-18.333 -23.333 -25 -37
s-10 -28.834 -10 -45.501c0 -24 11 -36 33 -36c10 0 18.833 2.83301 26.5 8.5s13.834 11.167 18.501 16.5c5.33301 -5.33301 10.5 -12 15.5 -20s7.5 -16 7.5 -24s-2.83301 -15.167 -8.5 -21.5s-12.834 -11.666 -21.501 -15.999s-18.167 -7.66602 -28.5 -9.99902
s-20.5 -3.5 -30.5 -3.5c-30 0 -54.5 7 -73.5 21s-28.5 36.333 -28.5 67c0 24.667 6.33301 47.167 19 67.5s27 37.5 43 51.5c-40 0 -76.5 4.83301 -109.5 14.5s-61.333 24.834 -85 45.501s-42 47.5 -55 80.5s-19.5 73.167 -19.5 120.5c0 42 6.5 78.167 19.5 108.5
s30.333 55.5 52 75.5s46.167 34.667 73.5 44s55.333 14 84 14c37.333 0 69 -5.83301 95 -17.5s47.167 -27.334 63.5 -47.001s28.166 -42.167 35.499 -67.5s11 -52 11 -80v-14c0 -5.33301 -0.166992 -11 -0.5 -17l-1 -17.5c-0.333008 -5.66699 -0.833008 -10.167 -1.5 -13.5
h-294c2.66699 -36.667 14 -67.167 34 -91.5s51.667 -36.5 95 -36.5zM355 288c0 32 -6.16699 58 -18.5 78s-34.5 30 -66.5 30c-28 0 -50 -9.5 -66 -28.5s-24 -45.5 -24 -79.5h175z" />
    <glyph glyph-name="Ecaron" unicode="&#x11a;" horiz-adv-x="525" 
d="M421 106c32 0 53.834 -7.33301 65.501 -22s17.5 -31 17.5 -49c0 -7.33301 -0.166992 -13.5 -0.5 -18.5s-0.833008 -10.5 -1.5 -16.5h-433v670h417c1.33301 -7.33301 2.16602 -13.5 2.49902 -18.5s0.5 -11.167 0.5 -18.5c0 -23.333 -6 -40.833 -18 -52.5
s-34.333 -17.5 -67 -17.5h-197v-165h212v-107h-212v-185h214zM324.001 854c9.33301 9.33301 18.165 15.499 26.498 18.499s17.833 4.5 28.5 4.5c8 0 16.5 -1.33301 25.5 -4s16.833 -6 23.5 -10l-88 -110c-17.333 -19.333 -38.666 -29 -63.999 -29
c-27.333 0 -49 9.66699 -65 29l-87 108c5.33301 4.66699 12.833 8.33398 22.5 11.001s18.834 4 27.501 4c8 0 16.167 -1.33301 24.5 -4s16.5 -7.66699 24.5 -15l53 -52z" />
    <glyph glyph-name="ecaron" unicode="&#x11b;" horiz-adv-x="514" 
d="M310 85c16.667 0 31.335 1.83594 44.002 5.50293s24 8.16699 34 13.5s18.667 11.166 26 17.499l20 17.5c8 -10 16.333 -22.833 25 -38.5s13 -28.5 13 -38.5c0 -14.667 -8.33301 -28 -25 -40c-14 -10.667 -33.833 -19.834 -59.5 -27.501s-55.834 -11.5 -90.501 -11.5
c-31.333 0 -62.166 4 -92.499 12s-57.333 22 -81 42s-42.834 46.833 -57.501 80.5s-22 76.167 -22 127.5c0 42 6.5 78.167 19.5 108.5s30.333 55.5 52 75.5s46.167 34.667 73.5 44s55.333 14 84 14c37.333 0 69 -5.83301 95 -17.5s47.167 -27.334 63.5 -47.001
s28.166 -42.167 35.499 -67.5s11 -52 11 -80v-14c0 -5.33301 -0.166992 -11 -0.5 -17l-1 -17.5c-0.333008 -5.66699 -0.833008 -10.167 -1.5 -13.5h-294c2.66699 -36.667 14 -67.167 34 -91.5s51.667 -36.5 95 -36.5zM355.001 288.003c0 32 -6.16699 58 -18.5 78
s-34.5 30 -66.5 30c-28 0 -50 -9.5 -66 -28.5s-24 -45.5 -24 -79.5h175zM330.001 682.003c9.33301 10 18.5 16.999 27.5 20.999s18.833 6 29.5 6c8 0 16.333 -1.33301 25 -4s16.334 -6 23.001 -10l-91 -128c-7.33301 -11.333 -17 -19 -29 -23s-24.667 -6 -38 -6
c-14 0 -27 2.33301 -39 7s-21.667 12 -29 22l-91 126c5.33301 4.66699 13 8.33398 23 11.001s19.333 4 28 4c8 0 16.167 -1 24.5 -3s16.166 -7.33301 23.499 -16l59 -67z" />
    <glyph glyph-name="Gcircumflex" unicode="&#x11c;" horiz-adv-x="667" 
d="M361 262l-0.000976562 101.998h243v-300c-6 -7.33301 -15.333 -15.666 -28 -24.999s-29 -18.166 -49 -26.499s-43.667 -15.333 -71 -21s-58.333 -8.5 -93 -8.5c-54 0 -100.833 8.83301 -140.5 26.5s-72.334 42 -98.001 73s-44.667 68 -57 111s-18.5 89.833 -18.5 140.5
c0 50 6.5 96.167 19.5 138.5s32.833 79.166 59.5 110.499s60.334 55.833 101.001 73.5s88.667 26.5 144 26.5c26.667 0 52.834 -3.16699 78.501 -9.5s48.334 -14.5 68.001 -24.5s35.5 -21.167 47.5 -33.5s18 -24.833 18 -37.5c0 -11.333 -4.83301 -24 -14.5 -38
s-21.167 -26.667 -34.5 -38c-8 7.33301 -17.167 15 -27.5 23s-22 15.333 -35 22s-27.667 12.167 -44 16.5s-34.5 6.5 -54.5 6.5c-36 0 -66 -6.66699 -90 -20s-43 -30.833 -57 -52.5s-24 -46.5 -30 -74.5s-9 -57 -9 -87c0 -32 3.16699 -62.667 9.5 -92
s16.666 -55.166 30.999 -77.499s33.666 -40.333 57.999 -54s54.5 -20.5 90.5 -20.5c17.333 0 32 1.33301 44 4s22 5.66699 30 9c8.66699 4 16.334 8.66699 23.001 14v143h-114zM352.999 795.998l-52.999 -52.001c-8 -7.33301 -16.167 -12.333 -24.5 -15s-16.5 -4 -24.5 -4
c-8.66699 0 -17.834 1.33301 -27.501 4s-17.167 6.33398 -22.5 11.001l87 108c16 19.333 37.667 29 65 29c25.333 0 46.666 -9.66699 63.999 -29l88 -110c-6.66699 -4 -14.5 -7.33301 -23.5 -10s-17.5 -4 -25.5 -4c-10.667 0 -20.167 1.5 -28.5 4.5
s-17.166 9.16699 -26.499 18.5z" />
    <glyph glyph-name="gcircumflex" unicode="&#x11d;" horiz-adv-x="553" 
d="M489 37c0 -39.333 -3.83496 -75.167 -11.502 -107.5s-21 -60.166 -40 -83.499s-44.167 -41.333 -75.5 -54s-70.666 -19 -117.999 -19c-40 0 -72.833 3 -98.5 9s-46.167 13.333 -61.5 22c-13.333 7.33301 -21.833 15 -25.5 23s-5.5 15.667 -5.5 23
c0 10.667 4.33301 23.167 13 37.5s17.334 27.166 26.001 38.499c4.66699 -4.66699 11.167 -10 19.5 -16s18.5 -11.833 30.5 -17.5s25.5 -10.5 40.5 -14.5s31.5 -6 49.5 -6c26 0 47.167 3.5 63.5 10.5s29.166 17 38.499 30s15.833 28.833 19.5 47.5s5.5 40 5.5 64v18
c-9.33301 -11.333 -24.166 -21.833 -44.499 -31.5s-46.5 -14.5 -78.5 -14.5c-24.667 0 -48.5 3.83301 -71.5 11.5s-43.5 20.834 -61.5 39.501s-32.333 43.167 -43 73.5s-16 68.166 -16 113.499c0 46 5.5 85 16.5 117s25.667 58.167 44 78.5s39.333 35 63 44
s48.5 13.5 74.5 13.5c30 0 54.5 -5 73.5 -15s33.833 -22.667 44.5 -38c5.33301 15.333 15.333 26.333 30 33s31.667 10 51 10c5.33301 0 11 -0.166992 17 -0.5s11.333 -0.833008 16 -1.5l15 -2v-436zM183.998 241.999c0 -46.667 7.00098 -83.499 21.001 -110.499
s40.333 -40.5 79 -40.5c23.333 0 41.666 4.5 54.999 13.5s20 20.833 20 35.5v214c-5.33301 5.33301 -14.5 11.666 -27.5 18.999s-28.167 11 -45.5 11c-68 0 -102 -47.333 -102 -142zM281.999 625l-59 -67.001c-7.33301 -8.66699 -15.166 -14 -23.499 -16s-16.5 -3 -24.5 -3
c-8.66699 0 -18 1.33301 -28 4s-17.667 6.33398 -23 11.001l91 126c7.33301 10 17 17.333 29 22s25 7 39 7c13.333 0 26 -2 38 -6s21.667 -11.667 29 -23l91 -128c-6.66699 -4 -14.334 -7.33301 -23.001 -10s-17 -4 -25 -4c-10.667 0 -20.5 2 -29.5 6s-18.167 11 -27.5 21z
" />
    <glyph glyph-name="Gbreve" unicode="&#x11e;" horiz-adv-x="667" 
d="M361 262l-0.000976562 101.998h243v-300c-6 -7.33301 -15.333 -15.666 -28 -24.999s-29 -18.166 -49 -26.499s-43.667 -15.333 -71 -21s-58.333 -8.5 -93 -8.5c-54 0 -100.833 8.83301 -140.5 26.5s-72.334 42 -98.001 73s-44.667 68 -57 111s-18.5 89.833 -18.5 140.5
c0 50 6.5 96.167 19.5 138.5s32.833 79.166 59.5 110.499s60.334 55.833 101.001 73.5s88.667 26.5 144 26.5c26.667 0 52.834 -3.16699 78.501 -9.5s48.334 -14.5 68.001 -24.5s35.5 -21.167 47.5 -33.5s18 -24.833 18 -37.5c0 -11.333 -4.83301 -24 -14.5 -38
s-21.167 -26.667 -34.5 -38c-8 7.33301 -17.167 15 -27.5 23s-22 15.333 -35 22s-27.667 12.167 -44 16.5s-34.5 6.5 -54.5 6.5c-36 0 -66 -6.66699 -90 -20s-43 -30.833 -57 -52.5s-24 -46.5 -30 -74.5s-9 -57 -9 -87c0 -32 3.16699 -62.667 9.5 -92
s16.666 -55.166 30.999 -77.499s33.666 -40.333 57.999 -54s54.5 -20.5 90.5 -20.5c17.333 0 32 1.33301 44 4s22 5.66699 30 9c8.66699 4 16.334 8.66699 23.001 14v143h-114zM522.999 873.998c-3.33301 -20 -9.16504 -38.6709 -17.498 -56.0039
s-19.166 -32.666 -32.499 -45.999s-29.5 -23.833 -48.5 -31.5s-40.833 -11.5 -65.5 -11.5c-44.667 0 -81 12 -109 36s-45.333 61 -52 111c4.66699 3.33301 11.667 6.33301 21 9s18.666 4 27.999 4s16.666 -2.16699 21.999 -6.5s10.333 -12.166 15 -23.499
c7.33301 -19.333 16.833 -33.666 28.5 -42.999s28.167 -14 49.5 -14c20.667 0 36.334 4.83301 47.001 14.5s20.667 23.5 30 41.5c5.33301 10.667 10.666 18.5 15.999 23.5s12.666 7.5 21.999 7.5c8 0 16.333 -1.66699 25 -5s15.667 -6.66602 21 -9.99902z" />
    <glyph glyph-name="gbreve" unicode="&#x11f;" horiz-adv-x="553" 
d="M489 37c0 -39.333 -3.83496 -75.167 -11.502 -107.5s-21 -60.166 -40 -83.499s-44.167 -41.333 -75.5 -54s-70.666 -19 -117.999 -19c-40 0 -72.833 3 -98.5 9s-46.167 13.333 -61.5 22c-13.333 7.33301 -21.833 15 -25.5 23s-5.5 15.667 -5.5 23
c0 10.667 4.33301 23.167 13 37.5s17.334 27.166 26.001 38.499c4.66699 -4.66699 11.167 -10 19.5 -16s18.5 -11.833 30.5 -17.5s25.5 -10.5 40.5 -14.5s31.5 -6 49.5 -6c26 0 47.167 3.5 63.5 10.5s29.166 17 38.499 30s15.833 28.833 19.5 47.5s5.5 40 5.5 64v18
c-9.33301 -11.333 -24.166 -21.833 -44.499 -31.5s-46.5 -14.5 -78.5 -14.5c-24.667 0 -48.5 3.83301 -71.5 11.5s-43.5 20.834 -61.5 39.501s-32.333 43.167 -43 73.5s-16 68.166 -16 113.499c0 46 5.5 85 16.5 117s25.667 58.167 44 78.5s39.333 35 63 44
s48.5 13.5 74.5 13.5c30 0 54.5 -5 73.5 -15s33.833 -22.667 44.5 -38c5.33301 15.333 15.333 26.333 30 33s31.667 10 51 10c5.33301 0 11 -0.166992 17 -0.5s11.333 -0.833008 16 -1.5l15 -2v-436zM183.998 241.999c0 -46.667 7.00098 -83.499 21.001 -110.499
s40.333 -40.5 79 -40.5c23.333 0 41.666 4.5 54.999 13.5s20 20.833 20 35.5v214c-5.33301 5.33301 -14.5 11.666 -27.5 18.999s-28.167 11 -45.5 11c-68 0 -102 -47.333 -102 -142zM442.999 686c-3.33301 -20 -9.16504 -38.6709 -17.498 -56.0039
s-19.166 -32.666 -32.499 -45.999s-29.5 -23.833 -48.5 -31.5s-40.833 -11.5 -65.5 -11.5c-44.667 0 -81 12 -109 36s-45.333 61 -52 111c4.66699 3.33301 11.667 6.33301 21 9s18.666 4 27.999 4s16.666 -2.16699 21.999 -6.5s10.333 -12.166 15 -23.499
c7.33301 -19.333 16.833 -33.666 28.5 -42.999s28.167 -14 49.5 -14c20.667 0 36.334 4.83301 47.001 14.5s20.667 23.5 30 41.5c5.33301 10.667 10.666 18.5 15.999 23.5s12.666 7.5 21.999 7.5c8 0 16.333 -1.66699 25 -5s15.667 -6.66602 21 -9.99902z" />
    <glyph glyph-name="Gdotaccent" unicode="&#x120;" horiz-adv-x="667" 
d="M361 262l-0.000976562 101.998h243v-300c-6 -7.33301 -15.333 -15.666 -28 -24.999s-29 -18.166 -49 -26.499s-43.667 -15.333 -71 -21s-58.333 -8.5 -93 -8.5c-54 0 -100.833 8.83301 -140.5 26.5s-72.334 42 -98.001 73s-44.667 68 -57 111s-18.5 89.833 -18.5 140.5
c0 50 6.5 96.167 19.5 138.5s32.833 79.166 59.5 110.499s60.334 55.833 101.001 73.5s88.667 26.5 144 26.5c26.667 0 52.834 -3.16699 78.501 -9.5s48.334 -14.5 68.001 -24.5s35.5 -21.167 47.5 -33.5s18 -24.833 18 -37.5c0 -11.333 -4.83301 -24 -14.5 -38
s-21.167 -26.667 -34.5 -38c-8 7.33301 -17.167 15 -27.5 23s-22 15.333 -35 22s-27.667 12.167 -44 16.5s-34.5 6.5 -54.5 6.5c-36 0 -66 -6.66699 -90 -20s-43 -30.833 -57 -52.5s-24 -46.5 -30 -74.5s-9 -57 -9 -87c0 -32 3.16699 -62.667 9.5 -92
s16.666 -55.166 30.999 -77.499s33.666 -40.333 57.999 -54s54.5 -20.5 90.5 -20.5c17.333 0 32 1.33301 44 4s22 5.66699 30 9c8.66699 4 16.334 8.66699 23.001 14v143h-114zM433.999 796.998c0 -20 -6.5 -36.167 -19.5 -48.5s-29.167 -18.5 -48.5 -18.5
s-35.666 6.16699 -48.999 18.5s-20 28.5 -20 48.5s6.66699 36.5 20 49.5s29.666 19.5 48.999 19.5s35.5 -6.5 48.5 -19.5s19.5 -29.5 19.5 -49.5z" />
    <glyph glyph-name="gdotaccent" unicode="&#x121;" horiz-adv-x="553" 
d="M489 37c0 -39.333 -3.83496 -75.167 -11.502 -107.5s-21 -60.166 -40 -83.499s-44.167 -41.333 -75.5 -54s-70.666 -19 -117.999 -19c-40 0 -72.833 3 -98.5 9s-46.167 13.333 -61.5 22c-13.333 7.33301 -21.833 15 -25.5 23s-5.5 15.667 -5.5 23
c0 10.667 4.33301 23.167 13 37.5s17.334 27.166 26.001 38.499c4.66699 -4.66699 11.167 -10 19.5 -16s18.5 -11.833 30.5 -17.5s25.5 -10.5 40.5 -14.5s31.5 -6 49.5 -6c26 0 47.167 3.5 63.5 10.5s29.166 17 38.499 30s15.833 28.833 19.5 47.5s5.5 40 5.5 64v18
c-9.33301 -11.333 -24.166 -21.833 -44.499 -31.5s-46.5 -14.5 -78.5 -14.5c-24.667 0 -48.5 3.83301 -71.5 11.5s-43.5 20.834 -61.5 39.501s-32.333 43.167 -43 73.5s-16 68.166 -16 113.499c0 46 5.5 85 16.5 117s25.667 58.167 44 78.5s39.333 35 63 44
s48.5 13.5 74.5 13.5c30 0 54.5 -5 73.5 -15s33.833 -22.667 44.5 -38c5.33301 15.333 15.333 26.333 30 33s31.667 10 51 10c5.33301 0 11 -0.166992 17 -0.5s11.333 -0.833008 16 -1.5l15 -2v-436zM183.998 241.999c0 -46.667 7.00098 -83.499 21.001 -110.499
s40.333 -40.5 79 -40.5c23.333 0 41.666 4.5 54.999 13.5s20 20.833 20 35.5v214c-5.33301 5.33301 -14.5 11.666 -27.5 18.999s-28.167 11 -45.5 11c-68 0 -102 -47.333 -102 -142zM353.999 622c0 -20.667 -6.5 -37.167 -19.5 -49.5s-29.167 -18.5 -48.5 -18.5
s-35.666 6.16699 -48.999 18.5s-20 28.833 -20 49.5c0 20 6.66699 36.333 20 49s29.666 19 48.999 19s35.5 -6.33301 48.5 -19s19.5 -29 19.5 -49z" />
    <glyph glyph-name="Gcommaaccent" unicode="&#x122;" horiz-adv-x="667" 
d="M361 262l-0.000976562 101.998h243v-300c-6 -7.33301 -15.333 -15.666 -28 -24.999s-29 -18.166 -49 -26.499s-43.667 -15.333 -71 -21s-58.333 -8.5 -93 -8.5c-54 0 -100.833 8.83301 -140.5 26.5s-72.334 42 -98.001 73s-44.667 68 -57 111s-18.5 89.833 -18.5 140.5
c0 50 6.5 96.167 19.5 138.5s32.833 79.166 59.5 110.499s60.334 55.833 101.001 73.5s88.667 26.5 144 26.5c26.667 0 52.834 -3.16699 78.501 -9.5s48.334 -14.5 68.001 -24.5s35.5 -21.167 47.5 -33.5s18 -24.833 18 -37.5c0 -11.333 -4.83301 -24 -14.5 -38
s-21.167 -26.667 -34.5 -38c-8 7.33301 -17.167 15 -27.5 23s-22 15.333 -35 22s-27.667 12.167 -44 16.5s-34.5 6.5 -54.5 6.5c-36 0 -66 -6.66699 -90 -20s-43 -30.833 -57 -52.5s-24 -46.5 -30 -74.5s-9 -57 -9 -87c0 -32 3.16699 -62.667 9.5 -92
s16.666 -55.166 30.999 -77.499s33.666 -40.333 57.999 -54s54.5 -20.5 90.5 -20.5c17.333 0 32 1.33301 44 4s22 5.66699 30 9c8.66699 4 16.334 8.66699 23.001 14v143h-114zM353.999 -190.002c-7.33301 -14 -15.499 -24.333 -24.499 -31s-21.5 -10 -37.5 -10
c-16.667 0 -30 2.33301 -40 7l46 124c6.66699 17.333 15 31 25 41s24 15 42 15c10 0 20.667 -1.5 32 -4.5s20.666 -6.16699 27.999 -9.5z" />
    <glyph glyph-name="gcommaaccent" unicode="&#x123;" horiz-adv-x="553" 
d="M489 37c0 -39.333 -3.83496 -75.167 -11.502 -107.5s-21 -60.166 -40 -83.499s-44.167 -41.333 -75.5 -54s-70.666 -19 -117.999 -19c-40 0 -72.833 3 -98.5 9s-46.167 13.333 -61.5 22c-13.333 7.33301 -21.833 15 -25.5 23s-5.5 15.667 -5.5 23
c0 10.667 4.33301 23.167 13 37.5s17.334 27.166 26.001 38.499c4.66699 -4.66699 11.167 -10 19.5 -16s18.5 -11.833 30.5 -17.5s25.5 -10.5 40.5 -14.5s31.5 -6 49.5 -6c26 0 47.167 3.5 63.5 10.5s29.166 17 38.499 30s15.833 28.833 19.5 47.5s5.5 40 5.5 64v18
c-9.33301 -11.333 -24.166 -21.833 -44.499 -31.5s-46.5 -14.5 -78.5 -14.5c-24.667 0 -48.5 3.83301 -71.5 11.5s-43.5 20.834 -61.5 39.501s-32.333 43.167 -43 73.5s-16 68.166 -16 113.499c0 46 5.5 85 16.5 117s25.667 58.167 44 78.5s39.333 35 63 44
s48.5 13.5 74.5 13.5c30 0 54.5 -5 73.5 -15s33.833 -22.667 44.5 -38c5.33301 15.333 15.333 26.333 30 33s31.667 10 51 10c5.33301 0 11 -0.166992 17 -0.5s11.333 -0.833008 16 -1.5l15 -2v-436zM183.998 241.999c0 -46.667 7.00098 -83.499 21.001 -110.499
s40.333 -40.5 79 -40.5c23.333 0 41.666 4.5 54.999 13.5s20 20.833 20 35.5v214c-5.33301 5.33301 -14.5 11.666 -27.5 18.999s-28.167 11 -45.5 11c-68 0 -102 -47.333 -102 -142zM282.999 678c7.33301 14 15.499 24.333 24.499 31s21.5 10 37.5 10s28.333 -2.33301 37 -7
l-46 -124c-6.66699 -17.333 -15 -31 -25 -41s-24 -15 -42 -15c-10 0 -20.167 1.5 -30.5 4.5s-19.166 6.16699 -26.499 9.5z" />
    <glyph glyph-name="Hcircumflex" unicode="&#x124;" horiz-adv-x="654" 
d="M201 398h252v271c9.33301 1.33301 18.666 2.5 27.999 3.5s16.666 1.5 21.999 1.5c8.66699 0 18.167 -1 28.5 -3s19.833 -5.83301 28.5 -11.5s15.834 -13.5 21.501 -23.5s8.5 -23.333 8.5 -40v-596h-137v290h-252v-290h-137v669c9.33301 1.33301 18.5 2.5 27.5 3.5
s15.833 1.5 20.5 1.5c10 0 20.167 -1 30.5 -3s19.833 -5.83301 28.5 -11.5s15.834 -13.5 21.501 -23.5s8.5 -23.333 8.5 -40v-198zM337 796l-52.999 -52.001c-8 -7.33301 -16.167 -12.333 -24.5 -15s-16.5 -4 -24.5 -4c-8.66699 0 -17.834 1.33301 -27.501 4
s-17.167 6.33398 -22.5 11.001l87 108c16 19.333 37.667 29 65 29c25.333 0 46.666 -9.66699 63.999 -29l88 -110c-6.66699 -4 -14.5 -7.33301 -23.5 -10s-17.5 -4 -25.5 -4c-10.667 0 -20.167 1.5 -28.5 4.5s-17.166 9.16699 -26.499 18.5z" />
    <glyph glyph-name="hcircumflex" unicode="&#x125;" horiz-adv-x="561" 
d="M361 276c0 14.667 -0.500977 28.332 -1.50098 40.999s-3.66699 23.5 -8 32.5s-11.333 16 -21 21s-23.167 7.5 -40.5 7.5c-24.667 0 -45.834 -5.16699 -63.501 -15.5s-26.5 -23.166 -26.5 -38.499v-324h-136v705c1.33301 0.666992 6.66602 1.5 15.999 2.5
s19.333 1.5 30 1.5s21.334 -1 32.001 -3s20.334 -5.83301 29.001 -11.5s15.667 -13.667 21 -24s8 -23.833 8 -40.5v-199c5.33301 6 12 12.333 20 19s17.667 12.834 29 18.501s24.5 10.167 39.5 13.5s32.167 5 51.5 5c47.333 0 82.333 -9.33301 105 -28
s37.334 -43.334 44.001 -74.001c3.33301 -15.333 5.5 -32 6.5 -50s1.5 -35.667 1.5 -53v-282h-136v276zM210.999 830.998l-52.999 -52.001c-8 -7.33301 -16.167 -12.333 -24.5 -15s-16.5 -4 -24.5 -4c-8.66699 0 -17.834 1.33301 -27.501 4s-17.167 6.33398 -22.5 11.001
l87 108c16 19.333 37.667 29 65 29c25.333 0 46.666 -9.66699 63.999 -29l88 -110c-6.66699 -4 -14.5 -7.33301 -23.5 -10s-17.5 -4 -25.5 -4c-10.667 0 -20.167 1.5 -28.5 4.5s-17.166 9.16699 -26.499 18.5z" />
    <glyph glyph-name="Hbar" unicode="&#x126;" horiz-adv-x="680" 
d="M0 491l-0.00195312 82h77v96l18 2l15.5 2c5 0.666992 9.83301 1 14.5 1c10 0 20.167 -1 30.5 -3s19.833 -5.83301 28.5 -11.5s15.834 -13.5 21.501 -23.5s8.5 -23.333 8.5 -40v-23h252v96l17 2l16.5 2c5.66699 0.666992 11.167 1 16.5 1c8.66699 0 18.167 -1 28.5 -3
s19.833 -5.83301 28.5 -11.5s15.834 -13.5 21.501 -23.5s8.5 -23.333 8.5 -40v-23h77v-82h-77v-491h-137v290h-252v-290h-137v491h-77zM213.998 398h252v93h-252v-93z" />
    <glyph glyph-name="hbar" unicode="&#x127;" horiz-adv-x="561" 
d="M361 256c0 14.667 -0.500977 28.332 -1.50098 40.999s-3.66699 23.5 -8 32.5s-11.333 16 -21 21s-23.167 7.5 -40.5 7.5c-24.667 0 -45.834 -5.16699 -63.501 -15.5s-26.5 -23.166 -26.5 -38.499v-304h-136v538h-70v88h70v79c1.33301 0.666992 6.66602 1.5 15.999 2.5
s19.333 1.5 30 1.5s21.334 -1 32.001 -3s20.334 -5.83301 29.001 -11.5s15.667 -13.667 21 -24s8 -23.833 8 -40.5v-4h183v-88h-183v-127c5.33301 6 12 12.333 20 19s17.667 12.834 29 18.501s24.5 10.167 39.5 13.5s32.167 5 51.5 5c47.333 0 82.333 -9.33301 105 -28
s37.334 -43.334 44.001 -74.001c3.33301 -15.333 5.5 -32 6.5 -50s1.5 -35.667 1.5 -53v-262h-136v256z" />
    <glyph glyph-name="Itilde" unicode="&#x128;" horiz-adv-x="265" 
d="M64 669c9.33301 1.33301 18.499 2.5 27.499 3.5s15.833 1.5 20.5 1.5c10 0 20.167 -1 30.5 -3s19.833 -5.83301 28.5 -11.5s15.834 -13.5 21.501 -23.5s8.5 -23.333 8.5 -40v-596h-137v669zM199.999 739c-16 0 -30.332 2 -42.999 6s-24.167 8.16699 -34.5 12.5
l-29.5 12.5c-9.33301 4 -19 6 -29 6c-15.333 0 -28.5 -4 -39.5 -12s-21.833 -18.333 -32.5 -31c-8 6.66699 -16.167 14.5 -24.5 23.5s-12.5 18.833 -12.5 29.5c0 9.33301 3.33301 18.333 10 27s15.167 16.167 25.5 22.5s21.833 11.333 34.5 15s25 5.5 37 5.5
c14.667 0 27.667 -2 39 -6s22 -8.16699 32 -12.5l29 -12.5c9.33301 -4 19 -6 29 -6c14.667 0 27 3.5 37 10.5s20 18.167 30 33.5c7.33301 -6.66699 15.666 -15 24.999 -25s14 -20.333 14 -31c0 -10 -2.83301 -19.167 -8.5 -27.5s-13.167 -15.5 -22.5 -21.5
s-19.833 -10.667 -31.5 -14s-23.167 -5 -34.5 -5z" />
    </font>
</defs>
</svg>
