<?xml version="1.0" encoding="utf-8"?>
<!-- Generator: Adobe Illustrator 15.0.0, SVG Export Plug-In . SVG Version: 6.00 Build 0)  -->
<!DOCTYPE svg PUBLIC "-//W3C//DTD SVG 1.1//EN" "http://www.w3.org/Graphics/SVG/1.1/DTD/svg11.dtd">
<svg version="1.1" id="Warstwa_1" xmlns="http://www.w3.org/2000/svg" xmlns:xlink="http://www.w3.org/1999/xlink" x="0px" y="0px"
	 width="30px" height="30px" viewBox="0 0 30 30" enable-background="new 0 0 30 30" xml:space="preserve">
<circle fill="#515050" cx="15" cy="15" r="14.967"/>
<g>
	<rect x="18.914" y="15.373" fill="#FFFFFF" width="0.746" height="1.12"/>
	<rect x="17.05" y="15" fill="#FFFFFF" width="0.746" height="1.12"/>
	<rect x="15.186" y="14.253" fill="#FFFFFF" width="0.746" height="1.493"/>
	<g>
		<path fill="#FFFFFF" d="M21.526,26.188H20.78v-1.49h-7.085v1.49h-0.746v-1.49c0-0.412,0.335-0.746,0.746-0.746h7.085
			c0.41,0,0.746,0.334,0.746,0.746V26.188z"/>
		<path fill="#FFFFFF" d="M20.78,24.322h-0.746v-1.119c0-0.307,0.097-0.684,0.221-1.16c0.222-0.857,0.525-2.033,0.525-3.688v-2.609
			c0-0.412-0.334-0.747-0.746-0.747v-0.746c0.823,0,1.492,0.669,1.492,1.493v2.609c0,1.75-0.331,3.027-0.55,3.875
			c-0.109,0.426-0.196,0.762-0.196,0.973V24.322z"/>
		<path fill="#FFFFFF" d="M19.66,15.746h-0.746V15c0-0.411-0.334-0.746-0.744-0.746v-0.746c0.822,0,1.49,0.669,1.49,1.492V15.746z"
			/>
		<path fill="#FFFFFF" d="M17.796,15H17.05v-0.746c0-0.41-0.334-0.746-0.745-0.746v-0.745c0.823,0,1.491,0.668,1.491,1.491V15z"/>
		<path fill="#FFFFFF" d="M13.322,17.982c-0.206,0-0.373-0.166-0.373-0.371V9.779c0-0.822,0.669-1.492,1.492-1.492
			c0.821,0,1.491,0.67,1.491,1.492v4.475c0,0.207-0.167,0.373-0.372,0.373c-0.206,0-0.374-0.166-0.374-0.373V9.779
			c0-0.411-0.333-0.746-0.745-0.746c-0.412,0-0.746,0.335-0.746,0.746v7.833C13.695,17.816,13.528,17.982,13.322,17.982"/>
		<path fill="#FFFFFF" d="M14.441,24.322h-0.746v-0.994l-2.163-2.885c-0.028-0.037-0.05-0.08-0.062-0.127
			c-0.556-2.074-1.232-4.381-1.416-4.701c-0.243-0.259-0.303-0.634-0.157-0.986c0.188-0.455,0.654-0.749,1.187-0.749
			c0.939,0,1.383,1.12,1.463,1.347l1.107,2.216l-0.667,0.334l-1.119-2.238c-0.009-0.016-0.015-0.031-0.021-0.049
			c-0.076-0.224-0.379-0.864-0.765-0.864c-0.28,0-0.443,0.155-0.497,0.287c-0.021,0.048-0.044,0.136,0.015,0.195
			c0.22,0.221,0.748,1.885,1.57,4.946l2.194,2.926c0.049,0.064,0.075,0.143,0.075,0.223V24.322z"/>
		<path fill="#FFFFFF" d="M13.164,12.475c-1.036-0.492-1.706-1.55-1.706-2.696c0-1.646,1.338-2.983,2.983-2.983
			c1.644,0,2.983,1.338,2.983,2.983c0,1.146-0.67,2.204-1.705,2.696l-0.32-0.675c0.777-0.369,1.279-1.162,1.279-2.021
			c0-1.234-1.004-2.237-2.237-2.237c-1.234,0-2.238,1.003-2.238,2.237c0,0.859,0.502,1.653,1.28,2.022L13.164,12.475z"/>
		<path fill="#FFFFFF" d="M18.191,12.22l-0.624-0.407c0.393-0.605,0.603-1.309,0.603-2.034c0-2.057-1.673-3.729-3.729-3.729
			c-2.056,0-3.729,1.673-3.729,3.729c0,0.726,0.209,1.429,0.603,2.033l-0.625,0.407c-0.474-0.727-0.724-1.57-0.724-2.44
			c0-2.468,2.008-4.476,4.475-4.476c2.467,0,4.474,2.008,4.474,4.476C18.914,10.649,18.665,11.493,18.191,12.22"/>
		<path fill="#FFFFFF" d="M20.408,9.779H19.66c0-2.88-2.341-5.222-5.219-5.222c-2.879,0-5.222,2.342-5.222,5.222H8.474
			c0-3.29,2.677-5.968,5.967-5.968C17.73,3.811,20.408,6.489,20.408,9.779"/>
	</g>
</g>
</svg>
