<?xml version="1.0" encoding="utf-8"?>
<!-- Generator: Adobe Illustrator 15.0.0, SVG Export Plug-In . SVG Version: 6.00 Build 0)  -->
<!DOCTYPE svg PUBLIC "-//W3C//DTD SVG 1.1//EN" "http://www.w3.org/Graphics/SVG/1.1/DTD/svg11.dtd">
<svg version="1.1" id="Warstwa_1" xmlns="http://www.w3.org/2000/svg" xmlns:xlink="http://www.w3.org/1999/xlink" x="0px" y="0px"
	 width="30px" height="30px" viewBox="0 0 30 30" enable-background="new 0 0 30 30" xml:space="preserve">
<circle fill="#515050" cx="14.967" cy="15" r="14.967"/>
<g>
	<path fill="#FFFFFF" d="M14.966,21.168c-5.961,0-10.691-5.708-10.889-5.95c-0.103-0.126-0.103-0.308,0-0.435
		c0.198-0.242,4.928-5.952,10.889-5.952c5.962,0,10.691,5.708,10.89,5.952c0.103,0.127,0.103,0.308,0,0.435
		C25.659,15.46,20.929,21.168,14.966,21.168 M4.795,15c0.928,1.044,5.174,5.483,10.171,5.483c5.003,0,9.246-4.439,10.171-5.482
		c-0.927-1.043-5.174-5.484-10.171-5.484C9.963,9.517,5.723,13.958,4.795,15"/>
	<path fill="#FFFFFF" d="M14.966,21.17c-3.401,0-6.169-2.769-6.169-6.17c0-3.402,2.768-6.169,6.169-6.169
		c3.403,0,6.17,2.767,6.17,6.169C21.137,18.401,18.369,21.17,14.966,21.17 M14.966,9.517c-3.023,0-5.482,2.46-5.482,5.484
		c0,3.023,2.46,5.482,5.482,5.482c3.023,0,5.484-2.459,5.484-5.482C20.45,11.977,17.99,9.517,14.966,9.517"/>
	<path fill="#FFFFFF" d="M14.966,19.112c-2.267,0-4.112-1.844-4.112-4.112c0-2.268,1.845-4.113,4.112-4.113
		c2.268,0,4.112,1.845,4.112,4.113C19.08,17.269,17.235,19.112,14.966,19.112 M14.966,11.574c-1.89,0-3.427,1.536-3.427,3.426
		c0,1.89,1.538,3.427,3.427,3.427c1.89,0,3.427-1.539,3.427-3.427C18.394,13.11,16.858,11.574,14.966,11.574"/>
	<path fill="#FFFFFF" d="M13.253,15.001h-0.685c0-1.323,1.076-2.399,2.399-2.399v0.686C14.022,13.287,13.253,14.056,13.253,15.001"
		/>
</g>
</svg>
