<?xml version="1.0" encoding="utf-8"?>
<!-- Generator: Adobe Illustrator 15.0.0, SVG Export Plug-In . SVG Version: 6.00 Build 0)  -->
<!DOCTYPE svg PUBLIC "-//W3C//DTD SVG 1.1//EN" "http://www.w3.org/Graphics/SVG/1.1/DTD/svg11.dtd">
<svg version="1.1" id="Warstwa_1" xmlns="http://www.w3.org/2000/svg" xmlns:xlink="http://www.w3.org/1999/xlink" x="0px" y="0px"
	 width="245.309px" height="97.916px" viewBox="0 0 245.309 97.916" enable-background="new 0 0 245.309 97.916"
	 xml:space="preserve">
<g>
	<path fill="#FFFFFF" d="M131.482,97.417h20.262v-5.886h-13.413v-3.96h11.986v-5.457h-11.986v-3.817h13.234v-5.85h-20.083V97.417z
		 M112.042,84.431v-6.027h4.566c2.283,0,3.745,0.999,3.745,2.996v0.071c0,1.819-1.391,2.96-3.71,2.96H112.042z M105.122,97.417h6.92
		v-7.563h3.068l5.029,7.563h7.956l-5.957-8.704c3.103-1.32,5.136-3.853,5.136-7.705v-0.072c0-2.461-0.749-4.351-2.211-5.813
		c-1.677-1.676-4.316-2.675-8.133-2.675h-11.807V97.417z M86.965,97.417h6.921V78.51h7.491v-6.063H79.51v6.063h7.455V97.417z
		 M52.151,97.417H59V83.718l10.702,13.698h6.028v-24.97H68.88v13.197L58.607,72.447h-6.456V97.417z M27.609,97.417H47.87v-5.886
		H34.458v-3.96h11.985v-5.457H34.458v-3.817h13.234v-5.85H27.609V97.417z M12.877,97.916c5.493,0,8.668-2.39,11.022-5.636
		l-5.208-3.71c-1.498,1.818-3.032,3.031-5.636,3.031c-3.495,0-5.957-2.925-5.957-6.67V84.86c0-3.639,2.462-6.636,5.957-6.636
		c2.39,0,4.031,1.179,5.458,2.927l5.208-4.031c-2.212-3.032-5.493-5.173-10.594-5.173C5.564,71.947,0,77.655,0,84.931v0.071
		C0,92.458,5.743,97.916,12.877,97.916"/>
	<path fill="#FFFFFF" d="M221.731,60.767h6.849V47.069l10.701,13.698h6.027v-24.97h-6.848v13.198l-10.274-13.198h-6.455V60.767z
		 M204.038,55.024c-3.817,0-6.421-3.14-6.421-6.741V48.21c0-3.603,2.533-6.67,6.35-6.67c3.817,0,6.385,3.103,6.385,6.742v0.071
		C210.352,51.957,207.819,55.024,204.038,55.024 M203.967,61.266c7.705,0,13.483-5.813,13.483-12.983V48.21
		c0-7.17-5.707-12.913-13.412-12.913s-13.484,5.815-13.484,12.985v0.071C190.554,55.524,196.262,61.266,203.967,61.266
		 M179.175,60.767h6.92v-24.97h-6.92V60.767z M160.841,60.767h6.92V41.861h7.491v-6.064h-21.867v6.064h7.456V60.767z
		 M137.975,50.886l2.818-7.063l2.783,7.063H137.975z M126.917,60.767h7.242l1.783-4.494h9.667l1.783,4.494h7.419l-10.63-25.148
		h-6.67L126.917,60.767z M109.902,47.783v-6.028h4.566c2.283,0,3.745,0.999,3.745,2.996v0.071c0,1.82-1.391,2.961-3.71,2.961
		H109.902z M102.982,60.767h6.92v-7.563h3.068l5.029,7.563h7.955l-5.957-8.703c3.103-1.32,5.136-3.854,5.136-7.706v-0.072
		c0-2.461-0.749-4.351-2.211-5.814c-1.677-1.677-4.316-2.675-8.133-2.675h-11.807V60.767z M90.782,60.767h6.92v-24.97h-6.92V60.767z
		 M72.804,48.21v-6.599h3.282c2.461,0,3.995,1.106,3.995,3.246v0.072c0,1.961-1.534,3.281-3.959,3.281H72.804z M65.884,60.767h6.92
		v-7.135h3.46c6.171,0,10.702-3.103,10.702-9.025v-0.071c0-5.493-4.067-8.739-10.345-8.739H65.884V60.767z M51.723,61.196
		c6.064,0,10.095-3.032,10.095-8.133v-0.072c0-4.673-3.567-6.528-9.275-7.776c-3.496-0.785-4.352-1.284-4.352-2.426v-0.071
		c0-0.928,0.821-1.605,2.497-1.605c2.212,0,4.709,0.82,6.992,2.461l3.46-4.887c-2.711-2.176-6.028-3.317-10.273-3.317
		c-5.993,0-9.667,3.353-9.667,7.99v0.071c0,5.101,4.102,6.6,9.417,7.812c3.424,0.821,4.245,1.355,4.245,2.426v0.071
		c0,1.069-0.999,1.713-2.89,1.713c-2.889,0-5.6-1.035-8.097-2.997l-3.852,4.602C43.126,59.803,47.3,61.196,51.723,61.196
		 M13.198,60.767h6.849V47.069l10.701,13.698h6.029v-24.97h-6.849v13.198L19.655,35.797h-6.457V60.767z M0.999,60.767h6.92v-24.97
		h-6.92V60.767z"/>
	<path fill="#FFFFFF" d="M127.144,8.721c-0.927,0-1.661-0.763-1.661-1.84v-0.03c0-1.077,0.734-1.841,1.661-1.841
		c0.913,0,1.661,0.764,1.661,1.841v0.03C128.805,7.973,128.057,8.721,127.144,8.721 M122.703,13.311h2.84V9.932
		c0.523,0.613,1.242,1.165,2.469,1.165c1.914,0,3.573-1.599,3.573-4.231v-0.03c0-2.588-1.659-4.187-3.588-4.187
		c-1.212,0-1.9,0.583-2.454,1.256V2.829h-2.84V13.311z M115.628,11.097c1.152,0,1.9-0.628,2.424-1.3v1.121h2.825V2.829h-2.825V7.21
		c0,0.882-0.509,1.361-1.197,1.361c-0.689,0-1.153-0.479-1.153-1.361V2.829h-2.839v5.279
		C112.863,9.946,113.909,11.097,115.628,11.097 M106.969,8.706c-1.002,0-1.721-0.838-1.721-1.825v-0.03
		c0-0.988,0.659-1.811,1.691-1.811c1.003,0,1.736,0.838,1.736,1.841v0.03C108.675,7.883,108.001,8.706,106.969,8.706
		 M106.938,11.112c2.603,0,4.486-1.927,4.486-4.231v-0.03c0-2.304-1.868-4.202-4.456-4.202c-2.587,0-4.471,1.928-4.471,4.232v0.03
		C102.498,9.215,104.367,11.112,106.938,11.112 M96.262,10.917h2.84V8.391c0-1.855,0.837-2.708,2.318-2.708h0.239V2.694
		c-1.346-0.06-2.094,0.658-2.557,1.764V2.829h-2.84V10.917z M89.965,11.126c1.915,0,3.439-0.702,4.545-1.629V4.803h-4.8v2.122h2.05
		v1.272c-0.419,0.285-0.957,0.435-1.676,0.435c-1.66,0-2.842-1.213-2.842-2.918V5.685c0-1.601,1.167-2.858,2.678-2.858
		c1.047,0,1.78,0.359,2.528,0.988l1.703-2.064c-1.106-0.957-2.406-1.51-4.246-1.51c-3.231,0-5.623,2.392-5.623,5.444v0.029
		C84.282,8.886,86.704,11.126,89.965,11.126 M75.293,10.917h2.825V0h-2.825V10.917z M69.55,7.704l-1.615-4.875h-2.961l3.17,7.941
		c-0.194,0.255-0.388,0.329-0.672,0.329c-0.314,0-0.778-0.164-1.242-0.433l-0.867,1.987c0.748,0.434,1.585,0.703,2.587,0.703
		c1.615,0,2.378-0.732,3.08-2.631l2.961-7.896h-2.916L69.55,7.704z M62.026,11.083c0.793,0,1.466-0.195,1.974-0.479V8.392
		c-0.344,0.165-0.702,0.27-1.076,0.27c-0.524,0-0.778-0.24-0.778-0.808V5.1h1.884V2.829h-1.884V0.78h-2.825v2.049h-0.957V5.1h0.957
		v3.307C59.321,10.334,60.323,11.083,62.026,11.083 M53.188,11.097c2.543,0,4.232-1.27,4.232-3.408v-0.03
		c0-1.96-1.495-2.738-3.887-3.261c-1.467-0.329-1.826-0.539-1.826-1.018V3.351c0-0.389,0.344-0.674,1.047-0.674
		c0.928,0,1.976,0.344,2.932,1.033l1.45-2.049C56,0.749,54.61,0.271,52.829,0.271c-2.512,0-4.052,1.405-4.052,3.349v0.03
		c0,2.139,1.719,2.767,3.947,3.276c1.437,0.344,1.781,0.569,1.781,1.017v0.03c0,0.449-0.419,0.718-1.212,0.718
		c-1.212,0-2.348-0.433-3.395-1.256l-1.614,1.929C49.583,10.515,51.333,11.097,53.188,11.097 M38.801,7.704l-1.615-4.875h-2.961
		l3.17,7.941c-0.194,0.255-0.388,0.329-0.672,0.329c-0.314,0-0.778-0.164-1.242-0.433l-0.867,1.987
		c0.748,0.434,1.585,0.703,2.587,0.703c1.615,0,2.378-0.732,3.08-2.631l2.961-7.896h-2.916L38.801,7.704z M23.756,10.978h2.423
		l1.345-4.217l1.316,4.217h2.453l2.497-8.149h-2.737l-1.091,4.097l-1.256-4.127h-2.333l-1.256,4.097l-1.062-4.067h-2.766
		L23.756,10.978z M16.278,8.706c-1.003,0-1.721-0.838-1.721-1.825v-0.03c0-0.988,0.658-1.811,1.691-1.811
		c1.002,0,1.736,0.838,1.736,1.841v0.03C17.984,7.883,17.31,8.706,16.278,8.706 M16.248,11.112c2.602,0,4.486-1.927,4.486-4.231
		v-0.03c0-2.304-1.869-4.202-4.456-4.202c-2.588,0-4.471,1.928-4.471,4.232v0.03C11.807,9.215,13.675,11.112,16.248,11.112
		 M0.246,10.917h2.87V5.176l4.488,5.742h2.526V0.451H7.26v5.532L2.951,0.451H0.246V10.917z"/>
</g>
</svg>
