<?xml version="1.0" encoding="utf-8"?>
<!-- Generator: Adobe Illustrator 15.0.0, SVG Export Plug-In . SVG Version: 6.00 Build 0)  -->
<!DOCTYPE svg PUBLIC "-//W3C//DTD SVG 1.1//EN" "http://www.w3.org/Graphics/SVG/1.1/DTD/svg11.dtd">
<svg version="1.1" id="Warstwa_1" xmlns="http://www.w3.org/2000/svg" xmlns:xlink="http://www.w3.org/1999/xlink" x="0px" y="0px"
	 width="80.455px" height="54.793px" viewBox="0 0 80.455 54.793" enable-background="new 0 0 80.455 54.793" xml:space="preserve">
<g>
	<defs>
		<rect id="SVGID_1_" y="0" width="80.455" height="54.793"/>
	</defs>
	<clipPath id="SVGID_2_">
		<use xlink:href="#SVGID_1_"  overflow="visible"/>
	</clipPath>
	<path clip-path="url(#SVGID_2_)" d="M44.374,26.99H30.575c0,15.355,12.448,27.803,27.803,27.803c8.999,0,16.996-4.279,22.077-10.91
		l-9.936-9.935c-2.416,4.205-6.943,7.046-12.142,7.046C50.644,40.995,44.374,34.724,44.374,26.99 M70.504,20.006l9.931-9.931
		c-3.33-4.331-7.903-7.656-13.189-9.435L56.808,13.08c0.516-0.058,1.039-0.094,1.57-0.094
		C63.565,12.986,68.084,15.814,70.504,20.006"/>
</g>
<polygon points="17.551,26.99 40.198,0 22.647,0 0,26.99 "/>
</svg>
