<?xml version="1.0" encoding="utf-8"?>
<!-- Generator: Adobe Illustrator 15.0.0, SVG Export Plug-In . SVG Version: 6.00 Build 0)  -->
<!DOCTYPE svg PUBLIC "-//W3C//DTD SVG 1.1//EN" "http://www.w3.org/Graphics/SVG/1.1/DTD/svg11.dtd">
<svg version="1.1" id="Warstwa_1" xmlns="http://www.w3.org/2000/svg" xmlns:xlink="http://www.w3.org/1999/xlink" x="0px" y="0px"
	 width="283.46px" height="283.46px" viewBox="0 0 283.46 283.46" enable-background="new 0 0 283.46 283.46" xml:space="preserve">
<path fill="#FFFFFF" d="M234.249,66.05c0,9.381-7.646,16.975-16.987,16.975c-9.394,0-17.014-7.594-17.014-16.975
	c0-9.394,7.62-17.012,17.014-17.012C226.604,49.038,234.249,56.656,234.249,66.05 M188.858,141.629
	c0-26.055-21.161-47.188-47.215-47.188c-26.079,0-47.24,21.133-47.24,47.188c0,26.082,21.161,47.24,47.24,47.24
	C167.697,188.869,188.858,167.711,188.858,141.629 M214.363,141.629c0,40.17-32.576,72.721-72.72,72.721
	c-40.17,0-72.745-32.551-72.745-72.721c0-40.156,32.575-72.718,72.745-72.718C181.787,68.912,214.363,101.474,214.363,141.629
	 M141.643,0c-38.471,0-43.292,0.175-58.406,0.862c-15.063,0.699-25.38,3.072-34.375,6.583c-9.317,3.623-17.237,8.468-25.081,16.338
	C15.913,31.639,11.041,39.544,7.444,48.85c-3.522,9.03-5.92,19.324-6.57,34.386C0.175,98.35,0,103.161,0,141.629
	c0,38.471,0.175,43.292,0.874,58.406c0.65,15.065,3.048,25.381,6.57,34.375c3.597,9.317,8.469,17.213,16.337,25.105
	c7.844,7.844,15.764,12.716,25.081,16.313c8.994,3.499,19.312,5.922,34.375,6.596c15.114,0.699,19.935,0.849,58.406,0.849
	s43.267-0.149,58.381-0.849c15.087-0.674,25.381-3.097,34.398-6.596c9.293-3.597,17.211-8.469,25.057-16.313
	c7.894-7.893,12.741-15.788,16.362-25.105c3.497-8.994,5.895-19.31,6.569-34.375c0.674-15.113,0.875-19.935,0.875-58.406
	c0-38.469-0.201-43.28-0.875-58.394c-0.675-15.063-3.072-25.356-6.569-34.386c-3.621-9.306-8.469-17.21-16.362-25.067
	c-7.846-7.871-15.764-12.716-25.057-16.338c-9.018-3.51-19.312-5.884-34.398-6.583C184.91,0.175,180.114,0,141.643,0
	 M141.643,25.531c37.797,0,42.294,0.149,57.207,0.812c13.814,0.638,21.308,2.947,26.305,4.884c6.621,2.56,11.341,5.632,16.289,10.59
	c4.97,4.96,8.042,9.668,10.593,16.3c1.946,4.985,4.244,12.479,4.894,26.292c0.675,14.94,0.826,19.413,0.826,57.219
	c0,37.846-0.151,42.319-0.826,57.232c-0.649,13.816-2.947,21.31-4.894,26.331c-2.551,6.594-5.623,11.292-10.593,16.262
	c-4.948,4.973-9.668,8.021-16.289,10.593c-4.997,1.949-12.49,4.247-26.305,4.872c-14.912,0.698-19.409,0.824-57.207,0.824
	c-37.822,0-42.318-0.126-57.231-0.824c-13.814-0.625-21.31-2.923-26.305-4.872c-6.621-2.572-11.318-5.62-16.289-10.593
	c-4.97-4.97-8.045-9.668-10.592-16.262c-1.947-5.021-4.247-12.515-4.897-26.331c-0.674-14.913-0.799-19.386-0.799-57.232
	c0-37.807,0.125-42.279,0.799-57.219c0.65-13.814,2.95-21.308,4.897-26.292c2.547-6.632,5.622-11.34,10.592-16.3
	c4.97-4.958,9.668-8.03,16.289-10.59c4.995-1.937,12.49-4.247,26.305-4.884C99.349,25.681,103.821,25.531,141.643,25.531"/>
</svg>
