<?xml version="1.0" encoding="utf-8"?>
<!-- Generator: Adobe Illustrator 15.0.0, SVG Export Plug-In . SVG Version: 6.00 Build 0)  -->
<!DOCTYPE svg PUBLIC "-//W3C//DTD SVG 1.1//EN" "http://www.w3.org/Graphics/SVG/1.1/DTD/svg11.dtd">
<svg version="1.1" id="Warstwa_1" xmlns="http://www.w3.org/2000/svg" xmlns:xlink="http://www.w3.org/1999/xlink" x="0px" y="0px"
	 width="84.473px" height="97.681px" viewBox="0 0 109 126" enable-background="new 0 0 84.473 97.681" xml:space="preserve">
<rect y="0.001" width="84.472" height="84.473"/>
<rect x="32.464" y="74.096" transform="matrix(-0.7071 -0.7071 0.7071 -0.7071 12.1944 173.0286)" width="18.937" height="19.785"/>
<g>
	<defs>
		<rect id="SVGID_1_" width="84.472" height="97.681"/>
	</defs>
	<clipPath id="SVGID_2_">
		<use xlink:href="#SVGID_1_"  overflow="visible"/>
	</clipPath>
	<path clip-path="url(#SVGID_2_)" fill="#FFFFFF" d="M43.817,41.952h-9.659c0,10.749,8.713,19.461,19.462,19.461
		c6.299,0,11.897-2.996,15.454-7.637l-6.955-6.955c-1.69,2.945-4.859,4.934-8.499,4.934C48.206,51.755,43.817,47.366,43.817,41.952
		 M62.108,37.063l6.951-6.951c-2.33-3.032-5.531-5.36-9.232-6.605l-7.306,8.708c0.361-0.041,0.727-0.066,1.099-0.066
		C57.251,32.149,60.414,34.129,62.108,37.063"/>
</g>
<polygon fill="#FFFFFF" points="40.896,23.059 28.609,23.059 12.755,41.952 25.042,41.952 "/>
</svg>
