<?xml version="1.0" encoding="utf-8"?>
<!-- Generator: Adobe Illustrator 15.0.0, SVG Export Plug-In . SVG Version: 6.00 Build 0)  -->
<!DOCTYPE svg PUBLIC "-//W3C//DTD SVG 1.1//EN" "http://www.w3.org/Graphics/SVG/1.1/DTD/svg11.dtd">
<svg version="1.1" id="Warstwa_1" xmlns="http://www.w3.org/2000/svg" xmlns:xlink="http://www.w3.org/1999/xlink" x="0px" y="0px"
	 width="450.709px" height="79.246px" viewBox="0 0 450.709 79.246" enable-background="new 0 0 450.709 79.246"
	 xml:space="preserve">
<rect y="0" fill="#FFFFFF" width="450.708" height="79.246"/>
<g>
	<defs>
		<rect id="SVGID_1_" y="0" width="450.709" height="79.245"/>
	</defs>
	<clipPath id="SVGID_2_">
		<use xlink:href="#SVGID_1_"  overflow="visible"/>
	</clipPath>
	<path clip-path="url(#SVGID_2_)" d="M202.822,43.46c0-3.001-1.939-4.382-4.673-5.895l-2.204-1.222
		c-0.877-0.478-1.302-1.062-1.302-1.699c0-0.93,0.771-1.514,2.045-1.514c1.008,0,2.656,0.531,4.648,1.778v-4.407
		c-1.779-0.61-3.347-0.957-4.754-0.957c-3.718,0-6.134,2.233-6.134,5.178c0,2.231,1.168,3.984,3.637,5.366l1.276,0.717
		c1.937,1.087,3.132,1.646,3.132,2.946c0,1.036-0.955,1.834-2.574,1.834c-1.807,0-3.399-0.745-5.311-1.913l0.371,5.02
		c1.885,0.584,3.531,0.902,4.993,0.902C200.246,49.594,202.822,46.992,202.822,43.46"/>
</g>
<polygon points="219.614,34.113 219.605,30.182 203.182,30.182 203.182,34.113 209.157,34.113 209.157,48.984 213.644,48.984 
	213.644,34.113 "/>
<polygon points="238.005,30.184 233.251,30.184 228.924,36.132 224.993,30.184 219.577,30.184 226.294,40.061 226.294,48.984 
	230.755,48.984 230.755,39.875 "/>
<polygon points="250.374,48.984 250.374,44.947 243.044,44.947 243.044,30.184 238.556,30.184 238.556,48.984 "/>
<g>
	<defs>
		<rect id="SVGID_3_" y="0" width="450.709" height="79.245"/>
	</defs>
	<clipPath id="SVGID_4_">
		<use xlink:href="#SVGID_3_"  overflow="visible"/>
	</clipPath>
	<path clip-path="url(#SVGID_4_)" d="M274.404,47.682v-9.134h-7.992v3.823h3.558v2.735c-0.848,0.265-1.646,0.398-2.415,0.398
		c-3.373,0-5.737-2.47-5.737-6.054c0-3.372,2.47-5.922,5.842-5.922c1.965,0,3.638,0.85,5.337,2.55l0.479-4.7
		c-1.832-1.223-3.824-1.834-6.054-1.834c-5.895,0-10.145,4.277-10.145,10.065c0,5.761,4.25,9.985,9.957,9.985
		C269.491,49.595,271.882,48.956,274.404,47.682"/>
	<path clip-path="url(#SVGID_4_)" d="M292.728,48.984l-5.737-8.072c2.284-1.009,3.507-2.842,3.507-5.205
		c0-1.62-0.796-3.186-2.204-4.196c-1.619-1.168-3.48-1.327-5.868-1.327h-4.834v18.8h4.354v-7.382h0.64l5.017,7.382H292.728z
		 M286.38,36.158c0,1.7-1.196,2.655-3.479,2.655h-0.957v-5.204h0.745C285.16,33.608,286.38,34.273,286.38,36.158"/>
	<path clip-path="url(#SVGID_4_)" d="M311.977,39.583c0-2.788-0.955-5.282-2.787-7.142c-1.832-1.859-4.248-2.869-6.796-2.869
		c-2.551,0-4.968,1.01-6.746,2.841c-1.858,1.913-2.841,4.382-2.841,7.17c0,2.789,0.982,5.231,2.841,7.144
		c1.805,1.858,4.221,2.867,6.746,2.867c2.972,0,5.787-1.406,7.619-3.85C311.314,44.018,311.977,41.92,311.977,39.583
		 M307.357,39.583c0,3.346-2.204,5.764-4.964,5.764c-2.764,0-4.968-2.443-4.968-5.764c0-3.345,2.204-5.788,4.968-5.788
		C305.153,33.795,307.357,36.211,307.357,39.583"/>
	<path clip-path="url(#SVGID_4_)" d="M330.194,40.964V30.184h-4.011v10.781c0,3-1.327,4.516-3.663,4.516
		c-2.471,0-3.693-1.648-3.693-4.967v-10.33h-4.433v10.807c0,5.603,3.053,8.603,7.914,8.603
		C327.114,49.593,330.194,46.567,330.194,40.964"/>
	<path clip-path="url(#SVGID_4_)" d="M346.683,35.946c0-1.698-0.796-3.321-2.204-4.356c-1.618-1.194-3.45-1.406-5.865-1.406h-4.835
		v18.8h4.487v-6.878c0.292,0.027,0.584,0.027,0.876,0.027C343.868,42.133,346.683,39.663,346.683,35.946 M342.566,36.104
		c0,1.62-1.194,2.55-3.479,2.55h-0.822v-5.02h0.61C341.346,33.635,342.566,34.327,342.566,36.104"/>
</g>
<polygon points="120.484,49.701 120.484,29.87 116.341,29.87 116.341,40.539 104.632,29.572 104.207,29.572 104.207,48.982 
	108.348,48.982 108.348,38.734 120.086,49.701 "/>
<g>
	<defs>
		<rect id="SVGID_5_" y="0" width="450.709" height="79.245"/>
	</defs>
	<clipPath id="SVGID_6_">
		<use xlink:href="#SVGID_5_"  overflow="visible"/>
	</clipPath>
	<path clip-path="url(#SVGID_6_)" d="M141.589,39.583c0-2.788-0.956-5.282-2.788-7.142c-1.832-1.859-4.248-2.869-6.798-2.869
		c-2.55,0-4.965,1.01-6.745,2.841c-1.858,1.913-2.841,4.382-2.841,7.17c0,2.789,0.983,5.231,2.841,7.144
		c1.806,1.858,4.222,2.867,6.745,2.867c2.974,0,5.789-1.406,7.621-3.85C140.926,44.018,141.589,41.92,141.589,39.583
		 M136.969,39.583c0,3.346-2.204,5.764-4.966,5.764c-2.761,0-4.965-2.443-4.965-5.764c0-3.345,2.204-5.788,4.965-5.788
		C134.765,33.795,136.969,36.211,136.969,39.583"/>
</g>
<polygon points="183.545,30.184 178.792,30.184 174.464,36.132 170.534,30.184 165.117,30.184 171.835,40.061 171.835,48.984 
	176.296,48.984 176.296,39.875 "/>
<polygon points="141.229,30.184 145.322,30.184 148.761,40.998 151.83,30.189 153.338,30.189 153.357,30.189 154.865,30.189 
	157.932,40.998 161.373,30.184 165.465,30.184 159.174,49.593 156.623,49.593 153.347,38.681 150.073,49.593 147.52,49.593 "/>
<g>
	<defs>
		<rect id="SVGID_7_" y="0" width="450.709" height="79.245"/>
	</defs>
	<clipPath id="SVGID_8_">
		<use xlink:href="#SVGID_7_"  overflow="visible"/>
	</clipPath>
	<path clip-path="url(#SVGID_8_)" d="M355.01,34.475c1.747,0,3.096-1.434,3.096-3.108c0-1.712-1.288-3.107-3.096-3.107
		c-1.758,0-3.084,1.409-3.084,3.107C351.926,33.09,353.203,34.475,355.01,34.475 M355.01,33.836c-1.386,0-2.385-1.144-2.385-2.481
		c0-1.338,0.986-2.446,2.385-2.446s2.397,1.146,2.397,2.481C357.407,32.728,356.42,33.836,355.01,33.836 M356.457,33.126
		l-0.735-1.433c0.384-0.156,0.602-0.459,0.602-0.942c0-0.673-0.409-1.047-1.276-1.047h-1.29v3.422h0.807v-1.241h0.398l0.59,1.241
		H356.457z M354.563,31.234V30.33h0.266c0.52,0,0.639,0.121,0.639,0.471c0,0.253-0.109,0.433-0.639,0.433H354.563z"/>
</g>
<rect x="24.776" y="29.718" width="59.437" height="19.812"/>
<rect x="366.495" y="29.718" width="59.437" height="19.812"/>
</svg>
