<?xml version="1.0" encoding="utf-8"?>
<!-- Generator: Adobe Illustrator 15.0.0, SVG Export Plug-In . SVG Version: 6.00 Build 0)  -->
<!DOCTYPE svg PUBLIC "-//W3C//DTD SVG 1.1//EN" "http://www.w3.org/Graphics/SVG/1.1/DTD/svg11.dtd">
<svg version="1.1" id="Warstwa_1" xmlns="http://www.w3.org/2000/svg" xmlns:xlink="http://www.w3.org/1999/xlink" x="0px" y="0px"
	 width="90px" height="24px" viewBox="0 0 90 24" enable-background="new 0 0 90 24" xml:space="preserve">
<rect y="23.05" fill="#FFFFFF" width="90" height="0.9"/>
<path fill="#FFFFFF" d="M5.5,10.009c0.146,0.152,0.389,0.152,0.54,0c0.146-0.146,0.146-0.388,0-0.534L3.302,6.736h9.035
	c0.211,0,0.378-0.167,0.378-0.378c0-0.211-0.167-0.384-0.378-0.384H3.302L6.04,3.242c0.146-0.151,0.146-0.394,0-0.54
	c-0.151-0.151-0.394-0.151-0.54,0L2.114,6.088c-0.151,0.145-0.151,0.389,0,0.535L5.5,10.009z"/>
</svg>
