<?xml version="1.0" encoding="utf-8"?>
<!-- Generator: Adobe Illustrator 15.0.0, SVG Export Plug-In . SVG Version: 6.00 Build 0)  -->
<!DOCTYPE svg PUBLIC "-//W3C//DTD SVG 1.1//EN" "http://www.w3.org/Graphics/SVG/1.1/DTD/svg11.dtd">
<svg version="1.1" id="Warstwa_1" xmlns="http://www.w3.org/2000/svg" xmlns:xlink="http://www.w3.org/1999/xlink" x="0px" y="0px"
	 width="90px" height="24px" viewBox="0 0 90 24" enable-background="new 0 0 90 24" xml:space="preserve">
<rect y="23.05" fill="#FFFFFF" width="90" height="0.9"/>
<path fill="#FFFFFF" d="M84.5,2.703c-0.146-0.152-0.39-0.152-0.541,0c-0.146,0.146-0.146,0.388,0,0.534l2.738,2.738h-9.035
	c-0.211,0-0.377,0.167-0.377,0.378c0,0.211,0.166,0.384,0.377,0.384h9.035L83.959,9.47c-0.146,0.151-0.146,0.394,0,0.54
	c0.151,0.151,0.395,0.151,0.541,0l3.385-3.386c0.152-0.145,0.152-0.389,0-0.535L84.5,2.703z"/>
</svg>
