<?xml version="1.0" encoding="utf-8"?>
<!-- Generator: Adobe Illustrator 15.0.0, SVG Export Plug-In . SVG Version: 6.00 Build 0)  -->
<!DOCTYPE svg PUBLIC "-//W3C//DTD SVG 1.1//EN" "http://www.w3.org/Graphics/SVG/1.1/DTD/svg11.dtd">
<svg version="1.1" id="Warstwa_1" xmlns="http://www.w3.org/2000/svg" xmlns:xlink="http://www.w3.org/1999/xlink" x="0px" y="0px"
	 width="30px" height="30px" viewBox="0 0 30 30" enable-background="new 0 0 30 30" xml:space="preserve">
<circle fill="#515050" cx="14.947" cy="15" r="14.967"/>
<g>
	<path fill="#FFFFFF" d="M19.096,23.086c-1.508,0-2.734-1.227-2.734-2.734c0-2.455-0.767-3.344-1.508-4.199
		c-0.693-0.804-1.41-1.634-1.41-3.584c0-3.116,2.534-5.653,5.652-5.653c3.117,0,5.652,2.537,5.652,5.653h-0.605
		c0-2.783-2.264-5.048-5.047-5.048c-2.784,0-5.048,2.265-5.048,5.048c0,1.726,0.585,2.402,1.264,3.188
		c0.775,0.898,1.654,1.916,1.654,4.596c0,1.174,0.955,2.129,2.13,2.129c1.174,0,2.129-0.955,2.129-2.129h0.604
		C21.829,21.859,20.603,23.086,19.096,23.086z"/>
	<path fill="#FFFFFF" d="M20.068,19.193c-0.972,0-1.762-0.789-1.762-1.762h0.604c0,0.639,0.519,1.158,1.157,1.158
		c0.638,0,1.156-0.52,1.156-1.158s-0.519-1.156-1.156-1.156h-0.973c-2.044,0-3.708-1.663-3.708-3.707
		c0-2.044,1.664-3.707,3.708-3.707s3.707,1.663,3.707,3.707h-0.604c0-1.71-1.393-3.103-3.103-3.103
		c-1.711,0-3.104,1.391-3.104,3.103c0,1.711,1.393,3.102,3.104,3.102h0.973c0.972,0,1.762,0.791,1.762,1.762
		C21.83,18.404,21.04,19.193,20.068,19.193z"/>
	
		<rect x="8.735" y="18.488" transform="matrix(0.5137 0.858 -0.858 0.5137 22.6915 2.6161)" fill="#FFFFFF" width="0.606" height="5.672"/>
	
		<rect x="6.202" y="8.374" transform="matrix(0.8575 0.5145 -0.5145 0.8575 5.7516 -3.4134)" fill="#FFFFFF" width="5.672" height="0.605"/>
	<rect x="5.147" y="14.698" fill="#FFFFFF" width="4.864" height="0.604"/>
</g>
</svg>
