<?xml version="1.0" encoding="utf-8"?>
<!-- Generator: Adobe Illustrator 15.0.0, SVG Export Plug-In . SVG Version: 6.00 Build 0)  -->
<!DOCTYPE svg PUBLIC "-//W3C//DTD SVG 1.1//EN" "http://www.w3.org/Graphics/SVG/1.1/DTD/svg11.dtd">
<svg version="1.1" id="Warstwa_1" xmlns="http://www.w3.org/2000/svg" xmlns:xlink="http://www.w3.org/1999/xlink" x="0px" y="0px"
	 width="30px" height="30px" viewBox="0 0 30 30" enable-background="new 0 0 30 30" xml:space="preserve">
<circle fill="#515050" cx="15" cy="15" r="14.967"/>
<g>
	<path fill="#FFFFFF" d="M20.946,24.016H9.052c-2.699,0-3.398-2.006-3.427-2.091c-0.032-0.097-0.016-0.201,0.043-0.282
		c0.059-0.083,0.153-0.131,0.254-0.131h4.382v0.627h-3.87c0.327,0.493,1.079,1.251,2.618,1.251h11.894
		c1.529,0,2.285-0.759,2.616-1.251h-3.867v-0.627h4.382c0.101,0,0.194,0.048,0.253,0.131c0.061,0.081,0.074,0.186,0.045,0.282
		C24.346,22.01,23.646,24.016,20.946,24.016"/>
	<path fill="#FFFFFF" d="M19.068,20.886h-8.138v-0.313c0-0.898-0.356-1.639-0.806-2.574c-0.716-1.492-1.699-3.536-1.699-7.441
		v-0.313h5.947v0.626H9.054c0.049,3.556,0.926,5.382,1.635,6.857c0.417,0.869,0.785,1.633,0.854,2.533h6.911
		c0.07-0.9,0.437-1.664,0.855-2.533c0.708-1.475,1.584-3.301,1.634-6.857h-7.51v-0.626h8.138v0.313c0,3.905-0.981,5.949-1.698,7.441
		c-0.45,0.936-0.806,1.676-0.806,2.574V20.886z"/>
	<path fill="#FFFFFF" d="M23.138,19.008h-0.626v-6.886h0.626c0.691,0,1.253,0.562,1.253,1.252v4.382
		C24.391,18.446,23.829,19.008,23.138,19.008 M23.138,12.748v5.634c0.346,0,0.627-0.28,0.627-0.626v-4.382
		C23.765,13.028,23.483,12.748,23.138,12.748"/>
	<rect x="21.26" y="12.122" fill="#FFFFFF" width="1.565" height="0.626"/>
	<rect x="19.381" y="18.382" fill="#FFFFFF" width="3.444" height="0.626"/>
	<polygon fill="#FFFFFF" points="19.068,22.139 10.931,22.139 10.931,20.572 11.556,20.572 11.556,21.512 18.442,21.512 
		18.442,20.572 19.068,20.572 	"/>
	<path fill="#FFFFFF" d="M15.938,9.618h-0.626c0-0.691,0.563-1.252,1.252-1.252h1.878c0.345,0,0.626-0.281,0.626-0.626
		c0-0.346-0.281-0.626-0.626-0.626h-7.199c-0.69,0-1.252-0.562-1.252-1.252c0-0.69,0.562-1.252,1.252-1.252h4.695
		c0.345,0,0.626-0.281,0.626-0.626h0.626c0,0.69-0.561,1.252-1.252,1.252h-4.695c-0.346,0-0.626,0.281-0.626,0.625
		c0,0.345,0.28,0.626,0.626,0.626h7.199c0.691,0,1.253,0.562,1.253,1.252c0,0.69-0.562,1.252-1.253,1.252h-1.878
		C16.219,8.992,15.938,9.272,15.938,9.618"/>
	<path fill="#FFFFFF" d="M13.122,7.114c-0.69,0-1.252-0.562-1.252-1.252c0-0.69,0.562-1.252,1.252-1.252v0.626
		c-0.346,0-0.626,0.281-0.626,0.625c0,0.345,0.28,0.626,0.626,0.626V7.114z"/>
	<path fill="#FFFFFF" d="M14.06,9.618h-0.625c0-0.691,0.562-1.252,1.252-1.252h2.191v0.626h-2.191
		C14.341,8.992,14.06,9.272,14.06,9.618"/>
</g>
</svg>
