<?xml version="1.0" encoding="utf-8"?>
<!-- Generator: Adobe Illustrator 15.0.0, SVG Export Plug-In . SVG Version: 6.00 Build 0)  -->
<!DOCTYPE svg PUBLIC "-//W3C//DTD SVG 1.1//EN" "http://www.w3.org/Graphics/SVG/1.1/DTD/svg11.dtd">
<svg version="1.1" id="Warstwa_1" xmlns="http://www.w3.org/2000/svg" xmlns:xlink="http://www.w3.org/1999/xlink" x="0px" y="0px"
	 width="283.46px" height="283.46px" viewBox="0 0 283.46 283.46" enable-background="new 0 0 283.46 283.46" xml:space="preserve">
<path fill="#FFFFFF" d="M282.957,58.217c-10.42,4.613-21.59,7.698-33.334,9.123c12.002-7.18,21.201-18.531,25.533-32.063
	c-11.252,6.635-23.615,11.458-36.859,14.049C227.746,38.076,212.662,31,195.969,31c-32.01,0-57.942,25.998-57.942,57.983
	c0,4.562,0.479,8.968,1.49,13.218C91.319,99.766,48.603,76.697,20.001,41.628c-4.99,8.578-7.867,18.531-7.867,29.16
	c0,20.113,10.251,37.843,25.803,48.261c-9.5-0.31-18.441-2.928-26.27-7.256v0.726c0,28.096,19.984,51.528,46.526,56.841
	c-4.86,1.349-9.979,2.049-15.292,2.049c-3.746,0-7.349-0.338-10.912-1.037c7.387,23.042,28.796,39.813,54.172,40.279
	c-19.854,15.551-44.854,24.804-72.005,24.804c-4.666,0-9.318-0.259-13.828-0.804c25.634,16.434,56.142,26.05,88.865,26.05
	c106.674,0,164.994-88.333,164.994-164.979c0-2.488-0.08-5.027-0.184-7.491C265.357,80.066,275.207,69.854,282.957,58.217"/>
</svg>
