<?xml version="1.0" encoding="utf-8"?>
<!-- Generator: Adobe Illustrator 15.0.0, SVG Export Plug-In . SVG Version: 6.00 Build 0)  -->
<!DOCTYPE svg PUBLIC "-//W3C//DTD SVG 1.1//EN" "http://www.w3.org/Graphics/SVG/1.1/DTD/svg11.dtd">
<svg version="1.1" id="Warstwa_1" xmlns="http://www.w3.org/2000/svg" xmlns:xlink="http://www.w3.org/1999/xlink" x="0px" y="0px"
	 width="30px" height="30px" viewBox="0 0 30 30" enable-background="new 0 0 30 30" xml:space="preserve">
<circle fill="#515050" cx="15.033" cy="15" r="14.967"/>
<g>
	<path fill="#FFFFFF" d="M14.977,24.825c-0.049-0.011-1.215-0.287-4.417-1.173c-1.057-0.293-1.802-0.876-2.215-1.735
		C7.54,20.241,8.28,17.984,8.792,16.79c0.614-1.433,5.102-11.2,5.292-11.616l1.101,0.506c-0.048,0.102-4.673,10.169-5.28,11.586
		c-0.348,0.811-1.089,2.836-0.468,4.128c0.258,0.537,0.73,0.894,1.445,1.092c3.171,0.877,4.36,1.158,4.371,1.161L14.977,24.825z"/>
	<path fill="#FFFFFF" d="M19.627,23.491c-1.01,0-1.986-0.714-2.566-1.14l-0.226-0.163c-0.544-0.388-1.611-0.032-1.943,0.124
		l-0.518-1.095c0.196-0.093,1.947-0.883,3.165-0.015l0.236,0.173c1.309,0.957,2.001,1.245,2.642,0.427
		c0.348-0.444,0.492-0.844,0.44-1.222c-0.063-0.457-0.431-0.935-1.089-1.417c-0.968-0.71-1.623-1.043-1.63-1.046l0.542-1.083
		c0.03,0.016,0.745,0.375,1.805,1.152c0.946,0.694,1.46,1.423,1.571,2.229c0.097,0.708-0.134,1.426-0.687,2.132
		C20.826,23.244,20.22,23.491,19.627,23.491z"/>
</g>
</svg>
