<svg xmlns="http://www.w3.org/2000/svg" viewBox="0 0 341.93 243.1"><defs><style>.cls-1{fill:#1d1d1b;opacity:.1}.cls-2{fill:#fff}</style></defs><g id="Warstwa_2" data-name="Warstwa 2"><g id="Layer_1" data-name="Layer 1"><path class="cls-1" d="M145.77 239.21c-1.35 1.78-3.15 3.27-5 3.27-1.63 0-2.62-1.29-2.62-3.41 0-5.95 5.44-10.71 11.19-10.71a7.72 7.72 0 014 .85s-3.27 7-3.27 10.17a1.83 1.83 0 001.07 1.89 8.27 8.27 0 01-4.18 1.44c-1 0-1.49-.56-1.49-1.72a9.21 9.21 0 01.25-1.78m2.85-8.65c-3.27.17-6 4.09-6 7.53 0 .62.2 1.12.77 1.12 2.39 0 4.36-6.34 5.21-8.65m16.17 9.05c2.42 0 4.73-5.84 4.73-8.68 0-2.2-.62-2.8-.62-2.8a3.85 3.85 0 011.13-.19c2.09 0 3.47 1.24 3.47 3.78 0 3.83-5 10.91-10.52 10.91-1.83 0-2.73-1.16-2.73-3v-.26c-1.24 1.75-3 3.25-4.93 3.25-1.75 0-2.71-1.13-2.71-2.91a10 10 0 01.93-3.83l2.68-6.71a13.29 13.29 0 013.44-.62c.87 0 1.13.31 1.13 1.15 0 2.46-3.84 7.16-3.84 9.28a.58.58 0 00.59.62c1.58 0 3-2.37 4-5.27l1.86-5.16a10.57 10.57 0 013.27-.62c.87 0 1.15.31 1.15 1.15 0 2.46-3.61 7.16-3.61 9.28a.55.55 0 00.57.62m10.83-7.18a1.82 1.82 0 01-1.07-1.69 2.42 2.42 0 01.45-1.41 4.58 4.58 0 001.81.51l1.6-3.61a7.31 7.31 0 012.91-.62c.62 0 .87.28.87.79a13.52 13.52 0 01-1.18 3.63 12.41 12.41 0 003.41-.62 2.94 2.94 0 01.08.71c0 2.23-1.35 3.1-4.85 3.1a15.49 15.49 0 00-1.41 4.48c0 .79.37 1.05 1.05 1.05a3.33 3.33 0 002.45-1.53 1.26 1.26 0 01.4 1c0 1.71-2.29 4.34-5.53 4.42-2.28 0-3.35-1-3.35-3s1.12-4.35 2.22-6.88zm16.18-.48a2.82 2.82 0 012.09-1 2 2 0 012.17 2.29c0 3.83-3.92 9.44-8.71 9.44-2.4 0-3.72-1.44-3.72-4 0-5.42 4.57-10.32 9-10.32 3 0 3.25 2.31 3.25 2.31a4.41 4.41 0 00-1.84-.45c-3.27 0-5.83 3.81-5.83 7.27 0 1.19.48 1.89 1.49 1.89 1.72 0 3.3-3.1 3.3-5.58 0-1.66-1.16-1.86-1.16-1.86m7.63-2.78a6.49 6.49 0 012.71-.56c.9 0 1.21.31 1.21 1.1a8.69 8.69 0 01-.45 2.19c1.41-1.74 3.38-3.24 5.27-3.24 1.69 0 2.57 1.16 2.57 3 0 2.88-3.24 6.54-3.24 8.57 0 1.3.76 1.35.76 1.35a11 11 0 01-4.12.93c-1.21 0-1.94-.56-1.94-1.6 0-2.77 4.28-6.71 4.28-8.6 0-.34-.17-.62-.53-.62-2.82 0-5.67 6.54-6.18 10.06a8.28 8.28 0 01-3.16.71c-.81 0-1.15-.31-1.15-1a16.43 16.43 0 011.15-4.35zM218 239.21c-1.36 1.78-3.16 3.27-5 3.27-1.64 0-2.62-1.29-2.62-3.41 0-5.95 5.44-10.71 11.19-10.71a7.7 7.7 0 014 .85s-3.27 7-3.27 10.17a1.83 1.83 0 001.07 1.89 8.21 8.21 0 01-4.17 1.44c-1.05 0-1.5-.56-1.5-1.72a8.88 8.88 0 01.26-1.78m2.84-8.65c-3.27.17-6 4.09-6 7.53 0 .62.19 1.12.76 1.12 2.4 0 4.37-6.34 5.21-8.65m-90.92-8.09c-5.75 0-10.29 2.87-10.29 7a3.08 3.08 0 002.84 3.07 7.54 7.54 0 013.5-6.28c-.92 3.3-3.81 8.66-5.17 12.05l-.12.26c0 .11-.1.28-.16.47a11.33 11.33 0 00-.35 1.11 5.94 5.94 0 01-3.08-1.56l-.36-.35c-.07.05-.12.22-.12.61a4 4 0 002 3.05 10.36 10.36 0 004.9 1.22h.85c7.27 0 14.41-6.48 14.41-13.87.03-4.61-3.36-6.78-8.85-6.78zm-4.68 18.24c1-3.61 3.8-8.77 5.78-15.76 1.72.25 3 1.41 3 3.8-.04 5.33-4.27 11.62-8.78 11.96zM21.07 107.94c.29.12 4.15 1.3 4.54 1.39a1.15 1.15 0 00.31 0 .82.82 0 00.8-.51l3.84-9.38a2.1 2.1 0 00.09-1.34.75.75 0 00-.42-.4c-.19-.07-5.53-1.31-5.59-1.32-1-.23-1.29.91-1.52 1.74l-.05.18c-.21.78-2.3 8.57-2.35 8.77a.7.7 0 00.35.87zm63.15-71.22A17.16 17.16 0 0079 24.5c-3.28-3.17-7.6-4.68-12.84-4.5l-12.33.43a17.88 17.88 0 00-4.17.43 1.27 1.27 0 00-.77 1.36l2.56 73.23a1.37 1.37 0 00.92 1.36 9.16 9.16 0 002.49.22h1.64l12.34-.44c5.24-.18 9.44-2 12.49-5.32a16.88 16.88 0 004.34-12.39zM74 84.83a7.13 7.13 0 01-5.49 2.41l-6.44.22a.87.87 0 01-.66-.22.89.89 0 01-.27-.65l-2-56.54a1 1 0 01.2-.69.93.93 0 01.67-.24l6.22-.22h.39a7.33 7.33 0 015.36 2 8.24 8.24 0 012.32 5.82L75.81 79A8.31 8.31 0 0174 84.83zm84.08-.26c.57 0 1.14.06 1.69.06a16.42 16.42 0 0011.42-4.14 17.53 17.53 0 005.67-12.18l4.27-59.4a1.28 1.28 0 00-.73-1.4 17.92 17.92 0 00-4.2-.59 18.13 18.13 0 00-4.25 0 1.28 1.28 0 00-.95 1.27l-4.29 59.72a8 8 0 01-2.37 5.49 7 7 0 01-5.5 1.75 7.3 7.3 0 01-5.37-2.53 7.93 7.93 0 01-1.62-5.78l4.3-59.72a1.27 1.27 0 00-.73-1.4 17.36 17.36 0 00-4.2-.59 18.13 18.13 0 00-4.25 0 1.28 1.28 0 00-.92 1.28l-4.26 59.4a17.56 17.56 0 003.86 12.87c2.96 3.52 7.13 5.51 12.43 5.89zm49.75 11.72h.1a15.64 15.64 0 0010.56-3.72.6.6 0 01.69-.15.74.74 0 01.5.54l.23 1.34a1 1 0 001.08.83h3.43a1.09 1.09 0 00.8-.27 1.12 1.12 0 00.27-.81l-.16-39.51a1.39 1.39 0 00-.84-1.46 17.48 17.48 0 00-4.12-.26h-7.86a14.13 14.13 0 00-4.12.36 1.37 1.37 0 00-.82 1.4v2.55a6.66 6.66 0 00.47 3.2c.31.42 1.09.7 2.38.85l4 .65c.56.13.83.43.83.91l.07 16a8.41 8.41 0 01-1.95 5.82 6.87 6.87 0 01-5.37 2.27 7.29 7.29 0 01-5.54-2.11 7.9 7.9 0 01-2.05-5.64l-.18-45.82a8 8 0 011.94-5.71 7.39 7.39 0 015.58-2.1 7.08 7.08 0 015.38 2.06 8 8 0 012 5.69v8.19a1.39 1.39 0 00.89 1.4 15.07 15.07 0 004.18.32 14.17 14.17 0 004.13-.36 1.36 1.36 0 00.81-1.4V33.6a17.09 17.09 0 00-4.78-12.38c-3.15-3.19-7.44-4.8-12.75-4.78s-9.6 1.72-12.76 5a17.56 17.56 0 00-4.73 12.59l.18 44.71a17.5 17.5 0 004.84 12.54c3.15 3.34 7.42 5.01 12.69 5.01zm33.31-6.65a10.51 10.51 0 003-.25A1.38 1.38 0 00245 88l1.72-74.25a1.27 1.27 0 00-.79-1.37 18.33 18.33 0 00-4.23-.38 17.57 17.57 0 00-4.23.19 1.25 1.25 0 00-.86 1.32l-1.73 74.25a1.35 1.35 0 00.85 1.42 14.67 14.67 0 004.17.44zm21.54-2.12a1.37 1.37 0 001 1.33 5.48 5.48 0 001.55.15c.68 0 1.56 0 2.64-.13l22.84-1.74a1.29 1.29 0 001.29-.87 15.82 15.82 0 000-4 15.73 15.73 0 00-.58-3.92 1.29 1.29 0 00-1.4-.67L273.1 79a.86.86 0 01-1-.85l-1.84-24a.81.81 0 01.84-1L285.69 52a1.21 1.21 0 001.18-.86 14.49 14.49 0 000-3.75 14.48 14.48 0 00-.56-3.7A1.2 1.2 0 00285 43l-14.57 1.11a.83.83 0 01-.68-.2.87.87 0 01-.3-.64L267.75 21a.81.81 0 01.85-1l17-1.29a1.2 1.2 0 001.17-.87 14.24 14.24 0 000-3.74 14.91 14.91 0 00-.57-3.71 1.2 1.2 0 00-1.29-.67l-23 1.75a18 18 0 00-4.19.6 1.28 1.28 0 00-.73 1.41zM22 114.11a16.3 16.3 0 00-12.72 4.1 17.65 17.65 0 00-5.64 12.19 27 27 0 00.66 8.73 24.92 24.92 0 003.88 8 90.34 90.34 0 008.45 9.87 59.24 59.24 0 015.66 6.77 15.93 15.93 0 012.43 5.37 21.78 21.78 0 01.32 6.27c-.22 3.06-1 5.37-2.42 6.88a6.67 6.67 0 01-5.68 2 6.69 6.69 0 01-5.4-2.77c-1.12-1.67-1.57-4.12-1.35-7.29l.5-6.95a1.28 1.28 0 00-.69-1.38 18.27 18.27 0 00-4.21-.58 17.49 17.49 0 00-4.24 0 1.26 1.26 0 00-.92 1.28L.07 174c-.39 5.44.87 10.05 3.75 13.69s7.11 5.7 12.55 6.09c.55 0 1.08.06 1.61.06a15.85 15.85 0 0011.47-4.42c3.38-3.27 5.3-7.8 5.7-13.46a30.85 30.85 0 00-.68-9.84 26 26 0 00-4-8.3 90.38 90.38 0 00-8.45-9.93 63.39 63.39 0 01-5.92-7.08 14.14 14.14 0 01-2.34-5 20.64 20.64 0 01-.22-5.43 8.06 8.06 0 012.37-5.49 7 7 0 015.51-1.75 6.86 6.86 0 015.09 2.51 8.08 8.08 0 011.56 5.77l-.59 8.17a1.39 1.39 0 00.72 1.46 14.36 14.36 0 004.09.63 14.77 14.77 0 004.2 0 1.37 1.37 0 001-1.33l.56-7.73a17.05 17.05 0 00-3.83-12.7c-2.9-3.51-7.02-5.44-12.22-5.81zM81.44 123a18 18 0 00-4.23-.15 18.21 18.21 0 00-4.23.41 1.28 1.28 0 00-.78 1.37l1.46 47.46c0 .34-.07.53-.26.6a.19.19 0 01-.15 0c-.07 0-.19-.15-.32-.49l-4.43-14.39L57.86 125a1.94 1.94 0 00-1.2-1.29 16 16 0 00-3.9-.16h-1.33a17.31 17.31 0 00-4.22.42 1.26 1.26 0 00-.79 1.37l2.29 74.23a1.35 1.35 0 00.92 1.37 9.28 9.28 0 002.67.24h1.52a15.24 15.24 0 004.17-.46 1.38 1.38 0 00.84-1.43l-1.5-48.46c0-.33.09-.53.31-.6a.2.2 0 01.19 0c.1.05.18.22.23.47L62 164l11.5 34.9a2 2 0 001.2 1.4 15.82 15.82 0 003.9.16h1a14.69 14.69 0 004.17-.47 1.37 1.37 0 00.83-1.43l-2.29-74.26a1.26 1.26 0 00-.87-1.3zm25.96-7.57a18.25 18.25 0 00-4.2-.55 18.36 18.36 0 00-4.25 0 1.28 1.28 0 00-.91 1.29l-4.63 74.13a1.38 1.38 0 00.79 1.45 15 15 0 004.16.6c.94.06 1.74.09 2.38.09a6.59 6.59 0 001.81-.17 1.35 1.35 0 001-1.34l4.63-74.13a1.26 1.26 0 00-.78-1.37zm27.4 12.82a1.45 1.45 0 00-1-1.33 18 18 0 00-4.23-.25h-2.77c-1.31 0-2.38.06-3.16.14a3.1 3.1 0 00-1.54.42 1.71 1.71 0 00-.46 1.1l-12.82 74.37a1.22 1.22 0 00.78 1.41 13.47 13.47 0 003.7.3h.48a18.23 18.23 0 004.18-.31 1.52 1.52 0 001-1.45l1.9-12a1.74 1.74 0 01.94-1.39 13.23 13.23 0 013.84-.36h6.2a12.59 12.59 0 013.79.29 1.8 1.8 0 01.9 1.38l2.09 11.93a1.54 1.54 0 001 1.38 14.49 14.49 0 004.13.31 15.72 15.72 0 004.29-.37 1.09 1.09 0 00.64-1.42zm-.65 51.47a11.83 11.83 0 01-3.24.29h-4.53a11.61 11.61 0 01-3.19-.25.78.78 0 01-.51-1.07l5-33.24c.28-1.05.5-1.16.58-1.16.32 0 .55.38.7 1.14l5.68 33.16a.91.91 0 01-.49 1.13zM187 134.51a17.43 17.43 0 00-5.64-12.22c-3.42-3.11-7.84-4.51-13.14-4.17l-12.48.81a18.37 18.37 0 00-4.21.55 1.28 1.28 0 00-.73 1.4l4.8 74.12a1.38 1.38 0 001 1.35 6.8 6.8 0 001.76.16c.65 0 1.46 0 2.43-.1l12.48-.8c5.3-.35 9.51-2.29 12.5-5.77a17.15 17.15 0 004-12.69zm-14.38 51.65l-6.51.42a.87.87 0 01-.68-.21.9.9 0 01-.3-.64l-3.7-57.22a.93.93 0 01.18-.7 1 1 0 01.68-.27l6.29-.41h.7a7.37 7.37 0 015.19 1.89 8.33 8.33 0 012.52 5.83l2.76 42.74a8.43 8.43 0 01-1.64 6 7.24 7.24 0 01-5.48 2.57zm44.79-62.1a1.46 1.46 0 00-1-1.31 17.61 17.61 0 00-4.24-.17l-2.76.08c-1.31 0-2.38.1-3.16.2a3.09 3.09 0 00-1.53.45 1.69 1.69 0 00-.44 1.11L193 199a1.22 1.22 0 00.8 1.39 10 10 0 002.78.24h1.41a18.09 18.09 0 004.17-.39 1.52 1.52 0 001-1.48l1.66-12a1.76 1.76 0 01.91-1.41 13.38 13.38 0 013.84-.43l6.19-.17a12.5 12.5 0 013.79.22 1.78 1.78 0 01.94 1.36l2.32 11.89a1.54 1.54 0 001.08 1.36 15 15 0 004.13.22 15.54 15.54 0 004.28-.45 1.09 1.09 0 00.62-1.44zm.37 51.47a11.92 11.92 0 01-3.23.36L210 176a11.81 11.81 0 01-3.19-.18c-.48-.16-.65-.5-.53-1.06l4.4-33.33c.25-1.06.47-1.18.55-1.18.32 0 .56.38.72 1.13l6.34 33a.91.91 0 01-.51 1.15zm61.51-60.04a18 18 0 00-4.2-.58 18.29 18.29 0 00-4.24 0 1.28 1.28 0 00-.92 1.29l-3.4 47.36c0 .33-.13.52-.32.57a.19.19 0 01-.15 0c-.08 0-.18-.17-.27-.51l-2.93-14.75-7.24-33.7a2 2 0 00-1.06-1.41 16.07 16.07 0 00-3.87-.56l-1.32-.09a18 18 0 00-4.24 0 1.28 1.28 0 00-.93 1.28l-5.32 74.08a1.36 1.36 0 00.78 1.46 14.73 14.73 0 004.15.64 15.1 15.1 0 004.19 0 1.37 1.37 0 001-1.34l3.47-48.35c0-.33.15-.52.37-.56a.2.2 0 01.19 0c.09.06.15.23.18.49l2.57 13.62 7.85 35.85a2 2 0 001.05 1.51 15.37 15.37 0 003.87.56l1 .07c1 .08 1.89.12 2.56.12a6 6 0 001.63-.15 1.37 1.37 0 001-1.34l5.26-74.16a1.27 1.27 0 00-.71-1.4zm19.33 10.01a17.69 17.69 0 00-4.22-.33 18.25 18.25 0 00-4.24.24 1.28 1.28 0 00-.84 1.34l-.76 74.25a1.36 1.36 0 00.87 1.41 14.43 14.43 0 004.17.38h.63a12.48 12.48 0 003.55-.3 1.38 1.38 0 00.9-1.39l.76-74.27a1.27 1.27 0 00-.82-1.33zm43.18 61.41a15.44 15.44 0 00-.58-3.93 1.27 1.27 0 00-1.4-.66l-16.89 1.29a.9.9 0 01-.68-.21.87.87 0 01-.3-.64l-1.84-24.06a.81.81 0 01.85-1l14.56-1.11a1.21 1.21 0 001.18-.87 14.43 14.43 0 000-3.74 14.6 14.6 0 00-.56-3.71 1.2 1.2 0 00-1.29-.67l-14.57 1.11a.87.87 0 01-.68-.2.84.84 0 01-.31-.64l-1.7-22.29a.8.8 0 01.84-1l17-1.3a1.19 1.19 0 001.17-.86 14.3 14.3 0 000-3.75 13.86 13.86 0 00-.6-3.67 1.18 1.18 0 00-1.29-.67l-23 1.75a18.18 18.18 0 00-4.2.6 1.27 1.27 0 00-.72 1.41l5.66 74a1.36 1.36 0 001 1.33 5.63 5.63 0 001.55.14c.69 0 1.56 0 2.65-.12l22.84-1.75a1.28 1.28 0 001.29-.87 16 16 0 00.02-3.91z"/><path class="cls-1" d="M114.09 47.33c.16 4 1.37 24.62 9.88 41.57a33.77 33.77 0 0020.62 17.43 42.26 42.26 0 0012.59 1.84 45 45 0 0019.6-4.39 1.58 1.58 0 00.63-2.17c-.3-.64-3-5.49-3.34-6s-1.48-.48-1.95-.26a35.35 35.35 0 01-11.37 3 33.77 33.77 0 01-13.29-1.23 24 24 0 01-14.86-12.55c-7.84-15.62-8.8-36.13-8.87-37.77v-.08c0-.34.15-.67.59-1a12.33 12.33 0 005.22-4.37 13.31 13.31 0 002.26-6.59L132.94 19a12.71 12.71 0 00-3.16-9.55 12.71 12.71 0 00-9-4.5l-15.24-1.1a18 18 0 00-4.24 0 1.28 1.28 0 00-.92 1.29l-5.32 74.04a1.38 1.38 0 00.77 1.47 15.28 15.28 0 004.15.63 14.67 14.67 0 004.19 0 1.37 1.37 0 001-1.33l2.35-32.68a.81.81 0 011-.85l4.86.35q.62.01.71.56zm-5-9.94a.9.9 0 01-.64-.3.87.87 0 01-.2-.68l1.6-22.3c0-.57.32-.85.86-.85h.12l6.62.48a5.63 5.63 0 014.45 2.18 8.12 8.12 0 011.15 5.35l-.71 9.83c-.34 4.78-2.61 7.06-6.73 6.76z"/><path class="cls-2" d="M21.07 104.22c.29.13 4.15 1.3 4.54 1.4a1.76 1.76 0 00.31 0 .82.82 0 00.8-.52l3.84-9.38a2.07 2.07 0 00.09-1.33.77.77 0 00-.42-.41c-.23.02-5.53-1.27-5.59-1.28-1-.23-1.29.91-1.52 1.75l-.05.17c-.21.78-2.3 8.57-2.35 8.78a.68.68 0 00.35.82zM84.09 33a17.18 17.18 0 00-5.2-12.22c-3.28-3.16-7.6-4.68-12.83-4.49l-12.34.43a18 18 0 00-4.16.42 1.25 1.25 0 00-.77 1.36l2.56 73.24a1.34 1.34 0 00.91 1.35 8.89 8.89 0 002.5.22h1.64l12.33-.43c5.24-.18 9.44-2 12.49-5.32a16.85 16.85 0 004.35-12.4zm-10.2 48.12a7.14 7.14 0 01-5.48 2.4l-6.41.23a.9.9 0 01-.67-.23.88.88 0 01-.27-.64l-2-56.54a.89.89 0 01.19-.69 1 1 0 01.68-.25l6.22-.22h.38a7.39 7.39 0 015.37 2A8.21 8.21 0 0174.21 33l1.48 42.24a8.35 8.35 0 01-1.8 5.88zm84.46-.27c.58 0 1.14.06 1.7.06a16.38 16.38 0 0011.41-4.13 17.53 17.53 0 005.67-12.19L181.4 5.2a1.29 1.29 0 00-.73-1.41 18 18 0 00-4.2-.58 17.45 17.45 0 00-4.24 0 1.26 1.26 0 00-.92 1.28L167 64.2a8 8 0 01-2.38 5.49 7 7 0 01-5.5 1.74 7.28 7.28 0 01-5.36-2.53 7.86 7.86 0 01-1.62-5.77l4.31-59.73a1.28 1.28 0 00-.73-1.4 18 18 0 00-4.2-.58 17.68 17.68 0 00-4.24 0 1.28 1.28 0 00-.92 1.29l-4.27 59.39A17.51 17.51 0 00146 74.94c2.88 3.54 7.05 5.53 12.35 5.91zm49.46 11.72h.11a15.63 15.63 0 0010.55-3.72.6.6 0 01.69-.15.76.76 0 01.51.55l.23 1.33a1 1 0 001.07.83h3.43a1.1 1.1 0 00.81-.28 1.09 1.09 0 00.26-.8l-.16-39.52a1.35 1.35 0 00-.83-1.45 17.37 17.37 0 00-4.12-.27h-7.86a14.32 14.32 0 00-4.13.35 1.38 1.38 0 00-.81 1.41v2.54a6.53 6.53 0 00.47 3.2c.31.43 1.09.71 2.38.85l4 .65a.93.93 0 01.83.92l.06 16a8.38 8.38 0 01-1.95 5.83 6.86 6.86 0 01-5.35 2.2 7.25 7.25 0 01-5.55-2.04 7.88 7.88 0 01-2-5.63l-.19-45.83a8 8 0 011.95-5.71 7.38 7.38 0 015.58-2.1 7.09 7.09 0 015.37 2.06 8 8 0 012 5.69v8.19a1.37 1.37 0 00.88 1.4 14.71 14.71 0 004.19.32 14.28 14.28 0 004.12-.35 1.38 1.38 0 00.82-1.41v-7.75a17.07 17.07 0 00-4.78-12.37c-3.15-3.2-7.45-4.81-12.75-4.79s-9.61 1.72-12.77 5.06a17.52 17.52 0 00-4.73 12.58l.19 44.72a17.52 17.52 0 004.83 12.54c3.12 3.29 7.39 4.95 12.65 4.95zm33.42-6.64a10.42 10.42 0 003-.26 1.36 1.36 0 00.91-1.38L246.82 10a1.27 1.27 0 00-.82-1.32 32.18 32.18 0 00-8.47-.2 1.26 1.26 0 00-.85 1.33L235 84.06a1.38 1.38 0 00.84 1.42 15 15 0 004.18.43zm21.17-2.12a1.37 1.37 0 001 1.33 6.06 6.06 0 001.55.14c.69 0 1.57 0 2.65-.12l22.84-1.75a1.28 1.28 0 001.29-.87 16.27 16.27 0 000-4 15.75 15.75 0 00-.59-3.93 1.27 1.27 0 00-1.4-.66l-16.88 1.28a.87.87 0 01-.68-.2.84.84 0 01-.31-.64L270 50.37a.8.8 0 01.84-1l14.57-1.12a1.17 1.17 0 001.17-.86 14.24 14.24 0 000-3.74A14 14 0 00286 40a1.19 1.19 0 00-1.29-.67l-14.55 1.07a.91.91 0 01-.68-.2.88.88 0 01-.31-.65l-1.7-22.29a.8.8 0 01.85-1l17-1.3a1.21 1.21 0 001.18-.86 14.49 14.49 0 000-3.75 14.48 14.48 0 00-.56-3.7 1.2 1.2 0 00-1.31-.65l-23 1.75a18 18 0 00-4.2.61 1.27 1.27 0 00-.72 1.4zM22.25 110.39a16.36 16.36 0 00-12.72 4.1 17.65 17.65 0 00-5.62 12.2 27 27 0 00.66 8.72 24.92 24.92 0 003.88 8 89.16 89.16 0 008.44 9.94 57.59 57.59 0 015.67 6.78 15.89 15.89 0 012.44 5.32 22.19 22.19 0 01.32 6.27c-.22 3.06-1 5.37-2.42 6.88a6.64 6.64 0 01-5.68 2 6.66 6.66 0 01-5.4-2.77c-1.12-1.66-1.57-4.12-1.35-7.29l.5-6.95a1.26 1.26 0 00-.73-1.4A17.82 17.82 0 006 161.6a18 18 0 00-4.24 0 1.28 1.28 0 00-.92 1.28l-.53 7.4c-.31 5.42.9 10.03 3.78 13.72s7.11 5.69 12.55 6.08c.55 0 1.08.06 1.61.06a15.9 15.9 0 0011.47-4.41c3.38-3.27 5.29-7.8 5.7-13.46a30.81 30.81 0 00-.68-9.84 26 26 0 00-4-8.3 91.47 91.47 0 00-8.45-9.94 62.55 62.55 0 01-5.92-7.07 14.1 14.1 0 01-2.34-5 20.64 20.64 0 01-.22-5.43 8.08 8.08 0 012.37-5.49 7 7 0 015.51-1.74 6.82 6.82 0 015.08 2.5 8 8 0 011.57 5.78l-.59 8.16a1.37 1.37 0 00.72 1.46 14 14 0 004.09.63 14.83 14.83 0 004.19 0 1.37 1.37 0 001-1.34l.56-7.73a17.06 17.06 0 00-3.83-12.7c-2.89-3.53-7.01-5.45-12.23-5.83zm59.08 8.87a18.07 18.07 0 00-4.24-.15 18.18 18.18 0 00-4.22.41 1.28 1.28 0 00-.78 1.38l1.46 47.46c0 .33-.07.53-.26.59a.19.19 0 01-.15 0c-.08 0-.2-.15-.32-.48l-4.43-14.37-10.64-32.79a1.93 1.93 0 00-1.2-1.28 15.52 15.52 0 00-3.91-.16h-1.32a18.21 18.21 0 00-4.23.41 1.27 1.27 0 00-.78 1.37l2.29 74.23a1.38 1.38 0 00.92 1.38 9.4 9.4 0 002.67.23h1.52a14.69 14.69 0 004.17-.47 1.37 1.37 0 00.83-1.43l-1.49-48.45c0-.34.09-.53.31-.6a.25.25 0 01.19 0c.1.06.17.22.23.47l3.95 13.28 11.48 34.86a2 2 0 001.2 1.4 15.4 15.4 0 003.91.16h1a15.15 15.15 0 004.16-.46 1.38 1.38 0 00.84-1.43l-2.29-74.24a1.27 1.27 0 00-.87-1.32zm26.31-7.55a18 18 0 00-4.21-.54 18.49 18.49 0 00-4.24 0 1.28 1.28 0 00-.91 1.3l-4.63 74.13a1.36 1.36 0 00.79 1.46 15.06 15.06 0 004.15.59c1 .06 1.74.09 2.38.09a6.65 6.65 0 001.81-.16 1.38 1.38 0 001-1.35l4.63-74.12a1.29 1.29 0 00-.77-1.4zm27.75 12.82a1.47 1.47 0 00-.95-1.33 18.25 18.25 0 00-4.24-.24h-2.76c-1.32 0-2.38 0-3.16.13a3.1 3.1 0 00-1.54.42 1.74 1.74 0 00-.46 1.1L109.46 199a1.21 1.21 0 00.78 1.4 12.92 12.92 0 003.7.31h.48a17.43 17.43 0 004.18-.32 1.51 1.51 0 001-1.45l1.9-12a1.73 1.73 0 01.94-1.39 13 13 0 013.84-.35l6.2-.05a12 12 0 013.78.3 1.75 1.75 0 01.91 1.37l2.08 11.93a1.57 1.57 0 001.06 1.39 15 15 0 004.13.3 15.3 15.3 0 004.29-.37 1.09 1.09 0 00.64-1.42zm-.65 51.47a12.11 12.11 0 01-3.24.3h-4.54a11.52 11.52 0 01-3.18-.25c-.48-.16-.65-.51-.51-1.07l5-33.23c.28-1.05.5-1.17.58-1.17.33 0 .56.39.71 1.15l5.68 33.16a.9.9 0 01-.5 1.11zm52.02-45.21a17.41 17.41 0 00-5.64-12.22c-3.41-3.11-7.83-4.51-13.13-4.16l-12.48.8a18 18 0 00-4.21.56 1.29 1.29 0 00-.74 1.4l4.8 74.11a1.36 1.36 0 001 1.34 6.37 6.37 0 001.76.16q1 0 2.43-.09l12.48-.81c5.3-.34 9.51-2.28 12.5-5.77a17.08 17.08 0 004-12.68zm-14.37 51.65l-6.52.43a.93.93 0 01-.67-.21.87.87 0 01-.3-.65l-3.7-57.21a1 1 0 01.18-.71.93.93 0 01.67-.27l6.3-.41h.7a7.43 7.43 0 015.19 1.89 8.37 8.37 0 012.51 5.83l2.77 42.74a8.47 8.47 0 01-1.64 6 7.24 7.24 0 01-5.49 2.57zm45.53-62.1a1.46 1.46 0 00-1-1.31 17.74 17.74 0 00-4.23-.16l-2.77.07c-1.31 0-2.37.11-3.16.2a3.15 3.15 0 00-1.52.45 1.66 1.66 0 00-.44 1.11l-11.34 74.61a1.21 1.21 0 00.81 1.39 9.44 9.44 0 002.78.25h1.4a18.38 18.38 0 004.17-.4 1.51 1.51 0 001-1.47l1.66-12a1.74 1.74 0 01.92-1.41 12.86 12.86 0 013.83-.43l6.19-.17a12.23 12.23 0 013.8.22 1.77 1.77 0 01.93 1.35l2.32 11.89a1.55 1.55 0 001.09 1.36 14.83 14.83 0 004.13.23 15.8 15.8 0 004.28-.46 1.09 1.09 0 00.62-1.43zm.37 51.47a11.92 11.92 0 01-3.23.36l-4.53.13a11.63 11.63 0 01-3.19-.19c-.48-.15-.66-.5-.53-1.06l4.39-33.33c.26-1.05.47-1.17.55-1.17.31 0 .55.38.71 1.13l6.34 33a.89.89 0 01-.51 1.13zm61.27-60.03a18.15 18.15 0 00-4.2-.58 17.68 17.68 0 00-4.24 0 1.28 1.28 0 00-.93 1.29l-3.4 47.36c0 .33-.13.52-.32.57a.26.26 0 01-.15 0 .81.81 0 01-.26-.51l-2.94-14.75-7.23-33.71a2 2 0 00-1.06-1.4 16.07 16.07 0 00-3.87-.56l-1.33-.09a18.3 18.3 0 00-4.24 0 1.28 1.28 0 00-.92 1.29l-5.32 74.08a1.37 1.37 0 00.78 1.46 14.77 14.77 0 004.14.63 15.35 15.35 0 004.2 0 1.37 1.37 0 001-1.34l3.48-48.35c0-.33.14-.52.37-.57a.27.27 0 01.18 0 .67.67 0 01.18.5l2.52 13.53 7.85 35.86a2 2 0 001.05 1.51 15.28 15.28 0 003.87.56l1 .07c1 .08 1.9.11 2.57.11a6 6 0 001.63-.15 1.37 1.37 0 001-1.33l5.32-74.08a1.28 1.28 0 00-.73-1.4zm19.1 10a18 18 0 00-4.23-.32 17.79 17.79 0 00-4.23.23 1.28 1.28 0 00-.84 1.34l-.76 74.27a1.37 1.37 0 00.86 1.41 14.92 14.92 0 004.18.38h.62a12.52 12.52 0 003.56-.3 1.36 1.36 0 00.9-1.39l.75-74.26a1.27 1.27 0 00-.81-1.36zm42.86 61.41a15.73 15.73 0 00-.58-3.92 1.29 1.29 0 00-1.4-.67l-16.89 1.29a.87.87 0 01-.68-.2.9.9 0 01-.3-.64L319.83 155a.81.81 0 01.84-1l14.57-1.11a1.2 1.2 0 001.17-.86 14.3 14.3 0 000-3.75 13.86 13.86 0 00-.57-3.7 1.2 1.2 0 00-1.29-.68L320 145a.89.89 0 01-.68-.21.87.87 0 01-.3-.64l-1.71-22.29a1 1 0 01.18-.71.93.93 0 01.67-.27l17-1.3a1.2 1.2 0 001.18-.87 14 14 0 000-3.74 14.6 14.6 0 00-.56-3.71 1.2 1.2 0 00-1.29-.67l-23 1.75a18.05 18.05 0 00-4.2.61 1.28 1.28 0 00-.72 1.4l5.66 74.06a1.39 1.39 0 001 1.33 6 6 0 001.55.14q1 0 2.64-.12l22.84-1.76a1.3 1.3 0 001.28-.87 15.82 15.82 0 00-.02-3.94z"/><path class="cls-2" d="M114.36 43.62c.15 4 1.37 24.62 9.88 41.56a33.79 33.79 0 0020.62 17.44 42.53 42.53 0 0012.59 1.83 45 45 0 0019.6-4.39 1.56 1.56 0 00.62-2.16c-.3-.64-2.95-5.5-3.34-6.06s-1.47-.47-1.94-.25a35.67 35.67 0 01-11.37 3 34 34 0 01-13.3-1.22 24 24 0 01-14.86-12.55c-7.86-15.59-8.8-36.09-8.86-37.73V43a1.1 1.1 0 01.59-1 12.27 12.27 0 005.22-4.37 13.11 13.11 0 002.26-6.59l1.14-15.79A12.73 12.73 0 00130 5.72a12.73 12.73 0 00-9-4.5L105.81.13a18 18 0 00-4.24 0 1.26 1.26 0 00-.92 1.28l-5.33 74.06a1.39 1.39 0 00.78 1.46 15.13 15.13 0 004.15.64 15.1 15.1 0 004.19 0 1.37 1.37 0 001-1.34l2.34-32.67a.81.81 0 011-.85l4.85.35c.43-.01.68.19.73.56zm-5-9.94a.87.87 0 01-.64-.3.89.89 0 01-.21-.68l1.6-22.3c0-.58.33-.86.86-.86h.12l6.63.47a5.63 5.63 0 014.44 2.18 8.09 8.09 0 011.15 5.36l-.7 9.82c-.35 4.79-2.61 7.06-6.74 6.76zm36.41 203.48c-1.35 1.77-3.15 3.27-5 3.27-1.63 0-2.62-1.3-2.62-3.41 0-6 5.44-10.72 11.19-10.72a7.72 7.72 0 014 .85s-3.27 7-3.27 10.18a1.81 1.81 0 001.07 1.88 8.27 8.27 0 01-4.18 1.44c-1 0-1.49-.56-1.49-1.72a9 9 0 01.25-1.77m2.85-8.66c-3.27.17-6 4.09-6 7.53 0 .62.2 1.13.77 1.13 2.39 0 4.36-6.35 5.21-8.66m16.17 9.05c2.42 0 4.73-5.83 4.73-8.68 0-2.2-.62-2.79-.62-2.79a3.68 3.68 0 011.13-.2c2.09 0 3.47 1.24 3.47 3.78 0 3.83-5 10.91-10.52 10.91-1.83 0-2.73-1.16-2.73-3v-.25c-1.24 1.74-3 3.24-4.93 3.24-1.75 0-2.71-1.13-2.71-2.91a10 10 0 01.93-3.83l2.68-6.71a13.29 13.29 0 013.44-.62c.87 0 1.13.31 1.13 1.16 0 2.45-3.84 7.16-3.84 9.27a.58.58 0 00.59.62c1.58 0 3-2.37 4-5.27l1.86-5.16a10.57 10.57 0 013.27-.62c.87 0 1.15.31 1.15 1.16 0 2.45-3.61 7.16-3.61 9.27a.55.55 0 00.57.62m10.83-7.18a1.82 1.82 0 01-1.07-1.69 2.42 2.42 0 01.45-1.41 4.58 4.58 0 001.81.51l1.6-3.61a7.31 7.31 0 012.91-.62c.62 0 .87.28.87.79a13.56 13.56 0 01-1.18 3.64 12.87 12.87 0 003.41-.62 2.8 2.8 0 01.08.7c0 2.23-1.35 3.1-4.85 3.1a15.59 15.59 0 00-1.41 4.48c0 .79.37 1.05 1.05 1.05a3.33 3.33 0 002.45-1.52 1.25 1.25 0 01.4 1c0 1.72-2.29 4.34-5.53 4.42-2.28 0-3.35-1-3.35-3s1.12-4.34 2.22-6.88zm16.18-.48a2.83 2.83 0 012.09-1 2 2 0 012.17 2.28c0 3.83-3.92 9.44-8.71 9.44-2.4 0-3.72-1.43-3.72-4 0-5.41 4.57-10.32 9-10.32 3 0 3.25 2.31 3.25 2.31a4.41 4.41 0 00-1.84-.45c-3.27 0-5.83 3.81-5.83 7.28 0 1.18.48 1.89 1.49 1.89 1.72 0 3.3-3.11 3.3-5.59 0-1.66-1.16-1.86-1.16-1.86m7.63-2.77a6.49 6.49 0 012.71-.56c.9 0 1.21.31 1.21 1.1a8.66 8.66 0 01-.45 2.2c1.41-1.75 3.38-3.25 5.27-3.25 1.69 0 2.57 1.16 2.57 3 0 2.88-3.24 6.54-3.24 8.57 0 1.3.76 1.36.76 1.36a11 11 0 01-4.12.93c-1.21 0-1.94-.57-1.94-1.61 0-2.76 4.28-6.71 4.28-8.6 0-.34-.17-.62-.53-.62-2.82 0-5.67 6.54-6.18 10.07a8.38 8.38 0 01-3.16.7c-.81 0-1.15-.31-1.15-1a16.29 16.29 0 011.15-4.34zM218 237.16c-1.36 1.77-3.16 3.27-5 3.27-1.64 0-2.62-1.3-2.62-3.41 0-6 5.44-10.72 11.19-10.72a7.7 7.7 0 014 .85s-3.27 7-3.27 10.18a1.81 1.81 0 001.07 1.88 8.21 8.21 0 01-4.17 1.44c-1.05 0-1.5-.56-1.5-1.72a8.72 8.72 0 01.26-1.77m2.84-8.66c-3.27.17-6 4.09-6 7.53 0 .62.19 1.13.76 1.13 2.4 0 4.37-6.35 5.21-8.66m-90.92-8.09c-5.75 0-10.29 2.88-10.29 7a3.1 3.1 0 002.84 3.08 7.56 7.56 0 013.5-6.29c-.92 3.3-3.81 8.66-5.17 12.05q-.06.12-.12.27a3.86 3.86 0 00-.16.46c-.15.42-.27.79-.35 1.11a5.94 5.94 0 01-3.08-1.56l-.36-.35c-.07.05-.12.22-.12.61a4 4 0 002 3.05 10.25 10.25 0 004.9 1.22h.85c7.27 0 14.41-6.49 14.41-13.87.03-4.61-3.36-6.78-8.85-6.78zm-4.68 18.24c1-3.61 3.8-8.77 5.78-15.76 1.72.26 3 1.41 3 3.81-.04 5.3-4.27 11.61-8.78 11.95z"/></g></g></svg>