<svg xmlns="http://www.w3.org/2000/svg" viewBox="0 0 341.38 241.05"><defs><style>.cls-1{fill:#fff}</style></defs><g id="Warstwa_2" data-name="Warstwa 2"><g id="Layer_1" data-name="Layer 1"><path class="cls-1" d="M20.8 104.22c.29.13 4.15 1.3 4.54 1.4a1.88 1.88 0 00.31 0 .82.82 0 00.8-.52l3.84-9.38a2.07 2.07 0 00.09-1.33A.74.74 0 0030 94c-.19-.07-5.53-1.31-5.58-1.32-1-.23-1.3.91-1.53 1.75v.17c-.22.78-2.31 8.57-2.36 8.78a.7.7 0 00.27.84zM83.83 33a17.23 17.23 0 00-5.21-12.22c-3.28-3.16-7.6-4.68-12.83-4.49l-12.34.43a18 18 0 00-4.16.42 1.25 1.25 0 00-.77 1.36l2.56 73.24a1.34 1.34 0 00.92 1.35 8.76 8.76 0 002.49.22h1.64l12.33-.43c5.24-.18 9.44-2 12.5-5.32a16.89 16.89 0 004.34-12.4zM73.62 81.12a7.14 7.14 0 01-5.48 2.4l-6.44.23a.88.88 0 01-.66-.23.85.85 0 01-.28-.64l-2-56.54a.89.89 0 01.2-.69.92.92 0 01.67-.25l6.22-.22h.38a7.37 7.37 0 015.37 2A8.21 8.21 0 0173.94 33l1.48 42.24a8.35 8.35 0 01-1.8 5.88zm84.46-.27c.58 0 1.15.06 1.7.06a16.43 16.43 0 0011.42-4.13 17.52 17.52 0 005.66-12.19l4.27-59.39a1.28 1.28 0 00-.73-1.41 18 18 0 00-4.2-.58 17.47 17.47 0 00-4.24 0 1.26 1.26 0 00-.96 1.26l-4.25 59.73a8.08 8.08 0 01-2.37 5.49 7 7 0 01-5.51 1.74 7.28 7.28 0 01-5.36-2.53 7.86 7.86 0 01-1.62-5.77l4.29-59.73a1.27 1.27 0 00-.73-1.4 18 18 0 00-4.2-.58 17.7 17.7 0 00-4.24 0 1.28 1.28 0 00-.92 1.29l-4.27 59.39a17.51 17.51 0 003.87 12.87c2.93 3.51 7.1 5.5 12.39 5.88zm49.47 11.72h.1a15.63 15.63 0 0010.55-3.72.6.6 0 01.69-.15.75.75 0 01.51.55l.23 1.33a1 1 0 001.07.83h3.43a1.1 1.1 0 00.81-.28 1.09 1.09 0 00.27-.8L225 50.8a1.35 1.35 0 00-.83-1.45 17.31 17.31 0 00-4.12-.27h-7.86a14.32 14.32 0 00-4.13.35 1.38 1.38 0 00-.81 1.41v2.54a6.53 6.53 0 00.47 3.2c.31.43 1.09.71 2.38.85l4 .65c.55.14.83.44.83.92l.06 16a8.38 8.38 0 01-2 5.83 6.85 6.85 0 01-5.35 2.2 7.25 7.25 0 01-5.46-2.03 7.88 7.88 0 01-2.05-5.63l-.19-45.83a8 8 0 011.95-5.71 7.38 7.38 0 015.58-2.1 7.09 7.09 0 015.37 2.06 8 8 0 012 5.69v8.19a1.36 1.36 0 00.89 1.4 14.57 14.57 0 004.18.32 14.28 14.28 0 004.12-.35 1.38 1.38 0 00.82-1.41v-7.75a17.07 17.07 0 00-4.78-12.37c-3.15-3.2-7.45-4.81-12.75-4.79s-9.61 1.72-12.76 5.06a17.48 17.48 0 00-4.73 12.58l.17 44.72a17.57 17.57 0 004.83 12.54c3.17 3.29 7.45 4.95 12.72 4.95zM241 85.93a10.42 10.42 0 002.95-.26 1.38 1.38 0 00.92-1.38L246.55 10a1.27 1.27 0 00-.79-1.36 32.12 32.12 0 00-8.46-.2 1.26 1.26 0 00-.86 1.33l-1.73 74.25a1.37 1.37 0 00.85 1.42 14.82 14.82 0 004.17.43zm21.13-2.12a1.37 1.37 0 001 1.33 6.11 6.11 0 001.55.14c.69 0 1.57 0 2.65-.12l22.84-1.75a1.28 1.28 0 001.29-.87 15.74 15.74 0 000-4 15.75 15.75 0 00-.59-3.93 1.27 1.27 0 00-1.4-.66l-16.88 1.28a.88.88 0 01-1-.84l-1.83-24.06a.8.8 0 01.84-1l14.57-1.12a1.17 1.17 0 001.17-.86 14.24 14.24 0 000-3.74 14.6 14.6 0 00-.56-3.71 1.2 1.2 0 00-1.29-.67l-14.6 1.17a.91.91 0 01-.68-.2.88.88 0 01-.31-.65l-1.7-22.29a.81.81 0 01.85-1L285 15a1.2 1.2 0 001.18-.86 14 14 0 000-3.75 14.48 14.48 0 00-.56-3.7 1.2 1.2 0 00-1.26-.69l-23 1.75a18.05 18.05 0 00-4.2.61 1.27 1.27 0 00-.72 1.4zM22 110.39a16.37 16.37 0 00-12.72 4.1 17.65 17.65 0 00-5.62 12.2 27 27 0 00.66 8.72 24.92 24.92 0 003.88 8 89.42 89.42 0 008.45 9.94 58.35 58.35 0 015.66 6.78 15.89 15.89 0 012.43 5.36 21.83 21.83 0 01.32 6.27c-.22 3.06-1 5.37-2.42 6.88a6.64 6.64 0 01-5.68 2 6.66 6.66 0 01-5.4-2.77c-1.12-1.66-1.57-4.12-1.35-7.29l.5-6.95a1.26 1.26 0 00-.72-1.4 18 18 0 00-4.21-.59 18.06 18.06 0 00-4.24 0 1.28 1.28 0 00-.92 1.28l-.53 7.4c-.39 5.44.87 10.05 3.75 13.7s7.11 5.69 12.55 6.08c.55 0 1.08.06 1.61.06a15.89 15.89 0 0011.47-4.41c3.38-3.27 5.3-7.8 5.7-13.46a30.81 30.81 0 00-.68-9.84 26 26 0 00-4-8.3 90.34 90.34 0 00-8.45-9.94 62.55 62.55 0 01-5.92-7.07 14.1 14.1 0 01-2.34-5 20.64 20.64 0 01-.22-5.43 8.08 8.08 0 012.37-5.49 7 7 0 015.51-1.74 6.86 6.86 0 015.09 2.5 8.09 8.09 0 011.56 5.78l-.59 8.16a1.37 1.37 0 00.72 1.46 14 14 0 004.09.63 14.93 14.93 0 004.2 0 1.37 1.37 0 001-1.34l.56-7.73a17.06 17.06 0 00-3.83-12.7c-2.92-3.55-7.04-5.47-12.24-5.85zm59.06 8.87a18 18 0 00-4.24-.15 18.18 18.18 0 00-4.22.41 1.29 1.29 0 00-.78 1.38l1.46 47.46c0 .33-.07.53-.26.59a.2.2 0 01-.15 0c-.08 0-.19-.15-.32-.48l-4.43-14.37-10.64-32.79a1.93 1.93 0 00-1.2-1.28 15.43 15.43 0 00-3.9-.16h-1.33a18 18 0 00-4.22.41 1.26 1.26 0 00-.79 1.37l2.29 74.23a1.38 1.38 0 00.92 1.38 9.4 9.4 0 002.67.23h1.52a14.69 14.69 0 004.17-.47 1.36 1.36 0 00.83-1.43L57 147.16c0-.34.09-.53.31-.6a.24.24 0 01.19 0 .7.7 0 01.23.47l4 13.28 11.49 34.86a2 2 0 001.19 1.4 15.44 15.44 0 003.91.16h1a15.24 15.24 0 004.17-.46 1.39 1.39 0 00.83-1.43l-2.29-74.24a1.27 1.27 0 00-.97-1.34zm26.31-7.55a17.91 17.91 0 00-4.21-.54 18.51 18.51 0 00-4.24 0 1.28 1.28 0 00-.91 1.3l-4.63 74.13a1.38 1.38 0 00.79 1.46 15.06 15.06 0 004.15.59c1 .06 1.74.09 2.39.09a6.62 6.62 0 001.8-.16 1.37 1.37 0 001-1.35l4.63-74.12a1.29 1.29 0 00-.77-1.4zm27.75 12.82a1.45 1.45 0 00-1-1.33 18.2 18.2 0 00-4.23-.24h-2.77c-1.31 0-2.38 0-3.16.13a3.1 3.1 0 00-1.54.42 1.74 1.74 0 00-.46 1.1L109.19 199a1.21 1.21 0 00.78 1.4 12.92 12.92 0 003.7.31h.48a17.43 17.43 0 004.18-.32 1.51 1.51 0 001-1.45l1.9-12a1.76 1.76 0 01.94-1.39 13 13 0 013.84-.35l6.2-.05a12.12 12.12 0 013.79.3 1.77 1.77 0 01.9 1.37l2.1 11.97a1.55 1.55 0 001.05 1.39 15 15 0 004.13.3 15.3 15.3 0 004.29-.37 1.09 1.09 0 00.64-1.42zm-.65 51.47a12.11 12.11 0 01-3.24.3h-4.53a11.61 11.61 0 01-3.19-.25c-.48-.16-.65-.51-.51-1.07l5.05-33.23c.28-1.05.5-1.17.58-1.17.32 0 .55.39.7 1.15l5.67 33.19a.9.9 0 01-.53 1.08zm52.02-45.21a17.44 17.44 0 00-5.63-12.22c-3.42-3.11-7.84-4.51-13.14-4.16l-12.48.8a18 18 0 00-4.21.56 1.29 1.29 0 00-.74 1.4l4.8 74.11a1.37 1.37 0 001 1.34 6.37 6.37 0 001.76.16q1 0 2.43-.09l12.48-.81c5.3-.34 9.51-2.28 12.5-5.77a17.08 17.08 0 004-12.68zm-14.37 51.65l-6.51.43a.94.94 0 01-.68-.21.91.91 0 01-.3-.65l-3.7-57.21a1 1 0 01.18-.71.94.94 0 01.67-.27l6.3-.41h.7a7.42 7.42 0 015.19 1.89 8.32 8.32 0 012.51 5.83l2.77 42.74a8.47 8.47 0 01-1.64 6 7.24 7.24 0 01-5.49 2.57zm45.53-62.1a1.45 1.45 0 00-1-1.31 17.88 17.88 0 00-4.24-.16l-2.77.07c-1.31 0-2.37.11-3.16.2a3.15 3.15 0 00-1.52.45 1.71 1.71 0 00-.44 1.11l-11.34 74.61a1.21 1.21 0 00.81 1.39 9.44 9.44 0 002.78.25h1.41a18.35 18.35 0 004.16-.4 1.53 1.53 0 001-1.47l1.66-12a1.71 1.71 0 01.91-1.41 12.86 12.86 0 013.83-.43l6.2-.17a12.15 12.15 0 013.79.22 1.75 1.75 0 01.93 1.35l2.34 11.87a1.55 1.55 0 001.09 1.36 14.83 14.83 0 004.13.23 15.8 15.8 0 004.28-.46 1.09 1.09 0 00.62-1.43zm.37 51.47a11.92 11.92 0 01-3.23.36l-4.53.13a11.63 11.63 0 01-3.19-.19c-.48-.15-.66-.5-.53-1.06l4.39-33.33c.26-1.05.47-1.17.56-1.17.31 0 .55.38.71 1.13l6.34 33a.88.88 0 01-.54 1.13zm61.27-60.03a18 18 0 00-4.2-.58 17.68 17.68 0 00-4.24 0 1.28 1.28 0 00-.92 1.29l-3.41 47.36c0 .33-.12.52-.32.57a.22.22 0 01-.14 0c-.08-.05-.18-.17-.27-.51l-2.94-14.75-7.23-33.71a1.94 1.94 0 00-1.06-1.4 16.07 16.07 0 00-3.87-.56l-1.32-.09a18.38 18.38 0 00-4.25 0 1.28 1.28 0 00-.92 1.29l-5.32 74.08a1.37 1.37 0 00.78 1.46 14.77 14.77 0 004.14.63 15.35 15.35 0 004.2 0 1.36 1.36 0 001-1.34l3.48-48.35c0-.33.14-.52.37-.57a.29.29 0 01.19 0 .72.72 0 01.17.5l2.58 13.61 7.85 35.86a2 2 0 001.05 1.51 15.28 15.28 0 003.87.56l1 .07c1 .08 1.89.11 2.56.11a6 6 0 001.63-.15 1.37 1.37 0 001-1.33l5.25-74.16a1.28 1.28 0 00-.71-1.4zm19.1 10a32.68 32.68 0 00-8.46-.09 1.28 1.28 0 00-.84 1.34l-.76 74.27a1.37 1.37 0 00.86 1.41 14.92 14.92 0 004.18.38h.63a12.52 12.52 0 003.56-.3 1.36 1.36 0 00.9-1.39l.76-74.26a1.29 1.29 0 00-.83-1.36zm42.86 61.41a15.73 15.73 0 00-.58-3.92 1.29 1.29 0 00-1.4-.67l-16.89 1.29a.88.88 0 01-.68-.2.9.9 0 01-.3-.64L319.56 155a.81.81 0 01.84-1l14.6-1.11a1.19 1.19 0 001.17-.86 14.3 14.3 0 000-3.75 13.86 13.86 0 00-.57-3.7 1.2 1.2 0 00-1.29-.68l-14.59 1.1a.91.91 0 01-.69-.21.87.87 0 01-.3-.64L317 121.88a.92.92 0 01.17-.71.93.93 0 01.67-.27l17-1.3a1.2 1.2 0 001.17-.87 14.24 14.24 0 000-3.74 14.91 14.91 0 00-.57-3.71 1.2 1.2 0 00-1.29-.67l-23 1.75a17.82 17.82 0 00-4.15.64 1.27 1.27 0 00-.73 1.4l5.73 74.03a1.37 1.37 0 001 1.33 6 6 0 001.55.14q1 0 2.64-.12L340 188a1.29 1.29 0 001.28-.87 15.82 15.82 0 00-.03-3.94z"/><path class="cls-1" d="M114.09 43.62c.16 4 1.37 24.62 9.88 41.56a33.79 33.79 0 0020.62 17.44 42.58 42.58 0 0012.59 1.83 45 45 0 0019.6-4.39 1.56 1.56 0 00.62-2.16c-.3-.64-3-5.5-3.34-6.06s-1.47-.47-1.94-.25a35.67 35.67 0 01-11.37 3 34 34 0 01-13.3-1.22 24 24 0 01-14.85-12.52c-7.85-15.62-8.81-36.12-8.87-37.76V43c0-.34.16-.67.6-1a12.39 12.39 0 005.22-4.37 13.31 13.31 0 002.26-6.59l1.13-15.79a12.73 12.73 0 00-3.17-9.55 12.73 12.73 0 00-9-4.5L105.54.13a18 18 0 00-4.24 0 1.26 1.26 0 00-.92 1.28l-5.32 74.06a1.38 1.38 0 00.77 1.46 15.13 15.13 0 004.15.64 15.08 15.08 0 004.19 0 1.37 1.37 0 001-1.34l2.35-32.67a.8.8 0 011-.85l4.85.35c.42-.01.63.19.72.56zm-5-9.94a.9.9 0 01-.64-.3.89.89 0 01-.21-.68l1.61-22.3c0-.58.32-.86.85-.86h.13l6.62.47a5.62 5.62 0 014.44 2.18 8 8 0 011.15 5.36l-.7 9.82c-.35 4.79-2.61 7.06-6.73 6.76zm36.42 203.48c-1.36 1.77-3.16 3.27-5 3.27-1.63 0-2.62-1.3-2.62-3.41 0-6 5.44-10.72 11.2-10.72a7.7 7.7 0 014 .85s-3.27 7-3.27 10.18a1.81 1.81 0 001.07 1.88 8.21 8.21 0 01-4.17 1.44c-1.05 0-1.5-.56-1.5-1.72a8.72 8.72 0 01.26-1.77m2.84-8.66c-3.27.17-6 4.09-6 7.53 0 .62.19 1.13.76 1.13 2.39 0 4.37-6.35 5.21-8.66m16.16 9.05c2.42 0 4.74-5.83 4.74-8.68 0-2.2-.62-2.79-.62-2.79a3.58 3.58 0 011.12-.2c2.09 0 3.47 1.24 3.47 3.78 0 3.83-5 10.91-10.51 10.91-1.84 0-2.74-1.16-2.74-3v-.25c-1.24 1.74-3 3.24-4.93 3.24-1.75 0-2.71-1.13-2.71-2.91a10 10 0 01.93-3.83l2.68-6.71a13.29 13.29 0 013.44-.62c.87 0 1.13.31 1.13 1.16 0 2.45-3.84 7.16-3.84 9.27a.59.59 0 00.59.62c1.58 0 3-2.37 4-5.27l1.86-5.16a10.57 10.57 0 013.27-.62c.87 0 1.15.31 1.15 1.16 0 2.45-3.6 7.16-3.6 9.27a.55.55 0 00.56.62m10.84-7.18a1.81 1.81 0 01-1.08-1.69 2.42 2.42 0 01.45-1.41 4.58 4.58 0 001.81.51l1.61-3.61a7.29 7.29 0 012.9-.62c.62 0 .87.28.87.79a13.56 13.56 0 01-1.18 3.64 12.76 12.76 0 003.41-.62 2.51 2.51 0 01.09.7c0 2.23-1.36 3.1-4.85 3.1a15.59 15.59 0 00-1.41 4.48c0 .79.36 1.05 1 1.05a3.33 3.33 0 002.45-1.52 1.25 1.25 0 01.4 1c0 1.72-2.29 4.34-5.53 4.42-2.28 0-3.35-1-3.35-3s1.12-4.34 2.22-6.88zm16.18-.48a2.8 2.8 0 012.08-1c1.36 0 2.17.7 2.17 2.28 0 3.83-3.91 9.44-8.71 9.44-2.39 0-3.72-1.43-3.72-4 0-5.41 4.57-10.32 9-10.32 3 0 3.24 2.31 3.24 2.31a4.39 4.39 0 00-1.83-.45c-3.28 0-5.84 3.81-5.84 7.28 0 1.18.48 1.89 1.49 1.89 1.72 0 3.3-3.11 3.3-5.59 0-1.66-1.15-1.86-1.15-1.86m7.63-2.77a6.49 6.49 0 012.71-.56c.9 0 1.21.31 1.21 1.1a8.66 8.66 0 01-.45 2.2c1.41-1.75 3.38-3.25 5.27-3.25 1.7 0 2.57 1.16 2.57 3 0 2.88-3.24 6.54-3.24 8.57 0 1.3.76 1.36.76 1.36a11 11 0 01-4.12.93c-1.21 0-1.94-.57-1.94-1.61 0-2.76 4.28-6.71 4.28-8.6 0-.34-.17-.62-.53-.62-2.82 0-5.67 6.54-6.18 10.07a8.36 8.36 0 01-3.15.7c-.82 0-1.16-.31-1.16-1a16 16 0 011.16-4.34zm18.64 10.07c-1.35 1.77-3.16 3.27-5 3.27-1.64 0-2.62-1.3-2.62-3.41 0-6 5.44-10.72 11.19-10.72a7.7 7.7 0 014 .85s-3.27 7-3.27 10.18a1.81 1.81 0 001.07 1.88 8.21 8.21 0 01-4.17 1.44c-1.05 0-1.5-.56-1.5-1.72a8.72 8.72 0 01.26-1.77m2.84-8.66c-3.26.17-6 4.09-6 7.53 0 .62.2 1.13.76 1.13 2.4 0 4.37-6.35 5.21-8.66m-90.95-8.09c-5.75 0-10.29 2.88-10.29 7a3.1 3.1 0 002.85 3.08 7.55 7.55 0 013.49-6.29c-.92 3.3-3.81 8.66-5.17 12.05q-.06.12-.12.27c0 .1-.1.27-.16.46a9.47 9.47 0 00-.34 1.11 5.93 5.93 0 01-3.09-1.56l-.36-.35c-.07.05-.12.22-.12.61a4 4 0 002 3.05 10.25 10.25 0 004.9 1.22h.85c7.28 0 14.41-6.49 14.41-13.87.03-4.61-3.35-6.78-8.85-6.78zm-4.68 18.24c1-3.61 3.8-8.77 5.78-15.76 1.72.26 3 1.41 3 3.81-.04 5.3-4.27 11.61-8.78 11.95z"/></g></g></svg>