<svg xmlns="http://www.w3.org/2000/svg" width="35.81" height="21.25"><path data-name="- menu -" d="M2.29 6.169L2.2 4.927 0 5.092l.12 1.24zM9.34.011c-.05.022-.41 2.122-.86 4.8l-.12.725-.9 5.538.57.14.71.165c.03-.042.22-1.12.35-1.89l.16-.992.41-2.534.01 1.477c.01.594.01 1.507 0 2.037a10.588 10.588 0 000 1.566l.4.022a16.135 16.135 0 00.74-1.991c.23-.617.56-1.52.75-1.991l.32-.873-.43 2.5-.51 2.973.62.133.62.133.08-.474c.04-.266.51-2.834 1.01-5.642l.91-5.111-.71-.118-.09-.015a1.84 1.84 0 00-.68-.051c-.03.039-.43 1.145-.88 2.47s-.87 2.5-.93 2.613a.291.291 0 01-.04.039 23.958 23.958 0 010-4.06l.02-1.29-.72-.165c-.2-.049-.38-.093-.53-.118a.8.8 0 00-.28-.016zm7.54 3.341c-.16.483-.34 1.041-.51 1.552-.17.483-.32.922-.43 1.2-.21.577-.81 2.228-1.32 3.67l-.91 2.635 1.13.388 1.58.539.18-.682.05-.142c.08-.227.18-.444.23-.586a.135.135 0 00.01-.123.306.306 0 00-.14-.082c-.13-.044-.32-.093-.45-.136l-.72-.248.55-1.57a16.931 16.931 0 01.62-1.613c.01-.009.47.132.64.19.07.024.13.058.21.087l.48.179.26-.766.27-.78-.54-.184-.8-.258.29-.9.19-.539.34-1.008.24-.71c.46.108.94.259 1.37.4a.136.136 0 00.09.015.228.228 0 00.05-.109c.04-.114.09-.3.16-.5l.03-.085.22-.591-1.59-.544-1.17-.4zm5.79 2.052c-.43.743-1.62 2.892-2.65 4.79s-1.94 3.469-2 3.542l-.03.066c-.05.093.03.121.7.49l.42.236.94-1.624c.42-.743.79-1.4 1.07-1.944.31-.584.52-1.029.65-1.268a.565.565 0 01.12-.192l-1.23 5.891.01.007.8.385.83-1.559c.94-1.725 4.47-8.02 4.58-8.165l.02-.006a.724.724 0 00-.51-.386c-.21-.112-.36-.222-.46-.278a.124.124 0 00-.15-.01 19.131 19.131 0 00-1.02 1.817c-.04.066-.08.146-.12.226-.4.77-1.17 2.318-1.51 2.968a.95.95 0 01-.17.285c.01-.013 1.18-4.585 1.32-5.206a5.672 5.672 0 01.15-.581c.07-.267.03-.288-.47-.553l-.52-.272zm6.09 8.163c-1.49 1.823-2.81 3.345-2.91 3.4a.574.574 0 01-.56-.108.406.406 0 01-.15-.194c-.04-.123.08-.332 1.04-1.582l1.3-1.7c1.34-1.717 3.27-4.132 3.44-4.3l.31-.309-.56-.429-.56-.429-.71.832c-1.01 1.159-2.81 3.366-4.47 5.436-.41.5-.7.862-.92 1.148a3.1 3.1 0 00-.62 1.022c-.16.631.03 1 .9 1.668a1.693 1.693 0 001.23.586c.82.021 1.13-.246 2.93-2.441.85-1.032 2.82-3.474 3.5-4.345l1.26-1.589-.51-.425-.5-.425zm6.09 7.67l.97-.771-1.37-1.725-.96.794z" fill="#fff" fill-rule="evenodd"/></svg>