<svg xmlns="http://www.w3.org/2000/svg" width="49.85" height="21.5" viewBox="0 0 49.85 21.5">
  <defs>
    <style>
      .cls-1 {
        fill: #fff;
        fill-rule: evenodd;
      }
    </style>
  </defs>
  <path id="_-_zamknij_-" data-name=" - zamknij -" class="cls-1" d="M1416.14,47.1l-0.53-1.125-1.99.958,0.56,1.112Zm4.27-8.081c0.04,0.313.19,0.894,0.22,1.24l0.85-.213,0.07-.017a0.634,0.634,0,0,1,.44-0.026c0.02,0.088.4,4.975,0.56,7.8,0.07,1,.12,1.883.14,1.97,0.03,0.131.22,0.087,1.51-.2l1.73-.389-0.19-.789-0.18-.788-0.83.224c-0.13.031-.23,0.069-0.31,0.09-0.22.051-.32,0.043-0.37-0.038V47.857c-0.06-.234-0.16-1.566-0.22-3.03-0.06-1.573-.27-4.526-0.34-5.327l-0.12-1.45-1.32.278-1.71.4Zm7.18-1.464c-0.05,2.3-.37,11.078-0.38,11.153l-0.04.333,0.69-.08,0.69-.081V48.522c0-.2,0-0.812.03-1.386l0.07-1.508,0.53-.038c0.15-.011.29-0.037,0.41-0.046a0.491,0.491,0,0,1,.26.011c0.05,0.042.2,1.113,0.35,1.884s0.25,1.41.25,1.41,0.21-.045.63-0.091l0.74-.085-0.07-.37c-0.04-.207-0.15-0.756-0.24-1.26-1.08-5.889-1.5-7.873-1.67-8.733l-0.21-1.007-0.94.069-0.04,0A2.167,2.167,0,0,0,1427.59,37.557Zm1.72,4.549,0.39,1.956-1.02.135-0.02-.359,0.06-2.861,0.08-1.75Zm5.03-4.75c-0.05.025-.29,2.143-0.57,4.844l-0.08.731-0.57,5.583,0.57,0.106,0.73,0.122c0.02-.043.15-1.131,0.23-1.907l0.11-1,0.25-2.553,0.1,1.474c0.05,0.593.1,1.5,0.12,2.034a12.972,12.972,0,0,0,.09,1.564l0.41,0a18.932,18.932,0,0,0,.62-2.032c0.19-.629.47-1.55,0.62-2.032l0.28-.891-0.28,2.52-0.33,3,0.62,0.1,0.62,0.1,0.05-.478c0.03-.269.35-2.86,0.68-5.693l0.6-5.157-0.71-.076-0.09-.009a1.822,1.822,0,0,0-.68-0.011c-0.04.042-.37,1.169-0.74,2.518s-0.72,2.55-.77,2.664a0.108,0.108,0,0,1-.04.042,24.467,24.467,0,0,1-.24-4.054l-0.06-1.289-0.72-.122c-0.21-.037-0.39-0.071-0.54-0.086A0.78,0.78,0,0,0,1434.34,37.356Zm8.37,1.244a9.67,9.67,0,0,0-.32,1.033l-0.33,1.138-0.09.317c-0.36,1.239-1.02,3.391-1.55,5.035-0.32,1-.59,1.907-0.77,2.527a8.386,8.386,0,0,0-.22.825,1,1,0,0,0,.39.161l0.24,0.071,0.69,0.154,0.36-1.13c0.6-1.95,1.08-3.578,1.24-3.969a0.07,0.07,0,0,1,.03-0.039c0.02,0.008-.04.428-0.04,0.538-0.01.214-.03,1.207-0.12,2.184s-0.09,1.865-.12,2.151l-0.07.5,0.69,0.154a5.154,5.154,0,0,0,.77.132l0.02,0c0.03-.115.02-1.933,0.27-5.5l0.02-.447,1.43-2.319c0.77-1.259,1.3-2.168,1.32-2.211a0.716,0.716,0,0,0-.43-0.2c-0.35-.1-0.8-0.2-0.95-0.23l-0.47.768c-0.27.423-.73,1.224-1.17,1.972a11.205,11.205,0,0,1-.84,1.319,0.589,0.589,0,0,1,.05-0.329l0.04-.13c0.09-.255.4-1.274,0.7-2.263l0.44-1.451c0.01-.014.02-0.01,0.03-0.025,0.1-.375.01-0.324-0.38-0.484-0.23-.081-0.45-0.178-0.62-0.228A0.4,0.4,0,0,0,1442.71,38.6Zm6.42,3.824c-0.4.756-1.53,2.942-2.5,4.871s-1.83,3.529-1.88,3.6l-0.04.068c-0.04.094,0.04,0.12,0.73,0.468l0.42,0.223L1446.75,50c0.4-.756.74-1.424,1.01-1.977,0.29-.594.49-1.045,0.61-1.288a0.5,0.5,0,0,1,.11-0.2l-1.05,5.928,0.02,0.007,0.8,0.36,0.79-1.585c0.89-1.754,4.22-8.157,4.33-8.305l0.02-.007a0.766,0.766,0,0,0-.52-0.37c-0.22-.1-0.37-0.211-0.48-0.263a0.11,0.11,0,0,0-.14-0.005,17.235,17.235,0,0,0-.97,1.849c-0.03.068-.07,0.148-0.11,0.229-0.38.782-1.1,2.353-1.42,3.014a0.857,0.857,0,0,1-.16.29c0.01-.013,1.03-4.62,1.15-5.245,0.04-.168.09-0.424,0.14-0.585,0.06-.269.02-0.289-0.49-0.538l-0.53-.256Zm5.32,4.125-4.76,7.2,0.64,0.421,0.55,0.363,0.23-.372c0.19-.321.45-0.71,0.74-1.148,1.34-2.042,3.51-5.2,4.73-7.016l0.66-.969-0.53-.38-0.63-.454Zm-1.64,7.658-1.02,1.16,0.32,0.265a1.624,1.624,0,0,0,1.02.515c0.81,0.045,1.15-.2,3.01-2.344,0.88-1.006,2.9-3.4,3.62-4.249l1.31-1.541-0.49-.44-0.51-.45-3.55,4.093c-1.54,1.778-2.88,3.279-2.98,3.332a0.655,0.655,0,0,1-.59-0.153A0.378,0.378,0,0,1,1452.81,54.208Zm9.7,4.593,0.97-.771-1.37-1.725-0.96.794Z" transform="translate(-1413.62 -37.313)"/>
</svg>
