<?xml version="1.0" encoding="utf-8"?>
<!-- Generator: Adobe Illustrator 15.0.0, SVG Export Plug-In . SVG Version: 6.00 Build 0)  -->
<!DOCTYPE svg PUBLIC "-//W3C//DTD SVG 1.1//EN" "http://www.w3.org/Graphics/SVG/1.1/DTD/svg11.dtd">
<svg version="1.1" id="Warstwa_1" xmlns="http://www.w3.org/2000/svg" xmlns:xlink="http://www.w3.org/1999/xlink" x="0px" y="0px"
	 width="478.717px" height="663.808px" viewBox="0 0 478.717 663.808" enable-background="new 0 0 478.717 663.808"
	 xml:space="preserve">
<g>
	<defs>
		<rect id="SVGID_1_" width="478.717" height="663.808"/>
	</defs>
	<clipPath id="SVGID_2_">
		<use xlink:href="#SVGID_1_"  overflow="visible"/>
	</clipPath>
	<path clip-path="url(#SVGID_2_)" fill="#FFFFFF" d="M120.139,553.409c0.692,0.234,1.38,0.472,2.067,0.718L284.17,259.541
		c-0.692-0.246-1.381-0.487-2.067-0.718L120.139,553.409z"/>
</g>
<g>
	<defs>
		<path id="SVGID_3_" d="M120.139,553.409c0.693,0.234,1.38,0.472,2.067,0.718L284.171,259.54c-0.694-0.246-1.381-0.487-2.069-0.718
			L120.139,553.409z"/>
	</defs>
	<clipPath id="SVGID_4_">
		<use xlink:href="#SVGID_3_"  overflow="visible"/>
	</clipPath>
	<polygon clip-path="url(#SVGID_4_)" fill="#FFFFFF" points="15.482,440.172 183.436,149.14 388.827,372.776 220.873,663.808 	"/>
</g>
<g>
	<defs>
		<rect id="SVGID_5_" width="478.717" height="663.808"/>
	</defs>
	<clipPath id="SVGID_6_">
		<use xlink:href="#SVGID_5_"  overflow="visible"/>
	</clipPath>
	<path clip-path="url(#SVGID_6_)" fill="#FFFFFF" d="M143.517,478.841c0.316,0.12,0.647,0.251,1.265,0.502
		c0.316,0.125,0.628,0.251,1.285,0.517c0.302,0.125,0.607,0.251,1.29,0.537c0.296,0.125,0.587,0.246,1.274,0.542
		c0.297,0.125,0.583,0.251,1.281,0.551c0.286,0.126,0.567,0.247,1.285,0.568c0.281,0.131,0.561,0.251,1.264,0.572l0.015,0.005
		L314.44,188.049c-0.005-0.005-0.01-0.01-0.017-0.01c-0.701-0.316-0.982-0.442-1.264-0.567c-0.718-0.316-1.004-0.442-1.29-0.567
		c-0.692-0.306-0.983-0.432-1.274-0.552c-0.692-0.302-0.983-0.422-1.28-0.542c-0.683-0.286-0.984-0.412-1.284-0.537
		c-0.663-0.266-0.974-0.397-1.29-0.522c-0.618-0.246-0.944-0.377-1.265-0.502L143.517,478.841z"/>
</g>
<g>
	<defs>
		<path id="SVGID_7_" d="M143.518,478.841c0.315,0.12,0.647,0.251,1.264,0.502c0.316,0.125,0.628,0.251,1.285,0.517
			c0.302,0.125,0.608,0.251,1.29,0.536c0.296,0.125,0.587,0.247,1.274,0.543c0.297,0.125,0.584,0.251,1.281,0.552
			c0.286,0.126,0.567,0.245,1.285,0.566c0.281,0.132,0.562,0.252,1.265,0.573l0.014,0.004L314.44,188.049
			c-0.005-0.005-0.011-0.01-0.016-0.01c-0.703-0.317-0.983-0.442-1.266-0.568c-0.717-0.316-1.003-0.441-1.289-0.566
			c-0.692-0.307-0.984-0.432-1.275-0.552c-0.691-0.302-0.982-0.422-1.278-0.542c-0.684-0.286-0.984-0.412-1.285-0.537
			c-0.663-0.267-0.975-0.397-1.29-0.522c-0.617-0.246-0.944-0.377-1.266-0.503L143.518,478.841z"/>
	</defs>
	<clipPath id="SVGID_8_">
		<use xlink:href="#SVGID_7_"  overflow="visible"/>
	</clipPath>
	<polygon clip-path="url(#SVGID_8_)" fill="#FFFFFF" points="37.768,367.492 209.474,69.96 420.189,299.393 248.483,596.924 	"/>
</g>
<g>
	<defs>
		<rect id="SVGID_9_" width="478.717" height="663.808"/>
	</defs>
	<clipPath id="SVGID_10_">
		<use xlink:href="#SVGID_9_"  overflow="visible"/>
	</clipPath>
	<path clip-path="url(#SVGID_10_)" fill="#FFFFFF" d="M323.475,112.327L153.875,420.74c1.466,0.029,2.942,0.086,4.427,0.171
		l169.599-308.412C326.41,112.413,324.935,112.357,323.475,112.327"/>
</g>
<g>
	<defs>
		<path id="SVGID_11_" d="M153.876,420.74c1.466,0.029,2.941,0.085,4.427,0.171l169.598-308.413
			c-1.491-0.085-2.968-0.141-4.428-0.17L153.876,420.74z"/>
	</defs>
	<clipPath id="SVGID_12_">
		<use xlink:href="#SVGID_11_"  overflow="visible"/>
	</clipPath>
	<polygon clip-path="url(#SVGID_12_)" fill="#FFFFFF" points="50.878,297.91 222.802,0 433.432,229.342 261.509,527.25 	"/>
</g>
<g>
	<defs>
		<rect id="SVGID_13_" width="478.717" height="663.808"/>
	</defs>
	<clipPath id="SVGID_14_">
		<use xlink:href="#SVGID_13_"  overflow="visible"/>
	</clipPath>
	<path clip-path="url(#SVGID_14_)" fill="#FFFFFF" d="M266.429,169.785L104.464,464.375c1.511-0.086,3.031-0.145,4.568-0.171
		l161.958-294.59C269.454,169.645,267.929,169.7,266.429,169.785"/>
</g>
<g>
	<defs>
		<path id="SVGID_15_" d="M266.429,169.785L104.465,464.376c1.51-0.086,3.031-0.146,4.567-0.171l161.959-294.591
			C269.455,169.645,267.928,169.7,266.429,169.785"/>
	</defs>
	<clipPath id="SVGID_16_">
		<use xlink:href="#SVGID_15_"  overflow="visible"/>
	</clipPath>
	<polygon clip-path="url(#SVGID_16_)" fill="#FFFFFF" points="0,350.631 168.726,58.264 375.455,283.359 206.729,575.726 	"/>
</g>
<g>
	<defs>
		<rect id="SVGID_17_" width="478.717" height="663.808"/>
	</defs>
	<clipPath id="SVGID_18_">
		<use xlink:href="#SVGID_17_"  overflow="visible"/>
	</clipPath>
	<path clip-path="url(#SVGID_18_)" fill="#FFFFFF" d="M163.344,357.455l-58.879,106.922c1.511-0.086,3.031-0.146,4.567-0.171
		l54.312-98.637V357.455"/>
</g>
<g>
	<defs>
		<path id="SVGID_19_" d="M104.465,464.376c1.51-0.086,3.031-0.146,4.567-0.171l54.312-98.637v-8.114L104.465,464.376z"/>
	</defs>
	<clipPath id="SVGID_20_">
		<use xlink:href="#SVGID_19_"  overflow="visible"/>
	</clipPath>
	<polygon clip-path="url(#SVGID_20_)" fill="#FFFFFF" points="0,350.631 168.726,58.264 375.455,283.359 206.729,575.726 	"/>
</g>
<g>
	<defs>
		<rect id="SVGID_21_" width="478.717" height="663.808"/>
	</defs>
	<clipPath id="SVGID_22_">
		<use xlink:href="#SVGID_21_"  overflow="visible"/>
	</clipPath>
	<path clip-path="url(#SVGID_22_)" fill="#FFFFFF" d="M163.423,272.333v55.953h-15.212v-55.953c0-3.846-3.147-6.994-6.994-6.994
		h-12.239v62.947h-15.037V189.98h25.179c11.365,0,24.129,9.267,24.129,20.807v33.397c0,5.42-2.099,10.491-5.77,14.512
		C161.15,262.018,163.423,266.914,163.423,272.333 M128.979,253.101h10.142c2.447,0,4.72-0.875,6.294-2.623
		c1.749-1.574,2.623-3.847,2.623-6.294v-33.397c0-5.071-4.022-9.092-8.917-9.092h-10.142V253.101z"/>
	<path clip-path="url(#SVGID_22_)" fill="#FFFFFF" d="M197.518,328.287h-7.343c-10.665,0-19.234-8.568-19.234-19.234V209.039
		c0-10.666,8.569-19.234,19.234-19.234h7.343c10.666,0,19.235,8.568,19.235,19.234v100.014
		C216.753,319.719,208.184,328.287,197.518,328.287 M192.448,201.52c-4.196,0-7.519,3.322-7.519,7.519v100.014
		c0,4.196,3.323,7.519,7.519,7.519h2.273c4.197,0,7.519-3.323,7.519-7.519V209.039c0-4.197-3.322-7.519-7.519-7.519H192.448z"/>
	<path clip-path="url(#SVGID_22_)" fill="#FFFFFF" d="M252.072,328.286h-7.345c-10.665,0-19.232-8.568-19.232-19.233V209.039
		c0-10.666,8.568-19.233,19.232-19.233h7.345c10.666,0,19.233,8.567,19.233,19.233v41.09h-14.163v-41.09
		c0-4.196-3.321-7.519-7.518-7.519h-2.623c-4.197,0-7.519,3.323-7.519,7.519v100.015c0,4.196,3.321,7.518,7.519,7.518h2.623
		c4.196,0,7.518-3.322,7.518-7.518v-43.538h14.163v43.538C271.306,319.718,262.738,328.286,252.072,328.286"/>
	<path clip-path="url(#SVGID_22_)" fill="#FFFFFF" d="M315.544,243.833c7.344,9.792,11.364,22.73,11.364,36.369v48.084h-13.464
		v-48.084c0-11.191-3.146-21.681-8.917-29.375c-4.021-5.42-6.295-8.917-11.54-10.491v87.95h-14.163V189.979h14.163v37.418
		c5.945-2.623,8.743-6.12,12.065-9.966c4.371-5.771,8.392-14.513,8.392-27.452h11.716c0,12.939-3.847,25.178-10.666,34.271
		c-2.972,4.196-6.47,7.518-10.315,9.966C307.676,236.665,312.746,239.987,315.544,243.833"/>
	<path clip-path="url(#SVGID_22_)" fill="#FFFFFF" d="M194.539,496.695h-7.16v-39.008h7.16c3.209,0,5.776,2.469,5.776,5.479v10.912
		c0,1.235-0.493,2.37-1.283,3.21c0.839,0.89,1.283,2.025,1.283,3.26v10.615C200.315,494.226,197.748,496.695,194.539,496.695
		 M191.329,460.994v14.665l3.309-0.048c0.987-0.05,1.727-0.742,1.727-1.532v-10.912c0-1.184-1.086-2.173-2.469-2.173H191.329z
		 M191.329,493.386h2.567c1.383,0,2.469-0.987,2.469-2.223v-10.615c0-0.494-0.246-0.841-0.444-1.037
		c-0.296-0.347-0.79-0.493-1.333-0.493h-3.259V493.386z"/>
	<path clip-path="url(#SVGID_22_)" fill="#FFFFFF" d="M220.512,496.695h-2.073c-3.013,0-5.432-2.42-5.432-5.433v-33.526h4.099
		v33.526c0,1.187,0.937,2.123,2.123,2.123h0.74c1.186,0,2.123-0.937,2.123-2.123v-33.526h3.852v33.526
		C225.943,494.275,223.524,496.695,220.512,496.695"/>
	<path clip-path="url(#SVGID_22_)" fill="#FFFFFF" d="M245.695,496.695h-2.963c-2.766,0-4.986-2.123-4.986-4.74v-10.271h3.999
		v10.271c0,0.79,0.741,1.431,1.679,1.431h1.68c0.938,0,1.679-0.641,1.679-1.431V479.56c0-0.543-0.544-1.036-1.187-1.036h-3.308
		c-2.518,0-4.542-1.927-4.542-4.297v-11.899c0-2.616,2.221-4.74,4.986-4.74h2.963c2.766,0,4.986,2.124,4.986,4.74v9.777h-3.899
		v-9.777c0-0.789-0.741-1.432-1.679-1.432h-1.68c-0.938,0-1.679,0.643-1.679,1.432v11.899c0,0.544,0.543,1.037,1.234,1.037h3.21
		c2.469,0,4.492,1.927,4.492,4.296v12.395C250.682,494.572,248.461,496.695,245.695,496.695"/>
	<rect x="263.078" y="457.587" clip-path="url(#SVGID_22_)" fill="#FFFFFF" width="3.95" height="39.106"/>
	<path clip-path="url(#SVGID_22_)" fill="#FFFFFF" d="M288.408,496.695c-1.729-7.062-3.703-17.185-5.776-25.528v25.478h-3.901
		v-39.008h3.259l0.396,1.285c0.295,1.037,0.642,2.567,1.135,4.395c0.89,3.702,2.074,8.542,3.309,13.431l1.58,6.517l0.1-25.577h3.852
		l-0.148,39.009H288.408z"/>
	<polygon clip-path="url(#SVGID_22_)" fill="#FFFFFF" points="308.26,461.044 308.26,475.414 315.616,475.414 315.616,478.721 
		308.26,478.721 308.26,493.386 315.616,493.386 315.616,496.694 304.31,496.694 304.31,457.735 315.616,457.735 315.616,461.044 	
		"/>
	<path clip-path="url(#SVGID_22_)" fill="#FFFFFF" d="M335.714,496.695h-2.962c-2.767,0-4.987-2.123-4.987-4.74v-10.271h3.999
		v10.271c0,0.79,0.741,1.431,1.679,1.431h1.678c0.939,0,1.681-0.641,1.681-1.431V479.56c0-0.543-0.544-1.036-1.187-1.036h-3.308
		c-2.518,0-4.542-1.927-4.542-4.297v-11.899c0-2.616,2.221-4.74,4.987-4.74h2.962c2.766,0,4.986,2.124,4.986,4.74v9.777h-3.899
		v-9.777c0-0.789-0.741-1.432-1.681-1.432h-1.678c-0.938,0-1.679,0.643-1.679,1.432v11.899c0,0.544,0.543,1.037,1.234,1.037h3.21
		c2.469,0,4.492,1.927,4.492,4.296v12.395C340.7,494.572,338.479,496.695,335.714,496.695"/>
	<path clip-path="url(#SVGID_22_)" fill="#FFFFFF" d="M360.996,496.695h-2.963c-2.766,0-4.986-2.123-4.986-4.74v-10.271h3.999
		v10.271c0,0.79,0.741,1.431,1.679,1.431h1.679c0.938,0,1.68-0.641,1.68-1.431V479.56c0-0.543-0.544-1.036-1.187-1.036h-3.308
		c-2.519,0-4.542-1.927-4.542-4.297v-11.899c0-2.616,2.221-4.74,4.986-4.74h2.963c2.766,0,4.986,2.124,4.986,4.74v9.777h-3.899
		v-9.777c0-0.789-0.741-1.432-1.68-1.432h-1.679c-0.938,0-1.679,0.643-1.679,1.432v11.899c0,0.544,0.543,1.037,1.233,1.037h3.211
		c2.469,0,4.492,1.927,4.492,4.296v12.395C365.982,494.572,363.762,496.695,360.996,496.695"/>
	<path clip-path="url(#SVGID_22_)" fill="#FFFFFF" d="M202.354,439.702h-9.593c-11.475,0-20.503-9.217-20.503-20.502v-60.943
		c0-11.286,9.028-20.503,20.503-20.503h9.593c11.285,0,20.502,9.217,20.502,20.503V419.2
		C222.855,430.485,213.639,439.702,202.354,439.702 M192.761,352.801c-3.01,0-5.455,2.445-5.455,5.455V419.2
		c0,3.009,2.445,5.454,5.455,5.454h9.593c3.009,0,5.454-2.445,5.454-5.454v-60.943c0-3.01-2.445-5.455-5.454-5.455H192.761z"/>
	<rect x="81.601" y="440.717" clip-path="url(#SVGID_22_)" fill="#FFFFFF" width="47.862" height="14.949"/>
	<path clip-path="url(#SVGID_22_)" fill="#FFFFFF" d="M163.344,334.735v164.212c0,13.543-11.099,24.454-24.453,24.454
		c-13.544,0-24.454-10.911-24.454-24.454v-58.311h15.049v58.311c0,5.079,4.137,9.217,9.405,9.217c5.078,0,9.216-4.138,9.216-9.217
		v-62.449h-12.603c-9.028,0-15.8-4.891-18.998-14.106c-2.257-6.021-2.445-12.791-2.445-17.306v-70.351h15.236l-0.188,70.351
		c0,1.881,0,7.899,1.505,12.227c1.504,4.137,3.385,4.137,4.89,4.137h12.603v-86.714H163.344z"/>
	<path clip-path="url(#SVGID_22_)" fill="#FFFFFF" d="M343.148,366.381v31.412h-15.048v-31.412c0-2.634-1.128-5.079-3.197-6.771
		c-1.881-1.692-4.515-2.634-6.96-2.634c-5.644,0-9.78,4.138-9.78,9.405h-0.188v75.989h-15.049V341.74h15.049v2.069
		c3.01-1.316,6.396-1.881,9.969-1.881c6.207,0,12.038,2.069,16.741,6.207C340.139,352.65,343.148,359.422,343.148,366.381"/>
	<path clip-path="url(#SVGID_22_)" fill="#FFFFFF" d="M262.688,436.499h-9.594c-11.285,0-20.502-9.028-20.502-20.502V334.55h15.048
		v81.446c0,3.009,2.444,5.454,5.454,5.454h9.594c3.009,0,5.454-2.445,5.454-5.454V334.55h15.048v81.446
		C283.19,427.47,273.974,436.499,262.688,436.499"/>
	<path clip-path="url(#SVGID_22_)" fill="#FFFFFF" d="M210.582,422.407c0.146,0.041,0.291,0.081,0.441,0.121
		c0.392,0.109,0.784,0.216,1.175,0.325l161.958-294.585c-0.392-0.11-0.783-0.22-1.17-0.326c-0.149-0.04-0.301-0.08-0.446-0.12
		L210.582,422.407z"/>
</g>
<g>
	<defs>
		<path id="SVGID_23_" d="M210.582,422.406c0.145,0.041,0.291,0.081,0.441,0.121c0.392,0.111,0.783,0.216,1.175,0.327
			l161.958-294.586c-0.392-0.11-0.783-0.221-1.169-0.326c-0.15-0.041-0.303-0.081-0.447-0.121L210.582,422.406z"/>
	</defs>
	<clipPath id="SVGID_24_">
		<use xlink:href="#SVGID_23_"  overflow="visible"/>
	</clipPath>
	<polygon clip-path="url(#SVGID_24_)" fill="#FFFFFF" points="106.021,309.004 273.703,18.444 478.716,241.671 311.035,532.231 	"/>
</g>
<g>
	<defs>
		<rect id="SVGID_25_" width="478.717" height="663.808"/>
	</defs>
	<clipPath id="SVGID_26_">
		<use xlink:href="#SVGID_25_"  overflow="visible"/>
	</clipPath>
	<path clip-path="url(#SVGID_26_)" fill="#FFFFFF" d="M134.222,496.695c0.316,0.12,0.647,0.251,1.265,0.502
		c0.316,0.125,0.627,0.251,1.285,0.517c0.301,0.126,0.607,0.251,1.29,0.537c0.296,0.125,0.587,0.246,1.274,0.542
		c0.296,0.126,0.582,0.251,1.281,0.551c0.286,0.126,0.566,0.247,1.284,0.568c0.281,0.131,0.562,0.251,1.264,0.572l0.016,0.005
		L201.75,393.03c-0.005-0.005-0.009-0.011-0.015-0.011c-0.702-0.315-0.984-0.44-1.265-0.566c-0.718-0.316-1.004-0.442-1.29-0.567
		c-0.692-0.306-0.983-0.432-1.274-0.552c-0.693-0.301-0.984-0.422-1.281-0.542c-0.682-0.286-0.983-0.412-1.284-0.537
		c-0.663-0.266-0.973-0.396-1.29-0.521c-0.617-0.246-0.943-0.377-1.265-0.502L134.222,496.695z"/>
</g>
<g>
	<defs>
		<path id="SVGID_27_" d="M134.222,496.694c0.317,0.121,0.647,0.251,1.265,0.502c0.317,0.126,0.627,0.252,1.285,0.518
			c0.301,0.126,0.608,0.251,1.29,0.537c0.296,0.125,0.587,0.246,1.275,0.542c0.295,0.126,0.582,0.251,1.28,0.552
			c0.286,0.126,0.566,0.246,1.284,0.566c0.281,0.132,0.563,0.251,1.265,0.572l0.015,0.006l58.568-107.46
			c-0.004-0.005-0.009-0.009-0.015-0.009c-0.702-0.315-0.984-0.44-1.264-0.567c-0.719-0.315-1.005-0.441-1.291-0.566
			c-0.692-0.306-0.983-0.432-1.274-0.553c-0.693-0.302-0.983-0.422-1.28-0.542c-0.683-0.286-0.984-0.412-1.285-0.537
			c-0.663-0.267-0.973-0.396-1.289-0.522c-0.618-0.246-0.943-0.376-1.265-0.502L134.222,496.694z"/>
	</defs>
	<clipPath id="SVGID_28_">
		<use xlink:href="#SVGID_27_"  overflow="visible"/>
	</clipPath>
	<polygon clip-path="url(#SVGID_28_)" fill="#FFFFFF" points="37.768,367.492 209.474,69.96 420.189,299.393 248.483,596.924 	"/>
</g>
</svg>
