<?xml version="1.0" encoding="utf-8"?>
<!-- Generator: Adobe Illustrator 15.0.0, SVG Export Plug-In . SVG Version: 6.00 Build 0)  -->
<!DOCTYPE svg PUBLIC "-//W3C//DTD SVG 1.1//EN" "http://www.w3.org/Graphics/SVG/1.1/DTD/svg11.dtd">
<svg version="1.1" id="Warstwa_1" xmlns="http://www.w3.org/2000/svg" xmlns:xlink="http://www.w3.org/1999/xlink" x="0px" y="0px"
	 width="95.518px" height="54.959px" viewBox="0 0 95.518 54.959" enable-background="new 0 0 95.518 54.959" xml:space="preserve">
<g>
	<defs>
		<rect id="SVGID_1_" width="95.518" height="54.959"/>
	</defs>
	<clipPath id="SVGID_2_">
		<use xlink:href="#SVGID_1_"  overflow="visible"/>
	</clipPath>
	<path clip-path="url(#SVGID_2_)" fill="#9E8B7B" d="M93.598,39.24c-5.563-1.292-6.203,3.881-10.439,3.839
		c-2.761-2.498-7.325-9.617-11.4-9.479c-0.799-2.319-1.599-4.641-2.4-6.96c-1.159-4.865,3.132-8.677,6-9.959l0.24-0.36
		c-2.238-3.48-4.479-6.96-6.719-10.44c-2.052-0.385-5.994,1.804-9.6,0.96c-4.941-1.156-7.168-4.358-10.92-6.12L47.639,0
		c-4.14,3.195-8.248,8.362-16.32,7.08C29.488,6.789,28.235,6.743,27,6c-2.32,3.519-4.641,7.04-6.96,10.56
		c2.723,2.183,7.505,4.614,6.239,10.559c-0.492,2.313-2.222,3.375-2.279,6.361c-6.807,0.03-6.796,8.258-12,9.84
		c-2.29,0.694-4.544-2.269-6-3.12c-1.923-1.126-4.213-0.192-6,0.359c0.72,0.479,1.44,0.959,2.16,1.439
		c2.497,3.28,7.017,9.562,13.679,6.84c3.086-1.261,4.624-4.937,8.161-5.399c0.119,0.119,0.239,0.239,0.359,0.359
		c0.351,2.514-1.522,4.08-2.04,6.24v0.12c2.535,1.321,4.037-2.183,5.761-2.76c0.989-0.331,2.555,1.533,3.599,1.801
		c5.314,1.355,12.941,0.648,15.12,5.04c0.28,0.238,0.561,0.479,0.84,0.719c3.517-6.297,15.174-2.789,19.199-7.56
		c2.042,0.609,3.245,2.467,5.401,3.239h0.84c-0.582-2.451-2.034-4.206-2.04-6.84v-0.12c0.24-0.12,0.479-0.239,0.719-0.358
		c3.097,1.319,4.821,4.218,7.92,5.398c8.053,3.067,11.24-6.201,15.601-8.159l0.239-0.359C95.036,39.491,94.598,39.472,93.598,39.24
		 M66.359,40.679c-3.204,5.203-16.318,3.39-18.36,8.04c-0.12,0.08-0.24,0.16-0.36,0.24c-3.881-5.176-15.286-2.564-18.719-8.28
		C24.751,33.74,35.473,25.974,29.999,18c-0.789-1.15-1.808-2.522-3.119-3.12c0.679-1.28,1.359-2.56,2.04-3.84
		c8.478,0.94,14.549,0.647,18.839-5.04c5.405,4.076,9.651,7.295,18.959,4.8c0.602,1.36,1.201,2.72,1.8,4.08
		c-1.488,0.813-2.245,2.038-3.119,3.48C60.542,26.365,70.607,33.778,66.359,40.679"/>
	<path clip-path="url(#SVGID_2_)" fill="#9E8B7B" d="M45.119,13.8c2.985-0.042,4.305,1.176,6.719,1.44
		c0.722-0.44,1.441-0.88,2.16-1.32c0.72,2.52,1.441,5.04,2.161,7.56c-0.479,0.08-0.96,0.16-1.441,0.24
		c-0.93-2.121-4.131-5.192-6.358-6c-3.363-1.218-6.796,1.097-5.88,4.56c1.174,4.438,12.307,3.953,14.64,9.6
		c2.071,5.016-1.813,10.187-5.64,11.04c-2.729,0.606-5.133-0.652-7.32-0.96c-1.931-0.273-3.12,0.764-4.2,0.719
		c-0.72-2.639-1.44-5.28-2.16-7.92c0.04-0.04,0.08-0.08,0.12-0.12c0.48-0.119,0.96-0.239,1.44-0.359
		c1.645,3.365,6.757,9.906,11.88,6.479c1.008-0.674,1.972-1.538,2.28-2.879c0.672-2.936-2.001-3.903-3.602-4.681
		c-5.216-2.537-10.477-2.515-11.519-9.36c-0.351-2.306,0.732-4.341,1.92-5.52C41.654,14.995,43.255,14.67,45.119,13.8"/>
</g>
</svg>
