<?xml version="1.0" encoding="utf-8"?>
<!-- Generator: Adobe Illustrator 15.0.0, SVG Export Plug-In . SVG Version: 6.00 Build 0)  -->
<!DOCTYPE svg PUBLIC "-//W3C//DTD SVG 1.1//EN" "http://www.w3.org/Graphics/SVG/1.1/DTD/svg11.dtd">
<svg version="1.1" id="Capa_1" xmlns="http://www.w3.org/2000/svg" xmlns:xlink="http://www.w3.org/1999/xlink" x="0px" y="0px"
	 width="90px" height="90px" viewBox="0 0 90 90" enable-background="new 0 0 90 90" xml:space="preserve">
<g>
	<g>
		<defs>
			<rect id="SVGID_1_" x="-0.105" y="18.966" width="90.105" height="53.634"/>
		</defs>
		<clipPath id="SVGID_2_">
			<use xlink:href="#SVGID_1_"  overflow="visible"/>
		</clipPath>
		<path clip-path="url(#SVGID_2_)" fill="#FFFFFF" d="M55.035,19.799c2.509,0.357,4.97,0.984,7.403,1.734
			c4.239,1.306,8.242,3.12,12.009,5.474c0.264,0.165,0.611,0.267,0.919,0.267c4.422,0.018,8.844,0.009,13.261,0.014
			c0.356,0,0.713,0.04,1.065,0.057c0,0.09,0.014,0.126,0,0.143c-0.205,0.322-0.414,0.633-0.624,0.949
			c-1.498,2.301-2.781,4.707-3.535,7.369c-0.084,0.285-0.103,0.521,0.09,0.803c3.94,5.652,5.192,11.862,3.548,18.548
			c-1.439,5.87-4.806,10.443-9.914,13.685c-3.655,2.313-7.688,3.419-11.999,3.441c-1.811,0.009-3.611-0.232-5.381-0.691
			c-4.311-1.119-8.006-3.268-11.055-6.521c-0.401-0.428-0.78-0.873-1.208-1.359c-1.609,2.402-3.196,4.761-4.818,7.186
			c-1.614-2.416-3.178-4.752-4.739-7.083c-0.107,0.058-0.138,0.063-0.16,0.085c-0.036,0.031-0.063,0.063-0.094,0.098
			c-3.682,4.351-8.318,7.017-13.961,7.908c-3.143,0.499-6.254,0.32-9.303-0.521c-4.319-1.187-7.997-3.469-10.962-6.834
			c-2.9-3.289-4.707-7.109-5.383-11.451c-0.776-4.057,0.169-7.962,0.405-8.912c0.682-2.759,1.873-5.287,3.508-7.618
			c0.116-0.165,0.157-0.454,0.098-0.655C3.54,33.471,2.391,31.245,1.05,29.12c-0.344-0.543-0.753-1.043-1.132-1.564v-0.178
			c0.075,0.009,0.15,0.021,0.227,0.021c4.524,0.004,9.048,0.004,13.573-0.005c0.196,0,0.415-0.08,0.584-0.188
			c3.178-2.041,6.566-3.654,10.124-4.916c2.567-0.905,5.184-1.609,7.858-2.127c2.585-0.503,5.188-0.855,7.814-1.029
			C46.508,18.644,51.629,19.322,55.035,19.799L55.035,19.799z M49.364,49.679c0,9.936,8.06,18.053,17.96,18.018
			c9.936-0.036,17.96-7.926,17.955-17.969c-0.009-10.356-8.407-18.134-18.343-17.934C57.13,31.995,49.454,39.902,49.364,49.679
			L49.364,49.679z M22.423,31.722c-9.664-0.08-18.093,7.984-17.924,18.259c0.161,9.579,8.055,17.701,18.125,17.616
			c9.842-0.084,17.759-8.126,17.777-17.856C40.414,39.738,32.404,31.722,22.423,31.722L22.423,31.722z M23.314,27.038
			c5.456,0.334,10.252,2.237,14.305,5.919c4.043,3.678,6.415,8.266,7.274,13.664c0.883-5.337,3.191-9.878,7.159-13.521
			c3.972-3.641,8.705-5.554,14.077-5.958c-6.375-2.836-13.092-4.039-20.011-4.169C38.261,22.817,30.616,23.976,23.314,27.038
			L23.314,27.038z M23.314,27.038"/>
	</g>
	<path fill="#FFFFFF" d="M67.289,38.347c6.146-0.014,11.126,4.943,11.126,11.082c0,6.17-4.895,10.935-10.667,11.153
		c-6.45,0.249-11.612-4.891-11.612-11.122C56.141,43.152,61.338,38.24,67.289,38.347L67.289,38.347z M74.541,49.46
		c-0.004-4.007-3.245-7.266-7.226-7.266c-4.025,0-7.302,3.241-7.319,7.235c-0.014,3.98,3.28,7.293,7.271,7.302
		C71.261,56.744,74.541,53.459,74.541,49.46L74.541,49.46z M74.541,49.46"/>
	<path fill="#FFFFFF" d="M22.187,38.347c6.143-0.009,11.13,4.953,11.113,11.096c-0.018,6.218-4.917,10.881-10.591,11.14
		c-6.473,0.294-11.697-4.868-11.688-11.136C11.034,43.099,16.267,38.24,22.187,38.347L22.187,38.347z M29.431,49.434
		c-0.014-4.03-3.276-7.25-7.346-7.24c-3.927,0.009-7.217,3.321-7.208,7.262c0.013,3.989,3.299,7.266,7.297,7.274
		C26.149,56.744,29.439,53.432,29.431,49.434L29.431,49.434z M29.431,49.434"/>
	<path fill="#FFFFFF" d="M67.293,45.769c2.037,0,3.709,1.672,3.691,3.696c-0.022,2.032-1.663,3.677-3.669,3.677
		c-2.063,0-3.722-1.631-3.718-3.65C63.603,47.396,65.211,45.773,67.293,45.769L67.293,45.769z M67.293,45.769"/>
	<path fill="#FFFFFF" d="M22.165,45.738c2.068-0.005,3.731,1.649,3.74,3.713c0.009,2.046-1.667,3.722-3.727,3.727
		c-2.108,0.005-3.735-1.623-3.735-3.74C18.442,47.356,20.065,45.738,22.165,45.738L22.165,45.738z M22.165,45.738"/>
</g>
</svg>
