<?xml version="1.0" encoding="utf-8"?>
<!-- Generator: Adobe Illustrator 15.0.0, SVG Export Plug-In . SVG Version: 6.00 Build 0)  -->
<!DOCTYPE svg PUBLIC "-//W3C//DTD SVG 1.1//EN" "http://www.w3.org/Graphics/SVG/1.1/DTD/svg11.dtd">
<svg version="1.1" id="Warstwa_1" xmlns="http://www.w3.org/2000/svg" xmlns:xlink="http://www.w3.org/1999/xlink" x="0" y="0" width="251" height="63" viewBox="0 0 251 63" enable-background="new 0 0 251 63" xml:space="preserve">
<g>
	<path fill="#FFFFFF" d="M86.331,20.471H67.994c-0.304,0-0.551,0.247-0.551,0.551v21.903c0,0.306,0.247,0.552,0.551,0.552h7.321
		c0.306,0,0.552-0.246,0.552-0.552v-5.512h9.681c0.304,0,0.551-0.246,0.551-0.551v-5.695c0-0.304-0.248-0.551-0.551-0.551h-9.681
		v-2.784h10.464c0.304,0,0.55-0.247,0.55-0.552v-6.259C86.881,20.718,86.634,20.471,86.331,20.471"/>
	<path fill="#FFFFFF" d="M97.734,20.471h-7.323c-0.305,0-0.552,0.247-0.552,0.551v21.903c0,0.306,0.247,0.552,0.552,0.552h7.323
		c0.304,0,0.551-0.246,0.551-0.552V21.022C98.285,20.718,98.038,20.471,97.734,20.471"/>
	<path fill="#FFFFFF" d="M124.087,20.471h-7.259c-0.304,0-0.551,0.247-0.551,0.551v8.105l-6.81-8.451
		c-0.105-0.131-0.263-0.206-0.429-0.206h-6.854c-0.306,0-0.551,0.247-0.551,0.551v21.903c0,0.306,0.246,0.552,0.551,0.552h7.26
		c0.304,0,0.551-0.246,0.551-0.552v-8.542l7.154,8.888c0.105,0.13,0.263,0.206,0.431,0.206h6.507c0.304,0,0.552-0.246,0.552-0.552
		V21.022C124.639,20.718,124.392,20.471,124.087,20.471"/>
	<path fill="#FFFFFF" d="M142.776,20.653c-0.085-0.205-0.286-0.338-0.509-0.338h-7.259c-0.222,0-0.424,0.133-0.509,0.338
		l-9.23,22.059c-0.072,0.17-0.052,0.365,0.05,0.519c0.103,0.152,0.275,0.246,0.459,0.246h7.822c0.229,0,0.432-0.141,0.515-0.354
		l0.991-2.587h6.91l1.021,2.593c0.083,0.209,0.287,0.349,0.514,0.349h7.948c0.184,0,0.354-0.094,0.458-0.246
		c0.103-0.153,0.12-0.349,0.05-0.519L142.776,20.653z M139.782,34.239h-2.413l1.205-3.203L139.782,34.239z"/>
	<path fill="#FFFFFF" d="M170.265,35.678c1.155-0.652,2.095-1.495,2.808-2.513c0.832-1.195,1.255-2.669,1.255-4.446
		c0-1.191-0.182-2.25-0.538-3.146c-0.36-0.898-0.905-1.72-1.625-2.438c-0.826-0.826-1.922-1.485-3.257-1.959
		c-1.315-0.469-3.004-0.705-5.018-0.705h-10.702c-0.304,0-0.552,0.246-0.552,0.551v21.902c0,0.306,0.248,0.552,0.552,0.552h7.323
		c0.303,0,0.552-0.246,0.552-0.552v-5.707h0.713l3.969,6.011c0.103,0.154,0.275,0.248,0.46,0.248h8.354
		c0.205,0,0.394-0.113,0.488-0.294c0.097-0.182,0.084-0.4-0.033-0.568L170.265,35.678z M161.063,27.707h2.64
		c0.737,0,1.318,0.141,1.721,0.419c0.349,0.241,0.513,0.597,0.513,1.188c0,0.495-0.168,0.853-0.531,1.123
		c-0.401,0.302-0.984,0.454-1.735,0.454h-2.606V27.707z"/>
	<path fill="#FFFFFF" d="M195.732,36.366h-11.09v-1.751h10.15c0.305,0,0.55-0.247,0.55-0.551v-4.186c0-0.304-0.245-0.552-0.55-0.552
		h-10.15v-1.745h10.932c0.307,0,0.553-0.248,0.553-0.552v-6.009c0-0.304-0.246-0.551-0.553-0.551h-18.679
		c-0.306,0-0.552,0.247-0.552,0.551v21.904c0,0.306,0.246,0.552,0.552,0.552h18.837c0.303,0,0.551-0.246,0.551-0.552v-6.007
		C196.283,36.613,196.035,36.366,195.732,36.366"/>
	<path fill="#FFFFFF" d="M221.217,20.471h-7.261c-0.304,0-0.552,0.247-0.552,0.551v8.105l-6.811-8.451
		c-0.104-0.131-0.261-0.206-0.428-0.206h-6.854c-0.304,0-0.55,0.247-0.55,0.551v21.903c0,0.306,0.246,0.552,0.55,0.552h7.261
		c0.305,0,0.552-0.246,0.552-0.552v-8.542l7.154,8.888c0.104,0.13,0.262,0.206,0.43,0.206h6.509c0.304,0,0.551-0.246,0.551-0.552
		V21.022C221.768,20.718,221.521,20.471,221.217,20.471"/>
	<path fill="#FFFFFF" d="M249.135,42.712l-9.23-22.059c-0.085-0.205-0.287-0.338-0.508-0.338h-7.261
		c-0.221,0-0.423,0.133-0.508,0.338l-9.23,22.059c-0.071,0.17-0.054,0.365,0.05,0.519c0.104,0.152,0.275,0.246,0.459,0.246h7.823
		c0.228,0,0.431-0.141,0.514-0.354l0.992-2.587h6.909l1.021,2.593c0.082,0.209,0.287,0.349,0.514,0.349h7.947
		c0.185,0,0.354-0.094,0.457-0.246C249.188,43.077,249.205,42.882,249.135,42.712 M236.909,34.239h-2.413l1.207-3.203
		L236.909,34.239z"/>
	<path fill="#FFFFFF" d="M29.554,4.49c0.464,0,0.927,0.041,1.392,0.067c0.335,0.019,0.67,0.017,1.004,0.049
		c0.232,0.022,0.463,0.071,0.695,0.1c0.562,0.07,1.126,0.135,1.686,0.243c4.729,0.917,9.245,3.204,12.904,6.864
		c2.978,2.977,5.046,6.519,6.207,10.283c0.051,0.165,0.082,0.334,0.129,0.5c0.168,0.59,0.334,1.183,0.46,1.782
		c0.082,0.398,0.127,0.802,0.192,1.202c0.058,0.372,0.135,0.742,0.177,1.114c0.049,0.438,0.059,0.879,0.086,1.319
		c0.019,0.34,0.06,0.678,0.065,1.019c0,0,0,0,0,0.002v0.001c0.006,0.327-0.021,0.656-0.028,0.983
		c-0.008,0.454-0.004,0.91-0.037,1.364c-0.023,0.297-0.076,0.591-0.108,0.888c-0.055,0.482-0.097,0.967-0.178,1.449
		c-0.035,0.208-0.096,0.414-0.136,0.622c-0.869,4.422-2.917,8.656-6.187,12.172c-0.001,0.003-0.003,0.003-0.005,0.006
		c0,0-0.001,0-0.001,0.001c-0.177,0.188-0.414,0.283-0.653,0.283c-0.218,0-0.435-0.079-0.605-0.239
		c-0.007-0.007-0.011-0.017-0.019-0.025v0.001l-5.013-5.012c-0.005-0.004-0.012-0.005-0.017-0.011
		c-0.009-0.009-0.011-0.02-0.02-0.026l-0.01-0.012c-0.011-0.01-0.014-0.024-0.024-0.034c-0.069-0.078-0.128-0.158-0.166-0.25
		c-0.011-0.028-0.012-0.059-0.021-0.086c-0.024-0.079-0.045-0.159-0.046-0.242c-0.001-0.049,0.013-0.095,0.02-0.146
		c0.01-0.06,0.013-0.119,0.036-0.18c0.027-0.073,0.075-0.14,0.122-0.205c0.018-0.025,0.024-0.055,0.045-0.077
		c0.011-0.011,0.02-0.022,0.029-0.035c0.002-0.003,0.003-0.005,0.005-0.008l0.008-0.008c0.077-0.087,0.143-0.181,0.218-0.269
		c0.268-0.312,0.532-0.625,0.771-0.951c0.063-0.088,0.115-0.179,0.177-0.268c0.236-0.336,0.468-0.676,0.677-1.027
		c0.046-0.077,0.083-0.159,0.128-0.24c0.208-0.365,0.41-0.731,0.588-1.108c0.036-0.079,0.062-0.16,0.099-0.238
		c0.172-0.385,0.338-0.769,0.479-1.163c0.02-0.059,0.034-0.117,0.054-0.175c0.145-0.417,0.278-0.837,0.387-1.263
		c0.008-0.034,0.014-0.068,0.021-0.104c0.353-1.419,0.515-2.877,0.477-4.33c-0.013-0.495-0.048-0.991-0.108-1.483
		c-0.411-3.454-1.944-6.8-4.597-9.454c-1.569-1.569-3.383-2.746-5.318-3.53c-1.875-0.761-3.864-1.145-5.856-1.167
		c-0.064-0.001-0.129-0.011-0.193-0.011s-0.129,0.009-0.193,0.011c-1.993,0.023-3.982,0.407-5.856,1.167
		c-1.936,0.785-3.749,1.961-5.318,3.53c-2.652,2.654-4.186,6-4.597,9.454c-0.06,0.492-0.095,0.988-0.108,1.483
		c-0.038,1.453,0.124,2.911,0.478,4.33c0.008,0.036,0.013,0.07,0.021,0.104c0.11,0.426,0.243,0.846,0.387,1.263
		c0.02,0.058,0.033,0.116,0.054,0.175c0.141,0.395,0.308,0.778,0.479,1.163c0.037,0.078,0.063,0.159,0.1,0.238
		c0.177,0.377,0.379,0.743,0.587,1.108c0.046,0.081,0.082,0.163,0.128,0.24c0.208,0.352,0.44,0.691,0.677,1.027
		c0.063,0.089,0.114,0.18,0.178,0.268c0.239,0.326,0.502,0.64,0.77,0.951c0.075,0.088,0.142,0.182,0.218,0.269l0.008,0.008
		c0.003,0.003,0.004,0.005,0.005,0.008c0.01,0.013,0.019,0.024,0.029,0.035c0.021,0.022,0.027,0.052,0.045,0.077
		c0.047,0.065,0.095,0.132,0.123,0.205c0.022,0.061,0.025,0.12,0.036,0.18c0.006,0.051,0.021,0.097,0.019,0.146
		c-0.001,0.083-0.022,0.163-0.046,0.242c-0.009,0.027-0.01,0.058-0.021,0.086c-0.039,0.092-0.097,0.172-0.167,0.25
		c-0.01,0.011-0.013,0.024-0.023,0.034l-0.009,0.012c-0.009,0.006-0.012,0.018-0.02,0.026c-0.005,0.006-0.013,0.007-0.018,0.011
		l-5.013,5.012v-0.001c-0.008,0.009-0.011,0.019-0.018,0.025c-0.171,0.16-0.388,0.239-0.605,0.239c-0.24,0-0.478-0.095-0.653-0.283
		l-0.001-0.002c-0.002-0.002-0.004-0.002-0.006-0.005c-3.269-3.516-5.317-7.75-6.186-12.172c-0.04-0.208-0.101-0.414-0.136-0.622
		c-0.082-0.482-0.123-0.967-0.178-1.449c-0.033-0.296-0.085-0.591-0.108-0.888c-0.033-0.454-0.029-0.91-0.038-1.364
		c-0.007-0.328-0.035-0.656-0.028-0.983v-0.002v-0.002c0.006-0.339,0.047-0.678,0.066-1.018c0.026-0.44,0.037-0.88,0.086-1.319
		c0.032-0.275,0.092-0.546,0.132-0.821c0.073-0.499,0.136-1,0.239-1.496c0.958-4.604,3.222-8.991,6.794-12.563
		c3.66-3.66,8.176-5.947,12.905-6.864c0.529-0.103,1.063-0.163,1.596-0.23c0.262-0.033,0.522-0.088,0.785-0.112
		c0.324-0.032,0.652-0.029,0.977-0.048c0.474-0.026,0.946-0.068,1.419-0.068h0.002h0.002h0.001h0.001h0.002H29.554 M29.552,3.387
		h-0.016h-0.017c-0.368,0.001-0.733,0.024-1.099,0.047l-0.358,0.023c-0.116,0.008-0.232,0.01-0.349,0.014
		c-0.225,0.008-0.449,0.016-0.671,0.037c-0.178,0.016-0.353,0.045-0.528,0.072c-0.097,0.016-0.194,0.032-0.292,0.044l-0.257,0.033
		c-0.458,0.058-0.93,0.116-1.409,0.208c-5.118,0.992-9.778,3.47-13.475,7.167c-3.607,3.606-6.059,8.142-7.094,13.118
		c-0.09,0.433-0.15,0.861-0.209,1.273l-0.042,0.289c-0.014,0.101-0.032,0.202-0.05,0.302C3.653,26.199,3.621,26.383,3.6,26.57
		c-0.038,0.337-0.055,0.674-0.072,1.013L3.51,27.946c-0.008,0.118-0.017,0.236-0.027,0.354c-0.019,0.236-0.038,0.472-0.042,0.708
		L3.44,29.055v0.001c-0.003,0.212,0.007,0.423,0.017,0.634c0.004,0.115,0.01,0.233,0.012,0.348l0.005,0.358
		c0.004,0.356,0.009,0.711,0.036,1.067c0.015,0.201,0.042,0.403,0.07,0.604c0.015,0.106,0.029,0.215,0.042,0.321l0.035,0.322
		c0.041,0.384,0.083,0.783,0.152,1.19c0.024,0.141,0.057,0.281,0.09,0.42c0.018,0.077,0.037,0.153,0.052,0.23
		c0.94,4.78,3.173,9.175,6.461,12.711l0.116,0.124l0.032,0.019c0.362,0.319,0.832,0.499,1.318,0.499
		c0.507,0,0.988-0.191,1.358-0.536l0.12-0.111l0.02-0.035l4.853-4.853l0.04-0.034l0.123-0.11l0.025-0.04l0.028-0.027l0.041-0.073
		c0.125-0.153,0.218-0.309,0.285-0.473l0.044-0.104l0.025-0.121c0.043-0.149,0.079-0.312,0.082-0.505
		c0.003-0.144-0.021-0.267-0.032-0.325c-0.013-0.097-0.032-0.241-0.093-0.405c-0.063-0.171-0.153-0.309-0.219-0.404
		c-0.022-0.039-0.05-0.084-0.083-0.132l-0.033-0.058l-0.12-0.122c0.001,0,0.001,0.001,0.001,0.001c0.001,0-0.02-0.029-0.043-0.059
		c-0.042-0.053-0.083-0.104-0.127-0.156c-0.242-0.282-0.496-0.582-0.719-0.888c-0.021-0.028-0.04-0.06-0.059-0.089
		c-0.034-0.053-0.068-0.106-0.105-0.158c-0.25-0.355-0.452-0.654-0.631-0.956l-0.036-0.068c-0.026-0.053-0.053-0.104-0.083-0.156
		c-0.175-0.306-0.377-0.669-0.548-1.031l-0.025-0.065c-0.021-0.053-0.042-0.105-0.066-0.156c-0.143-0.321-0.311-0.699-0.447-1.084
		c-0.021-0.069-0.034-0.116-0.051-0.162c-0.157-0.454-0.271-0.827-0.36-1.177c-0.003-0.02-0.011-0.059-0.02-0.096
		c-0.332-1.329-0.481-2.686-0.445-4.036c0.012-0.46,0.045-0.924,0.101-1.381c0.4-3.359,1.881-6.404,4.282-8.805
		c1.428-1.429,3.095-2.536,4.953-3.288c1.722-0.699,3.558-1.064,5.455-1.087c0.052-0.001,0.103-0.004,0.155-0.008
		c0.102,0.004,0.153,0.007,0.205,0.008c1.897,0.022,3.731,0.388,5.455,1.086c1.856,0.753,3.524,1.86,4.953,3.289
		c2.401,2.401,3.882,5.445,4.282,8.805c0.056,0.457,0.088,0.922,0.1,1.381c0.036,1.35-0.113,2.707-0.445,4.036l-0.007,0.032
		l-0.016,0.083c-0.085,0.33-0.2,0.703-0.356,1.157c-0.017,0.045-0.03,0.093-0.044,0.141c-0.144,0.407-0.311,0.785-0.454,1.104
		c-0.023,0.052-0.045,0.104-0.066,0.157l-0.026,0.065c-0.17,0.362-0.372,0.726-0.547,1.031c-0.029,0.051-0.056,0.104-0.083,0.157
		l-0.036,0.066c-0.178,0.303-0.381,0.6-0.631,0.957c-0.037,0.052-0.071,0.105-0.105,0.159c-0.021,0.028-0.038,0.06-0.059,0.088
		c-0.224,0.306-0.477,0.605-0.719,0.888c-0.044,0.052-0.085,0.104-0.126,0.156c-0.02,0.026-0.04,0.052-0.062,0.076l-0.09,0.091
		l-0.022,0.042l-0.045,0.05l-0.059,0.113c-0.073,0.104-0.158,0.239-0.222,0.413c-0.058,0.152-0.076,0.296-0.086,0.372
		c-0.014,0.08-0.038,0.203-0.035,0.357c0.002,0.183,0.039,0.344,0.08,0.488c0.013,0.065,0.035,0.146,0.073,0.237
		c0.064,0.156,0.154,0.305,0.271,0.454l0.029,0.053l0.04,0.043l0.025,0.042l0.132,0.123l0.055,0.049l4.839,4.839l0.014,0.026
		l0.128,0.123c0.369,0.344,0.851,0.535,1.358,0.535c0.491,0,0.966-0.184,1.33-0.509l0.034-0.021l0.111-0.122
		c3.278-3.526,5.513-7.921,6.452-12.701c0.016-0.077,0.034-0.153,0.052-0.23c0.033-0.139,0.065-0.279,0.09-0.42
		c0.069-0.407,0.111-0.807,0.152-1.19l0.035-0.322c0.012-0.106,0.026-0.215,0.042-0.321c0.028-0.202,0.056-0.402,0.07-0.604
		c0.027-0.356,0.032-0.712,0.036-1.067l0.005-0.358c0.002-0.115,0.008-0.233,0.012-0.348c0.009-0.199,0.018-0.4,0.017-0.6v-0.004
		l-0.001-0.079c0-0.002,0-0.005,0-0.008l-0.001-0.039v-0.002c-0.006-0.221-0.024-0.44-0.041-0.66
		c-0.009-0.117-0.018-0.235-0.026-0.353l-0.019-0.362c-0.017-0.339-0.034-0.677-0.071-1.014c-0.031-0.269-0.077-0.534-0.123-0.798
		c-0.022-0.122-0.043-0.243-0.062-0.365l-0.055-0.37c-0.043-0.296-0.086-0.592-0.147-0.886c-0.132-0.635-0.301-1.243-0.479-1.86
		c-0.018-0.058-0.031-0.118-0.045-0.178c-0.028-0.115-0.055-0.229-0.09-0.343c-1.243-4.027-3.485-7.739-6.481-10.737
		c-3.697-3.698-8.357-6.176-13.475-7.167c-0.543-0.104-1.082-0.17-1.602-0.234L32.78,3.61c-0.086-0.01-0.172-0.025-0.259-0.038
		c-0.154-0.025-0.31-0.05-0.467-0.065c-0.23-0.022-0.462-0.03-0.693-0.038c-0.118-0.004-0.236-0.008-0.355-0.014l-0.363-0.023
		c-0.359-0.023-0.719-0.045-1.079-0.046H29.552z"/>
	<path fill-rule="evenodd" clip-rule="evenodd" fill="#FFF200" d="M43.547,50.496l-3.87-3.87c-0.268-0.268-0.701-0.268-0.967,0
		c-0.008,0.008-0.01,0.019-0.017,0.025l-0.039,0.044l-0.183,0.198l-0.005,0.006l-0.211,0.216l-0.002-0.001
		c-0.872,0.872-1.846,1.576-2.879,2.132c-0.182,0.099-0.364,0.197-0.55,0.284c-0.118,0.057-0.238,0.104-0.356,0.157
		c-0.188,0.082-0.376,0.163-0.569,0.237c-0.12,0.045-0.241,0.083-0.361,0.123c-0.195,0.067-0.389,0.131-0.585,0.188
		c-0.125,0.037-0.25,0.066-0.375,0.098c-0.195,0.051-0.389,0.097-0.585,0.137c-0.133,0.026-0.268,0.05-0.403,0.07
		c-0.185,0.031-0.371,0.061-0.557,0.084c-0.155,0.018-0.311,0.03-0.466,0.045c-0.172,0.013-0.346,0.027-0.52,0.033
		c-0.164,0.008-0.329,0.008-0.493,0.008c-0.165,0-0.331,0-0.495-0.008c-0.173-0.006-0.346-0.021-0.521-0.033
		c-0.154-0.015-0.309-0.027-0.464-0.045c-0.188-0.023-0.373-0.053-0.559-0.084c-0.134-0.021-0.269-0.044-0.403-0.07
		c-0.196-0.04-0.39-0.086-0.583-0.137c-0.125-0.031-0.251-0.061-0.376-0.098c-0.195-0.057-0.39-0.12-0.584-0.188
		c-0.12-0.04-0.241-0.078-0.361-0.123c-0.192-0.074-0.381-0.155-0.568-0.237c-0.119-0.053-0.24-0.101-0.358-0.158
		c-0.185-0.086-0.367-0.184-0.549-0.282c-1.032-0.557-2.007-1.261-2.879-2.133l-0.002,0.001l-0.21-0.216l-0.006-0.006l-0.183-0.198
		l-0.039-0.044c-0.007-0.007-0.01-0.018-0.017-0.025c-0.267-0.268-0.7-0.268-0.966,0l-3.871,3.87
		c-0.136,0.137-0.201,0.314-0.198,0.493c0.001,0.169,0.063,0.339,0.189,0.47l0.416,0.432l0.053,0.06
		c3.734,3.733,8.63,5.601,13.528,5.603l0.001-0.001l0.002,0.001l0.002-0.001h0.001h0l0.002,0.001l0.002-0.001l0.001,0.001
		c4.897-0.002,9.794-1.869,13.526-5.603l0.053-0.06l0.416-0.432c0.126-0.131,0.189-0.301,0.19-0.47
		C43.748,50.811,43.683,50.633,43.547,50.496"/>
	<path fill="#FFF200" d="M29.548,38.326c-2.333,0-3.783-1.45-3.783-3.784c0-0.521,0.424-0.944,0.946-0.944
		c0.522,0,0.946,0.423,0.946,0.944c0,1.273,0.618,1.894,1.891,1.894s1.891-0.62,1.891-1.894c0-1.199-0.173-1.383-2.312-2.451
		c-2.209-1.104-3.362-1.79-3.362-4.167c0-2.334,1.45-3.784,3.783-3.784s3.784,1.45,3.784,3.784c0,0.521-0.424,0.945-0.946,0.945
		s-0.947-0.424-0.947-0.945c0-1.273-0.618-1.893-1.891-1.893c-1.29,0-1.891,0.602-1.891,1.893c0,1.221,0.173,1.405,2.313,2.475
		c2.269,1.134,3.361,1.783,3.361,4.144C33.332,36.876,31.882,38.326,29.548,38.326"/>
	<path fill="#FFF200" d="M29.548,26.031c-0.523,0-0.946-0.424-0.946-0.946v-2.837c0-0.521,0.423-0.945,0.946-0.945
		c0.523,0,0.946,0.424,0.946,0.945v2.837C30.494,25.607,30.072,26.031,29.548,26.031"/>
	<path fill="#FFF200" d="M29.548,41.161c-0.523,0-0.946-0.421-0.946-0.943V37.38c0-0.521,0.423-0.944,0.946-0.944
		c0.523,0,0.946,0.423,0.946,0.944v2.838C30.494,40.74,30.072,41.161,29.548,41.161"/>
	<path fill="#FFFFFF" d="M67.521,57.076v-5.918h-0.636c-0.073,0-0.132-0.021-0.178-0.069c-0.048-0.045-0.071-0.105-0.071-0.178
		c0-0.071,0.022-0.133,0.071-0.183c0.046-0.051,0.105-0.076,0.178-0.076h3.389c1.569,0,2.354,0.708,2.354,2.121
		c0,1.415-0.786,2.123-2.354,2.123h-2.17v2.18c0,0.072-0.029,0.131-0.086,0.18c-0.059,0.044-0.126,0.07-0.205,0.07
		c-0.081,0-0.147-0.026-0.206-0.07C67.55,57.207,67.521,57.148,67.521,57.076 M68.104,51.158v3.24h2.17
		c1.18,0,1.771-0.539,1.771-1.619s-0.591-1.621-1.771-1.621H68.104z"/>
	<path fill="#FFFFFF" d="M73.789,56.726c-0.384-0.4-0.577-0.909-0.577-1.527c0-0.62,0.195-1.129,0.583-1.529
		c0.388-0.397,0.885-0.6,1.49-0.6s1.1,0.202,1.485,0.6c0.385,0.4,0.578,0.912,0.578,1.533c0,0.625-0.193,1.133-0.578,1.528
		c-0.385,0.397-0.882,0.596-1.491,0.596C74.671,57.326,74.174,57.125,73.789,56.726 M75.285,56.828c0.44,0,0.796-0.15,1.075-0.454
		c0.277-0.301,0.415-0.694,0.415-1.172c0-0.479-0.138-0.871-0.415-1.176c-0.278-0.307-0.635-0.46-1.075-0.46
		s-0.797,0.153-1.074,0.46c-0.277,0.305-0.416,0.697-0.416,1.176c0,0.478,0.139,0.871,0.416,1.172
		C74.488,56.678,74.845,56.828,75.285,56.828"/>
	<path fill="#FFFFFF" d="M78.157,53.179h0.551c0.454,0,0.687,0.244,0.702,0.733c0.389-0.562,0.848-0.843,1.382-0.843
		c0.302,0,0.557,0.06,0.766,0.175c0.1,0.056,0.15,0.132,0.15,0.226v0.908c0,0.07-0.028,0.13-0.086,0.177
		c-0.058,0.048-0.126,0.069-0.205,0.069c-0.079,0-0.148-0.021-0.206-0.069c-0.057-0.047-0.086-0.106-0.086-0.177v-0.757
		c-0.094-0.036-0.234-0.055-0.421-0.055s-0.399,0.089-0.637,0.267c-0.237,0.177-0.442,0.436-0.615,0.781v2.464
		c0,0.069-0.029,0.129-0.086,0.175c-0.057,0.047-0.125,0.073-0.204,0.073c-0.081,0-0.149-0.026-0.206-0.073
		c-0.059-0.046-0.087-0.105-0.087-0.175v-3.186c0-0.139-0.072-0.207-0.215-0.207h-0.497c-0.072,0-0.131-0.022-0.178-0.069
		s-0.07-0.107-0.07-0.18c0-0.07,0.023-0.132,0.07-0.183S78.085,53.179,78.157,53.179"/>
	<path fill="#FFFFFF" d="M82.979,56.726c-0.385-0.4-0.578-0.909-0.578-1.527c0-0.62,0.194-1.129,0.582-1.529
		c0.39-0.398,0.887-0.6,1.491-0.6c0.604,0,1.1,0.201,1.484,0.6c0.385,0.4,0.579,0.912,0.579,1.532c0,0.626-0.194,1.134-0.579,1.529
		c-0.384,0.397-0.881,0.596-1.49,0.596S83.364,57.123,82.979,56.726 M85.963,55.201c0-0.478-0.137-0.87-0.414-1.175
		c-0.278-0.306-0.637-0.46-1.076-0.46c-0.438,0-0.797,0.154-1.074,0.46c-0.277,0.305-0.417,0.697-0.417,1.175
		c0,0.479,0.14,0.871,0.417,1.173c0.277,0.304,0.636,0.454,1.074,0.454c0.439,0,0.797-0.15,1.076-0.454
		C85.826,56.072,85.963,55.68,85.963,55.201 M84.648,51.32c0.064-0.071,0.125-0.106,0.183-0.106c0.057,0,0.116,0.027,0.173,0.086
		c0.057,0.059,0.086,0.114,0.086,0.173s-0.036,0.119-0.107,0.184l-0.67,0.595c-0.051,0.041-0.099,0.064-0.146,0.064
		c-0.047,0-0.088-0.019-0.125-0.056c-0.036-0.034-0.054-0.076-0.054-0.121c0-0.048,0.022-0.097,0.065-0.147L84.648,51.32z"/>
	<path fill="#FFFFFF" d="M91.871,57.119c-0.051,0.138-0.145,0.206-0.286,0.206c-0.142,0-0.229-0.064-0.266-0.194l-1.004-2.981
		l-1.004,2.981c-0.037,0.13-0.124,0.194-0.265,0.194s-0.235-0.064-0.286-0.194l-1.415-3.683c-0.015-0.034-0.022-0.072-0.022-0.108
		c0-0.107,0.065-0.188,0.195-0.237c0.042-0.021,0.089-0.033,0.14-0.033c0.115,0.015,0.19,0.064,0.226,0.151l1.136,3.025l1.014-3.004
		c0.037-0.114,0.128-0.173,0.276-0.173s0.239,0.059,0.275,0.173l1.025,3.015l1.134-3.036c0.044-0.107,0.099-0.162,0.167-0.162
		c0.069,0,0.131,0.016,0.189,0.044c0.13,0.05,0.195,0.13,0.195,0.237c0,0.036-0.008,0.074-0.022,0.108L91.871,57.119z"/>
	<path fill="#FFFFFF" d="M94.462,53.686h-0.508c-0.071,0-0.131-0.022-0.178-0.069s-0.071-0.107-0.071-0.178
		c0-0.072,0.024-0.133,0.071-0.184c0.047-0.052,0.107-0.076,0.178-0.076h0.583c0.446,0,0.669,0.244,0.669,0.733
		c0.431-0.562,0.976-0.842,1.63-0.842c0.388,0,0.708,0.099,0.956,0.298c0.249,0.196,0.373,0.487,0.373,0.869v2.267
		c0,0.136,0.097,0.205,0.291,0.205h0.421c0.072,0,0.132,0.025,0.179,0.075c0.046,0.053,0.069,0.112,0.069,0.185
		s-0.023,0.132-0.069,0.179c-0.047,0.045-0.107,0.069-0.179,0.069h-0.421c-0.582,0-0.875-0.232-0.875-0.701v-2.278
		c0-0.217-0.066-0.382-0.199-0.497c-0.134-0.114-0.319-0.175-0.557-0.175c-0.662,0-1.188,0.347-1.576,1.039v2.474
		c0,0.069-0.028,0.13-0.086,0.178c-0.057,0.045-0.126,0.069-0.205,0.069c-0.08,0-0.148-0.024-0.206-0.069
		c-0.058-0.048-0.087-0.108-0.087-0.178v-3.188C94.667,53.754,94.599,53.686,94.462,53.686"/>
	<path fill="#FFFFFF" d="M103.445,56.709h0.421c0.071,0,0.131,0.026,0.178,0.076c0.047,0.052,0.07,0.111,0.07,0.184
		s-0.023,0.132-0.07,0.179c-0.047,0.046-0.107,0.069-0.178,0.069h-0.475c-0.259,0-0.459-0.059-0.599-0.173
		c-0.141-0.113-0.211-0.277-0.211-0.486c0-0.035,0.004-0.075,0.011-0.118c-0.381,0.589-0.936,0.886-1.663,0.886
		c-0.404,0-0.72-0.108-0.945-0.325c-0.228-0.215-0.341-0.517-0.341-0.901c0-0.386,0.153-0.686,0.458-0.906
		c0.307-0.222,0.688-0.329,1.145-0.329c0.458,0,0.903,0.073,1.334,0.227v-0.747c0-0.344-0.126-0.566-0.378-0.668
		c-0.194-0.073-0.463-0.108-0.804-0.108c-0.342,0-0.657,0.06-0.944,0.174v0.681c0,0.071-0.03,0.132-0.088,0.178
		c-0.057,0.047-0.125,0.07-0.204,0.07c-0.08,0-0.147-0.023-0.206-0.07c-0.057-0.046-0.086-0.106-0.086-0.178V53.6
		c0-0.094,0.046-0.166,0.14-0.216c0.353-0.208,0.82-0.313,1.404-0.313c0.583,0,1.018,0.097,1.306,0.286
		c0.288,0.19,0.432,0.521,0.432,0.986v2.16C103.154,56.64,103.251,56.709,103.445,56.709 M102.582,55.544
		c-0.475-0.129-0.879-0.195-1.215-0.195c-0.335,0-0.609,0.066-0.82,0.195c-0.213,0.129-0.319,0.312-0.319,0.545
		c0,0.234,0.068,0.414,0.206,0.546c0.137,0.129,0.324,0.193,0.561,0.193c0.663,0,1.192-0.359,1.588-1.081V55.544z"/>
	<path fill="#FFFFFF" d="M103.91,59.301c0-0.106,0.064-0.183,0.194-0.227c0.411-0.129,0.687-0.352,0.832-0.659
		c0.144-0.31,0.216-0.734,0.216-1.273v-3.456h-0.712c-0.073,0-0.131-0.022-0.178-0.069s-0.07-0.107-0.07-0.178
		c0-0.072,0.023-0.134,0.07-0.185s0.105-0.075,0.178-0.075h1.047c0.166,0,0.25,0.083,0.25,0.249v3.714
		c0,0.634-0.092,1.131-0.276,1.494c-0.183,0.364-0.53,0.65-1.042,0.86c-0.071,0.028-0.14,0.043-0.204,0.043
		C104.011,59.539,103.91,59.458,103.91,59.301 M105.13,51.559c-0.065-0.072-0.098-0.158-0.098-0.259c0-0.102,0.033-0.187,0.098-0.26
		c0.064-0.07,0.155-0.107,0.27-0.107c0.116,0,0.208,0.037,0.276,0.107c0.068,0.073,0.103,0.158,0.103,0.26
		c0,0.101-0.035,0.187-0.103,0.259c-0.068,0.071-0.16,0.107-0.276,0.107C105.285,51.666,105.194,51.63,105.13,51.559"/>
	<path fill="#FFFFFF" d="M110.507,53.945c0.374-0.584,0.872-0.876,1.495-0.876c0.623,0,1.097,0.202,1.425,0.6
		c0.329,0.4,0.492,0.906,0.492,1.517c0,0.612-0.167,1.122-0.501,1.529c-0.336,0.406-0.799,0.611-1.395,0.611
		c-0.593,0-1.084-0.208-1.473-0.617v2.732c0,0.073-0.029,0.132-0.085,0.179c-0.059,0.046-0.127,0.069-0.207,0.069
		c-0.079,0-0.148-0.023-0.205-0.069c-0.059-0.047-0.087-0.105-0.087-0.179v-5.549c0-0.139-0.068-0.207-0.205-0.207h-0.508
		c-0.072,0-0.132-0.022-0.178-0.069c-0.046-0.047-0.07-0.107-0.07-0.18c0-0.07,0.023-0.132,0.07-0.183
		c0.046-0.051,0.106-0.075,0.178-0.075h0.583C110.297,53.179,110.521,53.434,110.507,53.945 M110.55,56.181
		c0.459,0.431,0.922,0.647,1.381,0.647c0.461,0,0.812-0.151,1.053-0.454c0.242-0.301,0.361-0.699,0.361-1.198
		c0-0.497-0.119-0.89-0.355-1.176c-0.238-0.288-0.566-0.434-0.984-0.434c-0.611,0-1.097,0.344-1.457,1.027V56.181z"/>
	<path fill="#FFFFFF" d="M114.75,53.179h0.552c0.452,0,0.687,0.244,0.701,0.733c0.39-0.562,0.849-0.843,1.383-0.843
		c0.302,0,0.556,0.06,0.766,0.175c0.1,0.056,0.15,0.132,0.15,0.226v0.908c0,0.07-0.028,0.13-0.087,0.177
		c-0.058,0.048-0.125,0.069-0.205,0.069c-0.078,0-0.147-0.021-0.205-0.069c-0.057-0.047-0.087-0.106-0.087-0.177v-0.757
		c-0.093-0.036-0.233-0.055-0.421-0.055c-0.187,0-0.398,0.089-0.637,0.267c-0.237,0.177-0.442,0.436-0.615,0.781v2.464
		c0,0.069-0.029,0.129-0.086,0.175c-0.057,0.047-0.126,0.073-0.206,0.073c-0.079,0-0.147-0.026-0.204-0.073
		c-0.06-0.046-0.088-0.105-0.088-0.175v-3.186c0-0.139-0.071-0.207-0.215-0.207h-0.497c-0.072,0-0.131-0.022-0.178-0.069
		c-0.047-0.047-0.07-0.107-0.07-0.18c0-0.07,0.023-0.132,0.07-0.183C114.619,53.203,114.679,53.179,114.75,53.179"/>
	<path fill="#FFFFFF" d="M122.806,56.709h0.42c0.072,0,0.132,0.026,0.179,0.076c0.046,0.052,0.069,0.111,0.069,0.184
		s-0.023,0.132-0.069,0.179c-0.047,0.046-0.107,0.069-0.179,0.069h-0.475c-0.259,0-0.458-0.059-0.599-0.173
		c-0.141-0.113-0.211-0.277-0.211-0.486c0-0.035,0.002-0.075,0.011-0.118c-0.382,0.589-0.936,0.886-1.662,0.886
		c-0.404,0-0.719-0.108-0.945-0.325c-0.228-0.215-0.341-0.517-0.341-0.901c0-0.386,0.153-0.686,0.459-0.906
		c0.306-0.222,0.688-0.329,1.145-0.329s0.901,0.073,1.333,0.227v-0.747c0-0.344-0.126-0.566-0.378-0.668
		c-0.194-0.073-0.463-0.108-0.804-0.108c-0.341,0-0.657,0.06-0.945,0.174v0.681c0,0.071-0.029,0.132-0.086,0.178
		c-0.058,0.047-0.125,0.07-0.204,0.07c-0.08,0-0.148-0.023-0.207-0.07c-0.057-0.046-0.085-0.106-0.085-0.178V53.6
		c0-0.094,0.046-0.166,0.139-0.216c0.353-0.208,0.821-0.313,1.404-0.313c0.583,0,1.019,0.097,1.307,0.286
		c0.288,0.19,0.433,0.521,0.433,0.986v2.16C122.515,56.64,122.611,56.709,122.806,56.709 M121.942,55.544
		c-0.476-0.129-0.881-0.195-1.215-0.195c-0.336,0-0.608,0.066-0.82,0.195c-0.213,0.129-0.319,0.312-0.319,0.545
		c0,0.234,0.068,0.414,0.205,0.546c0.137,0.129,0.324,0.193,0.562,0.193c0.663,0,1.192-0.359,1.588-1.081V55.544z"/>
	<path fill="#FFFFFF" d="M128.303,57.119c-0.052,0.138-0.146,0.206-0.287,0.206s-0.229-0.064-0.265-0.194l-1.004-2.981l-1.004,2.981
		c-0.037,0.13-0.124,0.194-0.264,0.194c-0.141,0-0.236-0.064-0.287-0.194l-1.415-3.683c-0.015-0.034-0.022-0.072-0.022-0.108
		c0-0.107,0.065-0.188,0.196-0.237c0.042-0.021,0.088-0.033,0.139-0.033c0.115,0.015,0.192,0.064,0.227,0.151l1.134,3.025
		l1.016-3.004c0.035-0.114,0.126-0.173,0.274-0.173s0.24,0.059,0.275,0.173l1.025,3.015l1.135-3.036
		c0.043-0.107,0.1-0.162,0.167-0.162c0.068,0,0.131,0.016,0.188,0.044c0.131,0.05,0.196,0.13,0.196,0.237
		c0,0.036-0.009,0.074-0.022,0.108L128.303,57.119z"/>
	<path fill="#FFFFFF" d="M133.797,49.626h-0.712c-0.072,0-0.133-0.024-0.181-0.069c-0.044-0.048-0.068-0.107-0.068-0.177
		c0-0.075,0.024-0.135,0.068-0.186c0.048-0.052,0.108-0.075,0.181-0.075h1.005c0.077,0,0.147,0.023,0.203,0.075
		c0.06,0.051,0.086,0.11,0.086,0.186v7.124c0,0.138,0.074,0.205,0.218,0.205h0.497c0.071,0,0.131,0.024,0.178,0.071
		c0.046,0.047,0.07,0.106,0.07,0.177c0,0.071-0.024,0.134-0.07,0.185c-0.047,0.051-0.106,0.075-0.178,0.075h-0.572
		c-0.469,0-0.696-0.255-0.682-0.768c-0.158,0.247-0.365,0.453-0.621,0.621c-0.254,0.17-0.545,0.256-0.868,0.256
		c-0.641,0-1.122-0.208-1.44-0.617c-0.322-0.41-0.482-0.917-0.482-1.523c0-0.604,0.168-1.107,0.503-1.511s0.793-0.605,1.376-0.605
		s1.08,0.193,1.49,0.572V49.626z M132.351,53.566c-0.41,0-0.737,0.147-0.982,0.443c-0.246,0.295-0.367,0.695-0.367,1.198
		c0,0.505,0.119,0.901,0.361,1.188c0.241,0.29,0.57,0.433,0.988,0.433c0.604,0,1.087-0.341,1.446-1.027v-1.585
		c-0.187-0.182-0.412-0.333-0.675-0.459C132.86,53.629,132.604,53.566,132.351,53.566"/>
	<path fill="#FFFFFF" d="M139.703,56.083v0.897c0,0.156-0.094,0.236-0.281,0.236h-3.248c-0.188,0-0.282-0.089-0.282-0.27
		c0-0.353,0.125-0.668,0.373-0.944c0.248-0.277,0.609-0.579,1.085-0.903l0.389-0.27c0.689-0.474,1.098-0.889,1.221-1.242h-2.365
		v0.604c0,0.074-0.029,0.132-0.086,0.179c-0.059,0.047-0.126,0.071-0.206,0.071s-0.146-0.024-0.204-0.071s-0.086-0.104-0.086-0.179
		V53.34c0-0.164,0.082-0.247,0.248-0.247h3.033c0.073,0,0.137,0.022,0.194,0.069s0.087,0.107,0.087,0.178
		c0,0.245-0.085,0.492-0.255,0.739c-0.168,0.249-0.343,0.446-0.521,0.59c-0.332,0.281-0.587,0.482-0.768,0.604l-0.324,0.238
		c-0.519,0.381-0.841,0.646-0.966,0.797c-0.127,0.153-0.207,0.288-0.243,0.411h2.623v-0.637c0-0.072,0.029-0.132,0.085-0.177
		c0.059-0.048,0.128-0.072,0.207-0.072c0.078,0,0.147,0.024,0.205,0.072C139.674,55.951,139.703,56.011,139.703,56.083"/>
	<path fill="#FFFFFF" d="M141.864,57.076c0,0.072-0.03,0.131-0.086,0.177c-0.059,0.047-0.127,0.073-0.206,0.073
		c-0.078,0-0.148-0.026-0.205-0.073c-0.06-0.046-0.087-0.104-0.087-0.177v-3.391h-0.712c-0.073,0-0.131-0.022-0.178-0.069
		s-0.071-0.107-0.071-0.178c0-0.072,0.024-0.134,0.071-0.185s0.104-0.075,0.178-0.075h1.048c0.165,0,0.248,0.083,0.248,0.249V57.076
		z M141.259,51.559c-0.064-0.072-0.098-0.158-0.098-0.259c0-0.102,0.033-0.187,0.098-0.26c0.065-0.07,0.155-0.107,0.27-0.107
		c0.116,0,0.208,0.037,0.275,0.107c0.069,0.073,0.104,0.158,0.104,0.26c0,0.101-0.035,0.187-0.104,0.259
		c-0.067,0.071-0.159,0.107-0.275,0.107C141.414,51.666,141.324,51.63,141.259,51.559"/>
	<path fill="#FFFFFF" d="M147.478,57.119c-0.051,0.138-0.146,0.206-0.285,0.206c-0.142,0-0.23-0.064-0.267-0.194l-1.003-2.981
		l-1.004,2.981c-0.036,0.13-0.123,0.194-0.265,0.194s-0.235-0.064-0.286-0.194l-1.414-3.683c-0.015-0.034-0.022-0.072-0.022-0.108
		c0-0.107,0.065-0.188,0.195-0.237c0.044-0.021,0.09-0.033,0.141-0.033c0.113,0.015,0.19,0.064,0.225,0.151l1.135,3.025l1.016-3.004
		c0.036-0.114,0.127-0.173,0.274-0.173c0.148,0,0.24,0.059,0.276,0.173l1.026,3.015l1.133-3.036
		c0.044-0.107,0.099-0.162,0.166-0.162c0.07,0,0.133,0.016,0.19,0.044c0.13,0.05,0.196,0.13,0.196,0.237
		c0,0.036-0.01,0.074-0.024,0.108L147.478,57.119z"/>
	<path fill="#FFFFFF" d="M153.007,56.181c0.051-0.088,0.108-0.13,0.172-0.13c0.064,0,0.129,0.016,0.195,0.048
		c0.064,0.034,0.108,0.083,0.135,0.151c0.024,0.069,0.02,0.133-0.017,0.188c-0.367,0.59-0.951,0.888-1.75,0.888
		c-0.634,0-1.131-0.205-1.494-0.612c-0.364-0.406-0.546-0.919-0.546-1.538c0-0.618,0.188-1.124,0.563-1.517
		c0.373-0.394,0.866-0.59,1.478-0.59c0.612,0,1.067,0.186,1.367,0.552c0.298,0.367,0.447,0.857,0.447,1.468
		c0,0.167-0.093,0.25-0.281,0.25l-2.991,0.01c0.03,0.446,0.177,0.805,0.438,1.075c0.264,0.271,0.602,0.404,1.02,0.404
		C152.305,56.828,152.728,56.611,153.007,56.181 M152.645,53.911c-0.205-0.228-0.499-0.345-0.886-0.345
		c-0.385,0-0.708,0.118-0.966,0.353c-0.259,0.234-0.421,0.54-0.485,0.923h2.677C152.963,54.452,152.85,54.144,152.645,53.911"/>
	<path fill="#FFFFFF" d="M160.846,56.828c0.071,0,0.132,0.023,0.178,0.069c0.047,0.048,0.07,0.107,0.07,0.181
		c0,0.069-0.023,0.13-0.07,0.178c-0.046,0.045-0.106,0.069-0.178,0.069c-0.642,0-1.226-0.175-1.755-0.522
		c-0.528-0.35-0.962-0.788-1.303-1.314v1.59c0,0.069-0.027,0.13-0.085,0.178c-0.057,0.045-0.125,0.069-0.204,0.069
		c-0.081,0-0.148-0.024-0.207-0.069c-0.058-0.048-0.084-0.108-0.084-0.178v-7.452h-0.714c-0.073,0-0.132-0.022-0.178-0.069
		c-0.048-0.047-0.07-0.107-0.07-0.177c0-0.074,0.022-0.135,0.07-0.187c0.046-0.05,0.104-0.074,0.178-0.074h1.005
		c0.071,0,0.138,0.024,0.198,0.074c0.063,0.052,0.091,0.112,0.091,0.187v4.522c0.419-0.569,0.943-0.853,1.579-0.853
		c0.408,0,0.734,0.094,0.97,0.285c0.239,0.19,0.356,0.454,0.356,0.794c0,0.339-0.106,0.611-0.324,0.82
		c-0.351,0.338-0.848,0.51-1.489,0.51c-0.237,0-0.451-0.026-0.636-0.078c0.309,0.411,0.699,0.755,1.171,1.031
		S160.363,56.828,160.846,56.828 M157.788,54.928c0.317,0.051,0.641,0.075,0.974,0.075c0.331,0,0.639-0.067,0.923-0.199
		c0.285-0.133,0.427-0.348,0.427-0.643c0-0.411-0.249-0.614-0.744-0.614c-0.67,0-1.195,0.351-1.579,1.058V54.928z"/>
	<path fill="#FFFFFF" d="M162.211,56.726c-0.386-0.4-0.577-0.909-0.577-1.527c0-0.62,0.194-1.129,0.583-1.529
		c0.388-0.397,0.886-0.6,1.49-0.6s1.1,0.202,1.484,0.6c0.385,0.4,0.578,0.912,0.578,1.533c0,0.625-0.193,1.133-0.578,1.528
		c-0.385,0.397-0.883,0.596-1.49,0.596S162.597,57.125,162.211,56.726 M163.707,56.828c0.44,0,0.796-0.15,1.074-0.454
		c0.276-0.301,0.415-0.694,0.415-1.172c0-0.479-0.139-0.871-0.415-1.176c-0.278-0.307-0.634-0.46-1.074-0.46
		s-0.798,0.153-1.074,0.46c-0.277,0.305-0.416,0.697-0.416,1.176c0,0.478,0.139,0.871,0.416,1.172
		C162.909,56.678,163.267,56.828,163.707,56.828"/>
	<path fill="#FFFFFF" d="M166.764,56.798v-0.877c0-0.072,0.027-0.131,0.085-0.177c0.058-0.048,0.127-0.069,0.205-0.069
		c0.08,0,0.147,0.021,0.205,0.069c0.059,0.046,0.086,0.104,0.086,0.177v0.734c0.347,0.115,0.707,0.173,1.081,0.173
		c0.82,0,1.231-0.231,1.231-0.691c0-0.345-0.387-0.601-1.156-0.766c-0.035-0.008-0.114-0.025-0.237-0.056
		c-0.122-0.028-0.224-0.051-0.302-0.069c-0.079-0.018-0.211-0.062-0.396-0.129c-0.184-0.068-0.315-0.139-0.395-0.21
		c-0.214-0.196-0.323-0.435-0.323-0.719c0-0.285,0.095-0.515,0.287-0.691c0.189-0.176,0.401-0.291,0.63-0.346
		c0.23-0.053,0.484-0.081,0.757-0.081c0.505,0,0.97,0.098,1.393,0.291c0.13,0.058,0.195,0.137,0.195,0.238v0.831
		c0,0.072-0.029,0.132-0.088,0.18c-0.058,0.046-0.124,0.069-0.205,0.069c-0.079,0-0.146-0.023-0.203-0.069
		c-0.06-0.048-0.087-0.107-0.087-0.18v-0.69c-0.29-0.114-0.623-0.175-1.005-0.175c-0.733,0-1.102,0.211-1.102,0.627
		c0,0.151,0.05,0.257,0.146,0.315c0.098,0.057,0.171,0.1,0.217,0.13c0.048,0.027,0.131,0.056,0.253,0.086
		c0.173,0.041,0.351,0.081,0.53,0.117c0.18,0.037,0.327,0.069,0.442,0.098c0.114,0.029,0.261,0.078,0.437,0.145
		c0.178,0.069,0.315,0.147,0.415,0.232c0.253,0.202,0.379,0.465,0.379,0.788c0,0.325-0.105,0.583-0.319,0.773
		c-0.21,0.191-0.441,0.313-0.69,0.365c-0.247,0.056-0.516,0.083-0.804,0.083c-0.568,0-1.059-0.094-1.468-0.281
		C166.828,56.985,166.764,56.903,166.764,56.798"/>
	<path fill="#FFFFFF" d="M174.979,56.083v0.897c0,0.156-0.094,0.236-0.28,0.236h-3.251c-0.187,0-0.281-0.089-0.281-0.27
		c0-0.353,0.126-0.668,0.374-0.944c0.248-0.277,0.609-0.579,1.085-0.903l0.389-0.27c0.69-0.474,1.097-0.889,1.22-1.242h-2.364v0.604
		c0,0.074-0.029,0.132-0.086,0.179c-0.059,0.047-0.127,0.071-0.206,0.071c-0.08,0-0.148-0.024-0.205-0.071
		c-0.058-0.047-0.087-0.104-0.087-0.179V53.34c0-0.164,0.084-0.247,0.249-0.247h3.034c0.071,0,0.137,0.022,0.193,0.069
		c0.058,0.047,0.087,0.107,0.087,0.178c0,0.245-0.083,0.492-0.254,0.739c-0.169,0.249-0.345,0.446-0.523,0.59
		c-0.331,0.281-0.586,0.482-0.767,0.604l-0.323,0.238c-0.52,0.381-0.842,0.646-0.967,0.797c-0.126,0.153-0.207,0.288-0.243,0.411
		h2.624v-0.637c0-0.072,0.028-0.132,0.086-0.177c0.057-0.048,0.125-0.072,0.205-0.072s0.148,0.024,0.206,0.072
		C174.952,55.951,174.979,56.011,174.979,56.083"/>
	<path fill="#FFFFFF" d="M179.303,56.492c0.076,0.015,0.129,0.047,0.157,0.094c0.029,0.046,0.042,0.087,0.042,0.123
		c0,0.109-0.038,0.188-0.117,0.238c-0.432,0.253-0.896,0.378-1.392,0.378c-0.498,0-0.854-0.103-1.07-0.308
		c-0.216-0.206-0.323-0.545-0.323-1.022v-2.31h-0.604c-0.073,0-0.131-0.021-0.18-0.068c-0.045-0.047-0.069-0.108-0.069-0.179
		c0-0.073,0.024-0.134,0.069-0.184c0.049-0.052,0.106-0.076,0.18-0.076h0.604v-1.544c0-0.072,0.027-0.132,0.086-0.177
		c0.056-0.047,0.126-0.072,0.203-0.072c0.08,0,0.148,0.025,0.208,0.072c0.057,0.045,0.085,0.104,0.085,0.177v1.544h1.814
		c0.072,0,0.131,0.024,0.178,0.076c0.047,0.05,0.069,0.11,0.069,0.184c0,0.07-0.022,0.132-0.069,0.179s-0.105,0.068-0.178,0.068
		h-1.814v2.31c0,0.304,0.063,0.519,0.189,0.644c0.125,0.126,0.358,0.189,0.702,0.189c0.342,0,0.686-0.101,1.03-0.302
		C179.162,56.489,179.229,56.479,179.303,56.492"/>
	<path fill="#FFFFFF" d="M179.567,59.161l0.346,0.032c0.353,0,0.642-0.147,0.864-0.443c0.173-0.223,0.364-0.552,0.573-0.982
		l0.366-0.757l-1.759-3.563c-0.029-0.063-0.028-0.129,0.005-0.192c0.031-0.066,0.082-0.112,0.15-0.146
		c0.067-0.033,0.137-0.049,0.206-0.049c0.068,0,0.127,0.055,0.177,0.161l1.521,3.197l1.523-3.197
		c0.051-0.106,0.108-0.161,0.173-0.161c0.173,0,0.293,0.064,0.357,0.195c0.013,0.036,0.021,0.07,0.021,0.102
		c0,0.032-0.009,0.063-0.021,0.091l-2.204,4.537c-0.136,0.287-0.246,0.502-0.329,0.642c-0.083,0.142-0.203,0.311-0.361,0.513
		c-0.31,0.367-0.734,0.551-1.274,0.551c-0.15,0-0.266-0.009-0.345-0.034c-0.159-0.034-0.226-0.124-0.207-0.273
		C179.375,59.233,179.445,59.161,179.567,59.161"/>
	<path fill="#FFFFFF" d="M191.186,56.828c0.073,0,0.132,0.023,0.179,0.069c0.047,0.048,0.07,0.107,0.07,0.181
		c0,0.069-0.023,0.13-0.07,0.178c-0.047,0.045-0.105,0.069-0.179,0.069c-0.641,0-1.225-0.175-1.754-0.522
		c-0.53-0.35-0.963-0.788-1.301-1.314v1.59c0,0.069-0.029,0.13-0.086,0.178c-0.059,0.045-0.126,0.069-0.207,0.069
		c-0.078,0-0.147-0.024-0.203-0.069c-0.06-0.048-0.086-0.108-0.086-0.178v-7.452h-0.715c-0.071,0-0.131-0.022-0.177-0.069
		c-0.048-0.047-0.07-0.107-0.07-0.177c0-0.074,0.022-0.135,0.07-0.187c0.046-0.05,0.105-0.074,0.177-0.074h1.004
		c0.073,0,0.139,0.024,0.2,0.074c0.063,0.052,0.093,0.112,0.093,0.187v4.522c0.418-0.569,0.942-0.853,1.577-0.853
		c0.409,0,0.733,0.094,0.971,0.285c0.237,0.19,0.357,0.454,0.357,0.794c0,0.339-0.109,0.611-0.324,0.82
		c-0.353,0.338-0.852,0.51-1.491,0.51c-0.236,0-0.45-0.026-0.636-0.078c0.308,0.411,0.701,0.755,1.17,1.031
		C190.229,56.688,190.704,56.828,191.186,56.828 M188.131,54.928c0.315,0.051,0.64,0.075,0.973,0.075
		c0.331,0,0.638-0.067,0.922-0.199c0.285-0.133,0.428-0.348,0.428-0.643c0-0.411-0.249-0.614-0.745-0.614
		c-0.671,0-1.197,0.351-1.577,1.058V54.928z"/>
	<path fill="#FFFFFF" d="M191.975,53.179h0.551c0.454,0,0.687,0.244,0.702,0.733c0.39-0.562,0.849-0.843,1.383-0.843
		c0.301,0,0.557,0.06,0.766,0.175c0.102,0.056,0.15,0.132,0.15,0.226v0.908c0,0.07-0.027,0.13-0.086,0.177
		c-0.058,0.048-0.126,0.069-0.205,0.069c-0.078,0-0.147-0.021-0.205-0.069c-0.057-0.047-0.087-0.106-0.087-0.177v-0.757
		c-0.094-0.036-0.232-0.055-0.421-0.055c-0.187,0-0.399,0.089-0.638,0.267c-0.236,0.177-0.441,0.436-0.613,0.781v2.464
		c0,0.069-0.03,0.129-0.086,0.175c-0.059,0.047-0.128,0.073-0.206,0.073c-0.079,0-0.148-0.026-0.205-0.073
		c-0.06-0.046-0.088-0.105-0.088-0.175v-3.186c0-0.139-0.071-0.207-0.216-0.207h-0.496c-0.073,0-0.131-0.022-0.178-0.069
		s-0.07-0.107-0.07-0.18c0-0.07,0.023-0.132,0.07-0.183S191.901,53.179,191.975,53.179"/>
	<path fill="#FFFFFF" d="M199.533,56.181c0.051-0.088,0.106-0.13,0.172-0.13s0.13,0.016,0.195,0.048
		c0.065,0.034,0.109,0.083,0.134,0.151c0.025,0.069,0.021,0.133-0.015,0.188c-0.366,0.59-0.952,0.888-1.75,0.888
		c-0.635,0-1.132-0.205-1.495-0.612c-0.363-0.406-0.545-0.919-0.545-1.538c0-0.618,0.186-1.124,0.562-1.517
		c0.373-0.394,0.867-0.59,1.479-0.59c0.61,0,1.067,0.186,1.367,0.552c0.298,0.367,0.447,0.857,0.447,1.468
		c0,0.167-0.095,0.25-0.281,0.25l-2.991,0.01c0.028,0.446,0.175,0.805,0.438,1.075c0.262,0.271,0.602,0.404,1.02,0.404
		C198.831,56.828,199.252,56.611,199.533,56.181 M199.172,53.911c-0.207-0.228-0.501-0.345-0.886-0.345s-0.708,0.118-0.967,0.353
		s-0.422,0.54-0.485,0.923h2.677C199.49,54.452,199.376,54.144,199.172,53.911"/>
	<path fill="#FFFFFF" d="M204.401,49.626h-0.711c-0.073,0-0.133-0.024-0.18-0.069c-0.046-0.048-0.068-0.107-0.068-0.177
		c0-0.075,0.022-0.135,0.068-0.186c0.047-0.052,0.106-0.075,0.18-0.075h1.005c0.078,0,0.146,0.023,0.203,0.075
		c0.06,0.051,0.087,0.11,0.087,0.186v7.124c0,0.138,0.073,0.205,0.216,0.205h0.498c0.071,0,0.131,0.024,0.177,0.071
		c0.047,0.047,0.071,0.106,0.071,0.177c0,0.071-0.024,0.134-0.071,0.185c-0.046,0.051-0.105,0.075-0.177,0.075h-0.572
		c-0.468,0-0.696-0.255-0.682-0.768c-0.158,0.247-0.365,0.453-0.622,0.621c-0.254,0.17-0.544,0.256-0.867,0.256
		c-0.641,0-1.121-0.208-1.441-0.617c-0.321-0.41-0.482-0.917-0.482-1.523c0-0.604,0.169-1.107,0.504-1.511s0.793-0.605,1.377-0.605
		c0.582,0,1.08,0.193,1.488,0.572V49.626z M202.956,53.566c-0.41,0-0.738,0.147-0.982,0.443c-0.245,0.295-0.367,0.695-0.367,1.198
		c0,0.505,0.118,0.901,0.36,1.188c0.242,0.29,0.571,0.433,0.989,0.433c0.604,0,1.087-0.341,1.445-1.027v-1.585
		c-0.187-0.182-0.412-0.333-0.674-0.459C203.465,53.629,203.208,53.566,202.956,53.566"/>
	<path fill="#FFFFFF" d="M205.828,59.161l0.346,0.032c0.351,0,0.641-0.147,0.864-0.443c0.172-0.223,0.363-0.552,0.571-0.982
		l0.366-0.757l-1.758-3.563c-0.03-0.063-0.028-0.129,0.003-0.192c0.032-0.066,0.085-0.112,0.152-0.146
		c0.068-0.033,0.138-0.049,0.207-0.049c0.066,0,0.125,0.055,0.176,0.161l1.523,3.197l1.521-3.197
		c0.051-0.106,0.108-0.161,0.173-0.161c0.173,0,0.293,0.064,0.356,0.195c0.014,0.036,0.022,0.07,0.022,0.102
		c0,0.032-0.009,0.063-0.022,0.091l-2.203,4.537c-0.137,0.287-0.246,0.502-0.329,0.642c-0.083,0.142-0.203,0.311-0.362,0.513
		c-0.309,0.367-0.734,0.551-1.274,0.551c-0.15,0-0.265-0.009-0.345-0.034c-0.157-0.034-0.226-0.124-0.206-0.273
		C205.634,59.233,205.707,59.161,205.828,59.161"/>
	<path fill="#FFFFFF" d="M214.428,56.492c0.076,0.015,0.128,0.047,0.156,0.094c0.029,0.046,0.043,0.087,0.043,0.123
		c0,0.109-0.039,0.188-0.117,0.238c-0.433,0.253-0.896,0.378-1.392,0.378c-0.499,0-0.854-0.103-1.071-0.308
		c-0.216-0.206-0.322-0.545-0.322-1.022v-2.31h-0.605c-0.073,0-0.132-0.021-0.179-0.068c-0.046-0.047-0.069-0.108-0.069-0.179
		c0-0.073,0.023-0.134,0.069-0.184c0.047-0.052,0.105-0.076,0.179-0.076h0.605v-1.544c0-0.072,0.028-0.132,0.085-0.177
		c0.057-0.047,0.126-0.072,0.205-0.072c0.078,0,0.146,0.025,0.206,0.072c0.058,0.045,0.086,0.104,0.086,0.177v1.544h1.814
		c0.07,0,0.131,0.024,0.178,0.076c0.047,0.05,0.07,0.11,0.07,0.184c0,0.07-0.023,0.132-0.07,0.179s-0.107,0.068-0.178,0.068h-1.814
		v2.31c0,0.304,0.063,0.519,0.188,0.644c0.125,0.126,0.361,0.189,0.702,0.189c0.343,0,0.686-0.101,1.031-0.302
		C214.286,56.489,214.354,56.479,214.428,56.492"/>
	<path fill="#FFFFFF" d="M219.477,56.709h0.507c0.071,0,0.13,0.024,0.177,0.069c0.049,0.048,0.072,0.108,0.072,0.179
		c0,0.071-0.023,0.135-0.072,0.184c-0.047,0.051-0.105,0.076-0.177,0.076H219.4c-0.447,0-0.67-0.245-0.67-0.734
		c-0.432,0.562-0.976,0.843-1.631,0.843c-0.389,0-0.706-0.1-0.955-0.298c-0.248-0.198-0.371-0.487-0.371-0.869v-2.266
		c0-0.138-0.098-0.207-0.293-0.207h-0.422c-0.071,0-0.13-0.024-0.176-0.075c-0.049-0.05-0.07-0.112-0.07-0.183
		c0-0.072,0.021-0.132,0.07-0.179c0.046-0.047,0.104-0.07,0.176-0.07h0.422c0.583,0,0.876,0.234,0.876,0.701v2.278
		c0,0.216,0.065,0.382,0.198,0.497s0.318,0.173,0.557,0.173c0.661,0,1.188-0.346,1.576-1.036v-2.473
		c0-0.071,0.028-0.132,0.085-0.178c0.06-0.048,0.129-0.071,0.208-0.071c0.077,0,0.146,0.023,0.203,0.071
		c0.058,0.046,0.086,0.106,0.086,0.178v3.185C219.27,56.64,219.339,56.709,219.477,56.709"/>
	<path fill="#FFFFFF" d="M221.102,57.211c-0.068-0.074-0.103-0.167-0.103-0.274c0-0.108,0.034-0.201,0.103-0.276
		c0.068-0.074,0.163-0.112,0.285-0.112s0.22,0.038,0.294,0.112c0.07,0.075,0.106,0.168,0.106,0.276c0,0.107-0.036,0.2-0.106,0.274
		c-0.074,0.075-0.172,0.115-0.294,0.115S221.17,57.286,221.102,57.211"/>
</g>
</svg>
