<?xml version="1.0" encoding="utf-8"?>
<!-- Generator: Adobe Illustrator 15.0.0, SVG Export Plug-In . SVG Version: 6.00 Build 0)  -->
<!DOCTYPE svg PUBLIC "-//W3C//DTD SVG 1.1//EN" "http://www.w3.org/Graphics/SVG/1.1/DTD/svg11.dtd">
<svg version="1.1" id="Warstwa_1" xmlns="http://www.w3.org/2000/svg" xmlns:xlink="http://www.w3.org/1999/xlink" x="0px" y="0px"
	 width="251px" height="63px" viewBox="0 0 251 63" enable-background="new 0 0 251 63" xml:space="preserve">
<g>
	<path d="M85.018,20.203H66.511c-0.308,0-0.557,0.25-0.557,0.557v22.107c0,0.307,0.249,0.556,0.557,0.556h7.39
		c0.308,0,0.556-0.249,0.556-0.556v-5.563h9.771c0.307,0,0.556-0.249,0.556-0.556V31c0-0.307-0.249-0.556-0.556-0.556h-9.771v-2.811
		h10.561c0.307,0,0.557-0.249,0.557-0.556V20.76C85.574,20.453,85.325,20.203,85.018,20.203"/>
	<path d="M96.527,20.203h-7.391c-0.307,0-0.557,0.25-0.557,0.557v22.107c0,0.307,0.25,0.556,0.557,0.556h7.391
		c0.307,0,0.556-0.249,0.556-0.556V20.76C97.083,20.453,96.834,20.203,96.527,20.203"/>
	<path d="M123.126,20.203h-7.328c-0.307,0-0.556,0.25-0.556,0.557v8.181l-6.874-8.529c-0.105-0.132-0.264-0.208-0.432-0.208h-6.917
		c-0.308,0-0.556,0.25-0.556,0.557v22.107c0,0.307,0.248,0.556,0.556,0.556h7.328c0.308,0,0.556-0.249,0.556-0.556v-8.622
		l7.221,8.97c0.106,0.132,0.265,0.208,0.434,0.208h6.569c0.308,0,0.557-0.249,0.557-0.556V20.76
		C123.683,20.453,123.434,20.203,123.126,20.203"/>
	<path d="M141.988,20.387c-0.085-0.207-0.289-0.342-0.512-0.342h-7.328c-0.224,0-0.428,0.135-0.513,0.342l-9.316,22.264
		c-0.073,0.172-0.054,0.368,0.05,0.524c0.104,0.154,0.277,0.247,0.463,0.247h7.896c0.23,0,0.437-0.142,0.519-0.357l1-2.61h6.976
		l1.03,2.616c0.084,0.211,0.289,0.352,0.518,0.352h8.022c0.186,0,0.359-0.093,0.462-0.247c0.104-0.156,0.121-0.353,0.05-0.524
		L141.988,20.387z M138.967,34.1h-2.437l1.219-3.233L138.967,34.1z"/>
	<path d="M169.733,35.552c1.164-0.658,2.115-1.51,2.833-2.537c0.84-1.205,1.268-2.693,1.268-4.487c0-1.201-0.184-2.27-0.545-3.175
		c-0.363-0.907-0.914-1.736-1.64-2.46c-0.833-0.834-1.938-1.5-3.286-1.978c-1.33-0.474-3.033-0.711-5.065-0.711h-10.801
		c-0.308,0-0.557,0.249-0.557,0.557v22.107c0,0.307,0.249,0.556,0.557,0.556h7.39c0.308,0,0.557-0.249,0.557-0.556v-5.761h0.722
		l4.006,6.066c0.103,0.157,0.277,0.25,0.465,0.25h8.432c0.206,0,0.395-0.113,0.492-0.296c0.097-0.183,0.084-0.405-0.034-0.574
		L169.733,35.552z M160.443,27.507h2.665c0.744,0,1.331,0.142,1.737,0.422c0.352,0.244,0.517,0.604,0.517,1.2
		c0,0.5-0.169,0.861-0.535,1.135c-0.404,0.304-0.994,0.458-1.751,0.458h-2.633V27.507z"/>
	<path d="M195.437,36.247h-11.192v-1.768h10.243c0.309,0,0.557-0.249,0.557-0.557v-4.225c0-0.307-0.248-0.557-0.557-0.557h-10.243
		V27.38h11.034c0.309,0,0.557-0.25,0.557-0.557v-6.065c0-0.307-0.248-0.556-0.557-0.556h-18.854c-0.307,0-0.556,0.25-0.556,0.556
		v22.108c0,0.309,0.249,0.556,0.556,0.556h19.013c0.307,0,0.557-0.247,0.557-0.556v-6.064
		C195.993,36.495,195.743,36.247,195.437,36.247"/>
	<path d="M221.157,20.203h-7.327c-0.307,0-0.556,0.25-0.556,0.557v8.181l-6.874-8.529c-0.105-0.132-0.265-0.208-0.434-0.208h-6.916
		c-0.308,0-0.557,0.25-0.557,0.557v22.107c0,0.307,0.249,0.556,0.557,0.556h7.327c0.307,0,0.556-0.249,0.556-0.556v-8.622
		l7.222,8.97c0.105,0.132,0.265,0.208,0.434,0.208h6.568c0.309,0,0.558-0.249,0.558-0.556V20.76
		C221.715,20.453,221.466,20.203,221.157,20.203"/>
	<path d="M249.337,42.651l-9.316-22.264c-0.086-0.207-0.29-0.342-0.514-0.342h-7.327c-0.224,0-0.428,0.135-0.514,0.342
		l-9.316,22.264c-0.072,0.172-0.053,0.368,0.051,0.524c0.103,0.154,0.276,0.247,0.462,0.247h7.896c0.23,0,0.438-0.142,0.521-0.357
		l0.999-2.61h6.976l1.03,2.616c0.083,0.211,0.289,0.352,0.517,0.352h8.022c0.187,0,0.36-0.093,0.463-0.247
		C249.39,43.02,249.407,42.823,249.337,42.651 M236.998,34.1h-2.437l1.219-3.233L236.998,34.1z"/>
	<path d="M27.713,4.074c0.468,0,0.936,0.041,1.404,0.067c0.338,0.019,0.677,0.017,1.014,0.049c0.235,0.022,0.468,0.072,0.702,0.101
		c0.568,0.071,1.137,0.137,1.701,0.246c4.774,0.925,9.331,3.233,13.025,6.928c3.004,3.004,5.092,6.58,6.264,10.378
		c0.051,0.166,0.082,0.337,0.13,0.504c0.17,0.595,0.337,1.193,0.464,1.798c0.083,0.401,0.128,0.809,0.193,1.212
		c0.059,0.375,0.137,0.749,0.18,1.125c0.05,0.443,0.06,0.887,0.086,1.331c0.02,0.343,0.062,0.685,0.067,1.028c0,0,0,0,0,0.003v0.001
		c0.007,0.33-0.021,0.662-0.028,0.993c-0.009,0.458-0.004,0.918-0.039,1.377c-0.022,0.299-0.076,0.596-0.109,0.896
		c-0.055,0.487-0.097,0.976-0.179,1.462c-0.036,0.21-0.097,0.418-0.138,0.63c-0.877,4.461-2.944,8.735-6.244,12.283
		c-0.001,0.002-0.003,0.002-0.006,0.006c0,0-0.001,0-0.001,0.001c-0.177,0.19-0.417,0.287-0.658,0.287
		c-0.219,0-0.439-0.08-0.611-0.242c-0.008-0.007-0.01-0.018-0.018-0.025v0.001l-5.059-5.06c-0.006-0.004-0.013-0.005-0.019-0.01
		c-0.008-0.009-0.011-0.019-0.02-0.027l-0.01-0.01c-0.011-0.012-0.014-0.026-0.024-0.037c-0.069-0.077-0.129-0.159-0.167-0.251
		c-0.01-0.028-0.012-0.059-0.021-0.087c-0.024-0.081-0.045-0.161-0.046-0.243c-0.001-0.05,0.013-0.098,0.02-0.147
		c0.01-0.061,0.014-0.122,0.036-0.182c0.028-0.075,0.076-0.142,0.124-0.209c0.018-0.024,0.024-0.053,0.045-0.076
		c0.01-0.011,0.02-0.023,0.029-0.035c0.002-0.002,0.003-0.007,0.005-0.009l0.008-0.008c0.078-0.088,0.145-0.182,0.22-0.271
		c0.271-0.314,0.537-0.631,0.778-0.961c0.065-0.088,0.117-0.18,0.18-0.27c0.238-0.34,0.473-0.683,0.683-1.036
		c0.047-0.079,0.083-0.163,0.129-0.242c0.21-0.368,0.414-0.74,0.593-1.12c0.037-0.079,0.063-0.162,0.101-0.24
		c0.173-0.389,0.341-0.775,0.484-1.174c0.02-0.059,0.034-0.118,0.055-0.176c0.146-0.421,0.28-0.846,0.391-1.275
		c0.009-0.034,0.013-0.069,0.021-0.104c0.356-1.433,0.52-2.903,0.481-4.371c-0.013-0.5-0.049-1-0.108-1.497
		c-0.415-3.486-1.962-6.864-4.64-9.542c-1.583-1.584-3.415-2.772-5.368-3.563c-1.892-0.768-3.899-1.155-5.911-1.178
		c-0.064-0.001-0.13-0.011-0.194-0.011c-0.065,0-0.131,0.009-0.195,0.011c-2.011,0.023-4.019,0.41-5.91,1.178
		c-1.954,0.792-3.785,1.979-5.368,3.563c-2.678,2.678-4.225,6.056-4.64,9.542c-0.06,0.497-0.096,0.997-0.109,1.497
		c-0.038,1.468,0.125,2.938,0.482,4.371c0.008,0.035,0.012,0.07,0.021,0.104c0.111,0.43,0.245,0.854,0.391,1.275
		c0.02,0.058,0.033,0.117,0.054,0.176c0.143,0.398,0.31,0.785,0.484,1.174c0.037,0.078,0.063,0.161,0.1,0.24
		c0.179,0.38,0.383,0.752,0.593,1.12c0.045,0.079,0.082,0.163,0.129,0.242c0.211,0.354,0.445,0.696,0.684,1.036
		c0.063,0.09,0.114,0.182,0.179,0.27c0.242,0.33,0.507,0.646,0.778,0.961c0.075,0.089,0.142,0.183,0.221,0.271l0.007,0.008
		c0.002,0.002,0.003,0.007,0.005,0.009c0.011,0.012,0.02,0.024,0.029,0.035c0.021,0.023,0.028,0.052,0.045,0.076
		c0.048,0.067,0.096,0.134,0.124,0.209c0.022,0.06,0.025,0.121,0.035,0.182c0.007,0.05,0.021,0.098,0.02,0.147
		c-0.001,0.082-0.022,0.162-0.046,0.243c-0.009,0.028-0.01,0.059-0.021,0.087c-0.039,0.092-0.098,0.174-0.168,0.252
		c-0.01,0.011-0.014,0.024-0.023,0.036l-0.01,0.01c-0.009,0.008-0.011,0.019-0.02,0.027c-0.006,0.005-0.012,0.006-0.018,0.01
		l-5.059,5.06v-0.001c-0.008,0.008-0.01,0.019-0.018,0.025c-0.172,0.162-0.392,0.242-0.61,0.242c-0.242,0-0.482-0.097-0.659-0.287
		L9.213,46.49c-0.002-0.003-0.004-0.003-0.005-0.005c-3.3-3.548-5.367-7.822-6.244-12.283c-0.041-0.212-0.102-0.42-0.138-0.63
		c-0.083-0.486-0.125-0.975-0.18-1.462c-0.033-0.299-0.087-0.596-0.109-0.896c-0.034-0.458-0.03-0.918-0.039-1.377
		c-0.007-0.331-0.035-0.663-0.028-0.993v-0.002v-0.002c0.006-0.343,0.046-0.685,0.067-1.027c0.025-0.444,0.037-0.888,0.087-1.331
		c0.031-0.277,0.092-0.551,0.133-0.828c0.073-0.504,0.136-1.01,0.241-1.51c0.967-4.647,3.252-9.075,6.858-12.68
		c3.693-3.695,8.251-6.003,13.024-6.928c0.534-0.104,1.073-0.164,1.611-0.233c0.264-0.033,0.526-0.089,0.792-0.113
		c0.327-0.032,0.658-0.029,0.986-0.048c0.477-0.026,0.955-0.068,1.432-0.068h0.002h0.002h0.001h0.001h0.002H27.713 M27.711,2.96
		h-0.016h-0.018c-0.37,0.001-0.739,0.024-1.108,0.047l-0.362,0.024c-0.117,0.007-0.235,0.01-0.352,0.013
		c-0.228,0.008-0.454,0.016-0.678,0.037c-0.179,0.017-0.356,0.046-0.533,0.074C24.547,3.17,24.449,3.188,24.351,3.2l-0.259,0.033
		c-0.462,0.058-0.939,0.117-1.422,0.211c-5.165,1-9.868,3.501-13.6,7.234c-3.64,3.639-6.115,8.218-7.161,13.239
		c-0.091,0.438-0.152,0.869-0.211,1.286l-0.042,0.292c-0.015,0.102-0.032,0.204-0.052,0.305c-0.032,0.186-0.064,0.372-0.085,0.56
		C1.48,26.7,1.462,27.04,1.446,27.382l-0.019,0.366c-0.008,0.119-0.016,0.239-0.027,0.357c-0.019,0.238-0.038,0.476-0.042,0.714
		l-0.001,0.048v0.002c-0.002,0.213,0.007,0.426,0.017,0.639c0.004,0.118,0.009,0.236,0.012,0.353l0.005,0.36
		c0.004,0.359,0.009,0.718,0.037,1.077c0.015,0.203,0.042,0.407,0.07,0.61c0.016,0.107,0.03,0.218,0.042,0.325l0.034,0.324
		c0.042,0.389,0.083,0.79,0.154,1.202c0.024,0.142,0.057,0.282,0.091,0.423c0.018,0.079,0.037,0.155,0.053,0.233
		c0.948,4.824,3.203,9.261,6.521,12.828L8.51,47.37l0.032,0.019c0.366,0.322,0.84,0.504,1.332,0.504c0.51,0,0.997-0.194,1.37-0.541
		l0.121-0.113l0.021-0.034l4.897-4.898l0.041-0.035l0.123-0.11l0.025-0.041l0.028-0.027l0.042-0.074
		c0.126-0.154,0.22-0.311,0.288-0.476l0.044-0.106l0.025-0.123c0.043-0.151,0.08-0.313,0.083-0.509
		c0.003-0.145-0.022-0.27-0.032-0.328c-0.014-0.099-0.033-0.243-0.095-0.41c-0.063-0.172-0.154-0.311-0.221-0.407
		c-0.022-0.039-0.05-0.085-0.084-0.133l-0.032-0.06l-0.122-0.123c0.001,0,0.001,0.002,0.001,0.002c0.002,0-0.02-0.03-0.043-0.059
		c-0.042-0.054-0.083-0.106-0.127-0.158c-0.244-0.284-0.501-0.588-0.726-0.896c-0.021-0.028-0.04-0.061-0.059-0.09
		c-0.035-0.054-0.069-0.107-0.106-0.161c-0.252-0.358-0.456-0.659-0.638-0.963l-0.036-0.069c-0.027-0.054-0.054-0.105-0.083-0.158
		c-0.177-0.309-0.381-0.675-0.553-1.041L14,35.685c-0.021-0.053-0.042-0.106-0.067-0.158c-0.146-0.324-0.313-0.705-0.451-1.094
		c-0.021-0.07-0.034-0.117-0.051-0.164c-0.158-0.458-0.274-0.834-0.364-1.188c-0.002-0.02-0.01-0.06-0.02-0.097
		c-0.334-1.342-0.485-2.712-0.449-4.074c0.013-0.464,0.046-0.933,0.102-1.393c0.404-3.392,1.898-6.464,4.321-8.887
		c1.442-1.442,3.124-2.56,5-3.319c1.738-0.705,3.59-1.074,5.505-1.097c0.052-0.001,0.103-0.004,0.156-0.008
		c0.103,0.003,0.154,0.007,0.207,0.008c1.914,0.023,3.766,0.392,5.505,1.096c1.875,0.76,3.557,1.878,5,3.32
		c2.422,2.423,3.918,5.496,4.321,8.887c0.056,0.46,0.089,0.931,0.101,1.393c0.037,1.362-0.114,2.732-0.448,4.074l-0.008,0.032
		l-0.017,0.084c-0.086,0.334-0.202,0.71-0.359,1.168c-0.017,0.046-0.03,0.094-0.044,0.141c-0.146,0.413-0.313,0.795-0.458,1.116
		c-0.024,0.053-0.045,0.106-0.067,0.159l-0.027,0.065c-0.171,0.366-0.375,0.732-0.552,1.041c-0.029,0.052-0.057,0.104-0.084,0.159
		l-0.035,0.067c-0.181,0.305-0.385,0.604-0.637,0.964c-0.038,0.054-0.072,0.107-0.106,0.162c-0.02,0.028-0.039,0.061-0.06,0.089
		c-0.226,0.308-0.481,0.611-0.725,0.896c-0.045,0.052-0.087,0.104-0.128,0.158c-0.02,0.025-0.041,0.052-0.063,0.077l-0.091,0.092
		l-0.022,0.041l-0.046,0.051L38.78,39.66c-0.073,0.105-0.159,0.243-0.223,0.417c-0.058,0.155-0.077,0.299-0.087,0.377
		c-0.015,0.08-0.039,0.205-0.036,0.359c0.003,0.187,0.04,0.347,0.082,0.494c0.014,0.066,0.034,0.146,0.074,0.24
		c0.064,0.155,0.155,0.307,0.272,0.457l0.03,0.054l0.041,0.042l0.025,0.043l0.133,0.123l0.055,0.052l4.884,4.884l0.014,0.025
		l0.129,0.125c0.373,0.346,0.859,0.54,1.37,0.54c0.496,0,0.976-0.187,1.343-0.514l0.033-0.021l0.113-0.124
		c3.309-3.558,5.563-7.994,6.512-12.818c0.016-0.078,0.035-0.154,0.052-0.233c0.034-0.141,0.067-0.281,0.091-0.423
		c0.07-0.412,0.113-0.813,0.154-1.202l0.034-0.324c0.013-0.107,0.027-0.218,0.042-0.325c0.028-0.204,0.056-0.407,0.07-0.61
		c0.027-0.358,0.033-0.718,0.037-1.077l0.005-0.36c0.002-0.117,0.008-0.235,0.013-0.353c0.009-0.201,0.017-0.403,0.016-0.605v-0.002
		l-0.001-0.081c0-0.002,0-0.004,0-0.008l-0.001-0.039v-0.003c-0.005-0.222-0.023-0.444-0.042-0.667
		c-0.01-0.118-0.019-0.237-0.026-0.356l-0.019-0.365c-0.016-0.341-0.035-0.683-0.072-1.024c-0.03-0.271-0.077-0.538-0.124-0.806
		c-0.022-0.123-0.043-0.245-0.063-0.368l-0.056-0.373c-0.043-0.299-0.086-0.598-0.147-0.894c-0.134-0.641-0.305-1.254-0.483-1.877
		c-0.018-0.059-0.031-0.12-0.045-0.18c-0.027-0.115-0.056-0.231-0.091-0.346c-1.254-4.064-3.517-7.811-6.542-10.836
		c-3.732-3.733-8.435-6.234-13.6-7.234c-0.549-0.106-1.092-0.173-1.618-0.237l-0.159-0.02c-0.087-0.011-0.174-0.025-0.261-0.039
		c-0.157-0.025-0.314-0.05-0.472-0.065c-0.232-0.022-0.466-0.03-0.7-0.038c-0.119-0.003-0.239-0.007-0.359-0.014l-0.367-0.022
		c-0.362-0.023-0.725-0.046-1.087-0.047H27.711z"/>
	<path fill-rule="evenodd" clip-rule="evenodd" d="M41.836,50.508l-3.906-3.905c-0.27-0.27-0.708-0.27-0.977,0
		c-0.008,0.007-0.01,0.018-0.016,0.025l-0.04,0.045l-0.185,0.199l-0.005,0.006l-0.212,0.219l-0.002-0.002
		c-0.88,0.881-1.863,1.592-2.906,2.151c-0.184,0.1-0.367,0.199-0.555,0.288c-0.119,0.056-0.24,0.105-0.359,0.157
		c-0.19,0.083-0.381,0.166-0.575,0.24c-0.12,0.045-0.242,0.083-0.365,0.125c-0.196,0.067-0.392,0.133-0.589,0.189
		c-0.126,0.036-0.253,0.067-0.379,0.097c-0.196,0.051-0.392,0.099-0.59,0.139c-0.135,0.026-0.271,0.05-0.408,0.071
		c-0.187,0.031-0.375,0.062-0.563,0.085c-0.156,0.018-0.313,0.03-0.469,0.044c-0.175,0.013-0.35,0.027-0.525,0.035
		c-0.166,0.007-0.332,0.007-0.497,0.007c-0.166,0-0.333,0-0.499-0.007c-0.175-0.008-0.35-0.022-0.525-0.035
		c-0.156-0.014-0.313-0.026-0.469-0.044c-0.189-0.023-0.376-0.054-0.564-0.085c-0.136-0.021-0.271-0.045-0.407-0.071
		c-0.197-0.04-0.393-0.088-0.589-0.139c-0.126-0.029-0.254-0.061-0.379-0.097c-0.198-0.057-0.394-0.122-0.59-0.189
		c-0.122-0.042-0.244-0.08-0.364-0.125c-0.194-0.074-0.384-0.157-0.574-0.24c-0.12-0.052-0.243-0.102-0.361-0.158
		c-0.187-0.088-0.371-0.187-0.555-0.286c-1.042-0.561-2.025-1.271-2.905-2.152l-0.002,0.002l-0.212-0.219l-0.005-0.006l-0.185-0.199
		l-0.04-0.045c-0.007-0.008-0.01-0.019-0.018-0.025c-0.269-0.27-0.706-0.27-0.975,0l-3.905,3.905
		c-0.138,0.137-0.203,0.317-0.201,0.499c0.001,0.17,0.063,0.341,0.191,0.473l0.42,0.437l0.054,0.06
		c3.768,3.768,8.709,5.652,13.653,5.654l0.001-0.001l0.002,0.001l0.002-0.001h0.001h0.001l0.002,0.001l0.002-0.001l0.001,0.001
		c4.942-0.002,9.884-1.887,13.652-5.654l0.053-0.06l0.419-0.437c0.128-0.132,0.192-0.303,0.193-0.473
		C42.039,50.825,41.973,50.645,41.836,50.508"/>
	<path d="M27.708,38.225c-2.355,0-3.819-1.464-3.819-3.819c0-0.525,0.428-0.953,0.955-0.953c0.528,0,0.956,0.428,0.956,0.953
		c0,1.286,0.624,1.911,1.909,1.911c1.284,0,1.908-0.625,1.908-1.911c0-1.209-0.174-1.396-2.334-2.473
		c-2.229-1.114-3.393-1.808-3.393-4.207c0-2.355,1.463-3.818,3.819-3.818c2.354,0,3.818,1.463,3.818,3.818
		c0,0.526-0.428,0.954-0.955,0.954s-0.955-0.428-0.955-0.954c0-1.284-0.625-1.91-1.908-1.91c-1.302,0-1.909,0.607-1.909,1.91
		c0,1.232,0.174,1.419,2.335,2.499c2.29,1.144,3.392,1.8,3.392,4.182C31.526,36.761,30.063,38.225,27.708,38.225"/>
	<path d="M27.708,25.816c-0.528,0-0.955-0.427-0.955-0.955v-2.864c0-0.526,0.427-0.954,0.955-0.954c0.527,0,0.955,0.428,0.955,0.954
		v2.864C28.663,25.389,28.235,25.816,27.708,25.816"/>
	<path d="M27.708,41.087c-0.528,0-0.955-0.427-0.955-0.954V37.27c0-0.526,0.427-0.953,0.955-0.953c0.527,0,0.955,0.427,0.955,0.953
		v2.863C28.663,40.66,28.235,41.087,27.708,41.087"/>
	<path d="M66.034,57.15v-5.974h-0.643c-0.073,0-0.133-0.022-0.18-0.069c-0.048-0.047-0.072-0.106-0.072-0.181
		c0-0.071,0.024-0.134,0.072-0.185c0.046-0.051,0.107-0.077,0.18-0.077h3.422c1.583,0,2.375,0.715,2.375,2.142
		s-0.792,2.143-2.375,2.143h-2.191v2.201c0,0.072-0.029,0.131-0.086,0.18c-0.059,0.046-0.127,0.071-0.207,0.071
		c-0.082,0-0.149-0.025-0.208-0.071C66.063,57.281,66.034,57.223,66.034,57.15 M66.622,51.177v3.271h2.191
		c1.191,0,1.787-0.546,1.787-1.635c0-1.091-0.596-1.636-1.787-1.636H66.622z"/>
	<path d="M72.36,56.796c-0.388-0.403-0.583-0.918-0.583-1.543c0-0.624,0.197-1.139,0.589-1.541s0.894-0.606,1.503-0.606
		c0.611,0,1.111,0.204,1.5,0.606c0.389,0.402,0.583,0.919,0.583,1.547c0,0.629-0.194,1.143-0.583,1.542
		c-0.388,0.4-0.891,0.601-1.505,0.601C73.25,57.401,72.749,57.199,72.36,56.796 M73.869,56.899c0.444,0,0.805-0.153,1.085-0.458
		c0.279-0.305,0.419-0.7,0.419-1.183c0-0.483-0.14-0.879-0.419-1.188c-0.28-0.31-0.641-0.464-1.085-0.464
		c-0.443,0-0.804,0.154-1.083,0.464c-0.279,0.309-0.42,0.704-0.42,1.188c0,0.482,0.141,0.878,0.42,1.183
		S73.426,56.899,73.869,56.899"/>
	<path d="M76.769,53.215h0.556c0.458,0,0.693,0.248,0.708,0.742c0.393-0.567,0.856-0.852,1.395-0.852
		c0.305,0,0.563,0.06,0.774,0.175c0.101,0.058,0.151,0.134,0.151,0.229v0.917c0,0.071-0.028,0.132-0.086,0.18
		c-0.059,0.047-0.127,0.069-0.207,0.069c-0.079,0-0.149-0.022-0.207-0.069c-0.058-0.048-0.087-0.108-0.087-0.18v-0.764
		c-0.095-0.035-0.235-0.055-0.425-0.055c-0.189,0-0.403,0.09-0.644,0.268c-0.239,0.179-0.446,0.441-0.621,0.79v2.486
		c0,0.07-0.029,0.13-0.087,0.178c-0.057,0.047-0.126,0.072-0.207,0.072s-0.149-0.025-0.207-0.072
		c-0.059-0.048-0.088-0.107-0.088-0.178v-3.216c0-0.14-0.072-0.208-0.217-0.208h-0.501c-0.072,0-0.133-0.022-0.18-0.071
		c-0.047-0.046-0.071-0.107-0.071-0.18s0.023-0.134,0.071-0.186C76.636,53.24,76.696,53.215,76.769,53.215"/>
	<path d="M81.635,56.796c-0.388-0.403-0.583-0.918-0.583-1.543c0-0.624,0.196-1.139,0.588-1.541
		c0.393-0.404,0.894-0.606,1.505-0.606c0.61,0,1.109,0.202,1.497,0.606c0.389,0.402,0.584,0.919,0.584,1.546
		c0,0.63-0.195,1.144-0.584,1.543c-0.388,0.4-0.889,0.601-1.503,0.601C82.524,57.401,82.023,57.197,81.635,56.796 M84.647,55.258
		c0-0.482-0.139-0.878-0.418-1.187c-0.281-0.309-0.642-0.464-1.085-0.464c-0.444,0-0.805,0.155-1.084,0.464
		c-0.28,0.309-0.421,0.704-0.421,1.187c0,0.483,0.141,0.878,0.421,1.184c0.279,0.305,0.64,0.458,1.084,0.458
		c0.443,0,0.804-0.153,1.085-0.458C84.508,56.136,84.647,55.741,84.647,55.258 M83.319,51.341c0.065-0.073,0.127-0.108,0.185-0.108
		s0.117,0.027,0.175,0.088c0.057,0.058,0.086,0.115,0.086,0.173c0,0.06-0.035,0.12-0.107,0.186l-0.677,0.6
		c-0.051,0.043-0.101,0.065-0.147,0.065c-0.048,0-0.089-0.018-0.125-0.056c-0.037-0.034-0.055-0.077-0.055-0.124
		s0.022-0.096,0.066-0.147L83.319,51.341z"/>
	<path d="M90.609,57.193c-0.051,0.138-0.147,0.207-0.289,0.207c-0.142,0-0.231-0.064-0.268-0.196l-1.013-3.008l-1.014,3.008
		C87.99,57.336,87.901,57.4,87.76,57.4c-0.143,0-0.238-0.064-0.29-0.196l-1.428-3.716c-0.015-0.035-0.022-0.074-0.022-0.109
		c0-0.108,0.066-0.189,0.196-0.239c0.043-0.023,0.091-0.034,0.142-0.034c0.116,0.016,0.193,0.065,0.228,0.154l1.146,3.051
		l1.024-3.031c0.037-0.115,0.129-0.174,0.278-0.174c0.149,0,0.241,0.059,0.278,0.174l1.034,3.042l1.145-3.062
		c0.044-0.111,0.1-0.165,0.168-0.165c0.069,0,0.133,0.016,0.19,0.045c0.131,0.05,0.197,0.131,0.197,0.239
		c0,0.035-0.008,0.074-0.022,0.109L90.609,57.193z"/>
	<path d="M93.225,53.728h-0.513c-0.072,0-0.132-0.022-0.18-0.071c-0.047-0.046-0.071-0.107-0.071-0.179
		c0-0.073,0.024-0.134,0.071-0.185c0.047-0.053,0.107-0.078,0.18-0.078h0.589c0.45,0,0.676,0.248,0.676,0.742
		c0.435-0.567,0.985-0.851,1.646-0.851c0.392,0,0.714,0.1,0.964,0.3c0.25,0.199,0.376,0.493,0.376,0.877v2.288
		c0,0.139,0.098,0.208,0.294,0.208h0.425c0.072,0,0.132,0.024,0.18,0.075c0.047,0.054,0.07,0.114,0.07,0.188
		c0,0.07-0.023,0.131-0.07,0.179c-0.048,0.047-0.108,0.071-0.18,0.071h-0.425c-0.588,0-0.883-0.236-0.883-0.708v-2.301
		c0-0.218-0.066-0.384-0.201-0.502c-0.135-0.115-0.322-0.175-0.563-0.175c-0.667,0-1.198,0.351-1.59,1.049v2.496
		c0,0.07-0.028,0.132-0.086,0.179c-0.058,0.047-0.128,0.07-0.207,0.07c-0.08,0-0.149-0.023-0.208-0.07
		c-0.059-0.047-0.088-0.108-0.088-0.179v-3.218C93.431,53.796,93.362,53.728,93.225,53.728"/>
	<path d="M102.292,56.779h0.425c0.072,0,0.133,0.025,0.18,0.076c0.047,0.053,0.07,0.113,0.07,0.187c0,0.07-0.023,0.131-0.07,0.18
		c-0.047,0.047-0.108,0.07-0.18,0.07h-0.48c-0.261,0-0.463-0.059-0.604-0.175c-0.142-0.115-0.212-0.28-0.212-0.491
		c0-0.035,0.003-0.076,0.011-0.119c-0.385,0.596-0.944,0.894-1.678,0.894c-0.407,0-0.726-0.108-0.954-0.328
		c-0.229-0.217-0.344-0.521-0.344-0.909c0-0.389,0.155-0.692,0.463-0.915c0.309-0.223,0.694-0.333,1.155-0.333
		c0.461,0,0.91,0.075,1.346,0.229v-0.753c0-0.348-0.128-0.572-0.381-0.676c-0.196-0.073-0.468-0.108-0.811-0.108
		c-0.345,0-0.664,0.059-0.955,0.174v0.688c0,0.072-0.03,0.132-0.087,0.18c-0.058,0.048-0.127,0.072-0.206,0.072
		c-0.082,0-0.149-0.024-0.208-0.072c-0.058-0.048-0.087-0.107-0.087-0.18v-0.828c0-0.095,0.047-0.168,0.142-0.218
		c0.355-0.211,0.828-0.316,1.417-0.316s1.029,0.098,1.319,0.289c0.291,0.192,0.437,0.524,0.437,0.996v2.179
		C101.998,56.71,102.096,56.779,102.292,56.779 M101.42,55.602c-0.479-0.129-0.888-0.195-1.226-0.195
		c-0.338,0-0.614,0.066-0.828,0.195c-0.215,0.131-0.321,0.315-0.321,0.551s0.069,0.418,0.207,0.551
		c0.138,0.131,0.328,0.196,0.566,0.196c0.669,0,1.204-0.363,1.603-1.091V55.602z"/>
	<path d="M102.761,59.396c0-0.108,0.064-0.187,0.195-0.229c0.415-0.13,0.694-0.354,0.84-0.666c0.145-0.313,0.218-0.74,0.218-1.283
		v-3.489h-0.719c-0.074,0-0.134-0.022-0.181-0.071c-0.047-0.046-0.071-0.107-0.071-0.179c0-0.073,0.023-0.135,0.071-0.187
		c0.047-0.051,0.107-0.076,0.181-0.076h1.056c0.167,0,0.251,0.083,0.251,0.251v3.751c0,0.638-0.092,1.14-0.278,1.507
		c-0.185,0.367-0.535,0.656-1.052,0.867c-0.072,0.03-0.141,0.043-0.207,0.043C102.862,59.634,102.761,59.555,102.761,59.396
		 M103.992,51.579c-0.065-0.07-0.098-0.158-0.098-0.259c0-0.103,0.032-0.188,0.098-0.263c0.065-0.071,0.156-0.109,0.273-0.109
		s0.209,0.038,0.278,0.109c0.069,0.074,0.104,0.16,0.104,0.263c0,0.101-0.034,0.188-0.104,0.259
		c-0.069,0.074-0.161,0.111-0.278,0.111S104.057,51.653,103.992,51.579"/>
	<path d="M109.419,53.989c0.377-0.59,0.88-0.884,1.509-0.884c0.628,0,1.108,0.204,1.438,0.606c0.333,0.402,0.497,0.913,0.497,1.53
		s-0.17,1.133-0.506,1.543c-0.339,0.41-0.808,0.616-1.407,0.616c-0.599,0-1.095-0.209-1.487-0.622v2.758
		c0,0.072-0.029,0.132-0.087,0.18c-0.059,0.047-0.127,0.07-0.208,0.07c-0.079,0-0.149-0.023-0.207-0.07
		c-0.058-0.048-0.087-0.107-0.087-0.18v-5.602c0-0.14-0.068-0.208-0.207-0.208h-0.512c-0.073,0-0.134-0.022-0.18-0.071
		c-0.047-0.046-0.07-0.107-0.07-0.18s0.023-0.134,0.07-0.186c0.046-0.051,0.107-0.076,0.18-0.076h0.588
		C109.208,53.215,109.434,53.473,109.419,53.989 M109.463,56.245c0.464,0.435,0.93,0.654,1.394,0.654
		c0.466,0,0.82-0.154,1.063-0.458c0.244-0.305,0.365-0.708,0.365-1.21s-0.12-0.897-0.36-1.187c-0.24-0.292-0.57-0.438-0.992-0.438
		c-0.617,0-1.108,0.347-1.471,1.036V56.245z"/>
	<path d="M113.702,53.215h0.556c0.458,0,0.693,0.248,0.708,0.742c0.393-0.567,0.857-0.852,1.396-0.852
		c0.305,0,0.563,0.06,0.774,0.175c0.101,0.058,0.151,0.134,0.151,0.229v0.917c0,0.071-0.028,0.132-0.087,0.18
		c-0.058,0.047-0.127,0.069-0.208,0.069c-0.079,0-0.149-0.022-0.207-0.069c-0.058-0.048-0.087-0.108-0.087-0.18v-0.764
		c-0.095-0.035-0.236-0.055-0.425-0.055c-0.189,0-0.403,0.09-0.643,0.268c-0.239,0.179-0.446,0.441-0.622,0.79v2.486
		c0,0.07-0.029,0.13-0.086,0.178c-0.058,0.047-0.127,0.072-0.207,0.072c-0.081,0-0.15-0.025-0.208-0.072
		c-0.059-0.048-0.088-0.107-0.088-0.178v-3.216c0-0.14-0.072-0.208-0.217-0.208h-0.502c-0.072,0-0.133-0.022-0.179-0.071
		c-0.048-0.046-0.071-0.107-0.071-0.18s0.023-0.134,0.071-0.186C113.569,53.24,113.63,53.215,113.702,53.215"/>
	<path d="M121.832,56.779h0.425c0.073,0,0.132,0.025,0.18,0.076c0.047,0.053,0.07,0.113,0.07,0.187c0,0.07-0.023,0.131-0.07,0.18
		c-0.048,0.047-0.107,0.07-0.18,0.07h-0.479c-0.261,0-0.463-0.059-0.604-0.175c-0.142-0.115-0.212-0.28-0.212-0.491
		c0-0.035,0.003-0.076,0.011-0.119c-0.387,0.596-0.945,0.894-1.678,0.894c-0.408,0-0.726-0.108-0.954-0.328
		c-0.229-0.217-0.344-0.521-0.344-0.909c0-0.389,0.155-0.692,0.463-0.915c0.309-0.223,0.694-0.333,1.154-0.333
		c0.462,0,0.911,0.075,1.347,0.229v-0.753c0-0.348-0.128-0.572-0.382-0.676c-0.195-0.073-0.467-0.108-0.812-0.108
		c-0.345,0-0.664,0.059-0.954,0.174v0.688c0,0.072-0.03,0.132-0.088,0.18s-0.127,0.072-0.206,0.072
		c-0.081,0-0.148-0.024-0.208-0.072c-0.057-0.048-0.086-0.107-0.086-0.18v-0.828c0-0.095,0.047-0.168,0.141-0.218
		c0.356-0.211,0.828-0.316,1.417-0.316c0.588,0,1.028,0.098,1.319,0.289c0.29,0.192,0.436,0.524,0.436,0.996v2.179
		C121.538,56.71,121.636,56.779,121.832,56.779 M120.96,55.602c-0.48-0.129-0.889-0.195-1.227-0.195
		c-0.338,0-0.614,0.066-0.828,0.195c-0.215,0.131-0.322,0.315-0.322,0.551s0.069,0.418,0.207,0.551
		c0.138,0.131,0.328,0.196,0.566,0.196c0.669,0,1.203-0.363,1.603-1.091V55.602z"/>
	<path d="M127.38,57.193c-0.052,0.138-0.146,0.207-0.289,0.207s-0.23-0.064-0.268-0.196l-1.013-3.008l-1.015,3.008
		c-0.036,0.132-0.124,0.196-0.266,0.196c-0.143,0-0.238-0.064-0.29-0.196l-1.427-3.716c-0.015-0.035-0.022-0.074-0.022-0.109
		c0-0.108,0.065-0.189,0.197-0.239c0.043-0.023,0.09-0.034,0.141-0.034c0.116,0.016,0.193,0.065,0.228,0.154l1.146,3.051
		l1.023-3.031c0.037-0.115,0.13-0.174,0.278-0.174s0.241,0.059,0.278,0.174l1.035,3.042l1.145-3.062
		c0.044-0.111,0.1-0.165,0.168-0.165c0.069,0,0.133,0.016,0.191,0.045c0.131,0.05,0.196,0.131,0.196,0.239
		c0,0.035-0.008,0.074-0.023,0.109L127.38,57.193z"/>
	<path d="M132.926,49.63h-0.72c-0.072,0-0.132-0.024-0.18-0.07c-0.046-0.05-0.07-0.108-0.07-0.18c0-0.073,0.024-0.134,0.07-0.186
		c0.048-0.053,0.107-0.076,0.18-0.076h1.015c0.079,0,0.149,0.023,0.207,0.076c0.059,0.052,0.087,0.112,0.087,0.186v7.191
		c0,0.14,0.073,0.208,0.218,0.208h0.502c0.073,0,0.132,0.023,0.179,0.071c0.047,0.047,0.072,0.107,0.072,0.179
		c0,0.073-0.025,0.135-0.072,0.188c-0.047,0.05-0.105,0.075-0.179,0.075h-0.577c-0.474,0-0.702-0.258-0.688-0.774
		c-0.158,0.248-0.367,0.455-0.627,0.626c-0.256,0.171-0.549,0.258-0.875,0.258c-0.647,0-1.133-0.209-1.456-0.622
		c-0.323-0.414-0.484-0.926-0.484-1.537c0-0.61,0.169-1.118,0.507-1.526c0.337-0.406,0.801-0.61,1.389-0.61
		c0.589,0,1.09,0.193,1.504,0.577V49.63z M131.467,53.607c-0.415,0-0.746,0.149-0.993,0.447s-0.371,0.702-0.371,1.209
		c0,0.51,0.122,0.909,0.366,1.198c0.243,0.292,0.575,0.438,0.998,0.438c0.609,0,1.096-0.346,1.459-1.037v-1.6
		c-0.188-0.183-0.415-0.337-0.682-0.465C131.98,53.671,131.721,53.607,131.467,53.607"/>
	<path d="M138.887,56.146v0.905c0,0.159-0.095,0.24-0.283,0.24h-3.279c-0.189,0-0.283-0.091-0.283-0.273
		c0-0.354,0.124-0.673,0.376-0.953c0.25-0.279,0.615-0.584,1.095-0.91l0.393-0.272c0.697-0.479,1.107-0.896,1.23-1.254h-2.385v0.61
		c0,0.074-0.031,0.133-0.089,0.179c-0.058,0.049-0.127,0.073-0.208,0.073c-0.078,0-0.147-0.024-0.205-0.073
		c-0.059-0.046-0.088-0.104-0.088-0.179v-0.86c0-0.167,0.084-0.25,0.25-0.25h3.063c0.072,0,0.138,0.022,0.195,0.07
		c0.058,0.047,0.088,0.107,0.088,0.18c0,0.248-0.085,0.495-0.257,0.746c-0.17,0.251-0.347,0.45-0.527,0.596
		c-0.334,0.283-0.593,0.486-0.774,0.609l-0.327,0.239c-0.523,0.385-0.849,0.654-0.976,0.807c-0.128,0.153-0.209,0.291-0.244,0.413
		h2.647v-0.643c0-0.072,0.028-0.132,0.088-0.178c0.058-0.049,0.125-0.073,0.205-0.073c0.081,0,0.149,0.024,0.209,0.073
		C138.858,56.015,138.887,56.074,138.887,56.146"/>
	<path d="M141.067,57.15c0,0.072-0.029,0.131-0.087,0.179c-0.059,0.047-0.127,0.072-0.206,0.072c-0.081,0-0.15-0.025-0.208-0.072
		c-0.059-0.048-0.089-0.106-0.089-0.179v-3.423h-0.718c-0.073,0-0.133-0.022-0.179-0.071c-0.048-0.046-0.072-0.107-0.072-0.179
		c0-0.073,0.024-0.135,0.072-0.187c0.046-0.051,0.105-0.076,0.179-0.076h1.058c0.166,0,0.25,0.083,0.25,0.251V57.15z
		 M140.458,51.579c-0.066-0.07-0.099-0.158-0.099-0.259c0-0.103,0.032-0.188,0.099-0.263c0.064-0.071,0.154-0.109,0.271-0.109
		c0.117,0,0.209,0.038,0.279,0.109c0.068,0.074,0.104,0.16,0.104,0.263c0,0.101-0.035,0.188-0.104,0.259
		c-0.07,0.074-0.162,0.111-0.279,0.111C140.612,51.69,140.522,51.653,140.458,51.579"/>
	<path d="M146.734,57.193c-0.052,0.138-0.147,0.207-0.288,0.207c-0.143,0-0.232-0.064-0.269-0.196l-1.013-3.008l-1.015,3.008
		c-0.036,0.132-0.125,0.196-0.267,0.196s-0.237-0.064-0.288-0.196l-1.429-3.716c-0.014-0.035-0.021-0.074-0.021-0.109
		c0-0.108,0.065-0.189,0.196-0.239c0.044-0.023,0.09-0.034,0.142-0.034c0.116,0.016,0.192,0.065,0.229,0.154l1.146,3.051
		l1.023-3.031c0.037-0.115,0.129-0.174,0.278-0.174s0.241,0.059,0.278,0.174l1.034,3.042l1.145-3.062
		c0.045-0.111,0.1-0.165,0.17-0.165c0.068,0,0.131,0.016,0.189,0.045c0.131,0.05,0.197,0.131,0.197,0.239
		c0,0.035-0.008,0.074-0.022,0.109L146.734,57.193z"/>
	<path d="M152.313,56.245c0.052-0.087,0.109-0.131,0.176-0.131c0.064,0,0.131,0.017,0.195,0.049c0.064,0.033,0.11,0.083,0.136,0.153
		c0.025,0.069,0.02,0.133-0.015,0.188c-0.372,0.598-0.96,0.896-1.767,0.896c-0.64,0-1.143-0.206-1.51-0.617
		c-0.368-0.409-0.552-0.929-0.552-1.553s0.189-1.135,0.567-1.531s0.875-0.595,1.494-0.595c0.617,0,1.077,0.188,1.378,0.557
		c0.303,0.37,0.453,0.865,0.453,1.481c0,0.168-0.096,0.253-0.283,0.253l-3.02,0.011c0.028,0.448,0.177,0.811,0.441,1.083
		c0.266,0.272,0.607,0.409,1.03,0.409C151.606,56.899,152.031,56.68,152.313,56.245 M151.948,53.956
		c-0.206-0.231-0.505-0.349-0.894-0.349c-0.388,0-0.714,0.119-0.975,0.355c-0.262,0.236-0.424,0.545-0.49,0.932h2.702
		C152.271,54.501,152.156,54.189,151.948,53.956"/>
	<path d="M160.226,56.899c0.073,0,0.133,0.023,0.18,0.07c0.047,0.048,0.071,0.107,0.071,0.182c0,0.07-0.024,0.132-0.071,0.179
		s-0.106,0.07-0.18,0.07c-0.647,0-1.237-0.175-1.771-0.528c-0.535-0.353-0.973-0.794-1.313-1.325v1.604
		c0,0.07-0.029,0.132-0.087,0.179c-0.059,0.047-0.127,0.07-0.208,0.07c-0.08,0-0.148-0.023-0.206-0.07
		c-0.06-0.047-0.087-0.108-0.087-0.179V49.63h-0.721c-0.071,0-0.132-0.023-0.18-0.07c-0.048-0.048-0.07-0.108-0.07-0.18
		c0-0.072,0.022-0.134,0.07-0.188c0.048-0.05,0.108-0.074,0.18-0.074h1.014c0.073,0,0.14,0.024,0.202,0.074
		c0.063,0.054,0.093,0.115,0.093,0.188v4.566c0.422-0.574,0.951-0.861,1.591-0.861c0.415,0,0.742,0.096,0.98,0.288
		c0.24,0.192,0.361,0.459,0.361,0.802c0,0.342-0.11,0.616-0.329,0.827c-0.354,0.342-0.856,0.515-1.504,0.515
		c-0.239,0-0.454-0.026-0.643-0.078c0.313,0.415,0.708,0.762,1.184,1.041S159.739,56.899,160.226,56.899 M157.142,54.98
		c0.318,0.053,0.646,0.077,0.981,0.077c0.334,0,0.645-0.068,0.931-0.202c0.288-0.135,0.431-0.35,0.431-0.648
		c0-0.415-0.251-0.62-0.752-0.62c-0.676,0-1.206,0.354-1.591,1.068V54.98z"/>
	<path d="M161.604,56.796c-0.39-0.403-0.584-0.918-0.584-1.543c0-0.624,0.197-1.139,0.59-1.541c0.39-0.402,0.893-0.606,1.503-0.606
		s1.11,0.204,1.499,0.606s0.583,0.919,0.583,1.547c0,0.629-0.194,1.143-0.583,1.542c-0.389,0.4-0.891,0.601-1.505,0.601
		C162.495,57.401,161.992,57.199,161.604,56.796 M163.113,56.899c0.444,0,0.805-0.153,1.086-0.458
		c0.278-0.305,0.418-0.7,0.418-1.183c0-0.483-0.14-0.879-0.418-1.188c-0.281-0.31-0.642-0.464-1.086-0.464
		c-0.442,0-0.805,0.154-1.084,0.464c-0.28,0.309-0.419,0.704-0.419,1.188c0,0.482,0.139,0.878,0.419,1.183
		C162.309,56.746,162.671,56.899,163.113,56.899"/>
	<path d="M166.198,56.867v-0.884c0-0.072,0.028-0.132,0.087-0.18c0.058-0.047,0.126-0.07,0.206-0.07c0.081,0,0.149,0.023,0.208,0.07
		c0.059,0.048,0.086,0.107,0.086,0.18v0.742c0.351,0.115,0.713,0.174,1.091,0.174c0.829,0,1.242-0.232,1.242-0.698
		c0-0.348-0.388-0.606-1.166-0.773c-0.036-0.007-0.115-0.025-0.239-0.055c-0.123-0.029-0.226-0.052-0.305-0.071
		c-0.08-0.017-0.213-0.061-0.399-0.13c-0.185-0.069-0.318-0.139-0.396-0.212c-0.218-0.197-0.327-0.438-0.327-0.727
		c0-0.286,0.096-0.519,0.289-0.696c0.191-0.178,0.405-0.293,0.638-0.349c0.232-0.054,0.486-0.082,0.763-0.082
		c0.508,0,0.977,0.099,1.404,0.293c0.131,0.059,0.198,0.139,0.198,0.241v0.838c0,0.073-0.03,0.134-0.088,0.181
		c-0.058,0.048-0.128,0.071-0.207,0.071c-0.08,0-0.149-0.023-0.207-0.071c-0.059-0.047-0.087-0.107-0.087-0.181v-0.697
		c-0.291-0.115-0.63-0.175-1.014-0.175c-0.742,0-1.112,0.213-1.112,0.633c0,0.153,0.049,0.259,0.146,0.317
		c0.099,0.058,0.172,0.102,0.219,0.131c0.048,0.028,0.132,0.058,0.256,0.088c0.175,0.041,0.354,0.081,0.534,0.118
		c0.182,0.037,0.331,0.07,0.448,0.098c0.115,0.03,0.262,0.078,0.44,0.147c0.178,0.069,0.318,0.148,0.419,0.234
		c0.255,0.203,0.382,0.469,0.382,0.795c0,0.328-0.106,0.587-0.321,0.779c-0.213,0.194-0.447,0.316-0.697,0.37
		c-0.251,0.055-0.522,0.083-0.813,0.083c-0.573,0-1.068-0.096-1.481-0.283C166.264,57.059,166.198,56.976,166.198,56.867"/>
	<path d="M174.492,56.146v0.905c0,0.159-0.095,0.24-0.285,0.24h-3.278c-0.189,0-0.284-0.091-0.284-0.273
		c0-0.354,0.125-0.673,0.376-0.953c0.25-0.279,0.615-0.584,1.095-0.91l0.393-0.272c0.697-0.479,1.108-0.896,1.231-1.254h-2.386v0.61
		c0,0.074-0.031,0.133-0.089,0.179c-0.058,0.049-0.127,0.073-0.205,0.073c-0.081,0-0.15-0.024-0.208-0.073
		c-0.058-0.046-0.088-0.104-0.088-0.179v-0.86c0-0.167,0.084-0.25,0.251-0.25h3.063c0.071,0,0.138,0.022,0.195,0.07
		c0.059,0.047,0.087,0.107,0.087,0.18c0,0.248-0.085,0.495-0.257,0.746c-0.169,0.251-0.346,0.45-0.526,0.596
		c-0.335,0.283-0.594,0.486-0.775,0.609l-0.327,0.239c-0.522,0.385-0.848,0.654-0.975,0.807c-0.128,0.153-0.209,0.291-0.245,0.413
		h2.647v-0.643c0-0.072,0.029-0.132,0.088-0.178c0.058-0.049,0.126-0.073,0.206-0.073s0.148,0.024,0.208,0.073
		C174.462,56.015,174.492,56.074,174.492,56.146"/>
	<path d="M178.856,56.561c0.076,0.015,0.129,0.047,0.156,0.094c0.03,0.047,0.044,0.089,0.044,0.125c0,0.108-0.04,0.189-0.118,0.239
		c-0.438,0.255-0.905,0.382-1.406,0.382s-0.861-0.104-1.079-0.311c-0.219-0.207-0.327-0.549-0.327-1.031v-2.331h-0.61
		c-0.073,0-0.132-0.021-0.18-0.07c-0.048-0.046-0.069-0.108-0.069-0.18c0-0.074,0.021-0.135,0.069-0.185
		c0.048-0.053,0.106-0.078,0.18-0.078h0.61v-1.558c0-0.073,0.029-0.133,0.087-0.179c0.058-0.047,0.128-0.072,0.206-0.072
		c0.08,0,0.15,0.025,0.209,0.072c0.058,0.046,0.087,0.105,0.087,0.179v1.558h1.83c0.072,0,0.132,0.025,0.181,0.078
		c0.047,0.05,0.07,0.11,0.07,0.185c0,0.071-0.023,0.134-0.07,0.18c-0.049,0.049-0.108,0.07-0.181,0.07h-1.83v2.331
		c0,0.307,0.063,0.523,0.19,0.65c0.127,0.126,0.364,0.19,0.708,0.19c0.346,0,0.692-0.102,1.042-0.305
		C178.712,56.557,178.779,56.546,178.856,56.561"/>
	<path d="M179.121,59.254l0.35,0.031c0.356,0,0.647-0.148,0.873-0.446c0.173-0.225,0.367-0.557,0.577-0.991l0.37-0.764l-1.775-3.597
		c-0.03-0.064-0.028-0.131,0.004-0.194c0.034-0.066,0.085-0.114,0.154-0.147c0.068-0.034,0.137-0.05,0.206-0.05
		s0.13,0.055,0.181,0.164l1.536,3.225l1.536-3.225c0.051-0.109,0.108-0.164,0.176-0.164c0.173,0,0.293,0.064,0.357,0.197
		c0.016,0.036,0.023,0.07,0.023,0.103c0,0.033-0.008,0.063-0.023,0.092l-2.221,4.578c-0.139,0.29-0.251,0.507-0.334,0.648
		c-0.083,0.143-0.205,0.314-0.365,0.518c-0.311,0.37-0.742,0.556-1.285,0.556c-0.153,0-0.27-0.011-0.35-0.034
		c-0.159-0.035-0.229-0.127-0.207-0.277C178.927,59.326,178.999,59.254,179.121,59.254"/>
	<path d="M190.848,56.899c0.074,0,0.133,0.023,0.181,0.07c0.046,0.048,0.071,0.107,0.071,0.182c0,0.07-0.025,0.132-0.071,0.179
		c-0.048,0.047-0.106,0.07-0.181,0.07c-0.646,0-1.235-0.175-1.771-0.528c-0.533-0.353-0.971-0.794-1.313-1.325v1.604
		c0,0.07-0.029,0.132-0.088,0.179c-0.057,0.047-0.127,0.07-0.205,0.07c-0.081,0-0.15-0.023-0.208-0.07
		c-0.059-0.047-0.088-0.108-0.088-0.179V49.63h-0.719c-0.073,0-0.133-0.023-0.179-0.07c-0.049-0.048-0.072-0.108-0.072-0.18
		c0-0.072,0.023-0.134,0.072-0.188c0.046-0.05,0.105-0.074,0.179-0.074h1.015c0.071,0,0.139,0.024,0.201,0.074
		c0.062,0.054,0.092,0.115,0.092,0.188v4.566c0.421-0.574,0.951-0.861,1.591-0.861c0.414,0,0.741,0.096,0.98,0.288
		c0.241,0.192,0.36,0.459,0.36,0.802c0,0.342-0.108,0.616-0.326,0.827c-0.357,0.342-0.858,0.515-1.504,0.515
		c-0.241,0-0.455-0.026-0.643-0.078c0.311,0.415,0.706,0.762,1.181,1.041C189.881,56.759,190.362,56.899,190.848,56.899
		 M187.765,54.98c0.319,0.053,0.646,0.077,0.98,0.077s0.646-0.068,0.933-0.202c0.286-0.135,0.431-0.35,0.431-0.648
		c0-0.415-0.252-0.62-0.753-0.62c-0.674,0-1.206,0.354-1.591,1.068V54.98z"/>
	<path d="M191.645,53.215h0.557c0.457,0,0.693,0.248,0.707,0.742c0.394-0.567,0.857-0.852,1.396-0.852
		c0.306,0,0.563,0.06,0.774,0.175c0.101,0.058,0.15,0.134,0.15,0.229v0.917c0,0.071-0.027,0.132-0.086,0.18
		c-0.058,0.047-0.128,0.069-0.207,0.069c-0.08,0-0.149-0.022-0.208-0.069c-0.058-0.048-0.086-0.108-0.086-0.18v-0.764
		c-0.096-0.035-0.236-0.055-0.425-0.055c-0.189,0-0.402,0.09-0.644,0.268c-0.239,0.179-0.446,0.441-0.621,0.79v2.486
		c0,0.07-0.029,0.13-0.087,0.178c-0.058,0.047-0.127,0.072-0.207,0.072c-0.079,0-0.149-0.025-0.207-0.072
		c-0.059-0.048-0.088-0.107-0.088-0.178v-3.216c0-0.14-0.072-0.208-0.217-0.208h-0.502c-0.072,0-0.132-0.022-0.18-0.071
		c-0.048-0.046-0.071-0.107-0.071-0.18s0.023-0.134,0.071-0.186C191.513,53.24,191.572,53.215,191.645,53.215"/>
	<path d="M199.273,56.245c0.051-0.087,0.108-0.131,0.174-0.131c0.064,0,0.131,0.017,0.196,0.049c0.065,0.033,0.11,0.083,0.136,0.153
		c0.025,0.069,0.021,0.133-0.016,0.188c-0.37,0.598-0.959,0.896-1.767,0.896c-0.639,0-1.141-0.206-1.509-0.617
		c-0.367-0.409-0.551-0.929-0.551-1.553s0.189-1.135,0.567-1.531c0.377-0.396,0.875-0.595,1.492-0.595
		c0.619,0,1.078,0.188,1.38,0.557c0.302,0.37,0.451,0.865,0.451,1.481c0,0.168-0.094,0.253-0.282,0.253l-3.019,0.011
		c0.027,0.448,0.177,0.811,0.44,1.083c0.266,0.272,0.607,0.409,1.029,0.409C198.565,56.899,198.991,56.68,199.273,56.245
		 M198.908,53.956c-0.207-0.231-0.506-0.349-0.894-0.349c-0.39,0-0.715,0.119-0.975,0.355c-0.262,0.236-0.426,0.545-0.491,0.932
		h2.703C199.229,54.501,199.116,54.189,198.908,53.956"/>
	<path d="M204.188,49.63h-0.719c-0.071,0-0.133-0.024-0.182-0.07c-0.046-0.05-0.068-0.108-0.068-0.18
		c0-0.073,0.022-0.134,0.068-0.186c0.049-0.053,0.11-0.076,0.182-0.076h1.014c0.079,0,0.148,0.023,0.207,0.076
		c0.058,0.052,0.087,0.112,0.087,0.186v7.191c0,0.14,0.074,0.208,0.218,0.208h0.502c0.073,0,0.132,0.023,0.18,0.071
		c0.047,0.047,0.07,0.107,0.07,0.179c0,0.073-0.023,0.135-0.07,0.188c-0.048,0.05-0.106,0.075-0.18,0.075h-0.577
		c-0.474,0-0.702-0.258-0.688-0.774c-0.159,0.248-0.368,0.455-0.627,0.626c-0.256,0.171-0.55,0.258-0.877,0.258
		c-0.646,0-1.131-0.209-1.454-0.622c-0.323-0.414-0.485-0.926-0.485-1.537c0-0.61,0.169-1.118,0.508-1.526
		c0.338-0.406,0.801-0.61,1.389-0.61c0.59,0,1.091,0.193,1.504,0.577V49.63z M202.727,53.607c-0.413,0-0.744,0.149-0.99,0.447
		c-0.247,0.298-0.371,0.702-0.371,1.209c0,0.51,0.121,0.909,0.365,1.198c0.243,0.292,0.576,0.438,0.996,0.438
		c0.611,0,1.099-0.346,1.461-1.037v-1.6c-0.188-0.183-0.414-0.337-0.681-0.465C203.241,53.671,202.982,53.607,202.727,53.607"/>
	<path d="M205.626,59.254l0.349,0.031c0.356,0,0.646-0.148,0.873-0.446c0.174-0.225,0.367-0.557,0.577-0.991l0.37-0.764
		l-1.775-3.597c-0.031-0.064-0.029-0.131,0.004-0.194c0.033-0.066,0.085-0.114,0.153-0.147c0.068-0.034,0.138-0.05,0.207-0.05
		s0.13,0.055,0.18,0.164l1.537,3.225l1.536-3.225c0.051-0.109,0.108-0.164,0.176-0.164c0.173,0,0.293,0.064,0.357,0.197
		c0.016,0.036,0.023,0.07,0.023,0.103c0,0.033-0.008,0.063-0.023,0.092l-2.222,4.578c-0.138,0.29-0.25,0.507-0.333,0.648
		c-0.083,0.143-0.205,0.314-0.365,0.518c-0.312,0.37-0.741,0.556-1.285,0.556c-0.153,0-0.27-0.011-0.351-0.034
		c-0.158-0.035-0.228-0.127-0.205-0.277C205.43,59.326,205.503,59.254,205.626,59.254"/>
	<path d="M214.306,56.561c0.078,0.015,0.13,0.047,0.159,0.094c0.028,0.047,0.044,0.089,0.044,0.125c0,0.108-0.04,0.189-0.12,0.239
		c-0.436,0.255-0.904,0.382-1.405,0.382c-0.502,0-0.861-0.104-1.079-0.311s-0.328-0.549-0.328-1.031v-2.331h-0.61
		c-0.071,0-0.132-0.021-0.18-0.07c-0.047-0.046-0.07-0.108-0.07-0.18c0-0.074,0.023-0.135,0.07-0.185
		c0.048-0.053,0.108-0.078,0.18-0.078h0.61v-1.558c0-0.073,0.029-0.133,0.087-0.179c0.059-0.047,0.128-0.072,0.208-0.072
		s0.148,0.025,0.208,0.072c0.059,0.046,0.086,0.105,0.086,0.179v1.558h1.831c0.072,0,0.133,0.025,0.181,0.078
		c0.048,0.05,0.069,0.11,0.069,0.185c0,0.071-0.021,0.134-0.069,0.18c-0.048,0.049-0.108,0.07-0.181,0.07h-1.831v2.331
		c0,0.307,0.064,0.523,0.19,0.65c0.127,0.126,0.364,0.19,0.71,0.19c0.345,0,0.692-0.102,1.04-0.305
		C214.163,56.557,214.231,56.546,214.306,56.561"/>
	<path d="M219.401,56.779h0.512c0.072,0,0.133,0.023,0.181,0.07s0.07,0.108,0.07,0.18c0,0.073-0.022,0.136-0.07,0.186
		s-0.108,0.077-0.181,0.077h-0.587c-0.451,0-0.676-0.247-0.676-0.742c-0.437,0.567-0.985,0.851-1.646,0.851
		c-0.392,0-0.713-0.1-0.965-0.299c-0.25-0.201-0.375-0.492-0.375-0.878v-2.288c0-0.139-0.1-0.208-0.295-0.208h-0.425
		c-0.073,0-0.133-0.024-0.18-0.076s-0.071-0.113-0.071-0.186c0-0.071,0.024-0.131,0.071-0.18c0.047-0.047,0.106-0.071,0.18-0.071
		h0.425c0.589,0,0.882,0.237,0.882,0.709v2.3c0,0.218,0.066,0.386,0.202,0.502c0.135,0.115,0.321,0.174,0.562,0.174
		c0.669,0,1.199-0.35,1.592-1.046v-2.496c0-0.072,0.028-0.134,0.087-0.18c0.059-0.048,0.127-0.071,0.207-0.071
		s0.147,0.023,0.208,0.071c0.058,0.046,0.086,0.107,0.086,0.18v3.214C219.194,56.71,219.264,56.779,219.401,56.779"/>
	<path d="M221.042,57.286c-0.069-0.075-0.104-0.169-0.104-0.278c0-0.108,0.034-0.203,0.104-0.278s0.165-0.113,0.289-0.113
		s0.221,0.038,0.294,0.113s0.109,0.17,0.109,0.278c0,0.109-0.036,0.203-0.109,0.278c-0.073,0.076-0.17,0.115-0.294,0.115
		S221.111,57.362,221.042,57.286"/>
</g>
</svg>
