<svg 
 xmlns="http://www.w3.org/2000/svg"
 xmlns:xlink="http://www.w3.org/1999/xlink"
 width="36px" height="36px">
<path fill-rule="evenodd"  fill="rgb(234, 98, 61)"
 d="M18.000,-0.000 C27.941,-0.000 36.000,8.059 36.000,18.000 C36.000,27.941 27.941,36.000 18.000,36.000 C8.059,36.000 -0.000,27.941 -0.000,18.000 C-0.000,8.059 8.059,-0.000 18.000,-0.000 Z"/>
<path fill-rule="evenodd"  fill="rgb(255, 255, 255)"
 d="M25.453,14.738 L20.632,14.003 L18.471,9.422 C18.349,9.147 18.192,9.009 18.000,9.009 C17.808,9.009 17.651,9.147 17.529,9.422 L15.369,14.003 L10.548,14.738 C10.189,14.799 10.010,14.953 10.010,15.202 C10.010,15.342 10.090,15.504 10.250,15.685 L13.746,19.250 L12.920,24.284 C12.907,24.378 12.900,24.445 12.900,24.486 C12.900,24.626 12.934,24.745 13.001,24.843 C13.069,24.940 13.169,24.989 13.304,24.989 C13.419,24.989 13.547,24.949 13.688,24.868 L18.000,22.492 L22.312,24.868 C22.447,24.949 22.575,24.989 22.696,24.989 C22.824,24.989 22.922,24.940 22.989,24.843 C23.056,24.745 23.090,24.626 23.090,24.486 C23.090,24.398 23.087,24.331 23.081,24.284 L22.255,19.250 L25.741,15.685 C25.907,15.510 25.990,15.349 25.990,15.202 C25.990,14.953 25.811,14.799 25.453,14.738 L25.453,14.738 Z"/>
</svg>