<svg 
 xmlns="http://www.w3.org/2000/svg"
 xmlns:xlink="http://www.w3.org/1999/xlink"
 width="36px" height="36px">
<path fill-rule="evenodd"  fill="rgb(234, 98, 61)"
 d="M18.000,-0.000 C27.941,-0.000 36.000,8.059 36.000,18.000 C36.000,27.941 27.941,36.000 18.000,36.000 C8.059,36.000 -0.000,27.941 -0.000,18.000 C-0.000,8.059 8.059,-0.000 18.000,-0.000 Z"/>
<path fill-rule="evenodd"  fill="rgb(255, 255, 255)"
 d="M22.302,17.989 L25.286,16.384 C25.630,16.203 25.853,15.934 25.954,15.576 C26.055,15.218 26.008,14.879 25.814,14.559 L25.096,13.412 C24.901,13.092 24.611,12.885 24.226,12.791 C23.841,12.698 23.476,12.741 23.132,12.922 L20.148,14.517 L20.148,11.316 C20.148,10.955 20.006,10.642 19.722,10.378 C19.437,10.113 19.101,9.981 18.712,9.981 L17.276,9.981 C16.887,9.981 16.550,10.113 16.266,10.378 C15.982,10.642 15.840,10.955 15.840,11.316 L15.840,14.517 L12.856,12.922 C12.511,12.741 12.147,12.698 11.762,12.791 C11.376,12.885 11.087,13.092 10.892,13.412 L10.174,14.559 C9.980,14.879 9.933,15.218 10.034,15.576 C10.135,15.934 10.357,16.203 10.702,16.384 L13.686,17.989 L10.702,19.595 C10.357,19.776 10.135,20.046 10.034,20.403 C9.933,20.762 9.980,21.100 10.174,21.420 L10.892,22.567 C11.087,22.887 11.376,23.094 11.762,23.188 C12.147,23.281 12.511,23.238 12.856,23.057 L15.840,21.462 L15.840,24.663 C15.840,25.025 15.982,25.337 16.266,25.602 C16.550,25.866 16.887,25.998 17.276,25.998 L18.712,25.998 C19.101,25.998 19.437,25.866 19.722,25.602 C20.006,25.337 20.148,25.025 20.148,24.663 L20.148,21.462 L23.132,23.057 C23.476,23.238 23.841,23.281 24.226,23.188 C24.611,23.094 24.901,22.887 25.096,22.567 L25.814,21.420 C26.008,21.100 26.055,20.762 25.954,20.403 C25.853,20.046 25.630,19.776 25.286,19.595 L22.302,17.989 Z"/>
</svg>