<svg 
 xmlns="http://www.w3.org/2000/svg"
 xmlns:xlink="http://www.w3.org/1999/xlink"
 width="121px" height="40px">
<defs>
<linearGradient id="PSgrad_0" x1="0%" x2="0%" y1="100%" y2="0%">
  <stop offset="0%" stop-color="#555258" stop-opacity="1" />
  <stop offset="100%" stop-color="#555258" stop-opacity="1" />
</linearGradient>

</defs>
<text kerning="auto" font-family="Myriad Pro" fill="rgb(0, 0, 0)" font-size="18px" x="50px" y="26px"><tspan font-size="18px" fill="#666666" style="text-transform: uppercase; font-weight: 600; font-family: 'Open Sans', arial;">Pluto</tspan></text>
<path fill-rule="evenodd"  fill="#555258"
 d="M20.000,40.000 C8.954,40.000 -0.000,31.046 -0.000,20.000 C-0.000,8.954 8.954,-0.000 20.000,-0.000 C31.046,-0.000 40.000,8.954 40.000,20.000 C40.000,31.046 31.046,40.000 20.000,40.000 ZM20.000,11.000 L15.000,11.000 L15.000,28.999 L20.000,28.999 L20.000,11.000 ZM22.000,11.000 C22.000,15.000 22.000,18.999 22.000,22.999 C25.314,22.999 28.000,20.313 28.000,16.999 C28.000,13.686 25.314,11.000 22.000,11.000 Z"/>
<path fill="url(#PSgrad_0)"
 d="M20.000,40.000 C8.954,40.000 -0.000,31.046 -0.000,20.000 C-0.000,8.954 8.954,-0.000 20.000,-0.000 C31.046,-0.000 40.000,8.954 40.000,20.000 C40.000,31.046 31.046,40.000 20.000,40.000 ZM20.000,11.000 L15.000,11.000 L15.000,28.999 L20.000,28.999 L20.000,11.000 ZM22.000,11.000 C22.000,15.000 22.000,18.999 22.000,22.999 C25.314,22.999 28.000,20.313 28.000,16.999 C28.000,13.686 25.314,11.000 22.000,11.000 Z"/>
</svg>