<svg 
 xmlns="http://www.w3.org/2000/svg"
 xmlns:xlink="http://www.w3.org/1999/xlink"
 width="70px" height="70px">
<path fill-rule="evenodd"  fill="rgb(234, 98, 61)"
 d="M35.000,-0.000 C54.330,-0.000 70.000,15.670 70.000,35.000 C70.000,54.330 54.330,70.000 35.000,70.000 C15.670,70.000 -0.000,54.330 -0.000,35.000 C-0.000,15.670 15.670,-0.000 35.000,-0.000 Z"/>
<path fill-rule="evenodd"  fill="rgb(255, 255, 255)"
 d="M46.999,38.973 C46.999,39.212 46.913,39.453 46.740,39.644 C46.368,40.050 45.736,40.080 45.327,39.711 L35.003,30.355 L24.679,39.711 C24.269,40.080 23.638,40.050 23.266,39.644 C22.897,39.236 22.925,38.605 23.333,38.235 L34.330,28.271 C34.712,27.926 35.294,27.926 35.675,28.271 L46.672,38.235 C46.889,38.432 46.999,38.702 46.999,38.973 Z"/>
</svg>