<?xml version="1.0" encoding="UTF-8"?>
<svg width="15px" height="15px" viewBox="0 0 15 15" version="1.1" xmlns="http://www.w3.org/2000/svg" xmlns:xlink="http://www.w3.org/1999/xlink">
    <!-- Generator: sketchtool 51.3 (57544) - http://www.bohemiancoding.com/sketch -->
    <title>4952CED2-CEA2-456C-AD35-7F704933F520</title>
    <desc>Created with sketchtool.</desc>
    <defs></defs>
    <g id="Page-2" stroke="none" stroke-width="1" fill="none" fill-rule="evenodd">
        <g id="Kontakt-2" transform="translate(-657.000000, -371.000000)" fill="#000000">
            <path d="M671.730414,383.995494 C671.26741,385.402444 669.453396,386.104419 668.157385,385.987423 C666.387371,385.827429 664.461356,384.888462 662.999344,383.854499 C660.850327,382.334553 658.837311,379.983637 657.664302,377.488726 C656.835295,375.725789 656.649294,373.557867 657.882304,371.950924 C658.338307,371.356945 658.831311,371.039956 659.572317,371.002958 C660.600325,370.952959 660.744326,371.540938 661.097329,372.456906 C661.360331,373.141881 661.711334,373.840856 661.907336,374.550831 C662.274339,375.875784 660.991328,375.930782 660.829327,377.013743 C660.728326,377.696719 661.556333,378.612686 661.930336,379.099669 C662.663342,380.053635 663.544349,380.876605 664.538356,381.502583 C665.107361,381.86157 666.026368,382.508547 666.678373,382.15156 C667.682381,381.601579 667.587381,379.90864 668.991392,380.481619 C669.718398,380.777609 670.422403,381.204594 671.116409,381.57858 C672.189417,382.15556 672.139417,382.753538 671.730414,383.995494 C671.424411,384.923461 672.036416,383.067527 671.730414,383.995494" id="call-[#192]"></path>
        </g>
    </g>
</svg>