<?xml version="1.0" encoding="utf-8"?>
<svg version="1.1" width="20" xmlns="http://www.w3.org/2000/svg" xmlns:xlink="http://www.w3.org/1999/xlink" x="0px" y="0px"
	 viewBox="0 0 20 20" style="enable-background:new 0 0 20 20;" xml:space="preserve">
<style type="text/css">
	.st0{fill:#010002;}
</style>
<g>
	<path class="st0" d="M13.8,10l5.6-5.6c0.8-0.8,0.8-2.2,0-3l-0.8-0.8c-0.8-0.8-2.2-0.8-3,0L10,6.2L4.4,0.6c-0.8-0.8-2.2-0.8-3,0
		L0.6,1.4c-0.8,0.8-0.8,2.2,0,3L6.2,10l-5.6,5.6c-0.8,0.8-0.8,2.2,0,3l0.8,0.8c0.8,0.8,2.2,0.8,3,0l5.6-5.6l5.6,5.6
		c0.8,0.8,2.2,0.8,3,0l0.8-0.8c0.8-0.8,0.8-2.2,0-3L13.8,10z"/>
</g>
</svg>
