<svg xmlns="http://www.w3.org/2000/svg" xmlns:xlink="http://www.w3.org/1999/xlink" width="11" height="11" viewBox="0 0 11 11">
    <defs>
        <path id="a" d="M0 .024h10.976v10.94H0z"/>
        <path id="c" d="M.033.498A.48.48 0 1 0 .995.496a.48.48 0 0 0-.962.002zm2.57 1.233v-.444H1.64v3.205h.965V2.759c0-.367.337-.724.758-.724.422 0 .526.357.526.715v1.742h.962V2.678c0-1.26-.599-1.492-1.066-1.492-.466 0-.884.17-1.18.545zM.039 4.492H1V1.297H.038v3.195z"/>
    </defs>
    <g fill="none" fill-rule="evenodd" opacity=".37">
        <g transform="translate(0 .011)">
            <mask id="b" fill="#fff">
                <use xlink:href="#a"/>
            </mask>
            <path fill="#000" d="M5.488.727C2.851.727.705 2.866.705 5.494c0 2.63 2.146 4.768 4.783 4.768 2.637 0 4.783-2.139 4.783-4.768 0-2.628-2.146-4.767-4.783-4.767m0 10.238C2.462 10.965 0 8.51 0 5.495 0 2.477 2.462.023 5.488.023c3.026 0 5.488 2.454 5.488 5.47 0 3.017-2.462 5.47-5.488 5.47" mask="url(#b)"/>
        </g>
        <g transform="translate(3.208 2.928)">
            <mask id="d" fill="#fff">
                <use xlink:href="#c"/>
            </mask>
            <path fill="#000" d="M-.143 4.668h5.169V-.158h-5.17z" mask="url(#d)"/>
        </g>
    </g>
</svg>
