<svg xmlns="http://www.w3.org/2000/svg" xmlns:xlink="http://www.w3.org/1999/xlink" width="14" height="11" viewBox="0 0 14 11">
    <defs>
        <path id="a" d="M.7 0C.313 0 0 .321 0 .717v9.566c0 .396.313.717.7.717h12.6c.387 0 .7-.321.7-.717V.717A.709.709 0 0 0 13.3 0H.7zM.467 10.283V.717C.467.585.57.478.7.478h12.6c.129 0 .233.107.233.24v9.565c0 .132-.104.239-.233.239H.7a.236.236 0 0 1-.233-.24z"/>
        <path id="c" d="M.154.014a.243.243 0 0 0-.07.408l5.38 4.636c.346.3.852.3 1.2 0L12.042.423a.243.243 0 0 0 .029-.337.23.23 0 0 0-.329-.03l-5.38 4.636a.458.458 0 0 1-.6 0L.383.056a.23.23 0 0 0-.23-.042z"/>
        <path id="e" d="M3.34.08L.066 3.681a.245.245 0 0 0-.057.236c.024.084.09.147.173.166a.23.23 0 0 0 .225-.075l3.273-3.6a.245.245 0 0 0 .057-.236A.236.236 0 0 0 3.514 0a.231.231 0 0 0-.175.08z"/>
        <path id="g" d="M.183.006A.236.236 0 0 0 .01.17a.241.241 0 0 0 .057.234L3.346 3.98a.231.231 0 0 0 .327.008.241.241 0 0 0 .015-.333L.41.08A.233.233 0 0 0 .183.006z"/>
    </defs>
    <g fill="none" fill-rule="evenodd" opacity=".37">
        <g>
            <mask id="b" fill="#fff">
                <use xlink:href="#a"/>
            </mask>
            <path fill="#000" d="M-.177 11.18h14.354V-.18H-.177z" mask="url(#b)"/>
        </g>
        <g transform="translate(.92 .94)">
            <mask id="d" fill="#fff">
                <use xlink:href="#c"/>
            </mask>
            <path fill="#000" d="M-.177 5.464h12.48V-.181H-.177z" mask="url(#d)"/>
        </g>
        <path fill="#000" d="M1.152.977a.192.192 0 0 0-.067.012.206.206 0 0 0-.06.346l5.38 4.636a.877.877 0 0 0 1.155 0l5.38-4.635a.205.205 0 0 0 .024-.286.195.195 0 0 0-.279-.025L7.305 5.66a.491.491 0 0 1-.646 0L1.28 1.024a.195.195 0 0 0-.127-.047m5.83 5.284a.95.95 0 0 1-.622-.234L.98 1.39a.28.28 0 0 1-.092-.259.274.274 0 0 1 .173-.21.264.264 0 0 1 .264.047l5.38 4.636c.16.139.394.139.555 0L12.64.97a.265.265 0 0 1 .378.034.278.278 0 0 1-.033.388l-5.38 4.636a.95.95 0 0 1-.623.234"/>
        <g transform="translate(.92 5.97)">
            <mask id="f" fill="#fff">
                <use xlink:href="#e"/>
            </mask>
            <path fill="#000" d="M-.177 4.27h4.101V-.18h-4.1z" mask="url(#f)"/>
        </g>
        <path fill="#000" d="M4.433 6.007a.196.196 0 0 0-.148.068L1.012 9.676a.208.208 0 0 0-.05.201c.021.071.078.125.148.141a.196.196 0 0 0 .191-.063l3.273-3.602c.051-.053.07-.13.05-.2a.2.2 0 0 0-.191-.146m-3.28 4.088a.272.272 0 0 1-.258-.198.282.282 0 0 1 .065-.27l3.272-3.6a.265.265 0 0 1 .26-.086.272.272 0 0 1 .199.19c.028.097.003.2-.065.272l-3.273 3.6a.266.266 0 0 1-.2.092"/>
        <g transform="translate(9.333 5.97)">
            <mask id="h" fill="#fff">
                <use xlink:href="#g"/>
            </mask>
            <path fill="#000" d="M-.177 4.234h4.101V-.181h-4.1z" mask="url(#h)"/>
        </g>
        <path fill="#000" d="M9.567 6.007a.2.2 0 0 0-.19.145.205.205 0 0 0 .048.198l3.28 3.576c.074.078.199.08.277.006.08-.075.086-.2.013-.282L9.716 6.074a.197.197 0 0 0-.149-.067m3.28 4.052a.267.267 0 0 1-.193-.082L9.374 6.4a.278.278 0 0 1-.065-.27.267.267 0 1 1 .46-.105l3.278 3.576a.28.28 0 0 1-.017.384.266.266 0 0 1-.183.074"/>
    </g>
</svg>
