<?xml version="1.0" encoding="utf-8"?>
<!-- Generator: Adobe Illustrator 15.0.0, SVG Export Plug-In . SVG Version: 6.00 Build 0)  -->
<!DOCTYPE svg PUBLIC "-//W3C//DTD SVG 1.1//EN" "http://www.w3.org/Graphics/SVG/1.1/DTD/svg11.dtd">
<svg version="1.1" id="Capa_1" xmlns="http://www.w3.org/2000/svg" xmlns:xlink="http://www.w3.org/1999/xlink" x="0px" y="0px"
	 width="90px" height="90px" viewBox="0 0 90 90" enable-background="new 0 0 90 90" xml:space="preserve">
<path fill="#FFFFFF" d="M52.938,16.487c1.98,0,6.16,0,10.031,0c0-2.038,0-9.076,0-15.576c-5.167,0-11.046,0-13.639,0
	c-19.323,0-18.866,14.974-18.866,17.211c0,2.239,0,12.235,0,12.235H21.5v14.962h8.965v44.454h18.412V45.319h12.356
	c0,0,1.157-7.175,1.718-15.018c-1.61,0-14.004,0-14.004,0s0-8.704,0-10.23C48.945,18.542,50.952,16.487,52.938,16.487z"/>
</svg>
