<?xml version="1.0" encoding="utf-8"?>
<!-- Generator: Adobe Illustrator 15.0.0, SVG Export Plug-In . SVG Version: 6.00 Build 0)  -->
<!DOCTYPE svg PUBLIC "-//W3C//DTD SVG 1.1//EN" "http://www.w3.org/Graphics/SVG/1.1/DTD/svg11.dtd">
<svg version="1.1" id="Capa_1" xmlns="http://www.w3.org/2000/svg" xmlns:xlink="http://www.w3.org/1999/xlink" x="0px" y="0px"
	 width="90px" height="90px" viewBox="0 0 90 90" enable-background="new 0 0 90 90" xml:space="preserve">
<g>
	<path fill="#FFFFFF" d="M44.544,22.286c-12.572,0-22.989,10.236-22.989,22.989s10.238,22.991,22.989,22.991
		c12.754,0,22.992-10.418,22.992-22.991C67.536,32.704,57.117,22.286,44.544,22.286z M44.544,60.005
		c-8.083,0-14.728-6.646-14.728-14.729c0-8.082,6.646-14.728,14.728-14.728c8.084,0,14.729,6.646,14.729,14.728
		C59.273,53.359,52.628,60.005,44.544,60.005z"/>
	<circle fill="#FFFFFF" cx="68.433" cy="21.746" r="5.208"/>
	<path fill="#FFFFFF" d="M81.904,8.276c-4.67-4.851-11.315-7.365-18.859-7.365H26.044C10.418,0.911,0,11.329,0,26.954v36.823
		C0,71.5,2.514,78.146,7.544,82.996C12.393,87.665,18.86,90,26.225,90h36.642c7.723,0,14.189-2.515,18.859-7.004
		c4.85-4.67,7.363-11.315,7.363-19.04V26.954C89.089,19.411,86.575,12.946,81.904,8.276z M81.186,63.956
		c0,5.568-1.976,10.058-5.209,13.112c-3.233,3.053-7.723,4.67-13.11,4.67H26.225c-5.389,0-9.88-1.617-13.112-4.67
		c-3.235-3.233-4.849-7.723-4.849-13.291V26.954c0-5.387,1.614-9.879,4.849-13.11c3.053-3.054,7.723-4.67,13.112-4.67h37
		c5.389,0,9.879,1.616,13.111,4.849c3.053,3.233,4.85,7.723,4.85,12.931V63.956L81.186,63.956z"/>
</g>
</svg>
