<?xml version="1.0" encoding="utf-8"?>
<!-- Generator: Adobe Illustrator 15.0.0, SVG Export Plug-In . SVG Version: 6.00 Build 0)  -->
<!DOCTYPE svg PUBLIC "-//W3C//DTD SVG 1.1//EN" "http://www.w3.org/Graphics/SVG/1.1/DTD/svg11.dtd">
<svg version="1.1" id="Warstwa_1" xmlns="http://www.w3.org/2000/svg" xmlns:xlink="http://www.w3.org/1999/xlink" x="0px" y="0px"
	 width="85.04px" height="85.04px" viewBox="0 0 85.04 85.04" enable-background="new 0 0 85.04 85.04" xml:space="preserve">
<g>
	<rect fill="#231F20" stroke="#FFFFFF" stroke-miterlimit="10" width="86.177" height="73.876"/>
	<polygon fill="#231F20" points="43.088,84.656 39.832,79.016 36.575,73.375 43.088,73.375 49.602,73.375 46.345,79.016 	"/>
</g>
<g>
	<g>
		<path fill="#9E8B7B" d="M81.936,47.982c-4.7-1.091-5.242,3.28-8.82,3.246c-2.335-2.111-6.191-8.128-9.636-8.011
			c-0.675-1.96-1.351-3.922-2.028-5.882c-0.979-4.111,2.647-7.333,5.071-8.417l0.203-0.303c-1.893-2.942-3.785-5.883-5.679-8.824
			c-1.733-0.325-5.065,1.524-8.113,0.812c-4.176-0.977-6.058-3.683-9.229-5.171l-0.609-0.61c-3.499,2.7-6.97,7.067-13.792,5.983
			c-1.547-0.246-2.606-0.285-3.649-0.913c-1.96,2.974-3.922,5.95-5.882,8.924c2.301,1.845,6.342,3.899,5.272,8.924
			c-0.415,1.955-1.877,2.852-1.925,5.375c-5.753,0.026-5.743,6.979-10.141,8.315c-1.936,0.588-3.84-1.917-5.071-2.636
			c-1.625-0.951-3.56-0.162-5.071,0.304c0.608,0.404,1.217,0.811,1.826,1.216c2.11,2.771,5.93,8.08,11.56,5.78
			c2.608-1.065,3.908-4.172,6.897-4.563c0.101,0.101,0.202,0.202,0.303,0.304c0.297,2.124-1.286,3.447-1.724,5.273v0.102
			c2.142,1.116,3.412-1.845,4.869-2.334c0.835-0.278,2.159,1.296,3.042,1.523c4.491,1.145,10.937,0.547,12.778,4.259
			c0.237,0.201,0.474,0.404,0.71,0.607c2.972-5.321,12.824-2.356,16.225-6.39c1.726,0.516,2.742,2.085,4.565,2.738h0.709
			c-0.491-2.07-1.719-3.555-1.724-5.781v-0.102c0.202-0.1,0.404-0.2,0.607-0.302c2.617,1.114,4.074,3.564,6.692,4.562
			c6.806,2.593,9.499-5.239,13.185-6.896l0.202-0.303C83.152,48.195,82.781,48.18,81.936,47.982 M58.916,49.199
			c-2.708,4.397-13.79,2.865-15.516,6.795c-0.102,0.067-0.203,0.135-0.304,0.203c-3.28-4.374-12.918-2.167-15.819-6.998
			c-3.523-5.864,5.538-12.427,0.912-19.166c-0.667-0.972-1.528-2.132-2.636-2.637c0.574-1.081,1.149-2.164,1.724-3.245
			c7.165,0.794,12.295,0.546,15.921-4.259c4.568,3.444,8.156,6.165,16.022,4.056c0.509,1.149,1.016,2.299,1.521,3.448
			c-1.258,0.687-1.897,1.723-2.636,2.942C54.001,37.102,62.506,43.368,58.916,49.199"/>
	</g>
	<g>
		<path fill="#9E8B7B" d="M40.967,26.484c2.522-0.036,3.638,0.994,5.678,1.217c0.61-0.372,1.218-0.743,1.826-1.115
			c0.608,2.13,1.217,4.259,1.826,6.389c-0.405,0.067-0.812,0.135-1.218,0.203c-0.786-1.793-3.491-4.387-5.374-5.071
			c-2.841-1.029-5.743,0.928-4.969,3.854c0.992,3.75,10.401,3.341,12.372,8.113c1.75,4.239-1.532,8.609-4.767,9.33
			c-2.306,0.513-4.337-0.551-6.186-0.812c-1.632-0.231-2.637,0.646-3.549,0.607c-0.608-2.229-1.217-4.462-1.826-6.693
			c0.034-0.033,0.068-0.068,0.102-0.101c0.405-0.101,0.812-0.203,1.217-0.304c1.39,2.844,5.71,8.372,10.04,5.475
			c0.853-0.569,1.666-1.3,1.927-2.434c0.567-2.481-1.691-3.297-3.044-3.955c-4.408-2.144-8.855-2.125-9.735-7.911
			c-0.297-1.949,0.619-3.668,1.622-4.665C38.038,27.494,39.391,27.219,40.967,26.484"/>
	</g>
</g>
</svg>
